<svg xmlns="http://www.w3.org/2000/svg" width="300" height="200" fill="none" viewBox="0 0 300 200"><path fill="#000" d="M0 0h300v200H0z"/><path stroke="#fff" stroke-width="7" d="M18 27h264M18 135h264"/><path stroke="#ff2828" stroke-width="3" d="M13 81s54.787-46 137.5-46S288 81 288 81M13 81s54.787 46 137.5 46S288 81 288 81"/><path stroke="#ff2828" stroke-dasharray="5 5" d="M13 81h275M13 81s54.787 24.5 137.5 24.5S288 81 288 81"/><path stroke="#ff2828" stroke-dasharray="5 5" d="M12 82.5S66.787 58 149.5 58 287 82.5 287 82.5"/><path fill="#ffe44a" d="m24 164 10 5.774v-11.548zm258 0-10-5.774v11.548zm-249 0v1h240v-2H33zM152.454 174.273 149.677 191h-1.453l2.777-16.727z"/></svg>