<svg xmlns="http://www.w3.org/2000/svg" width="300" height="200" fill="none" viewBox="0 0 300 200"><path fill="#000" d="M0 0h300v200H0z"/><path stroke="#ff2828" stroke-width="3" d="M26 90s77.5-33.5 121.5-40 75-5 122 0"/><path stroke="#ff2828" stroke-width="3" d="M26 88s77.5 33.5 121.5 40 75 5 122 0"/><path stroke="#f4495a" stroke-dasharray="5 5" d="M29.5 88.5S91.25 67 149 67s118.5 3 118.5 3M29 91s61.75 21.5 119.5 21.5 118.5-3 118.5-3M30 89h236.5"/><path fill="#fff" d="m23 155 10 5.774v-11.548zm259 0-10-5.774v11.547zm-250 0v1h241v-2H32zM155.454 168.273 152.677 185h-1.453l2.777-16.727z"/><path stroke="#fff" stroke-width="7" d="M285 37H23v101h262"/></svg>