<svg xmlns="http://www.w3.org/2000/svg" width="300" height="200" fill="none" viewBox="0 0 300 200"><path fill="#000" d="M0 0h300v200H0z"/><path fill="url(#a)" d="M87 178.5V194h23v-15.5l9-5 3-3.368V79H75v87.335l.723 4.882 5.062 3.797z"/><path stroke="#fff" stroke-linecap="round" stroke-width="4" d="M74 39v128.917c0 9.208 12 10.291 12 10.291V195M121 39v128.917c0 9.208-12 10.291-12 10.291V195"/><path fill="url(#b)" d="M197 183.97V193h23v-14.5l6-3 3.5-2L232 126h-47v45.5l5.785 5 4.215 2z"/><path stroke="#fff" stroke-linecap="round" stroke-width="4" d="M184 38v128.917c0 9.208 12 10.291 12 10.291V194M231 38v128.917c0 9.208-12 10.291-12 10.291V194"/><path fill="#ffff28" d="m57 38-5.773 10h11.547zm0 41 5.773-10H51.227zm0-32h-1v23h2V47zM247 38l-5.774 10h11.548zm0 88 5.774-10h-11.547zm0-79h-1v70h2V47zM33.086 39.818 28.739 66h-2.275l4.346-26.182zM36.55 70.5l2.25-13.551h-.128l-4.359 2.595.37-2.122 4.373-2.62h2.148L38.596 70.5zM265.336 63.818 260.989 90h-2.275l4.346-26.182zM265.17 94.5l.23-1.534 6.801-5.51a32 32 0 0 0 1.981-1.7q.78-.73 1.189-1.355.409-.64.512-1.343.204-1.227-.614-1.994-.805-.767-2.25-.767-1.47 0-2.582.83-1.1.832-1.304 2.123h-2.071q.332-2.007 2.032-3.324 1.713-1.33 4.117-1.33 1.597 0 2.697.601 1.113.602 1.611 1.637.498 1.023.294 2.3a5.1 5.1 0 0 1-.652 1.79q-.486.832-1.483 1.803-.997.96-2.659 2.289l-4.513 3.643v.09h8.348l-.281 1.751z"/><path fill="url(#c)" d="M78.058 5.267q-2.37 0-4.21 1.04-1.842 1.056-2.899 2.982-1.04 1.926-1.039 4.568 0 2.66 1.04 4.586 1.056 1.943 2.898 2.966 1.84 1.04 4.21 1.04h22.534v5.283h-22.96q-3.665 0-6.495-1.721-2.813-1.722-4.432-4.841-1.005-1.958-1.38-4.339H40v-6h25.336q.377-2.337 1.37-4.268 1.618-3.12 4.43-4.841Q73.968 0 77.633 0h22.96v5.267z"/><path fill="url(#d)" d="M229.534 5.267q2.37 0 4.21 1.04 1.841 1.056 2.899 2.982 1.04 1.926 1.039 4.568 0 2.66-1.039 4.586-1.058 1.943-2.899 2.966-1.84 1.04-4.21 1.04H207v5.283h22.96q3.665 0 6.495-1.721 2.812-1.722 4.432-4.841 1.005-1.958 1.38-4.339h25.325v-6h-25.336q-.378-2.337-1.369-4.268-1.62-3.12-4.432-4.841Q233.625 0 229.96 0H207v5.267z"/><defs><linearGradient id="a" x1="98.5" x2="98.5" y1="79" y2="194" gradientUnits="userSpaceOnUse"><stop stop-color="#4cf5fb"/><stop offset="1" stop-color="#2d9295"/></linearGradient><linearGradient id="b" x1="208.5" x2="208.5" y1="126" y2="193" gradientUnits="userSpaceOnUse"><stop stop-color="#4cf5fb"/><stop offset="1" stop-color="#2d9295"/></linearGradient><linearGradient id="c" x1="100.592" x2="40" y1="13.866" y2="13.866" gradientUnits="userSpaceOnUse"><stop stop-color="#fff"/><stop offset="1" stop-color="#999"/></linearGradient><linearGradient id="d" x1="207" x2="267.592" y1="13.866" y2="13.866" gradientUnits="userSpaceOnUse"><stop stop-color="#fff"/><stop offset="1" stop-color="#999"/></linearGradient></defs></svg>