<svg xmlns="http://www.w3.org/2000/svg" width="300" height="200" fill="none" viewBox="0 0 300 200"><g clip-path="url(#a)"><path fill="#000" d="M0 0h300v200H0z"/><path stroke="#ffff28" stroke-width="3" d="M23 87s51.5-33.5 116-33.5S255 87 255 87"/><path stroke="#ffff28" stroke-dasharray="5 5" d="M20 85s51.5 33.5 116 33.5S252 85 252 85M20 85h232"/><path stroke="#ffff28" stroke-width="3" d="M269.5 100v70"/><circle cx="252" cy="105.5" r="20.5" fill="url(#b)"/><rect width="51" height="51" x="243.5" y="144" fill="url(#c)" rx="8"/><path stroke="#535353" stroke-width="3" d="m234.726 134.209 18-29"/><path fill="#000" d="m253.417 179 3.272-19.636h2.212l-.511 3.017h.204a6.2 6.2 0 0 1 2.378-2.391q1.521-.882 3.452-.882 2.02 0 3.17.959 1.151.945 1.534 2.608h.167a6.77 6.77 0 0 1 2.595-2.595q1.674-.972 3.822-.972 2.724 0 4.027 1.726 1.304 1.726.754 5.011L278.295 179h-2.276l2.199-13.155q.37-2.326-.601-3.49-.972-1.163-2.915-1.163-2.25 0-3.72 1.38-1.457 1.368-1.802 3.503L267.019 179h-2.327l2.238-13.359q.32-1.995-.576-3.222-.882-1.227-2.902-1.227-1.368 0-2.569.677a6.05 6.05 0 0 0-2.02 1.854q-.819 1.176-1.074 2.697L255.692 179z"/><path stroke="url(#d)" stroke-width="16" d="M17 59.5v79h214.5v44"/><path fill="url(#e)" d="M25.466 26.534q0 2.37-1.04 4.211-1.057 1.84-2.983 2.898-1.926 1.04-4.568 1.04-2.659 0-4.585-1.04-1.943-1.057-2.966-2.898-1.04-1.841-1.04-4.21V4H3v22.96q0 3.666 1.722 6.495 1.721 2.812 4.84 4.432a14 14 0 0 0 3.576 1.24v21.216h6V39.36q2.79-.322 5.033-1.473 3.12-1.62 4.84-4.432 1.722-2.83 1.722-6.494V4h-5.267z"/><path fill="#fff" d="m23 163 9.918 5.914.162-11.546zm213 3-9.918-5.914-.162 11.546zm-204-2.873-.015 1 195.002 2.746.014-1 .014-1-195.002-2.746zM137.415 170.727 133.551 194h-2.023l3.864-23.273z"/></g><defs><linearGradient id="b" x1="252" x2="252" y1="85" y2="126" gradientUnits="userSpaceOnUse"><stop stop-color="#d9d9d9"/><stop offset="1" stop-color="#737373"/></linearGradient><linearGradient id="c" x1="269" x2="269" y1="144" y2="195" gradientUnits="userSpaceOnUse"><stop stop-color="#67ffa6"/><stop offset="1" stop-color="#3e9964"/></linearGradient><linearGradient id="d" x1="124.25" x2="124.25" y1="48" y2="182.5" gradientUnits="userSpaceOnUse"><stop stop-color="#8d4b00"/><stop offset="1" stop-color="#271500"/></linearGradient><linearGradient id="e" x1="16.867" x2="16.867" y1="4" y2="60.343" gradientUnits="userSpaceOnUse"><stop stop-color="#fff"/><stop offset="1" stop-color="#999"/></linearGradient><clipPath id="a"><path fill="#fff" d="M0 0h300v200H0z"/></clipPath></defs></svg>