<svg xmlns="http://www.w3.org/2000/svg" width="300" height="200" fill="none" viewBox="0 0 300 200"><path fill="#000" d="M0 0h300v200H0z"/><path stroke="#fff" stroke-width="4" d="M179 118h117"/><path fill="#fff" d="m139 21-10-5.773v11.546zm-72 0v1h63v-2H67z"/><path stroke="#f4495a" stroke-width="12" d="M179 118h-40.215s-11.792-76-40.214-76-40.215 76-40.215 76H0"/><path fill="#fff" d="M57.333 156h-4.941l2.776-16.727h5.154q2.385 0 3.937 1.013t2.156 2.899q.605 1.879.164 4.492-.434 2.614-1.658 4.476a8.3 8.3 0 0 1-3.153 2.859q-1.92.988-4.435.988m-3.185-1.372h3.267q2.14 0 3.74-.866a6.96 6.96 0 0 0 2.606-2.458q1.005-1.602 1.364-3.798.36-2.156-.082-3.692-.433-1.536-1.674-2.352-1.233-.817-3.276-.817H56.46zm19.49 1.633q-1.757 0-2.9-.816-1.144-.825-1.6-2.279-.458-1.463-.14-3.365.32-1.895 1.258-3.365.94-1.478 2.32-2.312a5.65 5.65 0 0 1 2.997-.841q1.02 0 1.911.376a3.76 3.76 0 0 1 1.511 1.135q.63.76.874 1.919.246 1.153-.016 2.728l-.114.719h-9.802l.205-1.282h8.323q.203-1.209-.115-2.173-.318-.963-1.086-1.527-.76-.572-1.887-.572a4.04 4.04 0 0 0-2.18.645 5.9 5.9 0 0 0-1.732 1.683 5.6 5.6 0 0 0-.907 2.197l-.163.964q-.26 1.593.065 2.671.327 1.07 1.185 1.617.857.547 2.197.547.898 0 1.625-.278a4.2 4.2 0 0 0 1.266-.743 4.2 4.2 0 0 0 .866-1.037l1.298.449a5.2 5.2 0 0 1-1.176 1.462 5.9 5.9 0 0 1-1.788 1.078q-1.03.4-2.296.4m11.077-8.102L83.416 156h-1.454l2.091-12.545h1.413l-.326 1.968h.13a4.35 4.35 0 0 1 1.626-1.544q1.045-.588 2.425-.588 1.258 0 2.124.531.874.523 1.241 1.544.375 1.02.131 2.507L91.453 156H90l1.34-8.037q.253-1.536-.45-2.434-.693-.906-2.148-.906-.987 0-1.837.424a3.9 3.9 0 0 0-1.421 1.225q-.58.793-.768 1.887m20.629-1.952-1.397.359a2.8 2.8 0 0 0-.392-1.012 1.9 1.9 0 0 0-.808-.719q-.523-.27-1.372-.27-1.275 0-2.197.621-.924.612-1.078 1.568-.132.801.334 1.299.474.498 1.585.784l1.829.466q1.52.391 2.165 1.225.653.833.449 2.107a3.7 3.7 0 0 1-.907 1.878q-.719.817-1.845 1.283-1.12.465-2.5.465-1.854 0-2.916-.833-1.053-.833-1.127-2.401l1.462-.327q.066 1.112.76 1.683.702.572 1.977.572 1.453 0 2.442-.662.987-.662 1.135-1.634.138-.767-.286-1.274-.417-.506-1.421-.751l-1.952-.49q-1.576-.4-2.23-1.25-.645-.858-.433-2.115a3.58 3.58 0 0 1 .866-1.822 4.7 4.7 0 0 1 1.756-1.225 5.9 5.9 0 0 1 2.32-.449q1.73 0 2.638.784.906.776 1.143 2.14m6.769 10.054q-1.756 0-2.899-.816-1.144-.825-1.601-2.279-.458-1.463-.139-3.365.318-1.895 1.258-3.365.939-1.478 2.319-2.312a5.65 5.65 0 0 1 2.998-.841q1.02 0 1.911.376a3.76 3.76 0 0 1 1.511 1.135q.629.76.874 1.919.245 1.153-.016 2.728l-.115.719h-9.801l.204-1.282h8.323q.204-1.209-.114-2.173-.32-.963-1.087-1.527-.76-.572-1.886-.572a4.04 4.04 0 0 0-2.181.645 5.9 5.9 0 0 0-1.732 1.683 5.6 5.6 0 0 0-.906 2.197l-.163.964q-.262 1.593.065 2.671.327 1.07 1.184 1.617.858.547 2.197.547.899 0 1.626-.278a4.2 4.2 0 0 0 1.266-.743q.539-.474.865-1.037l1.299.449a5.2 5.2 0 0 1-1.176 1.462 5.9 5.9 0 0 1-1.789 1.078q-1.029.4-2.295.4m8.325-.261 2.091-12.545h1.413l-.327 1.927h.106q.523-.948 1.56-1.527a4.5 4.5 0 0 1 2.23-.588q.18 0 .4.008.22 0 .368.016l-.253 1.479q-.099-.017-.343-.049a4 4 0 0 0-.531-.033 4.01 4.01 0 0 0-3.202 1.552 3.76 3.76 0 0 0-.719 1.658L121.892 156zm-70.02 11.273h1.764l3.66 14.571h.154l8.47-14.571h1.765L63.454 184h-1.438l2.254-13.501h-.13L56.242 184h-1.389l-3.39-13.501h-.13L49.079 184H47.64zm22.22 16.988q-1.755 0-2.9-.816-1.144-.825-1.6-2.279-.458-1.463-.14-3.365.319-1.895 1.259-3.365.939-1.479 2.32-2.312a5.65 5.65 0 0 1 2.997-.841q1.02 0 1.91.376a3.76 3.76 0 0 1 1.512 1.135q.629.76.874 1.919.245 1.153-.017 2.728l-.114.719h-9.801l.204-1.282h8.323q.204-1.209-.114-2.173-.32-.963-1.087-1.527-.76-.572-1.886-.572a4.04 4.04 0 0 0-2.181.645 5.9 5.9 0 0 0-1.732 1.683 5.6 5.6 0 0 0-.906 2.197l-.164.964q-.261 1.593.066 2.671.326 1.07 1.184 1.617t2.197.547q.898 0 1.626-.278a4.2 4.2 0 0 0 1.266-.743 4.2 4.2 0 0 0 .865-1.037l1.299.449a5.2 5.2 0 0 1-1.176 1.462 5.9 5.9 0 0 1-1.789 1.078q-1.029.4-2.295.4m12.817 0q-1.544 0-2.573-.816-1.029-.817-1.437-2.279t-.09-3.406q.327-1.936 1.217-3.39.898-1.461 2.197-2.27a5.27 5.27 0 0 1 2.85-.817q1.151 0 1.838.408.694.4 1.054.997.359.596.514 1.16h.131l1.094-6.575h1.462L90.936 184h-1.414l.392-2.328h-.18a7.3 7.3 0 0 1-.922 1.176 4.8 4.8 0 0 1-1.389 1.005q-.825.408-1.968.408m.319-1.331q1.215 0 2.197-.662.987-.67 1.65-1.837.669-1.176.914-2.696.253-1.502-.008-2.654-.261-1.16-1.013-1.813-.75-.662-1.984-.662-1.25 0-2.222.686-.972.678-1.609 1.838a8.4 8.4 0 0 0-.874 2.605q-.237 1.462 0 2.639.238 1.176.964 1.87.735.686 1.984.686m9.31 1.07 2.091-12.545h1.463L96.547 184zm3.35-14.726a1.07 1.07 0 0 1-.777-.311 1 1 0 0 1-.302-.751q.017-.416.335-.719.327-.31.768-.31.457 0 .776.318a.96.96 0 0 1 .302.752.98.98 0 0 1-.335.719 1.1 1.1 0 0 1-.768.302m10.721 9.932 1.299-7.751h1.454L109.817 184h-1.454l.343-2.083h-.106q-.588.964-1.666 1.609-1.07.637-2.451.637-1.2 0-2.05-.522-.84-.532-1.2-1.552-.36-1.022-.115-2.508l1.364-8.126h1.454l-1.339 8.036q-.237 1.471.473 2.369.72.89 2.075.89.85 0 1.699-.408a4.2 4.2 0 0 0 1.486-1.192q.638-.793.825-1.944m4.511 4.794 2.091-12.545h1.413l-.327 1.927h.131a3.97 3.97 0 0 1 1.519-1.527q.972-.564 2.205-.564 1.291 0 2.026.613.735.604.98 1.666h.106a4.33 4.33 0 0 1 1.658-1.658q1.07-.621 2.442-.621 1.74 0 2.573 1.103t.482 3.202L129.56 184h-1.454l1.405-8.404q.237-1.487-.384-2.23-.62-.744-1.862-.743-1.438 0-2.377.882-.931.873-1.151 2.238L122.356 184h-1.486l1.429-8.535q.204-1.275-.367-2.058-.564-.784-1.854-.784-.874 0-1.642.432a3.9 3.9 0 0 0-1.291 1.185 4.2 4.2 0 0 0-.686 1.723L115.12 184zM204.308 156l2.777-16.727h5.399q1.78 0 2.867.637 1.094.637 1.511 1.772.424 1.127.187 2.597-.244 1.454-1.045 2.573a5.44 5.44 0 0 1-2.091 1.756q-1.299.63-3.063.629h-4.59l.237-1.396h4.549q1.315 0 2.255-.433a3.7 3.7 0 0 0 1.502-1.234q.564-.8.744-1.895.18-1.102-.123-1.919-.294-.816-1.094-1.266-.793-.449-2.116-.449h-3.83L205.835 156zm8.625-7.547L215.8 156h-1.756l-2.818-7.547zm9.054 7.833q-1.136 0-2.001-.441a2.9 2.9 0 0 1-1.291-1.291q-.416-.849-.228-2.058.162-.931.62-1.568a3.8 3.8 0 0 1 1.176-1.046 6.4 6.4 0 0 1 1.634-.653 15 15 0 0 1 2.009-.359q1.062-.131 1.813-.229.752-.098 1.168-.31a.9.9 0 0 0 .499-.686l.049-.295q.211-1.281-.392-2.017-.605-.743-2.026-.743-1.356 0-2.352.604-.988.596-1.47 1.397l-1.291-.498q.588-1.03 1.446-1.642a5.7 5.7 0 0 1 1.837-.89 7 7 0 0 1 1.936-.278q.719 0 1.462.188.744.188 1.331.653.597.458.874 1.283.286.816.082 2.074L227.451 156h-1.454l.335-1.985h-.09a4.7 4.7 0 0 1-.947 1.078 4.9 4.9 0 0 1-1.43.858q-.832.335-1.878.335m.367-1.331q1.16 0 2.099-.515a4.5 4.5 0 0 0 1.552-1.364q.613-.858.784-1.887l.303-1.813q-.18.156-.589.278a9 9 0 0 1-.906.22q-.498.09-1.005.155l-.882.115a9.3 9.3 0 0 0-1.895.408q-.8.278-1.282.768-.482.482-.604 1.241-.189 1.145.498 1.773.694.621 1.927.621m8.964 1.045 2.091-12.545h1.413l-.327 1.927h.107q.522-.948 1.56-1.527a4.5 4.5 0 0 1 2.229-.588q.18 0 .401.008.22 0 .367.016l-.253 1.479a10 10 0 0 0-.343-.049 4 4 0 0 0-.531-.033 4 4 0 0 0-3.202 1.552 3.75 3.75 0 0 0-.718 1.658l-1.34 8.102zm12.879.261q-1.757 0-2.9-.816-1.143-.825-1.601-2.279-.457-1.463-.139-3.365.32-1.895 1.258-3.365.94-1.478 2.32-2.312a5.65 5.65 0 0 1 2.997-.841 4.9 4.9 0 0 1 1.912.376 3.77 3.77 0 0 1 1.511 1.135q.629.76.873 1.919.245 1.153-.016 2.728l-.114.719h-9.801l.204-1.282h8.323q.204-1.209-.115-2.173-.318-.963-1.086-1.527-.759-.572-1.887-.572-1.15 0-2.18.645a5.9 5.9 0 0 0-1.732 1.683 5.6 5.6 0 0 0-.907 2.197l-.163.964q-.26 1.593.065 2.671.327 1.07 1.185 1.617.857.547 2.197.547.898 0 1.625-.278a4.2 4.2 0 0 0 1.266-.743q.539-.474.866-1.037l1.298.449a5.1 5.1 0 0 1-1.176 1.462 5.9 5.9 0 0 1-1.788 1.078q-1.029.4-2.295.4m8.324-.261 2.091-12.545h1.413l-.326 1.927h.106q.522-.948 1.56-1.527a4.5 4.5 0 0 1 2.23-.588q.179 0 .4.008.22 0 .367.016l-.253 1.479a10 10 0 0 0-.343-.049 4 4 0 0 0-.531-.033 4 4 0 0 0-3.202 1.552 3.76 3.76 0 0 0-.718 1.658l-1.34 8.102zm-60.103 11.273h1.764l3.659 14.571h.155l8.47-14.571h1.764L205.453 184h-1.437l2.254-13.501h-.13L198.241 184h-1.388l-3.39-13.501h-.13L191.078 184h-1.437zm22.22 16.988q-1.756 0-2.9-.816-1.143-.825-1.6-2.279-.458-1.463-.139-3.365.318-1.895 1.258-3.365.939-1.479 2.319-2.312a5.65 5.65 0 0 1 2.998-.841q1.02 0 1.911.376a3.77 3.77 0 0 1 1.511 1.135q.628.76.874 1.919.245 1.153-.016 2.728l-.115.719h-9.801l.204-1.282h8.323q.204-1.209-.114-2.173-.32-.963-1.087-1.527-.76-.572-1.886-.572a4.04 4.04 0 0 0-2.181.645 5.9 5.9 0 0 0-1.732 1.683 5.6 5.6 0 0 0-.906 2.197l-.164.964q-.261 1.593.066 2.671.327 1.07 1.184 1.617.858.547 2.197.547.898 0 1.626-.278a4.2 4.2 0 0 0 1.265-.743q.54-.474.866-1.037l1.299.449a5.2 5.2 0 0 1-1.176 1.462 5.9 5.9 0 0 1-1.789 1.078q-1.029.4-2.295.4m12.817 0q-1.544 0-2.573-.816-1.029-.817-1.437-2.279-.41-1.462-.09-3.406.326-1.936 1.217-3.39.898-1.461 2.197-2.27a5.27 5.27 0 0 1 2.85-.817q1.152 0 1.838.408.694.4 1.054.997.359.596.514 1.16h.131l1.094-6.575h1.462L232.935 184h-1.413l.393-2.328h-.18a7.3 7.3 0 0 1-.923 1.176 4.8 4.8 0 0 1-1.389 1.005q-.825.408-1.968.408m.319-1.331q1.216 0 2.197-.662.987-.67 1.649-1.837.67-1.176.915-2.696.253-1.502-.008-2.654-.261-1.16-1.013-1.813-.751-.662-1.984-.662-1.25 0-2.222.686-.972.678-1.609 1.838a8.4 8.4 0 0 0-.874 2.605q-.237 1.462 0 2.639t.964 1.87q.734.686 1.985.686m9.311 1.07 2.091-12.545h1.462L238.547 184zm3.348-14.726q-.457 0-.776-.311a1 1 0 0 1-.302-.751q.017-.416.335-.719.327-.31.768-.31.457 0 .776.318a.96.96 0 0 1 .302.752.97.97 0 0 1-.335.719 1.1 1.1 0 0 1-.768.302m10.722 9.932 1.299-7.751h1.454L251.817 184h-1.454l.343-2.083h-.106q-.588.964-1.666 1.609-1.07.637-2.451.637-1.2 0-2.05-.522-.84-.532-1.2-1.552-.36-1.022-.115-2.508l1.364-8.126h1.454l-1.339 8.036q-.237 1.471.473 2.369.72.89 2.075.89.85 0 1.699-.408a4.2 4.2 0 0 0 1.486-1.192q.638-.793.825-1.944m4.511 4.794 2.091-12.545h1.413l-.327 1.927h.131a3.97 3.97 0 0 1 1.519-1.527q.972-.564 2.205-.564 1.291 0 2.026.613.735.604.98 1.666h.106a4.33 4.33 0 0 1 1.658-1.658q1.07-.621 2.442-.621 1.74 0 2.573 1.103t.482 3.202L271.56 184h-1.454l1.405-8.404q.237-1.487-.384-2.23-.62-.744-1.862-.743-1.437 0-2.377.882-.931.873-1.151 2.238L264.356 184h-1.486l1.429-8.535q.204-1.275-.367-2.058-.564-.784-1.854-.784-.874 0-1.642.432a3.9 3.9 0 0 0-1.291 1.185 4.2 4.2 0 0 0-.686 1.723L257.12 184z"/></svg>