<svg xmlns="http://www.w3.org/2000/svg" width="300" height="200" fill="none" viewBox="0 0 300 200"><path fill="#000" d="M0 0h300v200H0z"/><path stroke="#fff" stroke-width="2" d="M0-1h13.508" transform="matrix(-.77638 .63026 -.63696 -.7709 199 13.04)"/><path stroke="#fff" stroke-width="2" d="M0-1h13.508" transform="matrix(-.77638 .63026 -.63696 -.7709 179.748 12.117)"/><path stroke="#fff" stroke-width="2" d="M0-1h13.508" transform="matrix(-.77638 .63026 -.63696 -.7709 161.837 12.486)"/><path stroke="#fff" stroke-width="2" d="M0-1h13.508" transform="matrix(-.77638 .63026 -.63696 -.7709 147.019 12.626)"/><path stroke="#fff" stroke-width="2" d="M0-1h13.508" transform="matrix(-.77638 .63026 -.63696 -.7709 129.025 12.83)"/><path stroke="#fff" stroke-width="2" d="m0-1 13.508 4.212" transform="matrix(-.77638 .63026 -.63696 -.7709 113.17 12.247)"/><path stroke="#fff" stroke-width="2" d="M205 22H96"/><path stroke="#ffff28" stroke-width="5" d="M151.499 21v67.878C151.499 99 170.644 96.177 170 106c-.608 9.281-18.501 6.5-18.501 15v66"/><path fill="#fff" d="m190.5 104-5.774 10h11.547zm0 83h1v-74h-2v74zM213.349 151l-2.99-4.692-2.875 4.692h-2.185l4.071-6.256-4.071-6.348h2.369l2.99 4.669 2.852-4.669h2.185l-4.048 6.233 4.071 6.371z"/></svg>