<svg xmlns="http://www.w3.org/2000/svg" width="300" height="200" fill="none" viewBox="0 0 300 200"><path fill="#000" d="M0 0h300v200H0z"/><path stroke="#ffff28" stroke-width="3" d="M28 113s23-62.5 62-62.5 60 62.5 60 62.5 22.5 51.5 63 51.5 59-51.5 59-51.5"/><path stroke="#ffff28" stroke-dasharray="5 5" d="M28 102s23 62.5 62 62.5 60-62.5 60-62.5 22.5-48.5 63-48.5 59 48.5 59 48.5"/><path fill="url(#a)" d="M269 80h31v72h-31z"/><path fill="url(#b)" d="M0 80h31v72H0z"/><path stroke="#ffff28" stroke-dasharray="5 5" d="M31.5 111.5S66.891 78 93 78s43.5 20 56.75 33.5 34.583 27 60.25 27 58-27 58-27"/><path stroke="#ffff28" stroke-dasharray="5 5" d="M31.5 105s35.391 33.5 61.5 33.5 43.5-20 56.75-33.5S184.333 78 210 78s58 27 58 27M32 108h236.5"/><path fill="#fff" d="m38 170 10 5.774v-11.548zm231 0-10-5.774v11.548zm-222 0v1h213v-2H47zM153.454 177.273 150.677 194h-1.453l2.777-16.727z"/><path fill="url(#c)" d="M13.4 41.852q0 2.368 1.04 4.21 1.057 1.84 2.983 2.898 1.926 1.04 4.568 1.039 2.66 0 4.586-1.039 1.943-1.057 2.966-2.898 1.04-1.842 1.039-4.21V19.317h5.284v22.96q0 3.667-1.721 6.496-1.722 2.812-4.841 4.431-1.958 1.005-4.34 1.38v25.325h-6V54.573q-2.336-.378-4.268-1.369-3.12-1.62-4.84-4.431-1.722-2.831-1.722-6.496v-22.96H13.4z"/><defs><linearGradient id="a" x1="284.5" x2="284.5" y1="80" y2="152" gradientUnits="userSpaceOnUse"><stop stop-color="#8d4b00"/><stop offset="1" stop-color="#271500"/></linearGradient><linearGradient id="b" x1="15.5" x2="15.5" y1="80" y2="152" gradientUnits="userSpaceOnUse"><stop stop-color="#8d4b00"/><stop offset="1" stop-color="#271500"/></linearGradient><linearGradient id="c" x1="22" x2="22" y1="19.317" y2="79.909" gradientUnits="userSpaceOnUse"><stop stop-color="#fff"/><stop offset="1" stop-color="#999"/></linearGradient></defs></svg>