<svg xmlns="http://www.w3.org/2000/svg" width="300" height="200" fill="none" viewBox="0 0 300 200"><path fill="#000" d="M0 0h300v200H0z"/><path stroke="#f4495a" stroke-width="12" d="M179 118h117"/><path fill="#fff" d="m139 21-10-5.773v11.546zm-72 0v1h63v-2H67z"/><path stroke="#fff" stroke-width="4" d="M179 118h-40.215s-11.792-76-40.214-76-40.215 76-40.215 76H0"/><path fill="#ffff28" d="m97 120 5.774-10H91.227zm0-72-5.773 10h11.547zm0 63h1V57h-2v54zM104.278 94h-1.601l8.862-16.727h1.634L116.481 94h-1.601l-2.785-14.743h-.106zm2.222-6.412h8.298l-.229 1.373h-8.298zm11.369 9.287 1.405-8.364h1.315l-1.405 8.364zm2.352-9.638q-.408 0-.604-.261a.8.8 0 0 1-.171-.555.86.86 0 0 1 .261-.523.79.79 0 0 1 .588-.254q.318 0 .564.213.252.212.212.62a.8.8 0 0 1-.302.564.9.9 0 0 1-.548.196"/><path fill="#fff" d="m89.073 150.273 2.785 14.742h.155l7.661-14.742h1.601L92.413 167H90.78l-3.308-16.727zm13.133 19.602 1.438-8.658h-.082l-2.785 1.658.237-1.355 2.793-1.675h1.372l-1.666 10.03zM241.135 150.273l2.785 14.742h.156l7.661-14.742h1.601L244.476 167h-1.634l-3.308-16.727zm10.814 19.602.147-.98 4.345-3.52q.777-.62 1.266-1.087.5-.465.76-.865.261-.41.327-.858.13-.784-.392-1.274-.515-.49-1.438-.49-.939 0-1.65.531-.702.531-.833 1.356h-1.323q.213-1.282 1.299-2.124 1.094-.85 2.63-.85 1.02 0 1.723.384.711.384 1.029 1.046.319.653.188 1.47a3.2 3.2 0 0 1-.417 1.143q-.31.531-.947 1.152-.637.612-1.699 1.462l-2.883 2.328v.057h5.333l-.179 1.119z"/></svg>