<svg xmlns="http://www.w3.org/2000/svg" width="300" height="200" fill="none" viewBox="0 0 300 200"><path fill="#000" d="M0 0h300v200H0z"/><path stroke="#fff" d="M16.5 16v168M16 94.5h282"/><path stroke="#ffe44a" stroke-width="3" d="M146 95c0-9.586-1.668-19.08-4.91-27.936s-7.992-16.904-13.982-23.683-13.099-12.156-20.925-15.824C98.358 23.888 89.97 22 81.5 22s-16.858 1.888-24.683 5.557C48.99 31.225 41.88 36.603 35.892 43.38S25.152 58.207 21.91 67.064 17 85.414 17 95"/><path stroke="#ffe44a" stroke-dasharray="5 5" d="M165 95c0-9.586-1.668-19.08-4.91-27.936s-7.992-16.904-13.982-23.683-13.099-12.156-20.925-15.824C117.358 23.888 108.97 22 100.5 22s-16.858 1.888-24.683 5.557C67.99 31.225 60.88 36.603 54.892 43.38S44.152 58.207 40.91 67.064 36 85.414 36 95M165 95c0 9.587 1.668 19.079 4.91 27.936s7.992 16.904 13.982 23.683c5.989 6.778 13.099 12.156 20.925 15.824C212.642 166.112 221.03 168 229.5 168s16.858-1.888 24.683-5.557c7.826-3.668 14.936-9.046 20.925-15.824s10.741-14.826 13.982-23.683c3.242-8.857 4.91-18.35 4.91-27.936"/><path stroke="#ffe44a" stroke-width="3" d="M146 95c0 9.587 1.668 19.079 4.91 27.936s7.992 16.904 13.982 23.683c5.989 6.778 13.099 12.156 20.925 15.824C193.642 166.112 202.03 168 210.5 168s16.858-1.888 24.683-5.557c7.826-3.668 14.936-9.046 20.925-15.824s10.741-14.826 13.982-23.683c3.242-8.857 4.91-18.35 4.91-27.936"/><path fill="#fff" d="m254 13-5-2.887v5.774zm-108 0v.5h103.5v-1H146z"/><circle cx="44" cy="35" r="4" fill="#ff0004"/><path fill="#fff" d="M29.489 27.661q0 2.001-1.38 3.335-1.357 1.311-4.163 1.311h-3.082V39h-2.093V22.969h5.175q2.715 0 4.117 1.311 1.425 1.311 1.426 3.381m-5.543 2.921q1.748 0 2.576-.759.828-.76.828-2.162 0-2.967-3.404-2.967h-3.082v5.888z"/></svg>