<svg xmlns="http://www.w3.org/2000/svg" width="300" height="200" fill="none" viewBox="0 0 300 200"><path fill="#000" d="M0 0h300v200H0z"/><path fill="#fff" d="m38 170 10 5.774v-11.548zm231 0-10-5.774v11.548zm-222 0v1h213v-2H47zM153.454 177.273 150.677 194h-1.453l2.777-16.727z"/><path fill="url(#a)" d="M13.4 41.852q0 2.368 1.04 4.21 1.057 1.84 2.983 2.898 1.926 1.04 4.568 1.039 2.66 0 4.586-1.039 1.943-1.057 2.966-2.898 1.04-1.842 1.039-4.21V19.317h5.284v22.96q0 3.667-1.721 6.496-1.722 2.812-4.841 4.431-1.958 1.005-4.34 1.38v25.325h-6V54.573q-2.336-.378-4.268-1.369-3.12-1.62-4.84-4.431-1.722-2.831-1.722-6.496v-22.96H13.4z"/><path stroke="#ffff28" stroke-width="3" d="M30 111.5S72.25 60 110.5 60s70 45.964 77.5 51.5 39.5 38.5 88 38.5"/><path stroke="#ffff28" stroke-dasharray="5 5" d="M28 112.5h248M28 112.5s41-34 83.5-34 77.5 34 77.5 34 38.5 22 86 22"/><path stroke="#ffff28" stroke-dasharray="5 5" d="M27 110s41 34 83.5 34 77.5-34 77.5-34 38.5-22 86-22"/><path fill="url(#b)" d="M0 80h31v72H0z"/><defs><linearGradient id="a" x1="22" x2="22" y1="19.317" y2="79.909" gradientUnits="userSpaceOnUse"><stop stop-color="#fff"/><stop offset="1" stop-color="#999"/></linearGradient><linearGradient id="b" x1="15.5" x2="15.5" y1="80" y2="152" gradientUnits="userSpaceOnUse"><stop stop-color="#8d4b00"/><stop offset="1" stop-color="#271500"/></linearGradient></defs></svg>