<svg xmlns="http://www.w3.org/2000/svg" width="300" height="200" fill="none" viewBox="0 0 300 200"><path fill="#000" d="M0 0h300v200H0z"/><circle cx="150.338" cy="157.056" r="22.056" stroke="#fff" stroke-width="2"/><path stroke="#fff" stroke-width="2" d="M134.661 157.056s3.825-7.071 7.992-7.071c4.168 0 7.993 7.071 7.993 7.071s3.745 7.377 7.992 7.377c4.248 0 7.993-7.377 7.993-7.377M108 156.475h19.283M171.717 156.475H228V68h-28.5M127.283 156.475H71V68h28.5"/><path fill="#fff" d="m138.841 35 4.347-26.182h2.39l-3.989 24.034h12.478L153.709 35zM172.919 66.867c-.066-3.06-.47-5.89-1.112-8.295-.776 2.656-1.24 5.838-1.253 9.28.008 1.612.24 3.028.584 4.012.176.506.364.845.522 1.037q.047.056.08.086a1 1 0 0 0 .081-.086c.159-.192.346-.53.523-1.037.35-1.003.585-2.453.585-4.102zm-33.272-8.54c-.681 2.456-1.11 5.375-1.178 8.54l-.01.895c0 1.649.235 3.1.585 4.102.177.506.364.845.522 1.037q.048.056.08.086a1 1 0 0 0 .082-.086c.158-.192.345-.53.522-1.037.35-1.003.585-2.453.585-4.102h.001c0-3.509-.444-6.75-1.189-9.436m10.698 0c-.681 2.456-1.111 5.376-1.179 8.54l-.009.895c0 1.649.235 3.1.585 4.102.177.506.364.845.523 1.037a1 1 0 0 0 .08.086q.032-.03.081-.086c.158-.192.346-.53.522-1.037.35-1.003.585-2.453.585-4.102l-.01-.895c-.068-3.164-.497-6.084-1.178-8.54m10.698 0c-.681 2.456-1.111 5.375-1.179 8.54l-.01.895c.001 1.649.235 3.1.585 4.102.177.506.364.845.523 1.037a1 1 0 0 0 .08.086 1 1 0 0 0 .081-.086c.159-.192.346-.53.523-1.037.349-1.003.584-2.453.584-4.102h.001c0-3.509-.443-6.75-1.188-9.436m-32.09-.014c-.745 2.683-1.189 5.92-1.191 9.426h.02c0 1.648.234 3.097.582 4.099.176.505.363.843.521 1.035q.043.051.075.08.031-.029.075-.08c.158-.192.344-.53.52-1.035.348-1.002.583-2.451.583-4.099 0-3.505-.443-6.743-1.185-9.427m45.963 10.122c-.055 1.553-.297 2.98-.684 4.088-.219.628-.503 1.209-.868 1.65-.337.41-.836.804-1.49.852l-.133.005c-.72 0-1.263-.42-1.623-.856-.365-.443-.65-1.022-.869-1.65-.422-1.21-.671-2.803-.692-4.524h-.004l.001-.144-.001-.094h.003c.027-4.675.842-8.97 2.205-12.26-.642-1.489-1.376-2.634-2.142-3.398-.777-.774-1.528-1.104-2.227-1.104s-1.451.33-2.228 1.105c-.724.722-1.42 1.787-2.036 3.16 1.316 3.318 2.103 7.712 2.103 12.497h-.001c0 1.812-.254 3.496-.696 4.761-.219.629-.503 1.209-.868 1.65-.337.41-.836.805-1.49.852l-.133.005c-.72 0-1.264-.42-1.623-.856-.365-.443-.65-1.022-.869-1.65-.387-1.108-.63-2.536-.685-4.09l-.012-.672c.001-4.785.787-9.179 2.103-12.496-.616-1.374-1.311-2.44-2.035-3.161-.777-.775-1.529-1.105-2.228-1.105s-1.45.33-2.227 1.105c-.725.722-1.421 1.786-2.037 3.16 1.316 3.318 2.103 7.712 2.103 12.497l-.012.673c-.054 1.553-.298 2.98-.684 4.088-.219.628-.503 1.209-.868 1.65-.337.41-.836.804-1.49.852l-.133.005c-.72 0-1.264-.42-1.623-.856-.365-.443-.65-1.022-.869-1.65-.387-1.108-.63-2.536-.685-4.09l-.012-.672c0-4.785.786-9.18 2.103-12.497-.617-1.374-1.312-2.439-2.036-3.16-.777-.775-1.529-1.105-2.228-1.105s-1.45.33-2.227 1.105c-.725.722-1.42 1.787-2.037 3.16 1.317 3.318 2.104 7.712 2.104 12.497h-.001c0 1.812-.255 3.496-.696 4.761-.22.629-.504 1.209-.868 1.65-.338.41-.836.805-1.491.852l-.133.005c-.72 0-1.263-.42-1.623-.856-.364-.443-.649-1.022-.869-1.65-.386-1.108-.63-2.536-.684-4.09l-.012-.672c0-4.785.786-9.179 2.103-12.496-.617-1.374-1.311-2.44-2.036-3.161-.777-.775-1.528-1.105-2.227-1.105s-1.451.33-2.228 1.105c-.722.72-1.416 1.78-2.031 3.147 1.312 3.314 2.098 7.705 2.098 12.487 0 1.81-.254 3.492-.694 4.756-.218.627-.501 1.207-.864 1.649-.358.434-.9.856-1.62.856s-1.263-.422-1.62-.856c-.363-.442-.646-1.022-.864-1.649-.438-1.259-.692-2.932-.694-4.733h-.02c0-4.793.788-9.194 2.108-12.513-.612-1.368-1.302-2.43-2.02-3.148-.773-.774-1.521-1.101-2.213-1.101-.695 0-1.451.33-2.239 1.106-.79.78-1.552 1.957-2.215 3.488-1.326 3.059-2.183 7.353-2.183 12.145v1H97.862v-2h17.15c.11-4.612.976-8.805 2.336-11.941.727-1.679 1.616-3.1 2.646-4.116 1.033-1.019 2.266-1.682 3.643-1.682 1.378 0 2.605.666 3.627 1.688.621.62 1.186 1.393 1.694 2.282.51-.889 1.078-1.661 1.701-2.282 1.027-1.024 2.257-1.688 3.64-1.688 1.382 0 2.613.664 3.639 1.688.627.624 1.197 1.401 1.709 2.295.513-.894 1.083-1.671 1.709-2.295 1.027-1.024 2.258-1.688 3.64-1.688s2.613.664 3.64 1.688c.626.624 1.196 1.4 1.709 2.295.512-.894 1.083-1.671 1.71-2.295 1.026-1.024 2.257-1.688 3.639-1.688 1.383 0 2.614.664 3.64 1.688.626.624 1.197 1.401 1.709 2.295.512-.894 1.083-1.671 1.709-2.295 1.026-1.024 2.257-1.688 3.64-1.688 1.382 0 2.613.664 3.639 1.688.686.683 1.302 1.55 1.851 2.552 1.472-2.494 3.459-4.24 5.861-4.24 2.894 0 5.189 2.534 6.701 5.858 1.452 3.19 2.363 7.454 2.477 12.142h14.632v2h-16.619v-1c0-4.861-.9-9.214-2.31-12.313-1.451-3.19-3.252-4.687-4.881-4.687-1.603 0-3.371 1.451-4.81 4.538 1.252 3.284 1.996 7.57 1.996 12.224zM197.637 175.349q0-.85.769-1.58.77-.729 1.701-.769.729 0 1.336.729t.648 2.308q0 1.174-.769 4.657a67 67 0 0 1-1.094 3.725q-.486 1.458-1.417 3.281-.931 1.821-2.227 2.753a4.88 4.88 0 0 1-2.916.932q-1.782 0-3.159-.648t-1.984-1.742a1 1 0 0 0-.121.162q-1.66 2.228-4.05 2.228a8.3 8.3 0 0 1-2.024-.243 7.6 7.6 0 0 1-1.904-.77q-.931-.526-1.498-1.579t-.567-2.551q0-2.187 1.377-5.912t1.417-4.738v-.567q0-.122-.162-.284t-.445-.162h-.162q-.931 0-1.701.77a6.4 6.4 0 0 0-1.215 1.66 10.7 10.7 0 0 0-.688 1.701q-.243.81-.324.891t-.648.081h-.567q-.243-.243-.243-.365 0-.243.324-1.134a18 18 0 0 1 .931-2.065q.607-1.175 1.782-2.106 1.174-.931 2.632-.931 1.742 0 2.673 1.012t.931 2.349q0 .73-1.336 4.373-1.336 3.645-1.336 5.629 0 1.863.85 2.632t2.146.81q1.742 0 3.078-2.47l.202-.364v-1.296q0-.243.041-.324a.7.7 0 0 0 .04-.284 1.5 1.5 0 0 1 .041-.364q.04-.162.121-.526.081-.365.122-.689t.243-.972.324-1.296.445-1.741q1.174-4.616 1.336-4.981.527-1.093 1.742-1.093.77 0 1.053.405.284.405.324.769 0 .527-1.175 5.184-1.174 4.656-1.296 5.345-.081.445-.081 1.417v.284q0 .607.122 1.174.121.567.769 1.174.648.608 1.823.648 2.875 0 4.575-4.94.364-.931.81-2.632t.486-2.43q0-1.336-.526-2.106a9 9 0 0 0-1.053-1.295q-.526-.527-.526-1.134"/></svg>