<svg xmlns="http://www.w3.org/2000/svg" width="300" height="200" fill="none" viewBox="0 0 300 200"><path fill="#000" d="M0 0h300v200H0z"/><path stroke="#a9ffff" stroke-width="2" d="M106.35 6.41 7.06 91.24c-.706.603-.28 1.76.65 1.76H107a1 1 0 0 0 1-1V7.17a1 1 0 0 0-1.65-.76Z"/><path fill="#a9ffff" d="m73.227 87 2.898-17.454h5.633q1.859 0 2.992.664 1.142.665 1.577 1.85.442 1.176.196 2.71-.255 1.517-1.091 2.685a5.7 5.7 0 0 1-2.182 1.832q-1.355.656-3.196.656h-4.79l.247-1.457h4.748q1.371 0 2.352-.452a3.84 3.84 0 0 0 1.568-1.287q.588-.835.775-1.977.189-1.15-.127-2.003-.307-.852-1.142-1.321-.827-.469-2.208-.469H77.48L74.821 87zm9-7.875L85.22 87h-1.833l-2.94-7.875zM122.279 85.028a23.7 23.7 0 0 1-5.792-1.741 25.2 25.2 0 0 1-5.108-3.087l.003-1.381a19 19 0 0 0 2.272 1.522 26 26 0 0 0 2.708 1.343q1.439.608 2.947 1.071 1.499.454 2.973.705 1.968.328 3.971.306a22.5 22.5 0 0 0 3.802-.35q1.798-.337 3.138-.94l-.003 1.38a18.2 18.2 0 0 1-5.125 1.371q-2.727.318-5.786-.199m-8.708-9.727 7.584-3.564v-.11l-7.565-6.093.004-1.9 8.713 7.065 8.736-4.133-.004 1.867-7.499 3.564v.111l7.48 6.092-.004 1.909-8.713-7.185-8.736 4.252zm15.296-20.76-.003 1.247a2.35 2.35 0 0 0-.962.223q-.414.204-.696.551-.287.342-.431.787a3 3 0 0 0-.145.95 3.65 3.65 0 0 0 .492 1.843q.489.87 1.444 1.49.95.621 2.33.849 1.34.228 2.255-.062.917-.29 1.388-.964.473-.674.474-1.605a4 4 0 0 0-.141-1.053 3.7 3.7 0 0 0-.423-.973 3.5 3.5 0 0 0-.699-.809 3.2 3.2 0 0 0-.96-.564l.003-1.269a5.2 5.2 0 0 1 1.435.765q.633.477 1.077 1.102.438.624.667 1.346.228.721.227 1.499-.003 1.36-.669 2.315-.672.95-1.895 1.356-1.228.402-2.905.122-1.636-.279-2.82-1.064-1.191-.785-1.827-1.92a4.9 4.9 0 0 1-.64-2.467q.002-.797.233-1.467.232-.67.678-1.165.44-.495 1.075-.77.63-.279 1.438-.294m-7.223-10.242 1.431.242-.014 7.261-1.432-.241zm-8.003-4.234 7.584-3.565v-.11l-7.565-6.092.004-1.9 8.713 7.065 8.736-4.133-.004 1.866-7.499 3.565v.11l7.48 6.092-.004 1.91-8.713-7.186-8.736 4.253zm22.476-11.133-10.469-1.76.003-1.268 9.344 1.573.01-4.868 1.125.186zm-12.336-13.764q3.068.517 5.792 1.75a25 25 0 0 1 5.108 3.078l-.003 1.381a18.4 18.4 0 0 0-2.273-1.521 25 25 0 0 0-2.707-1.335 28 28 0 0 0-2.947-1.072 24 24 0 0 0-2.973-.713 22.6 22.6 0 0 0-3.971-.306 22 22 0 0 0-3.802.359q-1.798.329-3.138.931l.003-1.38a18 18 0 0 1 5.125-1.363q2.727-.326 5.786.19M43.537 43l.213-1.202 12.128-14.82h-9.716l.221-1.433h11.643l-.188 1.202-12.153 14.821h9.767L55.213 43z"/><path stroke="#81ff81" stroke-width="2" d="m267.35 13.41-99.29 84.83c-.706.603-.279 1.76.65 1.76H268a1 1 0 0 0 1-1V14.17a1 1 0 0 0-1.65-.76Z"/><path fill="#81ff81" d="m211.227 49 2.898-17.454h5.634q1.857 0 2.991.664 1.142.665 1.577 1.85.443 1.176.196 2.71-.256 1.517-1.091 2.685-.827 1.167-2.182 1.832-1.355.656-3.196.656h-4.79l.247-1.457h4.748q1.371 0 2.352-.452a3.84 3.84 0 0 0 1.568-1.287q.588-.836.776-1.977.187-1.15-.128-2.003-.308-.852-1.142-1.321-.827-.469-2.208-.469h-3.997L212.821 49zm9-7.875L223.219 49h-1.833l-2.94-7.875zM283.279 92.028a23.7 23.7 0 0 1-5.792-1.741 25.2 25.2 0 0 1-5.108-3.087l.003-1.381a19 19 0 0 0 2.272 1.522 26 26 0 0 0 2.708 1.343q1.439.607 2.947 1.071 1.499.454 2.973.705 1.968.328 3.971.306a22.5 22.5 0 0 0 3.802-.35q1.799-.337 3.138-.94l-.003 1.38a18.2 18.2 0 0 1-5.125 1.371q-2.727.318-5.786-.199m-8.708-9.727 7.584-3.564v-.11l-7.565-6.093.004-1.9 8.713 7.065 8.736-4.133-.004 1.867-7.499 3.564v.111l7.48 6.092-.004 1.909-8.713-7.185-8.736 4.252zm15.296-20.76-.003 1.247a2.35 2.35 0 0 0-.962.223q-.414.204-.696.551-.288.342-.431.787a3 3 0 0 0-.145.95 3.65 3.65 0 0 0 .492 1.843q.489.87 1.444 1.49.95.621 2.33.849 1.34.228 2.255-.062.917-.29 1.388-.964.473-.674.474-1.605a4 4 0 0 0-.141-1.053 3.7 3.7 0 0 0-.423-.973 3.5 3.5 0 0 0-.699-.809 3.2 3.2 0 0 0-.96-.564l.003-1.269a5.2 5.2 0 0 1 1.435.765q.633.477 1.077 1.102.438.624.667 1.346.228.721.227 1.499-.003 1.36-.669 2.315-.672.95-1.895 1.356-1.228.402-2.905.122-1.636-.279-2.82-1.064-1.191-.785-1.827-1.92a4.9 4.9 0 0 1-.64-2.467q.002-.797.233-1.467.232-.67.678-1.165.44-.495 1.075-.77.63-.279 1.438-.294m-7.223-10.242 1.431.242-.014 7.261-1.432-.241zm-8.003-4.234 7.584-3.565v-.11l-7.565-6.092.004-1.9 8.713 7.065 8.736-4.133-.004 1.866-7.499 3.565v.11l7.48 6.092-.004 1.91-8.713-7.186-8.736 4.253zm22.476-11.133-10.469-1.76.003-1.268 9.344 1.573.01-4.868 1.125.186zm-12.336-13.764q3.068.517 5.792 1.75a25 25 0 0 1 5.108 3.078l-.003 1.381a18.4 18.4 0 0 0-2.273-1.521 25 25 0 0 0-2.707-1.335 28 28 0 0 0-2.947-1.072 24 24 0 0 0-2.973-.713 22.6 22.6 0 0 0-3.971-.306 22 22 0 0 0-3.802.359q-1.798.329-3.138.931l.003-1.38a18 18 0 0 1 5.125-1.363q2.727-.326 5.786.19M225.537 93l.213-1.202 12.128-14.82h-9.716l.222-1.432h11.642l-.188 1.201-12.153 14.821h9.767L237.213 93z"/><path stroke="#f94447" stroke-width="2" d="m267.35 109.409-99.29 84.831c-.706.603-.279 1.76.65 1.76H268a1 1 0 0 0 1-1v-84.83a1 1 0 0 0-1.65-.761Z"/><path fill="#f94447" d="m201.227 151 2.898-17.455h5.634q1.857 0 2.991.665 1.142.665 1.577 1.85.443 1.176.196 2.71-.256 1.516-1.091 2.685a5.7 5.7 0 0 1-2.182 1.832q-1.355.656-3.196.656h-4.79l.247-1.457h4.748q1.371 0 2.352-.452a3.84 3.84 0 0 0 1.568-1.287q.588-.836.776-1.977.187-1.15-.128-2.003-.308-.852-1.142-1.321-.827-.469-2.208-.469h-3.997L202.821 151zm9-7.875 2.992 7.875h-1.833l-2.94-7.875zM283.279 188.028a23.7 23.7 0 0 1-5.792-1.741 25.2 25.2 0 0 1-5.108-3.087l.003-1.381a19 19 0 0 0 2.272 1.522 26 26 0 0 0 2.708 1.343q1.439.608 2.947 1.071 1.499.454 2.973.705 1.968.328 3.971.306a22.5 22.5 0 0 0 3.802-.35q1.799-.337 3.138-.94l-.003 1.381a18.2 18.2 0 0 1-5.125 1.37q-2.727.319-5.786-.199m-8.708-9.727 7.584-3.564v-.111l-7.565-6.092.004-1.9 8.713 7.065 8.736-4.133-.004 1.867-7.499 3.564v.111l7.48 6.092-.004 1.909-8.713-7.185-8.736 4.252zm22.476-11.133-10.469-1.759.003-1.268 9.344 1.573.01-4.868 1.125.186zm-14.408-17.492 1.431.241-.014 7.262-1.431-.242zm-8.003-4.235 7.584-3.564v-.111l-7.565-6.092.004-1.9 8.713 7.065 8.736-4.133-.004 1.867-7.498 3.564-.001.111 7.48 6.092-.004 1.909-8.713-7.185-8.736 4.252zm15.296-20.761-.003 1.248a2.34 2.34 0 0 0-.961.223q-.415.204-.697.551-.287.342-.431.787a3 3 0 0 0-.145.951 3.67 3.67 0 0 0 .492 1.842q.49.87 1.444 1.491.95.62 2.331.848 1.338.228 2.255-.062.915-.29 1.387-.964.473-.674.474-1.605a4 4 0 0 0-.141-1.053 3.7 3.7 0 0 0-.422-.973 3.6 3.6 0 0 0-.699-.809q-.42-.359-.961-.564l.003-1.269a5.2 5.2 0 0 1 1.435.765q.633.477 1.077 1.102a4.9 4.9 0 0 1 .894 2.845q-.002 1.36-.669 2.315-.672.95-1.895 1.356-1.228.402-2.905.122-1.635-.28-2.82-1.064-1.19-.784-1.827-1.921a4.9 4.9 0 0 1-.639-2.466 4.5 4.5 0 0 1 .233-1.467 3.4 3.4 0 0 1 .677-1.165 3 3 0 0 1 1.075-.77 3.7 3.7 0 0 1 1.438-.294m-5.151-6.512q3.068.517 5.792 1.75a25 25 0 0 1 5.108 3.078l-.003 1.381a18 18 0 0 0-2.273-1.521 25 25 0 0 0-2.707-1.335 28 28 0 0 0-2.947-1.072 24 24 0 0 0-2.973-.713 22.7 22.7 0 0 0-3.971-.306 22 22 0 0 0-3.802.359q-1.798.328-3.138.931l.003-1.381a18 18 0 0 1 5.125-1.362q2.727-.327 5.786.191M224.537 189l.213-1.202 12.128-14.821h-9.716l.222-1.432h11.642l-.188 1.202-12.153 14.821h9.767l-.239 1.432z"/><path stroke="#a9ffff" stroke-width="2" d="M21 80s6.438 3.06 8 5.5 0 7 0 7"/><path stroke="#f8ff2b" stroke-width="2" d="M106.35 108.409 7.06 193.24c-.706.603-.28 1.76.65 1.76H107a1 1 0 0 0 1-1v-84.83a1 1 0 0 0-1.65-.761Z"/><path fill="#f8ff2b" d="m64.227 189 2.898-17.455h5.633q1.859 0 2.992.665 1.142.665 1.577 1.85.442 1.176.196 2.71-.255 1.517-1.091 2.685a5.7 5.7 0 0 1-2.182 1.832q-1.355.656-3.196.656h-4.79l.247-1.457h4.748q1.371 0 2.352-.452a3.84 3.84 0 0 0 1.568-1.287q.588-.835.775-1.977.189-1.15-.127-2.003-.307-.852-1.142-1.321-.827-.469-2.208-.469H68.48L65.821 189zm9-7.875L76.22 189h-1.833l-2.94-7.875zM122.279 187.028a23.7 23.7 0 0 1-5.792-1.741 25.2 25.2 0 0 1-5.108-3.087l.003-1.381a19 19 0 0 0 2.272 1.522 26 26 0 0 0 2.708 1.343q1.439.608 2.947 1.071 1.499.454 2.973.705 1.968.328 3.971.306a22.5 22.5 0 0 0 3.802-.35q1.798-.337 3.138-.94l-.003 1.381a18.2 18.2 0 0 1-5.125 1.37q-2.727.319-5.786-.199m-8.708-9.727 7.584-3.564v-.111l-7.565-6.092.004-1.9 8.713 7.065 8.736-4.133-.004 1.867-7.499 3.564v.111l7.48 6.092-.004 1.909-8.713-7.185-8.736 4.252zm22.476-11.133-10.469-1.759.003-1.268 9.344 1.573.01-4.868 1.125.186zm-14.408-17.492 1.431.241-.014 7.262-1.431-.242zm-8.003-4.235 7.584-3.564v-.111l-7.565-6.092.004-1.9 8.713 7.065 8.736-4.133-.004 1.867-7.498 3.564-.001.111 7.48 6.092-.004 1.909-8.713-7.185-8.736 4.252zm15.296-20.761-.003 1.248a2.34 2.34 0 0 0-.961.223q-.415.204-.697.551-.287.342-.431.787a3 3 0 0 0-.145.951 3.67 3.67 0 0 0 .492 1.842q.49.87 1.444 1.491.95.62 2.331.848 1.338.228 2.255-.062t1.387-.964q.473-.674.474-1.605a4 4 0 0 0-.141-1.053 3.7 3.7 0 0 0-.422-.973 3.6 3.6 0 0 0-.699-.809q-.42-.359-.961-.564l.003-1.269a5.2 5.2 0 0 1 1.435.765q.633.477 1.077 1.102a4.9 4.9 0 0 1 .894 2.845q-.002 1.36-.669 2.315-.672.95-1.895 1.356-1.228.402-2.905.122-1.635-.28-2.82-1.064-1.19-.784-1.827-1.921a4.9 4.9 0 0 1-.639-2.466 4.5 4.5 0 0 1 .233-1.467 3.4 3.4 0 0 1 .677-1.165 3 3 0 0 1 1.075-.77 3.7 3.7 0 0 1 1.438-.294m-5.151-6.512q3.068.517 5.792 1.75a25 25 0 0 1 5.108 3.078l-.003 1.381a18 18 0 0 0-2.273-1.521 25 25 0 0 0-2.707-1.335 28 28 0 0 0-2.947-1.072 24 24 0 0 0-2.973-.713 22.7 22.7 0 0 0-3.971-.306 22 22 0 0 0-3.802.359q-1.798.328-3.138.931l.003-1.381a18 18 0 0 1 5.125-1.362q2.727-.327 5.786.191M43.537 147l.213-1.202 12.128-14.821h-9.716l.221-1.432h11.643l-.188 1.202-12.153 14.821h9.767L55.213 147z"/><path fill="#fff" d="M5 20.273q.511-3.068 1.73-5.796a25.2 25.2 0 0 1 3.077-5.113h1.38a19 19 0 0 0-1.517 2.275q-.724 1.27-1.338 2.71-.604 1.44-1.065 2.95-.451 1.499-.699 2.974a22.6 22.6 0 0 0-.298 3.971 22.5 22.5 0 0 0 .358 3.802q.34 1.797.946 3.136h-1.38a18.2 18.2 0 0 1-1.381-5.122q-.324-2.728.187-5.787M11.573 29h-1.67l9.247-17.454h1.704L24.306 29h-1.67l-2.907-15.383h-.11zm2.318-6.69h8.66l-.24 1.431h-8.658zm18.23-2.037a23.5 23.5 0 0 1-1.738 5.795 25 25 0 0 1-3.068 5.114h-1.381a18.4 18.4 0 0 0 1.517-2.276q.724-1.27 1.33-2.71.613-1.44 1.065-2.949.46-1.509.707-2.974.324-1.97.299-3.972a22 22 0 0 0-.367-3.801q-.332-1.798-.937-3.136h1.38a18 18 0 0 1 1.372 5.122q.333 2.727-.179 5.787M4 115.273q.511-3.069 1.73-5.796a25.2 25.2 0 0 1 3.077-5.113h1.38a19 19 0 0 0-1.517 2.275q-.724 1.27-1.338 2.71a31 31 0 0 0-1.065 2.949q-.451 1.5-.699 2.975a22.6 22.6 0 0 0-.298 3.971 22.5 22.5 0 0 0 .358 3.801q.34 1.799.946 3.137h-1.38a18.2 18.2 0 0 1-1.381-5.122q-.324-2.728.187-5.787M26.187 112h-1.585a4.4 4.4 0 0 0-.358-1.653 4.1 4.1 0 0 0-.93-1.338 4.2 4.2 0 0 0-1.423-.887q-.818-.315-1.832-.315-1.67 0-3.196.878-1.525.868-2.625 2.556t-1.5 4.125q-.4 2.404.128 4.049.528 1.636 1.73 2.48 1.21.844 2.838.844 1.04 0 1.994-.316a6.7 6.7 0 0 0 1.756-.878 6.8 6.8 0 0 0 1.406-1.338 6.1 6.1 0 0 0 .938-1.662h1.602a8.7 8.7 0 0 1-1.168 2.242 8.6 8.6 0 0 1-1.772 1.807 8.1 8.1 0 0 1-2.242 1.21 7.7 7.7 0 0 1-2.59.435q-2.235 0-3.776-1.117-1.534-1.116-2.182-3.145-.639-2.037-.18-4.798.453-2.71 1.731-4.705 1.288-1.994 3.153-3.076a7.9 7.9 0 0 1 4.057-1.091q1.398 0 2.506.434a5.3 5.3 0 0 1 1.883 1.211 5.3 5.3 0 0 1 1.202 1.807q.418 1.03.435 2.241m6.598 3.273a23.5 23.5 0 0 1-1.738 5.795 25 25 0 0 1-3.068 5.114h-1.381a18.4 18.4 0 0 0 1.517-2.276q.724-1.27 1.33-2.71.613-1.44 1.065-2.949.46-1.509.707-2.974.324-1.97.299-3.972a22 22 0 0 0-.367-3.801q-.332-1.798-.937-3.136h1.38a18 18 0 0 1 1.373 5.122q.332 2.727-.18 5.787M160 17.273a23.7 23.7 0 0 1 1.73-5.796 25.2 25.2 0 0 1 3.077-5.113h1.381a19 19 0 0 0-1.518 2.275q-.724 1.27-1.338 2.71-.604 1.44-1.065 2.95-.451 1.499-.699 2.974a22.6 22.6 0 0 0-.298 3.971q.025 2.003.358 3.802.34 1.797.946 3.136h-1.381a18.2 18.2 0 0 1-1.381-5.122q-.323-2.728.188-5.787M166.548 26l2.897-17.455h5.89q1.704 0 2.744.597 1.04.596 1.432 1.628.4 1.031.17 2.344-.179 1.091-.673 1.866-.495.767-1.202 1.253a4.9 4.9 0 0 1-1.508.69l-.026.137q.835.06 1.543.596.707.53 1.056 1.483.358.955.145 2.284a5.4 5.4 0 0 1-.988 2.361q-.759 1.032-2.08 1.628-1.312.588-3.187.588zm1.832-1.432h4.619q2.02 0 3.137-.895 1.116-.894 1.355-2.25.162-.997-.188-1.806a2.74 2.74 0 0 0-1.142-1.296q-.792-.477-1.969-.477h-4.687zm1.364-8.139h4.44q1.03 0 1.875-.426a3.9 3.9 0 0 0 1.398-1.176 3.86 3.86 0 0 0 .707-1.713q.239-1.39-.52-2.259-.75-.878-2.548-.878H170.8zm17.167.844a23.5 23.5 0 0 1-1.739 5.795 25 25 0 0 1-3.068 5.114h-1.381a18.5 18.5 0 0 0 1.517-2.276q.724-1.27 1.33-2.71.613-1.44 1.065-2.949.46-1.509.707-2.974.324-1.97.299-3.972a22 22 0 0 0-.367-3.801q-.332-1.798-.937-3.136h1.38a18 18 0 0 1 1.372 5.122q.333 2.727-.178 5.787M160 119.273a23.7 23.7 0 0 1 1.73-5.796 25.2 25.2 0 0 1 3.077-5.113h1.381a19 19 0 0 0-1.518 2.275 26 26 0 0 0-1.338 2.71 31 31 0 0 0-1.065 2.949q-.451 1.5-.699 2.975a22.6 22.6 0 0 0-.298 3.971q.025 2.004.358 3.801.34 1.799.946 3.137h-1.381a18.2 18.2 0 0 1-1.381-5.122q-.323-2.728.188-5.787M171.704 128h-5.156l2.897-17.455h5.378q2.489 0 4.108 1.057 1.62 1.057 2.25 3.026.63 1.96.171 4.687-.452 2.728-1.731 4.671-1.278 1.943-3.289 2.983-2.003 1.03-4.628 1.031m-3.324-1.432h3.409q2.233 0 3.903-.903a7.27 7.27 0 0 0 2.719-2.566q1.049-1.67 1.424-3.963.375-2.25-.086-3.852-.451-1.602-1.747-2.454-1.287-.853-3.417-.853h-3.793zm20.218-7.295a23.4 23.4 0 0 1-1.739 5.795 25 25 0 0 1-3.068 5.114h-1.38a18.5 18.5 0 0 0 1.517-2.276q.724-1.27 1.329-2.71.614-1.44 1.065-2.949.46-1.509.708-2.974.324-1.97.298-3.972a22 22 0 0 0-.366-3.801q-.333-1.798-.938-3.136h1.381a18 18 0 0 1 1.372 5.122q.333 2.727-.179 5.787"/><path fill="#a9ffff" d="M40.281 86.205q-1.858-.162-3.093-1.049a4.8 4.8 0 0 1-1.748-2.344q-.51-1.465-.204-3.358.306-1.874 1.304-3.323a7.7 7.7 0 0 1 2.54-2.327q1.533-.886 3.451-1.031h1.176q1.884.144 3.128 1.031a4.7 4.7 0 0 1 1.756 2.327q.519 1.448.213 3.323-.316 1.902-1.312 3.367a7.66 7.66 0 0 1-2.532 2.352q-1.525.879-3.452 1.031zm-.903 4.704 3.75-22.636h1.5l-3.75 22.636zm2.301-6.043q1.551-.154 2.727-.928a6.3 6.3 0 0 0 1.918-1.952 6.7 6.7 0 0 0 .963-2.532q.212-1.346-.136-2.505a3.86 3.86 0 0 0-1.279-1.926q-.92-.759-2.42-.912H42.36q-1.535.153-2.719.912a6.2 6.2 0 0 0-1.926 1.926 6.7 6.7 0 0 0-.955 2.505q-.213 1.347.137 2.532a3.98 3.98 0 0 0 1.27 1.951q.92.775 2.42.93z"/><path stroke="#81ff81" stroke-width="2" d="M181 87s6.438 3.06 8 5.5 0 7 0 7"/><path fill="#81ff81" d="M200.281 93.205q-1.858-.162-3.093-1.049a4.8 4.8 0 0 1-1.748-2.344q-.511-1.465-.204-3.358.306-1.874 1.304-3.323a7.7 7.7 0 0 1 2.54-2.327q1.533-.886 3.451-1.031h1.176q1.884.144 3.128 1.031a4.7 4.7 0 0 1 1.756 2.327q.52 1.448.213 3.323-.315 1.902-1.313 3.367a7.64 7.64 0 0 1-2.531 2.352q-1.525.879-3.451 1.031zm-.903 4.704 3.75-22.636h1.5l-3.75 22.636zm2.301-6.043q1.551-.154 2.727-.928a6.3 6.3 0 0 0 1.918-1.952 6.8 6.8 0 0 0 .963-2.532q.213-1.346-.136-2.505a3.86 3.86 0 0 0-1.279-1.926q-.92-.759-2.42-.912h-1.091q-1.534.153-2.719.912a6.2 6.2 0 0 0-1.926 1.926 6.7 6.7 0 0 0-.955 2.505q-.213 1.347.137 2.532a3.97 3.97 0 0 0 1.27 1.951q.92.775 2.42.93z"/><path stroke="#f94447" stroke-width="2" d="M182 183s6.438 3.059 8 5.5 0 7 0 7"/><path fill="#f94447" d="M201.281 189.205q-1.858-.162-3.093-1.049a4.8 4.8 0 0 1-1.748-2.344q-.511-1.466-.204-3.357.306-1.875 1.304-3.324a7.7 7.7 0 0 1 2.54-2.327q1.533-.887 3.451-1.031h1.176q1.884.144 3.128 1.031a4.7 4.7 0 0 1 1.756 2.327q.52 1.449.213 3.324-.315 1.9-1.313 3.366a7.65 7.65 0 0 1-2.531 2.352q-1.525.878-3.451 1.032zm-.903 4.704 3.75-22.636h1.5l-3.75 22.636zm2.301-6.043q1.551-.153 2.727-.928a6.3 6.3 0 0 0 1.918-1.952 6.8 6.8 0 0 0 .963-2.531q.213-1.347-.136-2.506a3.86 3.86 0 0 0-1.279-1.926q-.92-.759-2.42-.912h-1.091q-1.534.153-2.719.912a6.2 6.2 0 0 0-1.926 1.926 6.7 6.7 0 0 0-.955 2.506q-.213 1.346.137 2.531a4 4 0 0 0 1.27 1.952q.92.775 2.42.928z"/><path stroke="#f8ff2b" stroke-width="2" d="M21 182s6.438 3.059 8 5.5 0 7 0 7"/><path fill="#f8ff2b" d="M40.281 188.205q-1.858-.162-3.093-1.049a4.8 4.8 0 0 1-1.748-2.344q-.51-1.466-.204-3.357.306-1.875 1.304-3.324a7.7 7.7 0 0 1 2.54-2.327q1.533-.887 3.451-1.031h1.176q1.884.144 3.128 1.031a4.7 4.7 0 0 1 1.756 2.327q.519 1.449.213 3.324-.316 1.9-1.312 3.366a7.66 7.66 0 0 1-2.532 2.352q-1.525.878-3.452 1.032zm-.903 4.704 3.75-22.636h1.5l-3.75 22.636zm2.301-6.043q1.551-.153 2.727-.928a6.3 6.3 0 0 0 1.918-1.952 6.7 6.7 0 0 0 .963-2.531q.212-1.347-.136-2.506a3.85 3.85 0 0 0-1.279-1.926q-.92-.759-2.42-.912H42.36q-1.535.153-2.719.912a6.2 6.2 0 0 0-1.926 1.926 6.7 6.7 0 0 0-.955 2.506q-.213 1.346.137 2.531a4 4 0 0 0 1.27 1.952q.92.775 2.42.928z"/></svg>