<svg xmlns="http://www.w3.org/2000/svg" width="300" height="200" fill="none" viewBox="0 0 300 200"><g clip-path="url(#a)"><path fill="#000" d="M0 0h300v200H0z"/><path fill="#fff" d="m295 179-10-5.774v11.548zm-228 0v1h219v-2H67z"/><path fill="#fff" d="m68 7-5.773 10h11.547zm0 172h1V16h-2v163z"/><path fill="#a9ffff" d="m38.929 135 2.182-13.091h1.525L40.455 135zm3.494-15.366q-.477 0-.81-.324a1.04 1.04 0 0 1-.315-.784q.017-.435.35-.75.34-.324.8-.324.478 0 .81.332a1 1 0 0 1 .316.784q-.009.435-.35.75t-.8.316m.8 18.366 1.465-8.727h1.33l-.256 1.423h.085q.375-.69 1.066-1.108.69-.417 1.56-.418.928 0 1.465.461.537.46.63 1.235h.086q.375-.776 1.134-1.235a3.24 3.24 0 0 1 1.713-.461q1.26 0 1.832.802.58.8.35 2.164l-.99 5.864h-1.388l.946-5.659q.144-.895-.205-1.432-.34-.546-1.244-.545-.921 0-1.5.579-.579.58-.733 1.458L49.623 138h-1.33l.93-5.685q.144-.877-.214-1.414-.349-.537-1.202-.537-.818 0-1.465.562-.64.563-.801 1.526L44.603 138z"/><path fill="#fff" d="m45.929 37 2.182-13.09h1.525L47.455 37zm3.494-15.366q-.477 0-.81-.324a1.04 1.04 0 0 1-.315-.784q.017-.435.35-.75.34-.324.8-.324.478 0 .81.332a1 1 0 0 1 .316.784q-.009.435-.35.75-.34.316-.8.316m4.31 18.536q-1.15 0-1.951-.58-.792-.57-1.134-1.593-.34-1.022-.119-2.37.222-1.329.878-2.334a4.9 4.9 0 0 1 1.636-1.569 4.2 4.2 0 0 1 2.14-.562q1.2 0 1.994.597.801.588 1.125 1.61.332 1.014.128 2.276-.213 1.338-.878 2.352a4.8 4.8 0 0 1-1.645 1.594 4.2 4.2 0 0 1-2.173.58m.129-1.116q.81 0 1.465-.46a3.7 3.7 0 0 0 1.108-1.245 5.1 5.1 0 0 0 .597-1.738q.145-.92-.034-1.68-.18-.766-.665-1.218t-1.278-.452q-.776 0-1.432.46a3.8 3.8 0 0 0-1.1 1.228 5 5 0 0 0-.596 1.721q-.162.972.017 1.73.179.768.665 1.21.485.444 1.252.444M20.774 90l1.818-10.91h1.272L22.045 90zm2.912-12.805a.93.93 0 0 1-.675-.27.87.87 0 0 1-.262-.654.88.88 0 0 1 .29-.625q.285-.27.668-.27.398 0 .675.277.277.27.263.654a.85.85 0 0 1-.291.625.95.95 0 0 1-.668.263m3.592 15.447q-.96 0-1.626-.483-.66-.476-.945-1.328t-.1-1.975q.186-1.107.732-1.945.555-.84 1.364-1.307a3.5 3.5 0 0 1 1.782-.47q1.002 0 1.662.498.668.49.938 1.342.276.846.106 1.897-.177 1.115-.731 1.96a4 4 0 0 1-1.37 1.328 3.5 3.5 0 0 1-1.812.483m.107-.93q.675 0 1.221-.384.555-.383.923-1.037.37-.646.498-1.449.12-.766-.029-1.399-.15-.639-.554-1.015-.405-.377-1.065-.377-.647 0-1.193.384-.54.375-.916 1.022a4.2 4.2 0 0 0-.498 1.435q-.135.81.015 1.442.149.639.554 1.008.404.37 1.044.37m13.224-16.94-7.564 17.415H31.86l7.557-17.414zm3.434 13.474 7.308-12.791h1.477L44.518 90h-.95zm-1.016-6.058 1.371 6.058L44.355 90h-.958l-1.854-7.812zm-2.876 1.193.199-1.194h2.606l-.199 1.194zM52.546 90l.17-.973 5.626-5.34q1.1-1.052 1.797-1.798.695-.753 1.065-1.378.369-.632.483-1.314.134-.83-.142-1.448a2.03 2.03 0 0 0-.874-.973q-.596-.348-1.449-.348-.894 0-1.64.383a3.53 3.53 0 0 0-1.882 2.585h-1.272a4.7 4.7 0 0 1 .916-2.138 5.13 5.13 0 0 1 4.084-2.002q1.222 0 2.074.525.852.519 1.236 1.414t.199 2.002a5.2 5.2 0 0 1-.547 1.563q-.405.745-1.243 1.669-.838.923-2.266 2.258l-4.268 4.028-.021.092h7.194L61.587 90z"/><path fill="#a9ffff" d="M266.878 185.909h1.721q-.954 1.245-1.542 2.318a12.7 12.7 0 0 0-.929 2.105 14.4 14.4 0 0 0-.512 2.114q-.417 2.523.179 3.946.597 1.415 1.986 1.415 1.227 0 2.148-1.108.929-1.116 1.261-3.128l.614-3.682h1.244l-.571 3.452q-.315 1.892-1.014 3.213-.69 1.313-1.713 2.003-1.014.681-2.318.682-1.423 0-2.301-.827-.87-.827-1.159-2.369-.282-1.543.068-3.691.307-1.824 1.005-3.426a13.8 13.8 0 0 1 1.833-3.017m11.199 0h1.721q.657 1.415.827 3.017.179 1.602-.128 3.426-.358 2.148-1.159 3.691-.792 1.542-1.943 2.369a4.3 4.3 0 0 1-2.574.827q-1.303 0-2.097-.682-.792-.69-1.056-2.003-.256-1.321.059-3.213l.571-3.452h1.253l-.605 3.682q-.34 2.012.213 3.128.563 1.108 1.79 1.108.929 0 1.721-.639.793-.64 1.364-1.841.58-1.202.852-2.881.18-1.09.188-2.114a9.3 9.3 0 0 0-.23-2.105 12.6 12.6 0 0 0-.767-2.318"/><path stroke="#f8ff2b" stroke-width="3" d="M67 179s55.026-24.256 69.5-75.567S152.5 26 169 26s14.815 23.323 32 77.433 95 52.244 95 52.244"/><path stroke="#fff" stroke-dasharray="5 5" d="M169 26.5H67M193.5 179V85M141.5 179V85M194 85.5H68"/><path fill="#a9ffff" d="m144 148 10 5.774v-11.548zm48 0-10-5.774v11.548zm-39 0v1h30v-2h-30zM166.389 132.997l.085-.528q.24-1.338.665-2.174a4.8 4.8 0 0 1 1.091-1.406q.656-.579 1.568-1.108a8.7 8.7 0 0 0 1.185-.835q.52-.435.844-.972a3.2 3.2 0 0 0 .434-1.244q.146-.928-.162-1.611a2.25 2.25 0 0 0-.963-1.065q-.647-.384-1.542-.384-.87 0-1.679.384-.81.375-1.398 1.099-.588.725-.801 1.756h-1.611q.273-1.406 1.1-2.437a5.7 5.7 0 0 1 2.019-1.603 5.9 5.9 0 0 1 2.549-.562q1.423 0 2.395.588a3.34 3.34 0 0 1 1.406 1.611q.435 1.014.23 2.292a4.9 4.9 0 0 1-.537 1.628 5 5 0 0 1-1.031 1.27 9.4 9.4 0 0 1-1.534 1.091 7.7 7.7 0 0 0-1.381.997q-.528.494-.835 1.134-.298.63-.46 1.551l-.094.528zm.154 5.131q-.512 0-.861-.358a1.22 1.22 0 0 1-.341-.869q0-.512.375-.861.375-.35.878-.35t.861.358q.357.358.34.853a1.2 1.2 0 0 1-.187.622 1.35 1.35 0 0 1-.452.443 1.2 1.2 0 0 1-.613.162"/></g><defs><clipPath id="a"><path fill="#fff" d="M0 0h300v200H0z"/></clipPath></defs></svg>