<svg xmlns="http://www.w3.org/2000/svg" width="300" height="200" fill="none" viewBox="0 0 300 200"><path fill="#000" d="M0 0h300v200H0z"/><circle cx="150.338" cy="157.056" r="22.056" stroke="#fff" stroke-width="2"/><path stroke="#fff" stroke-width="2" d="M134.661 157.056s3.825-7.071 7.992-7.071 7.993 7.071 7.993 7.071 3.745 7.377 7.992 7.377c4.248 0 7.993-7.377 7.993-7.377M108 156.475h19.283M171.717 156.475H228V68h-28.5M127.283 156.475H71V68h28.5M98 68h44M160 68h42M143 47v44M161 47v44"/><path fill="#fff" d="M162.3 17h-2.378a6.6 6.6 0 0 0-.537-2.48 6.1 6.1 0 0 0-1.394-2.007 6.3 6.3 0 0 0-2.134-1.33q-1.228-.473-2.749-.473-2.506 0-4.794 1.317-2.288 1.305-3.938 3.835-1.648 2.531-2.25 6.188-.6 3.605.192 6.072.794 2.456 2.595 3.72 1.817 1.266 4.257 1.266 1.56 0 2.992-.473a10 10 0 0 0 2.633-1.317 10.2 10.2 0 0 0 2.11-2.007 9.1 9.1 0 0 0 1.406-2.493h2.403a13 13 0 0 1-1.751 3.362 13 13 0 0 1-2.659 2.71 12.2 12.2 0 0 1-3.362 1.816 11.5 11.5 0 0 1-3.887.652q-3.349 0-5.663-1.675-2.301-1.675-3.273-4.717-.958-3.055-.268-7.198.678-4.065 2.595-7.056 1.93-2.992 4.73-4.615 2.8-1.637 6.085-1.637 2.097 0 3.759.652 1.662.639 2.825 1.816a8 8 0 0 1 1.803 2.71q.626 1.547.652 3.362M195.637 178.349q0-.85.769-1.58.77-.729 1.701-.769.729 0 1.336.729t.648 2.308q0 1.174-.769 4.657a67 67 0 0 1-1.094 3.725q-.486 1.458-1.417 3.281-.931 1.821-2.227 2.753a4.88 4.88 0 0 1-2.916.932q-1.782 0-3.159-.648t-1.984-1.742a1 1 0 0 0-.121.162q-1.66 2.228-4.05 2.228a8.3 8.3 0 0 1-2.024-.243 7.6 7.6 0 0 1-1.904-.77q-.931-.526-1.498-1.579t-.567-2.551q0-2.187 1.377-5.912t1.417-4.738v-.567q0-.122-.162-.284t-.445-.162h-.162q-.931 0-1.701.77a6.4 6.4 0 0 0-1.215 1.66 10.7 10.7 0 0 0-.688 1.701q-.243.81-.324.891t-.648.081h-.567q-.243-.243-.243-.365 0-.243.324-1.134a18 18 0 0 1 .931-2.065q.607-1.175 1.782-2.106 1.174-.931 2.632-.931 1.742 0 2.673 1.012t.931 2.349q0 .73-1.336 4.373-1.336 3.645-1.336 5.629 0 1.863.85 2.632t2.146.81q1.742 0 3.078-2.47l.202-.364v-1.296q0-.243.041-.324a.7.7 0 0 0 .04-.284 1.5 1.5 0 0 1 .041-.364q.04-.162.121-.526.081-.365.122-.689t.243-.972.324-1.296.445-1.741q1.174-4.616 1.336-4.981.527-1.093 1.742-1.093.77 0 1.053.405.284.405.324.769 0 .527-1.175 5.184-1.174 4.656-1.296 5.345-.081.445-.081 1.417v.284q0 .607.122 1.174.121.567.769 1.174.648.608 1.823.648 2.875 0 4.575-4.94.364-.931.81-2.632t.486-2.43q0-1.336-.526-2.106a9 9 0 0 0-1.053-1.295q-.526-.527-.526-1.134"/></svg>