<svg xmlns="http://www.w3.org/2000/svg" width="300" height="200" fill="none" viewBox="0 0 300 200"><path fill="#000" d="M0 0h300v200H0z"/><circle cx="150.338" cy="157.056" r="22.056" stroke="#fff" stroke-width="2"/><path stroke="#fff" stroke-width="2" d="M134.661 157.056s3.825-7.071 7.992-7.071c4.168 0 7.993 7.071 7.993 7.071s3.745 7.377 7.992 7.377c4.248 0 7.993-7.377 7.993-7.377M172 156h119V69v1.5"/><path stroke="#fff" stroke-width="2" d="M291 69.933h-32.928l-4 6.067-6.668-13-6.667 13-6.667-13-6.667 13-6.667-13-3.556 6.933H190M128 157H17V69"/><path fill="#f8ff2b" d="m63.84 35 4.347-26.182h2.391L66.59 32.852h12.478L78.709 35zM167.3 17h-2.378a6.6 6.6 0 0 0-.537-2.48 6.1 6.1 0 0 0-1.394-2.007 6.3 6.3 0 0 0-2.134-1.33q-1.228-.473-2.749-.473-2.506 0-4.794 1.317-2.288 1.305-3.938 3.835-1.648 2.531-2.25 6.188-.6 3.605.192 6.072.794 2.456 2.595 3.72 1.817 1.266 4.257 1.266 1.56 0 2.992-.473a10 10 0 0 0 2.633-1.317 10.2 10.2 0 0 0 2.11-2.007 9.1 9.1 0 0 0 1.406-2.493h2.403a13 13 0 0 1-1.751 3.362 13 13 0 0 1-2.659 2.71 12.2 12.2 0 0 1-3.362 1.816 11.5 11.5 0 0 1-3.887.652q-3.349 0-5.663-1.675-2.301-1.675-3.273-4.717-.958-3.055-.268-7.198.678-4.065 2.595-7.056 1.93-2.992 4.73-4.615 2.8-1.637 6.085-1.637 2.097 0 3.759.652 1.662.639 2.825 1.816a8 8 0 0 1 1.803 2.71q.626 1.547.652 3.362M228.841 35l4.347-26.182h8.45q2.787 0 4.487.997 1.713.998 2.365 2.774.665 1.765.294 4.066-.384 2.276-1.636 4.027-1.24 1.751-3.273 2.748-2.032.985-4.794.985h-7.185l.371-2.186h7.121q2.058 0 3.528-.678t2.352-1.93q.883-1.253 1.164-2.966.28-1.726-.192-3.004-.46-1.279-1.713-1.982-1.24-.703-3.311-.703h-5.996L231.232 35zm13.5-11.812L246.828 35h-2.748l-4.411-11.812z"/><path fill="#fff" d="M91.057 68.867c-.066-3.06-.47-5.89-1.113-8.295-.775 2.656-1.24 5.838-1.253 9.28.009 1.612.24 3.028.584 4.012.177.506.364.845.523 1.037a1 1 0 0 0 .08.086 1 1 0 0 0 .081-.086c.159-.192.346-.53.522-1.037.35-1.003.585-2.453.585-4.102zm-33.272-8.54c-.68 2.456-1.11 5.375-1.179 8.54l-.01.895c0 1.649.236 3.1.586 4.102.176.506.364.845.522 1.037a1 1 0 0 0 .08.086 1 1 0 0 0 .081-.086c.159-.192.346-.53.523-1.037.35-1.003.585-2.453.585-4.102 0-3.509-.443-6.75-1.188-9.436m10.697 0c-.68 2.456-1.11 5.376-1.178 8.54l-.01.895c.001 1.649.236 3.1.586 4.102.177.506.364.845.522 1.037q.048.056.08.086a1 1 0 0 0 .082-.086c.158-.192.345-.53.522-1.037.35-1.003.585-2.453.585-4.102l-.01-.895c-.068-3.164-.498-6.084-1.179-8.54m10.699 0c-.681 2.456-1.11 5.375-1.179 8.54l-.01.895c0 1.649.235 3.1.585 4.102.177.506.364.845.523 1.037a1 1 0 0 0 .08.086 1 1 0 0 0 .08-.086c.16-.192.347-.53.523-1.037.35-1.003.585-2.453.585-4.102h.001c0-3.509-.444-6.75-1.188-9.436m-32.09-.014c-.746 2.683-1.19 5.92-1.192 9.426h.02c0 1.648.235 3.097.583 4.099.176.505.363.843.52 1.035q.044.051.076.08.03-.029.075-.08c.157-.192.344-.53.52-1.035.348-1.002.582-2.451.582-4.099 0-3.505-.442-6.743-1.184-9.427m45.963 10.122c-.055 1.553-.297 2.98-.684 4.088-.22.628-.503 1.209-.868 1.65-.337.41-.836.804-1.49.852l-.133.005c-.72 0-1.264-.42-1.623-.856-.365-.443-.65-1.022-.87-1.65-.422-1.21-.67-2.803-.692-4.524h-.004l.001-.144v-.094h.002c.027-4.675.843-8.97 2.205-12.26-.641-1.489-1.376-2.634-2.141-3.398C85.98 53.33 85.228 53 84.529 53s-1.45.33-2.227 1.105c-.725.722-1.42 1.787-2.036 3.16 1.316 3.318 2.103 7.712 2.103 12.497 0 1.812-.255 3.496-.697 4.761-.22.629-.503 1.209-.868 1.65-.337.41-.836.805-1.49.852l-.133.005c-.72 0-1.264-.42-1.623-.856-.365-.443-.65-1.022-.87-1.65-.386-1.108-.63-2.536-.684-4.09l-.012-.672c0-4.785.787-9.179 2.103-12.496-.617-1.374-1.311-2.44-2.035-3.161C75.283 53.33 74.53 53 73.832 53s-1.45.33-2.227 1.105c-.725.722-1.421 1.786-2.038 3.16 1.317 3.318 2.104 7.712 2.104 12.497l-.012.673c-.055 1.553-.298 2.98-.684 4.088-.22.628-.504 1.209-.869 1.65-.337.41-.836.804-1.49.852l-.133.005c-.72 0-1.263-.42-1.623-.856-.365-.443-.65-1.022-.869-1.65-.386-1.108-.63-2.536-.684-4.09l-.012-.672c0-4.785.786-9.18 2.102-12.497-.616-1.374-1.312-2.439-2.036-3.16C64.584 53.33 63.833 53 63.134 53c-.7 0-1.45.33-2.228 1.105-.724.722-1.42 1.787-2.036 3.16 1.316 3.318 2.104 7.712 2.104 12.497h-.001c0 1.812-.255 3.496-.697 4.761-.219.629-.503 1.209-.868 1.65-.337.41-.836.805-1.49.852l-.133.005c-.72 0-1.263-.42-1.623-.856-.365-.443-.65-1.022-.869-1.65-.387-1.108-.63-2.536-.685-4.09l-.011-.672c0-4.785.786-9.179 2.102-12.496-.616-1.374-1.31-2.44-2.035-3.161C53.887 53.33 53.135 53 52.437 53c-.7 0-1.451.33-2.228 1.105-.722.72-1.416 1.78-2.031 3.147 1.312 3.314 2.097 7.705 2.097 12.487 0 1.81-.253 3.492-.693 4.756-.218.627-.5 1.207-.864 1.649-.358.434-.9.856-1.62.856s-1.263-.422-1.62-.856c-.364-.442-.647-1.022-.865-1.649-.437-1.259-.691-2.932-.693-4.733h-.02c0-4.793.788-9.194 2.108-12.513-.613-1.368-1.302-2.43-2.02-3.148-.774-.774-1.521-1.101-2.214-1.101s-1.45.33-2.238 1.106c-.79.78-1.552 1.957-2.216 3.488-1.326 3.059-2.182 7.353-2.182 12.145v1H16v-2h17.15c.11-4.612.976-8.805 2.335-11.941.728-1.679 1.617-3.1 2.647-4.116C39.165 51.663 40.398 51 41.774 51c1.379 0 2.606.666 3.627 1.688.621.62 1.186 1.393 1.695 2.282.51-.889 1.078-1.661 1.7-2.282C49.824 51.664 51.055 51 52.437 51s2.614.664 3.64 1.688c.627.624 1.197 1.401 1.71 2.295.511-.894 1.082-1.671 1.708-2.295C60.52 51.664 61.752 51 63.134 51s2.613.664 3.64 1.688c.626.624 1.196 1.4 1.708 2.295.513-.894 1.084-1.671 1.71-2.295C71.22 51.664 72.45 51 73.832 51s2.613.664 3.64 1.688c.626.624 1.196 1.401 1.709 2.295.512-.894 1.082-1.671 1.709-2.295C81.916 51.664 83.147 51 84.53 51c1.382 0 2.612.664 3.639 1.688.685.683 1.302 1.55 1.85 2.552 1.472-2.494 3.46-4.24 5.862-4.24 2.894 0 5.188 2.534 6.701 5.858 1.451 3.19 2.363 7.454 2.477 12.142h14.631v2h-16.619v-1c0-4.861-.899-9.214-2.309-12.313C99.311 54.497 97.51 53 95.881 53c-1.603 0-3.371 1.451-4.81 4.538 1.251 3.284 1.995 7.57 1.995 12.224z"/><path stroke="#fff" stroke-width="2" d="M105 70h37M160 70h42M143 49v44M161 49v44"/></svg>