<svg xmlns="http://www.w3.org/2000/svg" width="300" height="200" fill="none" viewBox="0 0 300 200"><g clip-path="url(#a)"><path fill="#000" d="M0 0h300v200H0z"/><circle cx="145.916" cy="157.916" r="14.916" stroke="#fff" stroke-width="2"/><path stroke="#fff" stroke-width="2" d="M135.093 157.916s2.641-4.881 5.518-4.881 5.517 4.881 5.517 4.881 2.585 5.093 5.518 5.093 5.517-5.093 5.517-5.093M161.5 157H287V70v1.5"/><path stroke="#fff" stroke-width="2" d="M287 70.933h-32.928l-4 6.067-6.668-13-6.667 13-6.667-13-6.667 13-6.667-13-3.556 6.933H186M130.5 158H13V70"/><path fill="#fff" d="M87.057 69.867c-.066-3.06-.47-5.89-1.113-8.295-.775 2.656-1.24 5.838-1.253 9.28.009 1.612.24 3.028.584 4.012.177.506.364.845.523 1.037a1 1 0 0 0 .08.086 1 1 0 0 0 .081-.086c.159-.192.346-.53.522-1.037.35-1.003.585-2.453.585-4.102zm-33.272-8.54c-.68 2.456-1.11 5.375-1.179 8.54l-.01.895c0 1.649.236 3.1.586 4.102.176.506.364.845.522 1.037a1 1 0 0 0 .08.086 1 1 0 0 0 .081-.086c.159-.192.346-.53.523-1.037.35-1.003.585-2.453.585-4.102 0-3.509-.443-6.75-1.188-9.436m10.697 0c-.68 2.456-1.11 5.376-1.178 8.54l-.01.895c.001 1.649.236 3.1.586 4.102.177.506.364.845.522 1.037q.048.056.08.086a1 1 0 0 0 .082-.086c.158-.192.345-.53.522-1.037.35-1.003.585-2.453.585-4.102l-.01-.895c-.068-3.164-.498-6.084-1.179-8.54m10.699 0c-.681 2.456-1.11 5.375-1.179 8.54l-.01.895c0 1.649.235 3.1.585 4.102.177.506.364.845.523 1.037a1 1 0 0 0 .08.086 1 1 0 0 0 .08-.086c.16-.192.347-.53.523-1.037.35-1.003.585-2.453.585-4.102h.001c0-3.509-.444-6.75-1.188-9.436m-32.09-.014c-.746 2.683-1.19 5.92-1.192 9.426h.02c0 1.648.235 3.097.583 4.099.176.505.363.843.52 1.035q.044.051.076.08.03-.029.075-.08c.157-.192.344-.53.52-1.035.348-1.002.582-2.451.582-4.099 0-3.505-.442-6.743-1.184-9.427m45.963 10.122c-.055 1.553-.297 2.98-.684 4.088-.22.628-.503 1.209-.868 1.65-.337.41-.836.804-1.49.852l-.133.005c-.72 0-1.264-.42-1.623-.856-.365-.443-.65-1.022-.87-1.65-.422-1.21-.67-2.803-.692-4.524h-.004l.001-.144v-.094h.002c.027-4.675.843-8.97 2.205-12.26-.641-1.489-1.376-2.634-2.141-3.398C81.98 54.33 81.228 54 80.529 54s-1.45.33-2.227 1.105c-.725.722-1.42 1.787-2.036 3.16 1.316 3.318 2.103 7.712 2.103 12.497 0 1.812-.255 3.496-.697 4.761-.22.629-.503 1.209-.868 1.65-.337.41-.836.805-1.49.852l-.133.005c-.72 0-1.264-.42-1.623-.856-.365-.443-.65-1.022-.87-1.65-.386-1.108-.63-2.536-.684-4.09l-.012-.672c0-4.785.787-9.179 2.103-12.496-.617-1.374-1.311-2.44-2.035-3.161C71.283 54.33 70.53 54 69.832 54s-1.45.33-2.227 1.105c-.725.722-1.421 1.786-2.038 3.16 1.317 3.318 2.104 7.712 2.104 12.497l-.012.673c-.055 1.553-.298 2.98-.684 4.088-.22.628-.504 1.209-.869 1.65-.337.41-.836.804-1.49.852l-.133.005c-.72 0-1.263-.42-1.623-.856-.365-.443-.65-1.022-.869-1.65-.386-1.108-.63-2.536-.684-4.09l-.012-.672c0-4.785.786-9.18 2.102-12.497-.616-1.374-1.311-2.439-2.036-3.16C60.584 54.33 59.833 54 59.134 54c-.7 0-1.45.33-2.228 1.105-.724.722-1.42 1.787-2.036 3.16 1.316 3.318 2.104 7.712 2.104 12.497h-.001c0 1.812-.255 3.496-.697 4.761-.219.629-.503 1.209-.868 1.65-.337.41-.836.805-1.49.852l-.133.005c-.72 0-1.263-.42-1.623-.856-.365-.443-.65-1.022-.869-1.65-.387-1.108-.63-2.536-.685-4.09l-.011-.672c0-4.785.786-9.179 2.102-12.496-.616-1.374-1.31-2.44-2.035-3.161C49.887 54.33 49.135 54 48.437 54c-.7 0-1.451.33-2.228 1.105-.722.72-1.416 1.78-2.031 3.147 1.312 3.314 2.097 7.705 2.097 12.487 0 1.81-.253 3.492-.693 4.756-.218.627-.5 1.207-.864 1.649-.358.434-.9.856-1.62.856s-1.263-.422-1.62-.856c-.364-.442-.647-1.022-.865-1.649-.437-1.259-.691-2.932-.693-4.733h-.02c0-4.793.788-9.194 2.108-12.513-.613-1.368-1.302-2.43-2.02-3.148-.774-.774-1.521-1.101-2.214-1.101s-1.45.33-2.238 1.106c-.79.78-1.552 1.957-2.216 3.488-1.326 3.059-2.182 7.353-2.182 12.145v1H12v-2h17.15c.11-4.612.976-8.805 2.335-11.941.728-1.679 1.617-3.1 2.647-4.116C35.165 52.663 36.398 52 37.774 52c1.379 0 2.606.666 3.627 1.688.621.62 1.186 1.393 1.695 2.282.51-.889 1.078-1.661 1.7-2.282C45.824 52.664 47.055 52 48.437 52s2.614.664 3.64 1.688c.627.624 1.197 1.401 1.71 2.295.511-.894 1.082-1.671 1.708-2.295C56.52 52.664 57.752 52 59.134 52s2.613.664 3.64 1.688c.626.624 1.196 1.4 1.708 2.295.513-.894 1.084-1.671 1.71-2.295C67.22 52.664 68.45 52 69.832 52s2.613.664 3.64 1.688c.626.624 1.196 1.401 1.709 2.295.512-.894 1.082-1.671 1.709-2.295C77.916 52.664 79.147 52 80.53 52c1.382 0 2.612.664 3.639 1.688.685.683 1.302 1.55 1.85 2.552 1.472-2.494 3.46-4.24 5.862-4.24 2.894 0 5.188 2.534 6.701 5.858 1.451 3.19 2.363 7.454 2.477 12.142h14.631v2H99.071v-1c0-4.861-.899-9.214-2.31-12.313-1.45-3.19-3.251-4.687-4.88-4.687-1.603 0-3.371 1.451-4.81 4.538 1.251 3.284 1.995 7.57 1.995 12.224z"/><path stroke="#fff" stroke-width="2" d="M101 71h37M156 71h42M139 50v44M157 50v44"/><path fill="#f8ff2b" d="m142.151 179.545 2.906 15.384h.162l7.994-15.384h1.671L145.636 197h-1.704l-3.452-17.455z"/><path fill="#a9ffff" d="m57.15 8.545 2.907 15.384h.162l7.994-15.384h1.67L60.637 26h-1.704L55.48 8.545zM69.365 31l1.738-10.473h1.269l-1.555 9.348h4.868L75.5 31zM141.151 8.545l2.906 15.384h.162l7.994-15.384h1.671L144.636 26h-1.704L139.48 8.545zM162.977 23.8h-1.247a2.4 2.4 0 0 0-.225-.961 2.06 2.06 0 0 0-.553-.696 2.3 2.3 0 0 0-.787-.43 3.1 3.1 0 0 0-.951-.143q-.972 0-1.841.497-.87.491-1.488 1.447-.62.95-.844 2.332-.225 1.339.066 2.255t.967 1.385q.675.47 1.606.47.537 0 1.053-.142.522-.143.972-.425a3.5 3.5 0 0 0 .808-.7q.357-.42.562-.962h1.268a5.2 5.2 0 0 1-1.861 2.516 4.9 4.9 0 0 1-2.843.9q-1.36 0-2.317-.665-.95-.67-1.36-1.892-.404-1.227-.128-2.904.276-1.637 1.059-2.823.781-1.192 1.917-1.83a4.9 4.9 0 0 1 2.465-.645q.798 0 1.468.23.67.231 1.166.675.495.44.772 1.074.28.63.296 1.437M225.151 8.545l2.906 15.384h.162l7.994-15.384h1.671L228.636 26h-1.704L223.48 8.545zM237.364 31l1.738-10.473h3.539q1.227 0 1.943.415.721.414.977 1.14.26.726.107 1.657a3.94 3.94 0 0 1-.654 1.636 3.4 3.4 0 0 1-1.35 1.125q-.85.41-2.066.41h-2.864l.205-1.146h2.822q.839 0 1.391-.246.553-.245.859-.7a2.7 2.7 0 0 0 .409-1.08q.103-.634-.056-1.099a1.25 1.25 0 0 0-.629-.726q-.47-.26-1.319-.26h-2.23L238.632 31zm5.706-4.704 1.8 4.704h-1.472l-1.759-4.704zM23 39l10 5.773V33.227zm83 0-10-5.773v11.547zm-74 0v1h65v-2H32zM117 39l10 5.773V33.227zm68 0-10-5.773v11.547zm-59 0v1h50v-2h-50zM194 39l10 5.773V33.227zm78 0-10-5.773v11.547zm-69 0v1h60v-2h-60z"/></g><defs><clipPath id="a"><path fill="#fff" d="M0 0h300v200H0z"/></clipPath></defs></svg>