<svg xmlns="http://www.w3.org/2000/svg" width="300" height="200" fill="none" viewBox="0 0 300 200"><g clip-path="url(#a)"><path fill="#000" d="M0 0h300v200H0z"/><path stroke="#fff" stroke-width="2" d="M106 132h19.283M169.717 132H226V59h-28.5M125.283 132H69V59h28.5"/><path fill="#fff" d="m138.841 28 4.347-26.182h2.39l-3.989 24.034h12.478L153.709 28zM159.3 173h-2.378a6.6 6.6 0 0 0-.537-2.48 6.1 6.1 0 0 0-1.394-2.007 6.3 6.3 0 0 0-2.134-1.33q-1.228-.473-2.749-.473-2.506 0-4.794 1.317-2.288 1.304-3.938 3.835-1.648 2.532-2.25 6.188-.6 3.605.192 6.072.794 2.456 2.595 3.72 1.817 1.266 4.257 1.266 1.56 0 2.992-.473a10 10 0 0 0 2.633-1.317 10.2 10.2 0 0 0 2.11-2.007 9.1 9.1 0 0 0 1.406-2.493h2.403a13 13 0 0 1-1.751 3.362 13 13 0 0 1-2.659 2.711 12.2 12.2 0 0 1-3.362 1.815 11.5 11.5 0 0 1-3.887.652q-3.349 0-5.663-1.675-2.301-1.675-3.273-4.717-.958-3.055-.268-7.198.678-4.065 2.595-7.056 1.93-2.992 4.73-4.615a11.85 11.85 0 0 1 6.085-1.637q2.097 0 3.759.652 1.662.639 2.825 1.816a8 8 0 0 1 1.803 2.71q.626 1.547.652 3.362M170.919 57.867c-.066-3.06-.47-5.89-1.112-8.295-.776 2.656-1.24 5.838-1.253 9.28.008 1.612.24 3.028.584 4.012.176.506.364.845.522 1.037q.047.056.08.086a1 1 0 0 0 .081-.086c.159-.192.346-.53.523-1.037.35-1.003.585-2.453.585-4.102zm-33.272-8.54c-.681 2.456-1.11 5.375-1.178 8.54l-.01.895c0 1.649.235 3.1.585 4.102.177.506.364.845.522 1.037q.048.056.08.086a1 1 0 0 0 .082-.086c.158-.192.345-.53.522-1.037.35-1.003.585-2.453.585-4.102h.001c0-3.509-.444-6.75-1.189-9.436m10.698 0c-.681 2.456-1.111 5.376-1.179 8.54l-.009.895c0 1.649.235 3.1.585 4.102.177.506.364.845.523 1.037a1 1 0 0 0 .08.086q.032-.03.081-.086c.158-.192.346-.53.522-1.037.35-1.003.585-2.453.585-4.102l-.01-.895c-.068-3.164-.497-6.084-1.178-8.54m10.698 0c-.681 2.456-1.111 5.375-1.179 8.54l-.01.895c.001 1.649.235 3.1.585 4.102.177.506.364.845.523 1.037a1 1 0 0 0 .08.086 1 1 0 0 0 .081-.086c.159-.192.346-.53.523-1.037.349-1.003.584-2.453.584-4.102h.001c0-3.509-.443-6.75-1.188-9.436m-32.09-.014c-.745 2.683-1.189 5.92-1.191 9.426h.02c0 1.648.234 3.097.582 4.099.176.505.363.843.521 1.035q.044.051.075.08.031-.029.075-.08c.158-.192.344-.53.52-1.035.348-1.002.583-2.451.583-4.099 0-3.505-.443-6.743-1.185-9.426m45.963 10.122c-.055 1.553-.297 2.98-.684 4.088-.219.628-.503 1.209-.868 1.65-.337.41-.836.804-1.49.852l-.133.005c-.72 0-1.263-.42-1.623-.856-.365-.443-.65-1.022-.869-1.65-.422-1.21-.671-2.803-.692-4.524h-.004l.001-.145-.001-.093h.003c.027-4.675.842-8.97 2.205-12.26-.642-1.489-1.376-2.634-2.142-3.398-.777-.774-1.528-1.104-2.227-1.104s-1.451.33-2.228 1.105c-.724.722-1.42 1.787-2.036 3.16 1.316 3.318 2.103 7.712 2.103 12.497h-.001c0 1.812-.254 3.496-.696 4.761-.219.628-.503 1.209-.868 1.65-.337.41-.836.805-1.49.852l-.133.005c-.72 0-1.264-.42-1.623-.856-.365-.443-.65-1.022-.869-1.65-.387-1.108-.63-2.536-.685-4.09l-.012-.672c.001-4.785.787-9.179 2.103-12.496-.616-1.374-1.311-2.44-2.035-3.161-.777-.775-1.529-1.105-2.228-1.105s-1.45.33-2.227 1.105c-.725.722-1.421 1.786-2.037 3.16 1.316 3.318 2.103 7.712 2.103 12.497l-.012.673c-.054 1.553-.298 2.98-.684 4.088-.219.628-.503 1.209-.868 1.65-.337.41-.836.804-1.49.852l-.133.005c-.72 0-1.264-.42-1.623-.856-.365-.443-.65-1.022-.869-1.65-.387-1.108-.63-2.536-.685-4.09l-.012-.672c0-4.785.786-9.18 2.103-12.497-.617-1.374-1.312-2.439-2.036-3.16-.777-.775-1.529-1.105-2.228-1.105s-1.45.33-2.227 1.105c-.725.722-1.42 1.787-2.037 3.16 1.317 3.318 2.104 7.712 2.104 12.497h-.001c0 1.812-.255 3.496-.696 4.761-.22.629-.504 1.209-.868 1.65-.338.41-.836.805-1.491.852l-.133.005c-.72 0-1.263-.42-1.623-.856-.364-.443-.649-1.022-.869-1.65-.386-1.108-.63-2.536-.684-4.09l-.012-.672c0-4.785.786-9.179 2.103-12.496-.617-1.374-1.311-2.44-2.036-3.161-.777-.775-1.528-1.105-2.227-1.105s-1.451.33-2.228 1.105c-.722.72-1.416 1.78-2.031 3.147 1.312 3.314 2.098 7.705 2.098 12.487 0 1.81-.254 3.492-.694 4.756-.218.627-.501 1.207-.864 1.649-.358.434-.9.856-1.62.856s-1.263-.422-1.62-.856c-.363-.442-.646-1.022-.864-1.649-.438-1.259-.692-2.932-.694-4.733h-.02c0-4.793.788-9.194 2.108-12.513-.612-1.368-1.302-2.43-2.02-3.148-.773-.774-1.521-1.101-2.213-1.101-.695 0-1.451.33-2.239 1.106-.79.78-1.552 1.957-2.215 3.488-1.326 3.059-2.183 7.353-2.183 12.145v1H95.862v-2h17.15c.11-4.612.976-8.805 2.336-11.941.727-1.679 1.616-3.1 2.646-4.116 1.033-1.019 2.266-1.682 3.643-1.682 1.378 0 2.605.666 3.627 1.688.621.62 1.186 1.393 1.694 2.282.51-.889 1.078-1.661 1.701-2.282 1.027-1.024 2.257-1.688 3.64-1.688 1.382 0 2.613.664 3.639 1.688.627.624 1.197 1.401 1.709 2.295.513-.894 1.083-1.671 1.709-2.295 1.027-1.024 2.258-1.688 3.64-1.688s2.613.664 3.64 1.688c.626.624 1.196 1.4 1.709 2.295.512-.894 1.083-1.671 1.71-2.295 1.026-1.024 2.257-1.688 3.639-1.688 1.383 0 2.614.664 3.64 1.688.626.624 1.197 1.401 1.709 2.295.512-.894 1.083-1.671 1.709-2.295 1.026-1.024 2.257-1.688 3.64-1.688 1.382 0 2.613.664 3.639 1.688.686.683 1.302 1.55 1.851 2.552 1.472-2.494 3.459-4.24 5.861-4.24 2.894 0 5.189 2.534 6.701 5.858 1.452 3.19 2.363 7.454 2.477 12.142h14.632v2h-16.619v-1c0-4.861-.9-9.214-2.31-12.313-1.451-3.19-3.252-4.687-4.881-4.687-1.603 0-3.371 1.451-4.81 4.538 1.252 3.284 1.996 7.57 1.996 12.224z"/><path stroke="#fff" stroke-width="2" d="M94 131.99h44M156 131.99h42M139 110.99v44M157 110.99v44"/></g><defs><clipPath id="a"><path fill="#fff" d="M0 0h300v200H0z"/></clipPath></defs></svg>