<svg xmlns="http://www.w3.org/2000/svg" width="300" height="200" fill="none" viewBox="0 0 300 200"><g clip-path="url(#a)"><path fill="#000" d="M0 0h300v200H0z"/><path stroke="#fff" stroke-width="2" d="M202 51.933h-34.928l-4 6.067-6.668-13-6.667 13-6.667-13-6.667 13-6.667-13-3.556 6.933H99"/><circle cx="150.338" cy="141.056" r="22.056" stroke="#fff" stroke-width="2"/><path stroke="#fff" stroke-width="2" d="M134.661 141.056s3.825-7.071 7.992-7.071 7.993 7.071 7.993 7.071 3.745 7.377 7.992 7.377c4.248 0 7.993-7.377 7.993-7.377M108 140.475h19.283M171.717 140.475H228V52h-28.5M127.283 140.475H71V52h28.5"/><path fill="#fff" d="m136.841 32 4.347-26.182h8.45q2.787 0 4.487.997 1.713.998 2.365 2.774.665 1.765.294 4.066-.384 2.276-1.636 4.027-1.24 1.751-3.273 2.748-2.032.985-4.794.985h-7.185l.371-2.186h7.121q2.058 0 3.528-.678t2.352-1.93q.883-1.253 1.164-2.966.28-1.726-.192-3.004-.46-1.279-1.713-1.982-1.24-.703-3.311-.703h-5.996L139.232 32zm13.5-11.812L154.828 32h-2.748l-4.411-11.812z"/></g><defs><clipPath id="a"><path fill="#fff" d="M0 0h300v200H0z"/></clipPath></defs></svg>