<svg xmlns="http://www.w3.org/2000/svg" width="300" height="200" fill="none" viewBox="0 0 300 200"><path fill="#000" d="M0 0h300v200H0z"/><circle cx="150.338" cy="157.056" r="22.056" stroke="#fff" stroke-width="2"/><path stroke="#fff" stroke-width="2" d="M134.661 157.056s3.825-7.071 7.992-7.071 7.993 7.071 7.993 7.071 3.745 7.377 7.992 7.377c4.248 0 7.993-7.377 7.993-7.377M108 156.475h19.283M171.717 156.475H228V68h-28.5M127.283 156.475H71V68h28.5M98 68h44M160 68h42M143 47v44M161 47v44"/><path fill="#fff" d="M162.3 17h-2.378a6.6 6.6 0 0 0-.537-2.48 6.1 6.1 0 0 0-1.394-2.007 6.3 6.3 0 0 0-2.134-1.33q-1.228-.473-2.749-.473-2.506 0-4.794 1.317-2.288 1.305-3.938 3.835-1.648 2.531-2.25 6.188-.6 3.605.192 6.072.794 2.456 2.595 3.72 1.817 1.266 4.257 1.266 1.56 0 2.992-.473a10 10 0 0 0 2.633-1.317 10.2 10.2 0 0 0 2.11-2.007 9.1 9.1 0 0 0 1.406-2.493h2.403a13 13 0 0 1-1.751 3.362 13 13 0 0 1-2.659 2.71 12.2 12.2 0 0 1-3.362 1.816 11.5 11.5 0 0 1-3.887.652q-3.349 0-5.663-1.675-2.301-1.675-3.273-4.717-.958-3.055-.268-7.198.678-4.065 2.595-7.056 1.93-2.992 4.73-4.615 2.8-1.637 6.085-1.637 2.097 0 3.759.652 1.662.639 2.825 1.816a8 8 0 0 1 1.803 2.71q.626 1.547.652 3.362"/></svg>