<svg xmlns="http://www.w3.org/2000/svg" width="300" height="200" fill="none" viewBox="0 0 300 200"><path fill="#000" d="M0 0h300v200H0z"/><path fill="#fff" d="m289 99-10-5.773v11.547zM61 99v1h219v-2H61z"/><path fill="#fff" d="m61 14-5.773 10h11.547zm0 171h1V23h-2v162zM11.412 48.781l-1.457.375a3 3 0 0 0-.41-1.057 2 2 0 0 0-.843-.75q-.546-.28-1.432-.28-1.329 0-2.293.647-.963.639-1.125 1.636-.136.836.35 1.355.494.52 1.653.819l1.91.485q1.584.41 2.258 1.279.68.87.469 2.199a3.87 3.87 0 0 1-.947 1.96q-.75.852-1.926 1.338-1.167.486-2.608.486-1.935 0-3.042-.87-1.1-.87-1.176-2.505l1.525-.341q.069 1.16.793 1.755.732.597 2.062.597 1.517 0 2.549-.69 1.03-.69 1.184-1.705.145-.8-.298-1.33-.435-.528-1.483-.783l-2.037-.512q-1.645-.417-2.327-1.304-.674-.894-.451-2.207.179-1.083.903-1.9.725-.819 1.832-1.28a6.15 6.15 0 0 1 2.42-.468q1.808 0 2.754.818.945.81 1.193 2.233M13.234 59l2.182-13.09h1.525L14.76 59zm3.494-15.367q-.477 0-.81-.323a1.04 1.04 0 0 1-.315-.784q.017-.435.35-.75.34-.324.8-.324.478 0 .81.332a1 1 0 0 1 .316.784q-.01.435-.35.75-.34.316-.801.316m4.915 7.185L20.289 59h-1.517l2.182-13.09h1.475l-.341 2.053h.136q.614-1.005 1.696-1.61 1.09-.614 2.531-.614 1.313 0 2.216.554.912.545 1.296 1.61.391 1.065.136 2.617L28.675 59h-1.517l1.397-8.386q.265-1.603-.468-2.54-.724-.946-2.242-.946-1.03 0-1.917.443a4.1 4.1 0 0 0-1.483 1.278q-.605.828-.802 1.97m11.743-.545.153-1.023 4.534-3.673q.81-.648 1.321-1.134.52-.486.793-.903.273-.426.34-.895.137-.819-.408-1.33-.537-.51-1.5-.511-.981 0-1.722.554-.733.554-.87 1.415h-1.38q.222-1.338 1.355-2.216 1.142-.887 2.744-.887 1.065 0 1.799.401.741.4 1.074 1.09.332.684.196 1.535-.103.63-.435 1.193-.324.555-.989 1.202-.665.64-1.772 1.526l-3.009 2.428v.06h5.565l-.187 1.168zm19.144-.469-.23 1.432h-8.591l.23-1.432zm.954-.23-.298 1.781q-.443 2.677-1.364 4.423-.912 1.748-2.216 2.608-1.303.853-2.923.853t-2.659-.861q-1.04-.86-1.39-2.608-.348-1.748.095-4.415l.298-1.781q.452-2.66 1.364-4.38.912-1.731 2.215-2.566 1.305-.844 2.924-.844 1.627 0 2.667.844 1.04.835 1.381 2.565.35 1.722-.094 4.38m-1.892 2.037.392-2.284q.333-2.02.12-3.392-.205-1.373-.912-2.063-.708-.699-1.833-.699-1.713 0-2.991 1.577-1.27 1.568-1.773 4.577l-.383 2.284q-.512 3.025.238 4.636.75 1.602 2.438 1.602 1.142 0 2.088-.724t1.61-2.122q.675-1.398 1.006-3.392"/><path fill="#a9ffff" d="M45.23 123.239q-1.84 0-2.966-1.057-1.125-1.065-1.474-3.068-.35-2.012.11-4.841.461-2.812 1.483-4.816 1.023-2.011 2.498-3.076a5.5 5.5 0 0 1 3.315-1.074q1.824 0 2.957 1.074 1.134 1.065 1.5 3.076.376 2.004-.093 4.816-.479 2.82-1.5 4.832-1.023 2.003-2.515 3.068a5.54 5.54 0 0 1-3.315 1.066m.213-1.432q2.012 0 3.486-1.96 1.483-1.96 2.08-5.574.391-2.36.161-4.057-.221-1.696-1.03-2.6-.81-.903-2.148-.903-2.004 0-3.478 1.977-1.475 1.97-2.07 5.583-.393 2.36-.171 4.048.22 1.688 1.022 2.591.802.895 2.148.895M166.994 109.909l-.238 1.432h-12.273l.239-1.432zm-8.855 0L155.957 123h-1.517l2.182-13.091zm5.549 0h1.5l-1.662 10.159q-.111.674.017 1.023.136.35.443.469.306.119.716.119.281 0 .571-.051t.52-.119l-.231 1.431a8 8 0 0 1-.69.162 4.7 4.7 0 0 1-.886.077q-1.15 0-1.713-.69-.554-.699-.282-2.361zM245.852 126l.205-1.168 6.75-6.409a54 54 0 0 0 2.156-2.156q.835-.903 1.278-1.653a4.6 4.6 0 0 0 .58-1.577q.162-.997-.17-1.739a2.43 2.43 0 0 0-1.049-1.167q-.716-.418-1.738-.418-1.075 0-1.969.46a4.23 4.23 0 0 0-2.259 3.103h-1.525a5.63 5.63 0 0 1 1.099-2.566 6.2 6.2 0 0 1 2.148-1.764 6.1 6.1 0 0 1 2.753-.639q1.466 0 2.488.631 1.024.622 1.483 1.696t.239 2.403a6.2 6.2 0 0 1-.656 1.875q-.486.895-1.492 2.003-1.005 1.107-2.718 2.71l-5.123 4.832-.025.111h8.633l-.238 1.432zm27.791-13.091-.239 1.432h-12.273l.239-1.432zm-8.855 0L262.606 126h-1.517l2.182-13.091zm5.548 0h1.5l-1.662 10.159q-.11.674.017 1.023.137.35.443.469.307.119.716.119.282 0 .571-.051a5 5 0 0 0 .52-.119l-.23 1.431a8 8 0 0 1-.69.162 4.7 4.7 0 0 1-.887.077q-1.15 0-1.713-.69-.554-.699-.281-2.361z"/><path stroke="#f8ff2b" stroke-width="3" d="M62 98.261s14.05-79.13 47.918-80.25C144.483 16.87 161 98.262 161 98.262s16.285-80.25 49.5-80.25 49.5 80.25 49.5 80.25"/></svg>