<svg xmlns="http://www.w3.org/2000/svg" width="300" height="200" fill="none" viewBox="0 0 300 200"><path fill="#000" d="M0 0h300v200H0z"/><circle cx="146.338" cy="138.056" r="22.056" stroke="#fff" stroke-width="2"/><path stroke="#fff" stroke-width="2" d="M130.66 138.056s3.826-7.071 7.993-7.071 7.993 7.071 7.993 7.071 3.744 7.377 7.992 7.377 7.993-7.377 7.993-7.377M168 137h119V50v1.5"/><path stroke="#fff" stroke-width="2" d="M287 50.933h-32.928l-4 6.067-6.668-13-6.667 13-6.667-13-6.667 13-6.667-13-3.556 6.933H186M124 138H13V50"/><path fill="#fff" d="M87.057 49.867c-.066-3.06-.47-5.89-1.113-8.295-.775 2.656-1.24 5.838-1.253 9.28.009 1.612.24 3.028.584 4.012.177.506.364.845.523 1.037a1 1 0 0 0 .08.086 1 1 0 0 0 .081-.086c.159-.192.346-.53.522-1.037.35-1.003.585-2.453.585-4.102zm-33.272-8.54c-.68 2.456-1.11 5.375-1.179 8.54l-.01.895c0 1.649.236 3.1.586 4.102.176.506.364.845.522 1.037a1 1 0 0 0 .08.086 1 1 0 0 0 .081-.086c.159-.192.346-.53.523-1.037.35-1.003.585-2.453.585-4.102 0-3.509-.443-6.75-1.188-9.436m10.697 0c-.68 2.456-1.11 5.376-1.178 8.54l-.01.895c.001 1.649.236 3.1.586 4.102.177.506.364.845.522 1.037q.048.056.08.086a1 1 0 0 0 .082-.086c.158-.192.345-.53.522-1.037.35-1.003.585-2.453.585-4.102l-.01-.895c-.068-3.164-.498-6.084-1.179-8.54m10.699 0c-.681 2.456-1.11 5.375-1.179 8.54l-.01.895c0 1.649.235 3.1.585 4.102.177.506.364.845.523 1.037a1 1 0 0 0 .08.086 1 1 0 0 0 .08-.086c.16-.192.347-.53.523-1.037.35-1.003.585-2.453.585-4.102h.001c0-3.509-.444-6.75-1.188-9.436m-32.09-.014c-.746 2.683-1.19 5.92-1.192 9.426h.02c0 1.648.235 3.097.583 4.099.176.505.363.843.52 1.035q.044.051.076.08.03-.029.075-.08c.157-.192.344-.53.52-1.035.348-1.002.582-2.451.582-4.099 0-3.505-.442-6.743-1.184-9.426m45.963 10.122c-.055 1.553-.297 2.98-.684 4.088-.22.628-.503 1.209-.868 1.65-.337.41-.836.804-1.49.852l-.133.005c-.72 0-1.264-.42-1.623-.856-.365-.443-.65-1.022-.87-1.65-.422-1.21-.67-2.803-.692-4.524h-.004l.001-.145v-.093h.002c.027-4.675.843-8.97 2.205-12.26-.641-1.489-1.376-2.634-2.141-3.398C81.98 34.33 81.228 34 80.529 34s-1.45.33-2.227 1.105c-.725.722-1.42 1.787-2.036 3.16 1.316 3.318 2.103 7.712 2.103 12.497 0 1.812-.255 3.496-.697 4.761-.22.628-.503 1.209-.868 1.65-.337.41-.836.805-1.49.852l-.133.005c-.72 0-1.264-.42-1.623-.856-.365-.443-.65-1.022-.87-1.65-.386-1.108-.63-2.536-.684-4.09l-.012-.672c0-4.785.787-9.179 2.103-12.496-.617-1.374-1.311-2.44-2.035-3.161C71.283 34.33 70.53 34 69.832 34s-1.45.33-2.227 1.105c-.725.722-1.421 1.786-2.038 3.16 1.317 3.318 2.104 7.712 2.104 12.497l-.012.673c-.055 1.553-.298 2.98-.684 4.088-.22.628-.504 1.209-.869 1.65-.337.41-.836.804-1.49.852l-.133.005c-.72 0-1.263-.42-1.623-.856-.365-.443-.65-1.022-.869-1.65-.386-1.108-.63-2.536-.684-4.09l-.012-.672c0-4.785.786-9.18 2.102-12.497-.616-1.374-1.311-2.439-2.036-3.16C60.584 34.33 59.833 34 59.134 34c-.7 0-1.45.33-2.228 1.105-.724.722-1.42 1.787-2.036 3.16 1.316 3.318 2.104 7.712 2.104 12.497h-.001c0 1.812-.255 3.496-.697 4.761-.219.629-.503 1.209-.868 1.65-.337.41-.836.805-1.49.852l-.133.005c-.72 0-1.263-.42-1.623-.856-.365-.443-.65-1.022-.869-1.65-.387-1.108-.63-2.536-.685-4.09l-.011-.672c0-4.785.786-9.179 2.102-12.496-.616-1.374-1.31-2.44-2.035-3.161C49.887 34.33 49.135 34 48.437 34c-.7 0-1.451.33-2.228 1.105-.722.72-1.416 1.78-2.031 3.147 1.312 3.314 2.097 7.705 2.097 12.487 0 1.81-.253 3.492-.693 4.756-.218.627-.5 1.207-.864 1.649-.358.434-.9.856-1.62.856s-1.263-.422-1.62-.856c-.364-.442-.647-1.022-.865-1.649-.437-1.259-.691-2.932-.693-4.733h-.02c0-4.793.788-9.194 2.108-12.513-.613-1.368-1.302-2.43-2.02-3.148-.774-.774-1.521-1.101-2.214-1.101s-1.45.33-2.238 1.106c-.79.78-1.552 1.957-2.216 3.488-1.326 3.059-2.182 7.353-2.182 12.145v1H12v-2h17.15c.11-4.612.976-8.805 2.335-11.941.728-1.679 1.617-3.1 2.647-4.116C35.165 32.663 36.398 32 37.774 32c1.379 0 2.606.666 3.627 1.688.621.62 1.186 1.393 1.695 2.282.51-.889 1.078-1.661 1.7-2.282C45.824 32.664 47.055 32 48.437 32s2.614.664 3.64 1.688c.627.624 1.197 1.401 1.71 2.295.511-.894 1.082-1.671 1.708-2.295C56.52 32.664 57.752 32 59.134 32s2.613.664 3.64 1.688c.626.624 1.196 1.4 1.708 2.295.513-.894 1.084-1.671 1.71-2.295C67.22 32.664 68.45 32 69.832 32s2.613.664 3.64 1.688c.626.624 1.196 1.401 1.709 2.295.512-.894 1.082-1.671 1.709-2.295C77.916 32.664 79.147 32 80.53 32c1.382 0 2.612.664 3.639 1.688.685.683 1.302 1.55 1.85 2.552 1.472-2.494 3.46-4.24 5.862-4.24 2.894 0 5.188 2.534 6.701 5.858 1.451 3.19 2.363 7.454 2.477 12.142h14.631v2H99.071v-1c0-4.861-.899-9.214-2.31-12.313-1.45-3.19-3.251-4.687-4.88-4.687-1.603 0-3.371 1.451-4.81 4.538 1.251 3.284 1.995 7.57 1.995 12.224z"/><path stroke="#fff" stroke-width="2" d="M101 51h37M156 51h42M139 30v44M157 30v44"/><path fill="#f8ff2b" d="m129.151 169.545 2.906 15.384h.162l7.994-15.384h1.671L132.636 187h-1.704l-3.452-17.455zM140.418 190l1.466-8.727h1.329l-.239 1.44h.069a2.73 2.73 0 0 1 1.116-1.151 3 3 0 0 1 1.466-.392q.34 0 .614.069.272.059.468.17l-.63 1.159a1.6 1.6 0 0 0-.35-.111 2 2 0 0 0-.468-.051q-.93 0-1.654.614a2.52 2.52 0 0 0-.886 1.568l-.921 5.412zm6.304 0 1.466-8.727h1.33l-.256 1.423h.085q.375-.69 1.066-1.108.69-.417 1.559-.418.93 0 1.466.461.537.46.631 1.235h.085a2.9 2.9 0 0 1 1.134-1.235 3.23 3.23 0 0 1 1.713-.461q1.261 0 1.832.802.58.8.35 2.164l-.989 5.864h-1.389l.946-5.659q.144-.895-.205-1.432-.34-.546-1.244-.545-.921 0-1.5.579-.58.58-.733 1.458l-.946 5.599h-1.33l.929-5.685q.145-.877-.213-1.414-.35-.537-1.201-.537-.82 0-1.466.562-.64.563-.802 1.526l-.937 5.548zm21.316-6.58-1.287.128q-.094-.64-.503-.98-.4-.35-1.125-.349-.852 0-1.44.409-.58.4-.691 1.057-.076.52.23.818.317.298.963.443l1.407.315q1.107.257 1.559.87.46.605.316 1.517a2.5 2.5 0 0 1-.665 1.338 3.5 3.5 0 0 1-1.347.869q-.81.315-1.772.315-1.432 0-2.225-.639-.785-.64-.801-1.781l1.355-.111q.034.699.477 1.083.444.383 1.262.383.895 0 1.542-.409.657-.409.767-1.082.094-.537-.221-.844-.308-.315-.921-.452l-1.372-.315q-1.116-.256-1.611-.878-.485-.63-.332-1.474.196-1.168 1.151-1.824.963-.665 2.386-.665 1.329 0 2.079.597.75.588.819 1.661"/><path fill="#2bffff" d="m52.929 168 2.182-13.091h1.525L54.455 168zm3.494-15.366q-.477 0-.81-.324a1.04 1.04 0 0 1-.315-.784q.017-.435.35-.75.34-.324.8-.324.478 0 .81.332a1 1 0 0 1 .316.784q-.009.435-.35.75-.34.316-.8.316m.8 18.366 1.465-8.727h1.33l-.239 1.44h.068q.401-.758 1.117-1.151a3 3 0 0 1 1.466-.392q.34 0 .613.069.273.059.47.17l-.632 1.159a1.6 1.6 0 0 0-.349-.111 2 2 0 0 0-.469-.051q-.93 0-1.653.614a2.52 2.52 0 0 0-.887 1.568l-.92 5.412zm6.304 0 1.466-8.727h1.33l-.256 1.423h.085q.375-.69 1.065-1.108.69-.417 1.56-.418.93 0 1.466.461.537.46.63 1.235h.086q.375-.776 1.133-1.235a3.24 3.24 0 0 1 1.713-.461q1.261 0 1.833.802.58.8.35 2.164l-.99 5.864H73.61l.946-5.659q.145-.895-.204-1.432-.34-.546-1.245-.545-.92 0-1.5.579-.579.58-.732 1.458L69.928 171h-1.33l.929-5.685q.145-.877-.213-1.414-.35-.537-1.202-.537-.818 0-1.466.562-.64.563-.8 1.526L64.907 171zm21.315-6.58-1.287.128q-.094-.64-.502-.98-.4-.35-1.125-.349-.854 0-1.44.409-.58.4-.691 1.057-.077.52.23.818.315.298.963.443l1.406.315q1.108.257 1.56.87.46.605.315 1.517a2.48 2.48 0 0 1-.665 1.338 3.5 3.5 0 0 1-1.346.869q-.81.315-1.773.315-1.431 0-2.224-.639-.785-.64-.801-1.781l1.355-.111q.034.699.477 1.083.444.383 1.261.383.895 0 1.543-.409.656-.409.767-1.082.094-.537-.221-.844-.307-.315-.921-.452l-1.372-.315q-1.117-.256-1.61-.878-.488-.63-.333-1.474.195-1.168 1.15-1.824.963-.665 2.387-.665 1.33 0 2.08.597.75.588.817 1.661M58 138l10 5.774v-11.548zm27 0v-1H67v2h18z"/></svg>