<svg xmlns="http://www.w3.org/2000/svg" width="300" height="200" fill="none" viewBox="0 0 300 200"><g clip-path="url(#a)"><path fill="#000" d="M0 0h300v200H0z"/><path fill="#fff" d="m294 97-5-2.887v5.774zM9 97v.5h280.5v-1H9z"/><path fill="#fff" d="m150 23-2.887 5h5.774zm0 149h.5V27.5h-1V172zM287.008 115.584V116h-2.976v-.416l.816-.096a1 1 0 0 0 .24-.048q.096-.032.192-.176.112-.144.304-.464l2.544-4.128-2.464-4.352a4 4 0 0 0-.272-.448q-.08-.144-.176-.176a.6.6 0 0 0-.24-.064l-.816-.08v-.432h3.888v.432l-.832.08q-.24.032-.256.128 0 .096.256.56l1.872 3.312 2.048-3.312q.288-.464.288-.56t-.256-.128l-.816-.08v-.432h2.976v.432l-.816.08a.8.8 0 0 0-.256.064q-.08.032-.176.176a10 10 0 0 0-.304.448l-2.384 3.856 2.624 4.624.256.464a.7.7 0 0 0 .176.176q.096.032.256.048l.832.096V116h-3.888v-.416l.832-.096q.256-.032.256-.112.016-.096-.256-.576l-2.048-3.6-2.208 3.6q-.288.464-.288.56t.256.128zM136.472 105.952v1.2q0 2.336-1.072 3.68-1.073 1.328-3.072 1.328-2.016 0-3.088-1.328-1.056-1.344-1.056-3.68v-1.2q0-2.32 1.056-3.648 1.072-1.344 3.088-1.344 2 0 3.072 1.344 1.072 1.328 1.072 3.648m-1.52-.8q0-2-.672-2.832-.656-.848-1.952-.848t-1.968.848q-.656.833-.656 2.832v2.8q0 2 .656 2.848.672.848 1.968.848t1.952-.848q.672-.848.672-2.848zM166.64 28.584V29h-3.856v-.416l.88-.096q.256-.032.304-.128t.048-.656V24.36l-2.576-5.04a3 3 0 0 0-.256-.448q-.08-.144-.176-.176a.6.6 0 0 0-.256-.064l-.816-.08v-.432h3.872v.432l-.816.08q-.24.032-.256.128 0 .095.224.56l2.176 4.368 2.224-4.368q.24-.465.224-.56t-.256-.128l-.816-.08v-.432h2.96v.432l-.832.08a.7.7 0 0 0-.256.064q-.08.032-.176.176a6 6 0 0 0-.24.448l-2.56 5.008v3.376q0 .56.048.656t.304.128z"/><path stroke="#f8ff32" stroke-width="2" d="M10 235c47.497 0 86-59.098 86-132S57.497-29 10-29M286 232c-47.496 0-86-59.098-86-132s38.504-132 86-132"/><path stroke="#ff6d6d" stroke-opacity=".6" stroke-width="2" d="m224.802-2.403-151 203M74.198-2.403l151 203"/></g><defs><clipPath id="a"><path fill="#fff" d="M0 0h300v200H0z"/></clipPath></defs></svg>