<svg xmlns="http://www.w3.org/2000/svg" width="300" height="200" fill="none" viewBox="0 0 300 200"><path fill="#000" d="M0 0h300v200H0z"/><path stroke="#fff" stroke-dasharray="2 2" d="m236.127 49.484-179 47M236.488 48.891l11 49"/><path fill="#fff" d="m294 97-5-2.887v5.774zM9 97v.5h280.5v-1H9z"/><path fill="#fff" d="m150 23-2.887 5h5.774zm0 149h.5V27.5h-1V172zM287.008 115.584V116h-2.976v-.416l.816-.096a1 1 0 0 0 .24-.048q.096-.032.192-.176.112-.144.304-.464l2.544-4.128-2.464-4.352a4 4 0 0 0-.272-.448q-.08-.144-.176-.176a.6.6 0 0 0-.24-.064l-.816-.08v-.432h3.888v.432l-.832.08q-.24.032-.256.128 0 .096.256.56l1.872 3.312 2.048-3.312q.288-.464.288-.56t-.256-.128l-.816-.08v-.432h2.976v.432l-.816.08a.8.8 0 0 0-.256.064q-.08.032-.176.176a10 10 0 0 0-.304.448l-2.384 3.856 2.624 4.624.256.464a.7.7 0 0 0 .176.176q.096.032.256.048l.832.096V116h-3.888v-.416l.832-.096q.256-.032.256-.112.016-.096-.256-.576l-2.048-3.6-2.208 3.6q-.288.464-.288.56t.256.128zM141.472 109.952v1.2q0 2.336-1.072 3.68-1.073 1.328-3.072 1.328-2.016 0-3.088-1.328-1.056-1.344-1.056-3.68v-1.2q0-2.32 1.056-3.648 1.072-1.344 3.088-1.344 2 0 3.072 1.344 1.072 1.328 1.072 3.648m-1.52-.8q0-2-.672-2.832-.656-.848-1.952-.848t-1.968.848q-.656.833-.656 2.832v2.8q0 2 .656 2.848.672.848 1.968.848t1.952-.848q.672-.848.672-2.848z"/><path fill="#ff6d6d" d="M14.32 117.648q1.072 0 1.728-.528.672-.528.672-1.552 0-.816-.496-1.36-.496-.56-1.728-.896l-1.104-.32q-1.216-.336-1.856-1.136t-.64-1.952q0-.768.352-1.44.368-.672 1.104-1.088.752-.416 1.904-.416 1.28 0 2.064.48.784.464 1.088 1.216t.144 1.616l-1.344.288q.208-1.488-.304-2.288-.496-.8-1.728-.8-.976 0-1.536.528-.56.512-.56 1.504 0 .784.448 1.344.448.544 1.584.864l1.104.32q2.672.737 2.672 3.12 0 .848-.4 1.536-.383.672-1.184 1.072-.784.4-1.984.4a5 5 0 0 1-1.6-.256 2.97 2.97 0 0 1-1.296-.88q-.528-.624-.704-1.728l.96-.32q.08 1.056.464 1.632t.96.816q.576.224 1.216.224m4.91-2.752 1.056-.656h.8v4.688q0 .272.032.32t.144.064l.448.048v.32h-2.336v-.32l.608-.048q.128-.016.144-.064.032-.048.032-.32v-4.176l-.736.464zM217.32 117.648q1.072 0 1.728-.528.672-.528.672-1.552 0-.816-.496-1.36-.497-.56-1.728-.896l-1.104-.32q-1.216-.336-1.856-1.136t-.64-1.952q0-.768.352-1.44.368-.672 1.104-1.088.752-.416 1.904-.416 1.28 0 2.064.48.784.464 1.088 1.216a2.84 2.84 0 0 1 .144 1.616l-1.344.288q.208-1.488-.304-2.288-.496-.8-1.728-.8-.976 0-1.536.528-.56.512-.56 1.504 0 .784.448 1.344.448.544 1.584.864l1.104.32q2.672.737 2.672 3.12 0 .848-.4 1.536-.384.672-1.184 1.072-.784.4-1.984.4a5 5 0 0 1-1.6-.256 2.97 2.97 0 0 1-1.296-.88q-.528-.624-.704-1.728l.96-.32q.08 1.056.464 1.632t.96.816a3.3 3.3 0 0 0 1.216.224"/><path fill="#68f5ff" d="M229.768 25.552v-.432h4.544q1.584 0 2.416.8.832.784.832 2.096v.464q0 1.313-.832 2.112t-2.416.8h-1.92v3.312q0 .56.048.672.048.096.304.112l1.2.096V36h-4.176v-.416l.88-.096q.256-.032.304-.128t.048-.656v-8.288q0-.56-.048-.656t-.304-.128zm4.544.08h-1.92v5.248h1.92q1.776 0 1.776-2.176v-.912q0-2.16-1.776-2.16"/><path fill="#ff6d6d" d="M29.136 113.52v-.592a8 8 0 0 1 .88-3.712q.896-1.712 2.672-3.216l.368.384q-1.376 1.296-1.952 2.992a11.3 11.3 0 0 0-.56 3.552v.592q0 1.84.56 3.552.576 1.696 1.952 2.992l-.368.384q-1.776-1.504-2.672-3.216a8.06 8.06 0 0 1-.88-3.712m5.359-.592v-.56h4.224v.56zm12.376 5.184q-1.248 0-1.472-1.152-.56.64-1.232.928-.671.272-1.328.272-1.12 0-1.648-.624t-.528-1.504q0-.944.64-1.488.656-.56 2.256-.56h1.808v-1.296q0-1.28-.448-1.76-.432-.496-1.184-.496-.48 0-.864.192t-.56.704q-.16.496-.032 1.456l-1.264-.192q-.081-.752.192-1.344.288-.608.928-.96.656-.368 1.632-.368 1.167 0 1.792.4.624.384.864 1.008.256.624.256 1.36v3.6q0 .816.176 1.024.191.208.416.208a.8.8 0 0 0 .304-.064q.16-.08.352-.24l.288.4q-.24.208-.576.352-.321.144-.768.144m-3.584-.624q.447 0 .96-.24.528-.257 1.12-1.008v-1.744h-1.632q-.897 0-1.312.368-.4.352-.4 1.104 0 .72.304 1.12.32.4.96.4m12.448-1.312q-.288 1.087-1.088 1.536a3.45 3.45 0 0 1-1.744.448q-1.776 0-2.656-1.072-.88-1.088-.88-2.896v-.32q0-1.792.848-2.864.849-1.088 2.464-1.088.864 0 1.568.352.72.352 1.136 1.04.432.688.432 1.712 0 .48-.096 1.008h-4.912v.48q0 1.68.512 2.416.528.72 1.696.72.736 0 1.216-.384.497-.384.656-1.328zm-3.056-5.744q-.943 0-1.408.72t-.464 2.368h3.6v-.048a4.896 4.896 0 0 0 .064-.768q0-1.2-.496-1.728-.495-.544-1.296-.544m6.906 7.04q0 .72-.48 1.68-.465.96-1.296 1.936l-.352-.288q.656-.8.944-1.472.288-.656.32-1.168h-.016a.84.84 0 0 1-.624-.24.84.84 0 0 1-.24-.624q0-.384.24-.624t.624-.24.624.272q.256.257.256.768m9.07-5.424v1.008q0 1.536-.432 2.688t-1.264 1.792q-.831.624-2.016.624-1.2 0-2.032-.624-.816-.64-1.248-1.792t-.432-2.688v-1.008q0-1.536.432-2.672.432-1.152 1.248-1.776.832-.64 2.032-.64 1.185 0 2.016.64.832.624 1.264 1.776.432 1.136.432 2.672m-1.552-1.12q0-1.856-.56-2.656t-1.6-.8-1.6.8-.56 2.656v3.248q0 1.872.56 2.672t1.6.8 1.6-.8.56-2.672zm6.45 2v.592q0 1.984-.897 3.712-.88 1.712-2.656 3.216l-.368-.384q1.377-1.296 1.936-2.992a11.4 11.4 0 0 0 .56-3.552v-.592q0-1.856-.56-3.552t-1.936-2.992L70 106q1.777 1.505 2.656 3.216a7.9 7.9 0 0 1 .896 3.712M227.136 113.52v-.592q0-2 .88-3.712.896-1.712 2.672-3.216l.368.384q-1.376 1.296-1.952 2.992a11.3 11.3 0 0 0-.56 3.552v.592q0 1.84.56 3.552.576 1.696 1.952 2.992l-.368.384q-1.776-1.504-2.672-3.216a8.06 8.06 0 0 1-.88-3.712m10.719 4.592q-1.248 0-1.472-1.152-.56.64-1.232.928a3.5 3.5 0 0 1-1.328.272q-1.12 0-1.648-.624t-.528-1.504q0-.944.64-1.488.655-.56 2.256-.56h1.808v-1.296q0-1.28-.448-1.76-.432-.496-1.184-.496-.48 0-.864.192t-.56.704q-.16.496-.032 1.456l-1.264-.192q-.08-.752.192-1.344.288-.608.928-.96.655-.368 1.632-.368 1.168 0 1.792.4.624.384.864 1.008.256.624.256 1.36v3.6q0 .816.176 1.024.192.208.416.208a.8.8 0 0 0 .304-.064q.16-.08.352-.24l.288.4q-.24.208-.576.352a1.9 1.9 0 0 1-.768.144m-3.584-.624q.449 0 .96-.24.528-.257 1.12-1.008v-1.744h-1.632q-.896 0-1.312.368-.4.352-.4 1.104 0 .72.304 1.12.32.4.96.4m12.449-1.312q-.288 1.087-1.088 1.536a3.45 3.45 0 0 1-1.744.448q-1.776 0-2.656-1.072-.88-1.088-.88-2.896v-.32q0-1.792.848-2.864.847-1.088 2.464-1.088.864 0 1.568.352.72.352 1.136 1.04.432.688.432 1.712 0 .48-.096 1.008h-4.912v.48q0 1.68.512 2.416.528.72 1.696.72.736 0 1.216-.384.495-.384.656-1.328zm-3.056-5.744q-.945 0-1.408.72-.465.72-.464 2.368h3.6v-.048q.031-.208.048-.4.015-.208.016-.368 0-1.2-.496-1.728-.496-.544-1.296-.544m6.905 7.04q0 .72-.48 1.68-.464.96-1.296 1.936l-.352-.288q.656-.8.944-1.472.288-.656.32-1.168h-.016a.84.84 0 0 1-.624-.24.84.84 0 0 1-.24-.624q0-.384.24-.624t.624-.24.624.272q.256.257.256.768m9.071-5.424v1.008q0 1.536-.432 2.688-.433 1.152-1.264 1.792-.833.624-2.016.624-1.2 0-2.032-.624-.816-.64-1.248-1.792t-.432-2.688v-1.008q0-1.536.432-2.672.432-1.152 1.248-1.776.832-.64 2.032-.64 1.183 0 2.016.64.831.624 1.264 1.776.432 1.136.432 2.672m-1.552-1.12q0-1.856-.56-2.656t-1.6-.8-1.6.8-.56 2.656v3.248q0 1.872.56 2.672t1.6.8 1.6-.8.56-2.672zm6.449 2v.592a7.95 7.95 0 0 1-.896 3.712q-.88 1.712-2.656 3.216l-.368-.384q1.376-1.296 1.936-2.992.56-1.712.56-3.552v-.592q0-1.856-.56-3.552t-1.936-2.992l.368-.384q1.776 1.505 2.656 3.216a7.9 7.9 0 0 1 .896 3.712"/><path fill="#fff" d="M166.64 28.584V29h-3.856v-.416l.88-.096q.256-.032.304-.128t.048-.656V24.36l-2.576-5.04a3 3 0 0 0-.256-.448q-.08-.144-.176-.176a.6.6 0 0 0-.256-.064l-.816-.08v-.432h3.872v.432l-.816.08q-.24.032-.256.128 0 .095.224.56l2.176 4.368 2.224-4.368q.24-.465.224-.56t-.256-.128l-.816-.08v-.432h2.96v.432l-.832.08a.7.7 0 0 0-.256.064q-.08.032-.176.176a6 6 0 0 0-.24.448l-2.56 5.008v3.376q0 .56.048.656t.304.128z"/><path stroke="#f8ff32" stroke-width="2" d="M290 166c-47.496 0-86-29.773-86-66.5S242.504 33 290 33M10 166c47.497 0 86-29.773 86-66.5S57.497 33 10 33"/><circle cx="56.5" cy="96.5" r="3.5" fill="#fff"/><circle cx="246.5" cy="97.5" r="3.5" fill="#fff"/><circle cx="235.5" cy="48.5" r="3.5" fill="#68f5ff"/></svg>