<svg xmlns="http://www.w3.org/2000/svg" width="300" height="200" fill="none" viewBox="0 0 300 200"><g clip-path="url(#a)"><path fill="#000" d="M0 0h300v200H0z"/><path fill="#fff" d="m294 97-5-2.887v5.774zM9 97v.5h280.5v-1H9z"/><path fill="#fff" d="m150 23-2.887 5h5.774zm0 149h.5V27.5h-1V172zM287.008 115.584V116h-2.976v-.416l.816-.096a1 1 0 0 0 .24-.048q.096-.032.192-.176.112-.144.304-.464l2.544-4.128-2.464-4.352a4 4 0 0 0-.272-.448q-.08-.144-.176-.176a.6.6 0 0 0-.24-.064l-.816-.08v-.432h3.888v.432l-.832.08q-.24.032-.256.128 0 .096.256.56l1.872 3.312 2.048-3.312q.288-.464.288-.56t-.256-.128l-.816-.08v-.432h2.976v.432l-.816.08a.8.8 0 0 0-.256.064q-.08.032-.176.176a10 10 0 0 0-.304.448l-2.384 3.856 2.624 4.624.256.464a.7.7 0 0 0 .176.176q.096.032.256.048l.832.096V116h-3.888v-.416l.832-.096q.256-.032.256-.112.016-.096-.256-.576l-2.048-3.6-2.208 3.6q-.288.464-.288.56t.256.128zM142.472 105.952v1.2q0 2.336-1.072 3.68-1.073 1.328-3.072 1.328-2.016 0-3.088-1.328-1.056-1.344-1.056-3.68v-1.2q0-2.32 1.056-3.648 1.072-1.344 3.088-1.344 2 0 3.072 1.344 1.072 1.328 1.072 3.648m-1.52-.8q0-2-.672-2.832-.656-.848-1.952-.848t-1.968.848q-.656.833-.656 2.832v2.8q0 2 .656 2.848.672.848 1.968.848t1.952-.848q.672-.848.672-2.848zM166.64 28.584V29h-3.856v-.416l.88-.096q.256-.032.304-.128t.048-.656V24.36l-2.576-5.04a3 3 0 0 0-.256-.448q-.08-.144-.176-.176a.6.6 0 0 0-.256-.064l-.816-.08v-.432h3.872v.432l-.816.08q-.24.032-.256.128 0 .095.224.56l2.176 4.368 2.224-4.368q.24-.465.224-.56t-.256-.128l-.816-.08v-.432h2.96v.432l-.832.08a.7.7 0 0 0-.256.064q-.08.032-.176.176a6 6 0 0 0-.24.448l-2.56 5.008v3.376q0 .56.048.656t.304.128z"/><path stroke="#f8ff32" stroke-width="2" d="M290 166c-47.496 0-86-29.773-86-66.5S242.504 33 290 33M10 166c47.497 0 86-29.773 86-66.5S57.497 33 10 33"/><path stroke="#ff6d6d" stroke-opacity=".6" stroke-width="2" d="m237.561 22.741-92.376 165.492"/><circle cx="211" cy="71" r="3" fill="#fff"/><path fill="#ff6d6d" d="M211.994 78.08v-.518q0-1.75.77-3.248.784-1.499 2.338-2.814l.322.336q-1.204 1.134-1.708 2.618a9.8 9.8 0 0 0-.49 3.108v.518q0 1.61.49 3.108.504 1.484 1.708 2.618l-.322.336q-1.554-1.315-2.338-2.814a7.06 7.06 0 0 1-.77-3.248m9.379 4.018q-1.092 0-1.288-1.008a3 3 0 0 1-1.078.812 3.1 3.1 0 0 1-1.162.238q-.98 0-1.442-.546t-.462-1.316q0-.826.56-1.302.575-.49 1.974-.49h1.582v-1.134q0-1.12-.392-1.54-.378-.434-1.036-.434-.42 0-.756.168t-.49.616q-.14.435-.028 1.274l-1.106-.168q-.069-.658.168-1.176.252-.533.812-.84.575-.322 1.428-.322 1.023 0 1.568.35.546.336.756.882.225.546.224 1.19v3.15q0 .714.154.896.168.182.364.182a.7.7 0 0 0 .266-.056q.14-.07.308-.21l.252.35q-.21.182-.504.308-.279.126-.672.126m-3.136-.546q.393 0 .84-.21.462-.224.98-.882v-1.526h-1.428q-.783 0-1.148.322-.35.308-.35.966 0 .63.266.98.28.35.84.35m7.883-2.38-.854-.21q-1.75-.448-1.75-2.016 0-.518.238-.98.237-.462.756-.742.531-.294 1.358-.294.923 0 1.484.308t.784.798q.224.49.14 1.064l-1.092.196q.167-.91-.196-1.414-.35-.504-1.162-.504-.63 0-1.008.322-.378.308-.378.91 0 .448.28.798.28.336.938.504l.882.21q.924.224 1.428.714.518.49.518 1.288 0 .896-.658 1.456-.645.56-1.848.56-.574 0-1.12-.168a2.6 2.6 0 0 1-.938-.56 2.3 2.3 0 0 1-.574-1.008l.784-.28q.153.882.672 1.232.518.35 1.19.35.391 0 .742-.126.363-.126.588-.392.224-.28.224-.714 0-.448-.308-.77-.309-.322-1.12-.532m9.641 1.232q-.252.953-.952 1.344a3 3 0 0 1-1.526.392q-1.554 0-2.324-.938-.77-.953-.77-2.534v-.28q0-1.567.742-2.506.741-.952 2.156-.952.756 0 1.372.308.63.308.994.91.378.601.378 1.498 0 .42-.084.882h-4.298v.42q0 1.47.448 2.114.462.63 1.484.63.644 0 1.064-.336.433-.336.574-1.162zm-2.674-5.026q-.827 0-1.232.63-.406.63-.406 2.072h3.15v-.042q.027-.182.042-.35.014-.182.014-.322 0-1.05-.434-1.512-.435-.476-1.134-.476m7.341 0q-.77 0-1.204.644-.42.63-.42 2.086v.84q0 1.47.42 2.114.434.63 1.4.63.658 0 1.064-.336t.546-1.162l.742.21q-.252.953-.924 1.344a2.9 2.9 0 0 1-1.498.392q-1.512 0-2.268-.938-.742-.953-.742-2.534v-.28q0-1.567.742-2.506.743-.952 2.142-.952.896 0 1.484.35.602.35.854.952.252.588.14 1.302l-1.106.168q.154-1.12-.21-1.722-.35-.602-1.162-.602m7.405 6.762q-1.148 0-1.904-.644-.741-.659-1.106-1.862-.364-1.218-.364-2.912 0-1.708.336-2.926t1.078-1.862q.757-.645 1.96-.644 1.162 0 1.918.644.756.63 1.12 1.848.378 1.218.378 2.94 0 1.694-.35 2.912-.336 1.204-1.092 1.862-.741.645-1.974.644m0-1.022q.728 0 1.19-.42.477-.42.714-1.316.239-.896.266-2.338h-4.298q.028 1.428.238 2.324.224.895.686 1.33.463.42 1.204.42m-2.128-5.026h4.284q-.042-1.275-.28-2.1-.238-.84-.7-1.246-.462-.42-1.176-.42t-1.176.42q-.447.406-.672 1.246-.223.825-.28 2.1m8.873 5.446q0 .63-.42 1.47a8 8 0 0 1-1.134 1.694l-.308-.252q.574-.7.826-1.288.252-.574.28-1.022h-.014a.74.74 0 0 1-.546-.21.74.74 0 0 1-.21-.546q0-.336.21-.546t.546-.21.546.238q.224.224.224.672m1.081-9.52v-.378h2.226v4.438q.407-.601.924-.868.519-.28 1.12-.28 1.205 0 1.862.91.672.91.672 2.548v.28q0 1.596-.77 2.534-.756.938-2.128.938-1.092 0-1.792-.714-.196.112-.364.28a7 7 0 0 0-.336.364h-.336v-9.296q0-.49-.042-.574-.041-.084-.266-.112zm4.088 3.416q-.433 0-.91.28-.462.28-.952 1.134v4.004q.603.826 1.596.826.91 0 1.316-.686.406-.7.406-1.904v-1.12q0-1.316-.378-1.918-.378-.615-1.078-.616m8.754 5.138q-.21.812-.658 1.19t-1.148.378q-.672 0-1.092-.294a1.8 1.8 0 0 1-.616-.798 2.7 2.7 0 0 1-.196-1.022v-3.822q0-.49-.042-.574-.029-.084-.266-.112l-.77-.07v-.378h1.078v-1.834l1.148-.238v2.072h2.282v.448h-2.282v4.62q0 .882.238 1.218a.79.79 0 0 0 .658.336q.405 0 .616-.308.223-.307.322-1.008zm6.562 1.526q-1.093 0-1.288-1.008a3 3 0 0 1-1.078.812q-.588.238-1.162.238-.98 0-1.442-.546t-.462-1.316q0-.826.56-1.302.573-.49 1.974-.49h1.582v-1.134q0-1.12-.392-1.54-.379-.434-1.036-.434-.42 0-.756.168t-.49.616q-.14.435-.028 1.274l-1.106-.168q-.07-.658.168-1.176.251-.533.812-.84.573-.322 1.428-.322 1.022 0 1.568.35.546.336.756.882.224.546.224 1.19v3.15q0 .714.154.896.168.182.364.182a.7.7 0 0 0 .266-.056 1.7 1.7 0 0 0 .308-.21l.252.35q-.21.182-.504.308a1.6 1.6 0 0 1-.672.126m-3.136-.546q.391 0 .84-.21.461-.224.98-.882v-1.526h-1.428q-.785 0-1.148.322-.35.308-.35.966 0 .63.266.98.279.35.84.35m12.754.084V82h-3.304v-.364l.77-.084q.224-.028.266-.112t.042-.574V77.38q0-1.035-.336-1.456-.336-.435-.966-.434-.462 0-1.022.28t-1.05 1.092v4.004q0 .49.042.574t.266.112l.77.084V82h-3.304v-.364l.77-.084q.224-.028.266-.112t.042-.574v-4.662q0-.49-.042-.574t-.266-.112l-.77-.07v-.378h2.156v1.134q.504-.672 1.134-.966.645-.308 1.288-.308 1.036 0 1.596.644.574.63.574 1.792v3.5q0 .49.042.574t.266.112zm4.469.504q-1.148 0-1.904-.644-.742-.659-1.106-1.862-.364-1.218-.364-2.912 0-1.708.336-2.926t1.078-1.862q.756-.645 1.96-.644 1.162 0 1.918.644.756.63 1.12 1.848.378 1.218.378 2.94 0 1.694-.35 2.912-.336 1.204-1.092 1.862-.743.645-1.974.644m0-1.022q.728 0 1.19-.42.476-.42.714-1.316t.266-2.338h-4.298q.028 1.428.238 2.324.224.895.686 1.33.462.42 1.204.42m-2.128-5.026h4.284q-.042-1.275-.28-2.1-.238-.84-.7-1.246-.462-.42-1.176-.42t-1.176.42q-.448.406-.672 1.246-.224.825-.28 2.1m10.006 1.47v.518a6.95 6.95 0 0 1-.784 3.248q-.77 1.499-2.324 2.814l-.322-.336q1.205-1.134 1.694-2.618.49-1.498.49-3.108v-.518a9.8 9.8 0 0 0-.49-3.108q-.49-1.484-1.694-2.618l.322-.336q1.554 1.315 2.324 2.814.784 1.498.784 3.248"/></g><defs><clipPath id="a"><path fill="#fff" d="M0 0h300v200H0z"/></clipPath></defs></svg>