<svg xmlns="http://www.w3.org/2000/svg" width="300" height="200" fill="none" viewBox="0 0 300 200"><path fill="#000" d="M0 0h300v200H0z"/><path fill="#fff" d="m294 97-5-2.887v5.774zM9 97v.5h280.5v-1H9z"/><path fill="#fff" d="m150 23-2.887 5h5.774zm0 149h.5V27.5h-1V172zM287.008 115.584V116h-2.976v-.416l.816-.096a1 1 0 0 0 .24-.048q.096-.032.192-.176.112-.144.304-.464l2.544-4.128-2.464-4.352a4 4 0 0 0-.272-.448q-.08-.144-.176-.176a.6.6 0 0 0-.24-.064l-.816-.08v-.432h3.888v.432l-.832.08q-.24.032-.256.128 0 .096.256.56l1.872 3.312 2.048-3.312q.288-.464.288-.56t-.256-.128l-.816-.08v-.432h2.976v.432l-.816.08a.8.8 0 0 0-.256.064q-.08.032-.176.176a10 10 0 0 0-.304.448l-2.384 3.856 2.624 4.624.256.464a.7.7 0 0 0 .176.176q.096.032.256.048l.832.096V116h-3.888v-.416l.832-.096q.256-.032.256-.112.016-.096-.256-.576l-2.048-3.6-2.208 3.6q-.288.464-.288.56t.256.128zM130.472 103.952v1.2q0 2.336-1.072 3.68-1.073 1.328-3.072 1.328-2.016 0-3.088-1.328-1.056-1.344-1.056-3.68v-1.2q0-2.32 1.056-3.648 1.072-1.344 3.088-1.344 2 0 3.072 1.344 1.072 1.328 1.072 3.648m-1.52-.8q0-2-.672-2.832-.656-.848-1.952-.848t-1.968.848q-.656.833-.656 2.832v2.8q0 2 .656 2.848.672.848 1.968.848t1.952-.848q.672-.848.672-2.848z"/><path fill="#ff6d6d" d="M102.136 147.52v-.592q0-2 .88-3.712.896-1.712 2.672-3.216l.368.384q-1.376 1.296-1.952 2.992a11.3 11.3 0 0 0-.56 3.552v.592q0 1.84.56 3.552.576 1.696 1.952 2.992l-.368.384q-1.776-1.504-2.672-3.216a8.06 8.06 0 0 1-.88-3.712m5.359-.592v-.56h4.224v.56zm5.435-6.336v-.432h2.544v5.072q.463-.688 1.056-.992a2.65 2.65 0 0 1 1.28-.32q1.375 0 2.128 1.04.768 1.04.768 2.912v.32q0 1.824-.88 2.896-.864 1.072-2.432 1.072-1.248 0-2.048-.816-.225.128-.416.32a8 8 0 0 0-.384.416h-.384v-10.624q0-.56-.048-.656t-.304-.128zm4.672 3.904q-.497 0-1.04.32-.528.32-1.088 1.296v4.576q.687.944 1.824.944 1.04 0 1.504-.784.464-.8.464-2.176v-1.28q0-1.504-.432-2.192-.432-.704-1.232-.704m11.54 5.68q-.288 1.087-1.088 1.536a3.45 3.45 0 0 1-1.744.448q-1.776 0-2.656-1.072-.88-1.088-.88-2.896v-.32q0-1.792.848-2.864.847-1.088 2.464-1.088.864 0 1.568.352.72.352 1.136 1.04.432.688.432 1.712 0 .48-.096 1.008h-4.912v.48q0 1.68.512 2.416.528.72 1.696.72.736 0 1.216-.384.495-.384.656-1.328zm-3.056-5.744q-.945 0-1.408.72-.465.72-.464 2.368h3.6v-.048q.032-.208.048-.4.016-.208.016-.368 0-1.2-.496-1.728-.497-.544-1.296-.544m6.905 7.04q0 .72-.48 1.68-.464.96-1.296 1.936l-.352-.288q.656-.8.944-1.472.288-.656.32-1.168h-.016a.84.84 0 0 1-.624-.24.84.84 0 0 1-.24-.624q0-.384.24-.624t.624-.24.624.272q.256.257.256.768m9.071-5.424v1.008q0 1.536-.432 2.688-.433 1.152-1.264 1.792-.833.624-2.016.624-1.2 0-2.032-.624-.816-.64-1.248-1.792t-.432-2.688v-1.008q0-1.536.432-2.672.432-1.152 1.248-1.776.831-.64 2.032-.64 1.183 0 2.016.64.832.624 1.264 1.776.432 1.136.432 2.672m-1.552-1.12q0-1.856-.56-2.656t-1.6-.8-1.6.8-.56 2.656v3.248q0 1.872.56 2.672t1.6.8 1.6-.8.56-2.672zm6.449 2v.592a7.95 7.95 0 0 1-.896 3.712q-.88 1.711-2.656 3.216l-.368-.384q1.375-1.296 1.936-2.992.56-1.712.56-3.552v-.592q0-1.856-.56-3.552t-1.936-2.992l.368-.384q1.776 1.504 2.656 3.216a7.9 7.9 0 0 1 .896 3.712M108.136 46.52v-.592q0-2 .88-3.712.896-1.711 2.672-3.216l.368.384q-1.376 1.296-1.952 2.992a11.3 11.3 0 0 0-.56 3.552v.592q0 1.84.56 3.552.576 1.696 1.952 2.992l-.368.384q-1.776-1.505-2.672-3.216a8.06 8.06 0 0 1-.88-3.712m12.316-1.472v1.008q0 1.536-.432 2.688t-1.264 1.792q-.833.624-2.016.624-1.2 0-2.032-.624-.816-.64-1.248-1.792t-.432-2.688v-1.008q0-1.536.432-2.672.432-1.152 1.248-1.776.832-.64 2.032-.64 1.183 0 2.016.64.832.624 1.264 1.776.432 1.136.432 2.672m-1.552-1.12q0-1.856-.56-2.656t-1.6-.8-1.6.8-.56 2.656v3.248q0 1.872.56 2.672t1.6.8 1.6-.8.56-2.672zm4.825 6.544q0 .72-.48 1.68-.464.96-1.296 1.936l-.352-.288q.657-.8.944-1.472.288-.656.32-1.168h-.016a.84.84 0 0 1-.624-.24.84.84 0 0 1-.24-.624q0-.384.24-.624t.624-.24.624.272q.256.256.256.768m1.236-10.88v-.432h2.544v5.072q.464-.689 1.056-.992a2.65 2.65 0 0 1 1.28-.32q1.376 0 2.128 1.04.768 1.04.768 2.912v.32q0 1.824-.88 2.896-.864 1.072-2.432 1.072-1.248 0-2.048-.816a2 2 0 0 0-.416.32 7 7 0 0 0-.384.416h-.384V40.456q0-.56-.048-.656t-.304-.128zm4.672 3.904q-.496 0-1.04.32-.528.32-1.088 1.296v4.576q.689.945 1.824.944 1.04 0 1.504-.784.464-.8.464-2.176v-1.28q0-1.504-.432-2.192-.432-.705-1.232-.704m11.54 5.68q-.288 1.087-1.088 1.536a3.45 3.45 0 0 1-1.744.448q-1.776 0-2.656-1.072-.88-1.087-.88-2.896v-.32q0-1.793.848-2.864.848-1.088 2.464-1.088.864 0 1.568.352.72.352 1.136 1.04.432.689.432 1.712 0 .48-.096 1.008h-4.912v.48q0 1.68.512 2.416.528.72 1.696.72.736 0 1.216-.384.496-.384.656-1.328zm-3.056-5.744q-.944 0-1.408.72t-.464 2.368h3.6v-.048a6 6 0 0 0 .048-.4q.016-.208.016-.368 0-1.2-.496-1.728-.496-.544-1.296-.544m7.498 2.496v.592a7.95 7.95 0 0 1-.896 3.712q-.88 1.712-2.656 3.216l-.368-.384q1.376-1.296 1.936-2.992.56-1.712.56-3.552v-.592q0-1.856-.56-3.552t-1.936-2.992l.368-.384q1.776 1.505 2.656 3.216a7.9 7.9 0 0 1 .896 3.712"/><path fill="#fff" d="M166.64 28.584V29h-3.856v-.416l.88-.096q.256-.032.304-.128t.048-.656V24.36l-2.576-5.04a3 3 0 0 0-.256-.448q-.08-.144-.176-.176a.6.6 0 0 0-.256-.064l-.816-.08v-.432h3.872v.432l-.816.08q-.24.032-.256.128 0 .095.224.56l2.176 4.368 2.224-4.368q.24-.465.224-.56t-.256-.128l-.816-.08v-.432h2.96v.432l-.832.08a.7.7 0 0 0-.256.064q-.08.032-.176.176a6 6 0 0 0-.24.448l-2.56 5.008v3.376q0 .56.048.656t.304.128z"/><path stroke="#f8ff32" stroke-width="2" d="M84 195c0-47.496 29.773-86 66.5-86s66.5 38.504 66.5 86M84 0c0 47.497 29.773 86 66.5 86S217 47.497 217 0"/><circle cx="95.5" cy="97.5" r="3.5" fill="#fff"/><circle cx="149.5" cy="58.5" r="3.5" fill="#fff"/><circle cx="150.5" cy="134.5" r="3.5" fill="#fff"/></svg>