<svg xmlns="http://www.w3.org/2000/svg" width="300" height="200" fill="none" viewBox="0 0 300 200"><path fill="#000" d="M0 0h300v200H0z"/><path fill="url(#a)" d="M62 0h176v29H62z"/><path stroke="#fff" d="M144.784 140v-28.86M144.784 48.98V29"/><path fill="#000" stroke="#fff" d="M126.5 101.15c0-3.144 1.984-6.059 5.335-8.213 3.346-2.15 8-3.497 13.165-3.497s9.819 1.347 13.165 3.497c3.351 2.154 5.335 5.07 5.335 8.213 0 3.144-1.984 6.059-5.335 8.213-3.346 2.15-8 3.497-13.165 3.497s-9.819-1.347-13.165-3.497c-3.351-2.154-5.335-5.069-5.335-8.213Z"/><path fill="#000" fill-opacity=".62" stroke="#fff" d="M126.5 87.09c0-3.144 1.984-6.059 5.335-8.213 3.346-2.15 8-3.497 13.165-3.497s9.819 1.347 13.165 3.497c3.351 2.154 5.335 5.07 5.335 8.213 0 3.144-1.984 6.06-5.335 8.213-3.346 2.15-8 3.497-13.165 3.497s-9.819-1.347-13.165-3.497c-3.351-2.154-5.335-5.07-5.335-8.213Z"/><path fill="#000" fill-opacity=".7" stroke="#fff" d="M126.5 74.51c0-3.144 1.984-6.059 5.335-8.213 3.346-2.15 8-3.497 13.165-3.497s9.819 1.347 13.165 3.497c3.351 2.154 5.335 5.07 5.335 8.213 0 3.144-1.984 6.06-5.335 8.213-3.346 2.15-8 3.497-13.165 3.497s-9.819-1.347-13.165-3.497c-3.351-2.154-5.335-5.07-5.335-8.213Z"/><path fill="#000" fill-opacity=".7" stroke="#fff" d="M126.5 61.19c0-3.144 1.984-6.059 5.335-8.213 3.346-2.15 8-3.497 13.165-3.497s9.819 1.347 13.165 3.497c3.351 2.154 5.335 5.07 5.335 8.213 0 3.144-1.984 6.059-5.335 8.213-3.346 2.15-8 3.497-13.165 3.497s-9.819-1.347-13.165-3.497c-3.351-2.154-5.335-5.07-5.335-8.213Z"/><rect width="70" height="48" x="110" y="140" fill="url(#b)" rx="8"/><path fill="#000" d="m132.216 174 2.909-17.455h1.966l-.455 2.682h.182a5.53 5.53 0 0 1 2.114-2.125q1.352-.783 3.068-.784 1.795 0 2.818.852 1.023.842 1.364 2.319h.148a6 6 0 0 1 2.306-2.307q1.489-.864 3.398-.864 2.42 0 3.58 1.534 1.159 1.535.67 4.455L154.33 174h-2.023l1.954-11.693q.33-2.068-.534-3.102-.863-1.035-2.591-1.035-2 0-3.306 1.228-1.296 1.215-1.603 3.113L144.307 174h-2.068l1.988-11.875q.285-1.772-.511-2.864-.784-1.09-2.58-1.091-1.215 0-2.284.603a5.4 5.4 0 0 0-1.795 1.647 5.84 5.84 0 0 0-.955 2.398L134.239 174z"/><path fill="#fff" d="m184.148 84.41.409-2.671h.454l9.534-8.193h2.591l-9.42 8.09-.182.035zM181.216 91l3.864-23.273h2.022L183.239 91zm10.909 0-5.625-8.966 1.648-1.398L194.682 91z"/><defs><linearGradient id="a" x1="150" x2="150" y1="29" y2="0" gradientUnits="userSpaceOnUse"><stop stop-color="#a23e00"/><stop offset="1"/></linearGradient><linearGradient id="b" x1="145" x2="145" y1="188" y2="140" gradientUnits="userSpaceOnUse"><stop stop-color="#d6ffbd"/><stop offset="1" stop-color="#69ff0c"/></linearGradient></defs></svg>