<svg xmlns="http://www.w3.org/2000/svg" width="300" height="200" fill="none" viewBox="0 0 300 200"><path fill="#000" d="M0 0h300v200H0z"/><path fill="url(#a)" d="M62 0h176v29H62z"/><path fill="#000" d="m138.216 174 2.909-17.455h1.966l-.455 2.682h.182a5.53 5.53 0 0 1 2.114-2.125q1.352-.783 3.068-.784 1.795 0 2.818.852 1.023.842 1.364 2.319h.148a6 6 0 0 1 2.306-2.307q1.489-.864 3.398-.864 2.42 0 3.58 1.534 1.159 1.535.67 4.455L160.33 174h-2.023l1.954-11.693q.33-2.068-.534-3.102-.863-1.035-2.591-1.035-2 0-3.306 1.228-1.296 1.215-1.603 3.113L150.307 174h-2.068l1.988-11.875q.285-1.772-.511-2.864-.784-1.09-2.58-1.091-1.215 0-2.284.603a5.4 5.4 0 0 0-1.795 1.647 5.84 5.84 0 0 0-.955 2.398L140.239 174z"/><path fill="#f7ff00" d="M225.102 76.727 221.239 100h-2.023l3.864-23.273z"/><path stroke="#fff" d="M150.5 29v111"/><circle cx="150" cy="163" r="30" fill="url(#b)"/><path fill="#f7ff00" d="m202 29-5.774 10h11.548zm0 134 5.773-10h-11.547zm0-125h-1v116h2V38z"/><defs><linearGradient id="a" x1="150" x2="150" y1="29" y2="0" gradientUnits="userSpaceOnUse"><stop stop-color="#a23e00"/><stop offset="1"/></linearGradient><linearGradient id="b" x1="150" x2="150" y1="133" y2="193" gradientUnits="userSpaceOnUse"><stop stop-color="#69ff0c"/><stop offset="1" stop-color="#deffc9"/></linearGradient></defs></svg>