<svg xmlns="http://www.w3.org/2000/svg" width="300" height="200" fill="none" viewBox="0 0 300 200"><path fill="#000" d="M0 0h300v200H0z"/><path fill="url(#a)" d="M7 161h122v29H7z" transform="rotate(-90 7 161)"/><path fill="url(#b)" d="M230 178h88v29h-88z" transform="rotate(-180 230 178)"/><path stroke="#fff" d="M36 131.784h31.46M135.22 131.784H157"/><path fill="#000" stroke="#fff" d="M78.35 113.5c3.467 0 6.659 2.005 9.003 5.352 2.343 3.344 3.807 7.991 3.807 13.148s-1.465 9.804-3.807 13.148c-2.344 3.347-5.536 5.352-9.003 5.352s-6.658-2.006-9.002-5.352c-2.343-3.344-3.808-7.991-3.808-13.148s1.465-9.804 3.808-13.148c2.344-3.346 5.534-5.352 9.002-5.352Z"/><path fill="#000" fill-opacity=".62" stroke="#fff" d="M93.676 113.5c3.468 0 6.659 2.005 9.003 5.352 2.343 3.344 3.808 7.991 3.808 13.148s-1.465 9.804-3.808 13.148c-2.344 3.347-5.535 5.352-9.003 5.352s-6.658-2.006-9.002-5.352c-2.343-3.344-3.807-7.991-3.807-13.148s1.465-9.804 3.807-13.148c2.344-3.346 5.535-5.352 9.002-5.352Z"/><path fill="#000" fill-opacity=".7" stroke="#fff" d="M107.39 113.5c3.467 0 6.658 2.005 9.002 5.352 2.343 3.344 3.808 7.991 3.808 13.148s-1.465 9.804-3.808 13.148c-2.344 3.347-5.535 5.352-9.002 5.352s-6.659-2.006-9.002-5.352c-2.343-3.344-3.808-7.991-3.808-13.148s1.465-9.804 3.808-13.148c2.343-3.346 5.534-5.352 9.002-5.352Z"/><path fill="#000" fill-opacity=".7" stroke="#fff" d="M121.91 113.5c3.467 0 6.658 2.005 9.002 5.352 2.343 3.344 3.808 7.991 3.808 13.148s-1.465 9.804-3.808 13.148c-2.344 3.347-5.535 5.352-9.002 5.352s-6.658-2.006-9.002-5.352c-2.343-3.344-3.808-7.991-3.808-13.148s1.465-9.804 3.808-13.148c2.344-3.346 5.534-5.352 9.002-5.352Z"/><path stroke="#fff" d="M36 69.784h30.42M131.94 69.784H153"/><path fill="#000" stroke="#fff" d="M76.95 51.5c3.338 0 6.419 1.998 8.687 5.346C87.902 60.19 89.32 64.84 89.32 70s-1.418 9.81-3.683 13.154c-2.268 3.348-5.349 5.346-8.687 5.346s-6.419-1.998-8.687-5.346C65.999 79.81 64.58 75.16 64.58 70s1.418-9.81 3.683-13.154c2.268-3.348 5.349-5.346 8.687-5.346Z"/><path fill="#000" fill-opacity=".62" stroke="#fff" d="M91.77 51.5c3.339 0 6.419 1.998 8.687 5.346 2.266 3.345 3.683 7.994 3.683 13.154s-1.417 9.81-3.683 13.154c-2.268 3.348-5.348 5.346-8.687 5.346s-6.418-1.998-8.686-5.346C80.818 79.81 79.4 75.16 79.4 70s1.418-9.81 3.684-13.154c2.267-3.348 5.348-5.346 8.686-5.346Z"/><path fill="#000" fill-opacity=".7" stroke="#fff" d="M105.03 51.5c3.339 0 6.419 1.998 8.687 5.346C115.982 60.19 117.4 64.84 117.4 70s-1.418 9.81-3.683 13.154c-2.268 3.348-5.348 5.346-8.687 5.346s-6.419-1.998-8.686-5.346C94.078 79.81 92.66 75.16 92.66 70s1.418-9.81 3.684-13.154c2.267-3.348 5.348-5.346 8.686-5.346Z"/><path fill="#000" fill-opacity=".7" stroke="#fff" d="M119.07 51.5c3.338 0 6.419 1.998 8.687 5.346 2.265 3.345 3.683 7.994 3.683 13.154s-1.418 9.81-3.683 13.154c-2.268 3.348-5.349 5.346-8.687 5.346s-6.419-1.998-8.686-5.346C108.118 79.81 106.7 75.16 106.7 70s1.418-9.81 3.684-13.154c2.267-3.348 5.348-5.346 8.686-5.346Z"/><rect width="70" height="98" x="153" y="51" fill="url(#c)" rx="8"/><path fill="#000" d="m175.216 111 2.909-17.454h1.966l-.455 2.681h.182a5.53 5.53 0 0 1 2.114-2.125q1.352-.784 3.068-.784 1.795 0 2.818.853 1.023.84 1.364 2.318h.148a6 6 0 0 1 2.306-2.307q1.489-.864 3.398-.864 2.42 0 3.58 1.534 1.159 1.534.67 4.455L197.33 111h-2.023l1.954-11.693q.33-2.068-.534-3.103-.863-1.033-2.591-1.033-2 0-3.306 1.227-1.296 1.215-1.603 3.113L187.307 111h-2.068l1.988-11.875q.285-1.773-.511-2.864-.784-1.09-2.58-1.09-1.215 0-2.284.602a5.4 5.4 0 0 0-1.795 1.648 5.8 5.8 0 0 0-.955 2.397L177.239 111z"/><path fill="#fff" d="m91.148 178.409.409-2.67h.454l9.534-8.194h2.591l-9.42 8.091-.182.034zM88.216 185l3.864-23.273h2.022L90.24 185zm10.909 0-5.625-8.966 1.648-1.398L101.682 185zm7.494 4 2-12.045h-.113l-3.875 2.306.329-1.886 3.887-2.33h1.909L108.438 189zM91.148 24.41l.409-2.671h.454l9.534-8.193h2.591l-9.42 8.09-.182.035zM88.216 31 92.08 7.727h2.022L90.24 31zm10.909 0L93.5 22.034l1.648-1.398L101.682 31zm4.267 4 .205-1.364 6.045-4.897q1.08-.864 1.761-1.512.694-.647 1.057-1.204.364-.57.455-1.194.181-1.09-.546-1.772-.716-.682-2-.682-1.306 0-2.295.739-.978.738-1.159 1.886h-1.841q.295-1.785 1.807-2.954 1.523-1.182 3.659-1.182 1.42 0 2.398.534.989.533 1.431 1.454.444.909.262 2.046a4.5 4.5 0 0 1-.58 1.59q-.432.74-1.318 1.603-.886.852-2.364 2.034l-4.011 3.239v.08h7.42l-.25 1.556z"/><defs><linearGradient id="a" x1="68" x2="68" y1="190" y2="161" gradientUnits="userSpaceOnUse"><stop stop-color="#a25e00"/><stop offset="1"/></linearGradient><linearGradient id="b" x1="274" x2="274" y1="207" y2="178" gradientUnits="userSpaceOnUse"><stop stop-color="#a25e00"/><stop offset="1"/></linearGradient><linearGradient id="c" x1="188" x2="188" y1="149" y2="51" gradientUnits="userSpaceOnUse"><stop stop-color="#d6ffbd"/><stop offset="1" stop-color="#69ff0c"/></linearGradient></defs></svg>