<svg xmlns="http://www.w3.org/2000/svg" width="300" height="200" fill="none" viewBox="0 0 300 200"><path fill="#000" d="M0 0h300v200H0z"/><path fill="url(#a)" d="M7 161h72v29H7z" transform="rotate(-90 7 161)"/><path fill="url(#b)" d="M297 193h98v29h-98z" transform="rotate(-180 297 193)"/><path stroke="#fff" d="M36 131.784h26M118 131.784h18"/><path fill="#000" stroke="#fff" d="M71 113.5c2.784 0 5.4 1.953 7.346 5.315 1.939 3.35 3.154 8.01 3.154 13.185s-1.215 9.835-3.154 13.185c-1.947 3.362-4.562 5.315-7.346 5.315s-5.4-1.953-7.346-5.315c-1.939-3.35-3.154-8.01-3.154-13.185s1.215-9.835 3.154-13.185c1.947-3.362 4.562-5.315 7.346-5.315Z"/><path fill="#000" fill-opacity=".62" stroke="#fff" d="M83.667 113.5c2.784 0 5.399 1.953 7.346 5.315 1.939 3.35 3.154 8.01 3.154 13.185s-1.215 9.835-3.154 13.185c-1.947 3.362-4.562 5.315-7.346 5.315s-5.4-1.953-7.346-5.315c-1.94-3.35-3.154-8.01-3.154-13.185s1.215-9.835 3.154-13.185c1.947-3.362 4.562-5.315 7.346-5.315Z"/><path fill="#000" fill-opacity=".7" stroke="#fff" d="M95 113.5c2.784 0 5.399 1.953 7.346 5.315 1.939 3.35 3.154 8.01 3.154 13.185s-1.215 9.835-3.154 13.185c-1.947 3.362-4.562 5.315-7.346 5.315s-5.4-1.953-7.346-5.315c-1.939-3.35-3.154-8.01-3.154-13.185s1.215-9.835 3.154-13.185c1.947-3.362 4.562-5.315 7.346-5.315Z"/><path fill="#000" fill-opacity=".7" stroke="#fff" d="M107 113.5c2.784 0 5.399 1.953 7.346 5.315 1.939 3.35 3.154 8.01 3.154 13.185s-1.215 9.835-3.154 13.185c-1.947 3.362-4.562 5.315-7.346 5.315s-5.399-1.953-7.346-5.315c-1.939-3.35-3.154-8.01-3.154-13.185s1.215-9.835 3.154-13.185c1.947-3.362 4.562-5.315 7.346-5.315Z"/><path stroke="#fff" d="M123 131.784h26M205 131.784h18"/><path fill="#000" stroke="#fff" d="M158 113.5c2.784 0 5.399 1.953 7.346 5.315 1.939 3.35 3.154 8.01 3.154 13.185s-1.215 9.835-3.154 13.185c-1.947 3.362-4.562 5.315-7.346 5.315s-5.399-1.953-7.346-5.315c-1.939-3.35-3.154-8.01-3.154-13.185s1.215-9.835 3.154-13.185c1.947-3.362 4.562-5.315 7.346-5.315Z"/><path fill="#000" fill-opacity=".62" stroke="#fff" d="M170.667 113.5c2.784 0 5.399 1.953 7.345 5.315 1.94 3.35 3.155 8.01 3.155 13.185s-1.215 9.835-3.155 13.185c-1.946 3.362-4.561 5.315-7.345 5.315s-5.399-1.953-7.346-5.315c-1.939-3.35-3.154-8.01-3.154-13.185s1.215-9.835 3.154-13.185c1.947-3.362 4.562-5.315 7.346-5.315Z"/><path fill="#000" fill-opacity=".7" stroke="#fff" d="M182 113.5c2.784 0 5.399 1.953 7.346 5.315 1.939 3.35 3.154 8.01 3.154 13.185s-1.215 9.835-3.154 13.185c-1.947 3.362-4.562 5.315-7.346 5.315s-5.399-1.953-7.346-5.315c-1.939-3.35-3.154-8.01-3.154-13.185s1.215-9.835 3.154-13.185c1.947-3.362 4.562-5.315 7.346-5.315Z"/><path fill="#000" fill-opacity=".7" stroke="#fff" d="M194 113.5c2.784 0 5.399 1.953 7.346 5.315 1.939 3.35 3.154 8.01 3.154 13.185s-1.215 9.835-3.154 13.185c-1.947 3.362-4.562 5.315-7.346 5.315s-5.399-1.953-7.346-5.315c-1.939-3.35-3.154-8.01-3.154-13.185s1.215-9.835 3.154-13.185c1.947-3.362 4.562-5.315 7.346-5.315Z"/><rect width="70" height="59" x="219" y="105" fill="url(#c)" rx="8"/><path fill="#000" d="m241.216 142 2.909-17.455h1.966l-.455 2.682h.182a5.53 5.53 0 0 1 2.114-2.125q1.352-.784 3.068-.784 1.795 0 2.818.852 1.023.842 1.364 2.319h.148a6 6 0 0 1 2.306-2.307q1.489-.864 3.398-.864 2.42 0 3.58 1.534 1.158 1.535.67 4.455L263.33 142h-2.023l1.954-11.693q.33-2.068-.534-3.102-.863-1.035-2.591-1.035-2 0-3.306 1.228-1.296 1.215-1.603 3.113L253.307 142h-2.068l1.988-11.875q.285-1.772-.511-2.864-.784-1.09-2.58-1.091-1.215 0-2.284.603a5.4 5.4 0 0 0-1.795 1.647 5.84 5.84 0 0 0-.955 2.398L243.239 142z"/><path fill="#fff" d="m82.148 93.41.409-2.671h.454l9.535-8.193h2.59l-9.42 8.09-.182.035zM79.216 100l3.864-23.273h2.022L81.24 100zm10.909 0L84.5 91.034l1.648-1.398L92.682 100zm7.494 4 2-12.046h-.113l-3.875 2.307.33-1.886 3.886-2.33h1.909L99.438 104zM164.148 93.41l.409-2.671h.454l9.534-8.193h2.591l-9.42 8.09-.182.035zm-2.932 6.59 3.864-23.273h2.022L163.239 100zm10.909 0-5.625-8.966 1.648-1.398L174.682 100zm4.267 4 .205-1.364 6.045-4.897q1.08-.864 1.761-1.512.694-.647 1.057-1.204.364-.57.455-1.194.181-1.09-.546-1.772-.716-.682-2-.682-1.306 0-2.295.739-.978.738-1.159 1.886h-1.841q.295-1.785 1.807-2.954 1.523-1.182 3.659-1.182 1.42 0 2.398.534.988.534 1.431 1.454.444.909.262 2.046a4.5 4.5 0 0 1-.58 1.59q-.432.74-1.318 1.603-.887.852-2.364 2.034l-4.011 3.239v.079h7.42l-.25 1.557z"/><defs><linearGradient id="a" x1="43" x2="43" y1="190" y2="161" gradientUnits="userSpaceOnUse"><stop stop-color="#a25e00"/><stop offset="1"/></linearGradient><linearGradient id="b" x1="346" x2="346" y1="222" y2="193" gradientUnits="userSpaceOnUse"><stop stop-color="#a25e00"/><stop offset="1"/></linearGradient><linearGradient id="c" x1="254" x2="254" y1="164" y2="105" gradientUnits="userSpaceOnUse"><stop stop-color="#d6ffbd"/><stop offset="1" stop-color="#69ff0c"/></linearGradient></defs></svg>