<svg xmlns="http://www.w3.org/2000/svg" width="300" height="200" fill="none" viewBox="0 0 300 200"><path fill="#000" d="M0 0h300v200H0z"/><path fill="url(#a)" d="M44 137h72v29H44z" transform="rotate(-90 44 137)"/><path fill="url(#b)" d="M283 163h162v29H283z" transform="rotate(-180 283 163)"/><path stroke="#fff" d="M73 101.784h26M155 101.784h18"/><path fill="#000" stroke="#fff" d="M108 83.5c2.784 0 5.399 1.953 7.346 5.315 1.939 3.35 3.154 8.01 3.154 13.185s-1.215 9.835-3.154 13.185c-1.947 3.362-4.562 5.315-7.346 5.315s-5.399-1.953-7.346-5.315c-1.939-3.35-3.154-8.01-3.154-13.185s1.215-9.835 3.154-13.185c1.947-3.362 4.562-5.315 7.346-5.315Z"/><path fill="#000" fill-opacity=".62" stroke="#fff" d="M120.667 83.5c2.784 0 5.399 1.953 7.345 5.315 1.939 3.35 3.155 8.01 3.155 13.185s-1.216 9.835-3.155 13.185c-1.946 3.362-4.561 5.315-7.345 5.315-2.785 0-5.4-1.953-7.346-5.315-1.939-3.35-3.154-8.01-3.154-13.185s1.215-9.835 3.154-13.185c1.946-3.362 4.561-5.315 7.346-5.315Z"/><path fill="#000" fill-opacity=".7" stroke="#fff" d="M132 83.5c2.784 0 5.399 1.953 7.346 5.315 1.939 3.35 3.154 8.01 3.154 13.185s-1.215 9.835-3.154 13.185c-1.947 3.362-4.562 5.315-7.346 5.315s-5.399-1.953-7.346-5.315c-1.939-3.35-3.154-8.01-3.154-13.185s1.215-9.835 3.154-13.185c1.947-3.362 4.562-5.315 7.346-5.315Z"/><path fill="#000" fill-opacity=".7" stroke="#fff" d="M144 83.5c2.784 0 5.399 1.953 7.346 5.315 1.939 3.35 3.154 8.01 3.154 13.185s-1.215 9.835-3.154 13.185c-1.947 3.362-4.562 5.315-7.346 5.315s-5.399-1.953-7.346-5.315c-1.939-3.35-3.154-8.01-3.154-13.185s1.215-9.835 3.154-13.185c1.947-3.362 4.562-5.315 7.346-5.315Z"/><rect width="70" height="59" x="169" y="75" fill="url(#c)" rx="8"/><path fill="#000" d="m191.216 112 2.909-17.454h1.966l-.455 2.681h.182a5.53 5.53 0 0 1 2.114-2.125q1.352-.784 3.068-.784 1.795 0 2.818.853 1.023.84 1.364 2.318h.148a6 6 0 0 1 2.306-2.307q1.489-.864 3.398-.864 2.42 0 3.58 1.534 1.159 1.534.67 4.455L213.33 112h-2.023l1.954-11.693q.33-2.068-.534-3.103-.863-1.033-2.591-1.033-2 0-3.306 1.227-1.296 1.215-1.603 3.113L203.307 112h-2.068l1.988-11.875q.285-1.773-.511-2.864-.784-1.09-2.58-1.09-1.215 0-2.284.602a5.4 5.4 0 0 0-1.795 1.648 5.8 5.8 0 0 0-.955 2.397L193.239 112z"/><path fill="#fff" d="m118.148 60.41.409-2.671h.454l9.534-8.193h2.591l-9.42 8.09-.182.034zM115.216 67l3.864-23.273h2.022L117.239 67zm10.909 0-5.625-8.966 1.648-1.398L128.682 67z"/><defs><linearGradient id="a" x1="80" x2="80" y1="166" y2="137" gradientUnits="userSpaceOnUse"><stop stop-color="#a25e00"/><stop offset="1"/></linearGradient><linearGradient id="b" x1="364" x2="364" y1="192" y2="163" gradientUnits="userSpaceOnUse"><stop stop-color="#a25e00"/><stop offset="1"/></linearGradient><linearGradient id="c" x1="204" x2="204" y1="134" y2="75" gradientUnits="userSpaceOnUse"><stop stop-color="#d6ffbd"/><stop offset="1" stop-color="#69ff0c"/></linearGradient></defs></svg>