<svg xmlns="http://www.w3.org/2000/svg" width="300" height="200" fill="none" viewBox="0 0 300 200"><g clip-path="url(#a)"><path fill="#000" d="M0 0h300v200H0z"/><path fill="url(#b)" d="M-3 161h146v29H-3z" transform="rotate(-90 -3 161)"/><path fill="url(#c)" d="M273 193h157v29H273z" transform="rotate(-180 273 193)"/><path stroke="#fff" d="M26 131.784h35.36M137.52 131.784H162"/><path fill="#000" stroke="#fff" d="M73.6 113.5c7.881 0 14.46 8.165 14.46 18.5s-6.579 18.5-14.46 18.5-14.46-8.165-14.46-18.5 6.579-18.5 14.46-18.5Z"/><path fill="#000" fill-opacity=".62" stroke="#fff" d="M90.827 113.5c7.88 0 14.46 8.165 14.46 18.5s-6.58 18.5-14.46 18.5c-7.882 0-14.46-8.165-14.46-18.5s6.578-18.5 14.46-18.5Z"/><path fill="#000" fill-opacity=".7" stroke="#fff" d="M106.24 113.5c7.881 0 14.46 8.165 14.46 18.5s-6.579 18.5-14.46 18.5-14.46-8.165-14.46-18.5 6.579-18.5 14.46-18.5Z"/><path fill="#000" fill-opacity=".7" stroke="#fff" d="M122.56 113.5c7.881 0 14.46 8.165 14.46 18.5s-6.579 18.5-14.46 18.5-14.46-8.165-14.46-18.5 6.579-18.5 14.46-18.5Z"/><path fill="#fff" d="m84.148 178.409.409-2.67h.454l9.535-8.194h2.59l-9.42 8.091-.182.034zM81.216 185l3.864-23.273h2.022L83.24 185zm10.909 0-5.625-8.966 1.648-1.398L94.682 185zM87.636 31 91.5 7.727h2.034l-1.5 9.148h.182q.465-.784 1.239-1.614a6.6 6.6 0 0 1 1.931-1.386q1.149-.568 2.75-.568 2.148 0 3.58 1.136 1.443 1.125 2.011 3.16.569 2.022.125 4.715-.454 2.705-1.693 4.739t-3.045 3.17a7.27 7.27 0 0 1-3.943 1.137q-1.591 0-2.569-.569-.966-.567-1.477-1.397a7 7 0 0 1-.727-1.637h-.25L89.602 31zm3.455-8.716q-.34 2.115 0 3.75.352 1.625 1.375 2.557 1.034.92 2.727.92 1.739 0 3.103-.954 1.374-.966 2.272-2.602.91-1.637 1.25-3.67.33-2.012-.011-3.626t-1.375-2.557q-1.035-.954-2.784-.954-1.706 0-3.068.92-1.353.909-2.25 2.523-.898 1.603-1.24 3.693"/><path stroke="#fff" d="M26 61.5h33"/><path fill="url(#d)" stroke="#fff" stroke-width="4" d="M61 39h74v49H61z"/><path stroke="#fff" d="M111 61.5h51"/><rect width="53" height="149" x="147" y="15" fill="url(#e)" rx="8"/><path fill="#000" d="m161.216 99 2.909-17.454h1.966l-.455 2.681h.182a5.53 5.53 0 0 1 2.114-2.125q1.352-.784 3.068-.784 1.795 0 2.818.853 1.023.84 1.364 2.318h.148a6 6 0 0 1 2.306-2.307q1.489-.864 3.398-.864 2.42 0 3.58 1.534 1.159 1.534.67 4.455L183.33 99h-2.023l1.954-11.693q.33-2.068-.534-3.103-.863-1.033-2.591-1.033-2 0-3.306 1.227-1.296 1.215-1.603 3.113L173.307 99h-2.068l1.988-11.875q.285-1.772-.511-2.864-.784-1.09-2.58-1.09-1.215 0-2.284.602a5.4 5.4 0 0 0-1.795 1.648 5.8 5.8 0 0 0-.955 2.397L163.239 99z"/><path stroke="#fff" stroke-width="8" d="M107 44v37"/><path fill="#fff" d="m206.227 104 2.898-17.454h10.099l-.238 1.431h-8.506l-1.091 6.571h7.713l-.238 1.432h-7.713l-1.33 8.02zm16.014 3.17q-1.15 0-1.951-.579-.793-.571-1.134-1.594t-.119-2.369q.222-1.33.878-2.335a4.9 4.9 0 0 1 1.636-1.569 4.2 4.2 0 0 1 2.139-.562q1.202 0 1.995.596.801.59 1.125 1.611.332 1.014.128 2.276-.214 1.338-.878 2.352a4.8 4.8 0 0 1-1.645 1.594 4.2 4.2 0 0 1-2.174.579m.128-1.116q.81 0 1.466-.46a3.7 3.7 0 0 0 1.108-1.245 5.1 5.1 0 0 0 .597-1.738q.144-.92-.034-1.679-.18-.768-.665-1.219t-1.279-.452q-.775 0-1.431.46-.648.453-1.1 1.228a5 5 0 0 0-.596 1.721q-.163.972.017 1.731.179.766.664 1.21t1.253.443m17.054-12.273-1.389.392a3.6 3.6 0 0 0-.579-1.065 2.6 2.6 0 0 0-.981-.759q-.596-.28-1.483-.28-1.329 0-2.181.63t-.853 1.628q0 .843.58 1.372.588.52 1.807.827l1.977.485q1.645.4 2.463 1.27.827.87.827 2.182 0 1.108-.614 1.969-.613.86-1.713 1.355-1.09.486-2.531.486-1.918 0-3.162-.861-1.245-.87-1.594-2.506l1.458-.358q.281 1.168 1.099 1.764.827.597 2.173.597 1.509 0 2.412-.673.904-.682.904-1.705 0-.792-.529-1.33-.528-.545-1.602-.8l-2.139-.512q-1.706-.408-2.523-1.295-.818-.886-.818-2.2 0-1.08.588-1.9.588-.826 1.619-1.295 1.032-.47 2.352-.469 1.799 0 2.873.818 1.082.81 1.559 2.233M242.95 104V90.91h1.525V104zm.775-15.34q-.468 0-.801-.316a1.04 1.04 0 0 1-.332-.776q0-.452.332-.767.333-.324.801-.324.47 0 .801.324.333.315.333.767t-.333.776a1.12 1.12 0 0 1-.801.315m6.279 7.158V104h-1.517V90.91h1.475v2.053h.136a3.66 3.66 0 0 1 1.432-1.61q.98-.614 2.42-.614 1.322 0 2.318.554 1.007.545 1.56 1.61.563 1.065.563 2.617V104h-1.517v-8.386q0-1.611-.904-2.549-.895-.937-2.403-.937-1.032 0-1.833.443a3.24 3.24 0 0 0-1.27 1.278q-.46.827-.46 1.97M264.201 104l-1.773-13.09h1.594l1.304 10.797h.111l4.892-10.798h1.611l1.27 10.773h.119l4.892-10.773h1.619L273.704 104h-1.568l-1.33-10.713h-.162L265.769 104zm22.355 3h-1.346l.289-1.747h-.085a4.2 4.2 0 0 1-.75.971q-.442.435-1.014.691a3.1 3.1 0 0 1-1.262.255q-1.03 0-1.721-.562-.69-.563-.963-1.577t-.043-2.361q.222-1.371.827-2.386.613-1.014 1.483-1.568a3.5 3.5 0 0 1 1.892-.554q.734 0 1.227.273.494.264.776.707.28.434.383.938h.06l.81-4.705h1.372zm-.631-4.355q.248-1.466-.255-2.404-.494-.936-1.637-.937-1.176 0-1.951.963-.768.954-1.023 2.446-.145.912.026 1.653.17.75.639 1.194.477.451 1.244.451.775 0 1.372-.434.606-.426 1.006-1.185a5.7 5.7 0 0 0 .579-1.747m11.864-11.736-.213 1.321h-6.256l.222-1.32zm-3.784-3.136h1.526l-2.131 12.809q-.136.819.068 1.287.204.46.631.657a2.3 2.3 0 0 0 .937.187q.299 0 .512-.034.22-.043.392-.085l.11 1.372a4.4 4.4 0 0 1-.588.153q-.34.077-.818.077a3.3 3.3 0 0 1-1.542-.366 2.43 2.43 0 0 1-1.074-1.091q-.367-.725-.196-1.799z"/></g><defs><linearGradient id="b" x1="70" x2="70" y1="190" y2="161" gradientUnits="userSpaceOnUse"><stop stop-color="#a25e00"/><stop offset="1"/></linearGradient><linearGradient id="c" x1="351.5" x2="351.5" y1="222" y2="193" gradientUnits="userSpaceOnUse"><stop stop-color="#a25e00"/><stop offset="1"/></linearGradient><linearGradient id="d" x1="59" x2="137" y1="63.5" y2="63.5" gradientUnits="userSpaceOnUse"><stop stop-color="#58ffff"/><stop offset="1" stop-color="#6cb7b7"/></linearGradient><linearGradient id="e" x1="173.5" x2="173.5" y1="164" y2="15" gradientUnits="userSpaceOnUse"><stop stop-color="#d6ffbd"/><stop offset="1" stop-color="#1dc906"/></linearGradient><clipPath id="a"><path fill="#fff" d="M0 0h300v200H0z"/></clipPath></defs></svg>