<svg xmlns="http://www.w3.org/2000/svg" width="300" height="200" fill="none" viewBox="0 0 300 200"><path fill="#000" d="M0 0h300v200H0z"/><path stroke="#f7ff00" d="M36 128.784h26M118 128.784h18"/><path fill="#000" stroke="#f7ff00" d="M71 110.5c2.784 0 5.4 1.953 7.346 5.315 1.939 3.35 3.154 8.01 3.154 13.185s-1.215 9.835-3.154 13.185c-1.947 3.362-4.562 5.315-7.346 5.315s-5.4-1.953-7.346-5.315c-1.939-3.35-3.154-8.01-3.154-13.185s1.215-9.835 3.154-13.185c1.947-3.362 4.562-5.315 7.346-5.315Z"/><path fill="#000" fill-opacity=".62" stroke="#f7ff00" d="M83.667 110.5c2.784 0 5.399 1.953 7.345 5.315 1.94 3.35 3.154 8.01 3.154 13.185s-1.215 9.835-3.154 13.185c-1.946 3.362-4.561 5.315-7.346 5.315-2.784 0-5.399-1.953-7.345-5.315-1.94-3.35-3.154-8.01-3.154-13.185s1.215-9.835 3.154-13.185c1.946-3.362 4.561-5.315 7.346-5.315Z"/><path fill="#000" fill-opacity=".7" stroke="#f7ff00" d="M95 110.5c2.784 0 5.399 1.953 7.346 5.315 1.939 3.35 3.154 8.01 3.154 13.185s-1.215 9.835-3.154 13.185c-1.947 3.362-4.562 5.315-7.346 5.315s-5.4-1.953-7.346-5.315c-1.939-3.35-3.154-8.01-3.154-13.185s1.215-9.835 3.154-13.185c1.947-3.362 4.562-5.315 7.346-5.315Z"/><path fill="#000" fill-opacity=".7" stroke="#f7ff00" d="M107 110.5c2.784 0 5.399 1.953 7.346 5.315 1.939 3.35 3.154 8.01 3.154 13.185s-1.215 9.835-3.154 13.185c-1.947 3.362-4.562 5.315-7.346 5.315s-5.399-1.953-7.346-5.315c-1.939-3.35-3.154-8.01-3.154-13.185s1.215-9.835 3.154-13.185c1.947-3.362 4.562-5.315 7.346-5.315Z"/><path stroke="#fff" d="M72 61.5h26M202 61.5h26"/><path fill="#000" stroke="#fff" d="M109 43.5c2.784 0 5.399 1.953 7.346 5.315 1.939 3.35 3.154 8.01 3.154 13.185s-1.215 9.835-3.154 13.185c-1.947 3.362-4.562 5.315-7.346 5.315s-5.399-1.953-7.346-5.315C99.715 71.835 98.5 67.175 98.5 62s1.215-9.835 3.154-13.185c1.947-3.362 4.562-5.315 7.346-5.315Z"/><path fill="#000" fill-opacity=".62" stroke="#fff" d="M121.667 43.5c2.784 0 5.399 1.953 7.345 5.315 1.939 3.35 3.155 8.01 3.155 13.185s-1.216 9.835-3.155 13.185c-1.946 3.362-4.561 5.315-7.345 5.315-2.785 0-5.4-1.953-7.346-5.315-1.939-3.35-3.154-8.01-3.154-13.185s1.215-9.835 3.154-13.185c1.946-3.362 4.561-5.315 7.346-5.315Z"/><path fill="#000" fill-opacity=".7" stroke="#fff" d="M133 43.5c2.784 0 5.399 1.953 7.346 5.315 1.939 3.35 3.154 8.01 3.154 13.185s-1.215 9.835-3.154 13.185c-1.947 3.362-4.562 5.315-7.346 5.315s-5.399-1.953-7.346-5.315c-1.939-3.35-3.154-8.01-3.154-13.185s1.215-9.835 3.154-13.185c1.947-3.362 4.562-5.315 7.346-5.315Z"/><path fill="#000" fill-opacity=".7" stroke="#fff" d="M145 43.5c2.784 0 5.399 1.953 7.346 5.315 1.939 3.35 3.154 8.01 3.154 13.185s-1.215 9.835-3.154 13.185c-1.947 3.362-4.562 5.315-7.346 5.315s-5.399-1.953-7.346-5.315c-1.939-3.35-3.154-8.01-3.154-13.185s1.215-9.835 3.154-13.185c1.947-3.362 4.562-5.315 7.346-5.315Z"/><path fill="#000" fill-opacity=".58" stroke="#fff" d="M155 43.5c2.784 0 5.399 1.953 7.346 5.315 1.939 3.35 3.154 8.01 3.154 13.185s-1.215 9.835-3.154 13.185c-1.947 3.362-4.562 5.315-7.346 5.315s-5.399-1.953-7.346-5.315c-1.939-3.35-3.154-8.01-3.154-13.185s1.215-9.835 3.154-13.185c1.947-3.362 4.562-5.315 7.346-5.315Z"/><path fill="#000" fill-opacity=".62" stroke="#fff" d="M167.667 43.5c2.784 0 5.399 1.953 7.345 5.315 1.939 3.35 3.155 8.01 3.155 13.185s-1.216 9.835-3.155 13.185c-1.946 3.362-4.561 5.315-7.345 5.315-2.785 0-5.4-1.953-7.346-5.315-1.939-3.35-3.154-8.01-3.154-13.185s1.215-9.835 3.154-13.185c1.946-3.362 4.561-5.315 7.346-5.315Z"/><path fill="#000" fill-opacity=".7" stroke="#fff" d="M179 43.5c2.784 0 5.399 1.953 7.346 5.315 1.939 3.35 3.154 8.01 3.154 13.185s-1.215 9.835-3.154 13.185c-1.947 3.362-4.562 5.315-7.346 5.315s-5.399-1.953-7.346-5.315c-1.939-3.35-3.154-8.01-3.154-13.185s1.215-9.835 3.154-13.185c1.947-3.362 4.562-5.315 7.346-5.315Z"/><path fill="#000" fill-opacity=".7" stroke="#fff" d="M191 43.5c2.784 0 5.399 1.953 7.346 5.315 1.939 3.35 3.154 8.01 3.154 13.185s-1.215 9.835-3.154 13.185c-1.947 3.362-4.562 5.315-7.346 5.315s-5.399-1.953-7.346-5.315c-1.939-3.35-3.154-8.01-3.154-13.185s1.215-9.835 3.154-13.185c1.947-3.362 4.562-5.315 7.346-5.315Z"/><path stroke="#f7ff00" d="M150 128.784h26M232 128.784h18"/><path fill="#000" stroke="#f7ff00" d="M185 110.5c2.784 0 5.399 1.953 7.346 5.315 1.939 3.35 3.154 8.01 3.154 13.185s-1.215 9.835-3.154 13.185c-1.947 3.362-4.562 5.315-7.346 5.315s-5.399-1.953-7.346-5.315c-1.939-3.35-3.154-8.01-3.154-13.185s1.215-9.835 3.154-13.185c1.947-3.362 4.562-5.315 7.346-5.315Z"/><path fill="#000" fill-opacity=".62" stroke="#f7ff00" d="M197.667 110.5c2.784 0 5.399 1.953 7.345 5.315 1.939 3.35 3.155 8.01 3.155 13.185s-1.216 9.835-3.155 13.185c-1.946 3.362-4.561 5.315-7.345 5.315-2.785 0-5.4-1.953-7.346-5.315-1.939-3.35-3.154-8.01-3.154-13.185s1.215-9.835 3.154-13.185c1.946-3.362 4.561-5.315 7.346-5.315Z"/><path fill="#000" fill-opacity=".7" stroke="#f7ff00" d="M209 110.5c2.784 0 5.399 1.953 7.346 5.315 1.939 3.35 3.154 8.01 3.154 13.185s-1.215 9.835-3.154 13.185c-1.947 3.362-4.562 5.315-7.346 5.315s-5.399-1.953-7.346-5.315c-1.939-3.35-3.154-8.01-3.154-13.185s1.215-9.835 3.154-13.185c1.947-3.362 4.562-5.315 7.346-5.315Z"/><path fill="#000" fill-opacity=".7" stroke="#f7ff00" d="M221 110.5c2.784 0 5.399 1.953 7.346 5.315 1.939 3.35 3.154 8.01 3.154 13.185s-1.215 9.835-3.154 13.185c-1.947 3.362-4.562 5.315-7.346 5.315s-5.399-1.953-7.346-5.315c-1.939-3.35-3.154-8.01-3.154-13.185s1.215-9.835 3.154-13.185c1.947-3.362 4.562-5.315 7.346-5.315Z"/><path fill="#f7ff00" d="m64.148 178.409.409-2.67h.454l9.535-8.194h2.59l-9.42 8.091-.182.034zM61.216 185l3.863-23.273h2.023L63.24 185zm10.909 0-5.625-8.966 1.648-1.398L74.682 185zm12.487-6.964L82.295 192h-1.69l2.018-12.191h-.082l-3.791 2.264.3-1.718 3.873-2.319zm4.204 12.055-.246.736a18 18 0 0 1-.627 1.664 46 46 0 0 1-.757 1.67q-.375.784-.607 1.248h-1.227q.15-.436.41-1.152.258-.715.552-1.596.293-.879.538-1.806l.218-.764zm15.708-28.364L100.66 185h-2.022l3.863-23.273zm8.073 16.309L110.279 192h-1.691l2.018-12.191h-.082l-3.791 2.264.3-1.718 3.873-2.319zM184.148 178.409l.409-2.67h.454l9.534-8.194h2.591l-9.42 8.091-.182.034zM181.216 185l3.864-23.273h2.022L183.239 185zm10.909 0-5.625-8.966 1.648-1.398L194.682 185zm5.26 7 .218-1.227 5.428-5.046a40 40 0 0 0 1.588-1.547q.641-.662.996-1.241.362-.58.47-1.221.123-.737-.129-1.275a1.8 1.8 0 0 0-.798-.832q-.546-.293-1.309-.293-.804 0-1.466.334a2.97 2.97 0 0 0-1.098.928 3.2 3.2 0 0 0-.572 1.384h-1.61a4.66 4.66 0 0 1 .935-2.155 5.1 5.1 0 0 1 1.806-1.445 5.25 5.25 0 0 1 2.305-.519q1.227 0 2.079.519.853.518 1.235 1.397.381.88.204 1.957a4.8 4.8 0 0 1-.539 1.507q-.402.73-1.234 1.63-.825.892-2.236 2.181l-3.682 3.355-.027.109h6.491l-.246 1.5zm14.956-1.909-.246.736a17 17 0 0 1-.627 1.664 45 45 0 0 1-.757 1.67q-.375.784-.607 1.248h-1.227q.15-.436.409-1.152.26-.715.553-1.596.293-.879.538-1.806l.218-.764zm15.708-28.364L224.185 185h-2.022l3.863-23.273zm.845 30.273.219-1.227 5.427-5.046a40 40 0 0 0 1.589-1.547q.64-.662.995-1.241.362-.58.47-1.221.123-.737-.129-1.275a1.8 1.8 0 0 0-.798-.832q-.545-.293-1.309-.293-.804 0-1.466.334a2.97 2.97 0 0 0-1.098.928q-.435.592-.572 1.384h-1.609a4.65 4.65 0 0 1 .934-2.155 5.1 5.1 0 0 1 1.807-1.445 5.24 5.24 0 0 1 2.304-.519q1.227 0 2.08.519.852.518 1.234 1.397.381.88.204 1.957a4.8 4.8 0 0 1-.538 1.507q-.403.73-1.234 1.63-.825.892-2.237 2.181l-3.682 3.355-.027.109h6.491l-.245 1.5z"/><path fill="#fff" d="m129.148 24.41.409-2.671h.454l9.534-8.193h2.591l-9.42 8.09-.182.035zM126.216 31l3.864-23.273h2.022L128.239 31zm10.909 0-5.625-8.966 1.648-1.398L139.682 31zm9.767-3.182-.432 1.216a47 47 0 0 1-1 2.693q-.591 1.477-1.17 2.807a49 49 0 0 1-.978 2.148h-1.556q.26-.772.682-1.966.43-1.193.92-2.636a77 77 0 0 0 .943-2.99l.387-1.272zm28.742-20.09L171.77 31h-2.023l3.864-23.273z"/></svg>