<svg xmlns="http://www.w3.org/2000/svg" width="300" height="200" fill="none" viewBox="0 0 300 200"><path fill="#000" d="M0 0h300v200H0z"/><path fill="url(#a)" d="M300 199h300v29H300z" transform="rotate(-180 300 199)"/><path stroke="#fff" d="M79 140.784h35.36M190.52 140.784H215"/><path fill="#000" stroke="#fff" d="M126.6 122.5c7.881 0 14.46 8.165 14.46 18.5s-6.579 18.5-14.46 18.5-14.46-8.165-14.46-18.5 6.579-18.5 14.46-18.5Z"/><path fill="#000" fill-opacity=".62" stroke="#fff" d="M143.827 122.5c7.881 0 14.46 8.165 14.46 18.5s-6.579 18.5-14.46 18.5-14.46-8.165-14.46-18.5 6.578-18.5 14.46-18.5Z"/><path fill="#000" fill-opacity=".7" stroke="#fff" d="M159.24 122.5c7.881 0 14.46 8.165 14.46 18.5s-6.579 18.5-14.46 18.5-14.46-8.165-14.46-18.5 6.579-18.5 14.46-18.5Z"/><path fill="#000" fill-opacity=".7" stroke="#fff" d="M175.56 122.5c7.881 0 14.46 8.165 14.46 18.5s-6.579 18.5-14.46 18.5-14.46-8.165-14.46-18.5 6.579-18.5 14.46-18.5Z"/><rect width="70" height="59" x="215" y="111" fill="url(#b)" rx="8"/><path fill="#000" d="m237.216 148 2.909-17.455h1.966l-.455 2.682h.182a5.53 5.53 0 0 1 2.114-2.125q1.352-.783 3.068-.784 1.795 0 2.818.852 1.023.842 1.364 2.319h.148a6 6 0 0 1 2.306-2.307q1.489-.864 3.398-.864 2.42 0 3.58 1.534 1.158 1.535.67 4.455L259.33 148h-2.023l1.954-11.693q.33-2.068-.534-3.102-.863-1.035-2.591-1.035-2 0-3.306 1.228-1.296 1.215-1.603 3.113L249.307 148h-2.068l1.988-11.875q.285-1.772-.511-2.864-.784-1.09-2.58-1.091-1.215 0-2.284.603a5.4 5.4 0 0 0-1.795 1.647 5.84 5.84 0 0 0-.955 2.398L239.239 148zm25.832 4 .205-1.364 6.045-4.897q1.08-.864 1.762-1.512.693-.648 1.056-1.204a3 3 0 0 0 .455-1.193q.181-1.092-.545-1.773-.717-.682-2-.682-1.308 0-2.296.739-.977.738-1.159 1.886h-1.841q.295-1.784 1.807-2.955 1.523-1.18 3.659-1.181 1.42 0 2.398.534.988.534 1.432 1.454.443.909.261 2.046a4.5 4.5 0 0 1-.58 1.591q-.431.738-1.318 1.602-.887.852-2.363 2.034l-4.012 3.239v.079h7.421l-.25 1.557z"/><rect width="70" height="59" x="14" y="111" fill="url(#c)" rx="8"/><path fill="#000" d="m36.216 148 2.909-17.455h1.966l-.455 2.682h.182a5.53 5.53 0 0 1 2.114-2.125q1.352-.783 3.068-.784 1.795 0 2.818.852 1.023.842 1.364 2.319h.148a6 6 0 0 1 2.306-2.307q1.489-.864 3.398-.864 2.42 0 3.58 1.534 1.158 1.535.67 4.455L58.33 148h-2.023l1.954-11.693q.33-2.068-.534-3.102-.864-1.035-2.59-1.035-2 0-3.307 1.228-1.296 1.215-1.603 3.113L48.307 148h-2.068l1.988-11.875q.285-1.772-.511-2.864-.785-1.09-2.58-1.091-1.216 0-2.284.603a5.4 5.4 0 0 0-1.795 1.647 5.8 5.8 0 0 0-.955 2.398L38.24 148zm29.06 4 2-12.045h-.114l-3.875 2.306.33-1.886 3.886-2.33h1.909L67.094 152z"/><path fill="#fff" d="m145.148 102.409.409-2.67h.454l9.534-8.193h2.591l-9.42 8.09-.182.035zM142.216 109l3.864-23.273h2.022L144.239 109zm10.909 0-5.625-8.966 1.648-1.398L155.682 109z"/><defs><linearGradient id="a" x1="450" x2="450" y1="228" y2="199" gradientUnits="userSpaceOnUse"><stop stop-color="#a23e00"/><stop offset="1"/></linearGradient><linearGradient id="b" x1="250" x2="250" y1="170" y2="111" gradientUnits="userSpaceOnUse"><stop stop-color="#d6ffbd"/><stop offset="1" stop-color="#69ff0c"/></linearGradient><linearGradient id="c" x1="49" x2="49" y1="111" y2="170" gradientUnits="userSpaceOnUse"><stop stop-color="#bcffff"/><stop offset="1" stop-color="#16ffff"/></linearGradient></defs></svg>