<svg xmlns="http://www.w3.org/2000/svg" width="300" height="200" fill="none" viewBox="0 0 300 200"><path fill="#000" d="M0 0h300v200H0z"/><path fill="url(#a)" d="M209.255 119.233C222.882 142.311 183.006 190 150.627 190S92 162.586 92 119.233c0-19.859 17.839-22.825 26.921-43.412C122.51 28.246 133.08 11 150.627 11c17.548 0 19.766 17.866 30.51 42.223 9.082 20.587 11.965 38.654 28.118 66.01"/><circle cx="150" cy="26" r="3" fill="#000"/><circle cx="150" cy="147" r="3" fill="#000"/><path fill="#000" d="m150 32-5.774 10h11.548zm0 109 5.773-10h-11.547zm0-100h-1v91h2V41zM166.102 77.727 162.239 101h-2.023l3.864-23.273zM143.055 162h-1.321a3.7 3.7 0 0 0-.298-1.378 3.4 3.4 0 0 0-1.96-1.854 4.2 4.2 0 0 0-1.527-.262q-1.392 0-2.663.731-1.272.724-2.188 2.131t-1.25 3.437q-.334 2.004.107 3.374.44 1.364 1.441 2.067 1.01.703 2.365.703.867 0 1.662-.263a5.6 5.6 0 0 0 1.463-.731 5.7 5.7 0 0 0 1.172-1.116q.505-.639.781-1.384h1.336a7.176 7.176 0 0 1-2.451 3.373 6.8 6.8 0 0 1-1.867 1.009 6.4 6.4 0 0 1-2.16.362q-1.86 0-3.146-.931-1.278-.93-1.818-2.62-.533-1.698-.149-3.999.376-2.259 1.442-3.92 1.072-1.662 2.627-2.564a6.6 6.6 0 0 1 3.381-.909q1.166 0 2.088.362a4.4 4.4 0 0 1 1.57 1.008q.653.647 1.001 1.506.348.86.362 1.868m14.597 2.805q-.377 2.252-1.449 3.914-1.071 1.662-2.62 2.571a6.53 6.53 0 0 1-3.367.909q-1.868 0-3.153-.931-1.278-.937-1.811-2.627-.533-1.697-.156-3.992.375-2.251 1.448-3.913t2.628-2.571a6.6 6.6 0 0 1 3.381-.909q1.847 0 3.125.93t1.818 2.628q.54 1.69.156 3.991m-1.271-.156q.326-1.946-.085-3.317-.405-1.37-1.392-2.095-.987-.73-2.394-.731-1.456 0-2.734.753-1.278.745-2.18 2.159-.903 1.406-1.236 3.387-.32 1.94.085 3.317.405 1.371 1.392 2.102.994.725 2.408.725a5.3 5.3 0 0 0 2.741-.753q1.279-.753 2.173-2.159.903-1.414 1.222-3.388m5.705-7.194h1.534l3.182 12.67h.135l7.365-12.67h1.534L173.421 172h-1.25l1.96-11.74h-.113L167.15 172h-1.208l-2.947-11.74h-.114l-1.96 11.74h-1.25z"/><path stroke="#249aa7" stroke-dasharray="5 5" stroke-width="2" d="M53.5 112c74.369 45.006 117.196 44.22 195.5 0"/><defs><linearGradient id="a" x1="152" x2="152" y1="11" y2="190" gradientUnits="userSpaceOnUse"><stop stop-color="#c9ffa7"/><stop offset="1" stop-color="#74ff1d"/></linearGradient></defs></svg>