<svg xmlns="http://www.w3.org/2000/svg" width="300" height="200" fill="none" viewBox="0 0 300 200"><path fill="#000" d="M0 0h300v200H0z"/><path stroke="#fff" stroke-dasharray="5 5" stroke-width="2" d="M152.535 131.012q2.549.023 5.057.092l-.027.999q2.54.07 5.032.184l.046-.999q2.555.118 5.056.283l-.064.996q2.545.167 5.028.38l.084-.997q2.55.22 5.032.486l-.105.993q2.54.272 5.001.592l.128-.992q2.553.332 5.014.711l-.151.989q2.53.39 4.954.831l.178-.984q2.548.463 4.973.979l-.207.977q2.517.534 4.888 1.121l.239-.969q2.536.628 4.898 1.314l-.278.959q2.496.725 4.779 1.509l.323-.945a83 83 0 0 1 4.733 1.783l-.381.922a59 59 0 0 1 4.518 2.083l.457-.887c1.607.83 3.062 1.687 4.349 2.574v.001l-.568.823c1.48 1.02 2.713 2.062 3.693 3.118l.731-.679c1.275 1.374 2.169 2.795 2.648 4.254l-.949.311Q232 154.908 232 156t-.356 2.176l.949.31c-.479 1.459-1.373 2.88-2.648 4.254l-.731-.678c-.98 1.056-2.213 2.098-3.693 3.118l.568.823c-1.287.887-2.742 1.744-4.349 2.574l-.457-.886a59 59 0 0 1-4.518 2.083l.381.921a83 83 0 0 1-4.733 1.783l-.323-.944a105 105 0 0 1-4.779 1.509l.278.958a127 127 0 0 1-4.898 1.314l-.239-.968q-2.371.587-4.888 1.121l.207.976q-2.425.516-4.973.979l-.178-.983q-2.425.441-4.954.831l.151.988q-2.461.38-5.014.711l-.128-.991q-2.46.32-5.001.592l.105.992q-2.481.266-5.032.486l-.084-.996q-2.483.213-5.028.38l.064.995a259 259 0 0 1-5.056.283l-.046-.998q-2.493.114-5.032.184l.027.998a280 280 0 0 1-5.057.092l-.009-.999a265 265 0 0 1-5.052 0l-.01.999a280 280 0 0 1-5.057-.092l.028-.998q-2.54-.07-5.032-.184l-.047.998a259 259 0 0 1-5.056-.283l.065-.995a257 257 0 0 1-5.028-.38l-.085.996q-2.55-.22-5.032-.486l.106-.992a222 222 0 0 1-5.001-.592l-.129.991a212 212 0 0 1-5.014-.711l.152-.988q-2.53-.39-4.954-.831l-.179.983a171 171 0 0 1-4.973-.979l.208-.976q-2.517-.534-4.888-1.121l-.24.968a127 127 0 0 1-4.898-1.314l.28-.958a105 105 0 0 1-4.78-1.509l-.324.944a83 83 0 0 1-4.733-1.783l.382-.921a59 59 0 0 1-4.518-2.083l-.458.886c-1.607-.83-3.062-1.687-4.349-2.574l.569-.823c-1.48-1.02-2.713-2.062-3.693-3.118l-.732.678c-1.275-1.374-2.17-2.795-2.648-4.254l.95-.31A7 7 0 0 1 68 156q.001-1.093.356-2.176l-.95-.311c.479-1.459 1.373-2.88 2.648-4.254l.732.679c.98-1.056 2.213-2.098 3.692-3.118l-.567-.823v-.001c1.286-.887 2.74-1.744 4.348-2.574l.458.887a59 59 0 0 1 4.518-2.083l-.382-.922a83 83 0 0 1 4.733-1.783l.324.945q2.283-.784 4.78-1.509l-.28-.959a127 127 0 0 1 4.898-1.314l.24.969q2.371-.587 4.888-1.121l-.208-.977q2.425-.516 4.973-.979l.179.984q2.424-.441 4.954-.831l-.152-.989q2.461-.38 5.014-.711l.129.992q2.46-.32 5.001-.592l-.106-.993q2.481-.266 5.032-.486l.085.997q2.483-.213 5.028-.38l-.065-.996a259 259 0 0 1 5.056-.283l.047.999q2.493-.114 5.032-.184l-.028-.999a280 280 0 0 1 5.057-.092l.01 1a265 265 0 0 1 5.052 0z"/><path fill="#000" d="m138.216 174 2.909-17.455h1.966l-.455 2.682h.182a5.53 5.53 0 0 1 2.114-2.125q1.352-.783 3.068-.784 1.795 0 2.818.852 1.023.842 1.364 2.319h.148a6 6 0 0 1 2.306-2.307q1.489-.864 3.398-.864 2.42 0 3.58 1.534 1.159 1.535.67 4.455L160.33 174h-2.023l1.954-11.693q.33-2.068-.534-3.102-.863-1.035-2.591-1.035-2 0-3.306 1.228-1.296 1.215-1.603 3.113L150.307 174h-2.068l1.988-11.875q.285-1.772-.511-2.864-.784-1.09-2.58-1.091-1.215 0-2.284.603a5.4 5.4 0 0 0-1.795 1.647 5.84 5.84 0 0 0-.955 2.398L140.239 174z"/><path fill="#f7ff00" d="M170.045 86.09 168.239 97h-2.023l3.864-23.273h2.022l-1.409 8.557h.182a5.9 5.9 0 0 1 2.25-2.159q1.433-.807 3.42-.807 1.762 0 2.978.728 1.227.726 1.738 2.147.523 1.42.182 3.5L179.545 97h-2.034l1.864-11.182q.352-2.16-.636-3.397-.978-1.25-3-1.25a5.8 5.8 0 0 0-2.591.59 5.6 5.6 0 0 0-2.023 1.705q-.817 1.103-1.08 2.625"/><path stroke="#fff" d="m150.416 28.278-83.001 124"/><circle cx="66.5" cy="152.5" r="21.5" fill="url(#a)"/><path fill="#f7ff00" d="m150 29-5.774 10h11.548zm0 127 5.773-10h-11.547zm0-118h-1v109h2V38z"/><path fill="url(#b)" d="M62 0h176v29H62z"/><defs><linearGradient id="a" x1="66.5" x2="66.5" y1="131" y2="174" gradientUnits="userSpaceOnUse"><stop stop-color="#55d008"/><stop offset="1" stop-color="#9ccc7e"/></linearGradient><linearGradient id="b" x1="150" x2="150" y1="29" y2="0" gradientUnits="userSpaceOnUse"><stop stop-color="#a25e00"/><stop offset="1"/></linearGradient></defs></svg>