<svg xmlns="http://www.w3.org/2000/svg" width="300" height="200" fill="none" viewBox="0 0 300 200"><g clip-path="url(#a)"><path fill="#000" d="M0 0h300v200H0z"/><path fill="url(#b)" d="M-3 161h146v29H-3z" transform="rotate(-90 -3 161)"/><path fill="url(#c)" d="M273 193h157v29H273z" transform="rotate(-180 273 193)"/><path stroke="#fff" d="M26 131.784h35.36M137.52 131.784H162"/><path fill="#000" stroke="#fff" d="M73.6 113.5c7.881 0 14.46 8.165 14.46 18.5s-6.579 18.5-14.46 18.5-14.46-8.165-14.46-18.5 6.579-18.5 14.46-18.5Z"/><path fill="#000" fill-opacity=".62" stroke="#fff" d="M90.827 113.5c7.88 0 14.46 8.165 14.46 18.5s-6.58 18.5-14.46 18.5c-7.882 0-14.46-8.165-14.46-18.5s6.578-18.5 14.46-18.5Z"/><path fill="#000" fill-opacity=".7" stroke="#fff" d="M106.24 113.5c7.881 0 14.46 8.165 14.46 18.5s-6.579 18.5-14.46 18.5-14.46-8.165-14.46-18.5 6.579-18.5 14.46-18.5Z"/><path fill="#000" fill-opacity=".7" stroke="#fff" d="M122.56 113.5c7.881 0 14.46 8.165 14.46 18.5s-6.579 18.5-14.46 18.5-14.46-8.165-14.46-18.5 6.579-18.5 14.46-18.5Z"/><path fill="#fff" d="m84.148 178.409.409-2.67h.454l9.535-8.194h2.59l-9.42 8.091-.182.034zM81.216 185l3.864-23.273h2.022L83.24 185zm10.909 0-5.625-8.966 1.648-1.398L94.682 185zM87.636 31 91.5 7.727h2.034l-1.5 9.148h.182q.465-.784 1.239-1.614a6.6 6.6 0 0 1 1.931-1.386q1.149-.568 2.75-.568 2.148 0 3.58 1.136 1.443 1.125 2.011 3.16.569 2.022.125 4.715-.454 2.705-1.693 4.739t-3.045 3.17a7.27 7.27 0 0 1-3.943 1.137q-1.591 0-2.569-.569-.966-.567-1.477-1.397a7 7 0 0 1-.727-1.637h-.25L89.602 31zm3.455-8.716q-.34 2.115 0 3.75.352 1.625 1.375 2.557 1.034.92 2.727.92 1.739 0 3.103-.954 1.374-.966 2.272-2.602.91-1.637 1.25-3.67.33-2.012-.011-3.626t-1.375-2.557q-1.035-.954-2.784-.954-1.706 0-3.068.92-1.353.909-2.25 2.523-.898 1.603-1.24 3.693"/><path stroke="#fff" d="M26 61.5h33"/><path fill="url(#d)" stroke="#fff" stroke-width="4" d="M61 39h74v49H61z"/><path stroke="#fff" d="M111 61.5h51"/><rect width="53" height="149" x="147" y="15" fill="url(#e)" rx="8"/><path fill="#000" d="m161.216 99 2.909-17.454h1.966l-.455 2.681h.182a5.53 5.53 0 0 1 2.114-2.125q1.352-.784 3.068-.784 1.795 0 2.818.853 1.023.84 1.364 2.318h.148a6 6 0 0 1 2.306-2.307q1.489-.864 3.398-.864 2.42 0 3.58 1.534 1.159 1.534.67 4.455L183.33 99h-2.023l1.954-11.693q.33-2.068-.534-3.103-.863-1.033-2.591-1.033-2 0-3.306 1.227-1.296 1.215-1.603 3.113L173.307 99h-2.068l1.988-11.875q.285-1.772-.511-2.864-.784-1.09-2.58-1.09-1.215 0-2.284.602a5.4 5.4 0 0 0-1.795 1.648 5.8 5.8 0 0 0-.955 2.397L163.239 99z"/><path stroke="#fff" stroke-width="8" d="M107 44v37"/></g><defs><linearGradient id="b" x1="70" x2="70" y1="190" y2="161" gradientUnits="userSpaceOnUse"><stop stop-color="#a25e00"/><stop offset="1"/></linearGradient><linearGradient id="c" x1="351.5" x2="351.5" y1="222" y2="193" gradientUnits="userSpaceOnUse"><stop stop-color="#a25e00"/><stop offset="1"/></linearGradient><linearGradient id="d" x1="59" x2="137" y1="63.5" y2="63.5" gradientUnits="userSpaceOnUse"><stop stop-color="#58ffff"/><stop offset="1" stop-color="#6cb7b7"/></linearGradient><linearGradient id="e" x1="173.5" x2="173.5" y1="164" y2="15" gradientUnits="userSpaceOnUse"><stop stop-color="#d6ffbd"/><stop offset="1" stop-color="#1dc906"/></linearGradient><clipPath id="a"><path fill="#fff" d="M0 0h300v200H0z"/></clipPath></defs></svg>