<svg xmlns="http://www.w3.org/2000/svg" width="300" height="200" fill="none" viewBox="0 0 300 200"><g clip-path="url(#a)"><path fill="#000" d="M0 0h300v200H0z"/><path stroke="#fff" stroke-width="12" d="M48 60v135h205V60"/><path fill="url(#b)" d="M54 82h193v107H54z"/><rect width="57" height="114" x="122" y="22" fill="url(#c)" rx="5"/><path fill="#000" d="m191 85-5.774 10h11.548zm0 51 5.774-10h-11.548zm0-42h-1v33h2V94zM208.045 111.091 206.239 122h-2.023l3.864-23.273h2.022l-1.409 8.557h.182a5.9 5.9 0 0 1 2.25-2.159q1.433-.807 3.42-.807 1.762 0 2.978.727 1.227.728 1.738 2.148.523 1.42.182 3.5L217.545 122h-2.034l1.864-11.182q.352-2.159-.636-3.398-.978-1.25-3-1.25a5.8 5.8 0 0 0-2.591.591 5.6 5.6 0 0 0-2.023 1.705q-.817 1.102-1.08 2.625"/></g><defs><linearGradient id="b" x1="150.5" x2="150.5" y1="82" y2="189" gradientUnits="userSpaceOnUse"><stop stop-color="#50f3ff"/><stop offset="1" stop-color="#309299"/></linearGradient><linearGradient id="c" x1="150.5" x2="150.5" y1="22" y2="136" gradientUnits="userSpaceOnUse"><stop stop-color="#ff6265"/><stop offset="1" stop-color="#b44547"/></linearGradient><clipPath id="a"><path fill="#fff" d="M0 0h300v200H0z"/></clipPath></defs></svg>