<svg xmlns="http://www.w3.org/2000/svg" width="300" height="200" fill="none" viewBox="0 0 300 200"><path fill="#000" d="M0 0h300v200H0z"/><path stroke="#fff" stroke-width="3" d="M23 38v157h217V38"/><path stroke="url(#a)" stroke-width="25" d="M37 87v94h189V87"/><path stroke="#fff" stroke-width="3" d="M51 38v131h162V38"/><path fill="#fff" d="M268.045 145.091 266.239 156h-2.023l3.864-23.273h2.022l-1.409 8.557h.182a5.9 5.9 0 0 1 2.25-2.159q1.433-.807 3.42-.807 1.762 0 2.978.727 1.227.728 1.738 2.148.523 1.42.182 3.5L277.545 156h-2.034l1.864-11.182q.353-2.159-.636-3.398-.978-1.25-3-1.25a5.8 5.8 0 0 0-2.591.591 5.6 5.6 0 0 0-2.023 1.705q-.817 1.103-1.08 2.625M254 92l-5.774 10h11.548zm0 103 5.773-10h-11.547zm0-94h-1v85h2v-85z"/><defs><linearGradient id="a" x1="131.5" x2="131.5" y1="87" y2="181" gradientUnits="userSpaceOnUse"><stop stop-color="#16ffff"/><stop offset="1" stop-color="#0d9999"/></linearGradient></defs></svg>