<svg xmlns="http://www.w3.org/2000/svg" width="300" height="200" fill="none" viewBox="0 0 300 200"><path fill="#000" d="M0 0h300v200H0z"/><path stroke="#fff" stroke-width="2" d="m3.904 72.375 8 10M3.904 92.375l8 10M3.904 109.375l4.877 12.499M12.5 68.996v64.008M11 133h283"/><path stroke="#fff" d="M12 96.784h20.02M75.14 96.784H89"/><path fill="#000" stroke="#fff" d="M38.95 78.5c1.007 0 2.004.456 2.953 1.356.951.902 1.83 2.232 2.58 3.913C45.98 87.129 46.92 91.807 46.92 97s-.939 9.871-2.437 13.231c-.75 1.681-1.629 3.011-2.58 3.914-.949.899-1.946 1.355-2.953 1.355s-2.004-.456-2.952-1.355c-.952-.903-1.831-2.233-2.58-3.914-1.499-3.36-2.438-8.038-2.438-13.231s.94-9.87 2.437-13.231c.75-1.681 1.63-3.011 2.58-3.913.949-.9 1.946-1.356 2.953-1.356Z"/><path fill="#000" fill-opacity=".62" stroke="#fff" d="M48.703 78.5c1.007 0 2.005.456 2.953 1.356.951.902 1.83 2.232 2.58 3.913 1.498 3.36 2.438 8.038 2.438 13.231s-.94 9.871-2.438 13.231c-.75 1.681-1.629 3.011-2.58 3.914-.948.899-1.946 1.355-2.953 1.355s-2.004-.456-2.952-1.355c-.951-.903-1.83-2.233-2.58-3.914-1.498-3.36-2.438-8.038-2.438-13.231s.94-9.87 2.438-13.231c.75-1.681 1.629-3.011 2.58-3.913.948-.9 1.945-1.356 2.952-1.356Z"/><path fill="#000" fill-opacity=".7" stroke="#fff" d="M57.43 78.5c1.007 0 2.004.456 2.953 1.356.951.902 1.83 2.232 2.58 3.913C64.46 87.129 65.4 91.807 65.4 97s-.939 9.871-2.437 13.231c-.75 1.681-1.629 3.011-2.58 3.914-.949.899-1.946 1.355-2.953 1.355s-2.004-.456-2.952-1.355c-.952-.903-1.831-2.233-2.58-3.914-1.499-3.36-2.438-8.038-2.438-13.231s.94-9.87 2.438-13.231c.749-1.681 1.628-3.011 2.58-3.913.948-.9 1.945-1.356 2.952-1.356Z"/><path fill="#000" fill-opacity=".7" stroke="#fff" d="M66.67 78.5c1.007 0 2.004.456 2.953 1.356.951.902 1.83 2.232 2.58 3.913C73.7 87.129 74.64 91.807 74.64 97s-.939 9.871-2.437 13.231c-.75 1.681-1.629 3.011-2.58 3.914-.949.899-1.946 1.355-2.953 1.355s-2.004-.456-2.952-1.355c-.952-.903-1.831-2.233-2.58-3.914-1.499-3.36-2.438-8.038-2.438-13.231s.94-9.87 2.438-13.231c.749-1.681 1.628-3.011 2.58-3.913.948-.9 1.945-1.356 2.952-1.356Z"/><rect width="67" height="59" x="85" y="71" fill="url(#a)" rx="16"/><path fill="#fff" d="M127.44 86.68q2.56 0 4.56 1.08 2 1.04 3.16 3.16t1.16 5.16V109h-3.6V96.6q0-3.28-1.64-5-1.6-1.76-4.36-1.76-2.84 0-4.52 1.84-1.68 1.8-1.68 5.24V109h-3.6V96.6q0-3.28-1.64-5-1.6-1.76-4.36-1.76-2.84 0-4.52 1.84-1.68 1.8-1.68 5.24V109h-3.64V87.08h3.64v3.16a7.2 7.2 0 0 1 2.88-2.64q1.84-.92 4.04-.92 2.76 0 4.88 1.24t3.16 3.64q.92-2.32 3.04-3.6t4.72-1.28M54.32 63l-8.6-9.68V63h-3.64V33.4h3.64v17.4l8.44-9.72h5.08L48.92 52l10.36 11zM162.48 167.24q0-6.88 2.24-10.72 2.24-3.88 7.84-3.88 5.56 0 7.8 3.88 2.24 3.84 2.24 10.72 0 7-2.24 10.88t-7.8 3.88q-5.6 0-7.84-3.88t-2.24-10.88m16.52 0q0-3.48-.48-5.88-.44-2.44-1.88-3.92-1.4-1.48-4.08-1.48-2.72 0-4.16 1.48-1.4 1.48-1.88 3.92-.44 2.4-.44 5.88 0 3.6.44 6.04.48 2.44 1.88 3.92 1.44 1.48 4.16 1.48 2.68 0 4.08-1.48 1.44-1.48 1.88-3.92.48-2.44.48-6.04M139.72 37.96 144.8 49h-3.2l-4.04-8.76-7.04 8.76h-2.92l8.96-10.92-5.04-10.92h3.2l4 8.64 6.92-8.64h2.96zM268.88 168.92h-8.52v8.64h-3.4v-8.64h-8.48v-3.08h8.48v-8.68h3.4v8.68h8.52zm22.985 6.88h-12.16l-2.24 6.2h-3.84l10.08-27.72h4.2l10.04 27.72h-3.84zm-1.04-2.96-5.04-14.08-5.04 14.08zM48.28 161.8v3.08H32.32v-3.08zm23.311 10h-12.16l-2.24 6.2h-3.84l10.08-27.72h4.2L77.671 178h-3.84zm-1.04-2.96-5.04-14.08-5.04 14.08z"/><path stroke="#fff" stroke-width="3" d="M174.5 128v10M65.5 128v10M286.5 128v10"/><path fill="#fff" d="m110 60 5 2.887v-5.774zm63 0-5-2.887v5.774zm-58.5 0v.5h54v-1h-54z"/><path stroke="#fff" stroke-dasharray="6 6" d="M174.5 46v91"/><defs><linearGradient id="a" x1="118.5" x2="118.5" y1="71" y2="130" gradientUnits="userSpaceOnUse"><stop stop-color="#a7ff70"/><stop offset="1" stop-color="#478734"/></linearGradient></defs></svg>