<svg xmlns="http://www.w3.org/2000/svg" width="300" height="200" fill="none" viewBox="0 0 300 200"><path fill="#000" d="M0 0h300v200H0z"/><path fill="#000" d="m91.216 174 2.909-17.455h1.966l-.455 2.682h.182a5.53 5.53 0 0 1 2.114-2.125q1.352-.783 3.068-.784 1.795 0 2.818.852 1.023.842 1.364 2.319h.148a6 6 0 0 1 2.306-2.307q1.489-.864 3.398-.864 2.42 0 3.58 1.534 1.159 1.535.67 4.455L113.33 174h-2.023l1.954-11.693q.33-2.068-.534-3.102-.863-1.035-2.591-1.035-2 0-3.306 1.228-1.296 1.215-1.603 3.113L103.307 174h-2.068l1.988-11.875q.285-1.772-.511-2.864-.784-1.09-2.58-1.091-1.215 0-2.284.603a5.4 5.4 0 0 0-1.795 1.647 5.8 5.8 0 0 0-.955 2.398L93.24 174z"/><path fill="#f7ff00" d="M157.102 59.727 153.239 83h-2.023l3.864-23.273z"/><path fill="#fff" d="M246.045 106.398q-1.58 0-2.784-.614a4.04 4.04 0 0 1-1.795-1.795q-.58-1.182-.318-2.864.227-1.295.863-2.182a5.2 5.2 0 0 1 1.637-1.454 8.8 8.8 0 0 1 2.272-.91 20.5 20.5 0 0 1 2.796-.5q1.477-.18 2.523-.318 1.045-.135 1.625-.431.579-.296.693-.955l.068-.41q.295-1.783-.545-2.806-.841-1.035-2.819-1.034-1.886 0-3.272.84-1.375.831-2.046 1.944l-1.795-.693q.818-1.432 2.011-2.284a7.9 7.9 0 0 1 2.557-1.239 9.9 9.9 0 0 1 2.693-.386q1 0 2.034.261 1.035.261 1.852.91.83.636 1.216 1.783.398 1.137.114 2.887L253.648 106h-2.023l.466-2.761h-.125q-.478.772-1.318 1.5a6.9 6.9 0 0 1-1.989 1.193q-1.16.465-2.614.466m.512-1.853q1.614 0 2.92-.715a6.3 6.3 0 0 0 2.159-1.898 6.2 6.2 0 0 0 1.091-2.625l.421-2.523q-.25.216-.818.386-.558.17-1.262.307-.693.126-1.398.216l-1.227.16q-1.51.18-2.636.568-1.114.386-1.784 1.068-.671.67-.841 1.727-.261 1.59.693 2.466.966.863 2.682.863"/><path stroke="#fff" d="m146.42 13.271-60 93"/><circle cx="77" cy="123" r="23" fill="url(#a)"/><path fill="#f7ff00" d="m168.748 19-10.378 5.062 9.573 6.457zM105 113.51l10.378-5.062-9.572-6.457zm58.715-87.049-.829-.559-53.682 79.588.829.559.829.559 53.682-79.587z"/><path stroke="url(#b)" stroke-width="15" d="M29.5 7.5h170v185h-170z"/><path fill="#fff" d="M212 119a1 1 0 0 0 0 2zm87 1-10-5.774v11.548zm-87 0v1h78v-2h-78z"/><defs><linearGradient id="a" x1="77" x2="77" y1="100" y2="146" gradientUnits="userSpaceOnUse"><stop stop-color="#69ff0c"/><stop offset="1" stop-color="#c9ffa7"/></linearGradient><linearGradient id="b" x1="114.5" x2="114.5" y1="0" y2="200" gradientUnits="userSpaceOnUse"><stop stop-color="#fff"/><stop offset="1" stop-color="#999"/></linearGradient></defs></svg>