<svg xmlns="http://www.w3.org/2000/svg" width="300" height="200" fill="none" viewBox="0 0 300 200"><path fill="#000" d="M0 0h300v200H0z"/><path stroke="#fff" stroke-width="2" d="M0-1h12.605" transform="matrix(-.75454 .65626 -.6107 -.79187 196.785 19.926)"/><path stroke="#fff" stroke-width="2" d="M0-1h12.605" transform="matrix(-.75454 .65626 -.6107 -.79187 177.511 20)"/><path stroke="#fff" stroke-width="2" d="M0-1h12.605" transform="matrix(-.75454 .65626 -.6107 -.79187 161.267 20.36)"/><path stroke="#fff" stroke-width="2" d="M0-1h12.605" transform="matrix(-.75454 .65626 -.6107 -.79187 147.828 19.523)"/><path stroke="#fff" stroke-width="2" d="M0-1h12.605" transform="matrix(-.75454 .65626 -.6107 -.79187 131.509 19.722)"/><path stroke="#fff" stroke-width="2" d="m0-1 12.605 3.984" transform="matrix(-.75454 .65626 -.6107 -.79187 118.944 19.155)"/><path stroke="#fff" stroke-width="2" d="M194 29h-87"/><path fill="#8b8b8b" stroke="#fff" d="M150 131.5c26.758 0 50.966 2.684 68.47 7.015 8.755 2.166 15.806 4.738 20.655 7.575 4.884 2.857 7.375 5.885 7.375 8.91s-2.491 6.053-7.375 8.91c-4.849 2.837-11.9 5.409-20.655 7.575-17.504 4.331-41.712 7.015-68.47 7.015s-50.966-2.684-68.47-7.015c-8.755-2.166-15.806-4.738-20.655-7.575-4.884-2.857-7.375-5.885-7.375-8.91s2.49-6.053 7.375-8.91c4.85-2.837 11.9-5.409 20.655-7.575 17.504-4.331 41.712-7.015 68.47-7.015Z"/><path stroke="#fff" stroke-width="3" d="M150.5 29v119"/></svg>