<svg xmlns="http://www.w3.org/2000/svg" width="300" height="200" fill="none" viewBox="0 0 300 200"><path fill="#000" d="M0 0h300v200H0z"/><path fill="#f7ff00" d="m270 173-7.946-8.378-3.283 11.07zm-145-43-.284.959L261.087 171.4l.284-.959.285-.959-136.372-40.441z"/><path fill="#fff" d="m222 80-11.447-1.514 4.412 10.67zm-104 43 .382.924 95.683-39.561-.382-.924-.382-.924-95.683 39.561z"/><circle cx="117.5" cy="122.5" r="26.5" fill="url(#a)"/><path fill="#f7ff00" d="M179.188 181.281q-1.142 0-2-.429a2.8 2.8 0 0 1-1.274-1.258q-.414-.828-.226-2 .179-1.032.695-1.672a3.7 3.7 0 0 1 1.25-1.016 6.5 6.5 0 0 1 1.594-.554 18 18 0 0 1 1.711-.289q1.109-.141 1.804-.219t1.047-.258q.351-.18.43-.617v-.063q.187-1.148-.305-1.789-.492-.648-1.758-.648-1.313 0-2.195.578-.883.578-1.305 1.234l-1.625-.625q.64-1.094 1.532-1.703a5.7 5.7 0 0 1 1.867-.859 7.6 7.6 0 0 1 1.883-.25q.578 0 1.304.14.727.133 1.36.555.64.422.961 1.273.328.852.093 2.282L184.719 181h-1.844l.281-1.625h-.093q-.25.39-.766.836-.508.445-1.289.758-.774.312-1.82.312m.531-1.656q1.094 0 1.914-.43a3.76 3.76 0 0 0 1.328-1.109q.507-.68.633-1.43l.281-1.687q-.141.14-.555.258-.414.109-.937.195-.516.078-1.008.14a51 51 0 0 0-.781.094 8 8 0 0 0-1.399.305 2.9 2.9 0 0 0-1.109.617q-.445.407-.555 1.109-.163.961.461 1.454.625.484 1.727.484"/><path fill="#fff" d="m169.5 76-6.437 12h-1.875l-2.438-12h1.922l1.719 9.563h.125L167.422 76z"/><defs><linearGradient id="a" x1="117.5" x2="117.5" y1="96" y2="149" gradientUnits="userSpaceOnUse"><stop stop-color="#5af8f0"/><stop offset="1" stop-color="#105e70"/></linearGradient></defs></svg>