<svg xmlns="http://www.w3.org/2000/svg" width="300" height="200" fill="none" viewBox="0 0 300 200"><path fill="#000" d="M0 0h300v200H0z"/><path stroke="#fff" d="M18 172.5h271M36.329 172.376l-16 14M68.329 172.376l-16 14M100.329 172.376l-16 14M196.329 173.376l-16 14M228.329 173.376l-16 14M260.329 173.376l-16 14M132.329 172.376l-16 14M164.329 172.376l-16 14"/><circle cx="72.5" cy="35.5" r="18.5" fill="url(#a)"/><path fill="#fff" d="M175.469 104.25q.492-2.953 1.664-5.43a20.6 20.6 0 0 1 2.961-4.57h1.625q-.688.774-1.367 1.906a22 22 0 0 0-1.266 2.477 27 27 0 0 0-1.031 2.781 22 22 0 0 0-.68 2.836 20.3 20.3 0 0 0-.273 3.773 20 20 0 0 0 .382 3.555q.345 1.641.922 2.672h-1.625q-1.077-2.086-1.445-4.563-.36-2.484.133-5.437m9.564-5.25 2.063 4.906L190.783 99h2.125l-4.875 6 2.875 6h-2.125l-2.094-4.656-3.656 4.656h-2.125l4.813-6-2.813-6zm11.631 9.812-.281.844a20 20 0 0 1-.719 1.907 55 55 0 0 1-.867 1.914q-.43.898-.695 1.429h-1.407q.172-.5.469-1.32t.633-1.828.617-2.071l.25-.875zm3.494 6.688q-.468 0-.828-.078-.351-.07-.484-.141l.75-1.625q.64.172 1.14.102.508-.063.961-.492.462-.423.961-1.328l.516-.938-2.406-12h1.921l1.719 9.594h.125L209.439 99h2.079l-7.36 13.734q-.516.961-1.133 1.571a4.05 4.05 0 0 1-1.336.898 4 4 0 0 1-1.531.297m16.856-11.25q-.493 2.953-1.672 5.437a20.5 20.5 0 0 1-2.953 4.563h-1.625q.695-.774 1.367-1.906.672-1.125 1.258-2.469.594-1.352 1.039-2.789.445-1.446.679-2.836.313-1.86.266-3.773a19.3 19.3 0 0 0-.383-3.555q-.335-1.64-.914-2.672h1.625q1.078 2.086 1.438 4.57.367 2.477-.125 5.43M123.063 17.094 124.25 10h1.844l-2 12h-1.844l.344-2.031h-.125q-.563.914-1.571 1.554-1.006.633-2.367.633-1.125 0-1.922-.492-.789-.5-1.125-1.5-.327-1.008-.078-2.539L116.688 10h1.843l-1.25 7.5q-.21 1.313.399 2.094t1.758.781q.687 0 1.453-.352a3.86 3.86 0 0 0 1.375-1.078q.61-.726.797-1.851"/><path fill="url(#b)" d="M60 54h26v118H60z"/><path stroke="#fff" stroke-dasharray="4 4" stroke-width="2" d="M90.844 34.712c54.044-1.666 91.245 12.45 128.732 48.846C248.183 111.333 265 172 265 172"/><path fill="#fff" d="m163 32-10-5.773v11.546zm-72 0v1h63v-2H91z"/><circle cx="224" cy="89" r="4" fill="#fff"/><defs><linearGradient id="a" x1="72.5" x2="72.5" y1="17" y2="54" gradientUnits="userSpaceOnUse"><stop stop-color="#5af8f0"/><stop offset="1" stop-color="#105e70"/></linearGradient><linearGradient id="b" x1="73" x2="73" y1="54" y2="172" gradientUnits="userSpaceOnUse"><stop stop-color="#d9d9d9"/><stop offset="1" stop-color="#737373"/></linearGradient></defs></svg>