<svg xmlns="http://www.w3.org/2000/svg" width="300" height="200" fill="none" viewBox="0 0 300 200"><path fill="#000" d="M0 0h300v200H0z"/><path fill="#fff" d="M261.712 164.718a1 1 0 0 0 0-1.414l-6.364-6.364a.999.999 0 1 0-1.414 1.414l5.657 5.657-5.657 5.657a.999.999 0 1 0 1.414 1.414zm-198.717-.707v1h198.01v-2H62.995zM64.707 14.293a1 1 0 0 0-1.414 0l-6.364 6.364a1 1 0 0 0 1.414 1.414L64 16.414l5.657 5.657a1 1 0 0 0 1.414-1.414zM64 163h1V15h-2v148zM40.326 98.996 45.248 107h-2.369l-3.841-6.256L35.381 107h-2.323l4.899-8.004-4.922-8.027h2.346l3.864 6.279 3.68-6.279h2.346zM155.324 180.121v7.429q0 .92.391 1.311.391.368 1.357.368h1.541V191h-1.886q-1.747 0-2.622-.805t-.874-2.645v-7.429h-1.633v-1.725h1.633v-3.174h2.093v3.174h3.289v1.725z"/><path stroke="#f7ff00" stroke-width="2" d="m64.478 115.147 147-90"/></svg>