<svg xmlns="http://www.w3.org/2000/svg" width="300" height="200" fill="none" viewBox="0 0 300 200"><path fill="#000" d="M0 0h300v200H0z"/><path stroke="#fff" d="M58 174.5h173M76.329 174.376l-16 14M108.329 174.376l-16 14M140.329 174.376l-16 14M172.329 174.376l-16 14M204.329 174.376l-16 14"/><path stroke="#fff" stroke-dasharray="5 5" stroke-width="2" d="M149 174V48"/><circle cx="149.5" cy="27.5" r="18.5" fill="url(#a)"/><path fill="#f7ff00" d="M72.719 87.781 71.53 95h-1.844l2.657-16h1.844l-.97 5.875h.157a4.2 4.2 0 0 1 1.5-1.484q.945-.547 2.375-.547 1.219 0 2.055.492.843.484 1.187 1.492.352 1 .102 2.547L79.313 95h-1.844l1.25-7.5q.234-1.43-.383-2.21-.61-.79-1.898-.79-.907 0-1.688.383A3.6 3.6 0 0 0 73.438 86q-.532.734-.72 1.781"/><path fill="#f1ff26" d="m89 174 5.773-10H83.227zm0-151-5.773 10h11.546zm0 142h1V32h-2v133z"/><path fill="url(#b)" d="M100 23h26v151h-26z"/><defs><linearGradient id="a" x1="149.5" x2="149.5" y1="9" y2="46" gradientUnits="userSpaceOnUse"><stop stop-color="#5af8f0"/><stop offset="1" stop-color="#105e70"/></linearGradient><linearGradient id="b" x1="113" x2="113" y1="23" y2="174" gradientUnits="userSpaceOnUse"><stop stop-color="#d9d9d9"/><stop offset="1" stop-color="#737373"/></linearGradient></defs></svg>