<svg xmlns="http://www.w3.org/2000/svg" width="300" height="200" fill="none" viewBox="0 0 300 200"><g clip-path="url(#a)"><path fill="#000" d="M0 0h300v200H0z"/><path stroke="#fff" stroke-dasharray="5 5" stroke-width="2" d="M24 240c3.226-253.863 271-253.863 271-4.79"/><circle cx="36.5" cy="155.5" r="18.5" fill="url(#b)"/><path fill="#fff" d="M33.063 117.094 34.25 110h1.844l-2 12H32.25l.344-2.031h-.125q-.563.913-1.57 1.554-1.008.633-2.368.633-1.125 0-1.922-.492-.788-.5-1.125-1.5-.327-1.008-.078-2.539L26.688 110h1.843l-1.25 7.5q-.21 1.313.399 2.094t1.758.781q.687 0 1.453-.352a3.84 3.84 0 0 0 1.375-1.078q.61-.726.797-1.851"/><path fill="#f7ff00" d="m152.938 152 2.656-16H161q1.875 0 2.969.633 1.101.633 1.492 1.742.399 1.11.164 2.531a6 6 0 0 1-1 2.5q-.758 1.094-2.062 1.719-1.297.625-3.157.625h-4.375l.313-1.75h4.312q1.281 0 2.125-.375t1.313-1.07q.469-.696.625-1.649.156-.969-.086-1.679-.234-.72-.961-1.11-.719-.398-2.016-.398h-3.406L154.875 152zm8.718-7.188 2.75 7.188h-2.25l-2.687-7.188z"/><path fill="#fff" d="m55 88-8.11 8.219 11.172 2.915zm-18 69 .968.252 15.728-60.291-.968-.252-.967-.253-15.729 60.292z"/><path fill="url(#c)" d="M0 174h300v28H0z"/><path fill="#f1ff26" d="m36 165 10 5.774v-11.548zm248 0-10-5.774v11.547zm-239 0v1h230v-2H45z"/><path stroke="#fff" d="M36 156.5h53"/><path stroke="#fff" stroke-width="2" d="M40 142c8 1.6 10.667 10.667 11 15"/><path fill="#fff" d="m67.219 140.344-.281 1.719h-7.626l.282-1.719zm1.156-.188-.312 1.907q-.406 2.452-1.282 4.039-.867 1.586-2.11 2.351a5.1 5.1 0 0 1-2.734.766q-1.5 0-2.5-.766-.991-.765-1.359-2.351-.36-1.587.047-4.039l.313-1.907q.406-2.437 1.273-3.992.874-1.554 2.11-2.297a5.24 5.24 0 0 1 2.742-.742q1.515 0 2.507.742 1 .743 1.352 2.297.36 1.555-.047 3.992m-2.25 2.25.438-2.594q.265-1.608.062-2.734-.195-1.125-.797-1.711-.593-.585-1.516-.586-1.36 0-2.468 1.313-1.102 1.305-1.5 3.718l-.438 2.594q-.398 2.415.274 3.789.68 1.368 2.039 1.367.922 0 1.71-.617.79-.617 1.36-1.773t.836-2.766"/></g><defs><linearGradient id="b" x1="36.5" x2="36.5" y1="137" y2="174" gradientUnits="userSpaceOnUse"><stop stop-color="#5af8f0"/><stop offset="1" stop-color="#105e70"/></linearGradient><linearGradient id="c" x1="154.24" x2="154.24" y1="209" y2="164.9" gradientUnits="userSpaceOnUse"><stop stop-color="#c97c00"/><stop offset="1" stop-color="#633d00"/></linearGradient><clipPath id="a"><path fill="#fff" d="M0 0h300v200H0z"/></clipPath></defs></svg>