<svg xmlns="http://www.w3.org/2000/svg" width="300" height="200" fill="none" viewBox="0 0 300 200"><path fill="#000" d="M0 0h300v200H0z"/><path stroke="#fff" d="M58 174.5h173M76.329 174.376l-16 14M108.329 174.376l-16 14M140.329 174.376l-16 14M172.329 174.376l-16 14M204.329 174.376l-16 14"/><path stroke="#fff" stroke-dasharray="5 5" stroke-width="2" d="M130 145V28M172 175V28"/><circle cx="131.5" cy="155.5" r="18.5" fill="url(#a)"/><path stroke="#fff" stroke-dasharray="5 5" stroke-width="2" d="M130 28.938c.5-26.5 42-26.5 42-.5"/><path fill="#fff" d="M147.063 117.094 148.25 110h1.844l-2 12h-1.844l.344-2.031h-.125q-.563.913-1.571 1.554-1.006.633-2.367.633-1.124 0-1.922-.492-.789-.5-1.125-1.5-.327-1.008-.078-2.539l1.282-7.625h1.843l-1.25 7.5q-.21 1.313.399 2.094t1.758.781q.687 0 1.453-.352a3.85 3.85 0 0 0 1.375-1.078q.61-.726.797-1.851"/><path fill="#f7ff00" d="m209.938 102 2.656-16h1.937l-1.187 7.125h8.531L223.063 86H225l-2.656 16h-1.938l1.188-7.156h-8.531L211.875 102z"/><path fill="#f1ff26" d="m197 174 5.774-10h-11.548zm0-161-5.774 10h11.547zm0 152h1V22h-2v143z"/><path fill="#f7ff00" d="m51.938 149 2.656-16h1.937l-1.187 7.125h8.531L65.063 133H67l-2.656 16h-1.938l1.188-7.156h-8.532L53.876 149zm24.472-16.75-8.312 19.156H66.41l8.313-19.156zM75.783 149l.25-1.406 6.219-5.782a45 45 0 0 0 1.82-1.773q.735-.757 1.14-1.422a3.9 3.9 0 0 0 .54-1.398q.14-.844-.148-1.461a2.05 2.05 0 0 0-.915-.953q-.624-.336-1.5-.336-.921 0-1.68.383-.757.375-1.257 1.062a3.7 3.7 0 0 0-.656 1.586h-1.844a5.34 5.34 0 0 1 1.07-2.469 5.9 5.9 0 0 1 2.07-1.656 6 6 0 0 1 2.641-.594q1.407 0 2.383.594t1.414 1.602q.438 1.007.234 2.242a5.5 5.5 0 0 1-.617 1.726q-.46.837-1.414 1.867-.945 1.024-2.562 2.5l-4.219 3.844-.031.125h7.437L85.877 149z"/><path fill="#f1ff26" d="m101 174 5.774-10H95.227zm0-80-5.773 10h11.547zm0 71h1v-62h-2v62z"/><defs><linearGradient id="a" x1="131.5" x2="131.5" y1="137" y2="174" gradientUnits="userSpaceOnUse"><stop stop-color="#5af8f0"/><stop offset="1" stop-color="#105e70"/></linearGradient></defs></svg>