<svg xmlns="http://www.w3.org/2000/svg" width="300" height="200" fill="none" viewBox="0 0 300 200"><path fill="#000" d="M0 0h300v200H0z"/><path stroke="#fff" d="M58 174.5h173M76.329 174.376l-16 14M108.329 174.376l-16 14M140.329 174.376l-16 14M172.329 174.376l-16 14M204.329 174.376l-16 14"/><path stroke="#fff" stroke-dasharray="5 5" stroke-width="2" d="M130 145V28M172 175V28"/><circle cx="131.5" cy="155.5" r="18.5" fill="url(#a)"/><path stroke="#fff" stroke-dasharray="5 5" stroke-width="2" d="M130 28.938c.5-26.5 42-26.5 42-.5"/><path fill="#fff" d="M147.063 117.094 148.25 110h1.844l-2 12h-1.844l.344-2.031h-.125q-.563.913-1.571 1.554-1.006.633-2.367.633-1.124 0-1.922-.492-.789-.5-1.125-1.5-.327-1.008-.078-2.539l1.282-7.625h1.843l-1.25 7.5q-.21 1.313.399 2.094t1.758.781q.687 0 1.453-.352a3.85 3.85 0 0 0 1.375-1.078q.61-.726.797-1.851"/><path fill="#f7ff00" d="m209.938 102 2.656-16h1.937l-1.187 7.125h8.531L223.063 86H225l-2.656 16h-1.938l1.188-7.156h-8.531L211.875 102z"/><path fill="#f1ff26" d="m197 174 5.774-10h-11.548zm0-161-5.774 10h11.547zm0 152h1V22h-2v143z"/><defs><linearGradient id="a" x1="131.5" x2="131.5" y1="137" y2="174" gradientUnits="userSpaceOnUse"><stop stop-color="#5af8f0"/><stop offset="1" stop-color="#105e70"/></linearGradient></defs></svg>