<svg xmlns="http://www.w3.org/2000/svg" width="300" height="200" fill="none" viewBox="0 0 300 200"><path fill="#000" d="M0 0h300v200H0z"/><path fill="#fff" d="m62 21-5.773 10h11.547zm0 144h1V30h-2v135z"/><path fill="#fff" d="m256 165-10-5.774v11.548zm-194 0v1h185v-2H62zM38.54 87.636l2.812 6.69 5.029-6.69h2.897l-6.647 8.182L46.55 104h-2.898l-2.855-6.35-4.986 6.35h-2.897l6.562-8.182-3.835-8.182zM152.781 176.636l-.341 2.131h-8.48l.341-2.131zm-5.369-3.92h2.514l-2.599 15.596q-.17 1.066.053 1.599.235.522.703.703.48.17 1.033.17.416 0 .682-.043l.426-.085.171 2.259a7 7 0 0 1-.778.192 5.6 5.6 0 0 1-1.182.106 4.5 4.5 0 0 1-2.003-.458 3.17 3.17 0 0 1-1.438-1.396q-.501-.937-.267-2.365z"/><path stroke="#f7ff00" stroke-width="2" d="M231 148.5c-30.5 0-140-22-169-106.5"/></svg>