<svg xmlns="http://www.w3.org/2000/svg" width="300" height="200" fill="none" viewBox="0 0 300 200"><g clip-path="url(#a)"><path fill="#000" d="M0 0h300v200H0z"/><path stroke="#fff" stroke-dasharray="5 5" stroke-width="2" d="M24 240c3.226-253.863 271-253.863 271-4.79"/><circle cx="36.5" cy="155.5" r="18.5" fill="url(#b)"/><path fill="#fff" d="M33.063 117.094 34.25 110h1.844l-2 12H32.25l.344-2.031h-.125q-.563.913-1.57 1.554-1.008.633-2.368.633-1.125 0-1.922-.492-.788-.5-1.125-1.5-.327-1.008-.078-2.539L26.688 110h1.843l-1.25 7.5q-.21 1.313.399 2.094t1.758.781q.687 0 1.453-.352a3.84 3.84 0 0 0 1.375-1.078q.61-.726.797-1.851M55 88l-8.11 8.219 11.172 2.915zm-18 69 .968.252 15.728-60.291-.968-.252-.967-.253-15.729 60.292z"/><path fill="url(#c)" d="M0 174h300v28H0z"/><path stroke="#fff" d="M36 156.5h53"/><path stroke="#fff" stroke-width="2" d="M40 142c8 1.6 10.667 10.667 11 15"/><path fill="#fff" d="m67.219 140.344-.281 1.719h-7.626l.282-1.719zm1.156-.188-.312 1.907q-.406 2.452-1.282 4.039-.867 1.586-2.11 2.351a5.1 5.1 0 0 1-2.734.766q-1.5 0-2.5-.766-.991-.765-1.359-2.351-.36-1.587.047-4.039l.313-1.907q.406-2.437 1.273-3.992.874-1.554 2.11-2.297a5.24 5.24 0 0 1 2.742-.742q1.515 0 2.507.742 1 .743 1.352 2.297.36 1.555-.047 3.992m-2.25 2.25.438-2.594q.265-1.608.062-2.734-.195-1.125-.797-1.711-.593-.585-1.516-.586-1.36 0-2.468 1.313-1.102 1.305-1.5 3.718l-.438 2.594q-.398 2.415.274 3.789.68 1.368 2.039 1.367.922 0 1.71-.617.79-.617 1.36-1.773t.836-2.766"/><circle cx="94.5" cy="70.5" r="4.5" fill="#fff"/><path fill="#fff" d="M105.469 86.25q.492-2.953 1.664-5.43a20.6 20.6 0 0 1 2.961-4.57h1.625q-.688.774-1.367 1.906a22 22 0 0 0-1.266 2.477 27 27 0 0 0-1.031 2.781 22 22 0 0 0-.68 2.836 20.3 20.3 0 0 0-.273 3.773q.046 1.914.382 3.555.345 1.64.922 2.672h-1.625q-1.077-2.086-1.445-4.562-.36-2.486.133-5.438m9.564-5.25 2.063 4.906L120.783 81h2.125l-4.875 6 2.875 6h-2.125l-2.094-4.656L113.033 93h-2.125l4.813-6-2.813-6zm11.631 9.813-.281.843a20 20 0 0 1-.719 1.906 55 55 0 0 1-.867 1.915q-.43.898-.695 1.43h-1.407q.172-.5.469-1.321.297-.82.633-1.828t.617-2.07l.25-.876zm3.494 6.687a4 4 0 0 1-.828-.078q-.352-.07-.484-.14l.75-1.626q.64.172 1.14.102.508-.063.961-.492.462-.422.961-1.329l.516-.937-2.406-12h1.921l1.719 9.594h.125L139.439 81h2.079l-7.36 13.734q-.516.961-1.133 1.57a4 4 0 0 1-1.336.9 4 4 0 0 1-1.531.296m16.856-11.25q-.493 2.953-1.672 5.438a20.5 20.5 0 0 1-2.953 4.562h-1.625q.695-.774 1.367-1.906.672-1.125 1.258-2.469.594-1.35 1.039-2.79a22 22 0 0 0 .679-2.835q.313-1.86.266-3.773a19.3 19.3 0 0 0-.383-3.555q-.335-1.64-.914-2.672h1.625q1.078 2.086 1.438 4.57.367 2.477-.125 5.43"/></g><defs><linearGradient id="b" x1="36.5" x2="36.5" y1="137" y2="174" gradientUnits="userSpaceOnUse"><stop stop-color="#5af8f0"/><stop offset="1" stop-color="#105e70"/></linearGradient><linearGradient id="c" x1="154.24" x2="154.24" y1="209" y2="164.9" gradientUnits="userSpaceOnUse"><stop stop-color="#c97c00"/><stop offset="1" stop-color="#633d00"/></linearGradient><clipPath id="a"><path fill="#fff" d="M0 0h300v200H0z"/></clipPath></defs></svg>