<svg xmlns="http://www.w3.org/2000/svg" width="300" height="200" fill="none" viewBox="0 0 300 200"><path fill="#000" d="M0 0h300v200H0z"/><path fill="#fff" d="m62 21-5.773 10h11.547zm0 144h1V30h-2v135z"/><path fill="#fff" d="m256 165-10-5.774v11.548zm-194 0v1h185v-2H62zM38.71 104.384q-1.555 0-2.727-.586-1.172-.597-1.737-1.716-.564-1.129-.309-2.727.246-1.405.949-2.28a5 5 0 0 1 1.704-1.385q1.013-.51 2.173-.756a25 25 0 0 1 2.334-.394q1.512-.192 2.46-.299.949-.106 1.428-.351.48-.245.586-.842v-.085q.255-1.566-.415-2.44-.672-.885-2.398-.884-1.789 0-2.993.789-1.204.788-1.78 1.683l-2.215-.853q.873-1.491 2.088-2.322a7.7 7.7 0 0 1 2.546-1.172q1.332-.34 2.568-.34.788 0 1.779.191a4.9 4.9 0 0 1 1.853.756q.875.576 1.31 1.737.45 1.161.129 3.11L46.253 104h-2.514l.383-2.216h-.128q-.34.533-1.044 1.14-.691.607-1.758 1.033-1.054.427-2.482.427m.725-2.259q1.491 0 2.61-.586 1.13-.586 1.81-1.513.694-.926.864-1.95l.383-2.3q-.192.191-.756.351-.566.15-1.278.267-.704.105-1.375.191-.66.075-1.065.128-1.001.128-1.907.416-.895.276-1.513.841-.608.555-.756 1.513-.224 1.31.628 1.981.852.661 2.355.661M152.781 176.636l-.341 2.131h-8.48l.341-2.131zm-5.369-3.92h2.514l-2.599 15.596q-.17 1.066.053 1.599.235.522.703.703.48.17 1.033.17.416 0 .682-.043l.426-.085.171 2.259a7 7 0 0 1-.778.192 5.6 5.6 0 0 1-1.182.106 4.5 4.5 0 0 1-2.003-.458 3.17 3.17 0 0 1-1.438-1.396q-.501-.937-.267-2.365z"/><path stroke="#f7ff00" stroke-width="2" d="M62 98.332C116.568-23.34 202.737 80.08 239 147"/></svg>