<svg xmlns="http://www.w3.org/2000/svg" width="300" height="200" fill="none" viewBox="0 0 300 200"><path fill="#000" d="M0 0h300v200H0z"/><path fill="#fff" d="M54.707 17.293a1 1 0 0 0-1.414 0l-6.364 6.364a1 1 0 0 0 1.414 1.414L54 19.414l5.657 5.657a1 1 0 0 0 1.414-1.414zM54 160h1V18h-2v142z"/><path fill="#fff" d="M270.707 160.707a1 1 0 0 0 0-1.414l-6.364-6.364a.999.999 0 1 0-1.414 1.414l5.657 5.657-5.657 5.657a.999.999 0 1 0 1.414 1.414zM54 160v1h216v-2H54zM38.349 116l-2.99-4.692L32.484 116h-2.185l4.071-6.256-4.071-6.348h2.369l2.99 4.669 2.852-4.669h2.185l-4.048 6.233L40.718 116zM151.324 180.121v7.429q0 .92.391 1.311.391.368 1.357.368h1.541V191h-1.886q-1.747 0-2.622-.805t-.874-2.645v-7.429h-1.633v-1.725h1.633v-3.174h2.093v3.174h3.289v1.725z"/><path stroke="#f7ff00" stroke-width="2" d="M56 159c31.321-80.188 70.475-97.213 106.771-85.806C199.435 84.716 233.184 125.25 253 159"/></svg>