<svg xmlns="http://www.w3.org/2000/svg" width="300" height="200" fill="none" viewBox="0 0 300 200"><g clip-path="url(#a)"><path fill="#000" d="M0 0h300v200H0z"/><path stroke="#fff" stroke-dasharray="5 5" stroke-width="2" d="M24 240c3.226-253.863 271-253.863 271-4.79"/><circle cx="36.5" cy="155.5" r="18.5" fill="url(#b)"/><path fill="#fff" d="M17.063 114.094 18.25 107h1.844l-2 12H16.25l.344-2.031h-.125q-.563.913-1.57 1.554-1.008.633-2.368.633-1.125 0-1.922-.492-.788-.5-1.125-1.5-.327-1.008-.078-2.539L10.687 107h1.844l-1.25 7.5q-.21 1.313.399 2.094t1.758.781q.687 0 1.453-.352a3.84 3.84 0 0 0 1.375-1.078q.61-.726.797-1.851m3.814 10.781q-.399 0-.703-.078a2 2 0 0 1-.453-.141l.593-1.312q.633.234 1.079.07.453-.164.828-.82l.375-.656-1.532-8.188h1.75l.907 6.344h.062l3.031-6.344h1.782l-4.75 9.125a4.26 4.26 0 0 1-1.203 1.445q-.735.555-1.766.555M72.063 140.094 73.25 133h1.844l-2 12H71.25l.344-2.031h-.125q-.563.913-1.57 1.554-1.008.633-2.368.633-1.124 0-1.922-.492-.788-.5-1.125-1.5-.327-1.008-.078-2.539L65.687 133h1.844l-1.25 7.5q-.21 1.313.399 2.094.61.781 1.757.781.688 0 1.454-.352a3.84 3.84 0 0 0 1.375-1.078q.609-.726.796-1.851m5.939-.344 1.188 3.031 2.218-3.031h1.75l-3.031 3.969 1.781 4.031H80.19l-1.312-3.063-2.312 3.063h-1.75l3.124-4.031-1.687-3.969zM37 83l-5.773 10h11.546zm0 74h1V92h-2v65z"/><path fill="#fff" d="m108 157-10-5.774v11.548zm-71 0v1h62v-2H37z"/><path fill="url(#c)" d="M0 174h300v28H0z"/><path stroke="#fff" d="M36 156.5h53"/></g><defs><linearGradient id="b" x1="36.5" x2="36.5" y1="137" y2="174" gradientUnits="userSpaceOnUse"><stop stop-color="#5af8f0"/><stop offset="1" stop-color="#105e70"/></linearGradient><linearGradient id="c" x1="154.24" x2="154.24" y1="209" y2="164.9" gradientUnits="userSpaceOnUse"><stop stop-color="#c97c00"/><stop offset="1" stop-color="#633d00"/></linearGradient><clipPath id="a"><path fill="#fff" d="M0 0h300v200H0z"/></clipPath></defs></svg>