<svg xmlns="http://www.w3.org/2000/svg" width="300" height="200" fill="none" viewBox="0 0 300 200"><path fill="#000" d="M0 0h300v200H0z"/><path fill="#fff" d="m45 20-5.773 10h11.547zm0 115h1V29h-2v106z"/><circle cx="44" cy="135" r="31" fill="url(#a)"/><path fill="#fff" d="m43.938 125-2.657 16h-1.937l2.312-13.969h-.093l-4.344 2.594.343-1.969L42 125zM287 158l-10-5.774v11.548zm-139 0v1h130v-2H148z"/><circle cx="148" cy="157" r="31" fill="url(#b)"/><path fill="#fff" d="m142.656 164 .25-1.406 6.219-5.782a45 45 0 0 0 1.82-1.773q.735-.757 1.141-1.422.414-.665.539-1.398.14-.844-.148-1.461a2.05 2.05 0 0 0-.914-.953q-.625-.336-1.5-.336-.923 0-1.68.383-.758.375-1.258 1.062a3.7 3.7 0 0 0-.656 1.586h-1.844a5.34 5.34 0 0 1 1.07-2.469 5.9 5.9 0 0 1 2.071-1.656 6 6 0 0 1 2.64-.594q1.407 0 2.383.594t1.414 1.602q.438 1.007.235 2.242a5.6 5.6 0 0 1-.618 1.726q-.46.837-1.414 1.867-.945 1.024-2.562 2.5l-4.219 3.844-.031.125h7.437L152.75 164z"/><defs><linearGradient id="a" x1="44" x2="44" y1="104" y2="166" gradientUnits="userSpaceOnUse"><stop stop-color="#5af8f0"/><stop offset="1" stop-color="#105e70"/></linearGradient><linearGradient id="b" x1="148" x2="148" y1="126" y2="188" gradientUnits="userSpaceOnUse"><stop stop-color="#9ff85a"/><stop offset="1" stop-color="#165d29"/></linearGradient></defs></svg>