<svg xmlns="http://www.w3.org/2000/svg" width="300" height="200" fill="none" viewBox="0 0 300 200"><path fill="#000" d="M0 0h300v200H0z"/><path stroke="#fff" d="M18 172.5h271M36.329 172.376l-16 14M68.329 172.376l-16 14M100.329 172.376l-16 14M196.329 173.376l-16 14M228.329 173.376l-16 14M260.329 173.376l-16 14M132.329 172.376l-16 14M164.329 172.376l-16 14"/><circle cx="72.5" cy="35.5" r="18.5" fill="url(#a)"/><path fill="#f7ff00" d="M28.719 113.781 27.53 121h-1.843l2.656-16h1.843l-.968 5.875h.156a4.2 4.2 0 0 1 1.5-1.484q.945-.547 2.375-.547 1.219 0 2.055.492.843.484 1.187 1.492.352 1 .102 2.547L35.312 121H33.47l1.25-7.5q.234-1.43-.383-2.211-.61-.789-1.898-.789-.907 0-1.688.383A3.6 3.6 0 0 0 29.438 112q-.532.734-.72 1.781"/><path fill="#f1ff26" d="m49 172 5.773-10H43.227zm0-118-5.773 10h11.547zm0 109h1V63h-2v100z"/><path fill="url(#b)" d="M60 54h26v118H60z"/><path stroke="#fff" stroke-dasharray="4 4" stroke-width="2" d="M90.844 34.712c54.044-1.666 91.245 12.45 128.732 48.846C248.183 111.333 265 172 265 172"/><path fill="#fff" d="m163 32-10-5.773v11.546zm-72 0v1h63v-2H91z"/><defs><linearGradient id="a" x1="72.5" x2="72.5" y1="17" y2="54" gradientUnits="userSpaceOnUse"><stop stop-color="#5af8f0"/><stop offset="1" stop-color="#105e70"/></linearGradient><linearGradient id="b" x1="73" x2="73" y1="54" y2="172" gradientUnits="userSpaceOnUse"><stop stop-color="#d9d9d9"/><stop offset="1" stop-color="#737373"/></linearGradient></defs></svg>