<svg xmlns="http://www.w3.org/2000/svg" width="300" height="200" fill="none" viewBox="0 0 300 200"><path fill="#000" d="M0 0h300v200H0z"/><path fill="#fff" d="m42.456 89.432.336-1.872h-7.104l.144-1.008q1.92-1.728 3.312-3.36a22 22 0 0 0 2.448-3.504q1.104-1.872 1.92-4.368h3.216q-1.248 3.36-3.84 6a87 87 0 0 1-5.52 5.232h5.616l.624-3.696 2.832-.288-.72 3.984h1.872L47.4 87.56h-1.824l-.336 1.872q-.144.816-.096.96t.432.24l1.248.144-.144.864h-6.72l.192-.864 1.584-.144q.384-.048.48-.192.096-.192.24-1.008m20.622-6.624-.288 1.68q-.576 3.696-2.4 5.568-1.776 1.824-4.56 1.824-3.168 0-4.512-2.16-1.344-2.208-.768-5.568l.336-1.68q1.296-7.392 6.912-7.392 3.168 0 4.464 2.16 1.344 2.16.816 5.568m-2.88-1.2q.48-2.784-.144-4.08-.624-1.344-2.16-1.344-1.488 0-2.4 1.248-.912 1.2-1.392 3.984l-.672 3.936q-.48 2.784.144 4.128.672 1.296 2.16 1.296 1.536 0 2.448-1.2.912-1.248 1.392-4.032zm13.583 30.144-.24 1.248H61.973l.24-1.248 2.688-.288q.816-.096 1.008-.384.192-.336.48-1.968l4.368-24.864q.288-1.68.192-1.968-.096-.336-.816-.384l-2.592-.288.192-1.248h11.568l-.192 1.248-2.688.288q-.768.048-1.008.384-.192.288-.48 1.968L72.581 97.64l13.92-13.68q1.392-1.392 1.44-1.68.096-.336-.624-.384l-2.4-.288.192-1.248h9.408l-.192 1.248-2.544.288q-.48.048-.816.192-.288.096-.72.528-.432.384-1.392 1.344l-9.168 9.024 6.384 16.128q.48 1.152.72 1.632.288.432.528.576.288.096.768.144l2.256.288-.24 1.248h-7.2l-6.384-16.896-4.416 4.368-1.536 8.64q-.288 1.632-.192 1.968.096.288.816.384zM36.912 109.688l3.552-1.968h2.4l-2.496 14.064q-.144.816-.096.96.096.144.432.192l1.344.144-.192.96h-7.008l.192-.96 1.824-.144q.384-.048.48-.192t.24-.96l2.208-12.288-2.304 1.296zm20.631 7.008q-.624 3.936-2.544 5.76t-4.848 1.824q-1.776 0-3.024-.816-1.248-.768-1.536-2.544l1.632-.528q.048 1.584.864 2.208.864.672 2.016.672 1.44 0 2.544-1.056 1.152-1.056 1.68-4.224l.288-1.584q-1.44 1.152-3.36 1.152-2.352 0-3.552-1.392-1.2-1.44-.912-3.648l.048-.576q.288-2.208 1.92-3.312 1.632-1.152 3.84-1.152 3.12 0 4.416 2.064t.768 5.616zm-7.872-4.08q-.24 1.776.192 2.784.48 1.008 1.824 1.008.768 0 1.584-.336.864-.384 1.632-1.344l.192-1.104q.528-2.832-.192-3.984-.672-1.152-2.064-1.152-1.152 0-2.016.864-.816.816-1.104 2.928zM203.456 91.432l.336-1.872h-7.104l.144-1.008q1.92-1.728 3.312-3.36a22 22 0 0 0 2.448-3.504q1.104-1.872 1.92-4.368h3.216q-1.248 3.36-3.84 6a87 87 0 0 1-5.52 5.232h5.616l.624-3.696 2.832-.288-.72 3.984h1.872l-.192 1.008h-1.824l-.336 1.872q-.144.816-.096.96t.432.24l1.248.144-.144.864h-6.72l.192-.864 1.584-.144q.384-.048.48-.192.096-.192.24-1.008m20.622-6.624-.288 1.68q-.576 3.696-2.4 5.568-1.776 1.824-4.56 1.824-3.168 0-4.512-2.16-1.344-2.208-.768-5.568l.336-1.68q1.296-7.392 6.912-7.392 3.168 0 4.464 2.16 1.344 2.16.816 5.568m-2.88-1.2q.48-2.784-.144-4.08-.624-1.344-2.16-1.344-1.488 0-2.4 1.248-.912 1.2-1.392 3.984l-.672 3.936q-.48 2.784.144 4.128.672 1.296 2.16 1.296 1.536 0 2.448-1.2.912-1.248 1.392-4.032zm15.839 31.872q-3.984 0-6.528-1.92-2.496-1.968-3.408-5.472-.912-3.552-.192-8.208l.528-3.216q1.104-6.864 4.752-10.8 3.696-3.984 9.456-3.984 3.552 0 5.76 1.488 2.208 1.44 2.976 3.744t-.048 4.848l-4.32 1.008q1.296-4.608.144-7.056-1.152-2.496-4.56-2.496t-5.808 2.544-3.36 8.304l-1.344 8.016q-1.008 6.096.528 8.88t5.568 2.784q2.304 0 4.368-1.392t3.12-5.04l2.976 1.008q-1.728 3.792-4.56 5.376-2.784 1.584-6.048 1.584m35.181-.24q-1.776 0-2.832-1.056-1.008-1.104-1.104-3.312-1.632 2.544-3.504 3.6-1.872 1.008-3.84 1.008-2.832 0-4.608-1.728-1.776-1.776-2.4-4.704t.048-6.528l.192-1.056q.624-3.36 2.208-5.76 1.632-2.4 3.936-3.648a9.83 9.83 0 0 1 4.896-1.296q2.016 0 3.504.816a6.4 6.4 0 0 1 2.496 2.208q.672-.528 1.296-1.2l1.248-1.344h1.68l-2.928 16.56q-.624 3.552-.48 4.704t.912 1.152q.72 0 1.536-.816.864-.864 1.536-2.88l1.68 1.056q-1.056 2.208-2.448 3.216t-3.024 1.008m-14.16-11.472q-.816 4.8.192 7.44 1.056 2.64 3.312 2.64.912 0 2.064-.48 1.152-.528 2.4-1.92 1.296-1.44 2.64-4.128l1.968-11.328q-.864-1.872-2.16-2.736-1.248-.864-2.976-.864-2.928 0-4.656 2.304-1.68 2.304-2.352 6.336zM206.696 121.288l-.816 4.752h-10.416l.24-1.296q.336-1.776.912-2.832a5.25 5.25 0 0 1 1.584-1.776q1.056-.768 2.688-1.584 2.448-1.248 3.36-2.496.912-1.296.912-3.072 0-2.4-1.776-2.4-1.488 0-2.256 1.104-.72 1.104-.912 3.216l-2.736-.384q0-1.968 1.44-3.504t4.368-1.536q2.688 0 3.792 1.2 1.104 1.152 1.104 2.736 0 1.536-.864 2.64-.864 1.056-2.448 1.968a81 81 0 0 1-3.792 1.92q-1.632.768-2.544 1.632-.864.912-1.248 2.352h6.24q.816 0 1.008-.096.24-.096.384-.528l.816-2.016zm16.946-4.08-.288 1.68q-.576 3.696-2.4 5.52-1.776 1.872-4.56 1.872-3.168 0-4.512-2.208-1.344-2.16-.768-5.52l.336-1.68q1.296-7.392 6.912-7.392 3.168 0 4.464 2.16 1.344 2.16.816 5.568m-2.88-1.2q.48-2.784-.144-4.08-.624-1.344-2.16-1.344-1.488 0-2.4 1.248-.912 1.2-1.392 3.984l-.672 3.936q-.48 2.784.144 4.08.672 1.344 2.16 1.344 1.536 0 2.448-1.248.912-1.2 1.392-3.984z"/><path fill="#ffff5b" d="m123 100 15 8.66V91.34zm54 0-15-8.66v17.32zm-40.5 0v1.5h27v-3h-27z"/></svg>