<svg xmlns="http://www.w3.org/2000/svg" width="300" height="200" fill="none" viewBox="0 0 300 200"><g clip-path="url(#a)"><path fill="#000" d="M0 0h300v200H0z"/><path stroke="#fff" stroke-width="2" d="M74 82v51M95 81v52M7 107h66.522M159 107H95.294M199.804 47.406l30.319 41.009M217.804 34.406l30.914 41.813M159.803 105.522l55.789-36.23m71.689-46.555-53.429 34.697M227.956 121.713l-27.79 42.763M246.11 132.317l-28.335 43.602M158.154 106.168l55.779 36.247m71.674 46.576-53.418-34.713"/><circle cx="5.5" cy="106.5" r="4.5" fill="#ff2"/><circle cx="158.5" cy="106.5" r="4.5" fill="#ff2"/><circle cx="285.5" cy="22.5" r="4.5" fill="#ff2"/><circle cx="285.5" cy="188.5" r="4.5" fill="#ff2"/><path fill="#fff" d="M92.678 55h-1.85a5.1 5.1 0 0 0-.418-1.929 4.76 4.76 0 0 0-2.744-2.595q-.954-.368-2.138-.368-1.949 0-3.728 1.024-1.78 1.014-3.063 2.983-1.282 1.97-1.75 4.813-.467 2.803.15 4.723.615 1.909 2.018 2.893 1.412.984 3.31.984 1.214 0 2.328-.368a7.8 7.8 0 0 0 2.048-1.024 8 8 0 0 0 1.64-1.56 7.1 7.1 0 0 0 1.094-1.94h1.87a10.1 10.1 0 0 1-1.363 2.615 10 10 0 0 1-2.068 2.108 9.5 9.5 0 0 1-2.615 1.412 8.9 8.9 0 0 1-3.023.507q-2.605 0-4.404-1.302-1.79-1.302-2.546-3.67-.746-2.376-.209-5.597.528-3.162 2.019-5.489 1.5-2.327 3.679-3.59a9.2 9.2 0 0 1 4.733-1.272q1.63 0 2.923.507a6.15 6.15 0 0 1 2.198 1.412 6.2 6.2 0 0 1 1.401 2.108q.487 1.203.508 2.615m3.094 17.5 1.75-10.54h-.1l-3.39 2.019.289-1.65 3.4-2.04h1.67L97.364 72.5z"/><path fill="#ff2" d="m5.842 74.636 3.391 17.948h.189l9.327-17.948h1.948L9.91 95H7.92L3.893 74.636zM21.831 98.5l1.75-10.54h-.1l-3.39 2.019.288-1.65 3.4-2.04h1.671L23.422 98.5zM274.842 43.636l3.391 17.948h.189l9.327-17.948h1.948L278.909 64h-1.989l-4.027-20.364zM288.007 67.5l.179-1.193 5.29-4.286q.944-.755 1.541-1.322.606-.568.925-1.054.318-.498.397-1.044.16-.955-.477-1.551-.626-.597-1.75-.597-1.144 0-2.008.646-.855.647-1.015 1.651h-1.61q.258-1.561 1.581-2.585 1.332-1.034 3.201-1.034 1.243 0 2.098.467.866.468 1.253 1.273.388.795.229 1.79-.12.735-.507 1.392-.378.645-1.154 1.402a31 31 0 0 1-2.068 1.78l-3.51 2.833v.07h6.493l-.219 1.362zM270.842 145.636l3.391 17.948h.189l9.327-17.948h1.948L274.909 166h-1.989l-4.027-20.364zm17.659 24.023q-1.332 0-2.306-.447-.965-.438-1.442-1.223-.467-.776-.308-1.79h1.64q-.14.925.567 1.491.706.577 1.909.577 1.323 0 2.287-.656.965-.657 1.124-1.581.168-1.005-.607-1.581-.775-.587-2.247-.587h-.776l.179-1.253h.746q1.312 0 2.217-.616.916-.627 1.054-1.492.16-.894-.368-1.471-.516-.577-1.74-.577-1.103 0-2.048.577t-1.114 1.531h-1.58a3.6 3.6 0 0 1 .874-1.8 4.65 4.65 0 0 1 1.701-1.203 5.6 5.6 0 0 1 2.187-.427q1.263 0 2.138.437.885.438 1.283 1.213.408.767.248 1.74-.178 1.085-.964 1.73-.776.647-2.009.895v.07q1.323.228 1.999 1.044t.497 1.969a3.4 3.4 0 0 1-.885 1.789q-.716.777-1.819 1.204-1.104.437-2.437.437"/><path fill="#fff" d="M192.678 21h-1.85a5.1 5.1 0 0 0-.417-1.929 4.8 4.8 0 0 0-1.084-1.561 4.9 4.9 0 0 0-1.661-1.034q-.954-.368-2.138-.368-1.949 0-3.728 1.024-1.78 1.014-3.063 2.983-1.282 1.97-1.75 4.813-.467 2.803.149 4.723.617 1.909 2.019 2.893 1.412.984 3.311.984 1.213 0 2.327-.367a7.8 7.8 0 0 0 2.048-1.025 8 8 0 0 0 1.641-1.56 7.1 7.1 0 0 0 1.093-1.94h1.87a10.032 10.032 0 0 1-3.431 4.723 9.5 9.5 0 0 1-2.615 1.412 8.9 8.9 0 0 1-3.023.507q-2.605 0-4.404-1.302-1.79-1.302-2.546-3.67-.746-2.376-.209-5.597.527-3.162 2.019-5.489 1.501-2.326 3.679-3.59a9.2 9.2 0 0 1 4.733-1.272q1.63 0 2.923.507a6.1 6.1 0 0 1 2.197 1.412 6.2 6.2 0 0 1 1.402 2.108q.487 1.203.508 2.615m.271 17.5.178-1.193 5.29-4.286a24 24 0 0 0 1.541-1.322q.607-.567.925-1.054.318-.498.398-1.044.159-.955-.477-1.551-.627-.597-1.75-.597-1.144 0-2.009.646-.855.647-1.014 1.651h-1.611q.258-1.56 1.581-2.585 1.333-1.035 3.202-1.034 1.243 0 2.098.467.864.468 1.253 1.273.387.795.228 1.79-.118.735-.507 1.392-.378.645-1.153 1.402-.776.745-2.068 1.78l-3.51 2.833v.07h6.493l-.219 1.362zM192.678 177h-1.85a5.1 5.1 0 0 0-.417-1.929 4.76 4.76 0 0 0-2.745-2.595q-.954-.368-2.138-.368-1.949 0-3.728 1.024-1.78 1.014-3.063 2.983-1.282 1.97-1.75 4.813-.467 2.803.149 4.723.617 1.909 2.019 2.893 1.412.984 3.311.984a7.4 7.4 0 0 0 2.327-.367 7.8 7.8 0 0 0 2.048-1.025 8 8 0 0 0 1.641-1.561 7.1 7.1 0 0 0 1.093-1.939h1.87a10.006 10.006 0 0 1-3.431 4.723 9.5 9.5 0 0 1-2.615 1.412 8.9 8.9 0 0 1-3.023.507q-2.605 0-4.404-1.302-1.79-1.304-2.546-3.669-.746-2.376-.209-5.598.527-3.162 2.019-5.489 1.501-2.326 3.679-3.589a9.2 9.2 0 0 1 4.733-1.273q1.63 0 2.923.507a6.1 6.1 0 0 1 2.197 1.412 6.2 6.2 0 0 1 1.402 2.108q.487 1.203.508 2.615m4.765 17.659q-1.332 0-2.307-.447-.965-.438-1.442-1.223-.467-.776-.308-1.79h1.641q-.14.925.566 1.491.706.577 1.909.577 1.323 0 2.287-.656.965-.657 1.124-1.581.17-1.005-.607-1.581-.775-.587-2.247-.587h-.775l.179-1.253h.745q1.313 0 2.218-.616.915-.627 1.054-1.492.159-.894-.368-1.471-.518-.577-1.74-.577-1.104 0-2.048.577-.945.577-1.114 1.531h-1.581a3.63 3.63 0 0 1 .875-1.8 4.6 4.6 0 0 1 1.7-1.203 5.6 5.6 0 0 1 2.188-.427q1.263 0 2.137.437.885.438 1.283 1.213.408.766.249 1.74-.18 1.085-.965 1.73-.775.647-2.008.895v.07q1.322.228 1.998 1.044.677.816.497 1.969a3.4 3.4 0 0 1-.884 1.789q-.716.777-1.82 1.204-1.104.437-2.436.437"/><path fill="#ff2" d="M163.797 130.928q-.527 3.151-2.029 5.478-1.5 2.327-3.669 3.6a9.15 9.15 0 0 1-4.713 1.272q-2.615 0-4.414-1.302-1.79-1.312-2.536-3.679-.745-2.376-.219-5.588.528-3.153 2.029-5.479t3.679-3.599a9.2 9.2 0 0 1 4.733-1.273q2.584 0 4.375 1.303t2.545 3.678q.756 2.367.219 5.589m-1.78-.219q.457-2.724-.119-4.644-.567-1.919-1.949-2.933-1.382-1.024-3.351-1.024a7.4 7.4 0 0 0-3.828 1.054q-1.79 1.044-3.053 3.023-1.263 1.968-1.73 4.743-.447 2.714.12 4.643.566 1.918 1.948 2.943 1.392 1.014 3.371 1.014a7.43 7.43 0 0 0 3.838-1.054q1.79-1.054 3.043-3.022 1.263-1.978 1.71-4.743"/></g><defs><clipPath id="a"><path fill="#fff" d="M0 0h300v200H0z"/></clipPath></defs></svg>