<svg xmlns="http://www.w3.org/2000/svg" width="300" height="200" fill="none" viewBox="0 0 300 200"><path fill="#000" d="M0 0h300v200H0z"/><path stroke="#fff" stroke-width="2" d="M62 95h33M121 95h33M96 71v56M122 71v57M154 95h33M213 95h33M188 71v56M214 71v57M28 95h52M220 95h52"/><path fill="#ff2" d="M117.489 40h-2.114a5.9 5.9 0 0 0-.477-2.205 5.45 5.45 0 0 0-1.239-1.784 5.6 5.6 0 0 0-1.898-1.181q-1.09-.42-2.443-.42-2.227 0-4.261 1.17-2.034 1.158-3.5 3.409t-2 5.5q-.534 3.204.17 5.397.705 2.182 2.307 3.307 1.614 1.125 3.784 1.125a8.4 8.4 0 0 0 2.659-.42 8.9 8.9 0 0 0 2.341-1.17 9.1 9.1 0 0 0 1.875-1.785 8.1 8.1 0 0 0 1.25-2.216h2.137a11.6 11.6 0 0 1-1.557 2.989 11.5 11.5 0 0 1-2.364 2.409 10.8 10.8 0 0 1-2.989 1.614 10.2 10.2 0 0 1-3.454.58q-2.978 0-5.034-1.49-2.046-1.488-2.91-4.193-.852-2.715-.238-6.397.602-3.614 2.307-6.273 1.716-2.66 4.204-4.102a10.54 10.54 0 0 1 5.41-1.455q1.864 0 3.34.58 1.477.567 2.512 1.613a7.1 7.1 0 0 1 1.602 2.41q.556 1.374.58 2.988m3.537 20 2-12.045h-.114l-3.875 2.306.329-1.886 3.887-2.33h1.909L122.844 60zM205.489 40h-2.114a5.9 5.9 0 0 0-.477-2.205 5.45 5.45 0 0 0-1.239-1.784 5.6 5.6 0 0 0-1.898-1.181q-1.09-.42-2.443-.42-2.227 0-4.261 1.17-2.034 1.158-3.5 3.409t-2 5.5q-.534 3.204.17 5.397.705 2.182 2.307 3.307 1.614 1.125 3.784 1.125a8.4 8.4 0 0 0 2.659-.42 8.9 8.9 0 0 0 2.341-1.17 9.1 9.1 0 0 0 1.875-1.785 8.1 8.1 0 0 0 1.25-2.216h2.137a11.6 11.6 0 0 1-1.557 2.989 11.5 11.5 0 0 1-2.364 2.409 10.8 10.8 0 0 1-2.989 1.614 10.2 10.2 0 0 1-3.454.58q-2.978 0-5.034-1.49-2.046-1.488-2.909-4.193-.852-2.715-.239-6.397.603-3.614 2.307-6.273 1.716-2.66 4.204-4.102a10.54 10.54 0 0 1 5.41-1.455q1.863 0 3.34.58 1.477.567 2.512 1.613a7.1 7.1 0 0 1 1.602 2.41q.556 1.374.58 2.988m.309 20 .205-1.364 6.045-4.897a28 28 0 0 0 1.762-1.512q.693-.647 1.056-1.204.364-.57.455-1.194.181-1.09-.545-1.772-.717-.682-2-.682-1.308 0-2.296.739-.977.738-1.159 1.886h-1.841q.295-1.784 1.807-2.955 1.523-1.18 3.659-1.181 1.42 0 2.398.534.988.534 1.432 1.454.442.909.261 2.046a4.5 4.5 0 0 1-.58 1.59q-.431.74-1.318 1.603-.887.852-2.363 2.034l-4.012 3.239v.08h7.421l-.25 1.556z"/></svg>