<svg xmlns="http://www.w3.org/2000/svg" width="300" height="200" fill="none" viewBox="0 0 300 200"><path fill="#000" d="M0 0h300v200H0z"/><path stroke="#fff" stroke-width="2" d="M187 88v30M200 88v30M149 102h38.512M221 102h-20.882M259.752 119.051l-20.53 20.846M268.739 127.096l-20.932 21.254M222 102l27.19 26.778m34.939 34.409-26.039-25.645"/><circle cx="147.5" cy="102.5" r="2.5" fill="#ff2"/><circle cx="221.5" cy="101.5" r="2.5" fill="#ff2"/><circle cx="284.416" cy="162.907" r="2.5" fill="#ff2" transform="rotate(11.545 284.416 162.907)"/><path stroke="#fff" stroke-width="2" d="m239.224 65.729 20.847 20.529M247.702 56.288l20.846 20.529M222 102.184l27.191-26.776M284.131 41l-26.04 25.644"/><circle cx="281.844" cy="42.844" r="2.5" fill="#ff2" transform="rotate(-81.453 281.844 42.844)"/><path fill="#ff2" d="M196.866 65h-1.585a4.4 4.4 0 0 0-.358-1.653 4.1 4.1 0 0 0-.929-1.339 4.2 4.2 0 0 0-1.423-.886q-.818-.315-1.832-.315-1.67 0-3.196.878-1.526.869-2.625 2.557-1.1 1.687-1.5 4.124-.4 2.404.127 4.049.529 1.635 1.731 2.48 1.209.843 2.838.844 1.04 0 1.994-.316a6.7 6.7 0 0 0 1.756-.877 6.9 6.9 0 0 0 1.406-1.339 6.1 6.1 0 0 0 .937-1.661h1.603a8.617 8.617 0 0 1-2.941 4.048 8.1 8.1 0 0 1-2.241 1.21 7.7 7.7 0 0 1-2.591.435q-2.233 0-3.776-1.117-1.534-1.117-2.181-3.145-.64-2.037-.179-4.798.451-2.71 1.73-4.705 1.287-1.995 3.153-3.076a7.9 7.9 0 0 1 4.057-1.091q1.398 0 2.506.434a5.3 5.3 0 0 1 1.883 1.21q.784.777 1.202 1.807.417 1.032.434 2.242m2.534 15.17a3 3 0 0 1-1.33-.29 1.9 1.9 0 0 1-.869-.86q-.29-.563-.153-1.415.093-.596.383-1.04.29-.443.759-.75.477-.315 1.133-.511.657-.196 1.475-.281.69-.069 1.21-.145.52-.077.818-.23a.55.55 0 0 0 .315-.477l.026-.24q.102-.783-.29-1.235-.392-.46-1.261-.46-.819 0-1.432.366-.605.368-.886.912l-1.27-.196a3.42 3.42 0 0 1 1.5-1.602 4.6 4.6 0 0 1 2.216-.554q.894 0 1.585.307.698.306 1.04.929.35.622.196 1.568L203.559 80h-1.33l.256-1.44h-.06q-.494.75-1.287 1.176a3.55 3.55 0 0 1-1.738.434m.469-1.022q.698 0 1.304-.333a3.1 3.1 0 0 0 1.031-.903q.417-.57.537-1.296l.196-1.15q-.257.153-.597.239a8 8 0 0 1-.724.144l-.75.103q-1.134.144-1.747.554-.614.408-.725 1.04-.111.681.273 1.141.383.46 1.202.46M239.866 36h-1.585a4.4 4.4 0 0 0-.358-1.653 4.1 4.1 0 0 0-.929-1.339 4.2 4.2 0 0 0-1.423-.886q-.818-.315-1.832-.315-1.67 0-3.196.878-1.526.869-2.625 2.557-1.1 1.688-1.5 4.125-.4 2.403.127 4.048.529 1.635 1.731 2.48 1.209.843 2.838.844 1.04 0 1.994-.316a6.7 6.7 0 0 0 1.756-.878 6.9 6.9 0 0 0 1.406-1.338 6.1 6.1 0 0 0 .937-1.662h1.603a8.617 8.617 0 0 1-2.941 4.048 8.1 8.1 0 0 1-2.241 1.211 7.7 7.7 0 0 1-2.591.435q-2.233 0-3.776-1.117-1.534-1.116-2.181-3.145-.64-2.037-.179-4.798.451-2.71 1.73-4.705 1.287-1.995 3.153-3.076a7.9 7.9 0 0 1 4.057-1.091q1.398 0 2.506.434a5.3 5.3 0 0 1 1.883 1.21q.784.777 1.202 1.807.417 1.032.434 2.242m.378 15 1.943-11.625h1.372l-.767 4.705h.068q.256-.504.682-.938a3.2 3.2 0 0 1 1.006-.707 3 3 0 0 1 1.287-.273q.988 0 1.696.537.707.528.997 1.534.298.997.068 2.403-.23 1.372-.844 2.387-.605 1.022-1.483 1.585a3.5 3.5 0 0 1-1.926.563q-.716 0-1.202-.273a2.1 2.1 0 0 1-.767-.716q-.28-.435-.392-.93h-.094L241.616 51zm2.105-4.423q-.248 1.525.204 2.48.451.954 1.611.954.741 0 1.364-.434.63-.426 1.057-1.176.433-.75.588-1.722.246-1.466-.222-2.42-.46-.955-1.628-.955-.759 0-1.381.435-.613.434-1.031 1.176a4.9 4.9 0 0 0-.562 1.662M240.866 159h-1.585a4.4 4.4 0 0 0-.358-1.653 4.05 4.05 0 0 0-.929-1.338 4.2 4.2 0 0 0-1.423-.887q-.818-.315-1.832-.315-1.67 0-3.196.878-1.526.869-2.625 2.556-1.1 1.688-1.5 4.125-.4 2.404.127 4.049.529 1.636 1.731 2.48 1.209.844 2.838.844 1.04 0 1.994-.316a6.7 6.7 0 0 0 1.756-.878 6.8 6.8 0 0 0 1.406-1.338 6.1 6.1 0 0 0 .937-1.662h1.603a8.7 8.7 0 0 1-1.168 2.242 8.6 8.6 0 0 1-1.773 1.807 8.1 8.1 0 0 1-2.241 1.21 7.7 7.7 0 0 1-2.591.435q-2.233 0-3.776-1.117-1.534-1.116-2.181-3.145-.64-2.037-.179-4.798.451-2.71 1.73-4.705 1.287-1.994 3.153-3.076a7.9 7.9 0 0 1 4.057-1.091q1.398 0 2.506.434a5.3 5.3 0 0 1 1.883 1.211 5.3 5.3 0 0 1 1.202 1.807q.417 1.03.434 2.241m3.719 15.17q-1.219 0-2.012-.588t-1.108-1.602-.094-2.31q.213-1.329.887-2.343a4.94 4.94 0 0 1 1.662-1.594 4.25 4.25 0 0 1 2.165-.571q1.422 0 2.25.818.826.818.741 2.148h-1.321q0-.819-.486-1.33t-1.329-.511q-.768 0-1.432.418-.657.417-1.117 1.184-.451.76-.622 1.781-.17.99.026 1.748.195.758.699 1.184.51.435 1.287.435a2.45 2.45 0 0 0 1.525-.52q.683-.511.963-1.347h1.313q-.367 1.355-1.458 2.174-1.082.826-2.539.826"/><path stroke="#fff" stroke-width="2" d="m48.752 116.051-20.53 20.846M57.739 124.096 36.806 145.35M11 99l27.19 26.778M91.547 179 47.09 134.542M107.264 92.251l-29.257.224M107.93 104.295l-29.83.228M92.919 18v73.661m.096 88.839v-76.349M28.224 62.729l20.847 20.529M36.702 53.288l20.846 20.528M11 99.185l27.192-26.777M93 17.73 47.092 63.644"/><path fill="#5efaff" d="M28.867 33H27.28a4.4 4.4 0 0 0-.358-1.653 4.08 4.08 0 0 0-2.352-2.225q-.818-.315-1.832-.315-1.671 0-3.196.878-1.525.869-2.625 2.557t-1.5 4.125q-.401 2.403.128 4.048.527 1.635 1.73 2.48 1.209.843 2.838.844 1.04 0 1.994-.316a6.7 6.7 0 0 0 1.756-.878 6.8 6.8 0 0 0 1.406-1.338 6.1 6.1 0 0 0 .937-1.662h1.603a8.7 8.7 0 0 1-1.168 2.242 8.6 8.6 0 0 1-1.773 1.807 8.1 8.1 0 0 1-2.241 1.21 7.7 7.7 0 0 1-2.591.435q-2.233 0-3.776-1.117-1.534-1.116-2.181-3.145-.64-2.037-.18-4.798.453-2.71 1.73-4.705 1.288-1.995 3.154-3.076a7.9 7.9 0 0 1 4.057-1.091q1.398 0 2.506.434a5.3 5.3 0 0 1 1.883 1.21q.784.777 1.202 1.808.417 1.03.434 2.241m2.652 15 1.5-9.034h-.085l-2.906 1.73.247-1.415 2.915-1.747h1.431L32.883 48zM115.866 125h-1.585a4.4 4.4 0 0 0-.358-1.653 4.05 4.05 0 0 0-.929-1.338 4.2 4.2 0 0 0-1.423-.887q-.818-.315-1.832-.315-1.67 0-3.196.878-1.525.868-2.625 2.556t-1.5 4.125q-.4 2.404.127 4.049.529 1.636 1.731 2.48 1.209.844 2.838.844 1.04 0 1.994-.316a6.7 6.7 0 0 0 1.756-.878 6.8 6.8 0 0 0 1.406-1.338 6.1 6.1 0 0 0 .937-1.662h1.603a8.7 8.7 0 0 1-1.168 2.242 8.6 8.6 0 0 1-1.773 1.807 8.1 8.1 0 0 1-2.241 1.21 7.7 7.7 0 0 1-2.591.435q-2.233 0-3.776-1.117-1.534-1.116-2.181-3.145-.64-2.037-.179-4.798.451-2.71 1.73-4.705 1.287-1.994 3.153-3.076a7.9 7.9 0 0 1 4.057-1.091q1.398 0 2.506.434a5.3 5.3 0 0 1 1.883 1.211 5.3 5.3 0 0 1 1.202 1.807q.417 1.03.434 2.241m4.085 15.136q-1.142 0-1.977-.383-.826-.375-1.236-1.048-.4-.665-.264-1.535h1.406q-.12.793.486 1.279.605.494 1.636.494 1.134 0 1.96-.562t.963-1.355q.145-.861-.519-1.356-.666-.502-1.927-.502h-.664l.153-1.074h.639q1.125 0 1.901-.529.784-.537.903-1.278.136-.767-.315-1.261-.444-.495-1.492-.495-.946 0-1.755.495-.81.494-.955 1.312h-1.355a3.1 3.1 0 0 1 .75-1.543 4 4 0 0 1 1.457-1.031 4.8 4.8 0 0 1 1.875-.366q1.083 0 1.833.375.759.375 1.099 1.039.35.657.213 1.492-.154.929-.826 1.483-.665.554-1.722.767v.06q1.134.195 1.713.895.58.698.426 1.687a2.92 2.92 0 0 1-.758 1.534q-.614.665-1.56 1.031a5.6 5.6 0 0 1-2.088.375"/><path fill="#7df2ff" d="M28.867 159H27.28a4.4 4.4 0 0 0-.358-1.653 4.1 4.1 0 0 0-.929-1.338 4.2 4.2 0 0 0-1.423-.887q-.818-.315-1.832-.315-1.671 0-3.196.878-1.525.869-2.625 2.556t-1.5 4.125q-.401 2.404.128 4.049.527 1.636 1.73 2.48 1.209.844 2.838.844 1.04 0 1.994-.316a6.7 6.7 0 0 0 1.756-.878 6.8 6.8 0 0 0 1.406-1.338 6.1 6.1 0 0 0 .937-1.662h1.603a8.7 8.7 0 0 1-1.168 2.242 8.6 8.6 0 0 1-1.773 1.807 8.1 8.1 0 0 1-2.241 1.21 7.7 7.7 0 0 1-2.591.435q-2.233 0-3.776-1.117-1.534-1.116-2.181-3.145-.64-2.037-.18-4.798.453-2.71 1.73-4.705 1.288-1.994 3.154-3.076a7.9 7.9 0 0 1 4.057-1.091q1.398 0 2.506.434a5.3 5.3 0 0 1 1.883 1.211 5.3 5.3 0 0 1 1.202 1.807q.417 1.03.434 2.241m.232 15 .153-1.023 4.534-3.673q.81-.648 1.321-1.134.52-.485.793-.903.273-.426.34-.895.137-.817-.408-1.329-.537-.512-1.5-.512a2.8 2.8 0 0 0-1.722.554q-.733.554-.87 1.415h-1.38q.222-1.338 1.355-2.216 1.142-.886 2.744-.886 1.065 0 1.799.4.741.4 1.074 1.091.332.682.196 1.534a3.4 3.4 0 0 1-.435 1.193q-.324.555-.989 1.202-.665.64-1.772 1.526l-3.009 2.429v.059h5.566L36.7 174z"/><path stroke="#fff" stroke-width="2" d="M2 99h9M92.16 18.457l11-17"/><circle cx="92.844" cy="18.844" r="2.5" fill="#ff2" transform="rotate(-81.453 92.844 18.844)"/><circle cx="11.844" cy="98.844" r="2.5" fill="#ff2" transform="rotate(-81.453 11.844 98.844)"/><path stroke="#fff" stroke-width="2" d="m92.817 179.423 12 17"/><circle cx="91.95" cy="178.95" r="2.5" fill="#ff2" transform="rotate(11.545 91.95 178.95)"/><path fill="#ff8f91" d="m154 84-20-11.547v23.094zm-35 0v2h17v-4h-17z"/></svg>