<svg xmlns="http://www.w3.org/2000/svg" width="300" height="200" fill="none" viewBox="0 0 300 200"><path fill="#000" d="M0 0h300v200H0z"/><path stroke="#fff" stroke-width="2" d="M125 72v74M174 72v75"/><path fill="#fff" d="m100.401 53.693 1.781-10.798h1.466l-1.782 10.798zm-3.904-4.67.256-1.458h10.79l-.248 1.458zm21.531 2.522h1.772l2.242 2.958.375.494 2.736 3.64h-1.773l-2.011-2.685-.35-.478zm8.574-3.178q-.453 2.7-1.739 4.696-1.287 1.993-3.145 3.085a7.84 7.84 0 0 1-4.04 1.09q-2.24 0-3.784-1.116-1.534-1.125-2.173-3.153-.64-2.037-.188-4.79.453-2.702 1.739-4.696 1.287-1.995 3.153-3.085a7.9 7.9 0 0 1 4.057-1.091q2.217 0 3.75 1.116 1.534 1.117 2.182 3.154.647 2.028.188 4.79m-1.526-.188q.392-2.336-.102-3.98-.486-1.646-1.671-2.514-1.185-.879-2.872-.878a6.36 6.36 0 0 0-3.281.903q-1.534.895-2.617 2.591-1.082 1.687-1.483 4.066-.383 2.325.103 3.98.485 1.644 1.67 2.522 1.194.87 2.889.87a6.4 6.4 0 0 0 3.29-.904q1.534-.904 2.608-2.59 1.082-1.696 1.466-4.066M95.67 142h-2.227l12.33-23.273h2.272L112.648 142h-2.228l-3.875-20.511h-.147zm3.091-8.92h11.546l-.318 1.909H98.443zM167.545 47.557l-.238 1.432h-7.262l.239-1.432zm9.725 3.988h1.773l2.241 2.958.375.494 2.736 3.64h-1.773l-2.011-2.685-.35-.478zm8.574-3.178q-.452 2.7-1.739 4.696-1.287 1.993-3.145 3.085a7.84 7.84 0 0 1-4.04 1.09q-2.24 0-3.784-1.116-1.534-1.125-2.173-3.153-.64-2.037-.187-4.79.451-2.702 1.738-4.696 1.287-1.995 3.154-3.085a7.9 7.9 0 0 1 4.056-1.091q2.217 0 3.75 1.116 1.534 1.117 2.182 3.154.648 2.028.188 4.79m-1.526-.188q.392-2.336-.102-3.98-.486-1.646-1.671-2.514-1.184-.879-2.872-.878a6.36 6.36 0 0 0-3.281.903q-1.534.895-2.616 2.591-1.083 1.687-1.483 4.066-.384 2.325.102 3.98.486 1.644 1.67 2.522 1.194.87 2.89.87a6.37 6.37 0 0 0 3.289-.904q1.534-.904 2.608-2.59 1.083-1.696 1.466-4.066"/><path stroke="#fff" stroke-width="2" d="M32 109h93.076M267 109h-92.416"/><path fill="#ff2" d="m166 107-10-5.774v11.548zm-29 0v1h20v-2h-20zM143.636 150l3.864-23.273H161l-.318 1.909h-11.375l-1.455 8.762h10.659l-.318 1.909h-10.659l-1.454 8.784h11.602l-.318 1.909z"/></svg>