<svg xmlns="http://www.w3.org/2000/svg" width="300" height="200" fill="none" viewBox="0 0 300 200"><path fill="#000" d="M0 0h300v200H0z"/><path fill="url(#a)" d="M84 41h14v137H84z"/><path fill="url(#b)" d="M180 41h14v137h-14z"/><path fill="#fff" d="m75.994 29 .239-1.362 7.875-7.478a64 64 0 0 0 2.516-2.515q.974-1.054 1.491-1.93a5.4 5.4 0 0 0 .676-1.839q.19-1.162-.199-2.028a2.84 2.84 0 0 0-1.223-1.362q-.835-.487-2.028-.487-1.252 0-2.297.537a4.94 4.94 0 0 0-1.74 1.481 5 5 0 0 0-.895 2.138h-1.78a6.57 6.57 0 0 1 1.283-2.993 7.19 7.19 0 0 1 5.717-2.804q1.71 0 2.904.736a4.2 4.2 0 0 1 1.73 1.978q.536 1.254.278 2.804a7.2 7.2 0 0 1-.765 2.188q-.567 1.044-1.74 2.337-1.174 1.291-3.172 3.162L78.888 27.2l-.03.13H88.93L88.652 29zm25.89-6.364h2.068l2.615 3.45.438.577 3.191 4.246h-2.068l-2.346-3.132-.408-.557zm10.003-3.708q-.528 3.15-2.029 5.478-1.502 2.326-3.669 3.6a9.14 9.14 0 0 1-4.713 1.272q-2.615 0-4.415-1.302-1.79-1.312-2.535-3.68-.745-2.375-.219-5.587.528-3.152 2.029-5.479t3.679-3.6a9.2 9.2 0 0 1 4.733-1.272q2.584 0 4.375 1.303t2.545 3.678q.756 2.366.219 5.589m-1.78-.22q.457-2.723-.119-4.643-.567-1.919-1.949-2.933-1.383-1.024-3.351-1.024a7.4 7.4 0 0 0-3.828 1.054q-1.79 1.044-3.053 3.023-1.262 1.968-1.73 4.743-.447 2.715.12 4.643.566 1.92 1.948 2.943 1.392 1.014 3.371 1.014a7.44 7.44 0 0 0 3.838-1.054q1.79-1.054 3.043-3.022 1.263-1.98 1.71-4.743M168.243 24.625l.239-1.511 11.484-14.478h1.114l-.408 2.536h-.825l-9.238 11.653v.13h11.902l-.278 1.67zm8.77 4.375.805-4.862.12-.676 2.455-14.826h1.77L178.783 29zm17.308-6.364h2.069l2.615 3.45.437.577 3.192 4.246h-2.068l-2.347-3.132-.408-.557zm10.003-3.708q-.526 3.15-2.028 5.478-1.501 2.326-3.669 3.6a9.14 9.14 0 0 1-4.713 1.272q-2.615 0-4.415-1.302-1.79-1.312-2.536-3.68-.746-2.375-.218-5.587.526-3.152 2.028-5.479 1.501-2.326 3.679-3.6a9.2 9.2 0 0 1 4.733-1.272q2.586 0 4.375 1.303t2.545 3.678q.756 2.366.219 5.589m-1.78-.22q.458-2.723-.119-4.643-.566-1.919-1.949-2.933-1.382-1.024-3.351-1.024a7.4 7.4 0 0 0-3.828 1.054q-1.79 1.044-3.052 3.023-1.263 1.968-1.73 4.743-.448 2.715.119 4.643.566 1.92 1.949 2.943 1.392 1.014 3.37 1.014a7.44 7.44 0 0 0 3.839-1.054q1.79-1.054 3.042-3.022 1.263-1.98 1.71-4.743"/><defs><linearGradient id="a" x1="91" x2="91" y1="41" y2="178" gradientUnits="userSpaceOnUse"><stop stop-color="#ff2"/><stop offset="1" stop-color="#999915"/></linearGradient><linearGradient id="b" x1="187" x2="187" y1="41" y2="178" gradientUnits="userSpaceOnUse"><stop stop-color="#ff2"/><stop offset="1" stop-color="#999915"/></linearGradient></defs></svg>