<svg xmlns="http://www.w3.org/2000/svg" width="300" height="200" fill="none" viewBox="0 0 300 200"><path fill="#000" d="M0 0h300v200H0z"/><path fill="url(#a)" d="M41 41h14v137H41z"/><path fill="url(#b)" d="M107 41h14v137h-14z"/><path fill="url(#c)" d="M180 41h14v137h-14z"/><path fill="url(#d)" d="M245 41h14v137h-14z"/><path fill="#fff" d="m21.994 29 .239-1.362 7.875-7.478a64 64 0 0 0 2.516-2.515q.974-1.054 1.491-1.93a5.4 5.4 0 0 0 .676-1.839q.19-1.162-.199-2.028a2.84 2.84 0 0 0-1.223-1.362q-.835-.487-2.028-.487-1.252 0-2.297.537a4.94 4.94 0 0 0-1.74 1.481 5 5 0 0 0-.895 2.138h-1.78a6.57 6.57 0 0 1 1.283-2.993 7.19 7.19 0 0 1 5.717-2.804q1.71 0 2.904.736a4.2 4.2 0 0 1 1.73 1.978q.536 1.254.278 2.804a7.2 7.2 0 0 1-.765 2.188q-.567 1.044-1.74 2.337-1.174 1.291-3.172 3.162L24.888 27.2l-.03.13H34.93L34.652 29zm25.89-6.364h2.068l2.615 3.45.438.577 3.191 4.246h-2.068l-2.346-3.132-.408-.557zm10.003-3.708q-.528 3.15-2.029 5.478-1.5 2.326-3.669 3.6a9.14 9.14 0 0 1-4.713 1.272q-2.615 0-4.415-1.302-1.79-1.312-2.535-3.68-.745-2.375-.219-5.587.527-3.152 2.029-5.479 1.5-2.326 3.679-3.6a9.2 9.2 0 0 1 4.733-1.272q2.584 0 4.375 1.303t2.545 3.678q.756 2.366.219 5.589m-1.78-.22q.458-2.723-.12-4.643-.566-1.919-1.948-2.933-1.383-1.024-3.351-1.024a7.4 7.4 0 0 0-3.828 1.054q-1.79 1.044-3.053 3.023-1.262 1.968-1.73 4.743-.447 2.715.12 4.643.566 1.92 1.948 2.943 1.392 1.014 3.371 1.014a7.44 7.44 0 0 0 3.838-1.054q1.79-1.054 3.043-3.022 1.263-1.98 1.71-4.743M88.136 17.983l-.278 1.67h-8.472l.279-1.67zm12.211-9.347L96.966 29h-1.86l3.053-18.415h-.12l-5.299 3.172.328-1.929 5.34-3.192zm9.078 20.642q-2.148 0-3.461-1.232-1.312-1.244-1.72-3.58-.407-2.347.13-5.648.537-3.28 1.73-5.618 1.193-2.345 2.913-3.59a6.44 6.44 0 0 1 3.868-1.252q2.129 0 3.45 1.253 1.323 1.242 1.75 3.59.438 2.336-.109 5.617-.557 3.292-1.75 5.638-1.194 2.336-2.933 3.58a6.48 6.48 0 0 1-3.868 1.242m.248-1.67q2.347 0 4.067-2.287 1.73-2.287 2.426-6.503.458-2.754.189-4.733-.258-1.979-1.203-3.032-.945-1.054-2.506-1.054-2.336 0-4.057 2.306-1.72 2.298-2.416 6.513-.457 2.754-.199 4.723.26 1.969 1.194 3.023.935 1.044 2.505 1.044m19.449-4.972h2.068l2.615 3.45.438.577 3.192 4.246h-2.069l-2.346-3.132-.408-.557zm10.003-3.708q-.526 3.15-2.028 5.478-1.501 2.326-3.669 3.6a9.15 9.15 0 0 1-4.714 1.272q-2.614 0-4.414-1.302-1.79-1.312-2.536-3.68-.746-2.375-.219-5.587.528-3.152 2.029-5.479t3.679-3.6a9.2 9.2 0 0 1 4.733-1.272q2.585 0 4.375 1.303t2.545 3.678q.756 2.366.219 5.589m-1.78-.22q.457-2.723-.119-4.643-.567-1.919-1.949-2.933-1.382-1.024-3.351-1.024a7.4 7.4 0 0 0-3.828 1.054q-1.79 1.044-3.053 3.023-1.262 1.968-1.73 4.743-.447 2.715.12 4.643.567 1.92 1.949 2.943 1.392 1.014 3.37 1.014a7.44 7.44 0 0 0 3.838-1.054q1.79-1.054 3.043-3.022 1.263-1.98 1.71-4.743M176.477 29.278a6 6 0 0 1-2.426-.517q-1.134-.517-1.929-1.65-.786-1.133-1.054-2.993t.189-4.554q.408-2.476 1.173-4.524t1.87-3.54q1.104-1.5 2.535-2.317 1.441-.825 3.192-.825 1.63 0 2.804.686a4.4 4.4 0 0 1 1.78 1.89q.606 1.202.537 2.793h-1.78q.03-1.62-.796-2.655-.825-1.044-2.585-1.044-2.505 0-4.335 2.297-1.83 2.288-2.565 6.662l.129-.1a7 7 0 0 1 1.491-1.55 7 7 0 0 1 1.9-1.015 6.3 6.3 0 0 1 2.098-.357q1.73 0 3.022.875 1.293.875 1.899 2.396.617 1.52.289 3.47a8.2 8.2 0 0 1-1.343 3.291q-1.033 1.502-2.605 2.396-1.57.896-3.49.885m.05-1.67q1.342 0 2.526-.686a6.4 6.4 0 0 0 2.018-1.86 6.2 6.2 0 0 0 1.064-2.575q.219-1.342-.189-2.446a3.57 3.57 0 0 0-1.312-1.75q-.905-.656-2.208-.656-1.034 0-2.008.427a6.2 6.2 0 0 0-1.75 1.144 6.3 6.3 0 0 0-1.273 1.66 5 5 0 0 0-.587 1.96q-.119 1.372.289 2.455.417 1.084 1.292 1.71.885.618 2.138.617m19.33-4.972h2.068l2.615 3.45.437.577 3.192 4.246h-2.068l-2.347-3.132-.407-.557zm10.002-3.708q-.526 3.15-2.028 5.478-1.501 2.326-3.669 3.6a9.14 9.14 0 0 1-4.713 1.272q-2.615 0-4.415-1.302-1.79-1.312-2.535-3.68-.746-2.375-.219-5.587.526-3.152 2.028-5.479t3.679-3.6a9.2 9.2 0 0 1 4.733-1.272q2.586 0 4.375 1.303t2.546 3.678q.755 2.366.218 5.589m-1.779-.22q.457-2.723-.12-4.643-.566-1.919-1.949-2.933-1.382-1.024-3.35-1.024a7.4 7.4 0 0 0-3.829 1.054q-1.79 1.044-3.052 3.023-1.263 1.968-1.73 4.743-.448 2.715.119 4.643.566 1.92 1.949 2.943 1.392 1.014 3.371 1.014a7.44 7.44 0 0 0 3.838-1.054q1.79-1.054 3.042-3.022 1.263-1.98 1.711-4.743M246.358 29.278q-1.979 0-3.401-.755-1.422-.765-2.088-2.068t-.397-2.914q.208-1.242.904-2.317a6.8 6.8 0 0 1 1.731-1.81 5.45 5.45 0 0 1 2.217-.964v-.08q-1.432-.435-2.108-1.78-.666-1.341-.358-3.012a5.9 5.9 0 0 1 1.233-2.684 6.8 6.8 0 0 1 2.396-1.86q1.432-.675 3.122-.676 1.72 0 2.983.716 1.273.716 1.88 1.949.606 1.223.348 2.774a5.6 5.6 0 0 1-1.462 2.923q-1.163 1.233-2.705 1.65v.08q1.123.239 1.929 1.015.805.765 1.164 1.889.358 1.113.139 2.396a5.7 5.7 0 0 1-1.332 2.844q-1.065 1.243-2.675 1.968-1.61.716-3.52.716m.04-1.67q1.491 0 2.714-.537 1.224-.537 2.009-1.472.795-.945.994-2.157.19-1.203-.268-2.138-.458-.945-1.442-1.482-.975-.536-2.337-.537-1.422 0-2.665.577a5.85 5.85 0 0 0-2.068 1.561 4.5 4.5 0 0 0-1.034 2.238q-.19 1.152.259 2.048.447.895 1.431 1.402.985.497 2.407.497m1.63-9.913q1.233 0 2.297-.527a5.1 5.1 0 0 0 1.79-1.432 4.44 4.44 0 0 0 .925-2.049q.189-1.113-.189-1.938a2.73 2.73 0 0 0-1.213-1.293q-.835-.457-2.049-.457a5.3 5.3 0 0 0-2.316.507q-1.065.497-1.77 1.382a4.26 4.26 0 0 0-.895 2.008q-.19 1.125.199 1.979.387.855 1.223 1.342.835.478 1.998.478m17.911 4.941h2.068l2.615 3.45.437.577 3.192 4.246h-2.068l-2.347-3.132-.407-.557zm10.002-3.708q-.526 3.15-2.028 5.478-1.501 2.326-3.669 3.6a9.14 9.14 0 0 1-4.713 1.272q-2.615 0-4.415-1.302-1.79-1.312-2.535-3.68-.746-2.375-.219-5.587.526-3.152 2.028-5.479t3.679-3.6a9.2 9.2 0 0 1 4.733-1.272q2.586 0 4.375 1.303t2.546 3.678q.755 2.366.218 5.589m-1.779-.22q.458-2.723-.12-4.643-.566-1.919-1.949-2.933-1.382-1.024-3.35-1.024a7.4 7.4 0 0 0-3.829 1.054q-1.79 1.044-3.052 3.023-1.263 1.968-1.73 4.743-.448 2.715.119 4.643.567 1.92 1.949 2.943 1.392 1.014 3.371 1.014a7.44 7.44 0 0 0 3.838-1.054q1.79-1.054 3.042-3.022 1.263-1.98 1.711-4.743"/><defs><linearGradient id="a" x1="48" x2="48" y1="41" y2="178" gradientUnits="userSpaceOnUse"><stop stop-color="#ff2"/><stop offset="1" stop-color="#999915"/></linearGradient><linearGradient id="b" x1="114" x2="114" y1="41" y2="178" gradientUnits="userSpaceOnUse"><stop stop-color="#ff2"/><stop offset="1" stop-color="#999915"/></linearGradient><linearGradient id="c" x1="187" x2="187" y1="41" y2="178" gradientUnits="userSpaceOnUse"><stop stop-color="#ff2"/><stop offset="1" stop-color="#999915"/></linearGradient><linearGradient id="d" x1="252" x2="252" y1="41" y2="178" gradientUnits="userSpaceOnUse"><stop stop-color="#ff2"/><stop offset="1" stop-color="#999915"/></linearGradient></defs></svg>