<svg xmlns="http://www.w3.org/2000/svg" width="300" height="200" fill="none" viewBox="0 0 300 200"><g clip-path="url(#a)"><path fill="#000" d="M0 0h300v200H0z"/><path stroke="#fff" d="M40 77.5h76"/><path fill="url(#b)" d="M144 6c-18.333 13-55.4 39.5-57 41.5V153l57-43.5z"/><path fill="url(#c)" d="M213 8c-18.333 13-55.4 39.5-57 41.5V155l57-43.5z"/><path stroke="#fff" d="M184 77.5h76"/><path fill="#fff" d="m89 163 10 5.774v-11.548zm67 0-10-5.774v11.548zm-58 0v1h49v-2H98zM120.466 194.364q-2.148 0-3.58-1.137-1.431-1.136-2-3.17-.567-2.034-.125-4.739.455-2.692 1.694-4.716 1.25-2.034 3.056-3.159a7.34 7.34 0 0 1 3.966-1.136q1.602 0 2.557.568.966.557 1.466 1.386.5.83.716 1.614h.182l1.522-9.148h2.035L128.091 194h-1.966l.545-3.239h-.25a10 10 0 0 1-1.284 1.637q-.783.83-1.931 1.397-1.148.569-2.739.569m.443-1.853q1.694 0 3.057-.92 1.376-.932 2.295-2.557.933-1.637 1.273-3.75.352-2.091-.011-3.693-.364-1.614-1.409-2.523-1.046-.92-2.762-.92-1.738 0-3.091.954-1.352.943-2.238 2.557-.876 1.614-1.216 3.625-.33 2.034 0 3.671.33 1.635 1.341 2.602 1.023.954 2.761.954"/><path fill="#000" d="M106.67 92h-2.227l12.33-23.273h2.272L123.648 92h-2.228l-3.875-20.511h-.147zm3.091-8.92h11.546l-.318 1.909h-11.546z"/></g><defs><linearGradient id="b" x1="115.5" x2="115.5" y1="6" y2="153" gradientUnits="userSpaceOnUse"><stop stop-color="#7df2ff"/><stop offset="1" stop-color="#4b9199"/></linearGradient><linearGradient id="c" x1="184.5" x2="184.5" y1="8" y2="155" gradientUnits="userSpaceOnUse"><stop stop-color="#ff7d7d"/><stop offset="1" stop-color="#994b4b"/></linearGradient><clipPath id="a"><path fill="#fff" d="M0 0h300v200H0z"/></clipPath></defs></svg>