<svg xmlns="http://www.w3.org/2000/svg" width="300" height="200" fill="none" viewBox="0 0 300 200"><path fill="#000" d="M0 0h300v200H0z"/><path stroke="#fff" stroke-width="2" d="M107 63h33M166 63h33M141 39v56M167 39v57M107 136h33M166 136h33M141 110v55M167 110v55M108 62v75M198 63v74M55 97h52M199 97h52"/><path fill="#ff2" d="M132.489 15h-2.114a5.9 5.9 0 0 0-.477-2.204 5.45 5.45 0 0 0-1.239-1.785 5.6 5.6 0 0 0-1.898-1.181q-1.09-.42-2.443-.42-2.227 0-4.261 1.17-2.034 1.159-3.5 3.409t-2 5.5q-.534 3.204.17 5.397.705 2.182 2.307 3.307 1.614 1.125 3.784 1.125a8.4 8.4 0 0 0 2.659-.42 8.9 8.9 0 0 0 2.341-1.17 9.1 9.1 0 0 0 1.875-1.785 8.1 8.1 0 0 0 1.25-2.216h2.137a11.6 11.6 0 0 1-1.557 2.989 11.5 11.5 0 0 1-2.364 2.409 10.8 10.8 0 0 1-2.989 1.614 10.2 10.2 0 0 1-3.454.58q-2.978 0-5.034-1.49-2.046-1.488-2.909-4.193-.852-2.716-.239-6.397.603-3.614 2.307-6.273 1.716-2.66 4.204-4.102a10.54 10.54 0 0 1 5.41-1.455q1.864 0 3.34.58 1.477.567 2.512 1.613a7.1 7.1 0 0 1 1.602 2.41q.556 1.374.58 2.988m3.537 20 2-12.045h-.114l-3.875 2.306.329-1.886 3.887-2.33h1.909L137.844 35zM125.489 172h-2.114a5.9 5.9 0 0 0-.477-2.205 5.5 5.5 0 0 0-1.239-1.784 5.6 5.6 0 0 0-1.898-1.181q-1.09-.421-2.443-.421-2.227 0-4.261 1.171-2.034 1.158-3.5 3.409t-2 5.5q-.534 3.204.17 5.397.705 2.182 2.307 3.307 1.614 1.125 3.784 1.125 1.386 0 2.659-.42a9 9 0 0 0 2.341-1.171 9 9 0 0 0 1.875-1.784 8.1 8.1 0 0 0 1.25-2.216h2.137a11.6 11.6 0 0 1-1.557 2.989 11.5 11.5 0 0 1-2.364 2.409 10.9 10.9 0 0 1-2.989 1.614 10.2 10.2 0 0 1-3.454.579q-2.978 0-5.034-1.488-2.046-1.49-2.909-4.194-.852-2.716-.239-6.397.603-3.614 2.307-6.273 1.716-2.66 4.204-4.102a10.54 10.54 0 0 1 5.41-1.455q1.864 0 3.34.58 1.477.567 2.512 1.613a7.1 7.1 0 0 1 1.602 2.409q.556 1.375.58 2.989m.309 20 .205-1.364 6.045-4.897q1.08-.864 1.762-1.512.693-.648 1.056-1.204a3 3 0 0 0 .455-1.193q.181-1.092-.545-1.773-.716-.682-2-.682-1.308 0-2.296.739-.977.738-1.159 1.886h-1.841q.295-1.784 1.807-2.955 1.523-1.18 3.659-1.181 1.42 0 2.398.534.988.534 1.432 1.454.442.909.261 2.046a4.5 4.5 0 0 1-.58 1.591q-.431.738-1.318 1.602-.887.852-2.363 2.034l-4.012 3.239v.079h7.421l-.25 1.557z"/></svg>