<svg xmlns="http://www.w3.org/2000/svg" width="300" height="200" fill="none" viewBox="0 0 300 200"><path fill="#000" d="M0 0h300v200H0z"/><path stroke="#fff" stroke-width="2" d="M77 37v126M232 37v126"/><path fill="#ff2" d="m125 100-10-5.773v11.547zm-29 0v1h20v-2H96zM102.636 143l3.864-23.273H120l-.318 1.909h-11.375l-1.455 8.762h10.659l-.318 1.909h-10.659l-1.454 8.784h11.602l-.318 1.909z"/><rect width="71" height="129" x="157" y="36" fill="url(#a)" rx="8"/><path fill="#ff2" d="m207 100-10-5.773v11.547zm-29 0v1h20v-2h-20zM190.852 136.33l.114-.705q.318-1.784.886-2.898a6.3 6.3 0 0 1 1.455-1.875 13 13 0 0 1 2.091-1.477 11.5 11.5 0 0 0 1.579-1.114 5.2 5.2 0 0 0 1.125-1.295q.444-.716.58-1.659.193-1.239-.216-2.148a3 3 0 0 0-1.284-1.42q-.864-.512-2.057-.512-1.16 0-2.239.512a5.2 5.2 0 0 0-1.863 1.466q-.785.965-1.068 2.34h-2.148q.363-1.875 1.466-3.25a7.6 7.6 0 0 1 2.693-2.136 7.9 7.9 0 0 1 3.398-.75q1.897 0 3.193.784 1.306.784 1.875 2.148.579 1.352.307 3.057-.194 1.227-.716 2.17a6.6 6.6 0 0 1-1.375 1.693 12.4 12.4 0 0 1-2.046 1.455q-1.124.659-1.841 1.329-.704.66-1.113 1.512-.398.84-.614 2.068l-.125.705zm.205 6.84q-.682 0-1.148-.477a1.62 1.62 0 0 1-.454-1.159q0-.681.5-1.148.5-.465 1.17-.466.67 0 1.148.478.477.477.454 1.136-.011.455-.25.83a1.8 1.8 0 0 1-.602.591 1.6 1.6 0 0 1-.818.215"/><path fill="#fff" d="m183.636 77 3.864-23.273h2.125l-2.08 12.534h.216l13.432-12.534h2.796L192.273 64.49 200.08 77h-2.591l-6.773-11.034-3.682 3.477L185.761 77z"/><path stroke="#fff" stroke-width="2" d="M25 99h52M231 99h52"/><defs><linearGradient id="a" x1="192.5" x2="192.5" y1="36" y2="165" gradientUnits="userSpaceOnUse"><stop stop-color="#f5e"/><stop offset="1" stop-color="#99338f"/></linearGradient></defs></svg>