<svg xmlns="http://www.w3.org/2000/svg" width="300" height="200" fill="none" viewBox="0 0 300 200"><g clip-path="url(#a)"><path fill="#000" d="M0 0h300v200H0z"/><path stroke="#fff" stroke-width="2" d="M60 39v126M253 37v126"/><rect width="71" height="129" x="120" y="37" fill="url(#b)" rx="8"/><path fill="#fff" d="m146.636 115 3.864-23.273h2.125l-2.08 12.534h.216l13.432-12.534h2.796l-11.716 10.762L163.08 115h-2.591l-6.773-11.034-3.682 3.477-1.273 7.557zM72.318 52.102l2.375-14.386h1.955l-2.375 14.386zm-5.193-6.227.33-1.932h14.397l-.34 1.932zm5.193 45.227 2.375-14.386h1.955l-2.375 14.386zm-5.193-6.227.33-1.932h14.397l-.34 1.932zm5.193 45.227 2.375-14.386h1.955l-2.375 14.386zm-5.193-6.227.33-1.932h14.397l-.34 1.932zm5.193 45.227 2.375-14.386h1.955l-2.375 14.386zm-5.193-6.227.33-1.932h14.397l-.34 1.932z"/><path fill="#ff2" d="m116.455 63.068-.319 1.91h-9.681l.318-1.91zm0 39-.319 1.909h-9.681l.318-1.909zm0 39-.319 1.909h-9.681l.318-1.909zM199.318 72.102l2.375-14.386h1.955l-2.375 14.386zm-5.193-6.227.33-1.932h14.397l-.341 1.932zm5.193 45.227 2.375-14.386h1.955l-2.375 14.386zm-5.193-6.227.33-1.932h14.397l-.341 1.932zm5.193 45.227 2.375-14.386h1.955l-2.375 14.386zm-5.193-6.227.33-1.932h14.397l-.341 1.932z"/><path fill="#fff" d="m244.455 43.068-.319 1.91h-9.681l.318-1.91zm0 39-.319 1.91h-9.681l.318-1.91zm0 39-.319 1.909h-9.681l.318-1.909zm0 39-.319 1.909h-9.681l.318-1.909zM71.193 21.727h2.364l2.989 3.944.5.659 3.647 4.852H78.33l-2.681-3.58-.466-.636zm11.432-4.238q-.602 3.601-2.318 6.261t-4.193 4.114a10.45 10.45 0 0 1-5.387 1.454q-2.988 0-5.045-1.489-2.046-1.5-2.898-4.204-.852-2.716-.25-6.386.602-3.603 2.318-6.262t4.205-4.113a10.53 10.53 0 0 1 5.409-1.455q2.954 0 5 1.489t2.909 4.204q.864 2.705.25 6.387m-2.034-.25q.522-3.114-.136-5.307-.648-2.193-2.228-3.352-1.58-1.17-3.83-1.17a8.5 8.5 0 0 0-4.374 1.204q-2.046 1.193-3.489 3.454-1.443 2.25-1.977 5.42-.512 3.103.136 5.308.648 2.193 2.228 3.363 1.59 1.16 3.852 1.16 2.34 0 4.386-1.205t3.477-3.455q1.444-2.262 1.955-5.42"/><path fill="#ff2" d="m203.955 35.546 1.613-9.785h-.182a9.6 9.6 0 0 1-1.272 1.637q-.785.83-1.944 1.398-1.158.567-2.738.568-2.137 0-3.568-1.137-1.433-1.136-2-3.17-.557-2.034-.114-4.739.443-2.692 1.67-4.716 1.239-2.034 3.046-3.159a7.36 7.36 0 0 1 3.977-1.136q1.603 0 2.557.568.966.569 1.466 1.398.5.818.716 1.602h.238l.569-3.33h1.977l-3.977 24zm-3.989-8.035q1.704 0 3.045-.92 1.353-.932 2.25-2.557.899-1.635 1.25-3.75.341-2.091-.022-3.693-.352-1.614-1.387-2.523-1.034-.92-2.75-.92-1.75 0-3.113.954-1.353.944-2.239 2.557-.886 1.614-1.216 3.625-.34 2.035.011 3.67.364 1.637 1.398 2.603 1.045.954 2.773.954"/><path stroke="#fff" stroke-width="2" d="M8 101h52M252 99h52"/></g><defs><linearGradient id="b" x1="155.5" x2="155.5" y1="37" y2="166" gradientUnits="userSpaceOnUse"><stop stop-color="#f5e"/><stop offset="1" stop-color="#99338f"/></linearGradient><clipPath id="a"><path fill="#fff" d="M0 0h300v200H0z"/></clipPath></defs></svg>