<svg xmlns="http://www.w3.org/2000/svg" width="300" height="200" fill="none" viewBox="0 0 300 200"><path fill="#000" d="M0 0h300v200H0z"/><path stroke="#fff" stroke-width="2" d="M0 115h76M224 113h76M77 49v147M224 49v147"/><rect width="70" height="144" x="79" y="52" fill="url(#a)" rx="8"/><rect width="70" height="144" x="151" y="52" fill="url(#b)" rx="8"/><path fill="#fff" d="m100.636 131 3.864-23.273h2.125l-2.08 12.534h.216l13.432-12.534h2.796l-11.716 10.762L117.08 131h-2.591l-6.773-11.034-3.682 3.477-1.273 7.557zm21.671 4 2-12.045h-.114l-3.875 2.306.33-1.886 3.886-2.33h1.909L124.125 135zM173.636 131l3.864-23.273h2.125l-2.08 12.534h.216l13.432-12.534h2.796l-11.716 10.762L190.08 131h-2.591l-6.773-11.034-3.682 3.477-1.273 7.557zm18.444 4 .204-1.364 6.046-4.897a28 28 0 0 0 1.761-1.512q.693-.648 1.057-1.204.363-.569.454-1.193.182-1.092-.545-1.773-.716-.682-2-.682-1.307 0-2.296.739-.977.738-1.159 1.886h-1.841q.296-1.784 1.807-2.955 1.523-1.18 3.659-1.181 1.42 0 2.398.534.988.534 1.432 1.454.442.909.261 2.046a4.5 4.5 0 0 1-.579 1.591q-.432.738-1.319 1.602-.885.852-2.363 2.034l-4.012 3.239v.079h7.421l-.25 1.557zM44.67 168h-2.227l12.33-23.273h2.272L61.649 168H59.42l-3.875-20.511h-.147zm3.091-8.92h11.546l-.318 1.909H47.443zM79 44l10 5.773V38.227zm70 0-10-5.773v11.547zm-61 0v1h52v-2H88zM111.466 31.364q-2.148 0-3.58-1.137-1.431-1.136-2-3.17-.567-2.034-.125-4.739.455-2.692 1.694-4.716 1.25-2.034 3.056-3.159a7.34 7.34 0 0 1 3.966-1.136q1.602 0 2.557.568.966.556 1.466 1.386t.716 1.614h.182l1.522-9.148h2.035L119.091 31h-1.966l.545-3.239h-.25q-.488.795-1.284 1.637-.783.83-1.931 1.398-1.148.567-2.739.568m.443-1.853a5.34 5.34 0 0 0 3.057-.92q1.376-.932 2.295-2.557.933-1.635 1.273-3.75.352-2.091-.011-3.693-.364-1.614-1.409-2.523-1.046-.92-2.762-.92-1.738 0-3.091.954-1.352.944-2.238 2.557-.876 1.614-1.216 3.625-.33 2.035 0 3.67.33 1.637 1.341 2.603 1.023.954 2.761.954M126.432 35l2-12.045h-.114l-3.875 2.306.33-1.886 3.886-2.33h1.909L128.25 35zM151 44l10 5.773V38.227zm70 0-10-5.773v11.547zm-61 0v1h52v-2h-52zM183.466 31.364q-2.148 0-3.58-1.137-1.431-1.136-2-3.17-.567-2.034-.125-4.739.455-2.692 1.694-4.716 1.25-2.034 3.056-3.159a7.34 7.34 0 0 1 3.966-1.136q1.602 0 2.557.568.966.556 1.466 1.386t.716 1.614h.182l1.522-9.148h2.035L191.091 31h-1.966l.545-3.239h-.25q-.487.795-1.284 1.637-.783.83-1.931 1.398-1.148.567-2.739.568m.443-1.853a5.34 5.34 0 0 0 3.057-.92q1.375-.932 2.295-2.557.933-1.635 1.273-3.75.352-2.091-.011-3.693-.364-1.614-1.409-2.523-1.046-.92-2.762-.92-1.738 0-3.091.954-1.352.944-2.238 2.557-.876 1.614-1.216 3.625-.33 2.035 0 3.67.33 1.637 1.341 2.603 1.023.954 2.761.954M195.205 35l.204-1.364 6.046-4.897a28 28 0 0 0 1.761-1.512q.693-.647 1.057-1.204.363-.57.454-1.194.182-1.09-.545-1.772-.716-.682-2-.682-1.307 0-2.296.739-.977.738-1.159 1.886h-1.841q.296-1.785 1.807-2.954 1.523-1.182 3.659-1.182 1.42 0 2.398.534.988.533 1.432 1.454.442.909.261 2.046a4.5 4.5 0 0 1-.579 1.59q-.432.74-1.319 1.603-.885.852-2.363 2.034l-4.012 3.239v.08h7.421l-.25 1.556z"/><defs><linearGradient id="a" x1="114" x2="114" y1="52" y2="196" gradientUnits="userSpaceOnUse"><stop stop-color="#ef5dfd"/><stop offset="1" stop-color="#8f3897"/></linearGradient><linearGradient id="b" x1="186" x2="186" y1="52" y2="196" gradientUnits="userSpaceOnUse"><stop stop-color="#70fd5d"/><stop offset="1" stop-color="#439738"/></linearGradient></defs></svg>