<svg xmlns="http://www.w3.org/2000/svg" width="300" height="200" fill="none" viewBox="0 0 300 200"><path fill="#000" d="M0 0h300v200H0z"/><path stroke="#fff" stroke-width="2" d="M55 23v62M91 22v63M43.83 155H18V57h37M101.17 152H127V54H90"/><circle cx="74.134" cy="155.181" r="30.819" fill="url(#a)"/><path fill="#000" d="m67.152 143.087 4.36 23.075h.242l11.992-23.075h2.506L72.38 169.268h-2.557l-5.178-26.181z"/><path stroke="#fff" stroke-width="2" d="M218 23v62M254 22v63M206.83 155H181V57h37M264.17 152H290V54h-37"/><circle cx="237.134" cy="155.181" r="30.819" fill="url(#b)"/><path fill="#000" d="m230.152 143.087 4.359 23.075h.243l11.992-23.075h2.506l-13.871 26.181h-2.557l-5.178-26.181z"/><path fill="#ff2" d="m172 100-10-5.773v11.547zm-33 0v1h24v-2h-24z"/><rect width="30" height="61" x="221" y="24" fill="url(#c)" rx="6"/><path fill="#000" d="m230.023 61 2.415-14.545h1.328l-1.3 7.833h.135l8.395-7.833h1.747l-7.323 6.725L240.3 61h-1.62l-4.233-6.896-2.301 2.173-.795 4.723z"/><defs><linearGradient id="a" x1="74.134" x2="74.134" y1="124.362" y2="186" gradientUnits="userSpaceOnUse"><stop stop-color="#ff8e2b"/><stop offset="1" stop-color="#af5e16"/></linearGradient><linearGradient id="b" x1="237.134" x2="237.134" y1="124.362" y2="186" gradientUnits="userSpaceOnUse"><stop stop-color="#ff8e2b"/><stop offset="1" stop-color="#af5e16"/></linearGradient><linearGradient id="c" x1="236" x2="236" y1="24" y2="85" gradientUnits="userSpaceOnUse"><stop stop-color="#ff68f0"/><stop offset="1" stop-color="#993f90"/></linearGradient></defs></svg>