<svg xmlns="http://www.w3.org/2000/svg" width="300" height="200" fill="none" viewBox="0 0 300 200"><path fill="#000" d="M0 0h300v200H0z"/><circle cx="150" cy="100" r="87" fill="url(#a)"/><path stroke="#000" stroke-width="2" d="m149.293 99.293 65-65"/><path fill="#000" d="m186.636 106 3.864-23.273h7.511q2.477 0 3.989.887 1.523.885 2.102 2.465.59 1.569.262 3.614-.341 2.023-1.455 3.58-1.102 1.557-2.909 2.443-1.807.875-4.261.875h-6.387l.33-1.943h6.329q1.83 0 3.137-.602 1.306-.603 2.091-1.717.783-1.113 1.034-2.636.25-1.534-.171-2.67-.409-1.137-1.522-1.762-1.102-.624-2.944-.625h-5.329L188.761 106zm12-10.5 3.989 10.5h-2.443l-3.921-10.5z"/><defs><linearGradient id="a" x1="150" x2="150" y1="13" y2="187" gradientUnits="userSpaceOnUse"><stop stop-color="#ef5dfd"/><stop offset="1" stop-color="#8f3897"/></linearGradient></defs></svg>