<svg xmlns="http://www.w3.org/2000/svg" width="300" height="200" fill="none" viewBox="0 0 300 200"><path fill="#000" d="M0 0h300v200H0z"/><path fill="url(#a)" d="M184.611 150.475c-6.166-4.659-14.01-19.17-12.672-29.957 1.338-10.788 14.919-67.642 48.432-71.544 26.882-3.13 61.928 20.254 59.535 35.47s-45.614 64.593-55.383 68.725c-9.769 4.133-33.747 1.964-39.912-2.694"/><path fill="url(#b)" d="M29.346 77.417c2-7.465 12.5-20.187 23-23 10.5-2.814 68.291-11.591 84.5 18 13.002 23.735 4.5 65-10.5 68.5s-77-18-84.5-25.5-14.5-30.536-12.5-38"/><path fill="#fff" d="m74.534 100.591 2.375-14.398h1.955l-2.375 14.398zm-5.205-6.227.342-1.944h14.386l-.33 1.944zm28.708 3.363h2.364l2.988 3.943.5.66 3.648 4.852h-2.364l-2.682-3.58-.465-.636zm11.432-4.238q-.603 3.602-2.318 6.261t-4.194 4.114a10.45 10.45 0 0 1-5.386 1.454q-2.988 0-5.045-1.488-2.046-1.5-2.898-4.205-.852-2.716-.25-6.386.602-3.603 2.318-6.262 1.716-2.66 4.205-4.113a10.53 10.53 0 0 1 5.409-1.455q2.954 0 5 1.489t2.909 4.204q.864 2.704.25 6.387m-2.034-.25q.522-3.114-.137-5.307-.648-2.193-2.227-3.353-1.58-1.17-3.83-1.17-2.329 0-4.374 1.205-2.046 1.193-3.49 3.454-1.442 2.25-1.976 5.42-.512 3.103.136 5.308.648 2.193 2.227 3.363 1.59 1.16 3.853 1.159a8.5 8.5 0 0 0 4.386-1.204q2.045-1.205 3.477-3.455 1.443-2.261 1.955-5.42M212.727 94.41l-.318 1.908h-9.682l.318-1.909zm12.966 5.317h2.364l2.988 3.943.5.66 3.648 4.852h-2.363l-2.682-3.58-.466-.636zm11.432-4.238q-.602 3.602-2.318 6.261t-4.193 4.114a10.46 10.46 0 0 1-5.387 1.454q-2.988 0-5.045-1.488-2.046-1.5-2.898-4.205-.852-2.716-.25-6.386.603-3.603 2.318-6.262 1.716-2.66 4.205-4.113a10.53 10.53 0 0 1 5.409-1.455q2.954 0 5 1.489t2.909 4.204q.864 2.704.25 6.387m-2.034-.25q.522-3.114-.136-5.307-.648-2.193-2.228-3.353-1.58-1.17-3.829-1.17a8.5 8.5 0 0 0-4.375 1.205q-2.046 1.193-3.489 3.454-1.443 2.25-1.977 5.42-.512 3.104.136 5.307.648 2.194 2.227 3.364 1.591 1.16 3.853 1.159a8.5 8.5 0 0 0 4.386-1.204q2.046-1.205 3.477-3.455 1.443-2.261 1.955-5.42"/><defs><linearGradient id="a" x1="181.464" x2="265.145" y1="87.934" y2="121.865" gradientUnits="userSpaceOnUse"><stop stop-color="#e95858"/><stop offset="1" stop-color="#833232"/></linearGradient><linearGradient id="b" x1="86.12" x2="86.12" y1="51" y2="141.299" gradientUnits="userSpaceOnUse"><stop stop-color="#58e4e9"/><stop offset="1" stop-color="#328083"/></linearGradient></defs></svg>