<svg xmlns="http://www.w3.org/2000/svg" width="300" height="200" fill="none" viewBox="0 0 300 200"><path fill="#000" d="M0 0h300v200H0z"/><path stroke="#fff" stroke-width="2" d="M32 110h76M203 110h76M109 44v147M204 44v147"/><path fill="#fff" d="M71.67 162h-2.227l12.33-23.273h2.273L88.648 162H86.42l-3.876-20.511h-.147zm3.091-8.92h11.546l-.318 1.909H74.443zM93.534 26.59l2.375-14.397h1.955l-2.375 14.398zm-5.205-6.226.342-1.944h14.386l-.33 1.944zm28.708 3.363h2.364l2.988 3.944.5.659 3.648 4.852h-2.364l-2.682-3.58-.465-.636zm11.432-4.238q-.602 3.601-2.318 6.261t-4.194 4.114a10.45 10.45 0 0 1-5.386 1.454q-2.988 0-5.045-1.489-2.046-1.5-2.898-4.204-.852-2.716-.25-6.386.602-3.603 2.318-6.262 1.715-2.66 4.205-4.113a10.53 10.53 0 0 1 5.409-1.455q2.954 0 5 1.489t2.909 4.204q.864 2.704.25 6.387m-2.034-.25q.522-3.114-.137-5.307-.648-2.193-2.227-3.353-1.58-1.17-3.83-1.17a8.5 8.5 0 0 0-4.375 1.205q-2.045 1.193-3.488 3.454-1.443 2.25-1.977 5.42-.512 3.103.136 5.308.648 2.193 2.227 3.363 1.591 1.16 3.852 1.16a8.5 8.5 0 0 0 4.387-1.205q2.045-1.205 3.477-3.455 1.443-2.262 1.955-5.42M192.727 18.41l-.318 1.908h-9.682l.318-1.909zm12.966 5.317h2.364l2.988 3.944.5.659 3.648 4.852h-2.363l-2.682-3.58-.466-.636zm11.432-4.238q-.602 3.601-2.318 6.261t-4.193 4.114a10.45 10.45 0 0 1-5.387 1.454q-2.988 0-5.045-1.489-2.046-1.5-2.898-4.204-.852-2.716-.25-6.386.603-3.603 2.318-6.262 1.716-2.66 4.205-4.113a10.53 10.53 0 0 1 5.409-1.455q2.954 0 5 1.489t2.909 4.204q.864 2.704.25 6.387m-2.034-.25q.522-3.114-.136-5.307-.648-2.193-2.228-3.353-1.58-1.17-3.829-1.17a8.5 8.5 0 0 0-4.375 1.205q-2.046 1.193-3.489 3.454-1.443 2.25-1.977 5.42-.512 3.103.136 5.308.648 2.193 2.227 3.363 1.591 1.16 3.853 1.16a8.5 8.5 0 0 0 4.386-1.205q2.046-1.205 3.477-3.455 1.443-2.262 1.955-5.42"/><path fill="#ff2" d="m149 135-10-5.774v11.548zm-39 0v1h30v-2h-30zM165 135l10 5.774v-11.548zm39 1a1 1 0 0 0 0-2v2m-30-1v1h30v-2h-30z"/><path fill="#fff" d="m126.636 176 3.864-23.273h13.466l-.318 1.909h-11.341l-1.455 8.762h10.284l-.318 1.909h-10.284L128.761 176z"/></svg>