<svg xmlns="http://www.w3.org/2000/svg" width="300" height="200" fill="none" viewBox="0 0 300 200"><g clip-path="url(#a)"><path fill="#000" d="M0 0h300v200H0z"/><path stroke="#fff" stroke-width="2" d="M32 110h76M203 110h76M109 44v147M204 44v147"/><rect width="92" height="144" x="111" y="44" fill="url(#b)" rx="8"/><path fill="#fff" d="m147.636 118 3.864-23.273h2.125l-2.08 12.534h.216l13.432-12.534h2.796l-11.716 10.762L164.08 118h-2.591l-6.773-11.034-3.682 3.477-1.273 7.557zM79.67 166h-2.227l12.33-23.273h2.273L96.648 166H94.42l-3.876-20.511h-.147zm3.091-8.92h11.546l-.318 1.909H82.443zM111 35l10 5.773V29.226zm86 0-10-5.773v11.546zm-77 0v1h68v-2h-68zM154.466 27.364q-2.148 0-3.58-1.137-1.431-1.136-2-3.17-.567-2.034-.125-4.739.455-2.692 1.694-4.716 1.25-2.034 3.056-3.159a7.34 7.34 0 0 1 3.966-1.136q1.602 0 2.557.568.966.556 1.466 1.386t.716 1.614h.182l1.522-9.148h2.035L162.091 27h-1.966l.545-3.239h-.25q-.487.795-1.284 1.637-.783.83-1.931 1.398-1.148.567-2.739.568m.443-1.853a5.34 5.34 0 0 0 3.057-.92q1.375-.932 2.295-2.557.933-1.635 1.273-3.75.352-2.091-.011-3.693-.364-1.614-1.409-2.523-1.046-.92-2.762-.92-1.738 0-3.091.954-1.352.944-2.238 2.557-.876 1.614-1.216 3.625-.33 2.035 0 3.67.33 1.637 1.341 2.603 1.023.954 2.761.954"/></g><defs><linearGradient id="b" x1="157" x2="157" y1="44" y2="188" gradientUnits="userSpaceOnUse"><stop stop-color="#ef5dfd"/><stop offset="1" stop-color="#8f3897"/></linearGradient><clipPath id="a"><path fill="#fff" d="M0 0h300v200H0z"/></clipPath></defs></svg>