<svg xmlns="http://www.w3.org/2000/svg" width="300" height="200" fill="none" viewBox="0 0 300 200"><path fill="#000" d="M0 0h300v200H0z"/><path stroke="#fff" stroke-width="2" d="M0 115h76M224 113h76M77 49v147M224 49v147"/><rect width="142" height="69" x="80" y="52" fill="url(#a)" rx="8"/><rect width="142" height="72" x="80" y="124" fill="url(#b)" rx="8"/><path fill="#fff" d="m133.636 92 3.864-23.273h2.125l-2.08 12.534h.216l13.432-12.534h2.796L142.273 79.49 150.08 92h-2.591l-6.773-11.034-3.682 3.477L135.761 92zm21.671 4 2-12.046h-.114l-3.875 2.307.33-1.886 3.886-2.33h1.909L157.125 96zM39.67 92h-2.227l12.33-23.273h2.272L56.649 92H54.42l-3.875-20.511h-.147zm3.091-8.92h11.546l-.318 1.909H42.443zM61.807 96l2-12.046h-.114l-3.875 2.307.33-1.886 3.886-2.33h1.91L63.624 96zM39.67 163h-2.227l12.33-23.273h2.272L56.649 163H54.42l-3.875-20.511h-.147zm3.091-8.92h11.546l-.318 1.909H42.443zM58.58 167l.204-1.364 6.045-4.897q1.08-.864 1.762-1.512.693-.648 1.057-1.204a3 3 0 0 0 .454-1.193q.182-1.092-.545-1.773-.717-.682-2-.682-1.307 0-2.296.739-.977.738-1.159 1.886h-1.84q.295-1.784 1.806-2.955 1.523-1.18 3.66-1.181 1.42 0 2.397.534.989.534 1.432 1.454.443.909.261 2.046a4.5 4.5 0 0 1-.58 1.591q-.431.738-1.317 1.602-.888.852-2.364 2.034l-4.012 3.239v.079h7.42l-.25 1.557zM143.636 167l3.864-23.273h2.125l-2.08 12.534h.216l13.432-12.534h2.796l-11.716 10.762L160.08 167h-2.591l-6.773-11.034-3.682 3.477-1.273 7.557zm18.444 4 .204-1.364 6.046-4.897a28 28 0 0 0 1.761-1.512q.693-.648 1.057-1.204.363-.569.454-1.193.182-1.092-.545-1.773-.716-.682-2-.682-1.307 0-2.296.739-.977.738-1.159 1.886h-1.841q.296-1.784 1.807-2.955 1.523-1.18 3.659-1.181 1.42 0 2.398.534.988.534 1.432 1.454.442.909.261 2.046a4.5 4.5 0 0 1-.579 1.591q-.432.738-1.319 1.602-.885.852-2.363 2.034l-4.012 3.239v.079h7.421l-.25 1.557zM79 43l10 5.773V37.227zm142 0-10-5.773v11.547zM88 43v1h124v-2H88zM146.466 31.364q-2.148 0-3.58-1.137-1.431-1.136-2-3.17-.567-2.034-.125-4.739.455-2.692 1.694-4.716 1.25-2.034 3.056-3.159a7.34 7.34 0 0 1 3.966-1.136q1.602 0 2.557.568.966.556 1.466 1.386t.716 1.614h.182l1.522-9.148h2.035L154.091 31h-1.966l.545-3.239h-.25q-.487.795-1.284 1.637-.783.83-1.931 1.398-1.148.567-2.739.568m.443-1.853a5.34 5.34 0 0 0 3.057-.92q1.375-.932 2.295-2.557.933-1.635 1.273-3.75.352-2.091-.011-3.693-.364-1.614-1.409-2.523-1.046-.92-2.762-.92-1.738 0-3.091.954-1.352.944-2.238 2.557-.876 1.614-1.216 3.625-.33 2.035 0 3.67.33 1.637 1.341 2.603 1.023.954 2.761.954"/><defs><linearGradient id="a" x1="151" x2="151" y1="52" y2="121" gradientUnits="userSpaceOnUse"><stop stop-color="#ef5dfd"/><stop offset="1" stop-color="#8f3897"/></linearGradient><linearGradient id="b" x1="151" x2="151" y1="124" y2="196" gradientUnits="userSpaceOnUse"><stop stop-color="#70fd5d"/><stop offset="1" stop-color="#439738"/></linearGradient></defs></svg>