<svg xmlns="http://www.w3.org/2000/svg" width="300" height="200" fill="none" viewBox="0 0 300 200"><g clip-path="url(#a)"><path fill="#000" d="M0 0h300v200H0z"/><path stroke="#fff" stroke-width="2" d="M143 31v56M180 31v57"/><path fill="#ff2" d="M216.489 30h-2.114a5.9 5.9 0 0 0-.477-2.204 5.45 5.45 0 0 0-1.239-1.785 5.6 5.6 0 0 0-1.898-1.181q-1.09-.42-2.443-.42-2.227 0-4.261 1.17-2.034 1.158-3.5 3.409t-2 5.5q-.534 3.204.17 5.397.705 2.182 2.307 3.307 1.614 1.125 3.784 1.125a8.4 8.4 0 0 0 2.659-.42 8.9 8.9 0 0 0 2.341-1.17 9.1 9.1 0 0 0 1.875-1.785 8.1 8.1 0 0 0 1.25-2.216h2.137a11.6 11.6 0 0 1-1.557 2.989 11.5 11.5 0 0 1-2.364 2.409 10.8 10.8 0 0 1-2.989 1.614 10.2 10.2 0 0 1-3.454.58q-2.978 0-5.034-1.49-2.046-1.488-2.909-4.193-.852-2.715-.239-6.397.603-3.614 2.307-6.273 1.716-2.66 4.204-4.102a10.54 10.54 0 0 1 5.41-1.455q1.863 0 3.34.58 1.477.567 2.512 1.613a7.1 7.1 0 0 1 1.602 2.41q.556 1.374.58 2.988m3.537 20 2-12.045h-.114l-3.875 2.306.329-1.886 3.887-2.33h1.909L221.844 50zM111.193 23.727h2.364l2.988 3.944.5.659 3.648 4.852h-2.363l-2.682-3.58-.466-.636zm11.432-4.238q-.603 3.601-2.318 6.261t-4.193 4.114a10.45 10.45 0 0 1-5.387 1.454q-2.988 0-5.045-1.489-2.046-1.5-2.898-4.204-.852-2.716-.25-6.386.603-3.603 2.318-6.262 1.716-2.66 4.205-4.113a10.53 10.53 0 0 1 5.409-1.455q2.954 0 5 1.489t2.909 4.204q.864 2.704.25 6.387m-2.034-.25q.522-3.114-.136-5.307-.648-2.193-2.228-3.353-1.58-1.17-3.829-1.17a8.5 8.5 0 0 0-4.375 1.205q-2.046 1.193-3.489 3.454-1.443 2.25-1.977 5.42-.512 3.103.136 5.308.648 2.193 2.227 3.363 1.591 1.16 3.853 1.16a8.5 8.5 0 0 0 4.386-1.205q2.046-1.205 3.477-3.455 1.443-2.262 1.955-5.42M127.307 35l2-12.045h-.114l-3.875 2.306.33-1.886 3.886-2.33h1.909L129.125 35z"/><path stroke="#fff" stroke-width="2" d="M72 59h70.5M250 59h-70M143 118v56M180 118v57"/><path fill="#ff2" d="M214.489 169h-2.114a5.9 5.9 0 0 0-.477-2.205 5.5 5.5 0 0 0-1.239-1.784 5.6 5.6 0 0 0-1.898-1.181q-1.09-.421-2.443-.421-2.227 0-4.261 1.171-2.034 1.158-3.5 3.409t-2 5.5q-.534 3.204.17 5.397.705 2.182 2.307 3.307 1.614 1.125 3.784 1.125 1.387 0 2.659-.42a9 9 0 0 0 2.341-1.171 9 9 0 0 0 1.875-1.784 8.1 8.1 0 0 0 1.25-2.216h2.137a11.6 11.6 0 0 1-1.557 2.989 11.5 11.5 0 0 1-2.364 2.409 10.9 10.9 0 0 1-2.989 1.614 10.2 10.2 0 0 1-3.454.579q-2.978 0-5.034-1.488-2.046-1.49-2.909-4.194-.852-2.716-.239-6.397.603-3.614 2.307-6.273 1.716-2.66 4.204-4.102a10.54 10.54 0 0 1 5.41-1.455q1.863 0 3.34.58 1.477.567 2.512 1.613a7.1 7.1 0 0 1 1.602 2.409q.556 1.375.58 2.989m.309 20 .205-1.364 6.045-4.897q1.08-.864 1.762-1.512.693-.648 1.056-1.204a3 3 0 0 0 .455-1.193q.181-1.092-.545-1.773-.717-.682-2-.682-1.308 0-2.296.739-.977.738-1.159 1.886h-1.841q.295-1.784 1.807-2.955 1.523-1.18 3.659-1.181 1.42 0 2.398.534.988.534 1.432 1.454.442.909.261 2.046a4.5 4.5 0 0 1-.58 1.591q-.431.738-1.318 1.602-.887.852-2.363 2.034l-4.012 3.239v.079h7.421l-.25 1.557zM33.193 77.727h2.364l2.988 3.944.5.658 3.648 4.853H40.33l-2.682-3.58-.466-.636zm11.432-4.238q-.602 3.602-2.318 6.261t-4.193 4.114a10.45 10.45 0 0 1-5.387 1.454q-2.988 0-5.045-1.489-2.046-1.5-2.898-4.204-.852-2.716-.25-6.386.603-3.603 2.318-6.262 1.716-2.66 4.205-4.113a10.53 10.53 0 0 1 5.409-1.455q2.954 0 5 1.489t2.909 4.204q.864 2.704.25 6.387m-2.034-.25q.522-3.114-.136-5.307-.648-2.193-2.228-3.353-1.58-1.17-3.83-1.17a8.5 8.5 0 0 0-4.374 1.205q-2.046 1.193-3.489 3.454-1.443 2.25-1.977 5.42-.512 3.103.136 5.308.648 2.193 2.227 3.363 1.591 1.16 3.853 1.16 2.34 0 4.386-1.205t3.477-3.455q1.443-2.261 1.955-5.42"/><path stroke="#fff" stroke-width="2" d="M72 146h70.5m107.5 0h-70M73 59v87M249 59v87M3 102h69M248 102h69"/><path fill="#ff2" d="m44 102-10-5.773v11.547z"/><path fill="#fff" d="m150.199 41.814 1.484-8.992h1.222l-1.485 8.992zm-3.246-3.892.206-1.207h8.999l-.213 1.207zm3.246 27.892 1.484-8.992h1.222l-1.485 8.992zm-3.246-3.892.206-1.207h8.999l-.213 1.207zm3.246 27.892 1.484-8.992h1.222l-1.485 8.992zm-3.246-3.892.206-1.207h8.999l-.213 1.207zM173.784 35.168l-.199 1.193h-6.051l.199-1.193zm0 24-.199 1.193h-6.051l.199-1.193zm0 24-.199 1.193h-6.051l.199-1.193zM150.199 127.814l1.484-8.992h1.222l-1.485 8.992zm-3.246-3.892.206-1.208h8.999l-.213 1.208zm3.246 27.892 1.484-8.992h1.222l-1.485 8.992zm-3.246-3.892.206-1.208h8.999l-.213 1.208zm3.246 27.892 1.484-8.992h1.222l-1.485 8.992zm-3.246-3.892.206-1.208h8.999l-.213 1.208zM173.784 121.168l-.199 1.193h-6.051l.199-1.193zm0 24-.199 1.193h-6.051l.199-1.193zm0 24-.199 1.193h-6.051l.199-1.193z"/></g><defs><clipPath id="a"><path fill="#fff" d="M0 0h300v200H0z"/></clipPath></defs></svg>