<svg xmlns="http://www.w3.org/2000/svg" width="300" height="200" fill="none" viewBox="0 0 300 200"><path fill="#000" d="M0 0h300v200H0z"/><path stroke="#fff" stroke-width="2" d="M137 27v56M169 26v57M112 148l6.928-12 12.991 22.5 12.99-22.5 12.99 22.5L170.89 136l12.99 22.5 7.794-13.5"/><path fill="#ff2" d="M162.489 98h-2.114a5.9 5.9 0 0 0-.477-2.204 5.45 5.45 0 0 0-1.239-1.785 5.6 5.6 0 0 0-1.898-1.181q-1.09-.42-2.443-.42-2.227 0-4.261 1.17-2.034 1.159-3.5 3.409t-2 5.5q-.534 3.204.17 5.397.705 2.182 2.307 3.307 1.614 1.125 3.784 1.125 1.387 0 2.659-.42a9 9 0 0 0 2.341-1.171 9 9 0 0 0 1.875-1.784 8.1 8.1 0 0 0 1.25-2.216h2.137a11.6 11.6 0 0 1-1.557 2.989 11.5 11.5 0 0 1-2.364 2.409 10.9 10.9 0 0 1-2.989 1.614 10.2 10.2 0 0 1-3.454.579q-2.978 0-5.034-1.488-2.046-1.49-2.909-4.194-.852-2.715-.239-6.397.603-3.614 2.307-6.273 1.716-2.66 4.204-4.102a10.54 10.54 0 0 1 5.41-1.455q1.863 0 3.34.58 1.477.567 2.512 1.613a7.1 7.1 0 0 1 1.602 2.41q.556 1.374.58 2.988"/><path stroke="#fff" stroke-width="2" d="M113 147H57.5V57.5H137M192 145.5h55.5V56H168"/><path fill="#fff" d="m75.534 26.59 2.375-14.397h1.955l-2.375 14.398zm-5.205-6.226.342-1.944h14.386l-.33 1.944zm28.708 3.363h2.364l2.988 3.944.5.659 3.648 4.852h-2.364l-2.682-3.58-.465-.636zm11.432-4.238q-.603 3.601-2.318 6.261t-4.194 4.114a10.45 10.45 0 0 1-5.386 1.454q-2.988 0-5.045-1.489-2.046-1.5-2.898-4.204-.852-2.716-.25-6.386.602-3.603 2.318-6.262 1.716-2.66 4.205-4.113a10.53 10.53 0 0 1 5.409-1.455q2.954 0 5 1.489t2.909 4.204q.864 2.704.25 6.387m-2.034-.25q.522-3.114-.137-5.307-.648-2.193-2.227-3.353-1.58-1.17-3.83-1.17-2.329 0-4.374 1.205-2.046 1.193-3.49 3.454-1.442 2.25-1.976 5.42-.512 3.103.136 5.308.648 2.193 2.227 3.363 1.59 1.16 3.853 1.16a8.5 8.5 0 0 0 4.386-1.205q2.045-1.205 3.477-3.455 1.443-2.262 1.955-5.42m8.545 16q-2.556 0-3.704-1.91-1.137-1.898-.569-5.295.569-3.375 2.33-5.273t4.318-1.897q2.614 0 3.75 1.92 1.148 1.92.602 5.205-.58 3.454-2.375 5.352-1.784 1.898-4.352 1.898m.193-1.591q1.705 0 2.932-1.455 1.227-1.443 1.693-4.193.444-2.647-.261-4.114-.694-1.477-2.386-1.477-1.626 0-2.853 1.443-1.215 1.432-1.682 4.148-.443 2.636.205 4.136.648 1.512 2.352 1.512M185.727 18.41l-.318 1.908h-9.682l.318-1.909zm12.966 5.317h2.364l2.988 3.944.5.659 3.648 4.852h-2.363l-2.682-3.58-.466-.636zm11.432-4.238q-.602 3.601-2.318 6.261t-4.193 4.114a10.45 10.45 0 0 1-5.387 1.454q-2.988 0-5.045-1.489-2.046-1.5-2.898-4.204-.852-2.716-.25-6.386.603-3.603 2.318-6.262 1.716-2.66 4.205-4.113a10.53 10.53 0 0 1 5.409-1.455q2.954 0 5 1.489t2.909 4.204q.864 2.704.25 6.387m-2.034-.25q.522-3.114-.136-5.307-.648-2.193-2.228-3.353-1.58-1.17-3.829-1.17a8.5 8.5 0 0 0-4.375 1.205q-2.046 1.193-3.489 3.454-1.443 2.25-1.977 5.42-.512 3.103.136 5.308.648 2.193 2.227 3.363 1.591 1.16 3.853 1.16a8.5 8.5 0 0 0 4.386-1.205q2.046-1.205 3.477-3.455 1.443-2.262 1.955-5.42m8.545 16q-2.556 0-3.704-1.91-1.137-1.898-.568-5.295.567-3.375 2.329-5.273t4.318-1.897q2.614 0 3.75 1.92 1.148 1.92.603 5.205-.58 3.454-2.375 5.352-1.785 1.898-4.353 1.898m.194-1.591q1.704 0 2.931-1.455 1.228-1.443 1.694-4.193.443-2.647-.262-4.114-.693-1.477-2.386-1.477-1.626 0-2.852 1.443-1.217 1.432-1.682 4.148-.444 2.636.204 4.136.648 1.512 2.353 1.512"/><path fill="#ff2" d="m144.636 192 3.864-23.273h7.511q2.477 0 3.989.887 1.523.886 2.102 2.466.59 1.568.262 3.613-.341 2.023-1.455 3.58-1.102 1.557-2.909 2.443-1.807.875-4.261.875h-6.387l.33-1.943h6.329q1.83 0 3.137-.603 1.306-.602 2.091-1.715.783-1.114 1.034-2.637.25-1.535-.171-2.67-.409-1.137-1.522-1.762-1.102-.624-2.944-.625h-5.329L146.761 192zm12-10.5 3.989 10.5h-2.443l-3.921-10.5z"/></svg>