<svg xmlns="http://www.w3.org/2000/svg" width="300" height="200" fill="none" viewBox="0 0 300 200"><g clip-path="url(#a)"><path fill="#000" d="M0 0h300v200H0z"/><g filter="url(#b)"><path fill="#8ff8ff" d="m121 18-14.573 9.361 15.394 7.94zm-49 95 1.333.688 42.812-83.002-1.333-.688-1.334-.688-42.811 83.002z"/></g><path fill="#ffa3a5" d="m277 175-.078-17.32-14.961 8.727zm-56-96-1.296.756 49.198 84.339 1.296-.756 1.295-.756-49.197-84.339z"/><circle cx="72" cy="113" r="39" fill="url(#c)"/><circle cx="220" cy="77" r="39" fill="url(#d)"/><path fill="#000" d="m50.125 123 3.273-19.636h2.914l-.51 3.068h.255a6.34 6.34 0 0 1 2.39-2.442q1.522-.882 3.44-.882t3.08.882q1.164.87 1.624 2.442h.205a7.15 7.15 0 0 1 2.658-2.429q1.675-.895 3.785-.895 2.607 0 4.014 1.649 1.419 1.65.844 5.101L75.897 123h-3.016l2.198-13.142q.345-2.186-.69-3.107-1.023-.933-2.633-.933-2.072 0-3.414 1.24t-1.649 3.158L64.546 123h-3.069l2.25-13.449q.27-1.687-.639-2.71-.908-1.023-2.633-1.023-1.177 0-2.302.639a5.95 5.95 0 0 0-1.93 1.739 5.76 5.76 0 0 0-1.035 2.531L53.142 123zm34.46 6 2.863-17.216h-.17l-6 3.58.613-3.614 6.17-3.682h3.546L88.13 129z"/><path fill="#ffa3a5" d="M214.852 152.46q-1.866 0-3.272-.703-1.407-.716-2.084-2.058-.678-1.355-.371-3.273.294-1.687 1.138-2.736a6 6 0 0 1 2.045-1.662q1.215-.613 2.608-.907a30 30 0 0 1 2.8-.473q1.815-.23 2.953-.358t1.713-.422q.576-.294.703-1.01v-.102q.308-1.88-.498-2.928-.805-1.06-2.877-1.061-2.148 0-3.592.946-1.445.946-2.135 2.02l-2.659-1.023q1.048-1.79 2.506-2.787a9.3 9.3 0 0 1 3.055-1.406 12.4 12.4 0 0 1 3.081-.409q.946 0 2.135.23a5.9 5.9 0 0 1 2.224.908q1.048.69 1.573 2.084.537 1.393.153 3.732L223.903 152h-3.017l.461-2.659h-.154q-.409.639-1.253 1.368-.831.729-2.109 1.24-1.266.511-2.979.511m.87-2.71q1.79 0 3.132-.703 1.355-.703 2.173-1.815.831-1.113 1.035-2.34l.461-2.761q-.23.23-.908.422-.678.178-1.534.319-.844.128-1.649.23-.793.09-1.279.154-1.202.153-2.288.498-1.074.332-1.815 1.01-.73.664-.908 1.816-.269 1.572.754 2.377 1.023.793 2.826.793m11.745 8.25.409-2.659 9.205-7.091a40 40 0 0 0 2.386-1.943q.972-.852 1.5-1.619a3.8 3.8 0 0 0 .682-1.62q.255-1.534-.75-2.437-1.006-.904-2.796-.904-1.738 0-3.102.955-1.347.954-1.602 2.591h-3.614q.46-2.813 2.847-4.637 2.386-1.84 5.812-1.841 2.318 0 3.87.853 1.568.835 2.25 2.284.698 1.432.426 3.204a6.8 6.8 0 0 1-.887 2.438q-.681 1.142-2.045 2.42-1.364 1.28-3.614 2.983l-5.182 3.887V155h10.432l-.477 3z"/><path fill="#8cf3ff" d="M66.852 42.46q-1.866 0-3.273-.703-1.406-.715-2.083-2.058-.678-1.355-.371-3.273.294-1.687 1.138-2.736a6 6 0 0 1 2.045-1.662q1.216-.613 2.608-.907 1.406-.307 2.8-.473a218 218 0 0 1 2.953-.358q1.139-.128 1.713-.422.576-.294.703-1.01v-.102q.307-1.88-.498-2.928-.805-1.06-2.877-1.061-2.148 0-3.592.946-1.445.945-2.135 2.02l-2.66-1.023q1.05-1.79 2.506-2.787a9.3 9.3 0 0 1 3.056-1.406 12.4 12.4 0 0 1 3.08-.409q.947 0 2.136.23a5.9 5.9 0 0 1 2.224.908q1.049.69 1.573 2.084.537 1.393.153 3.733L75.903 42h-3.017l.46-2.66h-.153q-.408.64-1.253 1.369-.831.729-2.109 1.24-1.266.51-2.979.511m.87-2.71q1.79 0 3.132-.703 1.354-.703 2.173-1.815.832-1.113 1.035-2.34l.46-2.761q-.23.23-.907.422-.678.178-1.534.32-.843.126-1.65.23-.792.088-1.278.153-1.201.153-2.288.498-1.074.333-1.815 1.01-.73.664-.908 1.816-.268 1.572.754 2.377 1.023.793 2.826.793M84.58 48l2.863-17.216h-.17l-6 3.58.613-3.614 6.17-3.682h3.546L88.126 48z"/><path fill="#000" d="m198.125 88 3.273-19.636h2.914l-.511 3.068h.256a6.33 6.33 0 0 1 2.39-2.442q1.522-.882 3.439-.882 1.919 0 3.081.882 1.164.87 1.624 2.442h.204a7.17 7.17 0 0 1 2.66-2.43q1.674-.894 3.784-.894 2.607 0 4.014 1.65 1.419 1.648.844 5.1L223.898 88h-3.017l2.199-13.142q.345-2.186-.691-3.107-1.022-.933-2.633-.933-2.071 0-3.414 1.24t-1.649 3.158L212.545 88h-3.068l2.25-13.449q.269-1.687-.639-2.71t-2.633-1.023q-1.177 0-2.302.64a5.9 5.9 0 0 0-1.93 1.738 5.76 5.76 0 0 0-1.035 2.531L201.142 88zm29.346 6 .409-2.66 9.205-7.09a41 41 0 0 0 2.386-1.943q.972-.852 1.5-1.62a3.8 3.8 0 0 0 .682-1.619q.255-1.533-.75-2.437-1.006-.904-2.796-.904-1.738 0-3.102.955-1.347.954-1.602 2.59h-3.614q.46-2.811 2.847-4.636 2.386-1.84 5.812-1.84 2.319 0 3.869.852 1.569.834 2.25 2.284.699 1.431.427 3.204a6.8 6.8 0 0 1-.887 2.438q-.681 1.142-2.045 2.42-1.364 1.28-3.614 2.983l-5.182 3.887V91h10.432l-.477 3z"/></g><defs><linearGradient id="c" x1="72" x2="72" y1="74" y2="152" gradientUnits="userSpaceOnUse"><stop stop-color="#bcfbff"/><stop offset="1" stop-color="#00bdca"/></linearGradient><linearGradient id="d" x1="220" x2="220" y1="38" y2="116" gradientUnits="userSpaceOnUse"><stop stop-color="#d00003"/><stop offset="1" stop-color="#ffa3a5"/></linearGradient><clipPath id="a"><path fill="#fff" d="M0 0h300v200H0z"/></clipPath><filter id="b" width="59.154" height="103.688" x="66.667" y="18" color-interpolation-filters="sRGB" filterUnits="userSpaceOnUse"><feFlood flood-opacity="0" result="BackgroundImageFix"/><feColorMatrix in="SourceAlpha" result="hardAlpha" values="0 0 0 0 0 0 0 0 0 0 0 0 0 0 0 0 0 0 127 0"/><feOffset dy="4"/><feGaussianBlur stdDeviation="2"/><feComposite in2="hardAlpha" operator="out"/><feColorMatrix values="0 0 0 0 0 0 0 0 0 0 0 0 0 0 0 0 0 0 0.25 0"/><feBlend in2="BackgroundImageFix" result="effect1_dropShadow_137_393"/><feBlend in="SourceGraphic" in2="effect1_dropShadow_137_393" result="shape"/></filter></defs></svg>