<svg xmlns="http://www.w3.org/2000/svg" width="300" height="200" fill="none" viewBox="0 0 300 200"><g clip-path="url(#a)"><path fill="#000" d="M0 0h300v200H0z"/><path fill="url(#b)" d="M300 197h300v25H300z" transform="rotate(-180 300 197)"/><path fill="url(#c)" d="M300 172h150v59H300z" transform="rotate(-180 300 172)"/><path stroke="#fff" stroke-width="2" d="M77 136.5c10.58 5.344 10.81 9.535 6.5 18"/><mask id="d" fill="#fff"><path d="M97.437 148.216q-1.793 0-2.981-.994-1.166-1.014-1.75-2.872-.583-1.88-.583-4.493 0-2.636.519-4.515.54-1.879 1.706-2.872 1.188-.994 3.089-.994 1.836 0 3.024.994 1.188.972 1.771 2.851t.583 4.536q0 2.613-.54 4.493-.54 1.857-1.728 2.872-1.166.994-3.11.994m0-1.814q1.037 0 1.685-.584.669-.604.993-1.879.346-1.296.389-3.391h-6.07q.044 2.052.346 3.348.303 1.296.95 1.901.67.605 1.707.605m-3.003-7.604h6.048q-.043-1.879-.388-3.088-.345-1.231-.994-1.815t-1.642-.583q-1.014 0-1.663.583-.648.584-.972 1.815-.302 1.21-.389 3.088"/></mask><path fill="#fff" d="m94.456 147.222-.657.755.008.006.007.006zm-1.75-2.872-.955.296.001.003zm-.064-9.008-.962-.276-.002.01zm1.706-2.872-.642-.768-.007.006zm6.113 0-.642.767.009.007zm1.814 11.88.96.279.001-.003zm-1.728 2.872.649.762.001-.001zm-1.425-1.404.669.744v-.001zm.993-1.879-.966-.257-.003.011zm.389-3.391 1 .021.021-1.021h-1.021zm-6.07 0v-1h-1.02l.02 1.021zm.346 3.348.974-.227zm.95 1.901-.682.731.006.005.006.006zm-1.296-6.999-.998-.046-.049 1.046h1.047zm6.048 0v1h1.024l-.024-1.023zm-.388-3.088-.963.27.001.004zm-.994-1.815.669-.743zm-3.305 0-.669-.743zm-.972 1.815-.967-.255-.003.012zm2.614 12.506v-1c-1 0-1.755-.272-2.34-.761l-.641.767-.642.767c1 .837 2.232 1.227 3.623 1.227zm-2.981-.994.656-.754c-.606-.528-1.104-1.31-1.451-2.418l-.955.3-.954.299c.43 1.369 1.099 2.502 2.047 3.328zm-1.75-2.872.956-.297c-.352-1.131-.539-2.523-.539-4.196h-2c0 1.812.202 3.415.628 4.789zm-.583-4.493h1c0-1.696.168-3.107.483-4.249l-.964-.266-.964-.266c-.377 1.364-.555 2.963-.555 4.781zm.519-4.515.96.277c.321-1.116.803-1.884 1.394-2.388l-.648-.761-.648-.762c-.964.821-1.62 1.968-2.02 3.358zm1.706-2.872.642.767c.573-.48 1.359-.761 2.447-.761v-2c-1.447 0-2.72.382-3.73 1.227zm3.089-.994v1c1.035 0 1.802.276 2.382.761l.642-.767.641-.767c-1.004-.84-2.252-1.227-3.665-1.227zm3.024.994-.633.774c.602.493 1.102 1.255 1.449 2.373l.955-.296.955-.297c-.431-1.387-1.112-2.525-2.093-3.328zm1.771 2.851-.955.296c.351 1.13.538 2.536.538 4.24h2c0-1.839-.201-3.457-.628-4.833zm.583 4.536h-1c0 1.678-.174 3.078-.501 4.216l.961.277.961.276c.393-1.367.579-2.963.579-4.769zm-.54 4.493-.96-.28c-.319 1.096-.805 1.869-1.418 2.392l.65.76.65.761c.972-.831 1.637-1.973 2.038-3.354zm-1.728 2.872-.648-.761c-.553.471-1.338.755-2.462.755v2c1.468 0 2.756-.378 3.759-1.232zm-3.11-.82v1c.889 0 1.704-.256 2.354-.84l-.67-.744-.668-.743c-.215.193-.523.327-1.016.327zm1.685-.584.67.743c.645-.583 1.049-1.418 1.292-2.375l-.969-.247-.969-.246c-.189.741-.447 1.16-.695 1.383zm.993-1.879.966.258c.26-.972.393-2.191.423-3.628l-1-.021-1-.021c-.028 1.357-.153 2.398-.355 3.155zm.389-3.391v-1h-6.07v2h6.07zm-6.07 0-1 .021c.03 1.404.149 2.597.372 3.554l.974-.227.974-.227c-.18-.771-.292-1.81-.32-3.142zm.346 3.348-.974.227c.226.966.61 1.814 1.242 2.405l.682-.731.683-.731c-.231-.216-.481-.635-.66-1.397zm.95 1.901-.67.742c.658.594 1.477.863 2.377.863v-2c-.483 0-.801-.135-1.036-.347zm-1.296-6.999v1h6.048v-2h-6.048zm6.048 0 1-.023c-.03-1.3-.165-2.422-.427-3.34l-.961.275-.962.274c.199.695.323 1.632.35 2.837zm-.388-3.088.962-.271c-.259-.923-.663-1.726-1.287-2.287l-.669.743-.669.743c.24.217.498.623.7 1.342zm-.994-1.815.669-.743c-.641-.577-1.438-.84-2.31-.84v2c.452 0 .75.126.972.326zm-1.642-.583v-1c-.88 0-1.686.259-2.332.84l.67.743.668.743c.219-.196.521-.326.994-.326zm-1.663.583-.669-.743c-.629.566-1.026 1.376-1.27 2.303l.967.255.967.254c.188-.714.44-1.114.674-1.326zm-.972 1.815-.97-.243c-.224.895-.358 1.996-.417 3.285l.998.046 1 .046c.055-1.216.18-2.174.36-2.892z" mask="url(#d)"/><path stroke="#fff" d="M133 80.5h93M60.639 153.654l66-69"/><ellipse cx="136.969" cy="96.861" fill="url(#e)" rx="18.219" ry="17.098" transform="rotate(138.897 136.969 96.86)"/><path stroke="#828282" stroke-width="4" d="m137.235 96.256 15.479 17.741"/><rect width="56" height="57" x="224" y="56" fill="url(#f)" rx="9"/><rect width="48" height="37" x="13" y="135" fill="url(#g)" rx="9"/><path stroke="#fff" stroke-dasharray="5 5" d="M63 154.5h54"/><path fill="#000" d="M243.503 95h-2.004l11.096-20.945h2.046L258.783 95h-2.005l-3.487-18.46h-.133zm2.782-8.028h10.391l-.286 1.718h-10.391zM30.023 162l2.897-17.455h6.103q1.823 0 2.906.631 1.083.623 1.483 1.679.4 1.049.179 2.327-.187 1.125-.708 1.858a4 4 0 0 1-1.227 1.159 5.7 5.7 0 0 1-1.474.631l-.034.17q.783.052 1.508.562.724.512 1.117 1.466.392.955.17 2.336a5.4 5.4 0 0 1-.997 2.36q-.776 1.048-2.165 1.662T36.33 162zm2.42-1.875h4.193q2.072 0 3.077-.801 1.014-.81 1.219-1.96.135-.887-.196-1.637a2.56 2.56 0 0 0-1.083-1.21q-.75-.46-1.892-.46h-4.295zm1.33-7.909h3.92a4.3 4.3 0 0 0 1.79-.375 3.8 3.8 0 0 0 1.398-1.057q.563-.682.699-1.602.204-1.15-.46-1.952-.666-.81-2.404-.81h-3.989z"/></g><defs><linearGradient id="b" x1="444.47" x2="444.47" y1="222" y2="197" gradientUnits="userSpaceOnUse"><stop stop-color="#935b00"/><stop offset="1"/></linearGradient><linearGradient id="c" x1="372.235" x2="372.235" y1="231" y2="172" gradientUnits="userSpaceOnUse"><stop stop-color="#935b00"/><stop offset="1"/></linearGradient><linearGradient id="e" x1="136.969" x2="136.969" y1="79.763" y2="113.958" gradientUnits="userSpaceOnUse"><stop stop-color="#d9d9d9"/><stop offset="1" stop-color="#737373"/></linearGradient><linearGradient id="f" x1="255" x2="255" y1="113" y2="56" gradientUnits="userSpaceOnUse"><stop stop-color="#ff1519"/><stop offset="1" stop-color="#ff9294"/></linearGradient><linearGradient id="g" x1="37" x2="37" y1="135" y2="172" gradientUnits="userSpaceOnUse"><stop stop-color="#8cf3ff"/><stop offset="1" stop-color="#1ae8ff"/></linearGradient><clipPath id="a"><path fill="#fff" d="M0 0h300v200H0z"/></clipPath></defs></svg>