<svg xmlns="http://www.w3.org/2000/svg" width="300" height="200" fill="none" viewBox="0 0 300 200"><path fill="#000" d="M0 0h300v200H0z"/><path stroke="#fff" d="M145.5 29v70"/><path stroke="#fff" stroke-dasharray="5 5" stroke-width="2" d="M148.926 158.006q2.435.012 4.839.047l-.014 1q2.432.036 4.828.095l.024-1q2.439.061 4.836.145l-.034.999q2.435.086 4.824.194l.044-.998q2.442.112 4.831.247l-.056.998q2.436.14 4.814.301l.068-.998q2.445.168 4.824.36l-.08.996q2.445.196 4.814.42l.093-.995q2.451.23 4.817.486l-.106.994q2.443.264 4.788.557l.122-.993q2.45.305 4.787.636l-.139.99q2.455.35 4.777.727l.159-.986q2.456.4 4.758.831l-.184.981q2.458.46 4.726.953l.212-.976q2.467.536 4.7 1.109l-.248.968q2.454.63 4.6 1.299l.296-.955a61 61 0 0 1 4.573 1.612l-.371.927c1.646.661 3.058 1.337 4.224 2.024l.506-.858c1.7 1 2.937 2.037 3.663 3.107l-.826.562c.41.604.585 1.163.585 1.688s-.175 1.084-.585 1.688l.826.561c-.726 1.07-1.963 2.107-3.663 3.107l-.506-.857c-1.166.687-2.578 1.363-4.224 2.024l.371.926a61 61 0 0 1-4.573 1.613l-.296-.955q-2.146.67-4.6 1.299l.248.967a129 129 0 0 1-4.7 1.109l-.212-.975q-2.268.492-4.726.953l.184.98q-2.302.432-4.758.831l-.159-.985q-2.322.378-4.777.727l.139.989q-2.337.332-4.787.636l-.122-.992q-2.345.293-4.788.557l.106.993q-2.366.256-4.817.486l-.093-.994q-2.37.224-4.814.42l.08.996q-2.379.191-4.824.359l-.068-.997q-2.378.162-4.814.301l.056.997q-2.39.135-4.831.247l-.044-.997q-2.389.108-4.824.194l.034.998q-2.397.084-4.836.145l-.024-.999q-2.396.059-4.828.095l.014.999q-2.404.035-4.839.047l-.004-.999a487 487 0 0 1-4.844 0l-.005.999a482 482 0 0 1-4.839-.047l.015-.999a503 503 0 0 1-4.828-.095l-.025.999a494 494 0 0 1-4.836-.145l.035-.998a479 479 0 0 1-4.824-.194l-.045.997a464 464 0 0 1-4.83-.247l.056-.997a446 446 0 0 1-4.814-.301l-.069.997q-2.445-.167-4.824-.359l.081-.996a349 349 0 0 1-4.814-.42l-.094.994q-2.451-.23-4.817-.486l.107-.993a294 294 0 0 1-4.788-.557l-.123.992a282 282 0 0 1-4.787-.636l.14-.989q-2.454-.35-4.777-.727l-.16.985a198 198 0 0 1-4.758-.831l.185-.98a170 170 0 0 1-4.726-.953l-.213.975a129 129 0 0 1-4.7-1.109l.249-.967a93 93 0 0 1-4.6-1.299l-.297.955a61 61 0 0 1-4.573-1.613l.372-.926c-1.646-.661-3.058-1.337-4.224-2.024l-.507.857c-1.7-1-2.937-2.037-3.663-3.107l.827-.561c-.41-.604-.585-1.163-.585-1.688s.175-1.084.585-1.688l-.827-.562c.726-1.07 1.963-2.107 3.663-3.107l.507.858c1.166-.687 2.578-1.363 4.224-2.024l-.372-.927a61 61 0 0 1 4.573-1.612l.297.955a93 93 0 0 1 4.6-1.299l-.249-.968q2.234-.573 4.7-1.109l.213.976q2.268-.492 4.726-.953l-.185-.981q2.302-.431 4.758-.831l.16.986q2.323-.378 4.777-.727l-.14-.99q2.337-.332 4.787-.636l.123.993q2.345-.293 4.788-.557l-.107-.994q2.366-.256 4.817-.486l.094.995q2.37-.224 4.814-.42l-.081-.996a406 406 0 0 1 4.824-.36l.069.998q2.378-.162 4.814-.301l-.056-.998a464 464 0 0 1 4.83-.247l.045.998q2.389-.108 4.824-.194l-.035-.999q2.398-.084 4.836-.145l.025 1q2.396-.059 4.828-.095l-.015-1q2.404-.035 4.839-.047l.005 1a487 487 0 0 1 4.844 0z"/><path stroke="#fff" stroke-width="2" d="m146.164 29.556-91.111 136.06"/><path fill="url(#a)" d="M96 4h108v25H96z"/><circle cx="55" cy="168" r="19" fill="url(#b)"/><path fill="#f1ff2f" d="m50.578 149.267 10.388-5.041-9.56-6.477zM127.11 36.289l-10.388 5.041 9.56 6.476zM55.625 141.815l.828.561 66.438-98.075-.828-.56-.827-.562-66.438 98.076zM70.986 65.625 67.747 85h-2.301l3.239-19.375z"/><path stroke="#fffdfd" stroke-width="2" d="M130.59 54c2.902 8.722 5.396 8.896 15.371 9.59"/><path fill="#fff" d="M131.192 88.23q1.886 0 3.128-1.058 1.219-1.08 1.817-3.059.598-2.001.598-4.784 0-2.806-.552-4.807t-1.771-3.059q-1.242-1.058-3.22-1.058-1.91 0-3.151 1.058-1.242 1.035-1.84 3.036-.621 2.001-.621 4.83 0 2.783.575 4.784.552 1.978 1.794 3.059 1.22 1.058 3.243 1.058m0-1.679q-1.196 0-1.955-.69-.781-.69-1.173-2.162-.391-1.472-.437-3.841h7.061q-.046 2.346-.391 3.818-.368 1.472-1.127 2.185-.759.69-1.978.69m3.496-8.257h-7.038q.069-2.092.46-3.45.391-1.38 1.15-2.047.759-.69 1.932-.69t1.932.69q.737.667 1.104 2.047.368 1.358.46 3.45"/><defs><linearGradient id="a" x1="148.009" x2="148.009" y1="29" y2="4" gradientUnits="userSpaceOnUse"><stop stop-color="#935b00"/><stop offset="1"/></linearGradient><linearGradient id="b" x1="55" x2="55" y1="149" y2="187" gradientUnits="userSpaceOnUse"><stop stop-color="#ff9294"/><stop offset="1" stop-color="#ff1519"/></linearGradient></defs></svg>