<svg xmlns="http://www.w3.org/2000/svg" width="300" height="200" fill="none" viewBox="0 0 300 200"><g clip-path="url(#a)"><path fill="#000" d="M0 0h300v200H0z"/><path stroke="#fff" d="m71.64 123.464 72.245-74.811M163.354 45.646l73 73"/><circle cx="156.285" cy="63.285" r="20.18" fill="url(#b)" transform="rotate(-127.353 156.285 63.285)"/><rect width="48" height="44" x="39" y="131.906" fill="url(#c)" rx="4" transform="rotate(-44.941 39 131.906)"/><path fill="url(#d)" d="M241.062 106.954a4 4 0 0 1 5.656-.122l27.442 26.285a4 4 0 0 1 .122 5.656l-23.518 24.554a4 4 0 0 1-5.656.122l-27.442-26.285a4 4 0 0 1-.122-5.656z"/><path stroke="#828282" stroke-width="4" d="M155 110V63"/><path fill="#000" d="M66.282 123.209q1.042-1.041 2.295-1.413 1.236-.39 2.57.003 1.332.392 2.568 1.629l5.247 5.258-1.465 1.462-5.036-5.047q-1.333-1.335-2.699-1.368-1.365-.067-2.49 1.054-1.155 1.154-1.092 2.585.048 1.415 1.445 2.815l4.907 4.917-1.466 1.462-5.036-5.047q-1.332-1.335-2.698-1.369-1.366-.067-2.49 1.055-1.155 1.153-1.092 2.584.048 1.416 1.444 2.815l4.907 4.917-1.481 1.478-8.904-8.921 1.482-1.478 1.283 1.286a4.16 4.16 0 0 1 .1-2.245 5.1 5.1 0 0 1 1.27-2.015q1.125-1.121 2.49-1.477 1.367-.357 2.765.198a4.14 4.14 0 0 1-.225-2.7q.344-1.382 1.401-2.438m10.815.512-.81-.811 1.837-1.832 7.048 7.062-.899.897-6.238-6.252zM252.363 130.471q1.064 1.018 1.464 2.262.417 1.227.055 2.569-.361 1.341-1.57 2.604l-5.139 5.365-1.495-1.432 4.932-5.149q1.305-1.362 1.308-2.729.035-1.367-1.111-2.465-1.179-1.13-2.608-1.033-1.414.079-2.782 1.508l-4.805 5.016-1.495-1.432 4.932-5.149q1.305-1.362 1.308-2.729.036-1.367-1.111-2.465-1.179-1.13-2.608-1.033-1.414.079-2.782 1.507l-4.805 5.017-1.511-1.448 8.718-9.102 1.512 1.447-1.257 1.312a4.16 4.16 0 0 1 2.246.05 5.1 5.1 0 0 1 2.043 1.224q1.146 1.098 1.533 2.456.388 1.359-.135 2.769a4.13 4.13 0 0 1 2.694-.286q1.389.312 2.469 1.346m-5.551 16.598q2.24.196 3.577.235 1.348.03 2.514-.21 1.185-.24 1.844-.928.62-.648.655-1.322.054-.675-.644-1.343-.678-.65-1.467-.583-.77.065-1.477.744l-.877-.84q1.109-1.078 2.329-1.075t2.227.967q1.026.984 1.08 2.124.064 1.15-.891 2.147-.792.827-2.044 1.137a9.8 9.8 0 0 1-2.434.306 40 40 0 0 1-2.922-.161l3.429 3.284-.726.757-4.794-4.591z"/><path fill="url(#e)" d="m40.551 198.642 238.556 3.595c1.806.027 2.72-2.165 1.429-3.429L156.99 77.796a2 2 0 0 0-2.829.03L39.152 195.242c-1.23 1.256-.358 3.373 1.4 3.399"/><path stroke="#000" stroke-width="2" d="M51 183c8.5 3.5 8.5 6 8.5 16"/><path fill="#000" d="M68.955 195.52v-17.687q0-1.978.69-3.151.713-1.196 1.909-1.725 1.196-.552 2.668-.552 1.564 0 2.645.506 1.104.506 1.656 1.495.575.966.575 2.392 0 1.104-.46 1.909a3.8 3.8 0 0 1-1.173 1.288 4.7 4.7 0 0 1-1.633.667v.092q1.173.16 2.07.713a3.83 3.83 0 0 1 1.403 1.518q.53.944.529 2.346 0 1.564-.713 2.668a4.4 4.4 0 0 1-1.909 1.679q-1.196.552-2.714.552-.828 0-1.449-.092a5.3 5.3 0 0 1-1.081-.276 18 18 0 0 1-.989-.414v6.072zm5.359-6.946q1.61 0 2.553-.874.943-.897.943-2.507 0-1.22-.483-2.001a2.9 2.9 0 0 0-1.242-1.196 3.36 3.36 0 0 0-1.633-.414h-1.909v-1.564h1.679q.874 0 1.495-.391.644-.392.966-1.104.345-.713.345-1.633 0-1.426-.851-2.116-.828-.69-2.001-.69-.805 0-1.541.322-.736.299-1.196 1.127t-.46 2.392v9.706q.805.414 1.541.69.736.253 1.794.253"/><path stroke="#fffdfd" stroke-width="2" d="M264 183c-8.5 3.5-8.5 6-8.5 16"/><path fill="#fff" d="M239.192 191.23q1.886 0 3.128-1.058 1.219-1.081 1.817-3.059.598-2.001.598-4.784 0-2.806-.552-4.807t-1.771-3.059q-1.242-1.058-3.22-1.058-1.91 0-3.151 1.058-1.242 1.035-1.84 3.036-.621 2.001-.621 4.83 0 2.783.575 4.784.552 1.978 1.794 3.059 1.22 1.058 3.243 1.058m0-1.679q-1.196 0-1.955-.69-.781-.69-1.173-2.162-.391-1.472-.437-3.841h7.061q-.046 2.346-.391 3.818-.368 1.472-1.127 2.185-.759.69-1.978.69m3.496-8.257h-7.038q.069-2.093.46-3.45.391-1.38 1.15-2.047.759-.69 1.932-.69t1.932.69q.737.667 1.104 2.047.368 1.358.46 3.45"/></g><defs><linearGradient id="b" x1="156.285" x2="156.285" y1="43.105" y2="83.466" gradientUnits="userSpaceOnUse"><stop stop-color="#d9d9d9"/><stop offset="1" stop-color="#737373"/></linearGradient><linearGradient id="c" x1="63" x2="65.158" y1="131.906" y2="192.05" gradientUnits="userSpaceOnUse"><stop stop-color="#8cf3ff"/><stop offset="1" stop-color="#528d98"/></linearGradient><linearGradient id="d" x1="259" x2="168" y1="118" y2="169" gradientUnits="userSpaceOnUse"><stop stop-color="#8ff8ff"/><stop offset="1" stop-color="#4e8488"/></linearGradient><linearGradient id="e" x1="100.168" x2="219.837" y1="261.53" y2="139.354" gradientUnits="userSpaceOnUse"><stop stop-color="#7dff86"/><stop offset="1" stop-color="#4b9950"/></linearGradient><clipPath id="a"><path fill="#fff" d="M0 0h300v200H0z"/></clipPath></defs></svg>