<svg xmlns="http://www.w3.org/2000/svg" width="300" height="200" fill="none" viewBox="0 0 300 200"><path fill="#000" d="M0 0h300v200H0z"/><path stroke="#fff" d="m114.352 109.483 72.245-74.811M229.5 47v89"/><circle cx="206.462" cy="47.462" r="23.873" fill="url(#a)" transform="rotate(-127.353 206.462 47.462)"/><rect width="48" height="44" x="64" y="121.608" fill="url(#b)" rx="4" transform="rotate(-44.941 64 121.608)"/><rect width="46" height="42" x="206" y="130" fill="url(#c)" rx="4"/><path stroke="#828282" stroke-width="4" d="m207.231 48.694-34.373 32.054"/><path fill="#000" d="M96.603 111.911q1.042-1.04 2.295-1.413 1.236-.39 2.57.003 1.332.392 2.567 1.629l5.248 5.258-1.465 1.462-5.037-5.047q-1.332-1.335-2.698-1.368-1.365-.067-2.49 1.054-1.155 1.154-1.092 2.585.047 1.415 1.445 2.815l4.907 4.917-1.466 1.462-5.036-5.047q-1.333-1.335-2.698-1.369-1.367-.066-2.49 1.055-1.156 1.153-1.092 2.584.047 1.416 1.444 2.815l4.907 4.917-1.482 1.479-8.903-8.922 1.482-1.478 1.283 1.286a4.16 4.16 0 0 1 .1-2.245 5.1 5.1 0 0 1 1.27-2.015q1.125-1.121 2.49-1.477 1.367-.357 2.765.198a4.13 4.13 0 0 1-.225-2.7q.344-1.382 1.401-2.438m10.815.512-.809-.811 1.836-1.832 7.048 7.062-.899.897-6.239-6.252zM230.928 144.166q1.471 0 2.622.621 1.15.598 1.817 1.817.667 1.22.667 2.967V157h-2.07v-7.13q0-1.886-.943-2.875-.92-1.012-2.507-1.012-1.633 0-2.599 1.058-.966 1.035-.966 3.013V157h-2.07v-7.13q0-1.886-.943-2.875-.92-1.012-2.507-1.012-1.633 0-2.599 1.058-.966 1.035-.966 3.013V157h-2.093v-12.604h2.093v1.817a4.16 4.16 0 0 1 1.656-1.518 5.1 5.1 0 0 1 2.323-.529q1.587 0 2.806.713t1.817 2.093a4.14 4.14 0 0 1 1.748-2.07q1.219-.736 2.714-.736m7.472 15.827a66 66 0 0 0 2.746-2.305 11.2 11.2 0 0 0 1.67-1.891q.69-.994.69-1.945 0-.898-.442-1.408-.427-.524-1.393-.524-.94 0-1.463.593-.511.58-.552 1.559h-1.215q.055-1.545.939-2.387t2.277-.842q1.42 0 2.249.787.842.786.842 2.166 0 1.146-.69 2.236a9.8 9.8 0 0 1-1.546 1.904 40 40 0 0 1-2.221 1.905h4.747v1.049H238.4z"/><path fill="url(#d)" d="M182.581 64.444 51.385 196.591c-1.253 1.262-.36 3.409 1.419 3.409H184a2 2 0 0 0 2-2V65.853c0-1.785-2.161-2.676-3.419-1.409"/><path stroke="#fffdfd" stroke-width="2" d="M66 182c8.5 3.5 8.5 6 8.5 16"/><path fill="#fff" d="M89.808 190.23q-1.886 0-3.128-1.058-1.219-1.081-1.817-3.059-.598-2.001-.598-4.784 0-2.806.552-4.807t1.771-3.059q1.242-1.058 3.22-1.058 1.91 0 3.151 1.058 1.242 1.035 1.84 3.036.621 2.001.621 4.83 0 2.783-.575 4.784-.552 1.978-1.794 3.059-1.22 1.058-3.243 1.058m0-1.679q1.196 0 1.955-.69.782-.69 1.173-2.162.39-1.472.437-3.841h-7.061q.045 2.346.391 3.818.368 1.472 1.127 2.185.759.69 1.978.69m-3.496-8.257h7.038q-.07-2.093-.46-3.45-.39-1.38-1.15-2.047-.759-.69-1.932-.69t-1.932.69q-.736.667-1.104 2.047-.368 1.358-.46 3.45"/><defs><linearGradient id="a" x1="206.461" x2="206.461" y1="23.588" y2="71.335" gradientUnits="userSpaceOnUse"><stop stop-color="#d9d9d9"/><stop offset="1" stop-color="#737373"/></linearGradient><linearGradient id="b" x1="88" x2="88" y1="121.608" y2="165.608" gradientUnits="userSpaceOnUse"><stop stop-color="#8cf3ff"/><stop offset="1" stop-color="#528d98"/></linearGradient><linearGradient id="c" x1="229" x2="229" y1="130" y2="172" gradientUnits="userSpaceOnUse"><stop stop-color="#8ff8ff"/><stop offset="1" stop-color="#4e8488"/></linearGradient><linearGradient id="d" x1="117" x2="117" y1="61" y2="200" gradientUnits="userSpaceOnUse"><stop stop-color="#7dff86"/><stop offset="1" stop-color="#4b9950"/></linearGradient></defs></svg>