<svg xmlns="http://www.w3.org/2000/svg" width="300" height="200" fill="none" viewBox="0 0 300 200"><path fill="#000" d="M0 0h300v200H0z"/><path fill="url(#a)" d="M300 197h300v25H300z" transform="rotate(-180 300 197)"/><path fill="url(#b)" d="M143 86h66v25h-66z" transform="rotate(-90 143 86)"/><path fill="url(#c)" d="M228 19h66v25h-66z" transform="rotate(90 228 19)"/><path fill="url(#d)" d="M274.995 61.847c-53.376 32.806-149.214 91.696-174.67 107.291-1.744 1.068-.928 3.862 1.117 3.862H276a2 2 0 0 0 2-2V63.577c0-1.564-1.672-2.55-3.005-1.73"/><path fill="url(#e)" d="M201.338 106.567c-7.062 5.066-19.321 13.71-28.348 19.629-2.606 1.709-5.99-.176-5.99-3.292V13a4 4 0 0 1 4-4h28a4 4 0 0 1 4 4v90.325a3.99 3.99 0 0 1-1.662 3.242"/><path stroke="#000" stroke-width="2" d="M123 155.5c10.581 5.344 10.81 9.535 6.5 18"/><path fill="#000" d="M143.437 167.216q-1.793 0-2.981-.994-1.167-1.014-1.75-2.872-.583-1.88-.583-4.493 0-2.636.519-4.515.54-1.879 1.706-2.872 1.188-.994 3.089-.994 1.836 0 3.024.994 1.188.972 1.771 2.851t.583 4.536q0 2.613-.54 4.493-.54 1.857-1.728 2.872-1.166.994-3.11.994m0-1.814q1.037 0 1.685-.584.669-.604.993-1.879.346-1.296.389-3.391h-6.07q.043 2.052.346 3.348t.95 1.901q.67.605 1.707.605m-3.003-7.604h6.048q-.042-1.879-.388-3.088-.346-1.231-.994-1.815t-1.642-.583q-1.014 0-1.663.583-.648.584-.972 1.815-.302 1.21-.389 3.088M176.503 75h-2.004l11.096-20.946h2.046L191.783 75h-2.005l-3.487-18.46h-.133zm2.782-8.028h10.391l-.286 1.718h-10.391zM217.227 150l3.478-20.945h7.322q2.189 0 3.488.756 1.299.747 1.779 2.015.481 1.258.215 2.792-.225 1.35-.849 2.23-.614.88-1.472 1.391a6.8 6.8 0 0 1-1.77.756l-.041.205q.942.061 1.811.675.869.613 1.339 1.759t.205 2.802a6.5 6.5 0 0 1-1.197 2.833q-.93 1.258-2.597 1.995-1.668.736-4.143.736zm2.905-2.25h5.032q2.484 0 3.692-.961 1.217-.972 1.462-2.353.164-1.063-.235-1.963-.388-.91-1.299-1.453-.9-.552-2.27-.552h-5.155zm1.595-9.491h4.705a5.2 5.2 0 0 0 2.148-.45 4.6 4.6 0 0 0 1.677-1.268q.675-.818.838-1.923.246-1.38-.552-2.342-.798-.971-2.884-.971h-4.786z"/><defs><linearGradient id="a" x1="444.47" x2="444.47" y1="222" y2="197" gradientUnits="userSpaceOnUse"><stop stop-color="#935b00"/><stop offset="1"/></linearGradient><linearGradient id="b" x1="174.783" x2="174.783" y1="111" y2="86" gradientUnits="userSpaceOnUse"><stop stop-color="#935b00"/><stop offset="1"/></linearGradient><linearGradient id="c" x1="259.783" x2="259.783" y1="44" y2="19" gradientUnits="userSpaceOnUse"><stop stop-color="#935b00"/><stop offset="1"/></linearGradient><linearGradient id="d" x1="266.947" x2="210.591" y1="88.627" y2="187.077" gradientUnits="userSpaceOnUse"><stop stop-color="#8ff8ff"/><stop offset="1" stop-color="#00b1be"/></linearGradient><linearGradient id="e" x1="185" x2="185" y1="9" y2="130" gradientUnits="userSpaceOnUse"><stop stop-color="#ff9697"/><stop offset="1" stop-color="#ff1f22"/></linearGradient></defs></svg>