<svg xmlns="http://www.w3.org/2000/svg" width="300" height="200" fill="none" viewBox="0 0 300 200"><g clip-path="url(#a)"><path fill="#000" d="M0 0h300v200H0z"/><path fill="#fff" d="m41.5 25-5.773 10h11.547zm0 146h1V34h-2v137z"/><path fill="#fff" d="m257 170-10-5.774v11.548zm-215 0v1h206v-2H42zM14.557 120.545q-.603 0-1.114-.113a4 4 0 0 1-.784-.25l.852-1.784q.955.33 1.75.204.807-.113 1.535-.772.727-.66 1.431-1.966l.955-1.773-3.455-17.545h2.102l2.728 14.818h.148l7.647-14.818h2.284l-10.738 20.193q-.694 1.307-1.534 2.147-.83.842-1.796 1.25a5.05 5.05 0 0 1-2.011.409"/><path fill="#ff9294" d="m184.227 106 2.898-17.454h5.634q1.857 0 2.991.664 1.142.665 1.577 1.85.443 1.176.196 2.71-.256 1.517-1.091 2.685-.827 1.167-2.182 1.832-1.355.656-3.196.656h-4.79l.247-1.457h4.748q1.371 0 2.352-.452a3.84 3.84 0 0 0 1.568-1.287q.588-.835.776-1.977.187-1.15-.128-2.003-.308-.852-1.142-1.321-.827-.468-2.208-.469h-3.997L185.821 106zm9-7.875 2.992 7.875h-1.833l-2.94-7.875z"/><path fill="#fff" d="m138.352 179.545 3.273 7.444 5.75-7.444h2.364l-7.091 8.762 4.159 8.693h-2.33l-3.295-7.193-5.693 7.193h-2.387l7.023-8.739-4.091-8.716z"/><path stroke="#f1ff2f" stroke-width="2" d="M56.5 149.5c119 11.5 188-24.5 218-120.5"/><circle cx="185.5" cy="65.5" r="59.5" stroke="#fff" stroke-dasharray="5 5" stroke-width="2"/><path fill="#ff9294" d="m227.988 109.012-2.854-11.189-8.263 8.066zM186 66l-.716.698 35.701 36.572.716-.698.716-.699-35.701-36.571z"/></g><defs><clipPath id="a"><path fill="#fff" d="M0 0h300v200H0z"/></clipPath></defs></svg>