<svg width="300" height="200" viewBox="0 0 300 200" fill="none" xmlns="http://www.w3.org/2000/svg">
<rect width="300" height="200" fill="black"/>
<line y1="-1" x2="264.591" y2="-1" transform="matrix(0.86053 -0.5094 0.556212 0.831041 26 169.609)" stroke="white" stroke-width="2"/>
<line y1="-1" x2="225.38" y2="-1" transform="matrix(0.999989 -0.00465566 0.00526387 0.999986 26 169.609)" stroke="white" stroke-width="2"/>
<rect width="49.8022" height="51.1593" rx="7" transform="matrix(0.553412 0.832908 -0.862151 0.506652 193.775 12)" fill="url(#paint0_linear_589_238)"/>
<path d="M238.226 70.9503V72.7472H230.254V70.9503H238.226ZM239.402 70.7543V72.7472C239.402 74.4569 239.19 75.8645 238.765 76.9698C238.34 78.0752 237.741 78.8946 236.968 79.4283C236.195 79.9619 235.286 80.2287 234.24 80.2287C233.195 80.2287 232.28 79.9619 231.496 79.4283C230.712 78.8946 230.102 78.0752 229.666 76.9698C229.231 75.8645 229.013 74.4569 229.013 72.7472V70.7543C229.013 69.0554 229.228 67.6642 229.658 66.5806C230.088 65.497 230.693 64.6966 231.471 64.1793C232.25 63.662 233.162 63.4034 234.207 63.4034C235.264 63.4034 236.181 63.662 236.96 64.1793C237.739 64.6966 238.34 65.497 238.765 66.5806C239.19 67.6642 239.402 69.0554 239.402 70.7543ZM237.442 73.1065V70.3949C237.442 69.2732 237.306 68.3203 237.033 67.5362C236.761 66.7521 236.383 66.1559 235.898 65.7475C235.413 65.3391 234.85 65.1349 234.207 65.1349C233.26 65.1349 232.479 65.5923 231.863 66.5071C231.248 67.4164 230.94 68.7124 230.94 70.3949V73.1065C230.94 74.7891 231.253 76.1095 231.88 77.0678C232.506 78.0207 233.293 78.4972 234.24 78.4972C234.883 78.4972 235.443 78.2821 235.923 77.8519C236.402 77.4218 236.775 76.8037 237.042 75.9979C237.308 75.192 237.442 74.2282 237.442 73.1065Z" fill="white"/>
<line x1="252" y1="35" x2="252" y2="167" stroke="white" stroke-width="2"/>
<path d="M251.836 53.6194C238.764 55.4929 235.101 48.6538 234.904 45" stroke="#F9F9F9" stroke-width="2"/>
<path d="M131 78L142.528 77.3404L136.193 67.6865L131 78ZM163 57L162.451 56.164L137.976 72.226L138.524 73.0621L139.073 73.8981L163.549 57.836L163 57Z" fill="white"/>
<defs>
<linearGradient id="paint0_linear_589_238" x1="1.99457e-09" y1="25.5797" x2="55.1177" y2="25.8404" gradientUnits="userSpaceOnUse">
<stop stop-color="#81F7FF"/>
<stop offset="1" stop-color="#4D9499"/>
</linearGradient>
</defs>
</svg>
