<svg xmlns="http://www.w3.org/2000/svg" width="300" height="200" fill="none" viewBox="0 0 300 200"><g clip-path="url(#a)"><path fill="#000" d="M0 0h300v200H0z"/><path fill="url(#b)" d="M41-5h217v25H41z"/><rect width="42" height="52" x="124" y="35" fill="url(#c)" rx="4"/><path stroke="#000" stroke-width="3" d="M145.5 45v36"/><path stroke="#000" stroke-width="2" d="M136 51h19M136 74.5h19m-19.5-12h19"/><path stroke="#fff" stroke-width="2" d="M146 20c-8.116 5.857-7.884 9.143 0 15"/><rect width="42" height="52" x="123" y="102" fill="url(#d)" rx="4"/><path stroke="#000" stroke-width="3" d="M144.5 112v36"/><path stroke="#000" stroke-width="2" d="M135 118h19M135 141.5h19m-19.5-12h19"/><path stroke="#fff" stroke-width="2" d="M145 87c-8.116 5.857-7.884 9.143 0 15M143 154c-8.116 5.857-7.884 9.143 0 15"/><rect width="112" height="27" x="86" y="169" fill="url(#e)" rx="5"/><path fill="#000" d="m119.864 189 1.909-11.477h-.114l-4 2.386.409-2.409 4.114-2.455h2.363L122.227 189zm11.625.273q-2.693 0-3.932-1.909-1.24-1.91-.659-5.319.58-3.408 2.42-5.295 1.841-1.887 4.534-1.886 2.796 0 4.012 1.931t.67 5.205q-.579 3.443-2.454 5.352-1.864 1.921-4.591 1.921m.272-2.046q1.603 0 2.716-1.341t1.557-3.931q.41-2.455-.261-3.773-.66-1.318-2.193-1.318-1.5 0-2.625 1.318-1.114 1.307-1.557 3.863-.41 2.42.193 3.796.602 1.386 2.17 1.386m20.185-2 .455-2.954h.409l5.272-4.909h2.819l-6.046 5.681h-.545zM149.128 189l2.591-15.5h2.409l-2.591 15.5zm7.227 0-3.045-5.455 1.909-1.681 3.954 7.136zm8.722 4.545q-2.08 0-3.228-.818-1.136-.818-1.272-2.045l2.272-.409q.171.613.773 1.057t1.727.443q1.296 0 2.228-.637.932-.636 1.136-2l.364-2.409h-.091q-.341.591-.898 1.068a4.1 4.1 0 0 1-1.295.773q-.74.296-1.671.296-1.363 0-2.307-.648-.931-.648-1.306-1.943-.387-1.296-.069-3.228.296-1.84 1.148-3.136.852-1.306 2.034-1.989 1.182-.693 2.455-.693.931 0 1.557.33.636.318 1 .863.375.535.534 1.171h.091l.363-2.227h2.409l-1.954 11.818q-.25 1.477-1.103 2.443a5.14 5.14 0 0 1-2.113 1.443q-1.262.477-2.784.477m1-6.545q1.397 0 2.363-1.034.966-1.023 1.273-2.83.273-1.738-.329-2.841-.591-1.113-1.989-1.113-.91 0-1.636.511-.716.512-1.205 1.398a6.3 6.3 0 0 0-.659 2q-.308 1.875.273 2.886.579 1.023 1.909 1.023"/></g><defs><linearGradient id="b" x1="145.5" x2="145.5" y1="20" y2="-5" gradientUnits="userSpaceOnUse"><stop stop-color="#935b00"/><stop offset="1"/></linearGradient><linearGradient id="c" x1="145" x2="145" y1="35" y2="87" gradientUnits="userSpaceOnUse"><stop stop-color="#f8f8f8"/><stop offset="1" stop-color="#b8b8b8"/></linearGradient><linearGradient id="d" x1="144" x2="144" y1="102" y2="154" gradientUnits="userSpaceOnUse"><stop stop-color="#f8f8f8"/><stop offset="1" stop-color="#b8b8b8"/></linearGradient><linearGradient id="e" x1="86" x2="198" y1="182.5" y2="182.5" gradientUnits="userSpaceOnUse"><stop stop-color="#b5faff"/><stop offset="1" stop-color="#1af0ff"/></linearGradient><clipPath id="a"><path fill="#fff" d="M0 0h300v200H0z"/></clipPath></defs></svg>