<svg xmlns="http://www.w3.org/2000/svg" width="300" height="200" fill="none" viewBox="0 0 300 200"><path fill="#000" d="M0 0h300v200H0z"/><rect width="60" height="55" x="179" y="122" fill="url(#a)" rx="12"/><rect width="97" height="88" x="82" y="89" fill="url(#b)" rx="12"/><path fill="#000" d="M208.928 143.166q1.471 0 2.622.621 1.15.598 1.817 1.817.667 1.22.667 2.967V156h-2.07v-7.13q0-1.886-.943-2.875-.92-1.012-2.507-1.012-1.633 0-2.599 1.058-.966 1.035-.966 3.013V156h-2.07v-7.13q0-1.886-.943-2.875-.92-1.012-2.507-1.012-1.633 0-2.599 1.058-.966 1.035-.966 3.013V156h-2.093v-12.604h2.093v1.817a4.16 4.16 0 0 1 1.656-1.518 5.1 5.1 0 0 1 2.323-.529q1.587 0 2.806.713t1.817 2.093a4.14 4.14 0 0 1 1.748-2.07q1.219-.736 2.714-.736m7.293 8.002v-1.145h2.594V160h-1.27v-8.832zM135.552 125.144q2.047 0 3.648.864 1.6.832 2.528 2.528t.928 4.128V143h-2.88v-9.92q0-2.624-1.312-4-1.28-1.408-3.488-1.408-2.272 0-3.616 1.472-1.344 1.44-1.344 4.192V143h-2.88v-9.92q0-2.624-1.312-4-1.28-1.408-3.488-1.408-2.272 0-3.616 1.472-1.344 1.44-1.344 4.192V143h-2.912v-17.536h2.912v2.528a5.8 5.8 0 0 1 2.304-2.112q1.472-.736 3.232-.736 2.208 0 3.904.992t2.528 2.912a5.75 5.75 0 0 1 2.432-2.88q1.696-1.024 3.776-1.024m10.396 23.454q2.439-1.958 3.821-3.206a15.7 15.7 0 0 0 2.323-2.63q.96-1.382.96-2.708 0-1.247-.614-1.958-.596-.73-1.94-.73-1.305 0-2.035.826-.71.807-.768 2.17h-1.689q.076-2.15 1.305-3.322 1.228-1.171 3.168-1.171 1.978 0 3.13 1.094 1.171 1.095 1.171 3.015 0 1.593-.96 3.11a13.7 13.7 0 0 1-2.15 2.65q-1.21 1.132-3.092 2.649h6.605v1.459h-9.235z"/><path fill="url(#c)" d="M0 176h300v24H0z"/><path fill="#fff" d="m82 131-10-5.774v11.548zm-66 0v1h57v-2H16zM40.364 116l3.863-23.273h13.955l-.41 2.5H46.637l-1.318 7.864H55.41l-.409 2.5H44.91L43.181 116z"/><defs><linearGradient id="a" x1="239" x2="179" y1="149.5" y2="149.5" gradientUnits="userSpaceOnUse"><stop stop-color="#8cf3ff"/><stop offset="1" stop-color="#63aebc"/></linearGradient><linearGradient id="b" x1="179" x2="82" y1="141.537" y2="140.229" gradientUnits="userSpaceOnUse"><stop stop-color="#8ff8ff"/><stop offset="1" stop-color="#62aaaf"/></linearGradient><linearGradient id="c" x1="159" x2="158.5" y1="206" y2="176" gradientUnits="userSpaceOnUse"><stop/><stop offset="1" stop-color="#a58400"/></linearGradient></defs></svg>