<svg xmlns="http://www.w3.org/2000/svg" width="300" height="200" fill="none" viewBox="0 0 300 200"><path fill="#000" d="M0 0h300v200H0z"/><path stroke="#fff" d="M176.5 42v41M158.5 89v73M193.5 89v41M113.5 37v104"/><ellipse cx="144.5" cy="41.5" fill="url(#a)" rx="32.5" ry="30.5"/><ellipse cx="176" cy="89" fill="url(#b)" rx="18" ry="17"/><rect width="46" height="42" x="90" y="135" fill="url(#c)" rx="3"/><rect width="35" height="32" x="177" y="130" fill="url(#d)" rx="3"/><path fill="#000" d="M114.928 149.166q1.471 0 2.622.621 1.15.598 1.817 1.817.667 1.22.667 2.967V162h-2.07v-7.13q0-1.886-.943-2.875-.92-1.012-2.507-1.012-1.633 0-2.599 1.058-.966 1.035-.966 3.013V162h-2.07v-7.13q0-1.886-.943-2.875-.92-1.012-2.507-1.012-1.633 0-2.599 1.058-.966 1.035-.966 3.013V162h-2.093v-12.604h2.093v1.817a4.16 4.16 0 0 1 1.656-1.518 5.1 5.1 0 0 1 2.323-.529q1.587 0 2.806.713t1.817 2.093a4.14 4.14 0 0 1 1.748-2.07q1.219-.736 2.714-.736m13.516 14.695h-4.195l-.773 2.139h-1.324l3.477-9.563h1.449l3.464 9.563h-1.325zm-.358-1.021-1.739-4.858-1.739 4.858zM195.72 140.84q1.28 0 2.28.54 1 .52 1.58 1.58t.58 2.58V152h-1.8v-6.2q0-1.64-.82-2.5-.8-.88-2.18-.88-1.42 0-2.26.92-.84.9-.84 2.62V152h-1.8v-6.2q0-1.64-.82-2.5-.8-.88-2.18-.88-1.42 0-2.26.92-.84.9-.84 2.62V152h-1.82v-10.96h1.82v1.58q.54-.86 1.44-1.32a4.45 4.45 0 0 1 2.02-.46q1.38 0 2.44.62t1.58 1.82a3.6 3.6 0 0 1 1.52-1.8 4.47 4.47 0 0 1 2.36-.64m10.997 10.852q.456.072.828.372.384.3.6.744.228.444.228.948 0 .636-.324 1.152-.324.504-.948.804-.612.288-1.452.288h-3.12v-8.364h3q.852 0 1.452.288.6.276.9.756t.3 1.08q0 .744-.408 1.236a2.23 2.23 0 0 1-1.056.696m-3.096-.444h1.836q.768 0 1.188-.36t.42-.996-.42-.996-1.212-.36h-1.812zm1.932 3.852q.816 0 1.272-.384t.456-1.068q0-.696-.48-1.092-.48-.408-1.284-.408h-1.896v2.952z"/><path stroke="#828282" stroke-width="4" d="M145 42V0"/><path fill="url(#e)" d="M170 187h25v25h-25z" transform="rotate(-180 170 187)"/><defs><linearGradient id="a" x1="144.5" x2="144.5" y1="11" y2="72" gradientUnits="userSpaceOnUse"><stop stop-color="#d9d9d9"/><stop offset="1" stop-color="#737373"/></linearGradient><linearGradient id="b" x1="176" x2="176" y1="72" y2="106" gradientUnits="userSpaceOnUse"><stop stop-color="#d9d9d9"/><stop offset="1" stop-color="#737373"/></linearGradient><linearGradient id="c" x1="113" x2="113" y1="135" y2="177" gradientUnits="userSpaceOnUse"><stop stop-color="#c3f9ff"/><stop offset="1" stop-color="#21deff"/></linearGradient><linearGradient id="d" x1="194.5" x2="194.5" y1="130" y2="162" gradientUnits="userSpaceOnUse"><stop stop-color="#c0fbff"/><stop offset="1" stop-color="#15efff"/></linearGradient><linearGradient id="e" x1="182.039" x2="182.039" y1="212" y2="187" gradientUnits="userSpaceOnUse"><stop stop-color="#935b00"/><stop offset="1"/></linearGradient></defs></svg>