<svg xmlns="http://www.w3.org/2000/svg" width="300" height="200" fill="none" viewBox="0 0 300 200"><path fill="#000" d="M0 0h300v200H0z"/><path stroke="#fff" d="M186.5 51v104M113.5 51v104"/><ellipse cx="150" cy="52" fill="url(#a)" rx="37" ry="34"/><rect width="46" height="42" x="90" y="151" fill="url(#b)" rx="3"/><rect width="46" height="42" x="164" y="151" fill="url(#c)" rx="3"/><path stroke="#828282" stroke-width="4" d="M150 50V3"/><path fill="#000" d="M114.928 165.166q1.471 0 2.622.621 1.15.598 1.817 1.817.667 1.22.667 2.967V178h-2.07v-7.13q0-1.886-.943-2.875-.92-1.012-2.507-1.012-1.633 0-2.599 1.058-.966 1.035-.966 3.013V178h-2.07v-7.13q0-1.886-.943-2.875-.92-1.012-2.507-1.012-1.633 0-2.599 1.058-.966 1.035-.966 3.013V178h-2.093v-12.604h2.093v1.817a4.16 4.16 0 0 1 1.656-1.518 5.1 5.1 0 0 1 2.323-.529q1.587 0 2.806.713t1.817 2.093a4.14 4.14 0 0 1 1.748-2.07q1.219-.736 2.714-.736m7.293 8.002v-1.145h2.594V182h-1.27v-8.832zM188.928 165.166q1.471 0 2.622.621 1.15.598 1.817 1.817.667 1.22.667 2.967V178h-2.07v-7.13q0-1.886-.943-2.875-.92-1.012-2.507-1.012-1.633 0-2.599 1.058-.966 1.035-.966 3.013V178h-2.07v-7.13q0-1.886-.943-2.875-.92-1.012-2.507-1.012-1.633 0-2.599 1.058-.966 1.035-.966 3.013V178h-2.093v-12.604h2.093v1.817a4.16 4.16 0 0 1 1.656-1.518 5.1 5.1 0 0 1 2.323-.529q1.587 0 2.806.713t1.817 2.093a4.14 4.14 0 0 1 1.748-2.07q1.219-.736 2.714-.736m7.472 15.827a66 66 0 0 0 2.746-2.305 11.2 11.2 0 0 0 1.67-1.891q.69-.994.69-1.945 0-.898-.442-1.408-.427-.524-1.393-.524-.94 0-1.463.593-.511.58-.552 1.559h-1.215q.055-1.545.939-2.387t2.277-.842q1.42 0 2.249.787.842.786.842 2.166 0 1.146-.69 2.236a9.8 9.8 0 0 1-1.546 1.904 40 40 0 0 1-2.221 1.905h4.747v1.049H196.4z"/><defs><linearGradient id="a" x1="150" x2="150" y1="18" y2="86" gradientUnits="userSpaceOnUse"><stop stop-color="#d9d9d9"/><stop offset="1" stop-color="#737373"/></linearGradient><linearGradient id="b" x1="113" x2="113" y1="151" y2="193" gradientUnits="userSpaceOnUse"><stop stop-color="#8cf3ff"/><stop offset="1" stop-color="#528d98"/></linearGradient><linearGradient id="c" x1="187" x2="187" y1="151" y2="193" gradientUnits="userSpaceOnUse"><stop stop-color="#8ff8ff"/><stop offset="1" stop-color="#4e8488"/></linearGradient></defs></svg>