<svg xmlns="http://www.w3.org/2000/svg" width="300" height="200" fill="none" viewBox="0 0 300 200"><path fill="#000" d="M0 0h300v200H0z"/><path stroke="#fff" d="M0-.5h264.591" transform="matrix(.86053 -.5094 .55621 .83104 26 172.609)"/><path stroke="#fff" d="M0-.5h225.38" transform="rotate(-.267 37087.88 -5498.265)skewX(.035)"/><rect width="49.802" height="51.159" fill="url(#a)" rx="7" transform="matrix(.55341 .8329 -.86215 .50665 193.775 15)"/><path fill="#fff" d="M81.226 154.95v1.797h-7.972v-1.797zm1.176-.196v1.993q0 2.565-.637 4.223-.638 1.658-1.797 2.458-1.16.801-2.728.801t-2.744-.801q-1.176-.8-1.83-2.458-.653-1.659-.653-4.223v-1.993q0-2.549.645-4.173t1.813-2.402q1.168-.776 2.736-.776 1.585 0 2.753.776 1.168.777 1.805 2.402t.637 4.173m-1.96 2.353v-2.712q0-1.683-.409-2.859-.408-1.176-1.135-1.788a2.54 2.54 0 0 0-1.69-.613q-1.422 0-2.345 1.372-.923 1.364-.923 3.888v2.712q0 2.523.94 3.961.94 1.43 2.36 1.429a2.44 2.44 0 0 0 1.683-.645q.719-.645 1.118-1.854t.4-2.891"/><path stroke="#fff" d="M251.5 38v132"/><path stroke="#f9f9f9" stroke-width="2" d="M63.62 171.836c1.873-13.072-4.966-16.735-8.62-16.932"/><defs><linearGradient id="a" x1="0" x2="55.118" y1="25.58" y2="25.84" gradientUnits="userSpaceOnUse"><stop stop-color="#81f7ff"/><stop offset="1" stop-color="#4d9499"/></linearGradient></defs></svg>