<svg xmlns="http://www.w3.org/2000/svg" width="300" height="200" fill="none" viewBox="0 0 300 200"><path fill="#000" d="M0 0h300v200H0z"/><path fill="url(#a)" d="M258 200h217v25H258z" transform="rotate(-180 258 200)"/><rect width="112" height="82" x="94" y="93" fill="url(#b)" rx="5"/><path fill="#000" d="m133.114 150 3.909-23.273h3.545l-.682 3.796h.228q.999-1.841 2.841-2.955 1.84-1.113 4.159-1.113 2.477 0 3.909 1.227t1.682 3.295h.227q1-2.068 3.023-3.295 2.022-1.227 4.568-1.227 3.363 0 4.886 2.136 1.545 2.136.932 5.773L163.705 150H160l2.523-15.091q.386-2.387-.546-3.818-.909-1.455-3.318-1.455-2.454 0-4 1.546-1.546 1.545-1.954 3.886L150.182 150h-3.546l2.478-15.159q.386-2.341-.569-3.773-.931-1.431-3.204-1.432-2.183 0-3.909 1.5-1.705 1.5-2.137 4.069l-2.5 14.795z"/><defs><linearGradient id="a" x1="362.5" x2="362.5" y1="225" y2="200" gradientUnits="userSpaceOnUse"><stop stop-color="#935b00"/><stop offset="1"/></linearGradient><linearGradient id="b" x1="94" x2="206" y1="134" y2="134" gradientUnits="userSpaceOnUse"><stop stop-color="#b5faff"/><stop offset="1" stop-color="#1af0ff"/></linearGradient></defs></svg>