<svg xmlns="http://www.w3.org/2000/svg" width="300" height="200" fill="none" viewBox="0 0 300 200"><g clip-path="url(#a)"><path fill="#000" d="M0 0h300v200H0z"/><path stroke="#fff" d="M98 46.5h104M222.5 69v89"/><circle cx="199.462" cy="69.462" r="23.873" fill="url(#b)" transform="rotate(-127.353 199.462 69.462)"/><rect width="59" height="54" x="52" y="28" fill="url(#c)" rx="4"/><rect width="46" height="42" x="199" y="152" fill="url(#d)" rx="4"/><path stroke="#828282" stroke-width="4" d="m200.575 68.59-37.362 28.516"/><path fill="#000" d="M86.928 49.166q1.471 0 2.622.621 1.15.598 1.817 1.817.667 1.22.667 2.967V62h-2.07v-7.13q0-1.886-.943-2.875-.92-1.012-2.507-1.012-1.633 0-2.599 1.058-.966 1.035-.966 3.013V62h-2.07v-7.13q0-1.886-.943-2.875-.92-1.012-2.507-1.012-1.633 0-2.599 1.058-.966 1.035-.966 3.013V62h-2.093V49.396h2.093v1.817a4.16 4.16 0 0 1 1.656-1.518 5.1 5.1 0 0 1 2.323-.529q1.587 0 2.806.713t1.817 2.093q.529-1.335 1.748-2.07 1.219-.736 2.714-.736m7.293 8.002v-1.145h2.594V66h-1.27v-8.832zM223.928 166.166q1.471 0 2.622.621 1.15.598 1.817 1.817.667 1.22.667 2.967V179h-2.07v-7.13q0-1.886-.943-2.875-.92-1.012-2.507-1.012-1.633 0-2.599 1.058-.966 1.035-.966 3.013V179h-2.07v-7.13q0-1.886-.943-2.875-.92-1.012-2.507-1.012-1.633 0-2.599 1.058-.966 1.035-.966 3.013V179h-2.093v-12.604h2.093v1.817a4.16 4.16 0 0 1 1.656-1.518 5.1 5.1 0 0 1 2.323-.529q1.587 0 2.806.713t1.817 2.093a4.14 4.14 0 0 1 1.748-2.07q1.219-.736 2.714-.736m7.472 15.827a66 66 0 0 0 2.746-2.305 11.2 11.2 0 0 0 1.67-1.891q.69-.994.69-1.945 0-.898-.442-1.408-.427-.524-1.393-.524-.94 0-1.463.593-.511.58-.552 1.559h-1.215q.055-1.545.939-2.387t2.277-.842q1.42 0 2.249.787.842.786.842 2.166 0 1.146-.69 2.236a9.8 9.8 0 0 1-1.546 1.904 40 40 0 0 1-2.221 1.905h4.747v1.049H231.4z"/><path fill="url(#e)" d="M0 82h181v24H0z"/><path fill="url(#f)" d="M181 82h181v24H181z" transform="rotate(90 181 82)"/></g><defs><linearGradient id="b" x1="199.461" x2="199.461" y1="45.588" y2="93.335" gradientUnits="userSpaceOnUse"><stop stop-color="#d9d9d9"/><stop offset="1" stop-color="#737373"/></linearGradient><linearGradient id="c" x1="81.5" x2="81.5" y1="28" y2="82" gradientUnits="userSpaceOnUse"><stop stop-color="#8cf3ff"/><stop offset="1" stop-color="#528d98"/></linearGradient><linearGradient id="d" x1="222" x2="222" y1="152" y2="194" gradientUnits="userSpaceOnUse"><stop stop-color="#8ff8ff"/><stop offset="1" stop-color="#4e8488"/></linearGradient><linearGradient id="e" x1="95.93" x2="95.102" y1="112" y2="82.014" gradientUnits="userSpaceOnUse"><stop/><stop offset="1" stop-color="#a58400"/></linearGradient><linearGradient id="f" x1="218" x2="214.5" y1="115" y2="82" gradientUnits="userSpaceOnUse"><stop/><stop offset="1" stop-color="#a58400"/></linearGradient><clipPath id="a"><path fill="#fff" d="M0 0h300v200H0z"/></clipPath></defs></svg>