<svg xmlns="http://www.w3.org/2000/svg" width="300" height="200" fill="none" viewBox="0 0 300 200"><path fill="#000" d="M0 0h300v200H0z"/><path stroke="#fff" stroke-width="3" d="M15.5 40v53.922M150.304 40v53.922M285.108 40v53.922M42.461 61.569v32.353M69.422 61.569v32.353M96.382 61.569v32.353M123.343 61.569v32.353M177.265 61.569v32.353M204.225 61.569v32.353M231.186 61.569v32.353M258.147 61.569v32.353M14 93.5h272.843"/><path stroke="#f8ff22" stroke-width="3" d="M15.5 149V95.078"/><path stroke="#f8ff22" stroke-width="3" d="M0-1.5h53.922" transform="matrix(0 -1 -1 0 135.483 149)"/><path stroke="#f8ff22" stroke-width="3" d="M0-1.5h53.922" transform="matrix(0 -1 -1 0 256.967 149)"/><path stroke="#f8ff22" stroke-width="3" d="M0-1.5h32.353" transform="matrix(0 -1 -1 0 38.297 127.431)"/><path stroke="#f8ff22" stroke-width="3" d="M0-1.5h32.353" transform="matrix(0 -1 -1 0 62.593 127.431)"/><path stroke="#f8ff22" stroke-width="3" d="M0-1.5h32.353" transform="matrix(0 -1 -1 0 86.89 127.431)"/><path stroke="#f8ff22" stroke-width="3" d="M0-1.5h32.353" transform="matrix(0 -1 -1 0 111.187 127.431)"/><path stroke="#f8ff22" stroke-width="3" d="M0-1.5h32.353" transform="matrix(0 -1 -1 0 159.78 127.431)"/><path stroke="#f8ff22" stroke-width="3" d="M0-1.5h32.353" transform="matrix(0 -1 -1 0 184.077 127.431)"/><path stroke="#f8ff22" stroke-width="3" d="M0-1.5h32.353" transform="matrix(0 -1 -1 0 208.373 127.431)"/><path stroke="#f8ff22" stroke-width="3" d="M0-1.5h32.353" transform="matrix(0 -1 -1 0 232.67 127.431)"/><path stroke="#f8ff22" stroke-width="3" d="M14 95.5h245.882"/><path fill="#51ffff" d="m99 73 5 2.887v-5.774zm23 0-5-2.887v5.774zm-18.5 0v.5h14v-1h-14z"/><path fill="#f8ff22" d="m90 108 5 2.887v-5.774zm21 0-5-2.887v5.774zm-16.5 0v.5h12v-1h-12z"/><path fill="#51ffff" d="m84.184 25.672 3.528-1.992h1.704l-2.52 14.376q-.144.816-.096.984.048.144.408.192l1.296.144-.12.624H82.12l.12-.624 1.824-.144q.384-.024.48-.168.12-.168.264-1.008l2.304-13.176-2.592 1.464zm18.986-1.992 2.616 12.552 7.008-12.552h4.416l-.12.648-1.344.12q-.384.048-.504.216-.096.144-.24.96l-2.184 12.432q-.144.816-.096.984.048.144.408.192l1.296.144-.096.624h-5.784l.096-.624 1.344-.144q.384-.048.48-.192.12-.168.264-.984L113.034 25l-7.32 13.08h-1.632l-2.736-13.152-2.256 13.128q-.144.816-.096.984.048.144.408.192l1.296.144-.12.624h-4.584l.12-.624 1.344-.144q.336-.048.456-.192.144-.168.288-.984l2.184-12.432q.144-.816.096-.96-.048-.168-.408-.216l-1.32-.12.12-.648zm19.113 16.56a7.4 7.4 0 0 1-2.4-.384 3.8 3.8 0 0 1-1.848-1.344q-.696-.96-.72-2.64l1.512-.48q-.072 1.608.384 2.496t1.272 1.248q.816.336 1.824.336 1.968 0 2.976-.888 1.032-.912 1.032-2.448 0-1.104-.6-1.824-.576-.72-1.992-1.296l-1.776-.696q-1.44-.576-2.232-1.608-.768-1.032-.768-2.568 0-1.272.576-2.328.6-1.08 1.8-1.728t3.024-.648q1.488 0 2.472.456 1.008.432 1.56 1.176.552.72.672 1.608.12.864-.168 1.728l-2.088.432q.672-2.184.048-3.408t-2.592-1.224q-1.56 0-2.496.816-.936.792-.936 2.4 0 1.08.528 1.824.552.72 1.944 1.272l1.776.72q1.512.6 2.328 1.584.816.96.816 2.448 0 1.272-.648 2.424-.624 1.128-1.944 1.848-1.32.696-3.336.696m10.268-15.912.12-.648h6.288q2.112 0 3.408 1.008 1.296.984 1.776 2.688t.096 3.84l-.288 1.56q-.384 2.184-1.344 3.816-.96 1.608-2.448 2.52-1.488.888-3.456.888h-6.912l.12-.624 1.344-.144q.408-.048.504-.192.096-.168.24-.984l2.184-12.432q.144-.84.096-.984t-.408-.192zm6.432.12h-2.52l-2.592 14.784h2.808q1.92 0 3.12-1.344 1.224-1.344 1.68-3.96l.696-3.96q.456-2.64-.336-4.08-.768-1.44-2.856-1.44"/><path fill="#f8ff22" d="m71.184 152.672 3.528-1.992h1.704l-2.52 14.376q-.144.816-.096.984.048.144.408.192l1.296.144-.12.624H69.12l.12-.624 1.824-.144q.384-.024.48-.168.12-.168.264-1.008l2.304-13.176-2.592 1.464zm26.114-.192-7.2 14.52h-1.632l-2.088-14.52q-.096-.72-.192-.84-.072-.144-.432-.192l-1.224-.12.12-.648h5.592l-.12.648-1.248.12q-.384.048-.456.192-.048.144.048.84l1.776 12.384 6.12-12.384q.36-.696.336-.84 0-.144-.384-.192l-1.224-.12.12-.648h4.44l-.12.648-1.248.12q-.24.024-.384.096-.12.048-.24.264-.12.192-.36.672m6.219 14.76a7.4 7.4 0 0 1-2.4-.384 3.8 3.8 0 0 1-1.848-1.344q-.696-.96-.72-2.64l1.512-.48q-.072 1.608.384 2.496t1.272 1.248q.816.336 1.824.336 1.968 0 2.976-.888 1.032-.912 1.032-2.448 0-1.104-.6-1.824-.576-.72-1.992-1.296l-1.776-.696q-1.44-.576-2.232-1.608-.768-1.032-.768-2.568 0-1.272.576-2.328.6-1.08 1.8-1.728t3.024-.648q1.488 0 2.472.456 1.008.432 1.56 1.176.552.72.672 1.608.12.864-.168 1.728l-2.088.432q.672-2.184.048-3.408t-2.592-1.224q-1.56 0-2.496.816-.936.792-.936 2.4 0 1.08.528 1.824.552.72 1.944 1.272l1.776.72q1.512.6 2.328 1.584.816.96.816 2.448 0 1.272-.648 2.424-.624 1.128-1.944 1.848-1.32.696-3.336.696m10.269-15.912.12-.648h6.288q2.112 0 3.408 1.008 1.296.984 1.776 2.688t.096 3.84l-.288 1.56q-.384 2.184-1.344 3.816-.96 1.608-2.448 2.52-1.488.888-3.456.888h-6.912l.12-.624 1.344-.144q.408-.048.504-.192.096-.168.24-.984l2.184-12.432q.144-.84.096-.984t-.408-.192zm6.432.12h-2.52l-2.592 14.784h2.808q1.92 0 3.12-1.344 1.224-1.344 1.68-3.96l.696-3.96q.456-2.64-.336-4.08-.768-1.44-2.856-1.44"/></svg>