<svg xmlns="http://www.w3.org/2000/svg" width="300" height="200" fill="none" viewBox="0 0 300 200"><path fill="#000" d="M0 0h300v200H0z"/><path stroke="#fff" stroke-width="3" d="M17.5 39v53.922M152.304 39v53.922M287.108 39v53.922M44.461 60.569v32.353M71.422 60.569v32.353M98.382 60.569v32.353M125.343 60.569v32.353M179.265 60.569v32.353M206.225 60.569v32.353M233.186 60.569v32.353M260.147 60.569v32.353M16 92.5h272.843"/><path stroke="#f8ff22" stroke-width="3" d="M25.5 149V95.078"/><path stroke="#f8ff22" stroke-width="3" d="M0-1.5h53.922" transform="matrix(0 -1 -1 0 145.483 149)"/><path stroke="#f8ff22" stroke-width="3" d="M0-1.5h53.922" transform="matrix(0 -1 -1 0 266.967 149)"/><path stroke="#f8ff22" stroke-width="3" d="M0-1.5h32.353" transform="matrix(0 -1 -1 0 48.297 127.431)"/><path stroke="#f8ff22" stroke-width="3" d="M0-1.5h32.353" transform="matrix(0 -1 -1 0 72.593 127.431)"/><path stroke="#f8ff22" stroke-width="3" d="M0-1.5h32.353" transform="matrix(0 -1 -1 0 96.89 127.431)"/><path stroke="#f8ff22" stroke-width="3" d="M0-1.5h32.353" transform="matrix(0 -1 -1 0 121.187 127.431)"/><path stroke="#f8ff22" stroke-width="3" d="M0-1.5h32.353" transform="matrix(0 -1 -1 0 169.78 127.431)"/><path stroke="#f8ff22" stroke-width="3" d="M0-1.5h32.353" transform="matrix(0 -1 -1 0 194.077 127.431)"/><path stroke="#f8ff22" stroke-width="3" d="M0-1.5h32.353" transform="matrix(0 -1 -1 0 218.373 127.431)"/><path stroke="#f8ff22" stroke-width="3" d="M0-1.5h32.353" transform="matrix(0 -1 -1 0 242.67 127.431)"/><path stroke="#f8ff22" stroke-width="3" d="M24 95.5h245.882"/><path fill="#fff" d="m79.184 14.672 3.528-1.992h1.704l-2.52 14.376q-.144.816-.096.984.048.144.408.192l1.296.144-.12.624H77.12l.12-.624 1.824-.144q.384-.024.48-.168.12-.168.264-1.008l2.304-13.176-2.592 1.464zM98.17 12.68l2.616 12.552 7.008-12.552h4.416l-.12.648-1.344.12q-.384.048-.504.216-.096.144-.24.96l-2.184 12.432q-.144.816-.096.984.048.144.408.192l1.296.144-.096.624h-5.784l.096-.624 1.344-.144q.384-.048.48-.192.12-.168.264-.984L108.034 14l-7.32 13.08h-1.632l-2.736-13.152-2.256 13.128q-.144.816-.096.984.048.144.408.192l1.296.144-.12.624h-4.584l.12-.624 1.344-.144q.336-.048.456-.192.144-.168.288-.984l2.184-12.432q.144-.816.096-.96-.048-.168-.408-.216l-1.32-.12.12-.648zm19.113 16.56a7.4 7.4 0 0 1-2.4-.384 3.8 3.8 0 0 1-1.848-1.344q-.696-.96-.72-2.64l1.512-.48q-.072 1.608.384 2.496t1.272 1.248q.816.336 1.824.336 1.968 0 2.976-.888 1.032-.912 1.032-2.448 0-1.104-.6-1.824-.576-.72-1.992-1.296l-1.776-.696q-1.44-.576-2.232-1.608-.768-1.032-.768-2.568 0-1.272.576-2.328.6-1.08 1.8-1.728t3.024-.648q1.488 0 2.472.456 1.008.432 1.56 1.176.552.72.672 1.608.12.864-.168 1.728l-2.088.432q.672-2.184.048-3.408t-2.592-1.224q-1.56 0-2.496.816-.936.792-.936 2.4 0 1.08.528 1.824.552.72 1.944 1.272l1.776.72q1.512.6 2.328 1.584.816.96.816 2.448 0 1.272-.648 2.424-.624 1.128-1.944 1.848-1.32.696-3.336.696m10.268-15.912.12-.648h6.288q2.112 0 3.408 1.008 1.296.984 1.776 2.688t.096 3.84l-.288 1.56q-.384 2.184-1.344 3.816-.96 1.608-2.448 2.52-1.488.888-3.456.888h-6.912l.12-.624 1.344-.144q.408-.048.504-.192.096-.168.24-.984l2.184-12.432q.144-.84.096-.984t-.408-.192zm6.432.12h-2.52l-2.592 14.784h2.808q1.92 0 3.12-1.344 1.224-1.344 1.68-3.96l.696-3.96q.456-2.64-.336-4.08-.768-1.44-2.856-1.44m14.754 5.544.144-.792h9.936l-.144.792zm-.84 4.8.144-.792h9.936l-.144.792zm19.787-9.12 3.528-1.992h1.704l-2.52 14.376q-.144.816-.096.984.048.144.408.192l1.296.144-.12.624h-6.264l.12-.624 1.824-.144q.384-.024.48-.168.12-.168.264-1.008l2.304-13.176-2.592 1.464zm33.17 12.336q-.528 1.104-1.248 1.608a2.56 2.56 0 0 1-1.536.504q-1.104 0-1.632-.768t-.216-2.4l.96-4.704q.36-1.824-.048-2.64-.384-.816-1.224-.816t-1.944.744q-1.08.72-2.28 2.808L190.342 29h-1.968l1.368-7.752q.336-1.824-.048-2.64t-1.224-.816-1.944.744-2.304 2.88L182.878 29h-1.968l1.728-9.936q.144-.816.096-.96-.048-.168-.408-.216l-1.296-.12.12-.648h3.744l-.408 2.52q1.056-1.464 2.16-2.112t2.256-.648q1.344 0 2.088.792.768.768.84 2.112 1.056-1.56 2.184-2.232 1.152-.672 2.328-.672 1.704 0 2.448 1.176.768 1.176.36 3.168l-.984 4.8q-.24 1.224-.216 1.776.024.528.48.528.408 0 .816-.408.432-.432.744-1.44zm22.079 0q-.528 1.104-1.248 1.608a2.56 2.56 0 0 1-1.536.504q-1.104 0-1.632-.768t-.216-2.4l.96-4.704q.36-1.824-.048-2.64-.384-.816-1.224-.816t-1.944.744q-1.08.72-2.28 2.808L212.421 29h-1.968l1.368-7.752q.336-1.824-.048-2.64t-1.224-.816-1.944.744-2.304 2.88L204.957 29h-1.968l1.728-9.936q.144-.816.096-.96-.048-.168-.408-.216l-1.296-.12.12-.648h3.744l-.408 2.52q1.056-1.464 2.16-2.112t2.256-.648q1.344 0 2.088.792.768.768.84 2.112 1.056-1.56 2.184-2.232 1.152-.672 2.328-.672 1.704 0 2.448 1.176.768 1.176.36 3.168l-.984 4.8q-.24 1.224-.216 1.776.024.528.48.528.408 0 .816-.408.432-.432.744-1.44z"/><path fill="#f8ff22" d="m69.184 177.672 3.528-1.992h1.704l-2.52 14.376q-.144.816-.096.984.048.144.408.192l1.296.144-.12.624H67.12l.12-.624 1.824-.144q.384-.024.48-.168.12-.168.264-1.008l2.304-13.176-2.592 1.464zm19.693 5.544-.264 1.56q-.624 3.624-2.256 5.544t-4.248 1.92q-1.848 0-3.024-.96-1.152-.984-1.56-2.736-.384-1.752.024-4.104l.264-1.56q.624-3.576 2.256-5.496 1.632-1.944 4.248-1.944 1.848 0 3 .984 1.152.96 1.56 2.712t0 4.08m-2.064-1.272q.504-2.952-.192-4.344-.672-1.392-2.304-1.392-1.584 0-2.544 1.32-.96 1.296-1.488 4.248l-.672 3.96q-.504 2.928.168 4.344.696 1.392 2.304 1.392t2.568-1.296q.96-1.32 1.488-4.272zm23.228-4.464-7.2 14.52h-1.632l-2.088-14.52q-.096-.72-.192-.84-.072-.144-.432-.192l-1.224-.12.12-.648h5.592l-.12.648-1.248.12q-.384.048-.456.192-.048.144.048.84l1.776 12.384 6.12-12.384q.36-.696.336-.84 0-.144-.384-.192l-1.224-.12.12-.648h4.44l-.12.648-1.248.12q-.24.024-.384.096-.12.048-.24.264-.12.192-.36.672m6.218 14.76a7.4 7.4 0 0 1-2.4-.384 3.8 3.8 0 0 1-1.848-1.344q-.696-.96-.72-2.64l1.512-.48q-.072 1.608.384 2.496t1.272 1.248q.816.336 1.824.336 1.968 0 2.976-.888 1.032-.912 1.032-2.448 0-1.104-.6-1.824-.576-.72-1.992-1.296l-1.776-.696q-1.44-.576-2.232-1.608-.768-1.032-.768-2.568 0-1.272.576-2.328.6-1.08 1.8-1.728t3.024-.648q1.488 0 2.472.456 1.008.432 1.56 1.176.552.72.672 1.608.12.864-.168 1.728l-2.088.432q.672-2.184.048-3.408t-2.592-1.224q-1.56 0-2.496.816-.936.792-.936 2.4 0 1.08.528 1.824.552.72 1.944 1.272l1.776.72q1.512.6 2.328 1.584.816.96.816 2.448 0 1.272-.648 2.424-.624 1.128-1.944 1.848-1.32.696-3.336.696m10.269-15.912.12-.648h6.288q2.112 0 3.408 1.008 1.296.984 1.776 2.688t.096 3.84l-.288 1.56q-.384 2.184-1.344 3.816-.96 1.608-2.448 2.52-1.488.888-3.456.888h-6.912l.12-.624 1.344-.144q.408-.048.504-.192.096-.168.24-.984l2.184-12.432q.144-.84.096-.984t-.408-.192zm6.432.12h-2.52l-2.592 14.784h2.808q1.92 0 3.12-1.344 1.224-1.344 1.68-3.96l.696-3.96q.456-2.64-.336-4.08-.768-1.44-2.856-1.44m14.754 5.544.144-.792h9.936l-.144.792zm-.84 4.8.144-.792h9.936l-.144.792zm29.819-1.992q-.432 2.664-1.416 4.296t-2.376 2.4q-1.392.744-3.096.744-1.656 0-2.832-.864-1.176-.888-1.368-2.88l1.488-.432q-.024 1.32.312 2.064.36.744.984 1.056.624.288 1.368.288.864 0 1.728-.432.888-.456 1.608-1.608t1.08-3.264l.336-1.968a5.9 5.9 0 0 1-1.776 1.128 5 5 0 0 1-1.92.384q-1.344 0-2.328-.648t-1.44-1.824q-.432-1.176-.192-2.736l.072-.432q.216-1.416 1.008-2.448a5.2 5.2 0 0 1 1.968-1.608 5.9 5.9 0 0 1 2.592-.576q1.944 0 3.048.984t1.44 2.76q.36 1.752-.048 4.104zm-7.632-4.272q-.312 1.944.216 3.12t1.992 1.176q.816 0 1.728-.432t1.728-1.488l.192-1.08q.528-2.928-.096-4.272t-2.256-1.344q-1.248 0-2.184.888-.912.888-1.248 3.024zm21.93-4.848 2.616 12.552 7.008-12.552h4.416l-.12.648-1.344.12q-.384.048-.504.216-.096.144-.24.96l-2.184 12.432q-.144.816-.096.984.048.144.408.192l1.296.144-.096.624h-5.784l.096-.624 1.344-.144q.384-.048.48-.192.12-.168.264-.984L200.855 177l-7.32 13.08h-1.632l-2.736-13.152-2.256 13.128q-.144.816-.096.984.048.144.408.192l1.296.144-.12.624h-4.584l.12-.624 1.344-.144q.336-.048.456-.192.144-.168.288-.984l2.184-12.432q.144-.816.096-.96-.048-.168-.408-.216l-1.32-.12.12-.648zm19.112 16.56a7.4 7.4 0 0 1-2.4-.384 3.8 3.8 0 0 1-1.848-1.344q-.696-.96-.72-2.64l1.512-.48q-.072 1.608.384 2.496t1.272 1.248q.816.336 1.824.336 1.968 0 2.976-.888 1.032-.912 1.032-2.448 0-1.104-.6-1.824-.576-.72-1.992-1.296l-1.776-.696q-1.44-.576-2.232-1.608-.768-1.032-.768-2.568 0-1.272.576-2.328.6-1.08 1.8-1.728t3.024-.648q1.488 0 2.472.456 1.008.432 1.56 1.176.552.72.672 1.608.12.864-.168 1.728l-2.088.432q.672-2.184.048-3.408t-2.592-1.224q-1.56 0-2.496.816-.936.792-.936 2.4 0 1.08.528 1.824.552.72 1.944 1.272l1.776.72q1.512.6 2.328 1.584.816.96.816 2.448 0 1.272-.648 2.424-.624 1.128-1.944 1.848-1.32.696-3.336.696m10.269-15.912.12-.648h6.288q2.112 0 3.408 1.008 1.296.984 1.776 2.688t.096 3.84l-.288 1.56q-.384 2.184-1.344 3.816-.96 1.608-2.448 2.52-1.488.888-3.456.888h-6.912l.12-.624 1.344-.144q.408-.048.504-.192.096-.168.24-.984l2.184-12.432q.144-.84.096-.984t-.408-.192zm6.432.12h-2.52l-2.592 14.784h2.808q1.92 0 3.12-1.344 1.224-1.344 1.68-3.96l.696-3.96q.456-2.64-.336-4.08-.768-1.44-2.856-1.44"/></svg>