<svg xmlns="http://www.w3.org/2000/svg" width="300" height="200" fill="none" viewBox="0 0 300 200"><path fill="#000" d="M0 0h300v200H0z"/><circle cx="150" cy="100" r="81" fill="url(#a)" fill-opacity=".8"/><path stroke="#000" stroke-dasharray="5 5" d="M69 100s23.287 15 81 15 81-15 81-15"/><path fill="#fff" d="m70.955 47.546 1.613-9.785h-.182a9.6 9.6 0 0 1-1.272 1.637q-.784.83-1.944 1.397-1.158.57-2.738.569-2.136 0-3.568-1.137-1.433-1.136-2-3.17-.558-2.034-.114-4.739.443-2.693 1.67-4.716 1.239-2.034 3.046-3.159a7.36 7.36 0 0 1 3.977-1.136q1.602 0 2.557.568.966.569 1.466 1.398.5.818.716 1.602h.239l.568-3.33h1.977l-3.977 24zm-3.99-8.035q1.705 0 3.046-.92 1.353-.932 2.25-2.557.899-1.635 1.25-3.75.341-2.091-.022-3.693-.352-1.614-1.387-2.523-1.035-.92-2.75-.92-1.75 0-3.113.954-1.353.944-2.239 2.557-.886 1.614-1.216 3.625-.34 2.034.011 3.67.364 1.637 1.398 2.603 1.045.954 2.773.954"/><path fill="#000" d="m122.636 66 3.864-23.273h7.511q2.477 0 3.989.887 1.523.886 2.102 2.466.59 1.568.262 3.613-.341 2.023-1.455 3.58-1.102 1.557-2.909 2.443-1.807.875-4.261.875h-6.387l.33-1.943h6.329q1.83 0 3.137-.603 1.306-.602 2.091-1.715.783-1.114 1.034-2.637.25-1.535-.171-2.67-.409-1.137-1.522-1.762-1.102-.625-2.944-.625h-5.329L124.761 66zm12-10.5 3.989 10.5h-2.443l-3.921-10.5z"/><path stroke="#000" d="M149.5 100V19"/><path fill="#fff" d="m252.216 86 2.909-17.454h1.966l-.455 2.681h.148q.727-1.318 2.171-2.125a6.2 6.2 0 0 1 3.102-.818q.25 0 .557.011.306 0 .511.023l-.352 2.057q-.136-.023-.478-.068a5.4 5.4 0 0 0-.738-.046q-1.363 0-2.523.58a5.5 5.5 0 0 0-1.932 1.58 5.24 5.24 0 0 0-1 2.306L254.239 86zM293 100l-10-5.773v11.547zm-143 0v1h134v-2H150z"/><defs><linearGradient id="a" x1="150" x2="150" y1="19" y2="181" gradientUnits="userSpaceOnUse"><stop stop-color="#f3ff50"/><stop offset="1" stop-color="#929930"/></linearGradient></defs></svg>