<svg xmlns="http://www.w3.org/2000/svg" width="300" height="200" fill="none" viewBox="0 0 300 200"><path fill="#000" d="M0 0h300v200H0z"/><ellipse cx="84.5" cy="93.5" fill="url(#a)" rx="55.5" ry="79.5"/><path stroke="#000" d="M84.5 100V14"/><path fill="#fff" d="M262.802 136.98a.999.999 0 1 0 .396-1.96zM85 100l-.198.98 178 36L263 136l.198-.98-178-36z"/><path fill="#c7c7c7" d="M262.435 136.825a1 1 0 1 0 1.13-1.65zM85 14l-.565.825 178 122L263 136l.565-.825-178-122z"/><path stroke="#fff" d="M222.879 128.5s-1.979-5.278.001-9c1.89-3.554 6.999-5.5 6.999-5.5"/><path fill="#fff" d="m209.764 111.804-.23 1.432h-8.591l.23-1.432zm.955-.23-.299 1.781q-.443 2.676-1.363 4.423-.912 1.747-2.216 2.608-1.304.853-2.923.853-1.62 0-2.659-.861-1.04-.86-1.39-2.608-.349-1.747.094-4.415l.298-1.781q.452-2.66 1.364-4.381.912-1.73 2.216-2.565 1.304-.844 2.923-.844 1.628 0 2.668.844 1.04.836 1.38 2.565.35 1.722-.093 4.381m-1.892 2.037.392-2.284q.332-2.02.119-3.392-.204-1.373-.912-2.063-.707-.699-1.832-.699-1.713 0-2.992 1.577-1.27 1.568-1.772 4.577l-.384 2.284q-.511 3.025.239 4.636.75 1.602 2.437 1.602 1.143 0 2.088-.724t1.611-2.122q.673-1.398 1.006-3.392"/><path fill="#000" d="m71.304 137.787.06-.239q.306-1.79 1.201-3.204t2.259-2.225q1.372-.809 3.094-.809.323.034.58.204.263.171.57.392.307.214.776.409 1.023.392 1.653 1.194.639.792.861 1.909.221 1.107.008 2.454l-.034.205a8 8 0 0 1-1.176 3.076 7 7 0 0 1-2.275 2.25q-1.372.844-3.077.844t-2.821-.844q-1.108-.843-1.551-2.301-.435-1.465-.128-3.315m1.807-.205-.051.222q-.24 1.406-.009 2.548.24 1.133.963 1.799.733.664 1.978.664 1.252 0 2.207-.673.954-.682 1.577-1.824a8.1 8.1 0 0 0 .852-2.557l.051-.221q.213-1.338-.026-2.421-.23-1.09-.954-1.73-.724-.648-1.995-.648-1.26 0-2.215.648-.946.648-1.552 1.747a7.6 7.6 0 0 0-.826 2.446m11.37-6.272-.231 1.431h-6.571l.239-1.431z"/><defs><linearGradient id="a" x1="84.5" x2="84.5" y1="14" y2="173" gradientUnits="userSpaceOnUse"><stop stop-color="#f3ff50"/><stop offset="1" stop-color="#929930"/></linearGradient></defs></svg>