<svg xmlns="http://www.w3.org/2000/svg" width="300" height="200" fill="none" viewBox="0 0 300 200"><path fill="#000" d="M0 0h300v200H0z"/><ellipse cx="68.5" cy="135" fill="url(#a)" rx="23.5" ry="23"/><ellipse cx="140.5" cy="60" fill="url(#b)" rx="23.5" ry="23"/><ellipse cx="264.5" cy="168" fill="url(#c)" rx="23.5" ry="23"/><ellipse cx="181.5" cy="116" fill="url(#d)" rx="23.5" ry="23"/><ellipse cx="46.5" cy="30" fill="url(#e)" rx="22.5" ry="21"/><g stroke="#404040" stroke-miterlimit="1" opacity=".42"><path fill="#565656" d="M255 115.5 182 79 32 154l73 36.5z"/><path fill="#969696" d="M255 115.5 182 79V4l73 36.5z"/><path fill="gray" d="M182 79 32 154V79L182 4z"/><path fill="#d6d6d6" d="M105 190.5 32 154V79l73 36.5z"/><path fill="#ababab" d="m105 190.5 150-75v-75l-150 75z"/><path fill="#c1c1c1" d="M255 40.5 182 4 32 79l73 36.5z"/></g><path fill="#000" d="m65.955 148.545 1.613-9.784h-.182a9.6 9.6 0 0 1-1.272 1.637q-.784.83-1.944 1.397-1.158.569-2.738.569-2.136 0-3.568-1.137-1.433-1.136-2-3.17-.558-2.034-.114-4.739.443-2.692 1.67-4.716 1.239-2.034 3.046-3.159a7.36 7.36 0 0 1 3.977-1.136q1.602 0 2.557.568.966.569 1.466 1.398a6.3 6.3 0 0 1 .716 1.602h.239l.568-3.33h1.977l-3.977 24zm-3.99-8.034q1.705 0 3.046-.92 1.353-.932 2.25-2.557.899-1.637 1.25-3.75.341-2.091-.022-3.693-.352-1.614-1.387-2.523-1.035-.92-2.75-.92-1.75 0-3.113.954-1.353.943-2.239 2.557t-1.216 3.625q-.34 2.034.011 3.671.364 1.636 1.398 2.602 1.045.954 2.773.954M75.996 146l2-12.045h-.114l-3.875 2.306.33-1.886 3.886-2.33h1.909L77.813 146zM137.955 74.546l1.613-9.785h-.182a9.6 9.6 0 0 1-1.272 1.637q-.785.83-1.944 1.398t-2.738.568q-2.136 0-3.568-1.137-1.433-1.136-2-3.17-.557-2.034-.114-4.739.443-2.693 1.67-4.716 1.239-2.034 3.046-3.159a7.36 7.36 0 0 1 3.977-1.136q1.602 0 2.557.568.966.569 1.466 1.398.5.818.716 1.602h.238l.569-3.33h1.977l-3.977 24zm-3.989-8.035q1.704 0 3.045-.92 1.353-.932 2.25-2.557.899-1.635 1.25-3.75.341-2.091-.022-3.693-.352-1.614-1.387-2.523-1.034-.92-2.75-.92-1.75 0-3.113.954-1.353.944-2.239 2.557-.886 1.614-1.216 3.625-.34 2.034.011 3.67.364 1.638 1.398 2.603 1.045.954 2.773.954M144.767 72l.205-1.364 6.045-4.897q1.08-.864 1.761-1.512.694-.648 1.057-1.204.364-.57.455-1.194.181-1.09-.546-1.772-.716-.682-2-.682-1.306 0-2.295.739-.978.738-1.159 1.886h-1.841q.295-1.784 1.807-2.955 1.523-1.18 3.659-1.181 1.42 0 2.397.534.99.534 1.432 1.454.444.909.262 2.046a4.5 4.5 0 0 1-.58 1.59q-.432.74-1.318 1.603-.887.852-2.364 2.034l-4.011 3.239v.08h7.42l-.25 1.556zM262.955 182.545l1.613-9.784h-.182a9.6 9.6 0 0 1-1.272 1.637q-.785.83-1.944 1.397-1.158.569-2.738.569-2.136 0-3.568-1.137-1.433-1.136-2-3.17-.557-2.034-.114-4.739.443-2.692 1.67-4.716 1.239-2.034 3.046-3.159a7.36 7.36 0 0 1 3.977-1.136q1.602 0 2.557.568.966.568 1.466 1.398.5.817.716 1.602h.238l.569-3.33h1.977l-3.977 24zm-3.989-8.034q1.704 0 3.045-.92 1.353-.932 2.25-2.557.899-1.637 1.25-3.75.342-2.091-.022-3.693-.352-1.614-1.387-2.523-1.034-.92-2.75-.92-1.75 0-3.113.954-1.353.943-2.239 2.557t-1.216 3.625q-.34 2.034.011 3.671.364 1.635 1.398 2.602 1.045.954 2.773.954m10.869 2.671.216-1.455 8.443-9.682h1.228l-.319 2.216h-.852l-6.454 7.319v.068h9.011l-.239 1.534zm6.807 2.818.557-3.273.113-.636 1.682-10.046h1.784L278.46 180zM170.509 114.776l-.269 1.611h-8.169l.268-1.611zm11.812 14.747 1.362-8.256h-.154a8 8 0 0 1-1.074 1.381q-.661.7-1.639 1.179t-2.311.48q-1.803 0-3.011-.959t-1.687-2.675q-.47-1.716-.096-3.998.374-2.273 1.409-3.979 1.046-1.717 2.57-2.666a6.2 6.2 0 0 1 3.356-.959q1.352 0 2.157.48.815.478 1.237 1.179a5.3 5.3 0 0 1 .604 1.352h.201l.48-2.809h1.668l-3.356 20.25zm-3.365-6.779q1.438 0 2.569-.777 1.142-.786 1.899-2.157.757-1.38 1.054-3.164.288-1.764-.019-3.116-.297-1.362-1.17-2.129-.872-.776-2.32-.776-1.476 0-2.627.805-1.141.797-1.889 2.157-.747 1.362-1.026 3.059-.288 1.716.01 3.097.306 1.38 1.179 2.196.882.804 2.34.805m13.447 4.784q-1.285 0-2.225-.431-.93-.422-1.39-1.179-.45-.748-.297-1.726h1.582q-.134.891.546 1.438.681.556 1.841.556 1.276 0 2.206-.633t1.083-1.524q.163-.969-.585-1.525-.747-.565-2.167-.565h-.748l.173-1.209h.719q1.266 0 2.138-.594.882-.604 1.017-1.438.153-.862-.355-1.419-.5-.556-1.678-.556-1.065 0-1.975.556t-1.074 1.476h-1.525a3.5 3.5 0 0 1 .844-1.735 4.5 4.5 0 0 1 1.64-1.16 5.4 5.4 0 0 1 2.109-.413q1.218 0 2.062.422.853.422 1.236 1.17.394.739.24 1.678-.173 1.046-.93 1.668-.747.624-1.937.863v.067q1.275.22 1.928 1.007.651.786.479 1.899a3.3 3.3 0 0 1-.853 1.725q-.692.748-1.755 1.161-1.065.421-2.349.421M34.509 27.776l-.269 1.611h-8.169l.268-1.61zM46.32 42.523l1.361-8.256h-.153a8 8 0 0 1-1.074 1.381q-.66.7-1.64 1.18-.976.479-2.31.479-1.803 0-3.01-.959-1.21-.959-1.688-2.675-.47-1.716-.096-3.998.374-2.272 1.41-3.98 1.044-1.715 2.569-2.665a6.2 6.2 0 0 1 3.356-.959q1.352 0 2.157.48.815.48 1.237 1.18.422.69.604 1.351h.201l.48-2.81h1.668l-3.356 20.25zm-3.365-6.779q1.437 0 2.57-.777 1.14-.786 1.898-2.157.757-1.38 1.054-3.164.288-1.764-.019-3.116-.297-1.362-1.17-2.129-.872-.776-2.32-.776-1.476 0-2.627.805-1.14.796-1.889 2.157-.747 1.362-1.026 3.059-.288 1.716.01 3.097.306 1.38 1.18 2.196.88.804 2.339.805m13.447 4.784q-1.285 0-2.225-.431-.93-.421-1.39-1.18-.45-.747-.297-1.725h1.582q-.135.892.547 1.438.68.555 1.84.556 1.275 0 2.206-.633.93-.633 1.083-1.524.164-.969-.585-1.525-.747-.565-2.167-.565h-.748l.173-1.209h.72q1.265 0 2.137-.594.882-.604 1.017-1.438.153-.864-.355-1.42-.5-.555-1.678-.555-1.065 0-1.975.556t-1.074 1.476H53.69a3.5 3.5 0 0 1 .843-1.735 4.5 4.5 0 0 1 1.64-1.16 5.4 5.4 0 0 1 2.11-.413q1.216 0 2.06.422.855.423 1.237 1.17.394.738.24 1.678-.172 1.046-.93 1.668-.747.624-1.937.863v.067q1.275.22 1.927 1.007t.48 1.898a3.3 3.3 0 0 1-.853 1.726q-.69.749-1.755 1.16-1.065.422-2.35.422"/><defs><linearGradient id="a" x1="68.5" x2="68.5" y1="112" y2="158" gradientUnits="userSpaceOnUse"><stop stop-color="#98f5ff"/><stop offset="1" stop-color="#5b9399"/></linearGradient><linearGradient id="b" x1="140.5" x2="140.5" y1="37" y2="83" gradientUnits="userSpaceOnUse"><stop stop-color="#98f5ff"/><stop offset="1" stop-color="#5b9399"/></linearGradient><linearGradient id="c" x1="264.5" x2="264.5" y1="145" y2="191" gradientUnits="userSpaceOnUse"><stop stop-color="#98f5ff"/><stop offset="1" stop-color="#5b9399"/></linearGradient><linearGradient id="d" x1="181.5" x2="181.5" y1="93" y2="139" gradientUnits="userSpaceOnUse"><stop stop-color="#ff3c3c"/><stop offset="1" stop-color="#992424"/></linearGradient><linearGradient id="e" x1="46.5" x2="46.5" y1="9" y2="51" gradientUnits="userSpaceOnUse"><stop stop-color="#ff3c3c"/><stop offset="1" stop-color="#992424"/></linearGradient></defs></svg>