<svg xmlns="http://www.w3.org/2000/svg" width="300" height="200" fill="none" viewBox="0 0 300 200"><path fill="#000" d="M0 0h300v200H0z"/><path stroke="#fff" d="M55 167.5h185"/><path stroke="#fff" stroke-dasharray="5 5" d="m55.328 6.623 185 161"/><path stroke="url(#a)" stroke-width="7" d="M55.5 3v165"/><path fill="#fff" d="m129.216 160 2.909-17.455h1.966l-.455 2.682h.148q.727-1.318 2.171-2.125a6.23 6.23 0 0 1 3.102-.818q.25 0 .557.011.306 0 .511.023l-.352 2.057q-.136-.023-.478-.068a5.5 5.5 0 0 0-.738-.046q-1.364 0-2.523.58a5.5 5.5 0 0 0-1.932 1.579 5.24 5.24 0 0 0-1 2.307L131.239 160z"/><path stroke="#fff" d="M216.879 167.5s-1.979-5.278.001-9c1.89-3.554 6.999-5.5 6.999-5.5"/><path fill="#fff" d="m204.764 152.804-.23 1.432h-8.591l.23-1.432zm.955-.23-.299 1.781q-.443 2.676-1.363 4.423-.912 1.747-2.216 2.608-1.304.853-2.923.853-1.62 0-2.659-.861-1.04-.86-1.39-2.608-.349-1.747.094-4.415l.298-1.781q.452-2.66 1.364-4.381.912-1.73 2.216-2.565 1.304-.844 2.923-.844 1.628 0 2.668.844 1.04.836 1.38 2.565.35 1.722-.093 4.381m-1.892 2.037.392-2.284q.332-2.02.119-3.392-.204-1.373-.912-2.063-.707-.699-1.832-.699-1.713 0-2.992 1.577-1.27 1.568-1.772 4.577l-.384 2.284q-.511 3.025.239 4.636.75 1.602 2.437 1.602 1.143 0 2.088-.724t1.611-2.122q.673-1.398 1.006-3.392"/><defs><linearGradient id="a" x1="51.5" x2="51.5" y1="3" y2="168" gradientUnits="userSpaceOnUse"><stop stop-color="#f3ff50"/><stop offset="1" stop-color="#929930"/></linearGradient></defs></svg>