<svg xmlns="http://www.w3.org/2000/svg" width="300" height="200" fill="none" viewBox="0 0 300 200"><path fill="#000" d="M0 0h300v200H0z"/><ellipse cx="150" cy="100.5" fill="url(#a)" rx="74" ry="74.5"/><ellipse cx="196.705" cy="65.236" fill="#299ba8" rx="9.136" ry="14.915" transform="rotate(-41.274 196.705 65.236)"/><path fill="#fff" d="m214 27-11.154 2.989 8.165 8.165zm-27 27 .707.707 20.636-20.636-.707-.707-.707-.707-20.636 20.636zM214 41l-11.154 2.989 8.165 8.165zm-27 27 .707.707 20.636-20.636-.707-.707-.707-.707-20.636 20.636zM233 49l-11.154 2.989 8.165 8.165zm-27 27 .707.707 20.636-20.636-.707-.707-.707-.707-20.636 20.636zM233 36l-11.154 2.989 8.165 8.165zm-27 27 .707.707 20.636-20.636-.707-.707-.707-.707-20.636 20.636zM237.739 98.716l.079-.318q.41-2.386 1.602-4.273 1.194-1.886 3.012-2.966 1.83-1.08 4.125-1.08.431.046.773.273.351.228.761.523.409.284 1.034.546 1.363.522 2.205 1.59.852 1.057 1.147 2.546.296 1.478.012 3.272l-.046.273a10.7 10.7 0 0 1-1.568 4.103 9.3 9.3 0 0 1-3.034 3q-1.83 1.125-4.102 1.125t-3.762-1.125q-1.477-1.125-2.068-3.069-.58-1.954-.17-4.42m2.409-.273-.068.296q-.319 1.875-.012 3.397.318 1.512 1.284 2.398.978.886 2.637.886 1.67 0 2.943-.897 1.272-.91 2.102-2.432.83-1.535 1.136-3.41l.069-.295q.284-1.784-.034-3.227-.307-1.455-1.273-2.307-.966-.864-2.659-.863-1.682 0-2.955.863-1.261.864-2.068 2.33t-1.102 3.261m15.159-8.364L255 91.99h-8.761l.318-1.91z"/><defs><linearGradient id="a" x1="224" x2="76" y1="100.5" y2="100.5" gradientUnits="userSpaceOnUse"><stop stop-color="#f3ff50"/><stop offset="1" stop-color="#929930"/></linearGradient></defs></svg>