<svg xmlns="http://www.w3.org/2000/svg" width="300" height="200" fill="none" viewBox="0 0 300 200"><path fill="#000" d="M0 0h300v200H0z"/><circle cx="64" cy="100" r="30" fill="url(#a)"/><circle cx="228" cy="100" r="30" fill="url(#b)"/><path fill="#000" d="m60.955 114.545 1.613-9.784h-.182a9.6 9.6 0 0 1-1.272 1.637q-.784.83-1.944 1.397-1.158.569-2.738.569-2.136 0-3.568-1.137-1.433-1.136-2-3.17-.558-2.034-.114-4.739.443-2.692 1.67-4.716 1.239-2.034 3.046-3.159a7.36 7.36 0 0 1 3.977-1.136q1.602 0 2.557.568.966.569 1.466 1.398.5.818.716 1.602h.239l.568-3.33h1.977l-3.977 24zm-3.99-8.034q1.705 0 3.046-.92 1.353-.932 2.25-2.557.898-1.636 1.25-3.75.342-2.091-.022-3.693-.352-1.614-1.387-2.523-1.035-.92-2.75-.92-1.75 0-3.113.954-1.353.944-2.239 2.557-.886 1.614-1.216 3.625-.34 2.034.011 3.671.364 1.635 1.398 2.602 1.045.954 2.773.954M70.996 112l2-12.046h-.114l-3.875 2.307.33-1.886 3.886-2.33h1.909L72.813 112zM225.955 114.545l1.613-9.784h-.182a9.6 9.6 0 0 1-1.272 1.637q-.785.83-1.944 1.397-1.158.569-2.738.569-2.137 0-3.568-1.137-1.433-1.136-2-3.17-.557-2.034-.114-4.739.443-2.692 1.67-4.716 1.239-2.034 3.046-3.159a7.36 7.36 0 0 1 3.977-1.136q1.603 0 2.557.568.966.569 1.466 1.398.5.818.716 1.602h.238l.569-3.33h1.977l-3.977 24zm-3.989-8.034q1.704 0 3.045-.92 1.353-.932 2.25-2.557.899-1.636 1.25-3.75.341-2.091-.022-3.693-.352-1.614-1.387-2.523-1.034-.92-2.75-.92-1.75 0-3.113.954-1.353.944-2.239 2.557-.886 1.614-1.216 3.625-.34 2.034.011 3.671.364 1.635 1.398 2.602 1.045.954 2.773.954M232.767 112l.205-1.364 6.045-4.897q1.08-.864 1.761-1.512.694-.648 1.057-1.204a3 3 0 0 0 .455-1.193q.181-1.092-.546-1.773-.716-.682-2-.682-1.306 0-2.295.739-.978.738-1.159 1.886h-1.841q.295-1.784 1.807-2.954 1.523-1.182 3.659-1.182 1.42 0 2.397.534.99.534 1.432 1.454.444.909.262 2.046a4.5 4.5 0 0 1-.58 1.591q-.432.738-1.318 1.602-.887.852-2.364 2.034l-4.011 3.239v.079h7.42l-.25 1.557z"/><path fill="#fff" d="m63 152 10 5.774v-11.548zm165 0-10-5.774v11.548zm-156 0v1h147v-2H72zM136.216 183l2.909-17.455h1.966l-.455 2.682h.148q.727-1.318 2.171-2.125a6.23 6.23 0 0 1 3.102-.818q.25 0 .557.011.306 0 .511.023l-.352 2.057q-.136-.023-.478-.068a5.5 5.5 0 0 0-.738-.046q-1.364 0-2.523.58a5.5 5.5 0 0 0-1.932 1.579 5.24 5.24 0 0 0-1 2.307L138.239 183z"/><defs><linearGradient id="a" x1="64" x2="64" y1="70" y2="130" gradientUnits="userSpaceOnUse"><stop stop-color="#98f5ff"/><stop offset="1" stop-color="#5b9399"/></linearGradient><linearGradient id="b" x1="228" x2="228" y1="70" y2="130" gradientUnits="userSpaceOnUse"><stop stop-color="#ff587c"/><stop offset="1" stop-color="#99354b"/></linearGradient></defs></svg>