<svg xmlns="http://www.w3.org/2000/svg" width="300" height="200" fill="none" viewBox="0 0 300 200"><path fill="#000" d="M0 0h300v200H0z"/><path stroke="#fff" stroke-dasharray="5 5" d="M69 100s23.287-15 81-15 81 15 81 15"/><circle cx="150" cy="100" r="81" fill="url(#a)"/><path stroke="#000" stroke-dasharray="5 5" d="M69 100s23.287 15 81 15 81-15 81-15"/><path fill="#fff" d="M70.193 33.727h2.364l2.989 3.944.5.659 3.647 4.852H77.33l-2.681-3.58-.466-.636zm11.432-4.238q-.602 3.602-2.318 6.261t-4.193 4.114a10.45 10.45 0 0 1-5.387 1.454q-2.988 0-5.045-1.488-2.046-1.5-2.898-4.205-.852-2.716-.25-6.386.602-3.603 2.318-6.262 1.716-2.66 4.205-4.113a10.53 10.53 0 0 1 5.409-1.455q2.954 0 5 1.489 2.046 1.488 2.909 4.204.864 2.704.25 6.387m-2.034-.25q.522-3.114-.136-5.307-.648-2.193-2.228-3.352-1.58-1.17-3.83-1.17a8.5 8.5 0 0 0-4.374 1.204q-2.046 1.193-3.489 3.454-1.443 2.25-1.977 5.42-.512 3.104.136 5.307.648 2.194 2.228 3.364 1.59 1.16 3.852 1.16 2.34 0 4.386-1.205t3.477-3.455q1.444-2.262 1.955-5.42"/><path fill="#000" d="m122.636 66 3.864-23.273h7.511q2.477 0 3.989.887 1.523.886 2.102 2.466.59 1.568.262 3.613-.341 2.023-1.455 3.58-1.102 1.557-2.909 2.443-1.807.875-4.261.875h-6.387l.33-1.943h6.329q1.83 0 3.137-.603 1.306-.602 2.091-1.715.783-1.114 1.034-2.637.25-1.535-.171-2.67-.409-1.137-1.522-1.762-1.102-.625-2.944-.625h-5.329L124.761 66zm12-10.5 3.989 10.5h-2.443l-3.921-10.5z"/><path stroke="#000" d="M149.5 100V19"/><defs><linearGradient id="a" x1="150" x2="150" y1="19" y2="181" gradientUnits="userSpaceOnUse"><stop stop-color="#f3ff50"/><stop offset="1" stop-color="#929930"/></linearGradient></defs></svg>