<svg xmlns="http://www.w3.org/2000/svg" width="300" height="200" fill="none" viewBox="0 0 300 200"><path fill="#000" d="M0 0h300v200H0z"/><path fill="#fff" d="m93 89 10 5.773V83.227zm118 0-10-5.773v11.546zm-109 0v1h100v-2H102z"/><ellipse cx="211" cy="86.5" fill="url(#a)" rx="26" ry="25.5"/><ellipse cx="93" cy="86.5" fill="url(#b)" rx="27" ry="26.5"/><path fill="#000" d="m195.318 94.102 2.375-14.386h1.955l-2.375 14.386zm-5.193-6.227.33-1.932h14.397l-.341 1.932zm29.673 14.67 1.614-9.784h-.182a9.6 9.6 0 0 1-1.273 1.637q-.783.83-1.943 1.398-1.159.568-2.738.568-2.137 0-3.569-1.137-1.431-1.136-2-3.17-.557-2.034-.113-4.739.443-2.692 1.67-4.716 1.239-2.034 3.046-3.159a7.36 7.36 0 0 1 3.977-1.136q1.602 0 2.557.568.965.569 1.466 1.398.5.818.716 1.602h.238l.568-3.33h1.978l-3.978 24zm-3.988-8.034q1.704 0 3.045-.92 1.353-.932 2.25-2.557.898-1.635 1.25-3.75.341-2.091-.023-3.693-.352-1.614-1.386-2.523-1.034-.92-2.75-.92-1.75 0-3.114.954-1.351.944-2.238 2.557-.886 1.614-1.216 3.625-.341 2.035.011 3.67.364 1.638 1.398 2.603 1.045.954 2.773.954M81.455 84.068l-.319 1.91h-9.681l.318-1.91zm14 17.477 1.613-9.784h-.182a9.6 9.6 0 0 1-1.272 1.637q-.784.83-1.944 1.398-1.158.568-2.738.568-2.136 0-3.568-1.137-1.433-1.136-2-3.17-.558-2.034-.114-4.739.444-2.693 1.67-4.716 1.239-2.034 3.046-3.159a7.36 7.36 0 0 1 3.977-1.136q1.602 0 2.557.568.966.569 1.466 1.398.5.818.716 1.602h.239l.568-3.33h1.977l-3.977 24zm-3.99-8.034q1.705 0 3.046-.92 1.353-.932 2.25-2.557.899-1.635 1.25-3.75.341-2.091-.022-3.693-.352-1.614-1.387-2.523-1.035-.92-2.75-.92-1.75 0-3.113.954-1.353.944-2.239 2.557-.885 1.614-1.216 3.625-.34 2.035.011 3.67.364 1.638 1.398 2.603 1.045.954 2.773.954"/><path fill="#f3ff50" d="m140.136 162 .273-1.557 9-8.545a73 73 0 0 0 2.875-2.875q1.114-1.205 1.705-2.205a6.1 6.1 0 0 0 .772-2.102q.217-1.33-.227-2.318a3.24 3.24 0 0 0-1.398-1.557q-.954-.557-2.318-.557-1.431 0-2.625.614a5.64 5.64 0 0 0-1.988 1.693 5.7 5.7 0 0 0-1.023 2.443h-2.034q.317-1.932 1.466-3.42a8.2 8.2 0 0 1 2.863-2.353 8.1 8.1 0 0 1 3.671-.852q1.954 0 3.318.841a4.8 4.8 0 0 1 1.977 2.261q.614 1.432.318 3.205a8.3 8.3 0 0 1-.875 2.5q-.647 1.193-1.988 2.67-1.342 1.478-3.625 3.614l-6.83 6.443-.034.148h11.511l-.318 1.909zm25.498-23.273L161.77 162h-2.023l3.864-23.273zM93 126l10 5.774v-11.548zm123 0-10-5.774v11.548zm-114 0v1h105v-2H102z"/><defs><linearGradient id="a" x1="211" x2="211" y1="61" y2="112" gradientUnits="userSpaceOnUse"><stop stop-color="#98f5ff"/><stop offset="1" stop-color="#5b9399"/></linearGradient><linearGradient id="b" x1="93" x2="93" y1="60" y2="113" gradientUnits="userSpaceOnUse"><stop stop-color="#ff587c"/><stop offset="1" stop-color="#99354b"/></linearGradient></defs></svg>