<svg xmlns="http://www.w3.org/2000/svg" width="300" height="200" fill="none" viewBox="0 0 300 200"><path fill="#000" d="M0 0h300v200H0z"/><path fill="#fff" d="m50 116 10 5.774v-11.548zm102 0-10-5.774v11.548zm-93 0v1h84v-2H59z"/><circle cx="149.5" cy="114.5" r="18.5" fill="url(#a)"/><circle cx="47.5" cy="114.5" r="18.5" fill="url(#b)"/><path fill="#000" d="m147.318 123.102 2.375-14.386h1.955l-2.375 14.386zm-5.193-6.227.33-1.932h14.397l-.341 1.932zm8.83 53.67 1.613-9.784h-.182a9.6 9.6 0 0 1-1.272 1.637q-.785.83-1.944 1.397-1.158.569-2.738.569-2.136 0-3.568-1.137-1.433-1.136-2-3.17-.557-2.034-.114-4.739.443-2.692 1.67-4.716 1.239-2.034 3.046-3.159a7.36 7.36 0 0 1 3.977-1.136q1.602 0 2.557.568.966.568 1.466 1.398.5.817.716 1.602h.238l.569-3.33h1.977l-3.977 24zm-3.989-8.034q1.704 0 3.045-.92 1.353-.932 2.25-2.557.899-1.637 1.25-3.75.341-2.091-.022-3.693-.352-1.614-1.387-2.523-1.034-.92-2.75-.92-1.75 0-3.113.954-1.353.943-2.239 2.557t-1.216 3.625q-.34 2.034.011 3.671.364 1.636 1.398 2.602 1.045.954 2.773.954M50.455 114.068l-.319 1.909h-9.681l.318-1.909zm-.5 56.477 1.613-9.784h-.182a9.6 9.6 0 0 1-1.272 1.637q-.784.83-1.944 1.397-1.158.569-2.738.569-2.136 0-3.568-1.137-1.433-1.136-2-3.17-.558-2.034-.114-4.739.443-2.692 1.67-4.716 1.239-2.034 3.046-3.159a7.36 7.36 0 0 1 3.977-1.136q1.602 0 2.557.568.966.568 1.466 1.398a6.3 6.3 0 0 1 .716 1.602h.238l.569-3.33h1.977l-3.977 24zm-3.99-8.034q1.705 0 3.046-.92 1.353-.932 2.25-2.557.898-1.637 1.25-3.75.342-2.091-.022-3.693-.352-1.614-1.387-2.523-1.035-.92-2.75-.92-1.75 0-3.113.954-1.353.943-2.239 2.557t-1.216 3.625q-.34 2.034.011 3.671.364 1.636 1.398 2.602 1.045.954 2.773.954"/><path fill="#fff" d="m88.125 100.545 4.023-24h1.966l-.546 3.33h.239q.476-.784 1.239-1.614.772-.83 1.92-1.386 1.16-.568 2.773-.568 2.159 0 3.579 1.125 1.432 1.125 2 3.159.58 2.034.125 4.727-.443 2.705-1.693 4.739t-3.057 3.17a7.2 7.2 0 0 1-3.932 1.137q-1.58 0-2.556-.569-.966-.567-1.478-1.397a6.7 6.7 0 0 1-.738-1.637h-.182l-1.636 9.784zm4.568-15.26q-.34 2.112 0 3.75.342 1.624 1.375 2.556 1.035.92 2.728.92 1.738 0 3.102-.954 1.363-.966 2.272-2.603.91-1.635 1.25-3.67.319-2.011-.022-3.625t-1.364-2.557q-1.023-.954-2.784-.954-1.705 0-3.068.92-1.353.909-2.25 2.523-.898 1.603-1.239 3.693"/><path fill="#f3ff50" d="m172.216 178 2.909-17.455h1.966l-.455 2.682h.148q.727-1.318 2.171-2.125a6.23 6.23 0 0 1 3.102-.818q.25 0 .557.011.306 0 .511.023l-.352 2.057q-.136-.023-.478-.068a5.5 5.5 0 0 0-.738-.046q-1.364 0-2.523.58a5.5 5.5 0 0 0-1.932 1.579 5.24 5.24 0 0 0-1 2.307L174.239 178zM95 146a1 1 0 0 0 0 2zm178 1-10-5.774v11.547zm-178 0v1h169v-2H95z"/><defs><linearGradient id="a" x1="149.5" x2="149.5" y1="96" y2="133" gradientUnits="userSpaceOnUse"><stop stop-color="#98f5ff"/><stop offset="1" stop-color="#5b9399"/></linearGradient><linearGradient id="b" x1="47.5" x2="47.5" y1="96" y2="133" gradientUnits="userSpaceOnUse"><stop stop-color="#ff587c"/><stop offset="1" stop-color="#99354b"/></linearGradient></defs></svg>