<svg xmlns="http://www.w3.org/2000/svg" width="300" height="200" fill="none" viewBox="0 0 300 200"><path fill="#000" d="M0 0h300v200H0z"/><path fill="#f3ff50" d="m256.109 87-10-5.773v11.546zM73 87v1h174.109v-2H73zM257.055 56l-10-5.773v11.547zm-183.11 0v1h174.11v-2H73.945zM256.109 154l-10-5.774v11.548zM73 154v1h174.109v-2H73zM257.055 123l-10-5.774v11.548zm-183.11 0v1h174.11v-2H73.945z"/><path fill="#fff" d="M23.636 111 27.5 87.727H41l-.318 1.91H29.307l-1.455 8.76h10.66l-.319 1.91H27.534l-1.454 8.784h11.602L37.364 111zm21.603 4.227q-1.534 0-2.603-.772-1.056-.762-1.511-2.125-.454-1.365-.16-3.16.297-1.772 1.171-3.113.887-1.341 2.182-2.091a5.63 5.63 0 0 1 2.852-.75q1.603 0 2.66.795 1.068.785 1.5 2.148.443 1.353.17 3.034-.285 1.785-1.17 3.137-.876 1.363-2.194 2.125-1.306.772-2.897.772m.17-1.488q1.08 0 1.955-.614.886-.614 1.477-1.659.591-1.034.795-2.318.194-1.227-.045-2.239-.24-1.022-.886-1.625-.648-.602-1.705-.602-1.035 0-1.91.613-.863.602-1.465 1.637a6.7 6.7 0 0 0-.795 2.295q-.216 1.296.022 2.307.24 1.023.887 1.614t1.67.591"/></svg>