<svg xmlns="http://www.w3.org/2000/svg" width="300" height="200" fill="none" viewBox="0 0 300 200"><g clip-path="url(#a)"><path fill="#000" d="M0 0h300v200H0z"/><path stroke="#fff" d="m28.002 129.5 215 1"/><path stroke="#fff" stroke-dasharray="5 5" d="m55.275 6.583 188 124M54.828 199.531l188-69"/><path stroke="url(#b)" stroke-width="7" d="M55.5 3s-30 24.5-30 96 30 101 30 101"/><path fill="#fff" d="M89.636 121 93.5 97.727h7.511q2.477 0 3.989.887 1.523.886 2.102 2.466.59 1.568.262 3.613-.341 2.023-1.455 3.58-1.102 1.557-2.909 2.443-1.807.875-4.261.875h-6.387l.33-1.943h6.33q1.829 0 3.136-.603 1.306-.602 2.091-1.715.783-1.114 1.034-2.637.25-1.534-.171-2.67-.409-1.137-1.522-1.762-1.102-.624-2.944-.625h-5.33L91.762 121zm12-10.5 3.989 10.5h-2.443l-3.92-10.5z"/><path stroke="#fff" d="M213.5 130s-1.979-5.278 0-9c1.89-3.554 7-5.5 7-5.5M212.782 141.554s-3.542-2.12-3.04-5.327c.479-3.062 4.362-6.805 4.362-6.805"/><path fill="#fff" d="m184.764 110.804-.23 1.432h-8.591l.23-1.432zm.955-.23-.299 1.781q-.443 2.676-1.363 4.423-.912 1.747-2.216 2.608-1.304.853-2.923.853-1.62 0-2.659-.861-1.04-.86-1.39-2.608-.349-1.747.094-4.415l.298-1.781q.452-2.66 1.364-4.381.912-1.73 2.216-2.565 1.304-.844 2.923-.844 1.628 0 2.668.844 1.04.836 1.38 2.565.35 1.722-.093 4.381m-1.892 2.037.392-2.284q.332-2.02.119-3.392-.204-1.373-.912-2.063-.707-.699-1.832-.699-1.713 0-2.992 1.577-1.27 1.568-1.772 4.577l-.384 2.284q-.511 3.025.239 4.636.75 1.602 2.437 1.602 1.143 0 2.088-.724t1.611-2.122q.673-1.398 1.006-3.392M188.129 123l1.5-9.034h-.086l-2.906 1.73.247-1.415 2.915-1.747h1.432L189.492 123zM161.764 142.804l-.23 1.432h-8.591l.23-1.432zm.955-.23-.299 1.781q-.443 2.676-1.363 4.423-.912 1.747-2.216 2.608-1.304.853-2.923.853-1.62 0-2.659-.861-1.04-.86-1.39-2.608-.349-1.747.094-4.415l.298-1.781q.453-2.66 1.364-4.381.912-1.73 2.216-2.565 1.304-.844 2.923-.844 1.628 0 2.668.844 1.04.836 1.38 2.565.35 1.722-.093 4.381m-1.892 2.037.392-2.284q.332-2.02.119-3.392-.204-1.373-.912-2.063-.707-.699-1.832-.699-1.713 0-2.992 1.577-1.27 1.568-1.772 4.577l-.384 2.284q-.511 3.025.239 4.636.75 1.602 2.437 1.602 1.143 0 2.088-.724t1.611-2.122q.673-1.398 1.006-3.392M162.708 155l.154-1.023 4.534-3.673q.809-.648 1.321-1.134.519-.485.792-.903.273-.426.341-.895.137-.817-.409-1.329-.537-.512-1.5-.512-.98 0-1.722.554-.732.554-.869 1.415h-1.381q.222-1.338 1.356-2.216 1.142-.886 2.744-.886 1.066 0 1.798.4.742.4 1.074 1.091.333.682.196 1.534a3.4 3.4 0 0 1-.435 1.193q-.323.555-.988 1.202a27 27 0 0 1-1.773 1.526l-3.008 2.429v.059h5.565L170.31 155z"/></g><defs><linearGradient id="b" x1="51.5" x2="51.5" y1="3" y2="200" gradientUnits="userSpaceOnUse"><stop stop-color="#f3ff50"/><stop offset="1" stop-color="#929930"/></linearGradient><clipPath id="a"><path fill="#fff" d="M0 0h300v200H0z"/></clipPath></defs></svg>