<svg xmlns="http://www.w3.org/2000/svg" width="300" height="200" fill="none" viewBox="0 0 300 200"><g clip-path="url(#a)"><path fill="#000" d="M0 0h300v200H0z"/><path fill="#fff" d="m31.955 34.546 1.613-9.785h-.182a9.6 9.6 0 0 1-1.272 1.637q-.784.83-1.943 1.398-1.16.567-2.74.568-2.135 0-3.567-1.137-1.433-1.136-2-3.17-.558-2.034-.114-4.739.444-2.692 1.67-4.716 1.239-2.034 3.046-3.159a7.36 7.36 0 0 1 3.977-1.136q1.602 0 2.557.568.966.569 1.466 1.398.5.818.716 1.602h.238l.569-3.33h1.977l-3.977 24zm-3.99-8.035q1.705 0 3.046-.92 1.353-.932 2.25-2.557.898-1.635 1.25-3.75.342-2.091-.022-3.693-.352-1.614-1.387-2.523-1.034-.92-2.75-.92-1.75 0-3.113.954-1.353.944-2.239 2.557-.886 1.614-1.216 3.625-.34 2.035.012 3.67.363 1.637 1.397 2.603 1.045.954 2.773.954"/><path stroke="#fff" d="M79.5 97V28"/><path stroke="url(#b)" stroke-width="8" d="M79.5 26c10.63 0 20.915 7.12 28.754 20.042C116.049 58.891 121 76.898 121 97s-4.951 38.109-12.746 50.958C100.415 160.88 90.129 168 79.5 168s-20.915-7.12-28.754-20.042C42.951 135.109 38 117.102 38 97s4.951-38.109 12.746-50.958C58.586 33.12 68.871 26 79.5 26Z"/><path fill="#fff" d="m256 132-8.682-7.613-2.252 11.325zM80 97l-.195.98 167.173 33.245.195-.98.195-.981L80.195 96.019zM58.38 72l3.26-19.636h6.338q2.091 0 3.366.748 1.284.748 1.774 2.08.498 1.323.22 3.05-.287 1.706-1.227 3.02-.93 1.313-2.455 2.06-1.525.74-3.595.74h-5.389l.278-1.64h5.34q1.545 0 2.647-.509a4.3 4.3 0 0 0 1.764-1.447q.661-.94.873-2.225.21-1.294-.144-2.253-.345-.96-1.285-1.486-.93-.528-2.483-.528h-4.497L60.174 72zm10.126-8.86L71.87 72H69.81l-3.308-8.86zM143.352 122.545l3.273 7.444 5.75-7.444h2.364l-7.091 8.762 4.159 8.693h-2.33l-3.295-7.193-5.693 7.193h-2.387l7.023-8.739-4.091-8.716zM165.216 67l2.909-17.455h1.966l-.455 2.682h.148q.727-1.318 2.171-2.125a6.2 6.2 0 0 1 3.102-.818q.25 0 .557.011.306 0 .511.023l-.352 2.057q-.136-.023-.478-.068a5.4 5.4 0 0 0-.738-.046q-1.364 0-2.523.58a5.5 5.5 0 0 0-1.932 1.58 5.24 5.24 0 0 0-1 2.306L167.239 67z"/><path stroke="#fff" stroke-dasharray="5 5" stroke-width="2" d="m246.482 129.856-166.999-101"/></g><defs><linearGradient id="b" x1="79.5" x2="79.5" y1="22" y2="172" gradientUnits="userSpaceOnUse"><stop stop-color="#5fefc6"/><stop offset="1" stop-color="#c9d51f"/></linearGradient><clipPath id="a"><path fill="#fff" d="M0 0h300v200H0z"/></clipPath></defs></svg>