<svg xmlns="http://www.w3.org/2000/svg" width="300" height="200" fill="none" viewBox="0 0 300 200"><path fill="#000" d="M0 0h300v200H0z"/><circle cx="101" cy="88" r="30" fill="url(#a)"/><path fill="#000" d="m94.455 85.068-.319 1.91h-9.681l.318-1.91zm14 17.477 1.613-9.784h-.182a9.6 9.6 0 0 1-1.272 1.637q-.785.83-1.944 1.398t-2.738.568q-2.136 0-3.568-1.137-1.433-1.136-2-3.17-.558-2.034-.114-4.739.444-2.692 1.67-4.716 1.239-2.034 3.046-3.159a7.36 7.36 0 0 1 3.977-1.136q1.603 0 2.557.568.966.569 1.466 1.398.5.818.716 1.602h.238l.569-3.33h1.977l-3.977 24zm-3.989-8.034q1.704 0 3.045-.92 1.353-.932 2.25-2.557.899-1.635 1.25-3.75.341-2.091-.022-3.693-.352-1.614-1.387-2.523-1.034-.92-2.75-.92-1.75 0-3.113.954-1.353.944-2.239 2.557-.886 1.614-1.216 3.625-.34 2.035.011 3.67.364 1.638 1.398 2.603 1.045.954 2.773.954"/><path fill="#fff" d="M96 129a1 1 0 0 0 0 2zm165 1-10-5.774v11.548zm-165 0v1h156v-2H96zM180.216 161l2.909-17.455h1.966l-.455 2.682h.148q.727-1.318 2.171-2.125a6.23 6.23 0 0 1 3.102-.818q.25 0 .557.011.306 0 .511.023l-.352 2.057q-.136-.023-.478-.068a5.5 5.5 0 0 0-.738-.046q-1.364 0-2.523.58a5.5 5.5 0 0 0-1.932 1.579 5.24 5.24 0 0 0-1 2.307L182.239 161z"/><defs><linearGradient id="a" x1="101" x2="101" y1="58" y2="118" gradientUnits="userSpaceOnUse"><stop stop-color="#ff3c3c"/><stop offset="1" stop-color="#99354b"/></linearGradient></defs></svg>