<svg xmlns="http://www.w3.org/2000/svg" width="300" height="200" fill="none" viewBox="0 0 300 200"><g clip-path="url(#a)"><path fill="#000" d="M0 0h300v200H0z"/><path fill="url(#b)" d="M118 7 18 71.105V192l100-64.105z"/><path fill="#fff" d="m239 95-10-5.773v11.547zm-54 0v1h45v-2h-45zM203.636 141l3.864-23.273H221l-.318 1.909h-11.375l-1.455 8.762h10.659l-.318 1.909h-10.659l-1.454 8.784h11.602l-.318 1.909z"/><path stroke="#f3ff50" stroke-dasharray="5 5" d="m-.27 81.579 137-88M-4.272 207.58l159-103M117.5 196V-16M17.5 204.447V15"/><path fill="url(#c)" d="M126 16 26 80.105V201l100-64.105z"/><path stroke="#f3ff50" stroke-dasharray="5 5" d="m7.73 90.579 137-88M3.728 216.58l159-103M125.5 205V-7M25.5 213.447V24"/></g><defs><linearGradient id="b" x1="68" x2="68" y1="7" y2="192" gradientUnits="userSpaceOnUse"><stop stop-color="#f3ff50"/><stop offset="1" stop-color="#929930"/></linearGradient><linearGradient id="c" x1="76" x2="76" y1="16" y2="201" gradientUnits="userSpaceOnUse"><stop stop-color="#f3ff50" stop-opacity=".29"/><stop offset="1" stop-color="#929930" stop-opacity=".49"/></linearGradient><clipPath id="a"><path fill="#fff" d="M0 0h300v200H0z"/></clipPath></defs></svg>