<svg xmlns="http://www.w3.org/2000/svg" width="300" height="200" fill="none" viewBox="0 0 300 200"><g clip-path="url(#a)"><path fill="#000" d="M0 0h300v200H0z"/><path stroke="url(#b)" stroke-dasharray="3 3" stroke-width="7" d="M56.5-12v225"/><path fill="#fff" d="m242 100-10-5.773v11.547zm-185 0v1h176v-2H57z"/><path stroke="url(#c)" stroke-width="7" d="M56.5 28v143"/><path fill="#fff" d="m154.216 88 2.909-17.454h1.966l-.455 2.681h.148q.727-1.318 2.171-2.125a6.2 6.2 0 0 1 3.102-.818q.25 0 .557.011.306 0 .511.023l-.352 2.057q-.136-.023-.478-.068a5.4 5.4 0 0 0-.738-.046q-1.364 0-2.523.58a5.5 5.5 0 0 0-1.932 1.58 5.24 5.24 0 0 0-1 2.306L156.239 88zM86 164.545l-.284 1.762h-8.341l.296-1.762zm-5.046-4.181h2.035l-2.841 17.079q-.181 1.09.09 1.716.274.614.841.875.57.25 1.25.25.399 0 .682-.045.296-.057.523-.114l.148 1.83q-.33.113-.784.204a5 5 0 0 1-1.091.102 4.4 4.4 0 0 1-2.057-.488 3.25 3.25 0 0 1-1.432-1.455q-.489-.966-.261-2.398zm13.407 22q-2.295 0-3.864-1.159-1.568-1.171-2.216-3.239t-.216-4.773q.432-2.636 1.716-4.636 1.296-2.012 3.182-3.125a7.87 7.87 0 0 1 4.102-1.125q2.307 0 3.864 1.17 1.568 1.171 2.216 3.239.659 2.068.227 4.784-.431 2.625-1.727 4.625-1.296 1.989-3.182 3.114a7.83 7.83 0 0 1-4.102 1.125m.022-1.853q1.864 0 3.319-.988 1.466-1 2.42-2.659a10.9 10.9 0 0 0 1.284-3.671q.307-1.91-.068-3.511t-1.443-2.568-2.841-.966q-1.852 0-3.318 1.011-1.466 1-2.42 2.682a10.7 10.7 0 0 0-1.273 3.659q-.319 1.92.045 3.511.375 1.591 1.443 2.546 1.08.954 2.852.954m28.202-14.375q1.25 0 2.239.421a6.6 6.6 0 0 1 1.761 1.068q.784.66 1.375 1.386.319.353.58.716.261.364.5.716.283-.341.591-.67.306-.33.727-.705 1.239-1.215 2.716-2.068 1.488-.864 3.329-.864 1.66 0 2.932.807a5.13 5.13 0 0 1 1.932 2.148q.659 1.352.5 3.011a6.6 6.6 0 0 1-.705 2.341 6.75 6.75 0 0 1-3.454 3.193 6.1 6.1 0 0 1-2.341.455q-1.262 0-2.261-.409a7 7 0 0 1-1.807-1.102 11 11 0 0 1-1.432-1.512q-.283-.33-.534-.648a18 18 0 0 1-.443-.636 36 36 0 0 1-.591.671q-.319.34-.682.693a13.7 13.7 0 0 1-1.807 1.5 9.2 9.2 0 0 1-2.034 1.057 6.6 6.6 0 0 1-2.261.386q-1.648 0-2.921-.796a5.27 5.27 0 0 1-1.943-2.17q-.659-1.363-.489-3.034.126-1.25.682-2.33a6.9 6.9 0 0 1 1.455-1.886 6.7 6.7 0 0 1 2.023-1.273 6.2 6.2 0 0 1 2.363-.466m-4.557 5.978q-.124 1.102.296 2.022a3.5 3.5 0 0 0 1.273 1.455q.84.534 1.954.534 1.33 0 2.489-.705a12.7 12.7 0 0 0 2.159-1.681q.442-.433.807-.841.375-.421.682-.818a19 19 0 0 0-.546-.819 7 7 0 0 0-.704-.886 7.7 7.7 0 0 0-1.716-1.614q-.966-.659-2.25-.659-1.102 0-2.08.546a4.8 4.8 0 0 0-1.602 1.454 4.3 4.3 0 0 0-.762 2.012m21.762-.034q.125-1.092-.307-1.989a3.35 3.35 0 0 0-1.25-1.443q-.818-.546-1.921-.546-.909 0-1.727.33a7.4 7.4 0 0 0-1.557.863 12 12 0 0 0-1.352 1.16q-.534.488-.932.954l-.602.705q.216.363.489.75.273.386.636.806.852 1.103 1.841 1.785.989.67 2.318.67a4 4 0 0 0 2.023-.545 4.9 4.9 0 0 0 1.591-1.455 4.3 4.3 0 0 0 .75-2.045M86 10.546l-.284 1.76h-8.341l.296-1.76zm-5.046-4.182h2.035l-2.841 17.08q-.181 1.09.09 1.715.274.614.841.875.57.25 1.25.25.399 0 .682-.045.296-.057.523-.114l.148 1.83q-.33.113-.784.204a5 5 0 0 1-1.091.102 4.4 4.4 0 0 1-2.057-.488 3.24 3.24 0 0 1-1.432-1.455q-.489-.966-.261-2.398zm13.407 22q-2.295 0-3.864-1.16-1.568-1.17-2.216-3.238t-.216-4.773q.432-2.636 1.716-4.636 1.296-2.012 3.182-3.125a7.87 7.87 0 0 1 4.102-1.125q2.307 0 3.864 1.17 1.568 1.17 2.216 3.239.659 2.068.227 4.784-.431 2.625-1.727 4.625-1.296 1.989-3.182 3.114a7.83 7.83 0 0 1-4.102 1.125m.022-1.853q1.864 0 3.319-.988 1.466-1 2.42-2.66a10.9 10.9 0 0 0 1.284-3.67q.307-1.91-.068-3.511t-1.443-2.568-2.841-.966q-1.852 0-3.318 1.011-1.466 1-2.42 2.682a10.7 10.7 0 0 0-1.273 3.659q-.319 1.92.045 3.511.375 1.592 1.443 2.546 1.08.954 2.852.954m28.202-14.375q1.25 0 2.239.42a6.6 6.6 0 0 1 1.761 1.069q.784.66 1.375 1.386.319.353.58.716.261.364.5.716.283-.34.591-.67.306-.33.727-.705 1.239-1.216 2.716-2.068 1.488-.864 3.329-.864 1.66 0 2.932.807a5.13 5.13 0 0 1 1.932 2.148q.659 1.352.5 3.011a6.6 6.6 0 0 1-.705 2.341 6.75 6.75 0 0 1-3.454 3.193 6.1 6.1 0 0 1-2.341.455q-1.262 0-2.261-.41a7 7 0 0 1-1.807-1.102 11 11 0 0 1-1.432-1.51q-.283-.33-.534-.648-.239-.33-.443-.637a36 36 0 0 1-.591.67q-.319.342-.682.694a13.7 13.7 0 0 1-1.807 1.5 9 9 0 0 1-2.034 1.056 6.6 6.6 0 0 1-2.261.387q-1.648 0-2.921-.796a5.3 5.3 0 0 1-1.943-2.17q-.659-1.364-.489-3.034.126-1.25.682-2.33a6.8 6.8 0 0 1 1.455-1.886 6.7 6.7 0 0 1 2.023-1.273 6.2 6.2 0 0 1 2.363-.466m-4.557 5.978q-.124 1.102.296 2.022a3.5 3.5 0 0 0 1.273 1.455q.84.534 1.954.534 1.33 0 2.489-.704a12.7 12.7 0 0 0 2.159-1.682q.442-.432.807-.841.375-.42.682-.819a20 20 0 0 0-.546-.818 7 7 0 0 0-.704-.886 7.7 7.7 0 0 0-1.716-1.614q-.966-.659-2.25-.659-1.102 0-2.08.546a4.8 4.8 0 0 0-1.602 1.454 4.3 4.3 0 0 0-.762 2.012m21.762-.035q.125-1.09-.307-1.988a3.35 3.35 0 0 0-1.25-1.443q-.818-.546-1.921-.546a4.6 4.6 0 0 0-1.727.33 7.3 7.3 0 0 0-1.557.864q-.726.534-1.352 1.159-.534.488-.932.954l-.602.705q.216.363.489.75.273.386.636.806.852 1.103 1.841 1.784.989.67 2.318.671 1.08 0 2.023-.546a4.9 4.9 0 0 0 1.591-1.454 4.3 4.3 0 0 0 .75-2.046"/></g><defs><linearGradient id="b" x1="52.5" x2="52.5" y1="-12" y2="213" gradientUnits="userSpaceOnUse"><stop stop-color="#f3ff50"/><stop offset="1" stop-color="#929930"/></linearGradient><linearGradient id="c" x1="52.5" x2="52.5" y1="28" y2="171" gradientUnits="userSpaceOnUse"><stop stop-color="#f3ff50"/><stop offset="1" stop-color="#929930"/></linearGradient><clipPath id="a"><path fill="#fff" d="M0 0h300v200H0z"/></clipPath></defs></svg>