<svg xmlns="http://www.w3.org/2000/svg" width="300" height="200" fill="none" viewBox="0 0 300 200"><path fill="#000" d="M0 0h300v200H0z"/><path fill="#fff" d="m90 134 10 5.774v-11.548zm118 0-10-5.774v11.548zm-109 0v1h100v-2H99z"/><ellipse cx="205.5" cy="132" fill="url(#a)" rx="21.5" ry="21"/><ellipse cx="87.5" cy="132" fill="url(#b)" rx="21.5" ry="21"/><path fill="#000" d="m201.318 140.102 2.375-14.386h1.955l-2.375 14.386zm-5.193-6.227.33-1.932h14.397l-.341 1.932zm8.83 53.67 1.613-9.784h-.182a9.6 9.6 0 0 1-1.272 1.637q-.785.83-1.944 1.397-1.158.569-2.738.569-2.137 0-3.568-1.137-1.433-1.136-2-3.17-.557-2.034-.114-4.739.443-2.692 1.67-4.716 1.239-2.034 3.046-3.159a7.36 7.36 0 0 1 3.977-1.136q1.603 0 2.557.568.966.568 1.466 1.398.5.817.716 1.602h.238l.569-3.33h1.977l-3.977 24zm-3.989-8.034q1.704 0 3.045-.92 1.353-.932 2.25-2.557.899-1.637 1.25-3.75.341-2.091-.022-3.693-.352-1.614-1.387-2.523-1.034-.92-2.75-.92-1.75 0-3.113.954-1.353.943-2.239 2.557t-1.216 3.625q-.34 2.034.011 3.671.364 1.635 1.398 2.602 1.045.954 2.773.954M92.455 131.068l-.319 1.909h-9.681l.318-1.909zm-.5 56.477 1.613-9.784h-.182a9.6 9.6 0 0 1-1.272 1.637q-.784.83-1.944 1.397-1.158.569-2.738.569-2.136 0-3.568-1.137-1.433-1.136-2-3.17-.558-2.034-.114-4.739.444-2.692 1.67-4.716 1.239-2.034 3.046-3.159a7.36 7.36 0 0 1 3.977-1.136q1.602 0 2.557.568.966.568 1.466 1.398a6.3 6.3 0 0 1 .716 1.602h.239l.568-3.33h1.977l-3.977 24zm-3.99-8.034q1.705 0 3.046-.92 1.353-.932 2.25-2.557.899-1.637 1.25-3.75.341-2.091-.022-3.693-.352-1.614-1.387-2.523-1.035-.92-2.75-.92-1.75 0-3.113.954-1.353.943-2.239 2.557t-1.216 3.625q-.34 2.034.011 3.671.364 1.635 1.398 2.602 1.045.954 2.773.954"/><path fill="#fff" d="m134.125 169.545 4.023-24h1.966l-.546 3.33h.239a10.5 10.5 0 0 1 1.238-1.614q.774-.83 1.921-1.386 1.16-.568 2.773-.568 2.159 0 3.579 1.125 1.432 1.125 2 3.159.58 2.034.125 4.727-.443 2.705-1.693 4.739t-3.057 3.17a7.2 7.2 0 0 1-3.932 1.137q-1.58 0-2.556-.569-.966-.567-1.478-1.397a6.7 6.7 0 0 1-.738-1.637h-.182l-1.637 9.784zm4.568-15.261q-.34 2.113 0 3.75.341 1.625 1.375 2.557 1.035.92 2.727.92 1.74 0 3.103-.954 1.363-.967 2.272-2.602.91-1.637 1.25-3.671.319-2.011-.022-3.625t-1.364-2.557q-1.023-.954-2.784-.954-1.704 0-3.068.92-1.353.909-2.25 2.523-.898 1.602-1.239 3.693"/><path fill="#f3ff50" d="M54.636 67 58.5 43.727H72l-.318 1.91H60.307l-1.455 8.76h10.66l-.319 1.91H58.534L57.08 65.09h11.602L68.364 67zM86.817 47.017a1 1 0 0 0 .366 1.966zM248 18l-10.888-3.844 2.115 11.352zM87 48l.183.983 152.152-28.351-.183-.983-.183-.983-152.152 28.35zM88.093 66.004a1 1 0 0 0-.186 1.992zM249 82l-9.421-6.676-1.071 11.497zM88 67l-.093.996L239.946 82.16l.093-.996.093-.996-152.04-14.165z"/><defs><linearGradient id="a" x1="205.5" x2="205.5" y1="111" y2="153" gradientUnits="userSpaceOnUse"><stop stop-color="#98f5ff"/><stop offset="1" stop-color="#5b9399"/></linearGradient><linearGradient id="b" x1="87.5" x2="87.5" y1="111" y2="153" gradientUnits="userSpaceOnUse"><stop stop-color="#ff587c"/><stop offset="1" stop-color="#99354b"/></linearGradient></defs></svg>