<svg xmlns="http://www.w3.org/2000/svg" width="300" height="200" fill="none" viewBox="0 0 300 200"><g clip-path="url(#a)"><path fill="#000" d="M0 0h300v200H0z"/><path fill="#fff" d="m270 105.5-10-5.773v11.547zm-240 0v1h231v-2H30z"/><path stroke="#fff" stroke-dasharray="5 5" d="m56.21 6.546 214 99M55.808 194.538l214-89"/><path stroke="url(#b)" stroke-width="7" d="M55.5 3s-27.788 57.885-28 97.5c-.216 40.366 28 99.5 28 99.5"/><path fill="#fff" d="m127.636 137 3.864-23.273h7.511q2.477 0 3.989.887 1.523.887 2.102 2.466.59 1.568.262 3.613-.341 2.023-1.455 3.58-1.102 1.557-2.909 2.443-1.807.875-4.261.875h-6.387l.33-1.943h6.329q1.83 0 3.137-.603 1.306-.602 2.091-1.715.783-1.114 1.034-2.637.25-1.534-.171-2.67-.409-1.137-1.522-1.762-1.102-.624-2.944-.625h-5.329L129.761 137zm12-10.5 3.989 10.5h-2.443l-3.921-10.5zM17.955 44.546l1.613-9.785h-.182a9.6 9.6 0 0 1-1.272 1.637q-.784.83-1.944 1.397-1.158.57-2.738.569-2.136 0-3.568-1.137-1.433-1.136-2-3.17-.558-2.034-.114-4.739.443-2.692 1.67-4.716 1.239-2.034 3.046-3.159a7.36 7.36 0 0 1 3.977-1.136q1.602 0 2.557.568.966.569 1.466 1.398.5.818.716 1.602h.239l.568-3.33h1.977l-3.977 24zm-3.99-8.035q1.705 0 3.046-.92 1.353-.932 2.25-2.557.898-1.635 1.25-3.75.341-2.091-.022-3.693-.352-1.614-1.387-2.523-1.035-.92-2.75-.92-1.75 0-3.113.954-1.353.944-2.239 2.557-.886 1.614-1.216 3.625-.34 2.035.011 3.67.365 1.637 1.398 2.603 1.045.954 2.773.954"/></g><defs><linearGradient id="b" x1="51.5" x2="51.5" y1="3" y2="200" gradientUnits="userSpaceOnUse"><stop stop-color="#f3ff50"/><stop offset="1" stop-color="#929930"/></linearGradient><clipPath id="a"><path fill="#fff" d="M0 0h300v200H0z"/></clipPath></defs></svg>