<svg xmlns="http://www.w3.org/2000/svg" width="300" height="200" fill="none" viewBox="0 0 300 200"><path fill="#000" d="M0 0h300v200H0z"/><path stroke="#fff" stroke-linecap="round" stroke-width="1.5" d="M167.697 70s.144 3.281 5.753 4.95c5.608 1.669 6.409-2.744 6.409-2.744"/><ellipse cx="112" cy="103.5" fill="#fff" rx="3" ry="2.5"/><circle cx="110" cy="103" r="74" stroke="#f8ff32" stroke-width="2"/><circle cx="212" cy="102" r="2" fill="#fff"/><path stroke="#f8ff32" stroke-width="2" d="M214 47c30.92 0 56 25.288 56 56.5S244.92 160 214 160s-56-25.288-56-56.5S183.08 47 214 47Z"/><path stroke="#fa6551" stroke-width="2" d="m140.307 91.522 69.048-58.334M146.782 30.377l50.572 63.524"/><path fill="#fff" d="M169.736 94.16q-1.312 0-2.176-.736-.848-.751-1.264-2.128-.416-1.392-.416-3.328 0-1.952.384-3.344t1.232-2.128q.864-.736 2.24-.736 1.328 0 2.192.736.864.72 1.28 2.112.432 1.392.432 3.36 0 1.936-.4 3.328-.384 1.376-1.248 2.128-.847.736-2.256.736m0-1.168q.832 0 1.36-.48.544-.48.816-1.504t.304-2.672h-4.912q.032 1.632.272 2.656.256 1.025.784 1.52.528.48 1.376.48m-2.432-5.744h4.896q-.048-1.455-.32-2.4-.272-.96-.8-1.424-.528-.48-1.344-.48t-1.344.48q-.512.465-.768 1.424-.256.945-.32 2.4"/></svg>