<svg xmlns="http://www.w3.org/2000/svg" width="300" height="200" fill="none" viewBox="0 0 300 200"><path fill="#000" d="M0 0h300v200H0z"/><path fill="#fff" d="M198.472 128.952v1.2q0 2.336-1.072 3.68-1.072 1.328-3.072 1.328-2.016 0-3.088-1.328-1.056-1.344-1.056-3.68v-1.2q0-2.32 1.056-3.648 1.072-1.344 3.088-1.344 2 0 3.072 1.344 1.072 1.328 1.072 3.648m-1.52-.8q0-2-.672-2.832-.656-.848-1.952-.848t-1.968.848q-.656.833-.656 2.832v2.8q0 2 .656 2.848.672.848 1.968.848t1.952-.848q.672-.848.672-2.848z"/><circle cx="207" cy="119" r="2" fill="#fff"/><path stroke="#fa6551" stroke-width="2" d="m40.762 31.352 113 133.001M40.11 31.006l181 20"/><circle cx="41" cy="31" r="2" fill="#fff"/><path fill="#8af3ff" d="M8.136 50.52v-.592a8 8 0 0 1 .88-3.712q.896-1.711 2.672-3.216l.368.384q-1.376 1.296-1.952 2.992a11.3 11.3 0 0 0-.56 3.552v.592q0 1.84.56 3.552.576 1.696 1.952 2.992l-.368.384q-1.776-1.505-2.672-3.216a8.06 8.06 0 0 1-.88-3.712m7.423 4.064V55h-3.04v-.416l.816-.096a1 1 0 0 0 .256-.048.7.7 0 0 0 .208-.176q.112-.144.32-.464l1.84-2.656-1.776-2.864a3.4 3.4 0 0 0-.304-.448q-.096-.144-.192-.176a.6.6 0 0 0-.24-.064l-.832-.08v-.432h3.76v.432l-.816.08q-.255.032-.256.128 0 .08.304.56l1.232 1.984 1.36-1.984q.32-.465.304-.56 0-.096-.24-.128l-.816-.08v-.432h3.04v.432l-.816.08a.8.8 0 0 0-.256.064.5.5 0 0 0-.208.176q-.096.128-.32.448l-1.728 2.496 1.872 3.024q.192.32.288.464a.9.9 0 0 0 .192.176q.096.031.256.048l.832.096V55h-3.76v-.416l.816-.096q.256-.032.256-.112t-.304-.576l-1.328-2.144-1.472 2.144q-.32.48-.32.576.015.08.256.112zm5.655-2.688 1.056-.656h.8v4.688q0 .272.032.32t.144.064l.448.048v.32h-2.336v-.32l.608-.048q.127-.015.144-.064.032-.048.032-.32v-4.176l-.736.464zm5.933 2.576q0 .72-.48 1.68-.464.96-1.296 1.936l-.352-.288q.657-.8.944-1.472.288-.656.32-1.168h-.016a.84.84 0 0 1-.624-.24.84.84 0 0 1-.24-.624q0-.384.24-.624t.624-.24.624.272q.256.256.256.768m4.599 1.328q-.352.976-.768 1.584-.416.624-.992.896-.576.288-1.44.288v-1.28q1.152 0 1.744-.368.591-.352.944-1.328l.208-.592h-.464l-2.352-6.72q-.16-.464-.24-.544-.081-.096-.336-.128l-.816-.096v-.432h3.648v.432l-.816.096q-.225.015-.256.112-.033.096.128.56l1.92 5.536 1.936-5.552q.144-.464.112-.544-.016-.08-.256-.112l-.832-.096v-.432h2.928v.432l-.816.096q-.24.032-.32.112t-.24.544zm4.437-3.904 1.056-.656h.8v4.688q0 .272.032.32t.144.064l.448.048v.32h-2.336v-.32l.608-.048q.128-.015.144-.064.032-.048.032-.32v-4.176l-.736.464zm7.229-1.968v.592q0 1.984-.896 3.712-.88 1.712-2.656 3.216l-.368-.384q1.376-1.296 1.936-2.992.56-1.712.56-3.552v-.592q0-1.856-.56-3.552t-1.936-2.992L39.86 43q1.776 1.505 2.656 3.216a7.9 7.9 0 0 1 .896 3.712M137.096 17.056h-.752v-.352q0-.72.208-1.152.224-.448.544-.768l.64-.672q.32-.352.528-.848.224-.512.224-1.344 0-1.232-.448-1.84t-1.28-.608q-1.056 0-1.472.8-.416.785-.256 2.256l-1.312-.256a3.16 3.16 0 0 1 .128-1.616q.288-.752 1.024-1.216.736-.48 1.904-.48 1.136 0 1.84.4t1.024 1.04q.32.624.32 1.344 0 .735-.24 1.232-.224.48-.576.832a6 6 0 0 1-.752.608 8 8 0 0 0-.72.576 2.2 2.2 0 0 0-.512.688q-.176.4-.112 1.008zm-.4 3.104a.89.89 0 0 1-.656-.256.92.92 0 0 1-.24-.656q0-.4.24-.64a.89.89 0 0 1 .656-.256q.4 0 .656.256.256.24.256.64a.89.89 0 0 1-.256.656.89.89 0 0 1-.656.256"/><circle cx="205.5" cy="118.5" r="68.5" stroke="#f8ff32" stroke-width="2"/><path fill="#fff" d="m45 20 6.976 5.132.956-8.607zm171 19-6.976-5.132-.956 8.607zM51.709 20.745l-.083.746L209.208 39l.083-.745.083-.746L51.792 20z"/></svg>