<svg xmlns="http://www.w3.org/2000/svg" width="300" height="200" fill="none" viewBox="0 0 300 200"><path fill="#000" d="M0 0h300v200H0z"/><path fill="#fff" d="m290 106-5-2.887v5.774zm-251 0v.5h246.5v-1H39z"/><path fill="#fff" d="m149 8-2.887 5h5.774zm0 173h.5V12.5h-1V181zM275.008 122.584V123h-2.976v-.416l.816-.096a1 1 0 0 0 .24-.048q.096-.032.192-.176.112-.144.304-.464l2.544-4.128-2.464-4.352a4 4 0 0 0-.272-.448q-.08-.144-.176-.176a.6.6 0 0 0-.24-.064l-.816-.08v-.432h3.888v.432l-.832.08q-.24.032-.256.128 0 .096.256.56l1.872 3.312 2.048-3.312q.288-.464.288-.56t-.256-.128l-.816-.08v-.432h2.976v.432l-.816.08a.8.8 0 0 0-.256.064q-.08.032-.176.176a10 10 0 0 0-.304.448l-2.384 3.856 2.624 4.624.256.464a.7.7 0 0 0 .176.176q.096.032.256.048l.832.096V123h-3.888v-.416l.832-.096q.256-.032.256-.112.016-.096-.256-.576l-2.048-3.6-2.208 3.6q-.288.464-.288.56t.256.128z"/><path fill="#8af3ff" d="M165.94 73.14q-1.56 0-1.84-1.44-.7.8-1.54 1.16-.84.34-1.66.34-1.4 0-2.06-.78t-.66-1.88q0-1.18.8-1.86.82-.7 2.82-.7h2.26v-1.62q0-1.6-.56-2.2-.54-.62-1.48-.62-.6 0-1.08.24t-.7.88q-.2.62-.04 1.82l-1.58-.24q-.1-.94.24-1.68.36-.76 1.16-1.2.82-.46 2.04-.46 1.46 0 2.24.5.78.48 1.08 1.26.32.78.32 1.7v4.5q0 1.02.22 1.28.24.26.52.26.18 0 .38-.08.2-.1.44-.3l.36.5q-.3.26-.72.44-.4.18-.96.18m-4.48-.78q.56 0 1.2-.3.66-.32 1.4-1.26v-2.18h-2.04q-1.12 0-1.64.46-.5.44-.5 1.38 0 .9.38 1.4.4.5 1.2.5"/><path stroke="#fff" stroke-linecap="round" stroke-width="1.5" d="M162.581 104.962s2.855-1.624 1.783-7.377c-1.072-5.752-5.364-4.453-5.364-4.453"/><path fill="#fff" d="M174.736 103.16q-1.312 0-2.176-.736-.848-.752-1.264-2.128-.416-1.392-.416-3.328 0-1.952.384-3.344t1.232-2.128q.864-.735 2.24-.736 1.328 0 2.192.736.864.72 1.28 2.112.432 1.392.432 3.36 0 1.936-.4 3.328-.384 1.376-1.248 2.128-.847.736-2.256.736m0-1.168q.832 0 1.36-.48.544-.48.816-1.504t.304-2.672h-4.912q.032 1.632.272 2.656.256 1.024.784 1.52.528.48 1.376.48m-2.432-5.744h4.896q-.048-1.455-.32-2.4-.272-.96-.8-1.424-.528-.48-1.344-.48t-1.344.48q-.512.464-.768 1.424-.256.945-.32 2.4M141.472 114.952v1.2q0 2.336-1.072 3.68-1.073 1.328-3.072 1.328-2.016 0-3.088-1.328-1.056-1.344-1.056-3.68v-1.2q0-2.32 1.056-3.648 1.072-1.344 3.088-1.344 2 0 3.072 1.344 1.072 1.328 1.072 3.648m-1.52-.8q0-2-.672-2.832-.656-.848-1.952-.848t-1.968.848q-.656.833-.656 2.832v2.8q0 2 .656 2.848.672.848 1.968.848t1.952-.848q.672-.848.672-2.848zM125.64 20.584V21h-3.856v-.416l.88-.096q.256-.032.304-.128t.048-.656V16.36l-2.576-5.04a3 3 0 0 0-.256-.448q-.08-.144-.176-.176a.6.6 0 0 0-.256-.064l-.816-.08v-.432h3.872v.432l-.816.08q-.24.032-.256.128 0 .096.224.56l2.176 4.368 2.224-4.368q.24-.464.224-.56t-.256-.128l-.816-.08v-.432h2.96v.432l-.832.08a.7.7 0 0 0-.256.064q-.08.032-.176.176a6 6 0 0 0-.24.448l-2.56 5.008v3.376q0 .56.048.656t.304.128z"/><circle cx="148.5" cy="104.5" r="68.5" stroke="#f8ff32" stroke-width="2"/><path fill="#8af3ff" d="M149.592 104.711a.5.5 0 0 0 .816.578L150 105zM189 50l-5.247 2.409 4.71 3.34zm-39 55 .408.289 36.397-51.329-.408-.29-.408-.288-36.397 51.329z"/><circle cx="150" cy="105" r="2" fill="#fff"/></svg>