<svg xmlns="http://www.w3.org/2000/svg" width="300" height="200" fill="none" viewBox="0 0 300 200"><g clip-path="url(#a)"><path fill="#000" d="M0 0h300v200H0z"/><path fill="#fff" d="M210.472 175.952v1.2q0 2.336-1.072 3.68-1.072 1.328-3.072 1.328-2.016 0-3.088-1.328-1.056-1.344-1.056-3.68v-1.2q0-2.32 1.056-3.648 1.072-1.344 3.088-1.344 2 0 3.072 1.344 1.072 1.328 1.072 3.648m-1.52-.8q0-2-.672-2.832-.656-.848-1.952-.848t-1.968.848q-.656.833-.656 2.832v2.8q0 2 .656 2.848.672.848 1.968.848t1.952-.848q.672-.848.672-2.848z"/><path fill="#8af3ff" d="M133.144 149.584h-1.128v-.528q0-1.08.312-1.728.336-.672.816-1.152l.96-1.008a4.4 4.4 0 0 0 .792-1.272q.336-.768.336-2.016 0-1.848-.672-2.76t-1.92-.912q-1.584 0-2.208 1.2-.624 1.176-.384 3.384l-1.968-.384q-.216-1.296.192-2.424.432-1.128 1.536-1.824 1.104-.72 2.856-.72 1.704 0 2.76.6t1.536 1.56q.48.936.48 2.016 0 1.104-.36 1.848-.336.72-.864 1.248-.528.504-1.128.912-.576.408-1.08.864-.48.432-.768 1.032-.264.6-.168 1.512zm-.6 4.656q-.6 0-.984-.384-.36-.384-.36-.984t.36-.96q.384-.384.984-.384t.984.384q.384.36.384.96t-.384.984-.984.384"/><circle cx="134.5" cy="107.5" r="87.5" stroke="#f8ff32" stroke-width="2"/><path fill="#fff" d="m287 166-5-2.887v5.774zm-230 0v.5h225.5v-1H57z"/><path fill="#fff" d="m219 10-2.887 5h5.774zm0 232h.5V14.5h-1V242zM280.008 185.584V186h-2.976v-.416l.816-.096a1 1 0 0 0 .24-.048q.096-.032.192-.176.112-.144.304-.464l2.544-4.128-2.464-4.352a4 4 0 0 0-.272-.448q-.08-.144-.176-.176a.6.6 0 0 0-.24-.064l-.816-.08v-.432h3.888v.432l-.832.08q-.24.032-.256.128 0 .096.256.56l1.872 3.312 2.048-3.312q.288-.464.288-.56t-.256-.128l-.816-.08v-.432h2.976v.432l-.816.08a.8.8 0 0 0-.256.064q-.08.032-.176.176a10 10 0 0 0-.304.448l-2.384 3.856 2.624 4.624.256.464a.7.7 0 0 0 .176.176q.096.031.256.048l.832.096V186h-3.888v-.416l.832-.096q.256-.032.256-.112.016-.096-.256-.576l-2.048-3.6-2.208 3.6q-.288.464-.288.56t.256.128zM232.64 27.584V28h-3.856v-.416l.88-.096q.256-.032.304-.128t.048-.656V23.36l-2.576-5.04a3 3 0 0 0-.256-.448q-.08-.144-.176-.176a.6.6 0 0 0-.256-.064l-.816-.08v-.432h3.872v.432l-.816.08q-.24.032-.256.128 0 .095.224.56l2.176 4.368 2.224-4.368q.24-.465.224-.56t-.256-.128l-.816-.08v-.432h2.96v.432l-.832.08a.7.7 0 0 0-.256.064q-.08.032-.176.176a6 6 0 0 0-.24.448l-2.56 5.008v3.376q0 .56.048.656t.304.128z"/><path fill="#8af3ff" d="m73 159 7.5 4.33v-8.66zm124 0-7.5-4.33v8.66zm-117.25 0v.75h110.5v-1.5H79.75z"/></g><defs><clipPath id="a"><path fill="#fff" d="M0 0h300v200H0z"/></clipPath></defs></svg>