<svg xmlns="http://www.w3.org/2000/svg" width="300" height="200" fill="none" viewBox="0 0 300 200"><path fill="#000" d="M0 0h300v200H0z"/><path fill="#fff" d="m224 123-5-2.887v5.774zM3 123v.5h216.5v-1H3z"/><path fill="#fff" d="m113 49-2.887 5h5.774zm0 149h.5V53.5h-1V198zM234.008 137.584V138h-2.976v-.416l.816-.096a1 1 0 0 0 .24-.048q.096-.032.192-.176.112-.144.304-.464l2.544-4.128-2.464-4.352a4 4 0 0 0-.272-.448q-.08-.144-.176-.176a.6.6 0 0 0-.24-.064l-.816-.08v-.432h3.888v.432l-.832.08q-.24.032-.256.128 0 .096.256.56l1.872 3.312 2.048-3.312q.288-.464.288-.56t-.256-.128l-.816-.08v-.432h2.976v.432l-.816.08a.8.8 0 0 0-.256.064q-.08.032-.176.176a10 10 0 0 0-.304.448l-2.384 3.856 2.624 4.624.256.464a.7.7 0 0 0 .176.176q.096.031.256.048l.832.096V138h-3.888v-.416l.832-.096q.256-.032.256-.112.016-.096-.256-.576l-2.048-3.6-2.208 3.6q-.288.464-.288.56t.256.128z"/><path fill="#8af3ff" d="M196.136 75.52v-.592q0-2 .88-3.712.896-1.712 2.672-3.216l.368.384q-1.376 1.296-1.952 2.992a11.3 11.3 0 0 0-.56 3.552v.592q0 1.84.56 3.552.576 1.695 1.952 2.992l-.368.384q-1.776-1.504-2.672-3.216a8.06 8.06 0 0 1-.88-3.712m13.631 4.064V80h-3.776v-.416l.88-.096q.256-.032.304-.128t.048-.656V74.72q0-1.185-.384-1.664-.384-.495-1.088-.496-.544 0-1.184.32t-1.2 1.264v4.56q0 .56.048.656t.304.128l.88.096V80h-3.776v-.416l.88-.096q.256-.032.304-.128t.048-.656v-9.248q0-.56-.048-.656t-.304-.128l-.88-.08v-.432h2.544v5.136q.56-.72 1.28-1.04.72-.336 1.424-.336 1.183 0 1.824.736.64.72.64 2.048v4q0 .56.048.656t.304.128zm3.318-.112q0 .72-.48 1.68-.465.96-1.296 1.936l-.352-.288q.656-.8.944-1.472.287-.656.32-1.168h-.016a.84.84 0 0 1-.624-.24.84.84 0 0 1-.24-.624q0-.384.24-.624t.624-.24.624.272q.255.256.256.768m1.629-10.88v-.432h2.544v8.192l3.024-3.072q.463-.464.496-.56.031-.096-.24-.128l-.816-.08v-.432h3.088v.432l-.816.08a.83.83 0 0 0-.496.24q-.144.128-.464.448l-1.76 1.776 2.352 3.744q.208.32.304.464a.7.7 0 0 0 .208.176q.096.031.256.048l.832.096V80h-2.416l-2.432-4.032-1.12 1.136v1.6q0 .56.048.656t.304.128l.88.096V80h-3.776v-.416l.88-.096q.255-.032.304-.128t.048-.656v-9.248q0-.56-.048-.656-.049-.096-.304-.128zm12.776 6.336v.592a7.95 7.95 0 0 1-.896 3.712q-.88 1.712-2.656 3.216l-.368-.384q1.376-1.296 1.936-2.992.56-1.712.56-3.552v-.592q0-1.856-.56-3.552t-1.936-2.992l.368-.384q1.776 1.505 2.656 3.216a7.9 7.9 0 0 1 .896 3.712M238.152 51.112q-1.248 0-1.472-1.152-.56.64-1.232.928a3.5 3.5 0 0 1-1.328.272q-1.12 0-1.648-.624t-.528-1.504q0-.944.64-1.488.656-.56 2.256-.56h1.808v-1.296q0-1.28-.448-1.76-.432-.495-1.184-.496-.48 0-.864.192t-.56.704q-.16.495-.032 1.456l-1.264-.192q-.08-.752.192-1.344a2.12 2.12 0 0 1 .928-.96q.656-.368 1.632-.368 1.168 0 1.792.4.624.384.864 1.008.256.624.256 1.36v3.6q0 .816.176 1.024.192.208.416.208a.8.8 0 0 0 .304-.064q.16-.08.352-.24l.288.4q-.24.208-.576.352a1.9 1.9 0 0 1-.768.144m-3.584-.624q.449 0 .96-.24.528-.256 1.12-1.008v-1.744h-1.632q-.896 0-1.312.368-.4.353-.4 1.104 0 .72.304 1.12.32.4.96.4"/><path fill="#fff" d="M105.472 131.952v1.2q0 2.336-1.072 3.68-1.073 1.328-3.072 1.328-2.016 0-3.088-1.328-1.056-1.344-1.056-3.68v-1.2q0-2.32 1.056-3.648 1.072-1.344 3.088-1.344 2 0 3.072 1.344 1.072 1.328 1.072 3.648m-1.52-.8q0-2-.672-2.832-.656-.848-1.952-.848t-1.968.848q-.656.833-.656 2.832v2.8q0 2 .656 2.848.672.848 1.968.848t1.952-.848q.672-.848.672-2.848zM101.64 46.584V47h-3.856v-.416l.88-.096q.255-.032.304-.128t.048-.656V42.36l-2.576-5.04a3 3 0 0 0-.256-.448q-.08-.144-.176-.176a.6.6 0 0 0-.256-.064l-.816-.08v-.432h3.872v.432l-.816.08q-.24.032-.256.128 0 .096.224.56l2.176 4.368 2.224-4.368q.24-.465.224-.56t-.256-.128l-.816-.08v-.432h2.96v.432l-.832.08a.7.7 0 0 0-.256.064q-.08.032-.176.176a6 6 0 0 0-.24.448l-2.56 5.008v3.376q0 .56.048.656t.304.128z"/><circle cx="211.5" cy="61.5" r="50.5" stroke="#f8ff32" stroke-width="2"/><path fill="#8af3ff" d="M211.592 61.711a.5.5 0 1 0 .816.578L212 62zM241 21l-5.244 2.415 4.713 3.334zm-29 41 .408.289 26.402-37.326-.409-.29-.408-.288-26.401 37.326z"/><circle cx="212" cy="62" r="2" fill="#fff"/></svg>