<svg xmlns="http://www.w3.org/2000/svg" width="300" height="200" fill="none" viewBox="0 0 300 200"><path fill="#000" d="M0 0h300v200H0z"/><path stroke="#fff" d="M82 59.784h35.1M192.7 59.784H217"/><path fill="#000" stroke="#fff" d="M129.25 41.5c7.817 0 14.35 8.161 14.35 18.5s-6.533 18.5-14.35 18.5c-7.818 0-14.35-8.161-14.35-18.5s6.532-18.5 14.35-18.5Z"/><path fill="#000" fill-opacity=".62" stroke="#fff" d="M146.35 41.5c7.817 0 14.35 8.161 14.35 18.5s-6.533 18.5-14.35 18.5C138.532 78.5 132 70.339 132 60s6.532-18.5 14.35-18.5Z"/><path fill="#000" fill-opacity=".7" stroke="#fff" d="M161.65 41.5c7.817 0 14.35 8.161 14.35 18.5s-6.533 18.5-14.35 18.5c-7.818 0-14.35-8.161-14.35-18.5s6.532-18.5 14.35-18.5Z"/><path fill="#000" fill-opacity=".7" stroke="#fff" d="M177.85 41.5c7.817 0 14.35 8.161 14.35 18.5s-6.533 18.5-14.35 18.5c-7.818 0-14.35-8.161-14.35-18.5s6.532-18.5 14.35-18.5Z"/><circle cx="45.5" cy="59.5" r="45.5" fill="url(#a)"/><path fill="#000" d="m36.227 68 2.898-17.455h1.594l-1.33 8.003h9.904l1.33-8.003h1.593L49.318 68h-1.594l1.33-8.02h-9.903L37.82 68z"/><circle cx="253.5" cy="59.5" r="45.5" fill="url(#b)"/><path fill="#000" d="m244.227 68 2.898-17.455h1.594l-1.33 8.003h9.904l1.329-8.003h1.594L257.318 68h-1.594l1.33-8.02h-9.903l-1.33 8.02z"/><path stroke="#fff" d="M110 154.784h21.06M176.42 154.784H191"/><path fill="#000" stroke="#fff" d="M138.35 136.5c2.152 0 4.254 1.879 5.848 5.277 1.575 3.358 2.562 8.033 2.562 13.223s-.987 9.865-2.562 13.223c-1.594 3.398-3.696 5.277-5.848 5.277s-4.254-1.879-5.847-5.277c-1.575-3.358-2.563-8.033-2.563-13.223s.988-9.865 2.563-13.223c1.593-3.398 3.695-5.277 5.847-5.277Z"/><path fill="#000" fill-opacity=".62" stroke="#fff" d="M148.61 136.5c2.152 0 4.254 1.879 5.848 5.277 1.575 3.358 2.562 8.033 2.562 13.223s-.987 9.865-2.562 13.223c-1.594 3.398-3.696 5.277-5.848 5.277s-4.254-1.879-5.847-5.277c-1.575-3.358-2.563-8.033-2.563-13.223s.988-9.865 2.563-13.223c1.593-3.398 3.695-5.277 5.847-5.277Z"/><path fill="#000" fill-opacity=".7" stroke="#fff" d="M157.79 136.5c2.152 0 4.254 1.879 5.848 5.277 1.575 3.358 2.562 8.033 2.562 13.223s-.987 9.865-2.562 13.223c-1.594 3.398-3.696 5.277-5.848 5.277s-4.254-1.879-5.847-5.277c-1.575-3.358-2.563-8.033-2.563-13.223s.988-9.865 2.563-13.223c1.593-3.398 3.695-5.277 5.847-5.277Z"/><path fill="#000" fill-opacity=".7" stroke="#fff" d="M167.51 136.5c2.152 0 4.254 1.879 5.848 5.277 1.575 3.358 2.562 8.033 2.562 13.223s-.987 9.865-2.562 13.223c-1.594 3.398-3.696 5.277-5.848 5.277s-4.254-1.879-5.848-5.277c-1.574-3.358-2.562-8.033-2.562-13.223s.988-9.865 2.562-13.223c1.594-3.398 3.696-5.277 5.848-5.277Z"/><circle cx="68.5" cy="154.5" r="45.5" fill="url(#c)"/><path fill="#000" d="m59.227 163 2.898-17.455h1.594l-1.33 8.003h9.904l1.33-8.003h1.593L72.318 163h-1.594l1.33-8.02h-9.903L60.82 163z"/><circle cx="236.5" cy="154.5" r="45.5" fill="url(#d)"/><path fill="#000" d="m227.227 163 2.898-17.455h1.594l-1.33 8.003h9.904l1.329-8.003h1.594L240.318 163h-1.594l1.33-8.02h-9.903l-1.33 8.02z"/><path fill="#6dfaff" d="M215 7a1 1 0 0 0 0 2zm77 1-10-5.773v11.547zm-77 0v1h68V7h-68z"/><defs><linearGradient id="a" x1="45.5" x2="45.5" y1="14" y2="105" gradientUnits="userSpaceOnUse"><stop stop-color="#ff8ef4"/><stop offset="1" stop-color="#fe52ed"/></linearGradient><linearGradient id="b" x1="253.5" x2="253.5" y1="14" y2="105" gradientUnits="userSpaceOnUse"><stop stop-color="#ff8ef4"/><stop offset="1" stop-color="#fe52ed"/></linearGradient><linearGradient id="c" x1="68.5" x2="68.5" y1="109" y2="200" gradientUnits="userSpaceOnUse"><stop stop-color="#ff8ef4"/><stop offset="1" stop-color="#fe52ed"/></linearGradient><linearGradient id="d" x1="236.5" x2="236.5" y1="109" y2="200" gradientUnits="userSpaceOnUse"><stop stop-color="#ff8ef4"/><stop offset="1" stop-color="#fe52ed"/></linearGradient></defs></svg>