<svg xmlns="http://www.w3.org/2000/svg" width="300" height="200" fill="none" viewBox="0 0 300 200"><path fill="#000" d="M0 0h300v200H0z"/><path fill="#ff5858" d="m272 100-10-5.773v11.547zm-81 0v1h72v-2h-72z"/><path fill="#6dfaff" d="m67 177 11.154-2.989-8.165-8.165zm51-51-.707-.707-44.636 44.636.707.707.707.707 44.636-44.636z"/><path fill="#8cff74" d="m150 7-5.774 10h11.548zm0 66h1V16h-2v57z"/><circle cx="150.5" cy="100.5" r="47.5" fill="url(#a)"/><path fill="#000" d="m136.227 109 2.898-17.454h1.594l-1.33 8.002h9.904l1.329-8.002h1.594L149.318 109h-1.594l1.33-8.02h-9.903l-1.33 8.02zm22.662.273q-1.832 0-3.025-.853-1.194-.86-1.671-2.377-.477-1.526-.145-3.512.333-1.977 1.313-3.511.98-1.542 2.42-2.412a5.9 5.9 0 0 1 3.128-.878q1.065 0 1.994.392.93.383 1.577 1.185.657.792.912 2.003.255 1.202-.017 2.846l-.119.75h-10.228l.213-1.338h8.685q.213-1.261-.119-2.267-.333-1.006-1.134-1.594-.792-.596-1.968-.596-1.202 0-2.276.673a6.2 6.2 0 0 0-1.807 1.756 5.8 5.8 0 0 0-.946 2.292l-.17 1.006q-.273 1.662.068 2.787.34 1.116 1.236 1.687.894.572 2.292.572.938 0 1.696-.29a4.4 4.4 0 0 0 1.321-.776q.562-.494.904-1.082l1.355.469a5.4 5.4 0 0 1-1.227 1.525 6.2 6.2 0 0 1-1.867 1.125q-1.074.418-2.395.418"/><defs><linearGradient id="a" x1="150.5" x2="150.5" y1="53" y2="148" gradientUnits="userSpaceOnUse"><stop stop-color="#ff8ef4"/><stop offset="1" stop-color="#fe52ed"/></linearGradient></defs></svg>