<svg xmlns="http://www.w3.org/2000/svg" width="300" height="200" fill="none" viewBox="0 0 300 200"><g clip-path="url(#a)"><path fill="#000" d="M0 0h300v200H0z"/><path fill="url(#b)" d="M177 0h29v123h-29z" transform="rotate(90 177 0)"/><path fill="url(#c)" d="M177 172h28v123h-28z" transform="rotate(90 177 172)"/><circle cx="116" cy="100" r="40" fill="url(#d)"/><path fill="#fff" d="M84.574 11.335q.04-1.023-.608-1.602-.642-.58-1.801-.58-.806 0-1.478.284a3 3 0 0 0-1.096.768q-.426.488-.528 1.113-.075.46.068.807.141.34.437.59.295.252.676.427.387.176.784.296l1.176.352a7.6 7.6 0 0 1 1.04.392q.518.239.92.596.405.359.597.881.2.523.08 1.25a3.6 3.6 0 0 1-.761 1.688q-.596.738-1.569 1.17-.97.432-2.244.432-1.187 0-2-.392-.812-.397-1.199-1.097-.386-.699-.295-1.62h1.09q-.062.69.256 1.166.324.477.92.727.603.244 1.387.244.87 0 1.597-.29.727-.296 1.199-.818a2.36 2.36 0 0 0 .59-1.227q.103-.59-.141-.994-.24-.405-.745-.676a6 6 0 0 0-1.193-.489l-1.33-.41q-1.3-.396-1.937-1.119-.63-.72-.449-1.84.16-.944.779-1.654a4.25 4.25 0 0 1 1.55-1.113 5 5 0 0 1 2-.398q1.086 0 1.847.403.767.404 1.136 1.114.375.705.279 1.62zm5.528 8.847q-1.148 0-1.931-.58-.785-.585-1.109-1.619t-.108-2.386q.217-1.32.859-2.319.647-1.005 1.59-1.562a3.93 3.93 0 0 1 2.051-.563q1.154 0 1.932.586.784.585 1.108 1.619.33 1.035.114 2.392-.216 1.313-.864 2.313a4.9 4.9 0 0 1-1.59 1.556 3.9 3.9 0 0 1-2.052.563m.012-.926q.93 0 1.659-.495a4 4 0 0 0 1.21-1.33 5.5 5.5 0 0 0 .642-1.834q.153-.955-.034-1.756-.188-.801-.722-1.284-.535-.483-1.42-.483-.926 0-1.66.505a3.95 3.95 0 0 0-1.21 1.342 5.4 5.4 0 0 0-.636 1.829q-.159.96.023 1.756.187.795.722 1.272.54.478 1.426.478m12.106-2.591.904-5.392h1.011L102.68 20h-1.011l.239-1.449h-.074q-.41.67-1.159 1.12-.745.443-1.705.443-.835 0-1.426-.364-.585-.369-.835-1.08-.25-.71-.08-1.744l.95-5.653h1.01l-.931 5.59q-.165 1.024.33 1.648.499.62 1.442.62.591 0 1.182-.284.597-.285 1.034-.83.444-.55.574-1.352M105.358 20l1.454-8.727h.983l-.227 1.34h.074q.363-.658 1.085-1.062a3.1 3.1 0 0 1 1.551-.409q.126 0 .279.006.153 0 .255.011l-.176 1.028-.238-.034a3 3 0 0 0-.37-.022 2.78 2.78 0 0 0-2.227 1.08 2.6 2.6 0 0 0-.5 1.153L106.369 20zm8.839.182q-1.181 0-1.948-.585-.768-.585-1.074-1.603-.301-1.022-.086-2.318.216-1.318.87-2.335a4.9 4.9 0 0 1 1.613-1.602 4 4 0 0 1 2.108-.586q.882 0 1.534.341.654.336 1.012.95.357.607.341 1.42h-1.023a1.89 1.89 0 0 0-.551-1.273q-.505-.517-1.432-.517-.846 0-1.568.454-.721.45-1.222 1.256-.494.8-.664 1.858-.183 1.062.034 1.88.216.813.772 1.274.563.46 1.421.46.585 0 1.102-.216.518-.222.915-.625.398-.41.608-.96h1.023q-.257.795-.807 1.409-.546.613-1.307.965a3.9 3.9 0 0 1-1.671.353m9.026 0q-1.221 0-2.017-.568-.795-.574-1.114-1.586-.318-1.017-.096-2.34.22-1.32.875-2.341a4.9 4.9 0 0 1 1.613-1.608 3.94 3.94 0 0 1 2.086-.586q.71 0 1.329.262.62.255 1.051.79.438.528.608 1.335.17.8-.011 1.898l-.08.5h-6.818l.142-.893h5.79q.142-.84-.08-1.51a2.1 2.1 0 0 0-.755-1.063q-.529-.399-1.313-.398-.801 0-1.517.449-.71.45-1.204 1.17a3.9 3.9 0 0 0-.631 1.529l-.114.67q-.182 1.108.046 1.858.227.744.824 1.125.596.38 1.528.38.626 0 1.131-.192.505-.195.88-.517.375-.33.603-.722l.903.312a3.6 3.6 0 0 1-.818 1.017 4.1 4.1 0 0 1-1.244.75 4.4 4.4 0 0 1-1.597.279m11.683-6a15.8 15.8 0 0 1 1.154-3.864 16.8 16.8 0 0 1 2.051-3.409h.92a13 13 0 0 0-1.011 1.517 18 18 0 0 0-.892 1.807q-.404.96-.71 1.966a15.027 15.027 0 0 0-.665 4.63q.017 1.335.238 2.535.228 1.199.631 2.09h-.92a12.1 12.1 0 0 1-.921-3.414q-.216-1.818.125-3.858m5.433-4.864.16-.954h8.437l-.159.954h-3.688L143.317 20h-1.063l1.773-10.682zM149.982 22l1-6.023h-.057l-1.938 1.154.165-.944 1.943-1.164h.955L150.891 22zm7.149-6.91a15.7 15.7 0 0 1-1.159 3.864 16.6 16.6 0 0 1-2.046 3.41h-.92q.528-.67 1.011-1.517t.886-1.807q.41-.96.711-1.966.306-1.006.471-1.983.216-1.313.199-2.648a14.6 14.6 0 0 0-.244-2.534q-.222-1.2-.625-2.09h.92q.699 1.596.915 3.414.222 1.818-.119 3.858M136.597 46.364h1.181l1.495 1.971.25.33 1.824 2.426h-1.182l-1.341-1.79-.233-.318zm5.715-2.12q-.3 1.802-1.159 3.131-.858 1.33-2.096 2.057a5.23 5.23 0 0 1-2.693.727q-1.495 0-2.523-.744-1.023-.75-1.449-2.102-.426-1.358-.125-3.194.301-1.8 1.159-3.13t2.102-2.057a5.27 5.27 0 0 1 2.705-.727q1.477 0 2.5.744t1.455 2.102q.431 1.353.124 3.193m-1.017-.125q.262-1.557-.068-2.653-.324-1.097-1.113-1.676-.79-.585-1.915-.585-1.165 0-2.188.602-1.022.596-1.744 1.727-.722 1.126-.989 2.71-.255 1.551.069 2.654.324 1.096 1.113 1.681.797.58 1.926.58 1.171 0 2.194-.602t1.738-1.727q.722-1.131.977-2.71M144.653 52l1-6.023h-.056l-1.938 1.154.165-.944 1.943-1.164h.955L145.562 52zM140.597 152.364h1.181l1.495 1.971.25.33 1.824 2.426h-1.182l-1.341-1.79-.233-.318zm5.715-2.12q-.3 1.802-1.159 3.131-.858 1.33-2.096 2.057a5.2 5.2 0 0 1-2.693.727q-1.495 0-2.523-.744-1.023-.75-1.449-2.103-.426-1.357-.125-3.193.301-1.8 1.159-3.13t2.102-2.057a5.27 5.27 0 0 1 2.705-.727q1.477 0 2.5.744t1.455 2.102q.431 1.353.124 3.193m-1.017-.125q.262-1.557-.068-2.653-.324-1.097-1.113-1.676-.79-.585-1.915-.585-1.165 0-2.188.602-1.022.597-1.744 1.727-.722 1.125-.989 2.71-.255 1.551.069 2.654.324 1.096 1.113 1.682.797.579 1.926.579 1.171 0 2.194-.602t1.738-1.727q.722-1.131.977-2.711M147.04 158l.102-.682 3.023-2.449a14 14 0 0 0 .88-.755q.348-.324.529-.603.182-.284.227-.596.091-.546-.273-.887-.358-.34-1-.34-.653 0-1.147.369-.489.369-.58.943h-.92q.147-.892.903-1.477.762-.591 1.83-.591.71 0 1.198.267.495.267.716.727.222.454.131 1.023a2.3 2.3 0 0 1-.29.795 3.9 3.9 0 0 1-.659.801q-.442.427-1.182 1.017l-2.005 1.62v.04h3.71l-.125.778z"/><path fill="#ede97b" d="m202.841 79-1.256-11.636h1.08l.971 10.005h.091l4.301-10.005h1.228l.977 10.005h.091l4.295-10.005h1.091L210.591 79h-1.142l-1.057-9.87h-.074L203.977 79z"/><path fill="#000273" d="M92.574 182.335q.04-1.023-.608-1.602-.642-.58-1.801-.58-.806 0-1.478.285a2.96 2.96 0 0 0-1.096.767q-.426.488-.528 1.113-.075.46.068.807.141.34.437.591.295.25.676.426.387.176.784.296l1.176.352q.524.153 1.04.392.518.239.92.596.405.359.597.881.2.523.08 1.25a3.6 3.6 0 0 1-.761 1.688q-.596.738-1.569 1.17-.97.432-2.244.432-1.187 0-2-.392-.813-.398-1.199-1.097t-.295-1.619h1.09q-.062.687.256 1.165.324.477.92.727.603.244 1.387.244a4.3 4.3 0 0 0 1.597-.289q.727-.296 1.199-.819.477-.528.59-1.227.103-.59-.141-.994-.24-.404-.745-.676a6 6 0 0 0-1.193-.489l-1.33-.409q-1.3-.397-1.937-1.119-.63-.722-.449-1.841.16-.943.779-1.654a4.25 4.25 0 0 1 1.55-1.113 5 5 0 0 1 2-.398q1.086 0 1.847.403.767.403 1.136 1.114.375.704.279 1.619zM94.682 191l1.454-8.727h1.017L95.7 191zm2.33-10.244a.74.74 0 0 1-.54-.216.7.7 0 0 1-.21-.523.7.7 0 0 1 .232-.5.75.75 0 0 1 .534-.216q.318 0 .54.222a.67.67 0 0 1 .21.522.68.68 0 0 1-.233.5.76.76 0 0 1-.534.211m3.276 4.789L99.385 191h-1.011l1.454-8.727h.983l-.227 1.369h.091a3 3 0 0 1 1.13-1.074q.728-.41 1.688-.409.875 0 1.477.369a2 2 0 0 1 .864 1.074q.26.71.091 1.745l-.949 5.653h-1.012l.932-5.591q.177-1.068-.312-1.693-.483-.631-1.495-.631-.687 0-1.278.296-.585.296-.989.852a3.1 3.1 0 0 0-.534 1.312m8.817 2.16.205-1.336h.227l4.767-4.096h1.295l-4.71 4.045-.091.017zM107.639 191l1.932-11.636h1.011L108.651 191zm5.455 0-2.813-4.483.824-.699 3.267 5.182zm8.844-5.818a15.8 15.8 0 0 1 1.153-3.864 16.8 16.8 0 0 1 2.051-3.409h.92a13 13 0 0 0-1.011 1.517 18 18 0 0 0-.892 1.807q-.404.96-.71 1.966a16 16 0 0 0-.466 1.983 15 15 0 0 0-.199 2.648q.017 1.334.239 2.534.227 1.198.63 2.091h-.92a12.1 12.1 0 0 1-.921-3.415q-.215-1.818.126-3.858m5.433-4.864.159-.954h8.437l-.159.954h-3.687L130.348 191h-1.062l1.772-10.682zM135.399 193l.102-.682 3.023-2.449q.54-.432.881-.755.347-.324.528-.603a1.5 1.5 0 0 0 .228-.596q.09-.545-.273-.887-.358-.34-1-.34-.654 0-1.148.369-.489.369-.579.943h-.921q.149-.892.903-1.477.762-.591 1.83-.591.71 0 1.199.267.494.267.716.727.222.454.13 1.023-.068.42-.289.795a4 4 0 0 1-.659.801q-.444.428-1.182 1.017l-2.006 1.62v.04h3.71l-.125.778zm10.763-6.909a15.7 15.7 0 0 1-1.159 3.864 16.6 16.6 0 0 1-2.046 3.409h-.92q.528-.67 1.011-1.517t.887-1.807q.408-.96.71-1.966.307-1.006.471-1.983a15 15 0 0 0 .199-2.648 14.5 14.5 0 0 0-.244-2.534q-.222-1.199-.625-2.091h.92a12 12 0 0 1 .915 3.415q.222 1.818-.119 3.858"/><path fill="#000" d="m98.943 94 1.932-11.636h1.063l-.887 5.335h6.602l.887-5.335h1.062L107.67 94h-1.062l.886-5.347h-6.602L100.006 94zm15.108.182q-1.221 0-2.017-.568-.795-.574-1.114-1.586-.318-1.017-.096-2.34.221-1.32.875-2.341a4.9 4.9 0 0 1 1.613-1.608 3.94 3.94 0 0 1 2.086-.586q.71 0 1.329.262.62.255 1.051.79.438.528.608 1.335.17.8-.011 1.897l-.08.5h-6.818l.142-.891h5.79q.142-.842-.079-1.512a2.1 2.1 0 0 0-.756-1.062q-.528-.399-1.313-.398-.8 0-1.517.449-.71.45-1.204 1.17a3.9 3.9 0 0 0-.631 1.529l-.114.67q-.182 1.108.046 1.858.227.744.824 1.125.597.38 1.528.38.626 0 1.131-.192a3 3 0 0 0 .881-.517q.375-.33.602-.722l.903.312a3.6 3.6 0 0 1-.818 1.017q-.522.467-1.244.75a4.4 4.4 0 0 1-1.597.279m8.206.017q-.789 0-1.392-.307a2.02 2.02 0 0 1-.898-.898q-.29-.59-.159-1.431.114-.648.432-1.091.324-.444.818-.728.495-.29 1.137-.454t1.397-.25q.739-.09 1.262-.16.522-.068.812-.215a.63.63 0 0 0 .347-.478l.034-.204q.147-.892-.273-1.404-.42-.516-1.409-.516-.943 0-1.636.42-.688.414-1.023.971l-.898-.346a3.5 3.5 0 0 1 1.006-1.142 4 4 0 0 1 1.278-.62 5 5 0 0 1 1.347-.193q.5 0 1.017.131.517.13.926.455.415.319.608.892.2.569.057 1.443L126.058 94h-1.011l.233-1.38h-.063a3.3 3.3 0 0 1-.659.75 3.4 3.4 0 0 1-.994.596 3.5 3.5 0 0 1-1.307.233m.256-.926q.806 0 1.46-.358a3.16 3.16 0 0 0 1.625-2.262l.21-1.261q-.124.108-.409.193a6 6 0 0 1-.631.154q-.347.061-.698.108l-.614.08a6.5 6.5 0 0 0-1.318.283q-.557.194-.892.534a1.53 1.53 0 0 0-.421.864q-.13.795.347 1.233.483.432 1.341.432m11.128-8-.142.88h-4.171l.148-.88zm-2.523-2.091h1.017l-1.421 8.54q-.09.545.046.858.137.306.42.437.285.125.625.125.2 0 .341-.023.148-.029.262-.056l.074.914a3 3 0 0 1-.938.154q-.557 0-1.028-.245a1.62 1.62 0 0 1-.716-.727q-.245-.483-.131-1.199zM93.748 113l1.932-11.636h6.75l-.159.954h-5.688l-.727 4.381h5.329l-.159.954h-5.33l-.727 4.392h5.802l-.159.955zm11.204-5.455-.903 5.455h-1.011l1.454-8.727h.983l-.227 1.369h.091a3 3 0 0 1 1.13-1.074q.728-.41 1.688-.409.875 0 1.477.369.608.364.864 1.074.26.71.091 1.745L109.64 113h-1.011l.931-5.591q.177-1.068-.312-1.693-.483-.631-1.494-.631a2.722 2.722 0 0 0-2.267 1.148 3.1 3.1 0 0 0-.535 1.312m10.135 8.91q-.891 0-1.528-.233-.636-.228-1.034-.625a2.5 2.5 0 0 1-.574-.892l.92-.54q.126.329.381.647.256.32.722.523.466.21 1.221.21 1.154 0 1.983-.585.83-.58 1.034-1.795l.307-1.966h-.091q-.232.397-.625.795a3.2 3.2 0 0 1-.971.654q-.575.261-1.358.261-1.046 0-1.773-.517-.728-.517-1.028-1.477-.302-.966-.074-2.301.216-1.324.829-2.33.62-1.005 1.523-1.568a3.7 3.7 0 0 1 1.989-.563q.801 0 1.284.285.483.278.733.693.255.414.369.807h.102l.273-1.665h.989l-1.478 8.954q-.187 1.108-.772 1.824a3.5 3.5 0 0 1-1.455 1.057 5 5 0 0 1-1.898.347m.614-4.472a2.9 2.9 0 0 0 1.511-.403 3.34 3.34 0 0 0 1.131-1.165q.46-.762.631-1.818.17-1.023-.017-1.813-.182-.795-.711-1.25-.522-.46-1.375-.46-.88 0-1.556.471a3.7 3.7 0 0 0-1.108 1.273 5.7 5.7 0 0 0-.597 1.779q-.159.999.011 1.767.177.76.694 1.193.516.426 1.386.426m6.223 1.017 1.455-8.727h1.017L122.941 113zm2.33-10.244a.74.74 0 0 1-.54-.216.703.703 0 0 1 .023-1.023.75.75 0 0 1 .534-.216q.318 0 .539.222a.67.67 0 0 1 .211.522.68.68 0 0 1-.233.5.76.76 0 0 1-.534.211m3.277 4.789-.904 5.455h-1.011l1.454-8.727h.983l-.227 1.369h.091q.41-.67 1.131-1.074.726-.41 1.687-.409.875 0 1.477.369.609.364.864 1.074.262.71.091 1.745l-.949 5.653h-1.011l.931-5.591q.177-1.068-.312-1.693-.483-.631-1.494-.631a2.8 2.8 0 0 0-1.279.296 2.7 2.7 0 0 0-.988.852 3.06 3.06 0 0 0-.534 1.312m10.856 5.637q-1.221 0-2.017-.568-.795-.574-1.114-1.586-.318-1.017-.096-2.34.221-1.319.875-2.341a4.9 4.9 0 0 1 1.613-1.608 3.93 3.93 0 0 1 2.086-.586q.71 0 1.329.262.62.255 1.051.79.438.528.608 1.335.17.8-.011 1.898l-.08.5h-6.818l.142-.893h5.79q.142-.84-.08-1.511a2.1 2.1 0 0 0-.755-1.062q-.528-.399-1.313-.398-.8 0-1.517.449a4.1 4.1 0 0 0-1.204 1.17 3.9 3.9 0 0 0-.631 1.529l-.114.67q-.182 1.108.046 1.858.227.744.824 1.125.596.381 1.528.381.626 0 1.131-.194.505-.192.88-.517.375-.329.603-.721l.903.312a3.6 3.6 0 0 1-.818 1.017 4.1 4.1 0 0 1-1.244.75 4.4 4.4 0 0 1-1.597.279"/><path fill="#fff" d="m116 60 5.774-10h-11.548zm0-31h-1v22h2V29zM116 171l5.774-10h-11.548zm0-31h-1v22h2v-22z"/><path fill="#ede97b" d="m230 100-10-5.773v11.547zm-74 0v1h65v-2h-65z"/></g><defs><linearGradient id="b" x1="206" x2="177" y1="61.5" y2="61.5" gradientUnits="userSpaceOnUse"><stop stop-color="#ede97b"/><stop offset=".322" stop-color="#ff0d12"/><stop offset="1" stop-color="#99080b"/></linearGradient><linearGradient id="c" x1="205" x2="177" y1="233.5" y2="233.5" gradientUnits="userSpaceOnUse"><stop stop-color="#fff"/><stop offset=".543" stop-color="#9dd7de"/><stop offset="1" stop-color="#34b5be"/></linearGradient><linearGradient id="d" x1="116" x2="116" y1="60" y2="140" gradientUnits="userSpaceOnUse"><stop stop-color="#d9d9d9"/><stop offset="1" stop-color="#737373"/></linearGradient><clipPath id="a"><path fill="#fff" d="M0 0h300v200H0z"/></clipPath></defs></svg>