<svg xmlns="http://www.w3.org/2000/svg" width="300" height="200" fill="none" viewBox="0 0 300 200"><path fill="#000" d="M0 0h300v200H0z"/><path fill="#ff5858" d="m119 47-10-5.773v11.547zm-47 0v1h38v-2H72z"/><path fill="#6dfaff" d="m44 75 11.154-2.989-8.165-8.165zm28-28-.707-.707-21.636 21.636.707.707.707.707 21.636-21.636z"/><path fill="#8cff74" d="m72 5-5.773 10h11.546zm0 42h1V14h-2v33z"/><path stroke="#fff" stroke-width="3" d="M82 122.5h132"/><circle cx="45.5" cy="136.5" r="45.5" fill="url(#a)"/><path fill="#000" d="m36.227 145 2.898-17.455h1.594l-1.33 8.003h9.904l1.33-8.003h1.593L49.318 145h-1.594l1.33-8.02h-9.903L37.82 145z"/><circle cx="253.5" cy="136.5" r="45.5" fill="url(#b)"/><path fill="#000" d="m244.227 145 2.898-17.455h1.594l-1.33 8.003h9.904l1.329-8.003h1.594L257.318 145h-1.594l1.33-8.02h-9.903l-1.33 8.02z"/><path stroke="#fff" stroke-dasharray="5 5" d="M148.5 64v73M184.354 87.354l-50 50"/><path fill="#8cff74" d="m164.5 75-11.547.099 5.859 9.95zM135 75l-.762.648c3.403 4.003 6.899 6.322 10.74 7.05 3.831.727 7.836-.161 12.195-2.228l-.429-.903-.428-.904c-4.149 1.967-7.706 2.689-10.966 2.07-3.25-.616-6.372-2.597-9.588-6.38z"/><path fill="#6dfaff" d="m165 86.875 1.552 11.442 9.133-7.065zm3.715 29.265.738.675c3.543-3.88 5.403-7.641 5.642-11.542.239-3.893-1.147-7.754-3.746-11.818l-.842.539-.843.539c2.474 3.868 3.638 7.306 3.435 10.617-.202 3.302-1.775 6.649-5.123 10.316z"/><defs><linearGradient id="a" x1="45.5" x2="45.5" y1="91" y2="182" gradientUnits="userSpaceOnUse"><stop stop-color="#ff8ef4"/><stop offset="1" stop-color="#fe52ed"/></linearGradient><linearGradient id="b" x1="253.5" x2="253.5" y1="91" y2="182" gradientUnits="userSpaceOnUse"><stop stop-color="#ff8ef4"/><stop offset="1" stop-color="#fe52ed"/></linearGradient></defs></svg>