<svg xmlns="http://www.w3.org/2000/svg" width="300" height="200" fill="none" viewBox="0 0 300 200"><path fill="#000" d="M0 0h300v200H0z"/><path stroke="#ff0" stroke-width="2" d="M147 48H76M147 94H76M147 145H76"/><path fill="url(#a)" stroke="#fff" stroke-dasharray="5 5" stroke-width="2" d="M154.638 23.71a48 48 0 0 1 3.015 3.745h.001l-.807.589a58 58 0 0 1 2.619 3.932l.852-.52a70 70 0 0 1 2.358 4.193l-.883.46a80 80 0 0 1 2.065 4.29l.911-.408a93 93 0 0 1 1.842 4.439l-.931.36a103 103 0 0 1 1.61 4.492l.946-.315q.746 2.244 1.418 4.593l-.958.276q.647 2.26 1.222 4.614l.969-.237a132 132 0 0 1 1.059 4.702v.001l-.979.202q.475 2.309.881 4.69l.982-.167q.4 2.346.73 4.756l-.99.135q.32 2.349.572 4.751l.991-.104q.249 2.374.429 4.798l-.997.073q.174 2.364.279 4.771l.996-.044q.104 2.386.14 4.81l-.998.015a159 159 0 0 1 0 4.796l.998.014q-.036 2.424-.14 4.81l-.996-.043q-.105 2.407-.279 4.771l.997.072a158 158 0 0 1-.429 4.798l-.991-.103a152 152 0 0 1-.572 4.751l.99.134q-.33 2.41-.73 4.756l-.982-.166a140 140 0 0 1-.881 4.69l.979.202a132 132 0 0 1-1.059 4.702l-.969-.236a122 122 0 0 1-1.222 4.614l.958.274q-.672 2.351-1.418 4.594l-.946-.314a103 103 0 0 1-1.61 4.493l.931.358a93 93 0 0 1-1.842 4.439l-.911-.406a81 81 0 0 1-2.065 4.289l.883.459a70 70 0 0 1-2.358 4.194l-.852-.52a58 58 0 0 1-2.619 3.932l.806.588a48 48 0 0 1-3.015 3.745l-.745-.665a38 38 0 0 1-3.328 3.299l.657.753a30.4 30.4 0 0 1-3.86 2.874l-.528-.848a23 23 0 0 1-4.126 2.055l.351.933a20.4 20.4 0 0 1-4.659 1.16l-.123-.992a18.4 18.4 0 0 1-4.554 0l-.124.992a20.4 20.4 0 0 1-4.659-1.16l.352-.933a23 23 0 0 1-4.126-2.055l-.529.848a30.3 30.3 0 0 1-3.86-2.874l.658-.753a38 38 0 0 1-3.328-3.299l-.746.665a48 48 0 0 1-3.015-3.745l.807-.588a58 58 0 0 1-2.619-3.932l-.853.52a70 70 0 0 1-2.358-4.194l.884-.459a81 81 0 0 1-2.065-4.289l-.912.406a93 93 0 0 1-1.842-4.439l.932-.358a103 103 0 0 1-1.61-4.493l-.947.314q-.746-2.244-1.418-4.594l.959-.274a122 122 0 0 1-1.222-4.614l-.97.236q-.565-2.31-1.059-4.702l.98-.202a140 140 0 0 1-.881-4.69l-.983.166q-.4-2.346-.73-4.756l.99-.134a152 152 0 0 1-.57-4.751l-.993.103q-.25-2.373-.428-4.798l.997-.072a161 161 0 0 1-.279-4.771l-.997.043a165 165 0 0 1-.14-4.81l.999-.014a166 166 0 0 1 0-4.796l-1-.015q.037-2.425.141-4.81l.997.044q.105-2.407.279-4.771l-.998-.073q.18-2.424.43-4.798l.991.104q.25-2.404.572-4.75l-.99-.136q.33-2.41.729-4.756l.983.167q.406-2.381.881-4.69l-.979-.202-.001-.001a132 132 0 0 1 1.059-4.702l.97.237q.575-2.354 1.222-4.614l-.959-.276q.671-2.349 1.418-4.593l.947.315a103 103 0 0 1 1.61-4.493l-.932-.36a93 93 0 0 1 1.842-4.438l.912.407a80 80 0 0 1 2.065-4.289l-.884-.46a70 70 0 0 1 2.358-4.194l.853.52a58 58 0 0 1 2.619-3.931l-.807-.589a49 49 0 0 1 2.651-3.333l.364-.412.746.666a38 38 0 0 1 3.328-3.299l-.658-.754a30.4 30.4 0 0 1 3.86-2.874l.529.849a23 23 0 0 1 4.126-2.055l-.352-.934a20.5 20.5 0 0 1 4.659-1.16l.124.993a18.4 18.4 0 0 1 4.554 0l.123-.993a20.4 20.4 0 0 1 4.659 1.16l-.351.934a23 23 0 0 1 4.126 2.055l.528-.849a30.4 30.4 0 0 1 3.86 2.874l-.657.754a38 38 0 0 1 3.328 3.299z" opacity=".74"/><mask id="b" fill="#fff"><path d="M233.384 45.784 232.456 51h-15.328l.16-.832 1.792-.192q.352-.031.512-.096.16-.096.256-.384.096-.32.224-1.088l2.912-16.576q.192-1.12.128-1.312t-.544-.256l-1.76-.16.16-.864h14.944l-.928 5.216h-.832l-.32-3.36q-.032-.384-.128-.544-.065-.192-.384-.224-.288-.064-1.056-.064h-6.208l-1.632 9.248h4.288q.768 0 1.088-.032.32-.064.48-.224.16-.192.32-.576l1.024-2.4h.8l-1.312 7.488h-.8l-.192-2.4q-.032-.576-.256-.704t-1.344-.128h-4.288l-1.664 9.44h6.592q.768 0 1.088-.032.32-.064.48-.224.16-.192.32-.576l1.504-3.36z"/></mask><path fill="#ff0" d="m233.384 45.784 1.969.35.418-2.35h-2.387zM232.456 51v2h1.676l.293-1.65zm-15.328 0-1.964-.378-.457 2.378h2.421zm.16-.832-.213-1.989-1.472.158-.279 1.453zm1.792-.192-.181-1.992-.016.002-.016.001zm.512-.096.743 1.857.149-.06.137-.082zm.256-.384 1.897.633.01-.03.009-.028zm.224-1.088-1.97-.346-.001.009-.002.008zm2.912-16.576 1.97.346.001-.008zm.128-1.312 1.897-.632zm-.544-.256.264-1.982-.041-.006-.042-.004zm-1.76-.16-1.967-.364-.399 2.157 2.185.199zm.16-.864v-2h-1.664l-.303 1.636zm14.944 0 1.969.35.418-2.35h-2.387zm-.928 5.216v2h1.676l.293-1.65zm-.832 0-1.991.19.172 1.81h1.819zm-.32-3.36-1.993.166.001.012.001.012zm-.128-.544-1.897.632.069.209.113.188zm-.384-.224-.434 1.952.116.026.119.012zm-7.264-.064v-2h-1.678l-.292 1.652zm-1.632 9.248-1.97-.348-.414 2.348h2.384zm5.376-.032.199 1.99.097-.01.096-.019zm.48-.224 1.414 1.414.064-.064.058-.07zm.32-.576-1.84-.785-.003.008-.003.008zm1.024-2.4v-2h-1.321l-.519 1.215zm.8 0 1.97.345.411-2.345h-2.381zm-1.312 7.488v2h1.68l.29-1.655zm-.8 0-1.994.16.148 1.84h1.846zm-.192-2.4-1.997.11.001.025.002.025zm-5.888-.832v-2h-1.678l-.292 1.653zm-1.664 9.44-1.97-.347-.413 2.347h2.383zm7.68-.032.199 1.99.097-.01.096-.019zm.48-.224 1.414 1.414.064-.064.058-.07zm.32-.576-1.825-.817-.011.024-.01.024zm1.504-3.36v-2h-1.296l-.529 1.183zm.832 0-1.969-.35-.928 5.216 1.969.35 1.969.35.928-5.216zM232.456 51v-2h-15.328v4h15.328zm-15.328 0 1.964.378.16-.832-1.964-.378-1.964-.378-.16.832zm.16-.832.213 1.989 1.792-.192-.213-1.989-.213-1.989-1.792.192zm1.792-.192.181 1.992c.27-.025.683-.075 1.074-.231l-.743-1.857-.743-1.857a2 2 0 0 1 .131-.044l.035-.009-.032.005-.084.01zm.512-.096 1.029 1.715c.705-.423.998-1.087 1.124-1.466l-1.897-.633-1.897-.633c.007-.022.04-.114.121-.236.084-.126.238-.31.491-.462zm.256-.384 1.916.575c.103-.346.195-.819.281-1.334l-1.973-.329-1.973-.329a9 9 0 0 1-.167.842zm.224-1.088 1.97.346 2.912-16.576-1.97-.346-1.97-.346-2.912 16.576zm2.912-16.576 1.971.338c.067-.392.119-.743.148-1.032.013-.143.025-.303.025-.464 0-.103 0-.43-.119-.786l-1.897.632-1.897.632a1.6 1.6 0 0 1-.08-.363c-.007-.063-.007-.105-.007-.115 0-.02.001 0-.007.076-.014.148-.047.39-.108.744zm.128-1.312 1.897-.633c-.263-.79-.868-1.174-1.213-1.337a3.3 3.3 0 0 0-.964-.268l-.264 1.982-.264 1.982c.064.01-.038.005-.212-.076a1.72 1.72 0 0 1-.877-1.018zm-.544-.256.181-1.992-1.76-.16-.181 1.992-.181 1.992 1.76.16zm-1.76-.16 1.967.364.16-.864-1.967-.364-1.967-.364-.16.864zm.16-.864v2h14.944v-4h-14.944zm14.944 0-1.969-.35-.928 5.216 1.969.35 1.969.35.928-5.216zm-.928 5.216v-2h-.832v4h.832zm-.832 0 1.991-.19-.32-3.36-1.991.19-1.991.19.32 3.36zm-.32-3.36 1.993-.166c-.025-.303-.091-.881-.406-1.407l-1.715 1.029-1.715 1.029a1.5 1.5 0 0 1-.116-.24q-.03-.085-.036-.115c-.008-.034-.003-.027.002.036zm-.128-.544 1.897-.633c-.421-1.265-1.597-1.533-2.082-1.581l-.199 1.99-.199 1.99a1.4 1.4 0 0 1-.553-.19 1.72 1.72 0 0 1-.761-.944zm-.384-.224.434-1.952c-.434-.097-.992-.112-1.49-.112v4q.346 0 .527.012l.121.01c.025.003.012.003-.026-.006zm-1.056-.064v-2h-6.208v4h6.208zm-6.208 0-1.97-.348-1.632 9.248 1.97.348 1.97.348 1.632-9.248zm-1.632 9.248v2h4.288v-4h-4.288zm4.288 0v2c.513 0 .964-.01 1.287-.042l-.199-1.99-.199-1.99c-.104.01-.378.022-.889.022zm1.088-.032.392 1.961c.438-.087 1.018-.287 1.502-.77l-1.414-1.415-1.414-1.414c.27-.27.531-.321.542-.323zm.48-.224 1.536 1.28c.292-.35.49-.751.63-1.087l-1.846-.769-1.846-.77a3 3 0 0 1-.062.135l.004-.006q.01-.017.048-.063zm.32-.576 1.84.785 1.024-2.4-1.84-.785-1.84-.785-1.024 2.4zm1.024-2.4v2h.8v-4h-.8zm.8 0-1.97-.345-1.312 7.488 1.97.345 1.97.345 1.312-7.488zm-1.312 7.488v-2h-.8v4h.8zm-.8 0 1.994-.16-.192-2.4-1.994.16-1.994.16.192 2.4zm-.192-2.4 1.997-.11a3.6 3.6 0 0 0-.197-1.038c-.133-.365-.427-.929-1.064-1.292l-.992 1.736-.992 1.736a1.6 1.6 0 0 1-.712-.812c-.05-.138-.042-.199-.037-.11zm-.256-.704.992-1.736a2.6 2.6 0 0 0-.741-.276 5 5 0 0 0-.509-.075c-.315-.03-.685-.041-1.086-.041v4c.345 0 .573.01.706.023.068.006.078.01.051.005a1.596 1.596 0 0 1-.405-.163zm-1.344-.128v-2h-4.288v4h4.288zm-4.288 0-1.97-.347-1.664 9.44 1.97.347 1.97.347 1.664-9.44zm-1.664 9.44v2h6.592v-4h-6.592zm6.592 0v2c.513 0 .964-.01 1.287-.042l-.199-1.99-.199-1.99c-.104.01-.378.022-.889.022zm1.088-.032.392 1.961c.438-.087 1.018-.287 1.502-.77l-1.414-1.415-1.414-1.414c.27-.27.531-.321.542-.323zm.48-.224 1.536 1.28c.292-.35.49-.751.63-1.087l-1.846-.769-1.846-.77a3 3 0 0 1-.062.135l.004-.006q.01-.017.048-.063zm.32-.576 1.825.817 1.504-3.36-1.825-.817-1.825-.817-1.504 3.36zm1.504-3.36v2h.832v-4h-.832z" mask="url(#b)"/><path fill="#ff0" d="m202 145-10-5.773v11.547zm-55 0v1h46v-2h-46zM202 94l-10-5.773v11.546zm-55 0v1h46v-2h-46zM202 48l-10-5.773v11.547zm-55 0v1h46v-2h-46z"/><defs><linearGradient id="a" x1="136" x2="136" y1="14" y2="174" gradientUnits="userSpaceOnUse"><stop stop-color="#ff5656"/><stop offset="1" stop-color="#933"/></linearGradient></defs></svg>