<svg xmlns="http://www.w3.org/2000/svg" width="300" height="200" fill="none" viewBox="0 0 300 200"><g clip-path="url(#a)"><path fill="#000" d="M0 0h300v200H0z"/><path stroke="#fff" stroke-width="2" d="M148 8c27.79 0 52.903 4.742 71.03 12.37 9.066 3.815 16.337 8.331 21.327 13.296C245.344 38.626 248 43.976 248 49.5s-2.656 10.873-7.643 15.834c-4.99 4.965-12.261 9.481-21.327 13.296C200.903 86.258 175.79 91 148 91s-52.903-4.742-71.03-12.37c-9.066-3.815-16.337-8.331-21.327-13.296C50.656 60.374 48 55.024 48 49.5s2.656-10.873 7.643-15.834c4.99-4.964 12.261-9.481 21.327-13.296C95.097 12.742 120.21 8 148 8Z"/><path stroke="#fff" stroke-width="2" d="M148-20c36.896 0 70.251 6.698 94.344 17.486 12.047 5.395 21.735 11.793 28.398 18.846C277.4 23.38 281 31.038 281 39s-3.6 15.62-10.258 22.668c-6.663 7.054-16.351 13.451-28.398 18.846C218.251 91.302 184.896 98 148 98s-70.25-6.698-94.344-17.486C41.61 75.119 31.921 68.722 25.258 61.668 18.6 54.62 15 46.962 15 39s3.6-15.62 10.258-22.668C31.92 9.279 41.608 2.881 53.656-2.514 77.75-13.302 111.104-20 148-20ZM150 201c27.79 0 52.903-4.742 71.03-12.37 9.066-3.815 16.337-8.332 21.327-13.296 4.987-4.961 7.643-10.311 7.643-15.834s-2.656-10.873-7.643-15.834c-4.99-4.964-12.261-9.481-21.327-13.296C202.903 122.742 177.79 118 150 118s-52.903 4.742-71.03 12.37c-9.066 3.815-16.337 8.332-21.327 13.296C52.656 148.627 50 153.977 50 159.5s2.656 10.873 7.643 15.834c4.99 4.964 12.261 9.481 21.327 13.296C97.097 196.258 122.21 201 150 201Z"/><path stroke="#fff" stroke-width="2" d="M150 229c36.896 0 70.251-6.698 94.344-17.486 12.047-5.395 21.735-11.793 28.398-18.846C279.4 185.62 283 177.961 283 170s-3.6-15.62-10.258-22.668c-6.663-7.053-16.351-13.451-28.398-18.846C220.251 117.698 186.896 111 150 111s-70.25 6.698-94.344 17.486c-12.047 5.395-21.735 11.793-28.398 18.846C20.6 154.38 17 162.039 17 170s3.6 15.62 10.258 22.668c6.663 7.053 16.35 13.451 28.398 18.846C79.75 222.302 113.104 229 150 229ZM0 104h300"/><path fill="url(#b)" d="M75 76h75v48H75z" opacity=".8"/><path fill="#fff" d="m89.808 91.104.16-.864h5.344l7.296 17.088 2.592-14.496q.192-1.088.128-1.28-.064-.224-.544-.288l-1.76-.16.16-.864h6.112l-.16.864-1.76.16q-.512.064-.672.288-.128.192-.32 1.28L102.992 112h-1.28l-8.448-19.616-3.008 17.024q-.191 1.088-.128 1.312.064.192.544.256l1.728.192-.16.832h-6.112l.16-.832 1.792-.192q.544-.064.672-.256.128-.224.32-1.312l2.912-16.576q.192-1.088.128-1.28-.064-.224-.544-.288zM27 104l10 5.774V98.227zm13 0v-1h-4v2h4z"/><path fill="#fff" d="m27 104 10 5.774V98.227zm13 0v-1h-4v2h4zM29 65l4.084 10.8 7.312-8.936zm11 9 .633-.774-4.034-3.3-.633.773-.634.774 4.035 3.301zM235 70l11.154-2.989-8.165-8.165zm9-9-.707-.707-2.636 2.636.707.707.707.707 2.636-2.636zM230 134l3.516 10.999 7.767-8.544zm11 10 .673-.74-4.341-3.946-.673.74-.672.74 4.34 3.946zM31 144l4.084-10.801 7.312 8.937zm11-9 .633.774-4.034 3.301-.633-.774-.634-.774 4.035-3.301zM48 44l-4.186 10.762 11.413-1.756zm2 13 .988-.152-.631-4.105-.989.152-.988.152.632 4.105zM273 61l9.394-6.715-10.512-4.778zm5-11-.91-.414-1.276 2.807.91.414.911.413 1.275-2.806zM271 144l1.005 11.503 9.459-6.622zm7 10 .819-.573-1.839-2.627-.819.573-.819.574 1.839 2.626zM50 167l6.523-9.528-11.513-.885zm1-13-.997-.077-.31 4.027.997.077.997.076.31-4.026zM263 104l10 5.774V98.227zm13 0v-1h-4v2h4z"/><path fill="#9af488" stroke="#fff" stroke-dasharray="5 5" stroke-width="2" d="M187 64c10.5-14 12-14.5 31.5-14s13 .5 31.5 9.5 21.5 8.5 32.5 27 21.5 29 5 40 0 18.5-7 38.5-51 35.5-42.5 9-46.776-9.398-57-33c-6.83-15.767 0-44 0-44s-4.5-19 6-33Z" opacity=".76"/><path fill="url(#c)" d="M150 76h75v48h-75z" opacity=".8"/><path fill="#fff" d="M199.648 112.32a9.9 9.9 0 0 1-3.2-.512 5.05 5.05 0 0 1-2.464-1.792q-.929-1.28-.96-3.52l2.016-.64q-.096 2.144.512 3.328t1.696 1.664q1.088.448 2.432.448 2.624 0 3.968-1.184 1.376-1.216 1.376-3.264 0-1.472-.8-2.432-.768-.96-2.656-1.728l-2.368-.928q-1.92-.768-2.976-2.144-1.024-1.376-1.024-3.424 0-1.695.768-3.104.8-1.44 2.4-2.304t4.032-.864q1.984 0 3.296.608 1.344.576 2.08 1.568.736.96.896 2.144a5 5 0 0 1-.224 2.304l-2.784.576q.896-2.912.064-4.544t-3.456-1.632q-2.08 0-3.328 1.088-1.248 1.055-1.248 3.2 0 1.44.704 2.432.737.96 2.592 1.696l2.368.96q2.016.8 3.104 2.112 1.088 1.28 1.088 3.264a6.5 6.5 0 0 1-.864 3.232q-.833 1.504-2.592 2.464-1.76.928-4.448.928"/></g><defs><linearGradient id="b" x1="112.5" x2="112.5" y1="76" y2="124" gradientUnits="userSpaceOnUse"><stop stop-color="#ff2d42"/><stop offset="1" stop-color="#991b28"/></linearGradient><linearGradient id="c" x1="187.5" x2="187.5" y1="76" y2="124" gradientUnits="userSpaceOnUse"><stop stop-color="#62ecf0"/><stop offset="1" stop-color="#39888a"/></linearGradient><clipPath id="a"><path fill="#fff" d="M0 0h300v200H0z"/></clipPath></defs></svg>