<svg xmlns="http://www.w3.org/2000/svg" width="300" height="200" fill="none" viewBox="0 0 300 200"><path fill="#000" d="M0 0h300v200H0z"/><path stroke="#fff" stroke-width="3" d="M10 92.5h74"/><path stroke="#fff" stroke-width="4" d="M86 33v111"/><path stroke="#fff" stroke-width="3" d="M220 87.5h74"/><path stroke="#fff" stroke-width="4" d="M218 33v111"/><path fill="#ff0" d="m195 49-15-8.66v17.32zm-75 0v1.5h61.5v-3H120zM195 86l-15-8.66v17.32zm-75 0v1.5h61.5v-3H120zM194 124l-15-8.66v17.32zm-75 0v1.5h61.5v-3H119z"/><path fill="#fff" d="M111.468 48.588h-6.84l-1.224 6.984h-1.26l1.224-6.984h-6.804l.216-1.188h6.804l1.224-7.02h1.26l-1.224 7.02h6.84zm0 43h-6.84l-1.224 6.984h-1.26l1.224-6.984h-6.804l.216-1.188h6.804l1.224-7.02h1.26l-1.224 7.02h6.84zm0 43h-6.84l-1.224 6.984h-1.26l1.224-6.984h-6.804l.216-1.188h6.804l1.224-7.02h1.26l-1.224 7.02h6.84zM201.952 48.588l.216-1.26h9.504l-.216 1.26zm0 43 .216-1.26h9.504l-.216 1.26zm0 43 .216-1.26h9.504l-.216 1.26z"/><path fill="#9af488" d="M62 92 37 77.566v28.868z"/><path fill="#c94747" stroke="#fff" stroke-dasharray="5 5" stroke-width="2" d="M172.879 81.09q.08 2.61.105 5.267l-.998.011a256 256 0 0 1 0 5.264l.998.01a253 253 0 0 1-.105 5.267l-.998-.03q-.082 2.656-.216 5.256l.997.051q-.137 2.663-.328 5.261l-.996-.072q-.195 2.654-.443 5.232l.993.095a214 214 0 0 1-.572 5.245l-.99-.119a196 196 0 0 1-.699 5.199l.987.146q-.395 2.662-.847 5.204l-.983-.174a159 159 0 0 1-1.003 5.15l.978.207a138 138 0 0 1-1.193 5.134l-.966-.244a114 114 0 0 1-1.392 5.035l.955.288a90 90 0 0 1-1.668 5.005l-.935-.344a66 66 0 0 1-1.976 4.81l.906.417c-.789 1.712-1.609 3.266-2.461 4.65l-.85-.524c-.988 1.606-2.005 2.955-3.038 4.035l.721.691c-1.377 1.44-2.81 2.457-4.286 3.008l-.348-.936A6.3 6.3 0 0 1 150 165a6.3 6.3 0 0 1-2.228-.415l-.349.936c-1.475-.551-2.909-1.568-4.286-3.008l.722-.691c-1.033-1.08-2.05-2.429-3.038-4.035l-.851.524c-.852-1.384-1.672-2.938-2.461-4.65l.907-.417a66 66 0 0 1-1.976-4.81l-.936.344a90 90 0 0 1-1.668-5.005l.956-.288q-.728-2.41-1.392-5.035l-.967.244a138 138 0 0 1-1.193-5.134l.979-.207a159 159 0 0 1-1.003-5.15l-.984.174q-.452-2.542-.847-5.204l.988-.146a196 196 0 0 1-.699-5.199l-.991.119q-.314-2.578-.572-5.245l.994-.095a235 235 0 0 1-.443-5.232l-.997.072a240 240 0 0 1-.328-5.261l.998-.051a253 253 0 0 1-.216-5.256l-.999.03a253 253 0 0 1-.105-5.267l.999-.01a256 256 0 0 1 0-5.264l-.999-.01q.026-2.64.104-5.231l.001-.037.999.031q.082-2.656.216-5.256l-.998-.051q.137-2.664.328-5.262l.997.073q.195-2.655.443-5.232l-.994-.096q.258-2.668.572-5.245l.991.12q.321-2.651.699-5.2l-.988-.146q.395-2.662.847-5.204l.984.175q.471-2.647 1.003-5.15l-.979-.207q.565-2.655 1.193-5.135l.967.245q.664-2.626 1.392-5.035l-.956-.29a90 90 0 0 1 1.668-5.004l.936.345a66 66 0 0 1 1.976-4.81l-.907-.418c.789-1.712 1.609-3.266 2.461-4.65l.851.525c.988-1.606 2.005-2.955 3.038-4.035l-.722-.692c1.377-1.44 2.811-2.457 4.286-3.008l.349.937A6.3 6.3 0 0 1 150 13a6.3 6.3 0 0 1 2.228.415l.348-.936c1.476.55 2.909 1.568 4.286 3.007l-.721.692c1.033 1.08 2.05 2.43 3.038 4.035l.85-.524c.852 1.383 1.672 2.938 2.461 4.649l-.906.418a66 66 0 0 1 1.976 4.81l.935-.345a90 90 0 0 1 1.668 5.005l-.955.289q.728 2.41 1.392 5.035l.966-.245q.628 2.48 1.193 5.135h.001l-.979.208q.531 2.502 1.003 5.149l.983-.175q.452 2.542.847 5.204l-.987.147q.378 2.548.699 5.199l.99-.12q.314 2.578.572 5.245l-.993.096q.248 2.578.443 5.232l.996-.073q.191 2.597.328 5.261l-.997.052q.134 2.6.216 5.256z" opacity=".63"/><path fill="#9af488" d="M41.784 40.544q-1.568 0-1.568-1.536 0-.8.512-1.344.544-.576 1.408-.576.736 0 1.152.416.448.384.448 1.088 0 .8-.544 1.376-.511.576-1.408.576m-4.672 4.48.16-.864h5.088L40.44 55.2q-.416 2.368-.32 3.136t.608.768q.48 0 1.024-.544.576-.576.992-1.92l1.152.704q-.704 1.472-1.664 2.144-.928.672-1.984.672-1.471 0-2.208-1.152-.704-1.152-.288-3.552l1.504-8.704q.192-1.088.128-1.28-.064-.224-.544-.288zm13.184 21.168q-1.593 0-2.611-.768-.999-.787-1.363-2.189-.365-1.42-.077-3.283l.211-1.286q.442-2.745 1.901-4.32 1.478-1.594 3.782-1.594 1.422 0 2.304.595.885.576 1.19 1.498.309.92-.018 1.939l-1.728.403q.517-1.844.057-2.822-.46-.999-1.824-.999-1.363 0-2.323 1.018-.96 1.017-1.344 3.322l-.538 3.206q-.403 2.439.212 3.552.615 1.114 2.227 1.114.921 0 1.747-.557.825-.556 1.248-2.016l1.19.403q-.69 1.517-1.824 2.15a4.8 4.8 0 0 1-2.419.634"/><path fill="#ff0" d="M194.384 25.784 193.456 31h-15.328l.16-.832 1.792-.192q.352-.032.512-.096.16-.096.256-.384.096-.32.224-1.088l2.912-16.576q.192-1.12.128-1.312t-.544-.256l-1.76-.16.16-.864h14.944l-.928 5.216h-.832l-.32-3.36q-.032-.384-.128-.544-.065-.192-.384-.224-.288-.064-1.056-.064h-6.208l-1.632 9.248h4.288q.768 0 1.088-.032.32-.064.48-.224.16-.192.32-.576l1.024-2.4h.8l-1.312 7.488h-.8l-.192-2.4q-.032-.576-.256-.704t-1.344-.128h-4.288l-1.664 9.44h6.592q.768 0 1.088-.032.32-.064.48-.224.16-.192.32-.576l1.504-3.36z"/></svg>