<svg width="300" height="200" viewBox="0 0 300 200" fill="none" xmlns="http://www.w3.org/2000/svg">
<rect width="300" height="200" fill="black"/>
<path d="M97.125 112C97.125 112 119 98.5 136 98.5C153 98.5 148.625 112 148.625 112" stroke="#62ECF0" stroke-width="3"/>
<rect opacity="0.83" x="33" y="28" width="224" height="84" fill="url(#paint0_linear_344_272)"/>
<path d="M44.5 111.5C44.5 111.5 53 35 70 35C87 35 96 111.5 96 111.5C96 111.5 105.5 180.5 122 180.5C138.5 180.5 149 111.5 149 111.5C149 111.5 159.5 35 174.25 35C189 35 199.5 111.5 199.5 111.5" stroke="#FF2D42" stroke-width="3"/>
<path d="M216.384 50.784L215.456 56H200.128L200.288 55.168L202.08 54.976C202.315 54.9547 202.485 54.9227 202.592 54.88C202.699 54.816 202.784 54.688 202.848 54.496C202.912 54.2827 202.987 53.92 203.072 53.408L205.984 36.832C206.112 36.0853 206.155 35.648 206.112 35.52C206.069 35.392 205.888 35.3067 205.568 35.264L203.808 35.104L203.968 34.24H218.912L217.984 39.456H217.152L216.832 36.096C216.811 35.84 216.768 35.6587 216.704 35.552C216.661 35.424 216.533 35.3493 216.32 35.328C216.128 35.2853 215.776 35.264 215.264 35.264H209.056L207.424 44.512H211.712C212.224 44.512 212.587 44.5013 212.8 44.48C213.013 44.4373 213.173 44.3627 213.28 44.256C213.387 44.128 213.493 43.936 213.6 43.68L214.624 41.28H215.424L214.112 48.768H213.312L213.12 46.368C213.099 45.984 213.013 45.7493 212.864 45.664C212.715 45.5787 212.267 45.536 211.52 45.536H207.232L205.568 54.976H212.16C212.672 54.976 213.035 54.9653 213.248 54.944C213.461 54.9013 213.621 54.8267 213.728 54.72C213.835 54.592 213.941 54.4 214.048 54.144L215.552 50.784H216.384ZM228.009 57.3536L227.932 57.776C227.689 59.1712 227.158 60.2592 226.339 61.04C225.519 61.808 224.47 62.192 223.19 62.192C222.294 62.192 221.558 61.968 220.982 61.52C220.419 61.0592 220.028 60.4512 219.811 59.696C219.593 58.928 219.567 58.0832 219.734 57.1616L219.811 56.72C220.067 55.3248 220.598 54.2432 221.404 53.4752C222.211 52.6944 223.247 52.304 224.515 52.304C225.423 52.304 226.166 52.5344 226.742 52.9952C227.318 53.4432 227.715 54.0512 227.932 54.8192C228.15 55.5872 228.175 56.432 228.009 57.3536ZM226.358 56.8544C226.588 55.5488 226.531 54.5632 226.185 53.8976C225.839 53.232 225.27 52.8992 224.476 52.8992C223.772 52.8992 223.164 53.1808 222.652 53.744C222.153 54.2944 221.795 55.2032 221.577 56.4704L221.385 57.6416C221.155 58.9472 221.212 59.9392 221.558 60.6176C221.903 61.2832 222.467 61.616 223.247 61.616C223.964 61.616 224.572 61.3344 225.071 60.7712C225.583 60.208 225.942 59.2928 226.147 58.0256L226.358 56.8544Z" fill="#FFC2C8"/>
<path opacity="0.83" d="M32.4904 112H257L227.009 138H2.5L32.4904 112Z" fill="url(#paint1_linear_344_272)"/>
<path d="M44.5 111.5C44.5 111.5 36 133.5 53 133.5C70 133.5 96 111.5 96 111.5M199.5 111.5C199.5 111.5 173.25 133.5 158.5 133.5C143.75 133.5 149 111.5 149 111.5" stroke="#62ECF0" stroke-width="3"/>
<path d="M273 112L263 106.226V117.774L273 112ZM44 112V113H264V112V111H44V112Z" fill="#FFFF00"/>
<path d="M177.808 137.104L177.968 136.24H186.544C187.931 136.24 189.051 136.485 189.904 136.976C190.779 137.445 191.387 138.085 191.728 138.896C192.091 139.685 192.187 140.571 192.016 141.552L191.888 142.448C191.696 143.557 191.227 144.496 190.48 145.264C189.733 146.011 188.731 146.533 187.472 146.832C188.859 147.131 189.872 147.739 190.512 148.656C191.152 149.573 191.365 150.683 191.152 151.984L190.992 152.848C190.757 154.405 190.021 155.653 188.784 156.592C187.568 157.531 185.915 158 183.824 158H174.128L174.288 157.168L176.08 156.976C176.443 156.933 176.667 156.848 176.752 156.72C176.837 156.571 176.944 156.133 177.072 155.408L179.984 138.832C180.112 138.085 180.155 137.648 180.112 137.52C180.069 137.392 179.888 137.307 179.568 137.264L177.808 137.104ZM186.512 137.264H183.024L181.424 146.416H184.88C187.099 146.416 188.432 145.179 188.88 142.704L189.104 141.392C189.36 140.048 189.264 139.024 188.816 138.32C188.368 137.616 187.6 137.264 186.512 137.264ZM185.52 147.44H181.232L179.568 156.976H183.824C186.128 156.976 187.525 155.653 188.016 153.008L188.24 151.696C188.496 150.331 188.389 149.285 187.92 148.56C187.451 147.813 186.651 147.44 185.52 147.44ZM202.821 159.354L202.745 159.776C202.501 161.171 201.97 162.259 201.151 163.04C200.332 163.808 199.282 164.192 198.002 164.192C197.106 164.192 196.37 163.968 195.794 163.52C195.231 163.059 194.841 162.451 194.623 161.696C194.405 160.928 194.38 160.083 194.546 159.162L194.623 158.72C194.879 157.325 195.41 156.243 196.217 155.475C197.023 154.694 198.06 154.304 199.327 154.304C200.236 154.304 200.978 154.534 201.554 154.995C202.13 155.443 202.527 156.051 202.745 156.819C202.962 157.587 202.988 158.432 202.821 159.354ZM201.17 158.854C201.401 157.549 201.343 156.563 200.997 155.898C200.652 155.232 200.082 154.899 199.289 154.899C198.585 154.899 197.977 155.181 197.465 155.744C196.965 156.294 196.607 157.203 196.389 158.47L196.197 159.642C195.967 160.947 196.025 161.939 196.37 162.618C196.716 163.283 197.279 163.616 198.06 163.616C198.777 163.616 199.385 163.334 199.884 162.771C200.396 162.208 200.754 161.293 200.959 160.026L201.17 158.854Z" fill="#62ECF0"/>
<path d="M269.648 146.32C268.517 146.32 267.451 146.149 266.448 145.808C265.445 145.467 264.624 144.869 263.984 144.016C263.365 143.163 263.045 141.989 263.024 140.496L265.04 139.856C264.976 141.285 265.147 142.395 265.552 143.184C265.957 143.973 266.523 144.528 267.248 144.848C267.973 145.147 268.784 145.296 269.68 145.296C271.429 145.296 272.752 144.901 273.648 144.112C274.565 143.301 275.024 142.213 275.024 140.848C275.024 139.867 274.757 139.056 274.224 138.416C273.712 137.776 272.827 137.2 271.568 136.688L269.2 135.76C267.92 135.248 266.928 134.533 266.224 133.616C265.541 132.699 265.2 131.557 265.2 130.192C265.2 129.061 265.456 128.027 265.968 127.088C266.501 126.128 267.301 125.36 268.368 124.784C269.435 124.208 270.779 123.92 272.4 123.92C273.723 123.92 274.821 124.123 275.696 124.528C276.592 124.912 277.285 125.435 277.776 126.096C278.267 126.736 278.565 127.451 278.672 128.24C278.779 129.008 278.704 129.776 278.448 130.544L275.664 131.12C276.261 129.179 276.283 127.664 275.728 126.576C275.173 125.488 274.021 124.944 272.272 124.944C270.885 124.944 269.776 125.307 268.944 126.032C268.112 126.736 267.696 127.803 267.696 129.232C267.696 130.192 267.931 131.003 268.4 131.664C268.891 132.304 269.755 132.869 270.992 133.36L273.36 134.32C274.704 134.853 275.739 135.557 276.464 136.432C277.189 137.285 277.552 138.373 277.552 139.696C277.552 140.827 277.264 141.904 276.688 142.928C276.133 143.931 275.269 144.752 274.096 145.392C272.923 146.011 271.44 146.32 269.648 146.32Z" fill="#FFFF00"/>
<defs>
<linearGradient id="paint0_linear_344_272" x1="145" y1="28" x2="145" y2="112" gradientUnits="userSpaceOnUse">
<stop stop-color="#9F4D4D"/>
<stop offset="1" stop-color="#391C1C"/>
</linearGradient>
<linearGradient id="paint1_linear_344_272" x1="-18.9295" y1="119.429" x2="257" y2="119.429" gradientUnits="userSpaceOnUse">
<stop stop-color="#62ECF0"/>
<stop offset="1" stop-color="#39888A"/>
</linearGradient>
</defs>
</svg>
