<svg xmlns="http://www.w3.org/2000/svg" xmlns:xlink="http://www.w3.org/1999/xlink" width="300" height="200" fill="none" viewBox="0 0 300 200"><path fill="#000" d="M0 0h300v200H0z"/><circle cx="150.5" cy="99.5" r="95.5" stroke="#fff" stroke-dasharray="5 5" stroke-width="2"/><circle cx="150.5" cy="100.5" r="66.5" fill="#ff9838" opacity=".6"/><circle cx="150.5" cy="100.5" r="66.5" fill="url(#a)" opacity=".72"/><path fill="#fff" d="m55 84-5.773 10h11.547zm0 16h1v-7h-2v7zM39.432 81.132 38.388 87H21.144l.18-.936 2.016-.216q.396-.036.576-.108.18-.108.288-.432.108-.36.252-1.224l3.276-18.648q.216-1.26.144-1.476t-.612-.288l-1.98-.18.18-.972h16.812l-1.044 5.868h-.936l-.36-3.78q-.036-.432-.144-.612-.072-.216-.432-.252-.324-.072-1.188-.072h-6.984l-1.836 10.404h4.824q.864 0 1.224-.036.36-.072.54-.252.18-.216.36-.648l1.152-2.7h.9l-1.476 8.424h-.9l-.216-2.7q-.036-.648-.288-.792t-1.512-.144h-4.824l-1.872 10.62h7.416q.864 0 1.224-.036.36-.072.54-.252.18-.216.36-.648l1.692-3.78zM221.284 111.492l.18-.972h9.648q2.34 0 3.78.828 1.476.792 2.052 2.16.612 1.332.324 2.988l-.144 1.008q-.324 1.872-1.584 3.168-1.26 1.26-3.384 1.764 2.34.504 3.42 2.052t.72 3.744l-.18.972q-.396 2.628-2.484 4.212-2.052 1.584-5.58 1.584h-10.908l.18-.936 2.016-.216q.612-.072.756-.288.144-.252.36-1.476l3.276-18.648q.216-1.26.144-1.476t-.612-.288zm9.792.18h-3.924l-1.8 10.296h3.888q3.744 0 4.5-4.176l.252-1.476q.432-2.268-.324-3.456t-2.592-1.188m-1.116 11.448h-4.824l-1.872 10.728h4.788q3.888 0 4.716-4.464l.252-1.476q.432-2.304-.36-3.528-.792-1.26-2.7-1.26"/><defs><pattern id="a" width="1" height="1" patternTransform="matrix(26.2812 0 0 40.6164 83.795 47.716)" patternUnits="userSpaceOnUse" preserveAspectRatio="none" viewBox="-0.31 20.782 39.82 61.54"><use xlink:href="#b" transform="translate(0 -61.54)"/><use xlink:href="#b" transform="translate(19.91 -30.77)"/><path id="b" fill="#000" d="m3.46 20.782 2.315 5.083h.095l3.986-5.083h1.742L6.753 26.89 9.57 33H7.827l-2.314-4.988h-.096L1.432 33H-.31l4.963-6.11-2.935-6.108z"/><use xlink:href="#b" transform="translate(19.91 30.77)"/></pattern></defs></svg>