<svg xmlns="http://www.w3.org/2000/svg" width="300" height="200" fill="none" viewBox="0 0 300 200"><path fill="#000" d="M0 0h300v200H0z"/><path stroke="#ff0" stroke-width="2" d="M150 124v17M113.69 64.276l21 20M203 100h-29"/><path fill="url(#a)" stroke="#fff" stroke-dasharray="5 5" stroke-width="2" d="M114 33c10-9.5 18.5-19.5 46-3s43 54.5 45 62.5-8.6 28.4-11 30c-3 2-27.5 10-34 12S121.5 175 104 174s-32-9.5-33-20-1.015-32.069 8.5-49c8.938-15.905 30-25.5 34.5-31.5s-10-31 0-40.5Z" opacity=".84"/><mask id="b" fill="#fff"><path d="M237.384 63.784 236.456 69h-15.328l.16-.832 1.792-.192q.352-.031.512-.096.16-.096.256-.384.096-.32.224-1.088l2.912-16.576q.192-1.12.128-1.312t-.544-.256l-1.76-.16.16-.864h14.944l-.928 5.216h-.832l-.32-3.36q-.032-.384-.128-.544-.065-.192-.384-.224-.288-.064-1.056-.064h-6.208l-1.632 9.248h4.288q.768 0 1.088-.032.32-.064.48-.224.16-.192.32-.576l1.024-2.4h.8l-1.312 7.488h-.8l-.192-2.4q-.032-.576-.256-.704t-1.344-.128h-4.288l-1.664 9.44h6.592q.768 0 1.088-.032.32-.064.48-.224.16-.192.32-.576l1.504-3.36z"/></mask><path fill="#ff0" d="m237.384 63.784 1.969.35.418-2.35h-2.387zM236.456 69v2h1.676l.293-1.65zm-15.328 0-1.964-.378-.457 2.378h2.421zm.16-.832-.213-1.989-1.472.158-.279 1.453zm1.792-.192-.181-1.992-.016.002-.016.001zm.512-.096.743 1.857.149-.06.137-.082zm.256-.384 1.897.633.01-.03.009-.028zm.224-1.088-1.97-.346-.001.009-.002.008zm2.912-16.576 1.97.346.001-.008zm.128-1.312 1.897-.632zm-.544-.256.264-1.983-.041-.005-.042-.004zm-1.76-.16-1.967-.364-.399 2.157 2.185.199zm.16-.864v-2h-1.664l-.303 1.636zm14.944 0 1.969.35.418-2.35h-2.387zm-.928 5.216v2h1.676l.293-1.65zm-.832 0-1.991.19.172 1.81h1.819zm-.32-3.36-1.993.166.001.012.001.012zm-.128-.544-1.897.632.069.209.113.188zm-.384-.224-.434 1.952.116.026.119.012zm-7.264-.064v-2h-1.678l-.292 1.652zm-1.632 9.248-1.97-.348-.414 2.348h2.384zm5.376-.032.199 1.99.097-.01.096-.019zm.48-.224 1.414 1.414.064-.064.058-.07zm.32-.576-1.84-.785-.003.008-.003.008zm1.024-2.4v-2h-1.321l-.519 1.215zm.8 0 1.97.345.411-2.345h-2.381zm-1.312 7.488v2h1.68l.29-1.655zm-.8 0-1.994.16.148 1.84h1.846zm-.192-2.4-1.997.11.001.025.002.025zm-5.888-.832v-2h-1.678l-.292 1.653zm-1.664 9.44-1.97-.347-.413 2.347h2.383zm7.68-.032.199 1.99.097-.01.096-.019zm.48-.224 1.414 1.414.064-.064.058-.07zm.32-.576-1.825-.817-.011.024-.01.024zm1.504-3.36v-2h-1.296l-.529 1.183zm.832 0-1.969-.35-.928 5.216 1.969.35 1.969.35.928-5.216zM236.456 69v-2h-15.328v4h15.328zm-15.328 0 1.964.378.16-.832-1.964-.378-1.964-.378-.16.832zm.16-.832.213 1.989 1.792-.192-.213-1.989-.213-1.989-1.792.192zm1.792-.192.181 1.992c.27-.025.683-.075 1.074-.231l-.743-1.857-.743-1.857a2 2 0 0 1 .131-.044l.035-.009-.032.005-.084.01zm.512-.096 1.029 1.715c.705-.423.998-1.087 1.124-1.466l-1.897-.633-1.897-.632c.007-.023.04-.115.121-.237.084-.126.238-.31.491-.462zm.256-.384 1.916.575c.103-.346.195-.819.281-1.334l-1.973-.329-1.973-.329a9 9 0 0 1-.167.842zm.224-1.088 1.97.346 2.912-16.576-1.97-.346-1.97-.346-2.912 16.576zm2.912-16.576 1.971.338c.067-.392.119-.743.148-1.032.013-.143.025-.303.025-.464 0-.103 0-.43-.119-.786l-1.897.632-1.897.632a1.6 1.6 0 0 1-.08-.363c-.007-.063-.007-.105-.007-.115 0-.02.001 0-.007.076-.014.148-.047.39-.108.744zm.128-1.312 1.897-.633c-.263-.79-.868-1.174-1.213-1.337a3.3 3.3 0 0 0-.964-.268l-.264 1.982-.264 1.982c.064.01-.038.005-.212-.076a1.72 1.72 0 0 1-.877-1.017zm-.544-.256.181-1.992-1.76-.16-.181 1.992-.181 1.992 1.76.16zm-1.76-.16 1.967.364.16-.864-1.967-.364-1.967-.364-.16.864zm.16-.864v2h14.944v-4h-14.944zm14.944 0-1.969-.35-.928 5.216 1.969.35 1.969.35.928-5.216zm-.928 5.216v-2h-.832v4h.832zm-.832 0 1.991-.19-.32-3.36-1.991.19-1.991.19.32 3.36zm-.32-3.36 1.993-.166c-.025-.303-.091-.881-.406-1.407l-1.715 1.029-1.715 1.029a1.5 1.5 0 0 1-.116-.24q-.03-.085-.036-.115c-.008-.034-.003-.027.002.036zm-.128-.544 1.897-.633c-.421-1.265-1.597-1.533-2.082-1.581l-.199 1.99-.199 1.99a1.4 1.4 0 0 1-.553-.19 1.72 1.72 0 0 1-.761-.944zm-.384-.224.434-1.952c-.434-.097-.992-.112-1.49-.112v4q.346 0 .527.012l.121.01c.025.003.012.003-.026-.006zm-1.056-.064v-2h-6.208v4h6.208zm-6.208 0-1.97-.348-1.632 9.248 1.97.348 1.97.348 1.632-9.248zm-1.632 9.248v2h4.288v-4h-4.288zm4.288 0v2c.513 0 .964-.01 1.287-.042l-.199-1.99-.199-1.99c-.104.01-.378.022-.889.022zm1.088-.032.392 1.961c.438-.087 1.018-.287 1.502-.77l-1.414-1.415-1.414-1.414c.27-.27.531-.321.542-.323zm.48-.224 1.536 1.28c.292-.35.49-.751.63-1.087l-1.846-.769-1.846-.77a3 3 0 0 1-.062.135l.004-.006q.01-.017.048-.063zm.32-.576 1.84.785 1.024-2.4-1.84-.785-1.84-.785-1.024 2.4zm1.024-2.4v2h.8v-4h-.8zm.8 0-1.97-.345-1.312 7.488 1.97.345 1.97.345 1.312-7.488zm-1.312 7.488v-2h-.8v4h.8zm-.8 0 1.994-.16-.192-2.4-1.994.16-1.994.16.192 2.4zm-.192-2.4 1.997-.11a3.6 3.6 0 0 0-.197-1.038c-.133-.365-.427-.929-1.064-1.292l-.992 1.736-.992 1.736a1.6 1.6 0 0 1-.712-.812c-.05-.138-.042-.199-.037-.11zm-.256-.704.992-1.736a2.6 2.6 0 0 0-.741-.276 5 5 0 0 0-.509-.075c-.315-.03-.685-.041-1.086-.041v4c.345 0 .573.01.706.023.068.006.078.01.051.005a1.596 1.596 0 0 1-.405-.163zm-1.344-.128v-2h-4.288v4h4.288zm-4.288 0-1.97-.347-1.664 9.44 1.97.347 1.97.347 1.664-9.44zm-1.664 9.44v2h6.592v-4h-6.592zm6.592 0v2c.513 0 .964-.01 1.287-.042l-.199-1.99-.199-1.99c-.104.01-.378.022-.889.022zm1.088-.032.392 1.961c.438-.087 1.018-.287 1.502-.77l-1.414-1.415-1.414-1.414c.27-.27.531-.321.542-.323zm.48-.224 1.536 1.28c.292-.35.49-.751.63-1.087l-1.846-.769-1.846-.77a3 3 0 0 1-.062.135l.004-.006q.01-.017.048-.063zm.32-.576 1.825.817 1.504-3.36-1.825-.817-1.825-.817-1.504 3.36zm1.504-3.36v2h.832v-4h-.832z" mask="url(#b)"/><path fill="#ff0" d="m56 4 2.706 11.225 8.369-7.956zm58 61 .725-.69L62.926 9.834l-.724.69-.725.688 51.798 54.478zM150 196l5.774-10h-11.548zm0-55h-1v46h2v-46zM258 100l-10-5.773v11.547zm-55 0v1h46v-2h-46z"/><circle cx="150" cy="100" r="24" fill="url(#c)"/><path fill="#000" d="m156.512 91-4.064 22.816h-2.624l1.696-9.472q-1.088 1.664-2.304 2.336-1.216.64-2.496.64-1.888 0-3.104-1.152-1.184-1.184-1.6-3.136t.032-4.352l.128-.704q.416-2.24 1.504-3.84t2.624-2.432a6.56 6.56 0 0 1 3.264-.864q1.344 0 2.336.512a4.6 4.6 0 0 1 1.696 1.44q1.056-.608 2.144-1.792zm-11.744 8.512q-.544 3.2.128 4.96.704 1.76 2.24 1.76.64 0 1.408-.352.768-.384 1.632-1.376.896-1.024 1.824-2.912l1.28-7.2q-.576-1.312-1.472-1.888-.864-.576-2.048-.576-1.952 0-3.104 1.536t-1.6 4.224z"/><defs><linearGradient id="a" x1="137.909" x2="137.909" y1="21.185" y2="174.019" gradientUnits="userSpaceOnUse"><stop stop-color="#ff2d42"/><stop offset="1" stop-color="#991b28"/></linearGradient><linearGradient id="c" x1="150" x2="150" y1="76" y2="124" gradientUnits="userSpaceOnUse"><stop stop-color="#66f0ff"/><stop offset="1" stop-color="#3d9099"/></linearGradient></defs></svg>