<svg xmlns="http://www.w3.org/2000/svg" width="300" height="200" fill="none" viewBox="0 0 300 200"><g clip-path="url(#a)"><path fill="#000" d="M0 0h300v200H0z"/><circle cx="57" cy="77" r="13" fill="url(#b)"/><circle cx="57" cy="77" r="13" fill="url(#c)"/><circle cx="41" cy="89" r="13" fill="url(#d)"/><circle cx="67" cy="89" r="13" fill="url(#e)"/><circle cx="41" cy="89" r="13" fill="url(#f)"/><circle cx="67" cy="89" r="13" fill="url(#g)"/><circle cx="54.5" cy="102.5" r="12.5" fill="url(#h)"/><ellipse cx="79" cy="102.5" fill="url(#i)" rx="13" ry="12.5"/><ellipse cx="249.5" cy="51" fill="url(#j)" rx="12.5" ry="13"/><circle cx="272" cy="51" r="13" fill="url(#k)"/><ellipse cx="260" cy="64.5" fill="url(#l)" rx="13" ry="12.5"/><circle cx="263" cy="144" r="13" fill="url(#m)"/><ellipse cx="106.5" cy="24" fill="url(#n)" opacity=".89" rx="19.5" ry="19"/><circle cx="282" cy="144" r="13" fill="url(#o)"/><ellipse cx="29" cy="102.5" fill="url(#p)" rx="13" ry="12.5"/><circle cx="39" cy="116" r="13" fill="url(#q)"/><ellipse cx="65.5" cy="116" fill="url(#r)" rx="12.5" ry="13"/><ellipse cx="53.5" cy="128" fill="url(#s)" rx="12.5" ry="13"/><path fill="#fff" d="m242 141-8.481-7.836-2.546 11.263zM96 108l-.22.975L233 139.991l.22-.975.221-.976-137.221-31.015z"/><path stroke="url(#t)" stroke-width="4" d="m112.659 49.979 14.34 29.983"/><path stroke="url(#u)" stroke-width="4" d="m122.82 41.739 26.073 31.287"/><path stroke="url(#v)" stroke-width="4" d="m134.056 32.186 29.984 18.251"/><circle cx="122.298" cy="180.298" r="19.625" fill="url(#w)" opacity=".89" transform="rotate(-145.388 122.298 180.298)"/><path stroke="url(#x)" stroke-width="4" d="m130.105 155.944 4.474-28.079"/><path stroke="url(#y)" stroke-width="4" d="m118.945 156.879-3.153-34.698"/><path stroke="url(#z)" stroke-width="4" d="m106.416 158.237-12.242-27.42"/><path fill="#fff" d="m101.696 36.72 1.472-6.784-1.632-17.088h2.784l.64 9.248q.064.768.128 1.824l.128 2.112q.096 1.056.096 1.792h.128q2.24-2.113 3.648-4.384a20 20 0 0 0 2.176-4.864q.8-2.625 1.12-5.728h2.88q-.352 3.296-1.376 6.208-.992 2.88-2.912 5.6-1.92 2.688-5.088 5.472l-1.408 6.592zM117.696 190.72l1.472-6.784-1.632-17.088h2.784l.64 9.248q.064.768.128 1.824l.128 2.112q.096 1.056.096 1.792h.128q2.24-2.112 3.648-4.384a20 20 0 0 0 2.176-4.864q.8-2.624 1.12-5.728h2.88q-.352 3.296-1.376 6.208-.992 2.88-2.912 5.6-1.92 2.688-5.088 5.472l-1.408 6.592zM218 59l-10.89-3.84 2.119 11.35zM96.296 81.72l.184.983 112.856-21.068-.183-.983-.184-.983L96.113 80.737z"/></g><defs><linearGradient id="b" x1="57" x2="57" y1="64" y2="90" gradientUnits="userSpaceOnUse"><stop stop-color="#ff2d42"/><stop offset="1" stop-color="#991b28"/></linearGradient><linearGradient id="c" x1="57" x2="57" y1="64" y2="90" gradientUnits="userSpaceOnUse"><stop stop-color="#ff2d42"/><stop offset="1" stop-color="#991b28"/></linearGradient><linearGradient id="d" x1="41" x2="41" y1="76" y2="102" gradientUnits="userSpaceOnUse"><stop stop-color="#ff2d42"/><stop offset="1" stop-color="#991b28"/></linearGradient><linearGradient id="e" x1="67" x2="67" y1="76" y2="102" gradientUnits="userSpaceOnUse"><stop stop-color="#ff2d42"/><stop offset="1" stop-color="#991b28"/></linearGradient><linearGradient id="f" x1="41" x2="41" y1="76" y2="102" gradientUnits="userSpaceOnUse"><stop stop-color="#ff2d42"/><stop offset="1" stop-color="#991b28"/></linearGradient><linearGradient id="g" x1="67" x2="67" y1="76" y2="102" gradientUnits="userSpaceOnUse"><stop stop-color="#ff2d42"/><stop offset="1" stop-color="#991b28"/></linearGradient><linearGradient id="h" x1="54.5" x2="54.5" y1="90" y2="115" gradientUnits="userSpaceOnUse"><stop stop-color="#ff2d42"/><stop offset="1" stop-color="#991b28"/></linearGradient><linearGradient id="i" x1="79" x2="79" y1="90" y2="115" gradientUnits="userSpaceOnUse"><stop stop-color="#ff2d42"/><stop offset="1" stop-color="#991b28"/></linearGradient><linearGradient id="j" x1="249.5" x2="249.5" y1="38" y2="64" gradientUnits="userSpaceOnUse"><stop stop-color="#ff2d42"/><stop offset="1" stop-color="#991b28"/></linearGradient><linearGradient id="k" x1="272" x2="272" y1="38" y2="64" gradientUnits="userSpaceOnUse"><stop stop-color="#ff2d42"/><stop offset="1" stop-color="#991b28"/></linearGradient><linearGradient id="l" x1="260" x2="260" y1="52" y2="77" gradientUnits="userSpaceOnUse"><stop stop-color="#ff2d42"/><stop offset="1" stop-color="#991b28"/></linearGradient><linearGradient id="m" x1="263" x2="263" y1="131" y2="157" gradientUnits="userSpaceOnUse"><stop stop-color="#ff2d42"/><stop offset="1" stop-color="#991b28"/></linearGradient><linearGradient id="n" x1="106.5" x2="106.5" y1="5" y2="43" gradientUnits="userSpaceOnUse"><stop stop-color="#ff2d42"/><stop offset="1" stop-color="#f6bfc4"/></linearGradient><linearGradient id="o" x1="282" x2="282" y1="131" y2="157" gradientUnits="userSpaceOnUse"><stop stop-color="#ff2d42"/><stop offset="1" stop-color="#991b28"/></linearGradient><linearGradient id="p" x1="29" x2="29" y1="90" y2="115" gradientUnits="userSpaceOnUse"><stop stop-color="#ff2d42"/><stop offset="1" stop-color="#991b28"/></linearGradient><linearGradient id="q" x1="39" x2="39" y1="103" y2="129" gradientUnits="userSpaceOnUse"><stop stop-color="#ff2d42"/><stop offset="1" stop-color="#991b28"/></linearGradient><linearGradient id="r" x1="65.5" x2="65.5" y1="103" y2="129" gradientUnits="userSpaceOnUse"><stop stop-color="#ff2d42"/><stop offset="1" stop-color="#991b28"/></linearGradient><linearGradient id="s" x1="53.5" x2="53.5" y1="115" y2="141" gradientUnits="userSpaceOnUse"><stop stop-color="#ff2d42"/><stop offset="1" stop-color="#991b28"/></linearGradient><linearGradient id="t" x1="110.404" x2="124.744" y1="51.057" y2="81.041" gradientUnits="userSpaceOnUse"><stop stop-color="#ff2d42"/><stop offset="1"/></linearGradient><linearGradient id="u" x1="120.9" x2="146.972" y1="43.34" y2="74.627" gradientUnits="userSpaceOnUse"><stop stop-color="#ff2d42"/><stop offset="1"/></linearGradient><linearGradient id="v" x1="132.757" x2="162.74" y1="34.321" y2="52.572" gradientUnits="userSpaceOnUse"><stop stop-color="#ff2d42"/><stop offset="1"/></linearGradient><linearGradient id="w" x1="122.298" x2="122.298" y1="160.674" y2="199.923" gradientUnits="userSpaceOnUse"><stop stop-color="#ff2d42"/><stop offset="1" stop-color="#f6bfc4"/></linearGradient><linearGradient id="x" x1="132.574" x2="137.048" y1="156.337" y2="128.258" gradientUnits="userSpaceOnUse"><stop stop-color="#ff2d42"/><stop offset="1"/></linearGradient><linearGradient id="y" x1="121.435" x2="118.281" y1="156.653" y2="121.955" gradientUnits="userSpaceOnUse"><stop stop-color="#ff2d42"/><stop offset="1"/></linearGradient><linearGradient id="z" x1="108.698" x2="96.457" y1="157.218" y2="129.798" gradientUnits="userSpaceOnUse"><stop stop-color="#ff2d42"/><stop offset="1"/></linearGradient><clipPath id="a"><path fill="#fff" d="M0 0h300v200H0z"/></clipPath></defs></svg>