<svg width="300" height="200" viewBox="0 0 300 200" fill="none" xmlns="http://www.w3.org/2000/svg">
<rect width="300" height="200" fill="black"/>
<line x1="10" y1="92.5" x2="84" y2="92.5" stroke="white" stroke-width="3"/>
<line x1="86" y1="33" x2="86" y2="144" stroke="white" stroke-width="4"/>
<line x1="220" y1="87.5" x2="294" y2="87.5" stroke="white" stroke-width="3"/>
<line y1="-2" x2="111" y2="-2" transform="matrix(4.37114e-08 1 1 -4.37114e-08 220 33)" stroke="white" stroke-width="4"/>
<path d="M195 49L180 40.3398L180 57.6603L195 49ZM120 49L120 50.5L181.5 50.5L181.5 49L181.5 47.5L120 47.5L120 49Z" fill="#FFFF00"/>
<path d="M195 86L180 77.3398L180 94.6603L195 86ZM120 86L120 87.5L181.5 87.5L181.5 86L181.5 84.5L120 84.5L120 86Z" fill="#FFFF00"/>
<path d="M194 124L179 115.34L179 132.66L194 124ZM119 124L119 125.5L180.5 125.5L180.5 124L180.5 122.5L119 122.5L119 124Z" fill="#FFFF00"/>
<path d="M111.468 48.588H104.628L103.404 55.572H102.144L103.368 48.588H96.564L96.78 47.4H103.584L104.808 40.38H106.068L104.844 47.4H111.684L111.468 48.588ZM111.468 91.588H104.628L103.404 98.572H102.144L103.368 91.588H96.564L96.78 90.4H103.584L104.808 83.38H106.068L104.844 90.4H111.684L111.468 91.588ZM111.468 134.588H104.628L103.404 141.572H102.144L103.368 134.588H96.564L96.78 133.4H103.584L104.808 126.38H106.068L104.844 133.4H111.684L111.468 134.588Z" fill="white"/>
<path d="M201.952 48.588L202.168 47.328H211.672L211.456 48.588H201.952ZM201.952 91.588L202.168 90.328H211.672L211.456 91.588H201.952ZM201.952 134.588L202.168 133.328H211.672L211.456 134.588H201.952Z" fill="white"/>
<path d="M62 92L37 77.5662V106.434L62 92Z" fill="#9AF488"/>
<path opacity="0.63" d="M172.879 81.0898C172.932 82.8292 172.967 84.5857 172.984 86.3574L171.986 86.3682C171.995 87.2418 172 88.1192 172 89C172 89.8808 171.995 90.7582 171.986 91.6318L172.984 91.6416C172.967 93.4133 172.932 95.1698 172.879 96.9092L171.881 96.8789C171.827 98.6493 171.754 100.402 171.665 102.135L172.662 102.186C172.571 103.961 172.461 105.716 172.334 107.447L171.338 107.375C171.208 109.144 171.06 110.889 170.895 112.607L171.888 112.702C171.716 114.48 171.525 116.229 171.316 117.947L170.326 117.828C170.112 119.595 169.879 121.329 169.627 123.027L170.614 123.173C170.351 124.947 170.068 126.683 169.767 128.377L168.784 128.203C168.47 129.967 168.135 131.685 167.781 133.353L168.759 133.56C168.383 135.328 167.984 137.041 167.566 138.694L166.6 138.45C166.158 140.199 165.693 141.879 165.208 143.485L166.163 143.773C165.632 145.53 165.075 147.2 164.495 148.778L163.56 148.434C162.927 150.156 162.267 151.762 161.584 153.244L162.49 153.661C161.701 155.373 160.881 156.927 160.029 158.311L159.179 157.787C158.191 159.393 157.174 160.742 156.141 161.822L156.862 162.513C155.485 163.953 154.052 164.97 152.576 165.521L152.228 164.585C151.486 164.862 150.745 165 150 165C149.255 165 148.514 164.862 147.772 164.585L147.423 165.521C145.948 164.97 144.514 163.953 143.137 162.513L143.859 161.822C142.826 160.742 141.809 159.393 140.821 157.787L139.97 158.311C139.118 156.927 138.298 155.373 137.509 153.661L138.416 153.244C137.733 151.762 137.073 150.156 136.44 148.434L135.504 148.778C134.924 147.2 134.367 145.53 133.836 143.773L134.792 143.485C134.307 141.879 133.842 140.199 133.4 138.45L132.433 138.694C132.015 137.041 131.616 135.328 131.24 133.56L132.219 133.353C131.865 131.685 131.53 129.967 131.216 128.203L130.232 128.377C129.931 126.683 129.648 124.947 129.385 123.173L130.373 123.027C130.121 121.329 129.888 119.595 129.674 117.828L128.683 117.947C128.474 116.229 128.283 114.48 128.111 112.702L129.105 112.607C128.94 110.889 128.792 109.144 128.662 107.375L127.665 107.447C127.538 105.716 127.428 103.961 127.337 102.186L128.335 102.135C128.246 100.402 128.173 98.6493 128.119 96.8789L127.12 96.9092C127.067 95.1698 127.032 93.4133 127.015 91.6416L128.014 91.6318C128.005 90.7582 128 89.8808 128 89C128 88.1192 128.005 87.2418 128.014 86.3682L127.015 86.3574C127.032 84.5983 127.067 82.8542 127.119 81.127L127.12 81.0898L128.119 81.1211C128.173 79.3507 128.246 77.5977 128.335 75.8652L127.337 75.8135C127.428 74.038 127.538 72.2834 127.665 70.5518L128.662 70.625C128.792 68.8557 128.94 67.1107 129.105 65.3926L128.111 65.2969C128.283 63.5193 128.474 61.7702 128.683 60.0518L129.674 60.1719C129.888 58.4046 130.121 56.6706 130.373 54.9727L129.385 54.8262C129.648 53.0516 129.931 51.3158 130.232 49.6221L131.216 49.7969C131.53 48.0326 131.865 46.3148 132.219 44.6475L131.24 44.4395C131.616 42.6709 132.015 40.9581 132.433 39.3047L133.4 39.5498C133.842 37.8009 134.307 36.1206 134.792 34.5146L133.836 34.2256C134.367 32.469 134.924 30.7987 135.504 29.2207L136.44 29.5664C137.073 27.8442 137.733 26.2376 138.416 24.7559L137.509 24.3379C138.298 22.6265 139.118 21.0719 139.97 19.6885L140.821 20.2129C141.809 18.6072 142.826 17.2583 143.859 16.1777L143.137 15.4863C144.514 14.0465 145.948 13.0292 147.423 12.4785L147.772 13.415C148.514 13.1383 149.255 13 150 13C150.745 13 151.486 13.1383 152.228 13.415L152.576 12.4785C154.052 13.0291 155.485 14.0465 156.862 15.4863L156.141 16.1777C157.174 17.2583 158.191 18.6072 159.179 20.2129L160.029 19.6885C160.881 21.0719 161.701 22.6265 162.49 24.3379L161.584 24.7559C162.267 26.2376 162.927 27.8442 163.56 29.5664L164.495 29.2207C165.075 30.7987 165.632 32.469 166.163 34.2256L165.208 34.5146C165.693 36.1206 166.158 37.8009 166.6 39.5498L167.566 39.3047C167.984 40.9581 168.383 42.6709 168.759 44.4395H168.76L167.781 44.6475C168.135 46.3148 168.47 48.0326 168.784 49.7969L169.767 49.6221C170.068 51.3158 170.351 53.0516 170.614 54.8262L169.627 54.9727C169.879 56.6706 170.112 58.4046 170.326 60.1719L171.316 60.0518C171.525 61.7702 171.716 63.5193 171.888 65.2969L170.895 65.3926C171.06 67.1107 171.208 68.8557 171.338 70.625L172.334 70.5518C172.461 72.2834 172.571 74.038 172.662 75.8135L171.665 75.8652C171.754 77.5977 171.827 79.3507 171.881 81.1211L172.879 81.0898Z" fill="#C94747" stroke="white" stroke-width="2" stroke-dasharray="5 5"/>
</svg>
