<svg xmlns="http://www.w3.org/2000/svg" width="300" height="200" fill="none" viewBox="0 0 300 200"><path fill="#000" d="M0 0h300v200H0z"/><path stroke="#62ecf0" stroke-width="3" d="M97.125 112S119 98.5 136 98.5s12.625 13.5 12.625 13.5"/><path fill="url(#a)" d="M33 28h224v84H33z" opacity=".83"/><path stroke="#ff2d42" stroke-width="3" d="M44.5 111.5S53 35 70 35s26 76.5 26 76.5 9.5 69 26 69 27-69 27-69S159.5 35 174.25 35s25.25 76.5 25.25 76.5"/><path fill="#ffc2c8" d="M216.384 50.784 215.456 56h-15.328l.16-.832 1.792-.192q.352-.031.512-.096.16-.096.256-.384.096-.32.224-1.088l2.912-16.576q.192-1.12.128-1.312t-.544-.256l-1.76-.16.16-.864h14.944l-.928 5.216h-.832l-.32-3.36q-.032-.384-.128-.544-.065-.192-.384-.224-.288-.064-1.056-.064h-6.208l-1.632 9.248h4.288q.768 0 1.088-.032.32-.064.48-.224.16-.192.32-.576l1.024-2.4h.8l-1.312 7.488h-.8l-.192-2.4q-.032-.576-.256-.704t-1.344-.128h-4.288l-1.664 9.44h6.592q.768 0 1.088-.032.32-.064.48-.224.16-.192.32-.576l1.504-3.36zm11.625 6.57-.077.422q-.364 2.092-1.593 3.264-1.23 1.152-3.149 1.152-1.344 0-2.208-.672-.845-.69-1.171-1.824-.327-1.152-.077-2.534l.077-.442q.384-2.093 1.593-3.245 1.21-1.17 3.111-1.171 1.363 0 2.227.691.864.672 1.19 1.824t.077 2.535m-1.651-.5q.346-1.957-.173-2.956t-1.709-.999q-1.056 0-1.824.845-.748.826-1.075 2.726l-.192 1.172q-.345 1.957.173 2.976.518.998 1.689.998 1.075 0 1.824-.845.768-.845 1.076-2.745z"/><path fill="url(#b)" d="M32.49 112H257l-29.991 26H2.5z" opacity=".83"/><path stroke="#62ecf0" stroke-width="3" d="M44.5 111.5s-8.5 22 8.5 22 43-22 43-22m103.5 0s-26.25 22-41 22-9.5-22-9.5-22"/><path fill="#ff0" d="m273 112-10-5.774v11.548zm-229 0v1h220v-2H44z"/><path fill="#62ecf0" d="m177.808 137.104.16-.864h8.576q2.08 0 3.36.736 1.313.704 1.824 1.92.544 1.184.288 2.656l-.128.896q-.288 1.664-1.408 2.816-1.12 1.12-3.008 1.568 2.08.449 3.04 1.824t.64 3.328l-.16.864q-.352 2.336-2.208 3.744-1.824 1.408-4.96 1.408h-9.696l.16-.832 1.792-.192q.544-.064.672-.256.128-.224.32-1.312l2.912-16.576q.192-1.12.128-1.312t-.544-.256zm8.704.16h-3.488l-1.6 9.152h3.456q3.328 0 4-3.712l.224-1.312q.384-2.016-.288-3.072t-2.304-1.056m-.992 10.176h-4.288l-1.664 9.536h4.256q3.456 0 4.192-3.968l.224-1.312q.384-2.048-.32-3.136-.703-1.12-2.4-1.12m17.301 11.914-.076.422q-.366 2.093-1.594 3.264-1.229 1.152-3.149 1.152-1.344 0-2.208-.672-.844-.691-1.171-1.824-.326-1.152-.077-2.534l.077-.442q.384-2.093 1.594-3.245 1.21-1.171 3.11-1.171 1.363 0 2.227.691.864.672 1.191 1.824.326 1.152.076 2.535m-1.651-.5q.346-1.958-.173-2.956-.518-.999-1.708-.999-1.056 0-1.824.845-.75.825-1.076 2.726l-.192 1.172q-.345 1.958.173 2.976.519.998 1.69.998 1.075 0 1.824-.845.768-.844 1.075-2.745z"/><path fill="#ff0" d="m270 145.168-.16.832h-7.712l.16-.832 1.792-.192q.545-.064.672-.256.128-.224.32-1.312l2.912-16.576q.192-1.12.128-1.312-.064-.224-.544-.256l-1.728-.192.128-.832h7.712l-.128.832-1.792.192q-.511.032-.672.256-.128.192-.32 1.312l-1.568 8.928 9.28-9.12q.928-.928.96-1.12.064-.224-.416-.256l-1.6-.192.128-.832h6.272l-.128.832-1.696.192a1.8 1.8 0 0 0-.544.128q-.192.064-.48.352-.288.256-.928.896l-6.112 6.016 4.256 10.752q.32.768.48 1.088.192.288.352.384.192.065.512.096l1.504.192-.16.832h-4.8l-4.256-11.264-2.944 2.912-1.024 5.76q-.192 1.088-.128 1.312.064.192.544.256z"/><defs><linearGradient id="a" x1="145" x2="145" y1="28" y2="112" gradientUnits="userSpaceOnUse"><stop stop-color="#9f4d4d"/><stop offset="1" stop-color="#391c1c"/></linearGradient><linearGradient id="b" x1="-18.93" x2="257" y1="119.429" y2="119.429" gradientUnits="userSpaceOnUse"><stop stop-color="#62ecf0"/><stop offset="1" stop-color="#39888a"/></linearGradient></defs></svg>