<svg xmlns="http://www.w3.org/2000/svg" width="300" height="200" fill="none" viewBox="0 0 300 200"><g clip-path="url(#a)"><path fill="#000" d="M0 0h300v200H0z"/><path fill="#fff" d="m115 161 5.773-10h-11.547zm0-105h-1v96h2V56z"/><circle cx="114.5" cy="108.5" r="19.5" fill="url(#b)"/><path fill="#fff" d="M119.92 112.864q-1.12 1.952-2.816 2.72-1.697.736-3.36.736-2.208 0-3.68-1.056-1.44-1.056-2.016-2.944-.544-1.92-.096-4.448l.128-.704q.384-2.176 1.472-3.808 1.12-1.663 2.784-2.592 1.696-.928 3.808-.928 1.632 0 2.752.544t1.696 1.44q.576.864.576 1.856 0 1.6-1.152 2.752-1.12 1.152-3.136 1.824-1.984.64-4.608.832l-1.664.128q-.416 3.04.416 4.576.864 1.504 2.816 1.504.768 0 1.664-.288t1.696-.992 1.216-1.952zm-8.928-6.112-.224 1.44 1.472-.096q2.624-.16 4.032-.864t1.952-1.696.544-1.984q0-1.248-.736-1.952-.704-.736-1.984-.736-1.696 0-3.104 1.408-1.408 1.376-1.952 4.48M39.008 43.344q-.705 1.472-1.664 2.144a3.4 3.4 0 0 1-2.048.672q-1.472 0-2.176-1.024t-.288-3.2l1.28-6.272q.48-2.432-.064-3.52t-1.792-1.088q-.768 0-1.728.416-.928.416-1.984 1.472-1.024 1.024-2.144 2.944L24.64 46h-2.624l2.304-13.248q.191-1.088.128-1.28-.064-.224-.544-.288l-1.728-.16.16-.864h4.992l-.576 3.392q1.408-1.984 2.944-2.848 1.567-.864 3.136-.864 2.369 0 3.392 1.568 1.056 1.568.512 4.224l-1.312 6.4q-.32 1.632-.288 2.368.032.705.64.704.544 0 1.088-.544.576-.576.992-1.92zm7.175 2.848-.544 3.168h-6.944l.16-.864q.224-1.185.608-1.888.384-.705 1.056-1.184.704-.511 1.792-1.056 1.632-.833 2.24-1.664.608-.864.608-2.048 0-1.6-1.184-1.6-.993 0-1.504.736-.48.735-.608 2.144l-1.824-.256q0-1.312.96-2.336t2.912-1.024q1.791 0 2.528.8.736.768.736 1.824 0 1.025-.576 1.76-.576.705-1.632 1.312-1.056.576-2.528 1.28-1.088.512-1.696 1.088-.576.608-.832 1.568h4.16q.543 0 .672-.064.16-.064.256-.352l.544-1.344zM39.008 149.344q-.705 1.472-1.664 2.144a3.4 3.4 0 0 1-2.048.672q-1.472 0-2.176-1.024t-.288-3.2l1.28-6.272q.48-2.432-.064-3.52t-1.792-1.088q-.768 0-1.728.416-.928.416-1.984 1.472-1.024 1.024-2.144 2.944L24.64 152h-2.624l2.304-13.248q.191-1.088.128-1.28-.064-.223-.544-.288l-1.728-.16.16-.864h4.992l-.576 3.392q1.408-1.984 2.944-2.848 1.567-.864 3.136-.864 2.369 0 3.392 1.568 1.056 1.567.512 4.224l-1.312 6.4q-.32 1.632-.288 2.368.032.704.64.704.544 0 1.088-.544.576-.576.992-1.92zm1.319-3.552 2.368-1.312h1.6l-1.664 9.376q-.096.544-.064.64.063.096.288.128l.896.096-.128.64H38.95l.128-.64 1.216-.096q.255-.032.32-.128.063-.096.16-.64l1.472-8.192-1.536.864z"/><path stroke="#fff" stroke-width="2" d="M-4 163h300"/><path stroke="url(#c)" stroke-width="4" d="m114.663 83.67-.299-33.551"/><path stroke="url(#d)" stroke-width="4" d="m126.056 86.815-.328-36.797"/><path stroke="url(#e)" stroke-width="4" d="M103.328 87.018 103 50.221"/><path stroke="#fff" stroke-width="2" d="M0 56h300"/><circle cx="232.337" cy="101.187" r="21.528" fill="url(#f)" transform="rotate(-63.434 232.337 101.187)"/><path stroke="url(#g)" stroke-width="4" d="m202.77 112.054-20.124 6.708"/><path stroke="url(#h)" stroke-width="4" d="m211.373 121.681-20.125 6.708"/><path stroke="url(#i)" stroke-width="4" d="m203.757 100.897-20.125 6.708"/><path fill="#fff" d="M238.928 112.32q-.608 0-1.056-.192a1.36 1.36 0 0 1-.672-.576q-.257-.449-.384-1.248l-.928-6.816a38 38 0 0 1-.192-1.312q-.096-.768-.192-1.568a54 54 0 0 1-.16-1.504q-.064-.705-.128-1.216h-.128q-.48 1.152-1.248 2.656a271 271 0 0 1-1.44 2.784L227.824 112h-3.008l9.6-17.216-.384-2.144q-.224-1.409-1.024-2.112-.768-.704-2.304-.704-.576 0-1.024.064t-.8.128l.48-2.24q.32-.096.64-.128.352-.065.736-.096a10 10 0 0 1 .8-.032q1.664 0 2.72.544t1.664 1.696q.64 1.152.928 2.976l2.624 16.16q.096.448.192.704a.85.85 0 0 0 .288.32.9.9 0 0 0 .416.096q.257 0 .48-.064.256-.065.416-.096l-.448 2.08a9 9 0 0 1-.576.192 2.8 2.8 0 0 1-.608.128 3.6 3.6 0 0 1-.704.064"/></g><defs><linearGradient id="b" x1="114.5" x2="114.5" y1="89" y2="128" gradientUnits="userSpaceOnUse"><stop stop-color="#50edff"/><stop offset="1" stop-color="#308e99"/></linearGradient><linearGradient id="c" x1="116.864" x2="117.163" y1="50.097" y2="83.647" gradientUnits="userSpaceOnUse"><stop/><stop offset="1" stop-color="#00828c"/></linearGradient><linearGradient id="d" x1="128.228" x2="128.556" y1="49.995" y2="86.793" gradientUnits="userSpaceOnUse"><stop/><stop offset="1" stop-color="#00828c"/></linearGradient><linearGradient id="e" x1="105.5" x2="105.828" y1="50.198" y2="86.996" gradientUnits="userSpaceOnUse"><stop/><stop offset="1" stop-color="#00828c"/></linearGradient><linearGradient id="f" x1="247.138" x2="215.519" y1="115.988" y2="87.06" gradientUnits="userSpaceOnUse"><stop stop-color="#e93232"/><stop offset="1" stop-color="#831c1c"/></linearGradient><linearGradient id="g" x1="181.855" x2="201.98" y1="116.39" y2="109.682" gradientUnits="userSpaceOnUse"><stop/><stop offset="1" stop-color="#be0000"/></linearGradient><linearGradient id="h" x1="190.458" x2="210.582" y1="126.017" y2="119.309" gradientUnits="userSpaceOnUse"><stop/><stop offset="1" stop-color="#be0000"/></linearGradient><linearGradient id="i" x1="182.842" x2="202.967" y1="105.234" y2="98.526" gradientUnits="userSpaceOnUse"><stop/><stop offset="1" stop-color="#be0000"/></linearGradient><clipPath id="a"><path fill="#fff" d="M0 0h300v200H0z"/></clipPath></defs></svg>