<svg xmlns="http://www.w3.org/2000/svg" width="300" height="200" fill="none" viewBox="0 0 300 200"><g clip-path="url(#a)"><path fill="#000" d="M0 0h300v200H0z"/><path stroke="#fff" stroke-dasharray="5 5" d="M0 104.5h300M0 72.5h300"/><path fill="#fff" d="m115 161 5.774-10h-11.548zm0-70h-1v61h2V91z"/><circle cx="114.5" cy="108.5" r="19.5" fill="url(#b)"/><path fill="#fff" d="M39.008 43.344q-.705 1.472-1.664 2.144a3.4 3.4 0 0 1-2.048.672q-1.472 0-2.176-1.024t-.288-3.2l1.28-6.272q.48-2.432-.064-3.52t-1.792-1.088q-.768 0-1.728.416-.928.416-1.984 1.472-1.024 1.024-2.144 2.944L24.64 46h-2.624l2.304-13.248q.191-1.088.128-1.28-.064-.224-.544-.288l-1.728-.16.16-.864h4.992l-.576 3.392q1.408-1.984 2.944-2.848 1.567-.864 3.136-.864 2.369 0 3.392 1.568 1.056 1.568.512 4.224l-1.312 6.4q-.32 1.632-.288 2.368.032.705.64.704.544 0 1.088-.544.576-.576.992-1.92zM119.92 113.864q-1.12 1.952-2.816 2.72-1.697.736-3.36.736-2.208 0-3.68-1.056-1.44-1.056-2.016-2.944-.544-1.92-.096-4.448l.128-.704q.384-2.176 1.472-3.808 1.12-1.663 2.784-2.592 1.696-.928 3.808-.928 1.632 0 2.752.544t1.696 1.44q.576.864.576 1.856 0 1.6-1.152 2.752-1.12 1.152-3.136 1.824-1.984.64-4.608.832l-1.664.128q-.416 3.04.416 4.576.864 1.504 2.816 1.504.768 0 1.664-.288t1.696-.992 1.216-1.952zm-8.928-6.112-.224 1.44 1.472-.096q2.624-.16 4.032-.864t1.952-1.696.544-1.984q0-1.248-.736-1.952-.704-.736-1.984-.736-1.696 0-3.104 1.408-1.408 1.376-1.952 4.48M27.744 146.112h-1.472l.128-.704q.224-1.376.768-2.304a8 8 0 0 1 1.216-1.6q.705-.672 1.408-1.248.736-.608 1.344-1.312a5.8 5.8 0 0 0 1.024-1.728q.384-.991.384-2.496 0-2.016-.832-2.88-.832-.896-2.176-.896-1.952 0-3.008 1.568-1.055 1.568-1.28 4.544l-2.528-.512a7.95 7.95 0 0 1 .736-3.264q.735-1.504 2.24-2.432 1.536-.928 3.968-.928 2.912 0 4.352 1.408 1.472 1.408 1.472 3.52 0 1.409-.544 2.4a5.7 5.7 0 0 1-1.376 1.728q-.832.736-1.792 1.376-.96.608-1.824 1.312a6.9 6.9 0 0 0-1.472 1.568q-.576.864-.672 2.144zm-1.6 6.208q-.8 0-1.248-.416t-.448-1.184q0-.832.544-1.408t1.44-.576q.768 0 1.216.416.48.416.48 1.184 0 .832-.544 1.408-.545.576-1.44.576"/><path stroke="#fff" stroke-width="2" d="M-4 163h304"/><path stroke="url(#c)" stroke-width="4" d="m114.663 83.67-.299-33.551"/><path stroke="url(#d)" stroke-width="4" d="m126.056 86.815-.328-36.797"/><path stroke="url(#e)" stroke-width="4" d="M103.328 87.018 103 50.221"/><path stroke="#fff" stroke-width="2" d="M0 56h300"/><circle cx="238.5" cy="101.5" r="22.5" fill="url(#f)" opacity=".8" transform="rotate(37.774 238.5 101.5)"/><path stroke="url(#g)" stroke-width="4" d="m211.679 112.881-36 13" opacity=".8"/><path stroke="url(#h)" stroke-width="4" d="m210.679 101.881-36 13" opacity=".8"/><path stroke="url(#i)" stroke-width="4" d="m219.679 120.881-36 13" opacity=".8"/><path fill="#000" d="m236.576 96.328.12-.648h4.584l-.12.648-1.32.12q-.36.048-.48.216-.12.144-.264.96l-1.56 8.856q-.456 2.688-1.92 4.224t-4.056 1.536q-2.832 0-4.128-1.656t-.792-4.488l1.488-8.472q.144-.816.096-.96-.048-.168-.408-.216l-1.32-.12.12-.648h5.784l-.12.648-1.32.12q-.36.048-.48.216-.12.144-.264.96l-1.56 8.856q-.456 2.544.288 3.768t2.736 1.224q2.064 0 3.288-1.272 1.248-1.296 1.68-3.72l1.56-8.856q.144-.816.096-.96-.048-.168-.408-.216zm18.066 1.152-7.2 14.52h-1.632l-2.088-14.52q-.096-.72-.192-.84-.072-.144-.432-.192l-1.224-.12.12-.648h5.592l-.12.648-1.248.12q-.384.048-.456.192-.048.144.048.84l1.776 12.384 6.12-12.384q.36-.696.336-.84 0-.144-.384-.192l-1.224-.12.12-.648h4.44l-.12.648-1.248.12q-.24.024-.384.096-.12.048-.24.264-.12.192-.36.672"/></g><defs><linearGradient id="b" x1="114.5" x2="114.5" y1="89" y2="128" gradientUnits="userSpaceOnUse"><stop stop-color="#50edff"/><stop offset="1" stop-color="#308e99"/></linearGradient><linearGradient id="c" x1="116.864" x2="117.163" y1="50.097" y2="83.647" gradientUnits="userSpaceOnUse"><stop/><stop offset="1" stop-color="#00828c"/></linearGradient><linearGradient id="d" x1="128.228" x2="128.556" y1="49.995" y2="86.793" gradientUnits="userSpaceOnUse"><stop/><stop offset="1" stop-color="#00828c"/></linearGradient><linearGradient id="e" x1="105.5" x2="105.828" y1="50.198" y2="86.996" gradientUnits="userSpaceOnUse"><stop/><stop offset="1" stop-color="#00828c"/></linearGradient><linearGradient id="f" x1="238.5" x2="221.717" y1="79" y2="116.487" gradientUnits="userSpaceOnUse"><stop offset="1" stop-color="#c9a1ef"/></linearGradient><linearGradient id="g" x1="210.83" x2="174.83" y1="110.53" y2="123.53" gradientUnits="userSpaceOnUse"><stop stop-color="#8a2be2"/><stop offset="1"/></linearGradient><linearGradient id="h" x1="209.83" x2="173.83" y1="99.53" y2="112.53" gradientUnits="userSpaceOnUse"><stop stop-color="#8a2be2"/><stop offset="1"/></linearGradient><linearGradient id="i" x1="218.83" x2="182.83" y1="118.53" y2="131.53" gradientUnits="userSpaceOnUse"><stop stop-color="#8a2be2"/><stop offset="1"/></linearGradient><clipPath id="a"><path fill="#fff" d="M0 0h300v200H0z"/></clipPath></defs></svg>