<svg xmlns="http://www.w3.org/2000/svg" width="300" height="200" fill="none" viewBox="0 0 300 200"><path fill="#000" d="M0 0h300v200H0z"/><circle cx="150" cy="100" r="93.5" stroke="#fff"/><circle cx="150.5" cy="100.5" r="52" stroke="#fff" stroke-dasharray="5 5"/><circle cx="196" cy="96" r="15" fill="url(#a)"/><circle cx="181" cy="109" r="15" fill="url(#b)"/><circle cx="211" cy="109" r="15" fill="url(#c)"/><circle cx="196" cy="121" r="15" fill="url(#d)"/><circle cx="56" cy="100" r="18" fill="url(#e)"/><path fill="#fff" d="M60.92 105.864q-1.12 1.952-2.816 2.72-1.695.736-3.36.736-2.208 0-3.68-1.056-1.44-1.056-2.016-2.944-.544-1.92-.096-4.448l.128-.704q.384-2.175 1.472-3.808 1.12-1.664 2.784-2.592 1.695-.928 3.808-.928 1.632 0 2.752.544t1.696 1.44q.576.864.576 1.856 0 1.6-1.152 2.752-1.12 1.152-3.136 1.824-1.985.64-4.608.832l-1.664.128q-.416 3.04.416 4.576.864 1.504 2.816 1.504.768 0 1.664-.288t1.696-.992 1.216-1.952zm-8.928-6.112-.224 1.44 1.472-.096q2.624-.16 4.032-.864 1.409-.705 1.952-1.696.544-.992.544-1.984 0-1.248-.736-1.952-.704-.736-1.984-.736-1.695 0-3.104 1.408-1.409 1.375-1.952 4.48M30 124l5.773-10H24.226zm0-24h-1v15h2v-15zM235 96l-5.774 10h11.548zm-1 24a1 1 0 0 0 2 0h-2m1-15h-1v15h2v-15z"/><defs><linearGradient id="a" x1="196" x2="196" y1="81" y2="111" gradientUnits="userSpaceOnUse"><stop stop-color="#ff5050"/><stop offset="1" stop-color="#ffd8d8"/></linearGradient><linearGradient id="b" x1="181" x2="181" y1="94" y2="124" gradientUnits="userSpaceOnUse"><stop stop-color="#ff5050"/><stop offset="1" stop-color="#ffd8d8"/></linearGradient><linearGradient id="c" x1="211" x2="211" y1="94" y2="124" gradientUnits="userSpaceOnUse"><stop stop-color="#ff5050"/><stop offset="1" stop-color="#ffd8d8"/></linearGradient><linearGradient id="d" x1="196" x2="196" y1="106" y2="136" gradientUnits="userSpaceOnUse"><stop stop-color="#ff5050"/><stop offset="1" stop-color="#ffd8d8"/></linearGradient><linearGradient id="e" x1="56" x2="56" y1="82" y2="118" gradientUnits="userSpaceOnUse"><stop stop-color="#50edff"/><stop offset="1" stop-color="#308e99"/></linearGradient></defs></svg>