<svg xmlns="http://www.w3.org/2000/svg" width="300" height="200" fill="none" viewBox="0 0 300 200"><path fill="#000" d="M0 0h300v200H0z"/><circle cx="150" cy="100" r="93.5" stroke="#fff"/><path fill="#fff" d="m237 134-7.212-9.017-4.204 10.754zm-87-34-.364.931 78.617 30.724.364-.931.364-.931-78.617-30.724z"/><circle cx="150" cy="100" r="28" fill="url(#a)"/><circle cx="56" cy="100" r="18" fill="url(#b)"/><path fill="#fff" d="M150.864 109.32q-1.313 0-2.304-.48a4.5 4.5 0 0 1-1.664-1.376l-1.472 8.352H142.8l3.52-20.064q.192-1.088.128-1.28-.064-.224-.544-.288l-1.728-.192.16-.832h4.992l-.512 2.848q1.12-1.76 2.368-2.464 1.248-.705 2.56-.704 1.92 0 3.104 1.184 1.184 1.152 1.6 3.104t-.032 4.352l-.128.704q-.384 2.24-1.504 3.84-1.088 1.6-2.624 2.464a6.8 6.8 0 0 1-3.296.832m2.432-15.36q-.608 0-1.408.384-.768.352-1.664 1.376-.864.992-1.792 2.944l-1.248 7.2q.576 1.248 1.44 1.824.864.544 2.048.544 1.984 0 3.104-1.504 1.152-1.536 1.6-4.224l.32-1.824q.544-3.232-.16-4.96-.704-1.76-2.24-1.76M215.208 107.16q-1.184 0-1.888-.704-.672-.737-.736-2.208-1.088 1.697-2.336 2.4-1.248.672-2.56.672-1.888 0-3.072-1.152-1.184-1.184-1.6-3.136t.032-4.352l.128-.704q.416-2.24 1.472-3.84 1.088-1.6 2.624-2.432a6.56 6.56 0 0 1 3.264-.864q1.344 0 2.336.544a4.26 4.26 0 0 1 1.664 1.472q.448-.352.864-.8l.832-.896h1.12L215.4 102.2q-.416 2.368-.32 3.136t.608.768q.48 0 1.024-.544.576-.576 1.024-1.92l1.12.704q-.703 1.472-1.632 2.144t-2.016.672m-9.44-7.648q-.544 3.2.128 4.96.703 1.76 2.208 1.76.608 0 1.376-.32.768-.352 1.6-1.28.864-.96 1.76-2.752l1.312-7.552q-.576-1.248-1.44-1.824-.832-.576-1.984-.576-1.952 0-3.104 1.536-1.12 1.536-1.568 4.224zm23.272 8.842-.077.422q-.364 2.092-1.593 3.264-1.229 1.152-3.149 1.152-1.344 0-2.208-.672-.845-.692-1.171-1.824-.326-1.152-.077-2.534l.077-.442q.384-2.093 1.593-3.245 1.21-1.171 3.111-1.171 1.363 0 2.227.691.864.672 1.19 1.824.327 1.152.077 2.535m-1.651-.5q.345-1.958-.173-2.956-.518-.999-1.709-.999-1.056 0-1.824.845-.748.825-1.075 2.726l-.192 1.172q-.345 1.958.173 2.976.519.998 1.69.998 1.074 0 1.824-.845.768-.844 1.075-2.745zM60.92 105.864q-1.12 1.952-2.816 2.72-1.695.736-3.36.736-2.208 0-3.68-1.056-1.44-1.056-2.016-2.944-.544-1.92-.096-4.448l.128-.704q.384-2.175 1.472-3.808 1.12-1.664 2.784-2.592 1.695-.928 3.808-.928 1.632 0 2.752.544t1.696 1.44q.576.864.576 1.856 0 1.6-1.152 2.752-1.12 1.152-3.136 1.824-1.985.64-4.608.832l-1.664.128q-.416 3.04.416 4.576.864 1.504 2.816 1.504.768 0 1.664-.288t1.696-.992 1.216-1.952zm-8.928-6.112-.224 1.44 1.472-.096q2.624-.16 4.032-.864 1.409-.705 1.952-1.696.544-.992.544-1.984 0-1.248-.736-1.952-.704-.736-1.984-.736-1.695 0-3.104 1.408-1.409 1.375-1.952 4.48"/><defs><linearGradient id="a" x1="150" x2="150" y1="72" y2="128" gradientUnits="userSpaceOnUse"><stop stop-color="#ff5050"/><stop offset="1" stop-color="#993030"/></linearGradient><linearGradient id="b" x1="56" x2="56" y1="82" y2="118" gradientUnits="userSpaceOnUse"><stop stop-color="#50edff"/><stop offset="1" stop-color="#308e99"/></linearGradient></defs></svg>