<svg xmlns="http://www.w3.org/2000/svg" width="300" height="200" fill="none" viewBox="0 0 300 200"><g clip-path="url(#a)"><path fill="#000" d="M0 0h300v200H0z"/><path stroke="#fff" stroke-dasharray="5 5" d="M0 104.5h300M0 72.5h300"/><path fill="#fff" d="m115 161 5.774-10h-11.548zm0-70h-1v61h2V91z"/><circle cx="114.5" cy="108.5" r="19.5" fill="url(#b)"/><path fill="#fff" d="M39.008 43.344q-.705 1.472-1.664 2.144a3.4 3.4 0 0 1-2.048.672q-1.472 0-2.176-1.024t-.288-3.2l1.28-6.272q.48-2.432-.064-3.52t-1.792-1.088q-.768 0-1.728.416-.928.416-1.984 1.472-1.024 1.024-2.144 2.944L24.64 46h-2.624l2.304-13.248q.191-1.088.128-1.28-.064-.224-.544-.288l-1.728-.16.16-.864h4.992l-.576 3.392q1.408-1.984 2.944-2.848 1.567-.864 3.136-.864 2.369 0 3.392 1.568 1.056 1.568.512 4.224l-1.312 6.4q-.32 1.632-.288 2.368.032.705.64.704.544 0 1.088-.544.576-.576.992-1.92zM119.92 113.864q-1.12 1.952-2.816 2.72-1.697.736-3.36.736-2.208 0-3.68-1.056-1.44-1.056-2.016-2.944-.544-1.92-.096-4.448l.128-.704q.384-2.176 1.472-3.808 1.12-1.663 2.784-2.592 1.696-.928 3.808-.928 1.632 0 2.752.544t1.696 1.44q.576.864.576 1.856 0 1.6-1.152 2.752-1.12 1.152-3.136 1.824-1.984.64-4.608.832l-1.664.128q-.416 3.04.416 4.576.864 1.504 2.816 1.504.768 0 1.664-.288t1.696-.992 1.216-1.952zm-8.928-6.112-.224 1.44 1.472-.096q2.624-.16 4.032-.864t1.952-1.696.544-1.984q0-1.248-.736-1.952-.704-.736-1.984-.736-1.696 0-3.104 1.408-1.408 1.376-1.952 4.48M22.912 132.896l4.704-2.656h2.272l-3.36 19.168q-.192 1.088-.128 1.312.064.192.544.256l1.728.192-.16.832H20.16l.16-.832 2.432-.192q.512-.032.64-.224.16-.224.352-1.344l3.072-17.568-3.456 1.952z"/><path stroke="#fff" stroke-width="2" d="M-4 163h304"/><path stroke="url(#c)" stroke-width="4" d="m114.663 83.67-.299-33.551"/><path stroke="url(#d)" stroke-width="4" d="m126.056 86.815-.328-36.797"/><path stroke="url(#e)" stroke-width="4" d="M103.328 87.018 103 50.221"/><path stroke="#fff" stroke-width="2" d="M0 56h300"/></g><defs><linearGradient id="b" x1="114.5" x2="114.5" y1="89" y2="128" gradientUnits="userSpaceOnUse"><stop stop-color="#50edff"/><stop offset="1" stop-color="#308e99"/></linearGradient><linearGradient id="c" x1="116.864" x2="117.163" y1="50.097" y2="83.647" gradientUnits="userSpaceOnUse"><stop/><stop offset="1" stop-color="#00828c"/></linearGradient><linearGradient id="d" x1="128.228" x2="128.556" y1="49.995" y2="86.793" gradientUnits="userSpaceOnUse"><stop/><stop offset="1" stop-color="#00828c"/></linearGradient><linearGradient id="e" x1="105.5" x2="105.828" y1="50.198" y2="86.996" gradientUnits="userSpaceOnUse"><stop/><stop offset="1" stop-color="#00828c"/></linearGradient><clipPath id="a"><path fill="#fff" d="M0 0h300v200H0z"/></clipPath></defs></svg>