<svg xmlns="http://www.w3.org/2000/svg" width="300" height="200" fill="none" viewBox="0 0 300 200"><path fill="#000" d="M0 0h300v200H0z"/><path stroke="#fff" stroke-width="2" d="M69.535 67.965a3 3 0 0 1 2.93 0l37.568 21.013a3 3 0 0 1 1.536 2.618v41.808a3 3 0 0 1-1.536 2.618l-37.568 21.013c-.91.509-2.02.509-2.93 0l-37.568-21.013a3 3 0 0 1-1.536-2.618V91.596a3 3 0 0 1 1.536-2.618z"/><path fill="#fff" d="M76.064 16.328v-.648h4.584v.648l-1.32.12q-.384.048-.456.216-.072.144-.072.96V32h-1.176l-8.736-14.736v12.792q0 .816.072.984.072.144.456.192l1.32.144V32h-4.584v-.624l1.32-.144q.384-.048.456-.192.072-.168.072-.984V17.624q0-.816-.072-.96-.072-.168-.456-.216l-1.32-.12v-.648h4.152l7.608 12.864v-10.92q0-.816-.072-.96-.072-.168-.456-.216zm21.802 15.048V32h-5.784v-.624l1.32-.144q.384-.048.456-.192t.072-.984v-5.904h-7.248v5.904q0 .84.072.984t.456.192l1.32.144V32h-5.784v-.624l1.32-.144q.384-.048.456-.192t.072-.984V17.624q0-.84-.072-.984t-.456-.192l-1.32-.12v-.648h5.784v.648l-1.32.12q-.384.048-.456.192t-.072.984v5.76h7.248v-5.76q0-.84-.072-.984t-.456-.192l-1.32-.12v-.648h5.784v.648l-1.32.12q-.384.048-.456.192t-.072.984v12.432q0 .84.072.984t.456.192zm6.566.768h.504v2.376h-5.208v-.648q0-.888.24-1.416t.696-.912q.48-.384 1.128-.768.624-.36 1.152-.816.528-.48.528-1.44 0-1.728-1.176-1.728-1.392 0-1.176 2.16l-1.416-.192a2.06 2.06 0 0 1 .48-1.752q.648-.768 2.112-.768t2.064.696q.624.696.624 1.608t-.48 1.44a3.7 3.7 0 0 1-1.176.816q-.696.288-1.344.624-1.368.696-1.512 2.04h3.12q.408 0 .504-.048.12-.048.144-.264z"/><path stroke="#fff" stroke-linecap="round" stroke-width="2" d="M71 66V37"/><circle cx="71" cy="113" r="24.5" stroke="#fae13e" stroke-width="3"/><path stroke="#88eafb" stroke-width="2" d="M222.535 67.965a3 3 0 0 1 2.93 0l37.568 21.013a3 3 0 0 1 1.536 2.618v41.808a3 3 0 0 1-1.536 2.618l-37.568 21.013c-.91.509-2.02.509-2.93 0l-37.568-21.013a3 3 0 0 1-1.536-2.618V91.596a3 3 0 0 1 1.536-2.618z"/><path fill="#88eafb" d="M226.016 32.24q-3.048 0-4.656-2.04-1.584-2.04-1.584-5.472v-1.8q0-2.256.672-3.936.696-1.68 2.04-2.616t3.288-.936q1.8 0 2.976.72 1.176.696 1.704 1.848.528 1.128.336 2.472l-2.064.504q.264-2.304-.528-3.528-.792-1.248-2.424-1.248-1.824 0-2.784 1.296-.936 1.296-.936 4.224v4.2q0 2.952 1.008 4.248t3 1.296q.792 0 1.512-.264.72-.288 1.224-.96t.624-1.872l1.488.384q-.528 1.92-1.872 2.712-1.32.768-3.024.768m22.319-.864V32h-5.784v-.624l1.32-.144q.384-.048.456-.192.071-.144.071-.984v-5.904h-7.247v5.904q0 .84.072.984t.456.192l1.32.144V32h-5.784v-.624l1.32-.144q.384-.048.456-.192t.071-.984V17.624q0-.84-.071-.984-.072-.144-.456-.192l-1.32-.12v-.648h5.784v.648l-1.32.12q-.384.048-.456.192t-.072.984v5.76h7.247v-5.76q0-.84-.071-.984-.072-.144-.456-.192l-1.32-.12v-.648h5.784v.648l-1.32.12q-.384.048-.456.192t-.072.984v12.432q0 .84.072.984t.456.192zm15.35-8.448v1.8q0 3.504-1.608 5.52-1.608 1.992-4.608 1.992-3.024 0-4.632-1.992-1.584-2.016-1.584-5.52v-1.8q0-3.48 1.584-5.472 1.608-2.016 4.632-2.016 3 0 4.608 2.016 1.608 1.992 1.608 5.472m-2.28-1.2q0-3-1.008-4.248-.984-1.272-2.928-1.272t-2.952 1.272q-.984 1.248-.984 4.248v4.2q0 3 .984 4.272 1.008 1.272 2.952 1.272t2.928-1.272q1.008-1.272 1.008-4.272z"/><path stroke="#88eafb" stroke-linecap="round" stroke-width="2" d="M224 66V37"/><circle cx="224" cy="113" r="24.5" stroke="#fae13e" stroke-width="3"/><path fill="#fff" d="M66.52 190.96V192h-7.6v-1.04l2.16-.24q.44-.04.64-.12.2-.12.36-.48.2-.4.48-1.36l7.72-23.96h2.52l7.8 23.96q.28.96.44 1.36.2.36.4.48.2.08.6.12l2.2.24V192h-9.72v-1.04l2.2-.24q.64-.08.68-.32.08-.28-.36-1.64l-1.64-5.12h-9.76L64 188.76q-.44 1.36-.4 1.64.08.24.72.32zm-.48-8.6H75l-4.48-13.92z"/><path fill="#88eafb" d="M216.92 167.88v-1.08h10.88q3.92 0 5.88 1.84 1.96 1.8 1.96 4.64v1.08q0 2.08-1.24 3.56t-3.48 2.08q2.8.48 4.36 2.12t1.56 4.12v1.08q0 2.92-2.04 4.8-2 1.88-6 1.88h-11.88v-1.04l2.2-.24q.64-.08.76-.32t.12-1.64v-20.72q0-1.4-.12-1.64t-.76-.32zm10.88.2h-4.32v11.44h4.32q4.16 0 4.16-4.84v-1.64q0-4.96-4.16-4.96m1 12.72h-5.32v11.92h5.32q4.36 0 4.36-5.16v-1.64q0-2.48-1.12-3.8-1.08-1.32-3.24-1.32"/></svg>