<svg xmlns="http://www.w3.org/2000/svg" width="300" height="200" fill="none" viewBox="0 0 300 200"><path fill="#000" d="M0 0h300v200H0z"/><path fill="#fff" d="M137.016 81.24q-3.048 0-4.656-2.04-1.584-2.04-1.584-5.472v-1.8q0-2.256.672-3.936.696-1.68 2.04-2.616t3.288-.936q1.8 0 2.976.72 1.176.696 1.704 1.848.528 1.128.336 2.472l-2.064.504q.264-2.304-.528-3.528-.792-1.248-2.424-1.248-1.824 0-2.784 1.296-.936 1.296-.936 4.224v4.2q0 2.952 1.008 4.248t3 1.296q.792 0 1.512-.264.72-.288 1.224-.96t.624-1.872l1.488.384q-.528 1.92-1.872 2.712-1.32.768-3.024.768m22.319-.864V81h-5.784v-.624l1.32-.144q.384-.048.456-.192.071-.144.071-.984v-5.904h-7.247v5.904q0 .84.072.984t.456.192l1.32.144V81h-5.784v-.624l1.32-.144q.384-.048.456-.192t.071-.984V66.624q0-.84-.071-.984-.072-.144-.456-.192l-1.32-.12v-.648h5.784v.648l-1.32.12q-.384.048-.456.192t-.072.984v5.76h7.247v-5.76q0-.84-.071-.984-.072-.144-.456-.192l-1.32-.12v-.648h5.784v.648l-1.32.12q-.384.048-.456.192t-.072.984v12.432q0 .84.072.984t.456.192zM201.016 81.24q-3.048 0-4.656-2.04-1.584-2.04-1.584-5.472v-1.8q0-2.256.672-3.936.696-1.68 2.04-2.616t3.288-.936q1.8 0 2.976.72 1.176.696 1.704 1.848.528 1.128.336 2.472l-2.064.504q.264-2.304-.528-3.528-.792-1.248-2.424-1.248-1.824 0-2.784 1.296-.936 1.296-.936 4.224v4.2q0 2.952 1.008 4.248t3 1.296q.792 0 1.512-.264.72-.288 1.224-.96t.624-1.872l1.488.384q-.528 1.92-1.872 2.712-1.32.768-3.024.768m22.319-.864V81h-5.784v-.624l1.32-.144q.384-.048.456-.192.071-.144.071-.984v-5.904h-7.247v5.904q0 .84.072.984t.456.192l1.32.144V81h-5.784v-.624l1.32-.144q.384-.048.456-.192t.071-.984V66.624q0-.84-.071-.984-.072-.144-.456-.192l-1.32-.12v-.648h5.784v.648l-1.32.12q-.384.048-.456.192t-.072.984v5.76h7.247v-5.76q0-.84-.071-.984-.072-.144-.456-.192l-1.32-.12v-.648h5.784v.648l-1.32.12q-.384.048-.456.192t-.072.984v12.432q0 .84.072.984t.456.192zm6.566.768h.504v2.376h-5.208v-.648q0-.888.24-1.416t.696-.912q.48-.384 1.128-.768.624-.36 1.152-.816.528-.48.528-1.44 0-1.728-1.176-1.728-1.392 0-1.176 2.16l-1.416-.192a2.06 2.06 0 0 1 .48-1.752q.648-.768 2.112-.768t2.064.696q.624.696.624 1.608t-.48 1.44a3.7 3.7 0 0 1-1.176.816q-.696.288-1.344.624-1.368.696-1.512 2.04h3.12q.408 0 .504-.048.12-.048.144-.264z"/><path stroke="#fff" stroke-linecap="round" stroke-width="1.5" d="M189.25 72.75h-21.5"/><path fill="#fff" d="M70.016 81.24q-3.048 0-4.656-2.04-1.584-2.04-1.584-5.472v-1.8q0-2.256.672-3.936.696-1.68 2.04-2.616t3.288-.936q1.8 0 2.976.72 1.176.696 1.704 1.848.528 1.128.336 2.472l-2.064.504q.264-2.304-.528-3.528-.792-1.248-2.424-1.248-1.824 0-2.784 1.296-.936 1.296-.936 4.224v4.2q0 2.952 1.008 4.248t3 1.296q.792 0 1.512-.264.72-.288 1.224-.96t.624-1.872l1.488.384q-.528 1.92-1.872 2.712-1.32.768-3.024.768m22.319-.864V81H86.55v-.624l1.32-.144q.382-.048.456-.192.071-.144.072-.984v-5.904H81.15v5.904q0 .84.072.984.073.144.457.192l1.32.144V81h-5.784v-.624l1.32-.144q.383-.048.456-.192.071-.144.072-.984V66.624q0-.84-.073-.984-.071-.144-.456-.192l-1.32-.12v-.648H83v.648l-1.32.12q-.385.048-.457.192-.071.144-.072.984v5.76h7.248v-5.76q0-.84-.072-.984t-.455-.192l-1.32-.12v-.648h5.784v.648l-1.32.12q-.385.048-.457.192t-.072.984v12.432q0 .84.072.984t.456.192zm6.566.768h.504v2.376h-5.208v-.648q0-.888.24-1.416t.696-.912q.48-.384 1.128-.768.624-.36 1.152-.816.528-.48.528-1.44 0-1.728-1.176-1.728-1.392 0-1.176 2.16l-1.416-.192a2.06 2.06 0 0 1 .48-1.752q.648-.768 2.112-.768t2.064.696q.624.696.624 1.608t-.48 1.44a3.7 3.7 0 0 1-1.176.816q-.696.288-1.344.624-1.368.696-1.512 2.04h3.12q.408 0 .504-.048.12-.048.144-.264zM70.016 134.24q-3.048 0-4.656-2.04-1.584-2.04-1.584-5.472v-1.8q0-2.256.672-3.936.696-1.68 2.04-2.616t3.288-.936q1.8 0 2.976.72 1.176.696 1.704 1.848.528 1.128.336 2.472l-2.064.504q.264-2.304-.528-3.528-.792-1.248-2.424-1.248-1.824 0-2.784 1.296-.936 1.296-.936 4.224v4.2q0 2.952 1.008 4.248t3 1.296q.792 0 1.512-.264.72-.288 1.224-.96t.624-1.872l1.488.384q-.528 1.92-1.872 2.712-1.32.768-3.024.768m17.11-15.912v-.648h4.584v.648l-1.32.12q-.382.048-.456.216-.071.144-.072.96V134h-1.175l-8.736-14.736v12.792q0 .816.072.984.071.144.456.192l1.32.144V134h-4.585v-.624l1.32-.144q.384-.048.456-.192.073-.168.073-.984v-12.432q0-.816-.073-.96-.071-.168-.456-.216l-1.32-.12v-.648h4.153l7.608 12.864v-10.92q0-.816-.072-.96-.073-.168-.457-.216z"/><path stroke="#fff" stroke-linecap="round" stroke-width="2" d="M68 109V88"/><path fill="#fff" d="M137.016 134.24q-3.048 0-4.656-2.04-1.584-2.04-1.584-5.472v-1.8q0-2.256.672-3.936.696-1.68 2.04-2.616t3.288-.936q1.8 0 2.976.72 1.176.696 1.704 1.848.528 1.128.336 2.472l-2.064.504q.264-2.304-.528-3.528-.792-1.248-2.424-1.248-1.824 0-2.784 1.296-.936 1.296-.936 4.224v4.2q0 2.952 1.008 4.248t3 1.296q.792 0 1.512-.264.72-.288 1.224-.96t.624-1.872l1.488.384q-.528 1.92-1.872 2.712-1.32.768-3.024.768m17.111-15.912v-.648h4.584v.648l-1.32.12q-.384.048-.456.216-.072.144-.072.96V134h-1.176l-8.736-14.736v12.792q0 .816.072.984.072.144.456.192l1.32.144V134h-4.584v-.624l1.32-.144q.384-.048.456-.192.072-.168.071-.984v-12.432q0-.816-.071-.96-.072-.168-.456-.216l-1.32-.12v-.648h4.152l7.608 12.864v-10.92q0-.816-.072-.96-.072-.168-.456-.216z"/><path stroke="#fff" stroke-linecap="round" stroke-width="2" d="M135 109V88"/><path fill="#fff" d="M204.016 134.24q-3.048 0-4.656-2.04-1.584-2.04-1.584-5.472v-1.8q0-2.256.672-3.936.696-1.68 2.04-2.616t3.288-.936q1.8 0 2.976.72 1.176.696 1.704 1.848.528 1.128.336 2.472l-2.064.504q.264-2.304-.528-3.528-.792-1.248-2.424-1.248-1.824 0-2.784 1.296-.936 1.296-.936 4.224v4.2q0 2.952 1.008 4.248t3 1.296q.792 0 1.512-.264.72-.288 1.224-.96t.624-1.872l1.488.384q-.528 1.92-1.872 2.712-1.32.768-3.024.768m17.111-15.912v-.648h4.584v.648l-1.32.12q-.384.048-.456.216-.072.144-.072.96V134h-1.176l-8.736-14.736v12.792q0 .816.072.984.072.144.456.192l1.32.144V134h-4.584v-.624l1.32-.144q.384-.048.456-.192.072-.168.071-.984v-12.432q0-.816-.071-.96-.072-.168-.456-.216l-1.32-.12v-.648h4.152l7.608 12.864v-10.92q0-.816-.072-.96-.072-.168-.456-.216z"/><path stroke="#fff" stroke-linecap="round" stroke-width="2" d="M202 109V88"/><path stroke="#fff" stroke-linecap="round" stroke-width="1.5" d="M125.25 72.75h-21.5"/></svg>