<svg xmlns="http://www.w3.org/2000/svg" width="300" height="200" fill="none" viewBox="0 0 300 200"><path fill="#000" d="M0 0h300v200H0z"/><path fill="#88eafb" d="M71.92 161.88v-1.08H82.8q3.92 0 5.88 1.84 1.96 1.8 1.96 4.64v1.08q0 2.08-1.24 3.56T85.92 174q2.8.48 4.36 2.12t1.56 4.12v1.08q0 2.92-2.04 4.8-2 1.88-6 1.88H71.92v-1.04l2.2-.24q.64-.08.76-.32t.12-1.64v-20.72q0-1.4-.12-1.64t-.76-.32zm10.88.2h-4.32v11.44h4.32q4.16 0 4.16-4.84v-1.64q0-4.96-4.16-4.96m1 12.72h-5.32v11.92h5.32q4.36 0 4.36-5.16v-1.64q0-2.48-1.12-3.8-1.08-1.32-3.24-1.32"/><path fill="#fff" d="M217.52 189.96V191h-7.6v-1.04l2.16-.24q.44-.04.64-.12.2-.12.36-.48.2-.4.48-1.36l7.72-23.96h2.52l7.8 23.96q.28.96.44 1.36.2.36.4.48.2.08.6.12l2.2.24V191h-9.72v-1.04l2.2-.24q.64-.08.68-.32.08-.28-.36-1.64l-1.64-5.12h-9.76l-1.64 5.12q-.44 1.36-.4 1.64.08.24.72.32zm-.48-8.6H226l-4.48-13.92z"/><path stroke="#88eafb" stroke-width="2" d="M14.5 137.5H58L76 98h47l24-44h43M80 106h40"/><path stroke="#fff" stroke-width="2" d="M130 143.5h43.5l18-39.5h47l17 39.5h43M195.5 112h40"/></svg>