<svg xmlns="http://www.w3.org/2000/svg" width="300" height="200" fill="none" viewBox="0 0 300 200"><path fill="#000" d="M0 0h300v200H0z"/><path stroke="#fff" stroke-width="2" d="M194.979 137.693a3 3 0 0 0 3.297 1.066l41.062-12.841a3 3 0 0 0 2.105-2.891l-.392-42.25a3 3 0 0 0-2.077-2.826l-41.39-13.382a3 3 0 0 0-3.338 1.075l-25.053 34.023a3 3 0 0 0 .013 3.576zM67.97 103.468a3 3 0 0 1 0-2.936l23.506-41.9a3 3 0 0 1 2.617-1.531h46.814a3 3 0 0 1 2.617 1.532l23.506 41.899a3 3 0 0 1 0 2.936l-23.506 41.899a3 3 0 0 1-2.617 1.532H94.093a3 3 0 0 1-2.617-1.532z"/><circle cx="144.5" cy="143.5" r="11.5" fill="#000"/><path fill="#fff" d="M149.208 140.928v1.8q0 3.504-1.608 5.52-1.608 1.992-4.608 1.992-3.024 0-4.632-1.992-1.584-2.016-1.584-5.52v-1.8q0-3.48 1.584-5.472 1.608-2.016 4.632-2.016 3 0 4.608 2.016 1.608 1.992 1.608 5.472m-2.28-1.2q0-3-1.008-4.248-.984-1.272-2.928-1.272t-2.952 1.272q-.984 1.248-.984 4.248v4.2q0 3 .984 4.272 1.008 1.272 2.952 1.272t2.928-1.272q1.008-1.272 1.008-4.272z"/></svg>