<svg xmlns="http://www.w3.org/2000/svg" width="300" height="200" fill="none" viewBox="0 0 300 200"><g clip-path="url(#a)"><path fill="#000" d="M0 0h300v200H0z"/><path fill="#fff" d="M45.28 73.24q-3.048 0-4.656-2.04-1.584-2.04-1.584-5.472v-1.8q0-2.256.672-3.936.696-1.68 2.04-2.616t3.288-.936q1.8 0 2.976.72 1.176.696 1.704 1.848.528 1.128.336 2.472l-2.064.504q.264-2.304-.528-3.528-.792-1.248-2.424-1.248-1.824 0-2.784 1.296-.936 1.296-.936 4.224v4.2q0 2.952 1.008 4.248t3 1.296q.792 0 1.512-.264.72-.288 1.224-.96t.624-1.872l1.488.384q-.528 1.92-1.872 2.712-1.32.768-3.024.768M95.208 63.928v1.8q0 3.504-1.608 5.52-1.608 1.992-4.608 1.992-3.024 0-4.632-1.992-1.584-2.016-1.584-5.52v-1.8q0-3.48 1.584-5.472 1.608-2.016 4.632-2.016 3 0 4.608 2.016 1.608 1.992 1.608 5.472m-2.28-1.2q0-3-1.008-4.248-.984-1.272-2.928-1.272T86.04 58.48q-.984 1.248-.984 4.248v4.2q0 3 .984 4.272 1.008 1.272 2.952 1.272T91.92 71.2q1.008-1.272 1.008-4.272zM115.024 64.392h-4.56v4.656h-.84v-4.656h-4.536V63.6h4.536v-4.68h.84v4.68h4.56z"/><path fill="#ff3c3c" d="M131.016 72.24q-3.048 0-4.656-2.04-1.584-2.04-1.584-5.472v-1.8q0-2.256.672-3.936.696-1.68 2.04-2.616t3.288-.936q1.8 0 2.976.72 1.176.696 1.704 1.848.528 1.128.336 2.472l-2.064.504q.264-2.304-.528-3.528-.792-1.248-2.424-1.248-1.824 0-2.784 1.296-.936 1.296-.936 4.224v4.2q0 2.952 1.008 4.248t3 1.296q.792 0 1.512-.264.72-.288 1.224-.96t.624-1.872l1.488.384q-.528 1.92-1.872 2.712-1.32.768-3.024.768m17.111-15.912v-.648h4.584v.648l-1.32.12q-.384.048-.456.216-.072.144-.072.96V72h-1.176l-8.736-14.736v12.792q0 .816.072.984.072.144.456.192l1.32.144V72h-4.584v-.624l1.32-.144q.384-.048.456-.192.072-.168.071-.984V57.624q0-.816-.071-.96-.072-.168-.456-.216l-1.32-.12v-.648h4.152l7.608 12.864v-10.92q0-.816-.072-.96-.072-.168-.456-.216zm6.537 3.107v-.504h3.802v.504z"/><path fill="#dbff4c" d="M252.272 143.376V144h-5.784v-.624l1.32-.144q.384-.048.456-.192t.072-.984v-5.904h-7.248v5.904q0 .84.072.984t.456.192l1.32.144V144h-5.784v-.624l1.32-.144q.384-.048.456-.192t.072-.984v-12.432q0-.84-.072-.984t-.456-.192l-1.32-.12v-.648h5.784v.648l-1.32.12q-.384.048-.456.192t-.072.984v5.76h7.248v-5.76q0-.84-.072-.984t-.456-.192l-1.32-.12v-.648h5.784v.648l-1.32.12q-.384.048-.456.192t-.072.984v12.432q0 .84.072.984t.456.192zm8.356-11.941h-2.736v2.794h-.504v-2.794h-2.721v-.475h2.721v-2.808h.504v2.808h2.736zM188.272 118.376V119h-5.784v-.624l1.32-.144q.384-.048.456-.192t.072-.984v-5.904h-7.248v5.904q0 .84.072.984t.456.192l1.32.144V119h-5.784v-.624l1.32-.144q.384-.048.456-.192t.072-.984v-12.432q0-.84-.072-.984t-.456-.192l-1.32-.12v-.648h5.784v.648l-1.32.12q-.384.048-.456.192t-.072.984v5.76h7.248v-5.76q0-.84-.072-.984t-.456-.192l-1.32-.12v-.648h5.784v.648l-1.32.12q-.384.048-.456.192t-.072.984v12.432q0 .84.072.984t.456.192z"/><path fill="#ff2626" d="M269.016 112.24q-3.048 0-4.656-2.04-1.584-2.04-1.584-5.472v-1.8q0-2.256.672-3.936.696-1.68 2.04-2.616t3.288-.936q1.8 0 2.976.72 1.176.696 1.704 1.848.528 1.128.336 2.472l-2.064.504q.264-2.304-.528-3.528-.792-1.248-2.424-1.248-1.824 0-2.784 1.296-.936 1.296-.936 4.224v4.2q0 2.952 1.008 4.248t3 1.296q.792 0 1.512-.264.72-.288 1.224-.96t.624-1.872l1.488.384q-.528 1.92-1.872 2.712-1.32.768-3.024.768m17.111-15.912v-.648h4.584v.648l-1.32.12q-.384.048-.456.216-.072.144-.072.96V112h-1.176l-8.736-14.736v12.792q0 .816.072.984.072.144.456.192l1.32.144V112h-4.584v-.624l1.32-.144q.384-.048.456-.192.072-.168.071-.984V97.624q0-.816-.071-.96-.072-.168-.456-.216l-1.32-.12v-.648h4.152l7.608 12.864v-10.92q0-.816-.072-.96-.072-.168-.456-.216z"/><path fill="#fff" d="M281.208 27.928v1.8q0 3.504-1.608 5.52-1.608 1.992-4.608 1.992-3.024 0-4.632-1.992-1.584-2.016-1.584-5.52v-1.8q0-3.48 1.584-5.472 1.608-2.016 4.632-2.016 3 0 4.608 2.016 1.608 1.992 1.608 5.472m-2.28-1.2q0-3-1.008-4.248-.984-1.272-2.928-1.272t-2.952 1.272q-.984 1.248-.984 4.248v4.2q0 3 .984 4.272 1.008 1.272 2.952 1.272t2.928-1.272q1.008-1.272 1.008-4.272zm5.064-2.293v-.504h3.802v.504z"/><path stroke="#fff" stroke-linecap="round" stroke-width="1.5" d="M30.203 74 15 89.203M30.203 54.264 15 39.061M56.014 61.25h21.5M56.014 68.25h21.5"/><path fill="#fff" d="M242.28 74.24q-3.048 0-4.656-2.04-1.584-2.04-1.584-5.472v-1.8q0-2.256.672-3.936.696-1.68 2.04-2.616t3.288-.936q1.8 0 2.976.72 1.176.696 1.704 1.848.528 1.128.336 2.472l-2.064.504q.264-2.304-.528-3.528-.792-1.248-2.424-1.248-1.824 0-2.784 1.296-.936 1.296-.936 4.224v4.2q0 2.952 1.008 4.248t3 1.296q.792 0 1.512-.264.72-.288 1.224-.96t.624-1.872l1.488.384q-.528 1.92-1.872 2.712-1.32.768-3.024.768"/><path stroke="#fff" stroke-linecap="round" stroke-width="1.5" d="m227.203 75-15.202 15.203M227.203 55.264 212 40.061M256.061 75l15.202 15.203M256.06 56.264l15.203-15.203"/><path fill="#ff3c3c" d="M160.016 194.24q-3.048 0-4.656-2.04-1.584-2.04-1.584-5.472v-1.8q0-2.256.672-3.936.696-1.68 2.04-2.616t3.288-.936q1.8 0 2.976.72 1.176.696 1.704 1.848.528 1.128.336 2.472l-2.064.504q.264-2.304-.528-3.528-.792-1.248-2.424-1.248-1.824 0-2.784 1.296-.936 1.296-.936 4.224v4.2q0 2.952 1.008 4.248t3 1.296q.792 0 1.512-.264.72-.288 1.224-.96t.624-1.872l1.488.384q-.528 1.92-1.872 2.712-1.32.768-3.024.768m17.111-15.912v-.648h4.584v.648l-1.32.12q-.384.048-.456.216-.072.144-.072.96V194h-1.176l-8.736-14.736v12.792q0 .816.072.984.072.144.456.192l1.32.144V194h-4.584v-.624l1.32-.144q.384-.048.456-.192.072-.168.071-.984v-12.432q0-.816-.071-.96-.072-.168-.456-.216l-1.32-.12v-.648h4.152l7.608 12.864v-10.92q0-.816-.072-.96-.072-.168-.456-.216z"/><path fill="#fff" d="M172.208 109.928v1.8q0 3.504-1.608 5.52-1.608 1.992-4.608 1.992-3.024 0-4.632-1.992-1.584-2.016-1.584-5.52v-1.8q0-3.48 1.584-5.472 1.608-2.016 4.632-2.016 3 0 4.608 2.016 1.608 1.992 1.608 5.472m-2.28-1.2q0-3-1.008-4.248-.984-1.272-2.928-1.272t-2.952 1.272q-.984 1.248-.984 4.248v4.2q0 3 .984 4.272 1.008 1.272 2.952 1.272t2.928-1.272q1.008-1.272 1.008-4.272zM133.28 156.24q-3.048 0-4.656-2.04-1.584-2.04-1.584-5.472v-1.8q0-2.256.672-3.936.696-1.68 2.04-2.616t3.288-.936q1.8 0 2.976.72 1.176.696 1.704 1.848.528 1.128.336 2.472l-2.064.504q.264-2.304-.528-3.528-.792-1.248-2.424-1.248-1.824 0-2.784 1.296-.936 1.296-.936 4.224v4.2q0 2.952 1.008 4.248t3 1.296q.792 0 1.512-.264.72-.288 1.224-.96t.624-1.872l1.488.384q-.528 1.92-1.872 2.712-1.32.768-3.024.768"/><path stroke="#fff" stroke-linecap="round" stroke-width="1.5" d="m118.203 157-15.202 15.203M118.203 137.263 103 122.061M147.061 157l15.202 15.203M147.06 138.263l15.203-15.203"/><path fill="#88eafb" d="m214 65-7.5-4.33v8.66zm-52-.75a.75.75 0 0 0 0 1.5v-1.5m45.25.75v-.75H162v1.5h45.25z"/><path fill="#83f3fd" d="m199 147 6.992 5.109.929-8.61zm28.555-47.504a.75.75 0 1 0-1.11 1.008L227 100zm-21.845 48.228-.001.75c6.847.013 17.55-1.977 25.841-12.656l-.592-.46-.593-.46c-7.914 10.194-18.096 12.089-24.653 12.076zm25.248-12.366.592.46c6.707-8.639 5.662-17.784 2.995-24.678-1.333-3.445-3.077-6.35-4.484-8.392a40 40 0 0 0-1.775-2.385 28 28 0 0 0-.715-.85l-.011-.012-.003-.004h-.001c-.001-.001-.001-.001-.556.503l-.555.504.001.002.008.008.032.037.132.151c.116.135.287.338.501.603a38 38 0 0 1 1.707 2.295c1.362 1.976 3.041 4.776 4.32 8.081 2.556 6.606 3.49 15.14-2.781 23.217z"/></g><defs><clipPath id="a"><path fill="#fff" d="M0 0h300v200H0z"/></clipPath></defs></svg>