<svg xmlns="http://www.w3.org/2000/svg" width="300" height="200" fill="none" viewBox="0 0 300 200"><path fill="#000" d="M0 0h300v200H0z"/><path stroke="#fff" stroke-width="2" d="M74.034 68.967a3 3 0 0 1 2.932 0l38.868 21.76a3 3 0 0 1 1.534 2.618v43.31a3 3 0 0 1-1.534 2.617l-38.868 21.761a3 3 0 0 1-2.932 0l-38.868-21.761a3 3 0 0 1-1.534-2.617v-43.31a3 3 0 0 1 1.534-2.617z"/><path fill="#fff" d="M82.208 26.928v1.8q0 3.504-1.608 5.52-1.608 1.992-4.608 1.992-3.024 0-4.632-1.992-1.584-2.016-1.584-5.52v-1.8q0-3.48 1.584-5.472 1.608-2.016 4.632-2.016 3 0 4.608 2.016 1.608 1.992 1.608 5.472m-2.28-1.2q0-3-1.008-4.248-.984-1.272-2.928-1.272T73.04 21.48q-.984 1.248-.984 4.248v4.2q0 3 .984 4.272 1.008 1.272 2.952 1.272T78.92 34.2q1.008-1.272 1.008-4.272zm20.328 9.648V36h-5.784v-.624l1.32-.144q.384-.048.456-.192t.072-.984v-5.904h-7.248v5.904q0 .84.072.984t.456.192l1.32.144V36h-5.784v-.624l1.32-.144q.384-.048.456-.192t.072-.984V21.624q0-.84-.072-.984t-.456-.192l-1.32-.12v-.648h5.784v.648l-1.32.12q-.384.048-.456.192t-.072.984v5.76h7.248v-5.76q0-.84-.072-.984t-.456-.192l-1.32-.12v-.648h5.784v.648l-1.32.12q-.384.048-.456.192t-.072.984v12.432q0 .84.072.984t.456.192z"/><path stroke="#fff" stroke-linecap="round" stroke-width="2" d="M75 69V43M44.366 98.134l30.311-17.5"/><path stroke="#83f3fd" stroke-width="2" d="M220.034 68.967a3 3 0 0 1 2.932 0l38.868 21.76a3 3 0 0 1 1.534 2.618v43.31a3 3 0 0 1-1.534 2.617l-38.868 21.761a3 3 0 0 1-2.932 0l-38.868-21.761a3 3 0 0 1-1.534-2.617v-43.31a3 3 0 0 1 1.534-2.617z"/><path fill="#83f3fd" d="M228.208 26.928v1.8q0 3.504-1.608 5.52-1.608 1.992-4.608 1.992-3.024 0-4.632-1.992-1.584-2.016-1.584-5.52v-1.8q0-3.48 1.584-5.472 1.608-2.016 4.632-2.016 3 0 4.608 2.016 1.608 1.992 1.608 5.472m-2.28-1.2q0-3-1.008-4.248-.984-1.272-2.928-1.272t-2.952 1.272q-.984 1.248-.984 4.248v4.2q0 3 .984 4.272 1.008 1.272 2.952 1.272t2.928-1.272q1.008-1.272 1.008-4.272z"/><path stroke="#83f3fd" stroke-linecap="round" stroke-width="2" d="M218 70V44M225 70V44"/></svg>