<svg xmlns="http://www.w3.org/2000/svg" width="300" height="200" fill="none" viewBox="0 0 300 200"><path fill="#000" d="M0 0h300v200H0z"/><path fill="#fff" d="M151.208 134.928v1.8q0 3.504-1.608 5.52-1.608 1.992-4.608 1.992-3.024 0-4.632-1.992-1.584-2.016-1.584-5.52v-1.8q0-3.48 1.584-5.472 1.608-2.016 4.632-2.016 3 0 4.608 2.016 1.608 1.992 1.608 5.472m-2.28-1.2q0-3-1.008-4.248-.984-1.272-2.928-1.272t-2.952 1.272q-.984 1.248-.984 4.248v4.2q0 3 .984 4.272 1.008 1.272 2.952 1.272t2.928-1.272q1.008-1.272 1.008-4.272zM74.016 144.24q-3.048 0-4.656-2.04-1.584-2.04-1.584-5.472v-1.8q0-2.256.672-3.936.696-1.68 2.04-2.616t3.288-.936q1.8 0 2.976.72 1.176.696 1.704 1.848.528 1.128.336 2.472l-2.064.504q.264-2.304-.528-3.528-.792-1.248-2.424-1.248-1.824 0-2.784 1.296-.936 1.296-.936 4.224v4.2q0 2.952 1.008 4.248t3 1.296q.792 0 1.512-.264.72-.288 1.224-.96t.624-1.872l1.488.384q-.528 1.92-1.872 2.712-1.32.768-3.024.768m22.319-.864V144H90.55v-.624l1.32-.144q.382-.048.456-.192.071-.144.072-.984v-5.904H85.15v5.904q0 .84.072.984.073.144.457.192l1.32.144V144h-5.784v-.624l1.32-.144q.383-.048.456-.192.071-.144.072-.984v-12.432q0-.84-.073-.984-.071-.144-.456-.192l-1.32-.12v-.648H87v.648l-1.32.12q-.385.048-.457.192-.071.144-.072.984v5.76h7.248v-5.76q0-.84-.072-.984t-.455-.192l-1.32-.12v-.648h5.784v.648l-1.32.12q-.385.048-.457.192t-.072.984v12.432q0 .84.072.984t.456.192zm3.926-.792h-.432v-.504h.432q.912 0 1.272-.48.384-.504.384-1.272 0-1.584-1.2-1.584-1.416 0-1.2 2.16l-1.416-.192q-.168-.96.456-1.704.648-.768 2.16-.768 1.464 0 2.088.624t.624 1.464q0 1.536-1.632 1.992 1.776.48 1.776 2.16 0 .864-.672 1.512t-2.16.648q-.912 0-1.632-.384-.72-.36-1.008-1.368l.792-.24q.12.864.624 1.176.528.312 1.104.312 1.416 0 1.416-1.656 0-.84-.408-1.368-.384-.528-1.368-.528M195.016 144.24q-3.048 0-4.656-2.04-1.584-2.04-1.584-5.472v-1.8q0-2.256.672-3.936.696-1.68 2.04-2.616t3.288-.936q1.8 0 2.976.72 1.176.696 1.704 1.848.528 1.128.336 2.472l-2.064.504q.264-2.304-.528-3.528-.792-1.248-2.424-1.248-1.824 0-2.784 1.296-.936 1.296-.936 4.224v4.2q0 2.952 1.008 4.248t3 1.296q.792 0 1.512-.264.72-.288 1.224-.96t.624-1.872l1.488.384q-.528 1.92-1.872 2.712-1.32.768-3.024.768m8.831-1.656h-.432v-.504h.432q.912 0 1.272-.48.384-.504.384-1.272 0-1.584-1.2-1.584-1.416 0-1.2 2.16l-1.416-.192q-.168-.96.456-1.704.648-.768 2.16-.768 1.464 0 2.088.624t.624 1.464q0 1.536-1.632 1.992 1.776.48 1.776 2.16 0 .864-.672 1.512t-2.16.648q-.912 0-1.632-.384-.72-.36-1.008-1.368l.792-.24q.12.864.624 1.176.528.312 1.104.312 1.416 0 1.416-1.656 0-.84-.408-1.368-.384-.528-1.368-.528m20.472.792V144h-5.784v-.624l1.32-.144q.384-.048.456-.192t.072-.984v-5.904h-7.248v5.904q0 .84.072.984t.456.192l1.32.144V144h-5.784v-.624l1.32-.144q.384-.048.456-.192t.072-.984v-12.432q0-.84-.072-.984t-.456-.192l-1.32-.12v-.648h5.784v.648l-1.32.12q-.384.048-.456.192t-.072.984v5.76h7.248v-5.76q0-.84-.072-.984t-.456-.192l-1.32-.12v-.648h5.784v.648l-1.32.12q-.384.048-.456.192t-.072.984v12.432q0 .84.072.984t.456.192zm2.414-2.64h-.48v-2.376h5.136v.936a11.8 11.8 0 0 0-1.176 1.872q-.456.96-.72 2.232-.24 1.248-.312 3.12h-1.632q.192-1.44.576-2.592a11.5 11.5 0 0 1 1.08-2.232q.672-1.08 1.656-2.28h-3.288q-.408 0-.504.048t-.144.264z"/><path stroke="#fff" stroke-linecap="round" stroke-width="1.5" d="M129.25 135.75h-21.5M182.25 135.75h-21.5"/><path fill="#88eafb" d="M151.208 68.928v1.8q0 3.504-1.608 5.52-1.608 1.992-4.608 1.992-3.024 0-4.632-1.992-1.584-2.016-1.584-5.52v-1.8q0-3.48 1.584-5.472 1.608-2.016 4.632-2.016 3 0 4.608 2.016 1.608 1.992 1.608 5.472m-2.28-1.2q0-3-1.008-4.248-.984-1.272-2.928-1.272t-2.952 1.272q-.984 1.248-.984 4.248v4.2q0 3 .984 4.272 1.008 1.272 2.952 1.272t2.928-1.272q1.008-1.272 1.008-4.272zM195.016 78.24q-3.048 0-4.656-2.04-1.584-2.04-1.584-5.472v-1.8q0-2.256.672-3.936.696-1.68 2.04-2.616t3.288-.936q1.8 0 2.976.72 1.176.696 1.704 1.848.528 1.128.336 2.472l-2.064.504q.264-2.304-.528-3.528-.792-1.248-2.424-1.248-1.824 0-2.784 1.296-.936 1.296-.936 4.224v4.2q0 2.952 1.008 4.248t3 1.296q.792 0 1.512-.264.72-.288 1.224-.96t.624-1.872l1.488.384q-.528 1.92-1.872 2.712-1.32.768-3.024.768m11.471-.096h.504v2.376h-5.208v-.648q0-.888.24-1.416t.696-.912q.48-.384 1.128-.768.624-.36 1.152-.816.528-.48.528-1.44 0-1.728-1.176-1.728-1.392 0-1.176 2.16l-1.416-.192a2.06 2.06 0 0 1 .48-1.752q.648-.768 2.112-.768t2.064.696q.624.696.624 1.608t-.48 1.44a3.7 3.7 0 0 1-1.176.816q-.696.288-1.344.624-1.368.696-1.512 2.04h3.12q.408 0 .504-.048.12-.048.144-.264zm17.808-.768V78h-5.784v-.624l1.32-.144q.384-.048.456-.192t.072-.984v-5.904h-7.248v5.904q0 .84.072.984t.456.192l1.32.144V78h-5.784v-.624l1.32-.144q.384-.048.456-.192t.072-.984V63.624q0-.84-.072-.984t-.456-.192l-1.32-.12v-.648h5.784v.648l-1.32.12q-.384.048-.456.192t-.072.984v5.76h7.248v-5.76q0-.84-.072-.984t-.456-.192l-1.32-.12v-.648h5.784v.648l-1.32.12q-.384.048-.456.192t-.072.984v12.432q0 .84.072.984t.456.192zm6.447-6h.312v2.04h-3.984l-.144 2.352a2.9 2.9 0 0 1 1.608-.48q1.344 0 2.112.744.768.72.768 1.944 0 1.056-.672 1.848-.648.816-2.184.816-.84 0-1.512-.408-.648-.384-.912-1.272l.768-.24q.144.816.576 1.128t.936.312q1.488 0 1.488-2.184 0-.96-.336-1.56-.312-.624-1.128-.624-.912 0-1.728.72l-.312-.12.24-4.032h3.336q.456 0 .528-.024.096-.048.12-.288zM68.016 78.24q-3.048 0-4.656-2.04-1.584-2.04-1.584-5.472v-1.8q0-2.256.672-3.936.696-1.68 2.04-2.616t3.288-.936q1.8 0 2.976.72 1.176.696 1.704 1.848.528 1.128.336 2.472l-2.064.504q.264-2.304-.528-3.528-.792-1.248-2.424-1.248-1.824 0-2.784 1.296-.936 1.296-.936 4.224v4.2q0 2.952 1.008 4.248t3 1.296q.792 0 1.512-.264.72-.288 1.224-.96t.624-1.872l1.488.384q-.528 1.92-1.872 2.712-1.32.768-3.024.768m11.47-.096h.504v2.376h-5.207v-.648q0-.888.24-1.416t.696-.912q.48-.384 1.128-.768.624-.36 1.152-.816.528-.48.528-1.44 0-1.728-1.177-1.728-1.392 0-1.175 2.16l-1.416-.192a2.06 2.06 0 0 1 .48-1.752q.647-.768 2.111-.768t2.065.696q.623.696.623 1.608t-.48 1.44a3.7 3.7 0 0 1-1.176.816q-.696.288-1.344.624-1.368.696-1.511 2.04h3.12q.407 0 .503-.048.12-.048.144-.264zm17.81-.768V78H91.51v-.624l1.32-.144q.384-.048.456-.192t.072-.984v-5.904h-7.248v5.904q0 .84.072.984t.456.192l1.32.144V78h-5.784v-.624l1.32-.144q.384-.048.456-.192t.072-.984V63.624q0-.84-.072-.984t-.456-.192l-1.32-.12v-.648h5.784v.648l-1.32.12q-.384.048-.456.192t-.072.984v5.76h7.248v-5.76q0-.84-.072-.984t-.456-.192l-1.32-.12v-.648h5.784v.648l-1.32.12q-.384.048-.456.192t-.072.984v12.432q0 .84.072.984t.456.192zm6.446-6h.312v2.04h-3.984l-.144 2.352a2.9 2.9 0 0 1 1.608-.48q1.344 0 2.112.744.768.72.768 1.944 0 1.056-.672 1.848-.648.816-2.184.816-.84 0-1.512-.408-.65-.384-.913-1.272l.769-.24q.144.816.576 1.128t.936.312q1.488 0 1.488-2.184 0-.96-.336-1.56-.312-.624-1.128-.624-.912 0-1.728.72l-.312-.12.24-4.032h3.336q.456 0 .528-.024.096-.048.12-.288z"/><path stroke="#88eafb" stroke-linecap="round" stroke-width="1.5" d="M129.25 69.75h-21.5M182.25 69.75h-21.5"/></svg>