<svg xmlns="http://www.w3.org/2000/svg" width="300" height="200" fill="none" viewBox="0 0 300 200"><path fill="#000" d="M0 0h300v200H0z"/><path stroke="#fff" stroke-width="2" d="M87.417 103.338c1.161-1.965 4.005-1.965 5.166 0l31.096 52.636c1.181 1.999-.261 4.526-2.583 4.526H58.904c-2.323 0-3.764-2.527-2.583-4.526z"/><path fill="#fff" d="M157.016 76.24q-3.048 0-4.656-2.04-1.584-2.04-1.584-5.472v-1.8q0-2.256.672-3.936.696-1.68 2.04-2.616t3.288-.936q1.8 0 2.976.72 1.176.696 1.704 1.848.528 1.128.336 2.472l-2.064.504q.264-2.304-.528-3.528-.792-1.248-2.424-1.248-1.824 0-2.784 1.296-.936 1.296-.936 4.224v4.2q0 2.952 1.008 4.248t3 1.296q.792 0 1.512-.264.72-.288 1.224-.96t.624-1.872l1.488.384q-.528 1.92-1.872 2.712-1.32.768-3.024.768m22.319-.864V76h-5.784v-.624l1.32-.144q.384-.048.456-.192.071-.144.071-.984v-5.904h-7.247v5.904q0 .84.072.984t.456.192l1.32.144V76h-5.784v-.624l1.32-.144q.384-.048.456-.192t.071-.984V61.624q0-.84-.071-.984-.072-.144-.456-.192l-1.32-.12v-.648h5.784v.648l-1.32.12q-.384.048-.456.192t-.072.984v5.76h7.247v-5.76q0-.84-.071-.984-.072-.144-.456-.192l-1.32-.12v-.648h5.784v.648l-1.32.12q-.384.048-.456.192t-.072.984v12.432q0 .84.072.984t.456.192zM221.016 76.24q-3.048 0-4.656-2.04-1.584-2.04-1.584-5.472v-1.8q0-2.256.672-3.936.696-1.68 2.04-2.616t3.288-.936q1.8 0 2.976.72 1.176.696 1.704 1.848.528 1.128.336 2.472l-2.064.504q.264-2.304-.528-3.528-.792-1.248-2.424-1.248-1.824 0-2.784 1.296-.936 1.296-.936 4.224v4.2q0 2.952 1.008 4.248t3 1.296q.792 0 1.512-.264.72-.288 1.224-.96t.624-1.872l1.488.384q-.528 1.92-1.872 2.712-1.32.768-3.024.768m22.319-.864V76h-5.784v-.624l1.32-.144q.384-.048.456-.192.071-.144.071-.984v-5.904h-7.247v5.904q0 .84.072.984t.456.192l1.32.144V76h-5.784v-.624l1.32-.144q.384-.048.456-.192t.071-.984V61.624q0-.84-.071-.984-.072-.144-.456-.192l-1.32-.12v-.648h5.784v.648l-1.32.12q-.384.048-.456.192t-.072.984v5.76h7.247v-5.76q0-.84-.071-.984-.072-.144-.456-.192l-1.32-.12v-.648h5.784v.648l-1.32.12q-.384.048-.456.192t-.072.984v12.432q0 .84.072.984t.456.192zm6.566.768h.504v2.376h-5.208v-.648q0-.888.24-1.416t.696-.912q.48-.384 1.128-.768.624-.36 1.152-.816.528-.48.528-1.44 0-1.728-1.176-1.728-1.392 0-1.176 2.16l-1.416-.192a2.06 2.06 0 0 1 .48-1.752q.648-.768 2.112-.768t2.064.696q.624.696.624 1.608t-.48 1.44a3.7 3.7 0 0 1-1.176.816q-.696.288-1.344.624-1.368.696-1.512 2.04h3.12q.408 0 .504-.048.12-.048.144-.264z"/><path stroke="#fff" stroke-linecap="round" stroke-width="1.5" d="M209.25 64.75h-21.5M209.25 72.75h-21.5"/><path fill="#fff" d="M92.016 76.24q-3.048 0-4.656-2.04-1.584-2.04-1.584-5.472v-1.8q0-2.256.672-3.936.696-1.68 2.04-2.616t3.288-.936q1.8 0 2.976.72 1.176.696 1.704 1.848.528 1.128.336 2.472l-2.064.504q.264-2.304-.528-3.528-.792-1.248-2.424-1.248-1.824 0-2.784 1.296-.936 1.296-.936 4.224v4.2q0 2.952 1.008 4.248t3 1.296q.792 0 1.512-.264.72-.288 1.224-.96t.624-1.872l1.488.384q-.528 1.92-1.872 2.712-1.32.768-3.024.768m22.319-.864V76h-5.784v-.624l1.32-.144q.384-.048.456-.192.071-.144.071-.984v-5.904h-7.247v5.904q0 .84.072.984t.456.192l1.32.144V76h-5.784v-.624l1.32-.144q.384-.048.456-.192t.071-.984V61.624q0-.84-.071-.984-.072-.144-.456-.192l-1.32-.12v-.648h5.784v.648l-1.32.12q-.384.048-.456.192t-.072.984v5.76h7.247v-5.76q0-.84-.071-.984-.072-.144-.456-.192l-1.32-.12v-.648h5.784v.648l-1.32.12q-.384.048-.456.192t-.072.984v12.432q0 .84.072.984t.456.192zm6.566.768h.504v2.376h-5.208v-.648q0-.888.24-1.416t.696-.912q.48-.384 1.128-.768.624-.36 1.152-.816.528-.48.528-1.44 0-1.728-1.176-1.728-1.392 0-1.176 2.16l-1.416-.192a2.06 2.06 0 0 1 .48-1.752q.648-.768 2.112-.768t2.064.696q.624.696.624 1.608t-.48 1.44a3.7 3.7 0 0 1-1.176.816q-.696.288-1.344.624-1.368.696-1.512 2.04h3.12q.408 0 .504-.048.12-.048.144-.264z"/><path stroke="#fff" stroke-linecap="round" stroke-width="2" d="M90 102V81"/><path stroke="#fff" stroke-linecap="round" stroke-width="1.5" d="M145.25 67.75h-21.5"/></svg>