<svg xmlns="http://www.w3.org/2000/svg" width="300" height="200" fill="none" viewBox="0 0 300 200"><path fill="#000" d="M0 0h300v200H0z"/><path fill="#fff" d="M235.016 102.24q-3.048 0-4.656-2.04-1.584-2.04-1.584-5.472v-1.8q0-2.256.672-3.936.696-1.68 2.04-2.616t3.288-.936q1.8 0 2.976.72 1.176.696 1.704 1.848.528 1.128.336 2.472l-2.064.504q.264-2.304-.528-3.528-.792-1.248-2.424-1.248-1.824 0-2.784 1.296-.936 1.296-.936 4.224v4.2q0 2.952 1.008 4.248t3 1.296q.792 0 1.512-.264.72-.288 1.224-.96t.624-1.872l1.488.384q-.528 1.92-1.872 2.712-1.32.768-3.024.768m22.319-.864V102h-5.784v-.624l1.32-.144q.384-.048.456-.192.071-.144.071-.984v-5.904h-7.247v5.904q0 .84.072.984t.456.192l1.32.144V102h-5.784v-.624l1.32-.144q.384-.048.456-.192t.071-.984V87.624q0-.84-.071-.984-.072-.144-.456-.192l-1.32-.12v-.648h5.784v.648l-1.32.12q-.384.048-.456.192t-.072.984v5.76h7.247v-5.76q0-.84-.071-.984-.072-.144-.456-.192l-1.32-.12v-.648h5.784v.648l-1.32.12q-.384.048-.456.192t-.072.984v12.432q0 .84.072.984t.456.192zm3.926-.792h-.432v-.504h.432q.912 0 1.272-.48.384-.504.384-1.272 0-1.584-1.2-1.584-1.416 0-1.2 2.16l-1.416-.192q-.168-.96.456-1.704.648-.768 2.16-.768 1.464 0 2.088.624t.624 1.464q0 1.536-1.632 1.992 1.776.48 1.776 2.16 0 .864-.672 1.512t-2.16.648q-.912 0-1.632-.384-.72-.36-1.008-1.368l.792-.24q.12.864.624 1.176.528.312 1.104.312 1.416 0 1.416-1.656 0-.84-.408-1.368-.384-.528-1.368-.528M61.016 102.24q-3.048 0-4.656-2.04-1.584-2.04-1.584-5.472v-1.8q0-2.256.672-3.936.696-1.68 2.04-2.616t3.288-.936q1.8 0 2.976.72 1.176.696 1.704 1.848.528 1.128.336 2.472l-2.064.504q.264-2.304-.528-3.528-.792-1.248-2.424-1.248-1.824 0-2.784 1.296-.936 1.296-.936 4.224v4.2q0 2.952 1.008 4.248t3 1.296q.792 0 1.512-.264.72-.288 1.224-.96t.624-1.872l1.488.384q-.528 1.92-1.872 2.712-1.32.768-3.024.768m22.319-.864V102H77.55v-.624l1.32-.144q.383-.048.456-.192.071-.144.072-.984v-5.904H72.15v5.904q0 .84.072.984.073.144.457.192l1.32.144V102h-5.784v-.624l1.32-.144q.383-.048.456-.192.071-.144.072-.984V87.624q0-.84-.073-.984-.071-.144-.456-.192l-1.32-.12v-.648H74v.648l-1.32.12q-.385.048-.457.192-.071.144-.072.984v5.76h7.248v-5.76q0-.84-.072-.984t-.455-.192l-1.32-.12v-.648h5.784v.648l-1.32.12q-.385.048-.457.192t-.072.984v12.432q0 .84.072.984t.456.192zm3.926-.792h-.432v-.504h.432q.912 0 1.272-.48.384-.504.384-1.272 0-1.584-1.2-1.584-1.416 0-1.2 2.16l-1.416-.192q-.168-.96.456-1.704.648-.768 2.16-.768 1.464 0 2.088.624t.624 1.464q0 1.536-1.632 1.992 1.776.48 1.776 2.16 0 .864-.672 1.512t-2.16.648q-.912 0-1.632-.384-.72-.36-1.008-1.368l.792-.24q.12.864.624 1.176.528.312 1.104.312 1.416 0 1.416-1.656 0-.84-.408-1.368-.384-.528-1.368-.528M174.016 152.24q-3.048 0-4.656-2.04-1.584-2.04-1.584-5.472v-1.8q0-2.256.672-3.936.696-1.68 2.04-2.616t3.288-.936q1.8 0 2.976.72 1.176.696 1.704 1.848.528 1.128.336 2.472l-2.064.504q.264-2.304-.528-3.528-.792-1.248-2.424-1.248-1.824 0-2.784 1.296-.936 1.296-.936 4.224v4.2q0 2.952 1.008 4.248t3 1.296q.792 0 1.512-.264.72-.288 1.224-.96t.624-1.872l1.488.384q-.528 1.92-1.872 2.712-1.32.768-3.024.768m22.319-.864V152h-5.784v-.624l1.32-.144q.384-.048.456-.192.071-.144.071-.984v-5.904h-7.247v5.904q0 .84.072.984t.456.192l1.32.144V152h-5.784v-.624l1.32-.144q.384-.048.456-.192t.071-.984v-12.432q0-.84-.071-.984-.072-.144-.456-.192l-1.32-.12v-.648h5.784v.648l-1.32.12q-.384.048-.456.192t-.072.984v5.76h7.247v-5.76q0-.84-.071-.984-.072-.144-.456-.192l-1.32-.12v-.648h5.784v.648l-1.32.12q-.384.048-.456.192t-.072.984v12.432q0 .84.072.984t.456.192zm3.926-.792h-.432v-.504h.432q.912 0 1.272-.48.384-.504.384-1.272 0-1.584-1.2-1.584-1.416 0-1.2 2.16l-1.416-.192q-.168-.96.456-1.704.648-.768 2.16-.768 1.464 0 2.088.624t.624 1.464q0 1.536-1.632 1.992 1.776.48 1.776 2.16 0 .864-.672 1.512t-2.16.648q-.912 0-1.632-.384-.72-.36-1.008-1.368l.792-.24q.12.864.624 1.176.528.312 1.104.312 1.416 0 1.416-1.656 0-.84-.408-1.368-.384-.528-1.368-.528M130.016 102.24q-3.048 0-4.656-2.04-1.584-2.04-1.584-5.472v-1.8q0-2.256.672-3.936.696-1.68 2.04-2.616t3.288-.936q1.8 0 2.976.72 1.176.696 1.704 1.848.528 1.128.336 2.472l-2.064.504q.264-2.304-.528-3.528-.792-1.248-2.424-1.248-1.824 0-2.784 1.296-.936 1.296-.936 4.224v4.2q0 2.952 1.008 4.248t3 1.296q.792 0 1.512-.264.72-.288 1.224-.96t.624-1.872l1.488.384q-.528 1.92-1.872 2.712-1.32.768-3.024.768M173.016 102.24q-3.048 0-4.656-2.04-1.584-2.04-1.584-5.472v-1.8q0-2.256.672-3.936.696-1.68 2.04-2.616t3.288-.936q1.8 0 2.976.72 1.176.696 1.704 1.848.528 1.128.336 2.472l-2.064.504q.264-2.304-.528-3.528-.792-1.248-2.424-1.248-1.824 0-2.784 1.296-.936 1.296-.936 4.224v4.2q0 2.952 1.008 4.248t3 1.296q.792 0 1.512-.264.72-.288 1.224-.96t.624-1.872l1.488.384q-.528 1.92-1.872 2.712-1.32.768-3.024.768m22.319-.864V102h-5.784v-.624l1.32-.144q.384-.048.456-.192.071-.144.071-.984v-5.904h-7.247v5.904q0 .84.072.984t.456.192l1.32.144V102h-5.784v-.624l1.32-.144q.384-.048.456-.192t.071-.984V87.624q0-.84-.071-.984-.072-.144-.456-.192l-1.32-.12v-.648h5.784v.648l-1.32.12q-.384.048-.456.192t-.072.984v5.76h7.247v-5.76q0-.84-.071-.984-.072-.144-.456-.192l-1.32-.12v-.648h5.784v.648l-1.32.12q-.384.048-.456.192t-.072.984v12.432q0 .84.072.984t.456.192z"/><path stroke="#fff" stroke-linecap="round" stroke-width="1.5" d="M116.25 93.75h-21.5M129.25 80.25v-21.5M129.25 129.25v-21.5M173.25 129.25v-21.5M161.25 93.75h-21.5M221.25 93.75h-21.5"/><path fill="#fff" d="M129.016 152.24q-3.048 0-4.656-2.04-1.584-2.04-1.584-5.472v-1.8q0-2.256.672-3.936.696-1.68 2.04-2.616t3.288-.936q1.8 0 2.976.72 1.176.696 1.704 1.848.528 1.128.336 2.472l-2.064.504q.264-2.304-.528-3.528-.792-1.248-2.424-1.248-1.824 0-2.784 1.296-.936 1.296-.936 4.224v4.2q0 2.952 1.008 4.248t3 1.296q.792 0 1.512-.264.72-.288 1.224-.96t.624-1.872l1.488.384q-.528 1.92-1.872 2.712-1.32.768-3.024.768m22.319-.864V152h-5.784v-.624l1.32-.144q.384-.048.456-.192.071-.144.071-.984v-5.904h-7.247v5.904q0 .84.072.984t.456.192l1.32.144V152h-5.784v-.624l1.32-.144q.384-.048.456-.192t.071-.984v-12.432q0-.84-.071-.984-.072-.144-.456-.192l-1.32-.12v-.648h5.784v.648l-1.32.12q-.384.048-.456.192t-.072.984v5.76h7.247v-5.76q0-.84-.071-.984-.072-.144-.456-.192l-1.32-.12v-.648h5.784v.648l-1.32.12q-.384.048-.456.192t-.072.984v12.432q0 .84.072.984t.456.192zm3.926-.792h-.432v-.504h.432q.912 0 1.272-.48.384-.504.384-1.272 0-1.584-1.2-1.584-1.416 0-1.2 2.16l-1.416-.192q-.168-.96.456-1.704.648-.768 2.16-.768 1.464 0 2.088.624t.624 1.464q0 1.536-1.632 1.992 1.776.48 1.776 2.16 0 .864-.672 1.512t-2.16.648q-.912 0-1.632-.384-.72-.36-1.008-1.368l.792-.24q.12.864.624 1.176.528.312 1.104.312 1.416 0 1.416-1.656 0-.84-.408-1.368-.384-.528-1.368-.528M131.016 52.24q-3.048 0-4.656-2.04-1.584-2.04-1.584-5.472v-1.8q0-2.256.672-3.936.696-1.68 2.04-2.616t3.288-.936q1.8 0 2.976.72 1.176.696 1.704 1.848.528 1.128.336 2.472l-2.064.504q.264-2.304-.528-3.528-.792-1.248-2.424-1.248-1.824 0-2.784 1.296-.936 1.296-.936 4.224v4.2q0 2.952 1.008 4.248t3 1.296q.792 0 1.512-.264.72-.288 1.224-.96t.624-1.872l1.488.384q-.528 1.92-1.872 2.712-1.32.768-3.024.768m22.319-.864V52h-5.784v-.624l1.32-.144q.384-.048.456-.192.071-.144.071-.984v-5.904h-7.247v5.904q0 .84.072.984t.456.192l1.32.144V52h-5.784v-.624l1.32-.144q.384-.048.456-.192t.071-.984V37.624q0-.84-.071-.984-.072-.144-.456-.192l-1.32-.12v-.648h5.784v.648l-1.32.12q-.384.048-.456.192t-.072.984v5.76h7.247v-5.76q0-.84-.071-.984-.072-.144-.456-.192l-1.32-.12v-.648h5.784v.648l-1.32.12q-.384.048-.456.192t-.072.984v12.432q0 .84.072.984t.456.192zm3.926-.792h-.432v-.504h.432q.912 0 1.272-.48.384-.504.384-1.272 0-1.584-1.2-1.584-1.416 0-1.2 2.16l-1.416-.192q-.168-.96.456-1.704.648-.768 2.16-.768 1.464 0 2.088.624t.624 1.464q0 1.536-1.632 1.992 1.776.48 1.776 2.16 0 .864-.672 1.512t-2.16.648q-.912 0-1.632-.384-.72-.36-1.008-1.368l.792-.24q.12.864.624 1.176.528.312 1.104.312 1.416 0 1.416-1.656 0-.84-.408-1.368-.384-.528-1.368-.528"/><circle cx="179" cy="93" r="32" fill="#71eaff" fill-opacity=".45"/></svg>