<svg xmlns="http://www.w3.org/2000/svg" width="300" height="200" fill="none" viewBox="0 0 300 200"><g clip-path="url(#a)"><path fill="#000" d="M0 0h300v200H0z"/><path stroke="#fff" stroke-width="2" d="M106.535 59.965a3 3 0 0 1 2.93 0l37.568 21.013a3 3 0 0 1 1.536 2.618v41.808a3 3 0 0 1-1.536 2.618l-37.568 21.013c-.91.509-2.02.509-2.93 0l-37.568-21.013a3 3 0 0 1-1.536-2.618V83.596a3 3 0 0 1 1.536-2.618z"/><path fill="#fff" d="M110.016 24.24q-3.048 0-4.656-2.04-1.584-2.04-1.584-5.472v-1.8q0-2.256.672-3.936.696-1.68 2.04-2.616t3.288-.936q1.8 0 2.976.72 1.176.696 1.704 1.848.528 1.128.336 2.472l-2.064.504q.264-2.304-.528-3.528-.792-1.248-2.424-1.248-1.824 0-2.784 1.296-.936 1.296-.936 4.224v4.2q0 2.952 1.008 4.248t3 1.296q.792 0 1.512-.264.72-.288 1.224-.96t.624-1.872l1.488.384q-.528 1.92-1.872 2.712-1.32.768-3.024.768m22.319-.864V24h-5.784v-.624l1.32-.144q.384-.048.456-.192.071-.144.071-.984v-5.904h-7.247v5.904q0 .84.072.984t.456.192l1.32.144V24h-5.784v-.624l1.32-.144q.384-.048.456-.192t.071-.984V9.624q0-.84-.071-.984-.072-.144-.456-.192l-1.32-.12V7.68h5.784v.648l-1.32.12q-.384.048-.456.192t-.072.984v5.76h7.247v-5.76q0-.84-.071-.984-.072-.144-.456-.192l-1.32-.12V7.68h5.784v.648l-1.32.12q-.384.048-.456.192t-.072.984v12.432q0 .84.072.984t.456.192zm6.566.768h.504v2.376h-5.208v-.648q0-.888.24-1.416t.696-.912q.48-.384 1.128-.768.624-.36 1.152-.816.528-.48.528-1.44 0-1.728-1.176-1.728-1.392 0-1.176 2.16l-1.416-.192a2.06 2.06 0 0 1 .48-1.752q.648-.768 2.112-.768t2.064.696q.624.696.624 1.608t-.48 1.44a3.7 3.7 0 0 1-1.176.816q-.696.288-1.344.624-1.368.696-1.512 2.04h3.12q.408 0 .504-.048.12-.048.144-.264zm9.553.096q-3.048 0-4.656-2.04-1.584-2.04-1.584-5.472v-1.8q0-2.256.672-3.936.696-1.68 2.04-2.616t3.288-.936q1.8 0 2.976.72 1.176.696 1.704 1.848.528 1.128.336 2.472l-2.064.504q.264-2.304-.528-3.528-.792-1.248-2.424-1.248-1.824 0-2.784 1.296-.936 1.296-.936 4.224v4.2q0 2.952 1.008 4.248t3 1.296q.792 0 1.512-.264.72-.288 1.224-.96t.624-1.872l1.488.384q-.528 1.92-1.872 2.712-1.32.768-3.024.768m22.318-.864V24h-5.784v-.624l1.32-.144q.384-.048.456-.192t.072-.984v-5.904h-7.248v5.904q0 .84.072.984t.456.192l1.32.144V24h-5.784v-.624l1.32-.144q.384-.048.456-.192t.072-.984V9.624q0-.84-.072-.984t-.456-.192l-1.32-.12V7.68h5.784v.648l-1.32.12q-.384.048-.456.192t-.072.984v5.76h7.248v-5.76q0-.84-.072-.984t-.456-.192l-1.32-.12V7.68h5.784v.648l-1.32.12q-.384.048-.456.192t-.072.984v12.432q0 .84.072.984t.456.192zm6.566.768h.504v2.376h-5.208v-.648q0-.888.24-1.416t.696-.912q.48-.384 1.128-.768.624-.36 1.152-.816.528-.48.528-1.44 0-1.728-1.176-1.728-1.392 0-1.176 2.16l-1.416-.192a2.06 2.06 0 0 1 .48-1.752q.648-.768 2.112-.768t2.064.696q.624.696.624 1.608t-.48 1.44a3.7 3.7 0 0 1-1.176.816q-.696.288-1.344.624-1.368.696-1.512 2.04h3.12q.408 0 .504-.048.12-.048.144-.264zm9.553.096q-3.048 0-4.656-2.04-1.584-2.04-1.584-5.472v-1.8q0-2.256.672-3.936.696-1.68 2.04-2.616t3.288-.936q1.8 0 2.976.72 1.176.696 1.704 1.848.528 1.128.336 2.472l-2.064.504q.264-2.304-.528-3.528-.792-1.248-2.424-1.248-1.824 0-2.784 1.296-.936 1.296-.936 4.224v4.2q0 2.952 1.008 4.248t3 1.296q.792 0 1.512-.264.72-.288 1.224-.96t.624-1.872l1.488.384q-.528 1.92-1.872 2.712-1.32.768-3.024.768m22.319-.864V24h-5.784v-.624l1.32-.144q.384-.048.456-.192.071-.144.071-.984v-5.904h-7.247v5.904q0 .84.072.984t.456.192l1.32.144V24h-5.784v-.624l1.32-.144q.384-.048.456-.192t.072-.984V9.624q0-.84-.072-.984t-.456-.192l-1.32-.12V7.68h5.784v.648l-1.32.12q-.384.048-.456.192t-.072.984v5.76h7.247v-5.76q0-.84-.071-.984-.072-.144-.456-.192l-1.32-.12V7.68h5.784v.648l-1.32.12q-.384.048-.456.192t-.072.984v12.432q0 .84.072.984t.456.192zm6.566.768h.504v2.376h-5.208v-.648q0-.888.24-1.416t.696-.912q.48-.384 1.128-.768.624-.36 1.152-.816.528-.48.528-1.44 0-1.728-1.176-1.728-1.392 0-1.176 2.16l-1.416-.192a2.06 2.06 0 0 1 .48-1.752q.648-.768 2.112-.768t2.064.696q.624.696.624 1.608t-.48 1.44a3.7 3.7 0 0 1-1.176.816q-.696.288-1.344.624-1.368.696-1.512 2.04h3.12q.408 0 .504-.048.12-.048.144-.264zm2.689-15.816V7.68h6.528q2.352 0 3.528 1.104 1.176 1.08 1.176 2.784v.648q0 1.248-.744 2.136t-2.088 1.248q1.68.288 2.616 1.272t.936 2.472v.648q0 1.752-1.224 2.88-1.2 1.128-3.6 1.128h-7.128v-.624l1.32-.144q.384-.048.456-.192t.071-.984V9.624q0-.84-.071-.984-.072-.144-.456-.192zm6.528.12h-2.592v6.864h2.592q2.496 0 2.496-2.904v-.984q0-2.976-2.496-2.976m.6 7.632h-3.192v7.152h3.192q2.616 0 2.616-3.096v-.984q0-1.488-.672-2.28-.648-.792-1.944-.792m7.091-3.312v-.648h3.696v1.92q.84-1.128 1.68-1.632.864-.528 1.752-.528.768 0 1.44.456t1.128 1.464l-1.56.936q-.36-.864-.816-1.2a1.66 1.66 0 0 0-1.008-.336q-.6 0-1.2.384-.576.384-1.296 1.44v7.032q0 .84.072 1.008.072.144.456.168l1.8.144V24h-6.144v-.624l1.32-.144q.384-.048.456-.192t.072-.984v-7.992q0-.84-.072-.984t-.456-.192zM108.016 193.24q-3.048 0-4.656-2.04-1.584-2.04-1.584-5.472v-1.8q0-2.256.672-3.936.696-1.68 2.04-2.616t3.288-.936q1.8 0 2.976.72 1.176.696 1.704 1.848.528 1.128.336 2.472l-2.064.504q.264-2.304-.528-3.528-.792-1.248-2.424-1.248-1.824 0-2.784 1.296-.936 1.296-.936 4.224v4.2q0 2.952 1.008 4.248t3 1.296q.792 0 1.512-.264.72-.288 1.224-.96t.624-1.872l1.488.384q-.528 1.92-1.872 2.712-1.32.768-3.024.768m6.625-17.352v-.648h3.816v15.816q0 .84.072.984t.456.192l1.32.144V193h-5.664v-.624l1.32-.144q.384-.048.456-.192t.072-.984v-13.872q0-.84-.072-.984t-.456-.192z"/><path stroke="#fff" stroke-linecap="round" stroke-width="2" d="M108 58V29M108 170v-19"/><circle cx="108" cy="105" r="24.5" stroke="#fae13e" stroke-width="3"/></g><defs><clipPath id="a"><path fill="#fff" d="M0 0h300v200H0z"/></clipPath></defs></svg>