<svg xmlns="http://www.w3.org/2000/svg" width="300" height="200" fill="none" viewBox="0 0 300 200"><path fill="#000" d="M0 0h300v200H0z"/><path stroke="#88eafb" stroke-linecap="round" stroke-width="2" d="M29 84h78M29 124h78M69 150V60"/><path fill="#88eafb" d="M71.016 55.24q-3.048 0-4.656-2.04-1.584-2.04-1.584-5.472v-1.8q0-2.256.672-3.936.696-1.68 2.04-2.616t3.288-.936q1.8 0 2.976.72 1.176.696 1.704 1.848.528 1.128.336 2.472l-2.064.504q.264-2.304-.528-3.528-.792-1.248-2.424-1.248-1.824 0-2.784 1.296-.936 1.296-.936 4.224v4.2q0 2.952 1.008 4.248t3 1.296q.792 0 1.512-.264.72-.288 1.224-.96t.624-1.872l1.488.384q-.528 1.92-1.872 2.712-1.32.768-3.024.768m22.319-.864V55H87.55v-.624l1.32-.144q.382-.048.456-.192.071-.144.072-.984v-5.904H82.15v5.904q0 .84.072.984.073.144.457.192l1.32.144V55h-5.784v-.624l1.32-.144q.383-.048.456-.192.071-.144.072-.984V40.624q0-.84-.073-.984-.071-.144-.456-.192l-1.32-.12v-.648H84v.648l-1.32.12q-.385.048-.457.192-.071.144-.072.984v5.76h7.248v-5.76q0-.84-.072-.984t-.455-.192l-1.32-.12v-.648h5.784v.648l-1.32.12q-.385.048-.457.192t-.072.984v12.432q0 .84.072.984t.456.192zm15.35-8.448v1.8q0 3.504-1.608 5.52-1.608 1.992-4.608 1.992-3.024 0-4.632-1.992-1.584-2.016-1.584-5.52v-1.8q0-3.48 1.584-5.472 1.608-2.016 4.632-2.016 3 0 4.608 2.016 1.608 1.992 1.608 5.472m-2.28-1.2q0-3-1.008-4.248-.984-1.272-2.928-1.272t-2.952 1.272q-.984 1.248-.984 4.248v4.2q0 3 .984 4.272 1.008 1.272 2.952 1.272t2.928-1.272q1.008-1.272 1.008-4.272zM71.016 174.24q-3.048 0-4.656-2.04-1.584-2.04-1.584-5.472v-1.8q0-2.256.672-3.936.696-1.68 2.04-2.616t3.288-.936q1.8 0 2.976.72 1.176.696 1.704 1.848.528 1.128.336 2.472l-2.064.504q.264-2.304-.528-3.528-.792-1.248-2.424-1.248-1.824 0-2.784 1.296-.936 1.296-.936 4.224v4.2q0 2.952 1.008 4.248t3 1.296q.792 0 1.512-.264.72-.288 1.224-.96t.624-1.872l1.488.384q-.528 1.92-1.872 2.712-1.32.768-3.024.768m22.319-.864V174H87.55v-.624l1.32-.144q.382-.048.456-.192.071-.144.072-.984v-5.904H82.15v5.904q0 .84.072.984.073.144.457.192l1.32.144V174h-5.784v-.624l1.32-.144q.383-.048.456-.192.071-.144.072-.984v-12.432q0-.84-.073-.984-.071-.144-.456-.192l-1.32-.12v-.648H84v.648l-1.32.12q-.385.048-.457.192-.071.144-.072.984v5.76h7.248v-5.76q0-.84-.072-.984t-.455-.192l-1.32-.12v-.648h5.784v.648l-1.32.12q-.385.048-.457.192t-.072.984v12.432q0 .84.072.984t.456.192zm15.35-8.448v1.8q0 3.504-1.608 5.52-1.608 1.992-4.608 1.992-3.024 0-4.632-1.992-1.584-2.016-1.584-5.52v-1.8q0-3.48 1.584-5.472 1.608-2.016 4.632-2.016 3 0 4.608 2.016 1.608 1.992 1.608 5.472m-2.28-1.2q0-3-1.008-4.248-.984-1.272-2.928-1.272t-2.952 1.272q-.984 1.248-.984 4.248v4.2q0 3 .984 4.272 1.008 1.272 2.952 1.272t2.928-1.272q1.008-1.272 1.008-4.272zM26.272 92.376V93h-5.784v-.624l1.32-.144q.384-.048.456-.192t.072-.984v-5.904h-7.248v5.904q0 .84.072.984t.456.192l1.32.144V93h-5.784v-.624l1.32-.144q.384-.048.456-.192t.072-.984V78.624q0-.84-.072-.984t-.456-.192l-1.32-.12v-.648h5.784v.648l-1.32.12q-.384.048-.456.192t-.072.984v5.76h7.248v-5.76q0-.84-.072-.984t-.456-.192l-1.32-.12v-.648h5.784v.648l-1.32.12q-.384.048-.456.192t-.072.984v12.432q0 .84.072.984t.456.192zM26.272 132.376V133h-5.784v-.624l1.32-.144q.384-.048.456-.192t.072-.984v-5.904h-7.248v5.904q0 .84.072.984t.456.192l1.32.144V133h-5.784v-.624l1.32-.144q.384-.048.456-.192t.072-.984v-12.432q0-.84-.072-.984t-.456-.192l-1.32-.12v-.648h5.784v.648l-1.32.12q-.384.048-.456.192t-.072.984v5.76h7.248v-5.76q0-.84-.072-.984t-.456-.192l-1.32-.12v-.648h5.784v.648l-1.32.12q-.384.048-.456.192t-.072.984v12.432q0 .84.072.984t.456.192zM127.208 84.928v1.8q0 3.504-1.608 5.52-1.608 1.992-4.608 1.992-3.024 0-4.632-1.992-1.584-2.016-1.584-5.52v-1.8q0-3.48 1.584-5.472 1.608-2.016 4.632-2.016 3 0 4.608 2.016 1.608 1.992 1.608 5.472m-2.28-1.2q0-3-1.008-4.248-.984-1.272-2.928-1.272t-2.952 1.272q-.984 1.248-.984 4.248v4.2q0 3 .984 4.272 1.008 1.272 2.952 1.272t2.928-1.272q1.008-1.272 1.008-4.272zm20.328 9.648V94h-5.784v-.624l1.32-.144q.384-.048.456-.192t.072-.984v-5.904h-7.248v5.904q0 .84.072.984t.456.192l1.32.144V94h-5.784v-.624l1.32-.144q.384-.048.456-.192t.072-.984V79.624q0-.84-.072-.984t-.456-.192l-1.32-.12v-.648h5.784v.648l-1.32.12q-.384.048-.456.192t-.072.984v5.76h7.248v-5.76q0-.84-.072-.984t-.456-.192l-1.32-.12v-.648h5.784v.648l-1.32.12q-.384.048-.456.192t-.072.984v12.432q0 .84.072.984t.456.192zM127.208 124.928v1.8q0 3.504-1.608 5.52-1.608 1.992-4.608 1.992-3.024 0-4.632-1.992-1.584-2.016-1.584-5.52v-1.8q0-3.48 1.584-5.472 1.608-2.016 4.632-2.016 3 0 4.608 2.016 1.608 1.992 1.608 5.472m-2.28-1.2q0-3-1.008-4.248-.984-1.272-2.928-1.272t-2.952 1.272q-.984 1.248-.984 4.248v4.2q0 3 .984 4.272 1.008 1.272 2.952 1.272t2.928-1.272q1.008-1.272 1.008-4.272zm20.328 9.648V134h-5.784v-.624l1.32-.144q.384-.048.456-.192t.072-.984v-5.904h-7.248v5.904q0 .84.072.984t.456.192l1.32.144V134h-5.784v-.624l1.32-.144q.384-.048.456-.192t.072-.984v-12.432q0-.84-.072-.984t-.456-.192l-1.32-.12v-.648h5.784v.648l-1.32.12q-.384.048-.456.192t-.072.984v5.76h7.248v-5.76q0-.84-.072-.984t-.456-.192l-1.32-.12v-.648h5.784v.648l-1.32.12q-.384.048-.456.192t-.072.984v12.432q0 .84.072.984t.456.192z"/><path stroke="#fff" stroke-linecap="round" stroke-width="2" d="M184 84h73M184 122h73M221 146V61"/><path fill="#fff" d="M224.016 56.24q-3.048 0-4.656-2.04-1.584-2.04-1.584-5.472v-1.8q0-2.256.672-3.936.696-1.68 2.04-2.616t3.288-.936q1.8 0 2.976.72 1.176.696 1.704 1.848.528 1.128.336 2.472l-2.064.504q.264-2.304-.528-3.528-.792-1.248-2.424-1.248-1.824 0-2.784 1.296-.936 1.296-.936 4.224v4.2q0 2.952 1.008 4.248t3 1.296q.792 0 1.512-.264.72-.288 1.224-.96t.624-1.872l1.488.384q-.528 1.92-1.872 2.712-1.32.768-3.024.768m22.319-.864V56h-5.784v-.624l1.32-.144q.384-.048.456-.192.071-.144.071-.984v-5.904h-7.247v5.904q0 .84.072.984t.456.192l1.32.144V56h-5.784v-.624l1.32-.144q.384-.048.456-.192t.071-.984V41.624q0-.84-.071-.984-.072-.144-.456-.192l-1.32-.12v-.648h5.784v.648l-1.32.12q-.384.048-.456.192t-.072.984v5.76h7.247v-5.76q0-.84-.071-.984-.072-.144-.456-.192l-1.32-.12v-.648h5.784v.648l-1.32.12q-.384.048-.456.192t-.072.984v12.432q0 .84.072.984t.456.192zm3.926-.792h-.432v-.504h.432q.912 0 1.272-.48.384-.504.384-1.272 0-1.584-1.2-1.584-1.416 0-1.2 2.16l-1.416-.192q-.168-.96.456-1.704.648-.768 2.16-.768 1.464 0 2.088.624t.624 1.464q0 1.536-1.632 1.992 1.776.48 1.776 2.16 0 .864-.672 1.512t-2.16.648q-.912 0-1.632-.384-.72-.36-1.008-1.368l.792-.24q.12.864.624 1.176.528.312 1.104.312 1.416 0 1.416-1.656 0-.84-.408-1.368-.384-.528-1.368-.528M224.016 170.24q-3.048 0-4.656-2.04-1.584-2.04-1.584-5.472v-1.8q0-2.256.672-3.936.696-1.68 2.04-2.616t3.288-.936q1.8 0 2.976.72 1.176.696 1.704 1.848.528 1.128.336 2.472l-2.064.504q.264-2.304-.528-3.528-.792-1.248-2.424-1.248-1.824 0-2.784 1.296-.936 1.296-.936 4.224v4.2q0 2.952 1.008 4.248t3 1.296q.792 0 1.512-.264.72-.288 1.224-.96t.624-1.872l1.488.384q-.528 1.92-1.872 2.712-1.32.768-3.024.768m22.319-.864V170h-5.784v-.624l1.32-.144q.384-.048.456-.192.071-.144.071-.984v-5.904h-7.247v5.904q0 .84.072.984t.456.192l1.32.144V170h-5.784v-.624l1.32-.144q.384-.048.456-.192t.071-.984v-12.432q0-.84-.071-.984-.072-.144-.456-.192l-1.32-.12v-.648h5.784v.648l-1.32.12q-.384.048-.456.192t-.072.984v5.76h7.247v-5.76q0-.84-.071-.984-.072-.144-.456-.192l-1.32-.12v-.648h5.784v.648l-1.32.12q-.384.048-.456.192t-.072.984v12.432q0 .84.072.984t.456.192zm3.926-.792h-.432v-.504h.432q.912 0 1.272-.48.384-.504.384-1.272 0-1.584-1.2-1.584-1.416 0-1.2 2.16l-1.416-.192q-.168-.96.456-1.704.648-.768 2.16-.768 1.464 0 2.088.624t.624 1.464q0 1.536-1.632 1.992 1.776.48 1.776 2.16 0 .864-.672 1.512t-2.16.648q-.912 0-1.632-.384-.72-.36-1.008-1.368l.792-.24q.12.864.624 1.176.528.312 1.104.312 1.416 0 1.416-1.656 0-.84-.408-1.368-.384-.528-1.368-.528M182.272 93.376V94h-5.784v-.624l1.32-.144q.384-.048.456-.192t.072-.984v-5.904h-7.248v5.904q0 .84.072.984t.456.192l1.32.144V94h-5.784v-.624l1.32-.144q.384-.048.456-.192t.072-.984V79.624q0-.84-.072-.984t-.456-.192l-1.32-.12v-.648h5.784v.648l-1.32.12q-.384.048-.456.192t-.072.984v5.76h7.248v-5.76q0-.84-.072-.984t-.456-.192l-1.32-.12v-.648h5.784v.648l-1.32.12q-.384.048-.456.192t-.072.984v12.432q0 .84.072.984t.456.192zM182.272 130.376V131h-5.784v-.624l1.32-.144q.384-.048.456-.192t.072-.984v-5.904h-7.248v5.904q0 .84.072.984t.456.192l1.32.144V131h-5.784v-.624l1.32-.144q.384-.048.456-.192t.072-.984v-12.432q0-.84-.072-.984t-.456-.192l-1.32-.12v-.648h5.784v.648l-1.32.12q-.384.048-.456.192t-.072.984v5.76h7.248v-5.76q0-.84-.072-.984t-.456-.192l-1.32-.12v-.648h5.784v.648l-1.32.12q-.384.048-.456.192t-.072.984v12.432q0 .84.072.984t.456.192zM271.016 95.24q-3.048 0-4.656-2.04-1.584-2.04-1.584-5.472v-1.8q0-2.256.672-3.936.696-1.68 2.04-2.616t3.288-.936q1.8 0 2.976.72 1.176.696 1.704 1.848.528 1.128.336 2.472l-2.064.504q.264-2.304-.528-3.528-.792-1.248-2.424-1.248-1.824 0-2.784 1.296-.936 1.296-.936 4.224v4.2q0 2.952 1.008 4.248t3 1.296q.792 0 1.512-.264.72-.288 1.224-.96t.624-1.872l1.488.384q-.528 1.92-1.872 2.712-1.32.768-3.024.768m6.625-17.352v-.648h3.816v15.816q0 .84.072.984t.456.192l1.32.144V95h-5.664v-.624l1.32-.144q.384-.048.456-.192t.072-.984V79.184q0-.84-.072-.984t-.456-.192zM271.016 132.24q-3.048 0-4.656-2.04-1.584-2.04-1.584-5.472v-1.8q0-2.256.672-3.936.696-1.68 2.04-2.616t3.288-.936q1.8 0 2.976.72 1.176.696 1.704 1.848.528 1.128.336 2.472l-2.064.504q.264-2.304-.528-3.528-.792-1.248-2.424-1.248-1.824 0-2.784 1.296-.936 1.296-.936 4.224v4.2q0 2.952 1.008 4.248t3 1.296q.792 0 1.512-.264.72-.288 1.224-.96t.624-1.872l1.488.384q-.528 1.92-1.872 2.712-1.32.768-3.024.768m6.625-17.352v-.648h3.816v15.816q0 .84.072.984t.456.192l1.32.144V132h-5.664v-.624l1.32-.144q.384-.048.456-.192t.072-.984v-13.872q0-.84-.072-.984t-.456-.192z"/></svg>