<svg xmlns="http://www.w3.org/2000/svg" width="300" height="200" fill="none" viewBox="0 0 300 200"><path fill="#000" d="M0 0h300v200H0z"/><path fill="#88eafb" d="M84.016 68.24q-3.048 0-4.656-2.04-1.584-2.04-1.584-5.472v-1.8q0-2.256.672-3.936.696-1.68 2.04-2.616t3.288-.936q1.8 0 2.976.72 1.176.696 1.704 1.848.528 1.128.336 2.472l-2.064.504q.264-2.304-.528-3.528-.792-1.248-2.424-1.248-1.824 0-2.784 1.296-.936 1.296-.936 4.224v4.2q0 2.952 1.008 4.248t3 1.296q.792 0 1.512-.264.72-.288 1.224-.96t.624-1.872l1.488.384q-.528 1.92-1.872 2.712-1.32.768-3.024.768M128.272 35.376V36h-5.784v-.624l1.32-.144q.384-.048.456-.192t.072-.984v-5.904h-7.248v5.904q0 .84.072.984t.456.192l1.32.144V36h-5.784v-.624l1.32-.144q.384-.048.456-.192t.072-.984V21.624q0-.84-.072-.984t-.456-.192l-1.32-.12v-.648h5.784v.648l-1.32.12q-.384.048-.456.192t-.072.984v5.76h7.248v-5.76q0-.84-.072-.984t-.456-.192l-1.32-.12v-.648h5.784v.648l-1.32.12q-.384.048-.456.192t-.072.984v12.432q0 .84.072.984t.456.192zM24.016 34.24q-3.048 0-4.656-2.04-1.584-2.04-1.584-5.472v-1.8q0-2.256.672-3.936.696-1.68 2.04-2.616t3.288-.936q1.8 0 2.976.72 1.176.696 1.704 1.848.528 1.128.336 2.472l-2.064.504q.264-2.304-.528-3.528-.792-1.248-2.424-1.248-1.824 0-2.784 1.296-.936 1.296-.936 4.224v4.2q0 2.952 1.008 4.248t3 1.296q.792 0 1.512-.264.72-.288 1.224-.96t.624-1.872l1.488.384q-.528 1.92-1.872 2.712-1.32.768-3.024.768m22.319-.864V34H40.55v-.624l1.32-.144q.385-.048.457-.192.071-.144.072-.984v-5.904H35.15v5.904q0 .84.071.984.072.144.456.192l1.32.144V34h-5.783v-.624l1.32-.144q.384-.048.456-.192.071-.144.072-.984V19.624q0-.84-.073-.984-.071-.144-.456-.192l-1.32-.12v-.648H37v.648l-1.32.12q-.385.048-.457.192-.071.144-.072.984v5.76H42.4v-5.76q0-.84-.072-.984t-.456-.192l-1.32-.12v-.648h5.783v.648l-1.32.12q-.384.048-.456.192-.071.144-.072.984v12.432q0 .84.073.984.071.144.456.192zm3.926-.792h-.432v-.504h.432q.912 0 1.272-.48.384-.504.384-1.272 0-1.584-1.2-1.584-1.416 0-1.2 2.16l-1.416-.192q-.168-.96.456-1.704.648-.768 2.16-.768 1.464 0 2.088.624t.624 1.464q0 1.536-1.632 1.992 1.776.48 1.776 2.16 0 .864-.672 1.512t-2.16.648q-.912 0-1.632-.384-.72-.36-1.008-1.368l.792-.24q.12.864.624 1.176.528.312 1.104.312 1.416 0 1.416-1.656 0-.84-.408-1.368-.384-.528-1.368-.528M87.064 102.328v-.648h4.584v.648l-1.32.12q-.384.048-.456.216-.072.144-.072.96V118h-1.176l-8.736-14.736v12.792q0 .816.072.984.072.144.456.192l1.32.144V118h-4.584v-.624l1.32-.144q.384-.048.456-.192.072-.168.072-.984v-12.432q0-.816-.072-.96-.072-.168-.456-.216l-1.32-.12v-.648h4.152l7.608 12.864v-10.92q0-.816-.072-.96-.072-.168-.456-.216z"/><path stroke="#83f3fd" stroke-linecap="round" stroke-width="1.5" d="M93 49.203 108.203 34"/><path fill="#88eafb" d="M123.208 144.928v1.8q0 3.504-1.608 5.52-1.608 1.992-4.608 1.992-3.024 0-4.632-1.992-1.584-2.016-1.584-5.52v-1.8q0-3.48 1.584-5.472 1.608-2.016 4.632-2.016 3 0 4.608 2.016 1.608 1.992 1.608 5.472m-2.28-1.2q0-3-1.008-4.248-.984-1.272-2.928-1.272t-2.952 1.272q-.984 1.248-.984 4.248v4.2q0 3 .984 4.272 1.008 1.272 2.952 1.272t2.928-1.272q1.008-1.272 1.008-4.272zm20.328 9.648V154h-5.784v-.624l1.32-.144q.384-.048.456-.192t.072-.984v-5.904h-7.248v5.904q0 .84.072.984t.456.192l1.32.144V154h-5.784v-.624l1.32-.144q.384-.048.456-.192t.072-.984v-12.432q0-.84-.072-.984t-.456-.192l-1.32-.12v-.648h5.784v.648l-1.32.12q-.384.048-.456.192t-.072.984v5.76h7.248v-5.76q0-.84-.072-.984t-.456-.192l-1.32-.12v-.648h5.784v.648l-1.32.12q-.384.048-.456.192t-.072.984v12.432q0 .84.072.984t.456.192zM77.52 186.96V188h-7.6v-1.04l2.16-.24q.44-.04.64-.12.2-.12.36-.48.2-.4.48-1.36l7.72-23.96h2.52l7.8 23.96q.28.96.44 1.36.2.36.4.48.2.08.6.12l2.2.24V188h-9.72v-1.04l2.2-.24q.64-.08.68-.32.08-.28-.36-1.64l-1.64-5.12h-9.76L75 184.76q-.44 1.36-.4 1.64.08.24.72.32zm-.48-8.6H86l-4.48-13.92z"/><path fill="#fff" d="M211.92 164.88v-1.08h10.88q3.92 0 5.88 1.84 1.96 1.8 1.96 4.64v1.08q0 2.08-1.24 3.56t-3.48 2.08q2.8.48 4.36 2.12t1.56 4.12v1.08q0 2.92-2.04 4.8-2 1.88-6 1.88h-11.88v-1.04l2.2-.24q.64-.08.76-.32t.12-1.64v-20.72q0-1.4-.12-1.64t-.76-.32zm10.88.2h-4.32v11.44h4.32q4.16 0 4.16-4.84v-1.64q0-4.96-4.16-4.96m1 12.72h-5.32v11.92h5.32q4.36 0 4.36-5.16v-1.64q0-2.48-1.12-3.8-1.08-1.32-3.24-1.32"/><path stroke="#83f3fd" stroke-linecap="round" stroke-width="1.5" d="m93 122.06 15.203 15.203M73.264 49.203 58.06 34M80.25 96.25v-21.5M87.25 96.25v-21.5"/><path fill="#ff959a" fill-opacity=".4" d="M73.857 118.143C76 121 70.073 158.672 55.742 162.253c-14.085 3.52-29.682-12.078-26.163-26.163 3.581-14.331 42.135-20.804 44.278-17.947"/><circle cx="43.5" cy="136.5" r="2.5" fill="#dcff50"/><circle cx="53.5" cy="146.5" r="2.5" fill="#dcff50"/><path fill="#fff" d="M224.016 68.24q-3.048 0-4.656-2.04-1.584-2.04-1.584-5.472v-1.8q0-2.256.672-3.936.696-1.68 2.04-2.616t3.288-.936q1.8 0 2.976.72 1.176.696 1.704 1.848.528 1.128.336 2.472l-2.064.504q.264-2.304-.528-3.528-.792-1.248-2.424-1.248-1.824 0-2.784 1.296-.936 1.296-.936 4.224v4.2q0 2.952 1.008 4.248t3 1.296q.792 0 1.512-.264.72-.288 1.224-.96t.624-1.872l1.488.384q-.528 1.92-1.872 2.712-1.32.768-3.024.768M268.272 35.376V36h-5.784v-.624l1.32-.144q.384-.048.456-.192t.072-.984v-5.904h-7.248v5.904q0 .84.072.984t.456.192l1.32.144V36h-5.784v-.624l1.32-.144q.384-.048.456-.192t.072-.984V21.624q0-.84-.072-.984t-.456-.192l-1.32-.12v-.648h5.784v.648l-1.32.12q-.384.048-.456.192t-.072.984v5.76h7.248v-5.76q0-.84-.072-.984t-.456-.192l-1.32-.12v-.648h5.784v.648l-1.32.12q-.384.048-.456.192t-.072.984v12.432q0 .84.072.984t.456.192zM164.016 34.24q-3.048 0-4.656-2.04-1.584-2.04-1.584-5.472v-1.8q0-2.256.672-3.936.696-1.68 2.04-2.616t3.288-.936q1.8 0 2.976.72 1.176.696 1.704 1.848.528 1.128.336 2.472l-2.064.504q.264-2.304-.528-3.528-.792-1.248-2.424-1.248-1.824 0-2.784 1.296-.936 1.296-.936 4.224v4.2q0 2.952 1.008 4.248t3 1.296q.792 0 1.512-.264.72-.288 1.224-.96t.624-1.872l1.488.384q-.528 1.92-1.872 2.712-1.32.768-3.024.768m22.319-.864V34h-5.784v-.624l1.32-.144q.384-.048.456-.192.071-.144.071-.984v-5.904h-7.247v5.904q0 .84.072.984t.456.192l1.32.144V34h-5.784v-.624l1.32-.144q.384-.048.456-.192t.071-.984V19.624q0-.84-.071-.984-.072-.144-.456-.192l-1.32-.12v-.648h5.784v.648l-1.32.12q-.384.048-.456.192t-.072.984v5.76h7.247v-5.76q0-.84-.071-.984-.072-.144-.456-.192l-1.32-.12v-.648h5.784v.648l-1.32.12q-.384.048-.456.192t-.072.984v12.432q0 .84.072.984t.456.192zm3.926-.792h-.432v-.504h.432q.912 0 1.272-.48.384-.504.384-1.272 0-1.584-1.2-1.584-1.416 0-1.2 2.16l-1.416-.192q-.168-.96.456-1.704.648-.768 2.16-.768 1.464 0 2.088.624t.624 1.464q0 1.536-1.632 1.992 1.776.48 1.776 2.16 0 .864-.672 1.512t-2.16.648q-.912 0-1.632-.384-.72-.36-1.008-1.368l.792-.24q.12.864.624 1.176.528.312 1.104.312 1.416 0 1.416-1.656 0-.84-.408-1.368-.384-.528-1.368-.528M227.064 102.328v-.648h4.584v.648l-1.32.12q-.384.048-.456.216-.072.144-.072.96V118h-1.176l-8.736-14.736v12.792q0 .816.072.984.072.144.456.192l1.32.144V118h-4.584v-.624l1.32-.144q.384-.048.456-.192.072-.168.072-.984v-12.432q0-.816-.072-.96-.072-.168-.456-.216l-1.32-.12v-.648h4.152l7.608 12.864v-10.92q0-.816-.072-.96-.072-.168-.456-.216z"/><path stroke="#fff" stroke-linecap="round" stroke-width="1.5" d="M233 49.203 248.203 34"/><path fill="#fff" d="M176.208 146.928v1.8q0 3.504-1.608 5.52-1.608 1.992-4.608 1.992-3.024 0-4.632-1.992-1.584-2.016-1.584-5.52v-1.8q0-3.48 1.584-5.472 1.608-2.016 4.632-2.016 3 0 4.608 2.016 1.608 1.992 1.608 5.472m-2.28-1.2q0-3-1.008-4.248-.984-1.272-2.928-1.272t-2.952 1.272q-.984 1.248-.984 4.248v4.2q0 3 .984 4.272 1.008 1.272 2.952 1.272t2.928-1.272q1.008-1.272 1.008-4.272zm20.328 9.648V156h-5.784v-.624l1.32-.144q.384-.048.456-.192t.072-.984v-5.904h-7.248v5.904q0 .84.072.984t.456.192l1.32.144V156h-5.784v-.624l1.32-.144q.384-.048.456-.192t.072-.984v-12.432q0-.84-.072-.984t-.456-.192l-1.32-.12v-.648h5.784v.648l-1.32.12q-.384.048-.456.192t-.072.984v5.76h7.248v-5.76q0-.84-.072-.984t-.456-.192l-1.32-.12v-.648h5.784v.648l-1.32.12q-.384.048-.456.192t-.072.984v12.432q0 .84.072.984t.456.192z"/><path stroke="#fff" stroke-linecap="round" stroke-width="1.5" d="m213.264 120.061-15.203 15.202M213.264 49.203 198.061 34M220.25 96.25v-21.5M227.25 96.25v-21.5"/><path fill="#ff959a" fill-opacity=".4" d="M235.105 118.264c-2.143 2.857 3.784 40.529 18.115 44.11 14.085 3.52 29.682-12.078 26.163-26.163-3.581-14.331-42.136-20.804-44.278-17.947"/><circle cx="2.5" cy="2.5" r="2.5" fill="#dcff50" transform="matrix(-1 0 0 1 267.963 134.121)"/><circle cx="2.5" cy="2.5" r="2.5" fill="#dcff50" transform="matrix(-1 0 0 1 257.963 144.121)"/></svg>