<svg xmlns="http://www.w3.org/2000/svg" width="300" height="200" fill="none" viewBox="0 0 300 200"><path fill="#000" d="M0 0h300v200H0z"/><path stroke="#fff" stroke-width="2" d="M114.879 136.693a3 3 0 0 1-3.298 1.066l-41.062-12.841a3 3 0 0 1-2.104-2.891l.392-42.25a3 3 0 0 1 2.077-2.826l41.39-13.382a3 3 0 0 1 3.338 1.075l25.053 34.023a3 3 0 0 1-.013 3.576zM141.97 101.468a3 3 0 0 1 0-2.936l23.506-41.9a3 3 0 0 1 2.617-1.531h46.814c1.086 0 2.087.586 2.618 1.532l23.506 41.9a3 3 0 0 1 0 2.935l-23.506 41.899a3 3 0 0 1-2.618 1.532h-46.814a3 3 0 0 1-2.617-1.532z"/></svg>