<svg xmlns="http://www.w3.org/2000/svg" width="300" height="200" fill="none" viewBox="0 0 300 200"><path fill="#000" d="M0 0h300v200H0z"/><path fill="#fff" d="M44.152 91.328v-.648h6.528q2.352 0 3.528 1.104 1.176 1.08 1.176 2.784v.648q0 1.248-.744 2.136T52.552 98.6q1.68.288 2.616 1.272t.936 2.472v.648q0 1.752-1.224 2.88-1.2 1.128-3.6 1.128h-7.128v-.624l1.32-.144q.384-.048.456-.192t.072-.984V92.624q0-.84-.072-.984t-.456-.192zm6.528.12h-2.592v6.864h2.592q2.496 0 2.496-2.904v-.984q0-2.976-2.496-2.976m.6 7.632h-3.192v7.152h3.192q2.616 0 2.616-3.096v-.984q0-1.488-.672-2.28-.648-.792-1.944-.792m7.091-3.312v-.648h3.696v1.92q.84-1.128 1.68-1.632.864-.528 1.752-.528.768 0 1.44.456t1.128 1.464l-1.56.936q-.36-.864-.816-1.2a1.66 1.66 0 0 0-1.008-.336q-.6 0-1.2.384-.576.384-1.296 1.44v7.032q0 .84.072 1.008.072.144.456.168l1.8.144V107h-6.144v-.624l1.32-.144q.384-.048.456-.192t.072-.984v-7.992q0-.84-.072-.984t-.456-.192zm15.131 11.376h.504v2.376h-5.208v-.648q0-.888.24-1.416t.696-.912q.48-.384 1.128-.768.624-.36 1.152-.816.528-.48.528-1.44 0-1.728-1.176-1.728-1.392 0-1.176 2.16l-1.416-.192a2.06 2.06 0 0 1 .48-1.752q.648-.768 2.112-.768t2.064.696q.624.696.624 1.608t-.48 1.44a3.7 3.7 0 0 1-1.176.816q-.696.288-1.344.624-1.368.696-1.512 2.04h3.12q.408 0 .504-.048.12-.048.144-.264zM221.464 102.248h.624V107h-9.624v-1.272q0-1.656.552-2.76t1.416-1.872a15 15 0 0 1 1.896-1.44 45 45 0 0 0 1.68-1.176q.816-.6 1.344-1.464.552-.888.552-2.208 0-1.824-.72-2.712-.696-.888-1.968-.888-1.656 0-2.304 1.2-.624 1.176-.384 3.384l-2.088-.384q-.24-1.296.192-2.424.456-1.128 1.608-1.824 1.152-.72 3-.72 1.776 0 2.88.624t1.608 1.632.504 2.16q0 1.32-.504 2.208a4.5 4.5 0 0 1-1.32 1.464q-.816.576-1.776 1.032-.96.432-1.872.912a8.8 8.8 0 0 0-1.632 1.08q-.72.624-1.2 1.512-.456.864-.552 2.136h6.192q.84 0 1.008-.096.192-.12.288-.528zm9.063-10.92v-.648h6.528q2.352 0 3.528 1.104 1.176 1.08 1.176 2.784v.648q0 1.248-.744 2.136t-2.088 1.248q1.68.288 2.616 1.272t.936 2.472v.648q0 1.752-1.224 2.88-1.2 1.128-3.6 1.128h-7.128v-.624l1.32-.144q.384-.048.456-.192t.072-.984V92.624q0-.84-.072-.984t-.456-.192zm6.528.12h-2.592v6.864h2.592q2.496 0 2.496-2.904v-.984q0-2.976-2.496-2.976m.6 7.632h-3.192v7.152h3.192q2.616 0 2.616-3.096v-.984q0-1.488-.672-2.28-.648-.792-1.944-.792m7.091-3.312v-.648h3.696v1.92q.84-1.128 1.68-1.632.864-.528 1.752-.528.768 0 1.44.456t1.128 1.464l-1.56.936q-.36-.864-.816-1.2a1.66 1.66 0 0 0-1.008-.336q-.6 0-1.2.384-.576.384-1.296 1.44v7.032q0 .84.072 1.008.072.144.456.168l1.8.144V107h-6.144v-.624l1.32-.144q.384-.048.456-.192t.072-.984v-7.992q0-.84-.072-.984t-.456-.192zM179.5 100l-7.5-4.33v8.66zm-76.5-.75a.75.75 0 0 0 0 1.5v-1.5m69.75.75v-.75H103v1.5h69.75z"/><circle cx="137.5" cy="70.5" r="17.5" fill="url(#a)"/><circle cx="253" cy="87" r="2" fill="#fff"/><defs><linearGradient id="a" x1="137.5" x2="137.5" y1="53" y2="88" gradientUnits="userSpaceOnUse"><stop stop-color="#ff2626"/><stop offset="1" stop-color="#ffb521"/></linearGradient></defs></svg>