<svg xmlns="http://www.w3.org/2000/svg" width="300" height="200" fill="none" viewBox="0 0 300 200"><path fill="#000" d="M0 0h300v200H0z"/><path stroke="#fff" stroke-width="2" d="M127.529 44.975a3 3 0 0 1 2.942 0l46.229 26a3 3 0 0 1 1.529 2.615v51.82a3 3 0 0 1-1.529 2.615l-46.229 26a3 3 0 0 1-2.942 0l-46.23-26a3 3 0 0 1-1.529-2.615V73.59a3 3 0 0 1 1.53-2.615z"/><path fill="#ffee30" d="M213.555 47.795 178.69 70.887c-.488.323-.119 1.078.436.89l40.298-13.583a.5.5 0 0 0 .274-.722l-5.433-9.508a.5.5 0 0 0-.71-.17"/><path fill="#fff" d="M234.208 45.928v1.8q0 3.504-1.608 5.52-1.608 1.992-4.608 1.992-3.024 0-4.632-1.992-1.584-2.016-1.584-5.52v-1.8q0-3.48 1.584-5.472 1.608-2.016 4.632-2.016 3 0 4.608 2.016 1.608 1.992 1.608 5.472m-2.28-1.2q0-3-1.008-4.248-.984-1.272-2.928-1.272t-2.952 1.272q-.984 1.248-.984 4.248v4.2q0 3 .984 4.272 1.008 1.272 2.952 1.272t2.928-1.272q1.008-1.272 1.008-4.272zm20.328 9.648V55h-5.784v-.624l1.32-.144q.384-.048.456-.192t.072-.984v-5.904h-7.248v5.904q0 .84.072.984t.456.192l1.32.144V55h-5.784v-.624l1.32-.144q.384-.048.456-.192t.072-.984V40.624q0-.84-.072-.984t-.456-.192l-1.32-.12v-.648h5.784v.648l-1.32.12q-.384.048-.456.192t-.072.984v5.76h7.248v-5.76q0-.84-.072-.984t-.456-.192l-1.32-.12v-.648h5.784v.648l-1.32.12q-.384.048-.456.192t-.072.984v12.432q0 .84.072.984t.456.192zM232.208 157.928v1.8q0 3.504-1.608 5.52-1.608 1.992-4.608 1.992-3.024 0-4.632-1.992-1.584-2.016-1.584-5.52v-1.8q0-3.48 1.584-5.472 1.608-2.016 4.632-2.016 3 0 4.608 2.016 1.608 1.992 1.608 5.472m-2.28-1.2q0-3-1.008-4.248-.984-1.272-2.928-1.272t-2.952 1.272q-.984 1.248-.984 4.248v4.2q0 3 .984 4.272 1.008 1.272 2.952 1.272t2.928-1.272q1.008-1.272 1.008-4.272zm20.328 9.648V167h-5.784v-.624l1.32-.144q.384-.048.456-.192t.072-.984v-5.904h-7.248v5.904q0 .84.072.984t.456.192l1.32.144V167h-5.784v-.624l1.32-.144q.384-.048.456-.192t.072-.984v-12.432q0-.84-.072-.984t-.456-.192l-1.32-.12v-.648h5.784v.648l-1.32.12q-.384.048-.456.192t-.072.984v5.76h7.248v-5.76q0-.84-.072-.984t-.456-.192l-1.32-.12v-.648h5.784v.648l-1.32.12q-.384.048-.456.192t-.072.984v12.432q0 .84.072.984t.456.192z"/><path stroke="#ffee30" stroke-width="2" d="m172.648 139.644 14.512-24.038M176.494 141.966l14.511-24.038M180.34 144.288l14.512-24.039M184.185 146.61l14.512-24.039M188.032 148.931l14.511-24.038M191.877 151.253l14.512-24.038M195.724 153.575l14.512-24.038M199.57 155.897l14.512-24.038M203.416 158.219l14.512-24.038M207.263 160.541l14.512-24.038"/><path fill="#000" d="m208.071 162.341-36.643-22.121a.5.5 0 0 1-.17-.687l7.288-12.072 7.868-13.033a.5.5 0 0 1 .687-.17l36.643 22.122a.5.5 0 0 1 .17.687l-5.313 8.8a.5.5 0 0 1-.642.194l-39.413-18.6 34.253 27.173a.5.5 0 0 1 .117.65l-4.158 6.888a.5.5 0 0 1-.687.169"/></svg>