<svg xmlns="http://www.w3.org/2000/svg" width="300" height="200" fill="none" viewBox="0 0 300 200"><g clip-path="url(#a)"><path fill="#000" d="M0 0h300v200H0z"/><path fill="#fff" d="M179.016 113.24q-3.048 0-4.656-2.04-1.584-2.04-1.584-5.472v-1.8q0-2.256.672-3.936.696-1.68 2.04-2.616t3.288-.936q1.8 0 2.976.72 1.176.696 1.704 1.848.528 1.128.336 2.472l-2.064.504q.264-2.304-.528-3.528-.792-1.248-2.424-1.248-1.824 0-2.784 1.296-.936 1.296-.936 4.224v4.2q0 2.952 1.008 4.248t3 1.296q.792 0 1.512-.264.72-.288 1.224-.96t.624-1.872l1.488.384q-.528 1.92-1.872 2.712-1.32.768-3.024.768m22.319-.864V113h-5.784v-.624l1.32-.144q.384-.048.456-.192.071-.144.071-.984v-5.904h-7.247v5.904q0 .84.072.984t.456.192l1.32.144V113h-5.784v-.624l1.32-.144q.384-.048.456-.192t.071-.984V98.624q0-.84-.071-.984-.072-.144-.456-.192l-1.32-.12v-.648h5.784v.648l-1.32.12q-.384.048-.456.192t-.072.984v5.76h7.247v-5.76q0-.84-.071-.984-.072-.144-.456-.192l-1.32-.12v-.648h5.784v.648l-1.32.12q-.384.048-.456.192t-.072.984v12.432q0 .84.072.984t.456.192zm6.566.768h.504v2.376h-5.208v-.648q0-.888.24-1.416t.696-.912q.48-.384 1.128-.768.624-.36 1.152-.816.528-.48.528-1.44 0-1.728-1.176-1.728-1.392 0-1.176 2.16l-1.416-.192a2.06 2.06 0 0 1 .48-1.752q.648-.768 2.112-.768t2.064.696q.624.696.624 1.608t-.48 1.44a3.7 3.7 0 0 1-1.176.816q-.696.288-1.344.624-1.368.696-1.512 2.04h3.12q.408 0 .504-.048.12-.048.144-.264zM241.152 97.328v-.648h6.528q2.352 0 3.528 1.104 1.176 1.08 1.176 2.784v.648q0 1.248-.744 2.136t-2.088 1.248q1.68.288 2.616 1.272t.936 2.472v.648q0 1.752-1.224 2.88-1.2 1.128-3.6 1.128h-7.128v-.624l1.32-.144q.384-.048.456-.192t.072-.984V98.624q0-.84-.072-.984t-.456-.192zm6.528.12h-2.592v6.864h2.592q2.496 0 2.496-2.904v-.984q0-2.976-2.496-2.976m.6 7.632h-3.192v7.152h3.192q2.616 0 2.616-3.096v-.984q0-1.488-.672-2.28-.648-.792-1.944-.792m7.091-3.312v-.648h3.696v1.92q.84-1.128 1.68-1.632.864-.528 1.752-.528.768 0 1.44.456t1.128 1.464l-1.56.936q-.36-.864-.816-1.2a1.66 1.66 0 0 0-1.008-.336q-.6 0-1.2.384-.576.384-1.296 1.44v7.032q0 .84.072 1.008.072.144.456.168l1.8.144V113h-6.144v-.624l1.32-.144q.384-.048.456-.192t.072-.984v-7.992q0-.84-.072-.984t-.456-.192zM42.016 113.24q-3.048 0-4.656-2.04-1.584-2.04-1.584-5.472v-1.8q0-2.256.672-3.936.696-1.68 2.04-2.616t3.288-.936q1.8 0 2.976.72 1.176.696 1.704 1.848.528 1.128.336 2.472l-2.064.504q.264-2.304-.528-3.528-.792-1.248-2.424-1.248-1.824 0-2.784 1.296-.936 1.296-.936 4.224v4.2q0 2.952 1.008 4.248t3 1.296q.792 0 1.512-.264.72-.288 1.224-.96t.624-1.872l1.488.384q-.528 1.92-1.872 2.712-1.32.768-3.024.768m22.319-.864V113H58.55v-.624l1.32-.144q.383-.048.456-.192.071-.144.072-.984v-5.904H53.15v5.904q0 .84.071.984.072.144.456.192l1.32.144V113h-5.783v-.624l1.32-.144q.384-.048.456-.192.071-.144.072-.984V98.624q0-.84-.073-.984-.071-.144-.456-.192l-1.32-.12v-.648H55v.648l-1.32.12q-.385.048-.457.192-.071.144-.072.984v5.76H60.4v-5.76q0-.84-.072-.984t-.456-.192l-1.32-.12v-.648h5.784v.648l-1.32.12q-.385.048-.456.192t-.072.984v12.432q0 .84.072.984.071.144.456.192zm3.926-.792h-.432v-.504h.432q.912 0 1.272-.48.384-.504.384-1.272 0-1.584-1.2-1.584-1.416 0-1.2 2.16l-1.416-.192q-.168-.96.456-1.704.648-.768 2.16-.768 1.464 0 2.088.624t.624 1.464q0 1.536-1.632 1.992 1.776.48 1.776 2.16 0 .864-.672 1.512t-2.16.648q-.912 0-1.632-.384-.72-.36-1.008-1.368l.792-.24q.12.864.624 1.176.528.312 1.104.312 1.416 0 1.416-1.656 0-.84-.408-1.368-.384-.528-1.368-.528M111.016 113.24q-3.048 0-4.656-2.04-1.584-2.04-1.584-5.472v-1.8q0-2.256.672-3.936.696-1.68 2.04-2.616t3.288-.936q1.8 0 2.976.72 1.176.696 1.704 1.848.528 1.128.336 2.472l-2.064.504q.264-2.304-.528-3.528-.792-1.248-2.424-1.248-1.824 0-2.784 1.296-.936 1.296-.936 4.224v4.2q0 2.952 1.008 4.248t3 1.296q.792 0 1.512-.264.72-.288 1.224-.96t.624-1.872l1.488.384q-.528 1.92-1.872 2.712-1.32.768-3.024.768m22.319-.864V113h-5.784v-.624l1.32-.144q.384-.048.456-.192.071-.144.071-.984v-5.904h-7.247v5.904q0 .84.072.984t.456.192l1.32.144V113h-5.784v-.624l1.32-.144q.384-.048.456-.192t.071-.984V98.624q0-.84-.071-.984-.072-.144-.456-.192l-1.32-.12v-.648h5.784v.648l-1.32.12q-.384.048-.456.192t-.072.984v5.76h7.247v-5.76q0-.84-.071-.984-.072-.144-.456-.192l-1.32-.12v-.648h5.784v.648l-1.32.12q-.384.048-.456.192t-.072.984v12.432q0 .84.072.984t.456.192z"/><path fill="#83f3fd" d="M112.016 141.24q-3.048 0-4.656-2.04-1.584-2.04-1.584-5.472v-1.8q0-2.256.672-3.936.696-1.68 2.04-2.616t3.288-.936q1.8 0 2.976.72 1.176.696 1.704 1.848.528 1.128.336 2.472l-2.064.504q.264-2.304-.528-3.528-.792-1.248-2.424-1.248-1.824 0-2.784 1.296-.936 1.296-.936 4.224v4.2q0 2.952 1.008 4.248t3 1.296q.792 0 1.512-.264.72-.288 1.224-.96t.624-1.872l1.488.384q-.528 1.92-1.872 2.712-1.32.768-3.024.768M108.512 33.376V34h-4.56v-.624l1.296-.144q.264-.024.384-.072.12-.072.216-.288.12-.24.288-.816l4.632-14.376h1.512l4.68 14.376q.168.576.264.816.12.216.24.288.12.048.36.072l1.32.144V34h-5.832v-.624l1.32-.144q.384-.048.408-.192.048-.168-.216-.984l-.984-3.072h-5.856L107 32.056q-.264.816-.24.984.048.144.432.192zm-.288-5.16h5.376l-2.688-8.352zM10.152 97.328v-.648h6.816q2.928 0 4.488 1.896t1.56 5.352v1.8q0 3.48-1.56 5.376T16.968 113h-6.816v-.624l1.32-.144q.384-.048.456-.192t.072-.984V98.624q0-.84-.072-.984t-.456-.192zm6.768.12h-2.832v14.784h2.832q1.296 0 2.136-.48t1.248-1.632q.432-1.176.432-3.192v-4.2q0-1.992-.432-3.144-.408-1.152-1.248-1.632-.84-.504-2.136-.504M172.152 125.328v-.648h6.528q2.352 0 3.528 1.104 1.176 1.08 1.176 2.784v.648q0 1.248-.744 2.136t-2.088 1.248q1.68.288 2.616 1.272t.936 2.472v.648q0 1.752-1.224 2.88-1.2 1.128-3.6 1.128h-7.128v-.624l1.32-.144q.384-.048.456-.192t.072-.984v-12.432q0-.84-.072-.984t-.456-.192zm6.528.12h-2.592v6.864h2.592q2.496 0 2.496-2.904v-.984q0-2.976-2.496-2.976m.6 7.632h-3.192v7.152h3.192q2.616 0 2.616-3.096v-.984q0-1.488-.672-2.28-.648-.792-1.944-.792"/><path stroke="#fff" stroke-linecap="round" stroke-width="1.5" d="M97.25 104.75h-21.5M110.25 91.25v-21.5M165.25 104.75h-21.5M234.25 104.75h-21.5"/><path fill="#fff" d="M112.016 63.24q-3.048 0-4.656-2.04-1.584-2.04-1.584-5.472v-1.8q0-2.256.672-3.936.696-1.68 2.04-2.616t3.288-.936q1.8 0 2.976.72 1.176.696 1.704 1.848.528 1.128.336 2.472l-2.064.504q.264-2.304-.528-3.528-.792-1.248-2.424-1.248-1.824 0-2.784 1.296-.936 1.296-.936 4.224v4.2q0 2.952 1.008 4.248t3 1.296q.792 0 1.512-.264.72-.288 1.224-.96t.624-1.872l1.488.384q-.528 1.92-1.872 2.712-1.32.768-3.024.768m22.319-.864V63h-5.784v-.624l1.32-.144q.384-.048.456-.192.071-.144.071-.984v-5.904h-7.247v5.904q0 .84.072.984t.456.192l1.32.144V63h-5.784v-.624l1.32-.144q.384-.048.456-.192t.071-.984V48.624q0-.84-.071-.984-.072-.144-.456-.192l-1.32-.12v-.648h5.784v.648l-1.32.12q-.384.048-.456.192t-.072.984v5.76h7.247v-5.76q0-.84-.071-.984-.072-.144-.456-.192l-1.32-.12v-.648h5.784v.648l-1.32.12q-.384.048-.456.192t-.072.984v12.432q0 .84.072.984t.456.192zm3.926-.792h-.432v-.504h.432q.912 0 1.272-.48.384-.504.384-1.272 0-1.584-1.2-1.584-1.416 0-1.2 2.16l-1.416-.192q-.168-.96.456-1.704.648-.768 2.16-.768 1.464 0 2.088.624t.624 1.464q0 1.536-1.632 1.992 1.776.48 1.776 2.16 0 .864-.672 1.512t-2.16.648q-.912 0-1.632-.384-.72-.36-1.008-1.368l.792-.24q.12.864.624 1.176.528.312 1.104.312 1.416 0 1.416-1.656 0-.84-.408-1.368-.384-.528-1.368-.528"/></g><defs><clipPath id="a"><path fill="#fff" d="M0 0h300v200H0z"/></clipPath></defs></svg>