<svg xmlns="http://www.w3.org/2000/svg" width="300" height="200" fill="none" viewBox="0 0 300 200"><path fill="#000" d="M0 0h300v200H0z"/><path fill="#fff" d="M40.512 106.376V107h-4.56v-.624l1.296-.144q.264-.024.384-.072.12-.072.216-.288.12-.24.288-.816l4.632-14.376h1.512l4.68 14.376q.168.576.264.816.12.216.24.288.12.048.36.072l1.32.144V107h-5.832v-.624l1.32-.144q.384-.048.408-.192.048-.168-.216-.984l-.984-3.072h-5.856L39 105.056q-.264.816-.24.984.048.144.432.192zm-.288-5.16H45.6l-2.688-8.352zM84.152 91.328v-.648h6.528q2.352 0 3.528 1.104 1.176 1.08 1.176 2.784v.648q0 1.248-.744 2.136T92.552 98.6q1.68.288 2.616 1.272t.936 2.472v.648q0 1.752-1.224 2.88-1.2 1.128-3.6 1.128h-7.128v-.624l1.32-.144q.384-.048.456-.192t.072-.984V92.624q0-.84-.072-.984t-.456-.192zm6.528.12h-2.592v6.864h2.592q2.496 0 2.496-2.904v-.984q0-2.976-2.496-2.976m.6 7.632h-3.192v7.152h3.192q2.616 0 2.616-3.096v-.984q0-1.488-.672-2.28-.648-.792-1.944-.792M195.95 106.376V107h-4.561v-.624l1.297-.144q.264-.024.384-.072.12-.072.216-.288.12-.24.288-.816l4.632-14.376h1.512l4.68 14.376q.168.576.263.816.121.216.241.288.12.048.36.072l1.32.144V107h-5.832v-.624l1.32-.144q.384-.048.408-.192.048-.168-.216-.984l-.984-3.072h-5.856l-.984 3.072q-.264.816-.24.984.048.144.432.192zm-.288-5.16h5.376l-2.688-8.352zm18.06-6.78h-2.736v2.793h-.504v-2.794h-2.721v-.475h2.721v-2.808h.504v2.808h2.736zm13.707 4.956h-4.56v4.656h-.84v-4.656h-4.536V98.6h4.536v-4.68h.84v4.68h4.56zm8.675-8.064v-.648h6.528q2.352 0 3.528 1.104 1.176 1.08 1.176 2.784v.648q0 1.248-.744 2.136t-2.088 1.248q1.68.288 2.616 1.272t.936 2.472v.648q0 1.752-1.224 2.88-1.2 1.128-3.6 1.128h-7.128v-.624l1.32-.144q.384-.048.456-.192t.072-.984V92.624q0-.84-.072-.984t-.456-.192zm6.528.12h-2.592v6.864h2.592q2.496 0 2.496-2.904v-.984q0-2.976-2.496-2.976m.6 7.632h-3.192v7.152h3.192q2.616 0 2.616-3.096v-.984q0-1.488-.672-2.28-.648-.792-1.944-.792m7.26-4.645v-.504h3.801v.504zM171 100l-7.5-4.33v8.66zm-52-.75a.75.75 0 0 0 0 1.5v-1.5m45.25.75v-.75H119v1.5h45.25z"/><path stroke="#fff" stroke-width="2" d="M53 99h26"/></svg>