<svg xmlns="http://www.w3.org/2000/svg" width="300" height="200" fill="none" viewBox="0 0 300 200"><path fill="#000" d="M0 0h300v200H0z"/><path stroke="#fff" d="M130 103s-5 0-7.5 4.5 0 9 0 9"/><path fill="#fff" d="M107.104 113.24q-1.968 0-3.264-1.104-1.272-1.128-1.896-3.192-.624-2.088-.624-4.992 0-2.928.576-5.016t1.848-3.192q1.296-1.104 3.36-1.104 1.992 0 3.288 1.104 1.296 1.08 1.92 3.168.648 2.088.648 5.04 0 2.904-.6 4.992-.576 2.064-1.872 3.192-1.272 1.104-3.384 1.104m0-1.752q1.248 0 2.04-.72.816-.72 1.224-2.256t.456-4.008h-7.368q.048 2.448.408 3.984.384 1.536 1.176 2.28.792.72 2.064.72m-3.648-8.616h7.344q-.072-2.184-.48-3.6-.408-1.44-1.2-2.136-.792-.72-2.016-.72t-2.016.72q-.768.696-1.152 2.136-.384 1.416-.48 3.6"/><path stroke="#d56d6d" stroke-width="2" d="m20.619 16.215 128 101M275.38 19.215l-128 101M20.619 66.215l128 101M275.38 69.215l-128 101"/><path stroke="#fff" d="M32 116.5h235"/><circle cx="38" cy="117" r="4" fill="#00bacb"/><circle cx="93" cy="117" r="4" fill="#00bacb"/><circle cx="149" cy="117" r="4" fill="#00bacb"/><circle cx="204" cy="117" r="4" fill="#00bacb"/><circle cx="259" cy="117" r="4" fill="#00bacb"/><path stroke="#fff" d="M32 168.5h235"/><circle cx="38" cy="169" r="4" fill="#00bacb"/><circle cx="93" cy="169" r="4" fill="#00bacb"/><circle cx="149" cy="169" r="4" fill="#00bacb"/><circle cx="204" cy="169" r="4" fill="#00bacb"/><circle cx="259" cy="169" r="4" fill="#00bacb"/><path fill="#fff" d="M266.248 151.4v.6h-3.696v-1.896q-.744 1.104-1.656 1.632-.888.504-1.992.504-2.064 0-3.216-1.536-1.128-1.56-1.128-4.392v-.48q0-2.712 1.32-4.32 1.344-1.632 3.672-1.632 1.704 0 2.88 1.056v-4.752q0-.84-.072-.984t-.456-.192l-1.32-.12v-.648h3.816v15.816q0 .84.072.984t.456.192zm-9.528-4.368q0 2.256.648 3.312.672 1.056 1.848 1.056.768 0 1.584-.48t1.632-1.944v-6.864q-1.056-1.416-2.76-1.416-1.536 0-2.256 1.176-.696 1.176-.696 3.24zM86.088 29.24q-.456 0-.816-.144a1.4 1.4 0 0 1-.624-.432q-.24-.336-.456-.936l-1.896-5.352a81 81 0 0 0-.336-.984 52 52 0 0 0-.408-1.176l-.36-1.128a45 45 0 0 1-.24-.912h-.096a18 18 0 0 1-.528 1.992q-.336 1.128-.648 2.088L77.472 29h-2.256l4.704-12.912-.624-1.608q-.384-1.056-1.104-1.584-.696-.528-1.848-.528a5.5 5.5 0 0 0-.768.048q-.312.048-.576.096v-1.68q.216-.072.456-.096a6 6 0 0 1 .552-.072 7 7 0 0 1 .6-.024q1.248 0 2.136.408a3.96 3.96 0 0 1 1.56 1.272q.672.864 1.176 2.232l4.56 12.12q.144.336.24.528a.64.64 0 0 0 .216.24q.144.072.312.072.192 0 .36-.048t.288-.072v1.56q-.168.072-.384.144t-.456.096q-.24.048-.528.048"/><path stroke="#ff5f5f" stroke-width="3" d="M26 20s11.5-7 19.5 0 0 15.5 0 15.5S38 42.5 48 51s16.5 0 16.5 0"/><path fill="#fff" d="m245 120-2.887 5h5.774zm0 45 2.887-5h-5.774zm0-40.5h-.5v36h1v-36zM39 6l1.658 5.53 3.96-4.2zm35 33-1.658-5.53-3.96 4.2zM42.274 9.087l-.343.364 28.452 26.826.343-.364.343-.364L42.617 8.723z"/></svg>