<svg xmlns="http://www.w3.org/2000/svg" width="300" height="200" fill="none" viewBox="0 0 300 200"><path fill="#000" d="M0 0h300v200H0z"/><path stroke="#fff" stroke-width="2" d="M81 51v94M126.044 118.269l-45.126 27.264"/><path stroke="#fff" stroke-opacity=".35" stroke-width="2" d="M126.044 24.257 80.918 51.521"/><path stroke="#fff" stroke-width="2" d="m219.116 145.533-45.126 27.263M219.116 51.521 173.99 78.784"/><path stroke="#fff" stroke-opacity=".35" stroke-width="2" d="m218.097 51.53-47.006-27.264"/><path stroke="#fff" stroke-width="2" d="M124.949 82.505 79.823 50.541"/><path stroke="#fff" stroke-opacity=".35" stroke-width="2" d="M172 24h-46"/><path stroke="#fff" stroke-width="2" d="M172 118h-46M172 83h-46M219.116 145.533l-45.126 27.263M218.097 145.542l-47.006-27.264M124.949 176.517l-45.126-31.964M172 177h-46M220 51v94"/><path stroke="#fff" stroke-opacity=".35" stroke-width="2" d="M173 23v94M127 23v94"/><circle cx="80.5" cy="50.5" r="9.5" fill="url(#a)"/><circle cx="125.5" cy="23.5" r="9.5" fill="url(#b)"/><circle cx="218.5" cy="50.5" r="9.5" fill="url(#c)"/><circle cx="171.5" cy="23.5" r="9.5" fill="url(#d)"/><circle cx="80.5" cy="144.5" r="9.5" fill="url(#e)"/><circle cx="125.5" cy="117.5" r="9.5" fill="url(#f)"/><path stroke="#fff" stroke-width="2" d="M127 82v94"/><circle cx="218.5" cy="144.5" r="9.5" fill="url(#g)"/><circle cx="171.5" cy="117.5" r="9.5" fill="url(#h)"/><path stroke="#fff" stroke-width="2" d="M173 82v94"/><circle cx="125.5" cy="175.5" r="9.5" fill="url(#i)"/><circle cx="171.5" cy="175.5" r="9.5" fill="url(#j)"/><circle cx="125.5" cy="81.5" r="9.5" fill="url(#k)"/><circle cx="171.5" cy="81.5" r="9.5" fill="url(#l)"/><path fill="#f1ff30" d="M153.728 195.168q-1.872 0-2.208-1.728-.84.96-1.848 1.392a5.3 5.3 0 0 1-1.992.408q-1.68 0-2.472-.936t-.792-2.256q0-1.416.96-2.232.984-.84 3.384-.84h2.712v-1.944q0-1.92-.672-2.64-.648-.744-1.776-.744-.72 0-1.296.288t-.84 1.056q-.24.744-.048 2.184l-1.896-.288q-.12-1.128.288-2.016.432-.912 1.392-1.44.984-.552 2.448-.552 1.752 0 2.688.6.936.576 1.296 1.512.384.936.384 2.04v5.4q0 1.224.264 1.536.288.312.624.312.216 0 .456-.096.24-.12.528-.36l.432.6a3.3 3.3 0 0 1-.864.528q-.48.216-1.152.216m-5.376-.936q.672 0 1.44-.36.792-.384 1.68-1.512v-2.616h-2.448q-1.344 0-1.968.552-.6.528-.6 1.656 0 1.08.456 1.68.48.6 1.44.6M198.504 164.888v-.648h3.816v7.608q.696-1.032 1.584-1.488a4 4 0 0 1 1.92-.48q2.064 0 3.192 1.56 1.152 1.56 1.152 4.368v.48q0 2.736-1.32 4.344-1.296 1.608-3.648 1.608-1.872 0-3.072-1.224a3 3 0 0 0-.624.48q-.288.288-.576.624h-.576v-15.936q0-.84-.072-.984t-.456-.192zm7.008 5.856q-.744 0-1.56.48-.792.48-1.632 1.944v6.864q1.032 1.416 2.736 1.416 1.56 0 2.256-1.176.696-1.2.696-3.264v-1.92q0-2.256-.648-3.288-.648-1.056-1.848-1.056M234.456 91.648q-1.32 0-2.064 1.104-.72 1.08-.72 3.576v1.44q0 2.52.72 3.624.744 1.08 2.4 1.08 1.128 0 1.824-.576t.936-1.992l1.272.36q-.432 1.632-1.584 2.304t-2.568.672q-2.592 0-3.888-1.608-1.272-1.632-1.272-4.344v-.48q0-2.688 1.272-4.296 1.272-1.632 3.672-1.632 1.536 0 2.544.6 1.032.6 1.464 1.632.432 1.008.24 2.232l-1.896.288q.264-1.92-.36-2.952-.6-1.032-1.992-1.032"/><path fill="#00bacb" d="M158.088 69.36v-3.248L155 57.424h1.456l1.552 4.624q.128.384.32.912t.352 1.04q.176.496.256.816H159a8.5 8.5 0 0 0 1.424-2.112 9 9 0 0 0 .736-2.416q.224-1.313.224-2.864h1.392q0 1.648-.288 3.104-.288 1.44-1.008 2.8-.704 1.344-1.984 2.736v3.296zM156.547 81.109l4.692-3.364-5.259-2.382zm29.047-8.826-2.225-5.327-3.501 4.59zm-27.191 4.727.434.249c1.975-3.442 5.67-7.886 11.839-8.762l-.07-.495-.07-.495c-6.617.94-10.527 5.701-12.566 9.254zm12.203-9.008.07.495c5.146-.731 8.774.301 11.111 1.502l.228-.445.229-.445c-2.517-1.293-6.353-2.363-11.708-1.602zM205.368 124.16q-1.024 0-1.808-.496t-1.232-1.472q-.448-.992-.448-2.448 0-2.176.944-3.328.96-1.152 2.608-1.152.607 0 1.104.176.496.16.88.464.4.288.672.688h.064l.208-1.168h1.12v6.688q0 .496.192.704a.63.63 0 0 0 .464.192q.128 0 .272-.032.144-.031.208-.048v1.024a1.2 1.2 0 0 1-.224.096 2.3 2.3 0 0 1-.672.112q-.592 0-.992-.288-.384-.288-.56-1.024h-.112a3 3 0 0 1-.64.688 3.2 3.2 0 0 1-.896.464q-.512.16-1.152.16m.288-1.168q.88 0 1.408-.336.544-.336.784-1.04t.24-1.792v-.096q0-1.6-.544-2.448-.528-.848-1.904-.848-1.168 0-1.744.864-.56.848-.56 2.464 0 1.6.592 2.416.593.816 1.728.816M155.36 162.84v-12.304q0-1.376.48-2.192.496-.833 1.328-1.2a4.4 4.4 0 0 1 1.856-.384q1.088 0 1.84.352a2.44 2.44 0 0 1 1.152 1.04q.4.672.4 1.664 0 .768-.32 1.328a2.64 2.64 0 0 1-.816.896q-.512.336-1.136.464v.064a3.7 3.7 0 0 1 1.44.496q.624.384.976 1.056.368.656.368 1.632 0 1.088-.496 1.856a3.1 3.1 0 0 1-1.328 1.168q-.832.384-1.888.384-.576 0-1.008-.064a3.7 3.7 0 0 1-.752-.192 12 12 0 0 1-.688-.288v4.224zm3.728-4.832q1.12 0 1.776-.608.656-.624.656-1.744 0-.847-.336-1.392a2.02 2.02 0 0 0-.864-.832 2.34 2.34 0 0 0-1.136-.288h-1.328v-1.088h1.168q.608 0 1.04-.272a1.7 1.7 0 0 0 .672-.768q.24-.496.24-1.136 0-.992-.592-1.472-.576-.48-1.392-.48-.56 0-1.072.224-.512.208-.832.784t-.32 1.664v6.752q.56.288 1.072.48.512.176 1.248.176M206 153l2.887-5h-5.774zm0-19.842-.288-.409-.212.15v.259zM219 124l-5.75.52 3.325 4.719zm-13 24.5h.5v-15.342h-1V148.5zm0-15.342.288.409 9.321-6.567-.288-.408-.288-.409-9.321 6.566zM158 177l2.887-5h-5.774zm0-12v-.5h-.5v.5zm15 0-5-2.887v5.774zm-15 7.5h.5V165h-1v7.5zm0-7.5v.5h10.5v-1H158z"/><defs><linearGradient id="a" x1="80.5" x2="80.5" y1="41" y2="60" gradientUnits="userSpaceOnUse"><stop stop-color="#acacac"/><stop offset="1" stop-color="#3c3c3c"/></linearGradient><linearGradient id="b" x1="125.5" x2="125.5" y1="14" y2="33" gradientUnits="userSpaceOnUse"><stop stop-color="#acacac"/><stop offset="1" stop-color="#3c3c3c"/></linearGradient><linearGradient id="c" x1="218.5" x2="218.5" y1="41" y2="60" gradientUnits="userSpaceOnUse"><stop stop-color="#acacac"/><stop offset="1" stop-color="#3c3c3c"/></linearGradient><linearGradient id="d" x1="171.5" x2="171.5" y1="14" y2="33" gradientUnits="userSpaceOnUse"><stop stop-color="#acacac"/><stop offset="1" stop-color="#3c3c3c"/></linearGradient><linearGradient id="e" x1="80.5" x2="80.5" y1="135" y2="154" gradientUnits="userSpaceOnUse"><stop stop-color="#acacac"/><stop offset="1" stop-color="#3c3c3c"/></linearGradient><linearGradient id="f" x1="125.5" x2="125.5" y1="108" y2="127" gradientUnits="userSpaceOnUse"><stop stop-color="#acacac"/><stop offset="1" stop-color="#3c3c3c"/></linearGradient><linearGradient id="g" x1="218.5" x2="218.5" y1="135" y2="154" gradientUnits="userSpaceOnUse"><stop stop-color="#acacac"/><stop offset="1" stop-color="#3c3c3c"/></linearGradient><linearGradient id="h" x1="171.5" x2="171.5" y1="108" y2="127" gradientUnits="userSpaceOnUse"><stop stop-color="#acacac"/><stop offset="1" stop-color="#3c3c3c"/></linearGradient><linearGradient id="i" x1="125.5" x2="125.5" y1="166" y2="185" gradientUnits="userSpaceOnUse"><stop stop-color="#acacac"/><stop offset="1" stop-color="#3c3c3c"/></linearGradient><linearGradient id="j" x1="171.5" x2="171.5" y1="166" y2="185" gradientUnits="userSpaceOnUse"><stop stop-color="#acacac"/><stop offset="1" stop-color="#3c3c3c"/></linearGradient><linearGradient id="k" x1="125.5" x2="125.5" y1="72" y2="91" gradientUnits="userSpaceOnUse"><stop stop-color="#acacac"/><stop offset="1" stop-color="#3c3c3c"/></linearGradient><linearGradient id="l" x1="171.5" x2="171.5" y1="72" y2="91" gradientUnits="userSpaceOnUse"><stop stop-color="#acacac"/><stop offset="1" stop-color="#3c3c3c"/></linearGradient></defs></svg>