<svg xmlns="http://www.w3.org/2000/svg" width="300" height="200" fill="none" viewBox="0 0 300 200"><path fill="#000" d="M0 0h300v200H0z"/><path stroke="#fff" stroke-width="2" d="M102 58v118M136 30v118M205 38v118M171 58v118M101 57h69M135 29h69M100.364 57.228l34-28M169.364 57.228l34-28"/><circle cx="101" cy="57" r="10" fill="url(#a)"/><circle cx="171" cy="57" r="10" fill="url(#b)"/><circle cx="134" cy="30" r="10" fill="url(#c)"/><circle cx="202" cy="29" r="10" fill="url(#d)"/><path stroke="#fff" stroke-width="2" d="M101 175h69M135 147h69M100.364 175.228l34-28M169.364 175.228l34-28"/><circle cx="101" cy="176" r="10" fill="url(#e)"/><circle cx="171" cy="176" r="10" fill="url(#f)"/><circle cx="137" cy="150" r="10" fill="url(#g)"/><circle cx="202" cy="148" r="10" fill="url(#h)"/><path fill="#f1ff30" d="M141.728 195.168q-1.872 0-2.208-1.728-.84.96-1.848 1.392a5.3 5.3 0 0 1-1.992.408q-1.68 0-2.472-.936t-.792-2.256q0-1.416.96-2.232.984-.84 3.384-.84h2.712v-1.944q0-1.92-.672-2.64-.648-.744-1.776-.744-.72 0-1.296.288t-.84 1.056q-.24.744-.048 2.184l-1.896-.288q-.12-1.128.288-2.016.432-.912 1.392-1.44.984-.552 2.448-.552 1.752 0 2.688.6.936.576 1.296 1.512.384.936.384 2.04v5.4q0 1.224.264 1.536.288.312.624.312.216 0 .456-.096.24-.12.528-.36l.432.6a3.3 3.3 0 0 1-.864.528q-.48.216-1.152.216m-5.376-.936q.672 0 1.44-.36.792-.384 1.68-1.512v-2.616h-2.448q-1.344 0-1.968.552-.6.528-.6 1.656 0 1.08.456 1.68.48.6 1.44.6"/><path fill="#00bacb" d="M186.368 123.16q-1.024 0-1.808-.496t-1.232-1.472q-.448-.992-.448-2.448 0-2.176.944-3.328.96-1.152 2.608-1.152.607 0 1.104.176.496.16.88.464.4.288.672.688h.064l.208-1.168h1.12v6.688q0 .496.192.704a.63.63 0 0 0 .464.192q.128 0 .272-.032.144-.031.208-.048v1.024a1.2 1.2 0 0 1-.224.096 2.3 2.3 0 0 1-.672.112q-.592 0-.992-.288-.384-.288-.56-1.024h-.112a3 3 0 0 1-.64.688 3.2 3.2 0 0 1-.896.464q-.512.16-1.152.16m.288-1.168q.88 0 1.408-.336.544-.336.784-1.04t.24-1.792v-.096q0-1.6-.544-2.448-.528-.848-1.904-.848-1.168 0-1.744.864-.56.848-.56 2.464 0 1.6.592 2.416.593.816 1.728.816M148.36 165.84v-12.304q0-1.376.48-2.192.496-.833 1.328-1.2a4.4 4.4 0 0 1 1.856-.384q1.088 0 1.84.352a2.44 2.44 0 0 1 1.152 1.04q.4.672.4 1.664 0 .768-.32 1.328a2.64 2.64 0 0 1-.816.896q-.512.336-1.136.464v.064a3.7 3.7 0 0 1 1.44.496q.624.384.976 1.056.368.656.368 1.632 0 1.088-.496 1.856a3.1 3.1 0 0 1-1.328 1.168q-.832.384-1.888.384-.576 0-1.008-.064a3.7 3.7 0 0 1-.752-.192 12 12 0 0 1-.688-.288v4.224zm3.728-4.832q1.12 0 1.776-.608.656-.624.656-1.744 0-.847-.336-1.392a2.02 2.02 0 0 0-.864-.832 2.34 2.34 0 0 0-1.136-.288h-1.328v-1.088h1.168q.608 0 1.04-.272a1.7 1.7 0 0 0 .672-.768q.24-.496.24-1.136 0-.992-.592-1.472-.576-.48-1.392-.48-.56 0-1.072.224-.512.208-.832.784t-.32 1.664v6.752q.56.288 1.072.48.512.176 1.248.176M159.088 44.36v-3.248L156 32.424h1.456l1.552 4.624q.128.384.32.912t.352 1.04q.176.496.256.816H160a8.5 8.5 0 0 0 1.424-2.112 9 9 0 0 0 .736-2.416q.224-1.313.224-2.864h1.392q0 1.648-.288 3.104-.288 1.44-1.008 2.8-.704 1.344-1.984 2.736v3.296z"/><path fill="#f1ff30" d="M191.504 164.888v-.648h3.816v7.608q.696-1.032 1.584-1.488a4 4 0 0 1 1.92-.48q2.064 0 3.192 1.56 1.152 1.56 1.152 4.368v.48q0 2.736-1.32 4.344-1.296 1.608-3.648 1.608-1.872 0-3.072-1.224a3 3 0 0 0-.624.48q-.288.288-.576.624h-.576v-15.936q0-.84-.072-.984t-.456-.192zm7.008 5.856q-.744 0-1.56.48-.792.48-1.632 1.944v6.864q1.032 1.416 2.736 1.416 1.56 0 2.256-1.176.696-1.2.696-3.264v-1.92q0-2.256-.648-3.288-.648-1.056-1.848-1.056M218.456 86.648q-1.32 0-2.064 1.104-.72 1.08-.72 3.576v1.44q0 2.52.72 3.624.744 1.08 2.4 1.08 1.128 0 1.824-.576t.936-1.992l1.272.36q-.432 1.632-1.584 2.304t-2.568.672q-2.592 0-3.888-1.608-1.272-1.632-1.272-4.344v-.48q0-2.688 1.272-4.296 1.272-1.632 3.672-1.632 1.536 0 2.544.6 1.032.6 1.464 1.632.432 1.008.24 2.232l-1.896.288q.264-1.92-.36-2.952-.6-1.032-1.992-1.032"/><path stroke="#00bacb" d="M191.5 156.5v-26l13.5-12M156 176v-12h15M157 56l13.5-12H184"/><defs><linearGradient id="a" x1="101" x2="101" y1="47" y2="67" gradientUnits="userSpaceOnUse"><stop stop-color="#acacac"/><stop offset="1" stop-color="#3c3c3c"/></linearGradient><linearGradient id="b" x1="171" x2="171" y1="47" y2="67" gradientUnits="userSpaceOnUse"><stop stop-color="#acacac"/><stop offset="1" stop-color="#3c3c3c"/></linearGradient><linearGradient id="c" x1="134" x2="134" y1="20" y2="40" gradientUnits="userSpaceOnUse"><stop stop-color="#acacac"/><stop offset="1" stop-color="#3c3c3c"/></linearGradient><linearGradient id="d" x1="202" x2="202" y1="19" y2="39" gradientUnits="userSpaceOnUse"><stop stop-color="#acacac"/><stop offset="1" stop-color="#3c3c3c"/></linearGradient><linearGradient id="e" x1="101" x2="101" y1="166" y2="186" gradientUnits="userSpaceOnUse"><stop stop-color="#acacac"/><stop offset="1" stop-color="#3c3c3c"/></linearGradient><linearGradient id="f" x1="171" x2="171" y1="166" y2="186" gradientUnits="userSpaceOnUse"><stop stop-color="#acacac"/><stop offset="1" stop-color="#3c3c3c"/></linearGradient><linearGradient id="g" x1="137" x2="137" y1="140" y2="160" gradientUnits="userSpaceOnUse"><stop stop-color="#acacac"/><stop offset="1" stop-color="#3c3c3c"/></linearGradient><linearGradient id="h" x1="202" x2="202" y1="138" y2="158" gradientUnits="userSpaceOnUse"><stop stop-color="#acacac"/><stop offset="1" stop-color="#3c3c3c"/></linearGradient></defs></svg>