<svg xmlns="http://www.w3.org/2000/svg" width="300" height="200" fill="none" viewBox="0 0 300 200"><path fill="#000" d="M0 0h300v200H0z"/><path stroke="#fff" stroke-width="2" d="m88.967 58.254-31 118M121.974 30.227l-28 120M254.967 30.254l-31 118M223.967 58.254l-31 118M88 57h135M121 29h133M87.353 57.237l33-27.999M222.317 57.27l31-29"/><circle cx="88" cy="57" r="10" fill="url(#a)"/><circle cx="223" cy="57" r="10" fill="url(#b)"/><circle cx="121" cy="30" r="10" fill="url(#c)"/><circle cx="254" cy="29" r="10" fill="url(#d)"/><path stroke="#fff" stroke-width="2" d="M57 175h135M93 149h130M56.414 175.189l36.001-26M191.357 175.234l31-26"/><circle cx="57" cy="176" r="10" fill="url(#e)"/><circle cx="192" cy="176" r="10" fill="url(#f)"/><circle cx="93" cy="150" r="10" fill="url(#g)"/><circle cx="223" cy="148" r="10" fill="url(#h)"/><path fill="#f1ff30" d="M135.728 194.168q-1.872 0-2.208-1.728-.84.96-1.848 1.392a5.3 5.3 0 0 1-1.992.408q-1.68 0-2.472-.936t-.792-2.256q0-1.416.96-2.232.984-.84 3.384-.84h2.712v-1.944q0-1.92-.672-2.64-.648-.744-1.776-.744-.72 0-1.296.288t-.84 1.056q-.24.744-.048 2.184l-1.896-.288q-.12-1.128.288-2.016.432-.912 1.392-1.44.984-.552 2.448-.552 1.752 0 2.688.6.936.576 1.296 1.512.384.936.384 2.04v5.4q0 1.224.264 1.536.288.312.624.312.216 0 .456-.096.24-.12.528-.36l.432.6a3.3 3.3 0 0 1-.864.528q-.48.216-1.152.216m-5.376-.936q.672 0 1.44-.36.792-.384 1.68-1.512v-2.616h-2.448q-1.344 0-1.968.552-.6.528-.6 1.656 0 1.08.456 1.68.48.6 1.44.6"/><path fill="#00bacb" d="M217.368 129.16q-1.024 0-1.808-.496t-1.232-1.472q-.448-.992-.448-2.448 0-2.176.944-3.328.96-1.152 2.608-1.152.607 0 1.104.176.496.16.88.464.4.288.672.688h.064l.208-1.168h1.12v6.688q0 .496.192.704a.63.63 0 0 0 .464.192q.128 0 .272-.032.144-.031.208-.048v1.024a1.2 1.2 0 0 1-.224.096 2.3 2.3 0 0 1-.672.112q-.592 0-.992-.288-.384-.288-.56-1.024h-.112a3 3 0 0 1-.64.688 3.2 3.2 0 0 1-.896.464q-.512.16-1.152.16m.288-1.168q.88 0 1.408-.336.544-.336.784-1.04t.24-1.792v-.096q0-1.6-.544-2.448-.528-.848-1.904-.848-1.168 0-1.744.864-.56.848-.56 2.464 0 1.6.592 2.416.593.816 1.728.816M173.36 165.84v-12.304q0-1.376.48-2.192.496-.833 1.328-1.2a4.4 4.4 0 0 1 1.856-.384q1.088 0 1.84.352a2.44 2.44 0 0 1 1.152 1.04q.4.672.4 1.664 0 .768-.32 1.328a2.64 2.64 0 0 1-.816.896q-.512.336-1.136.464v.064a3.7 3.7 0 0 1 1.44.496q.624.384.976 1.056.368.656.368 1.632 0 1.088-.496 1.856a3.1 3.1 0 0 1-1.328 1.168q-.832.384-1.888.384-.576 0-1.008-.064a3.7 3.7 0 0 1-.752-.192 12 12 0 0 1-.688-.288v4.224zm3.728-4.832q1.12 0 1.776-.608.656-.624.656-1.744 0-.847-.336-1.392a2.02 2.02 0 0 0-.864-.832 2.34 2.34 0 0 0-1.136-.288h-1.328v-1.088h1.168q.608 0 1.04-.272a1.7 1.7 0 0 0 .672-.768q.24-.496.24-1.136 0-.992-.592-1.472-.576-.48-1.392-.48-.56 0-1.072.224-.512.208-.832.784t-.32 1.664v6.752q.56.288 1.072.48.512.176 1.248.176M201.088 46.36v-3.248L198 34.424h1.456l1.552 4.624q.128.384.32.912t.352 1.04q.176.496.256.816H202a8.5 8.5 0 0 0 1.424-2.112 9 9 0 0 0 .736-2.416q.224-1.313.224-2.864h1.392q0 1.648-.288 3.104-.288 1.44-1.008 2.8-.704 1.344-1.984 2.736v3.296z"/><path fill="#f1ff30" d="M213.504 168.888v-.648h3.816v7.608q.696-1.032 1.584-1.488a4 4 0 0 1 1.92-.48q2.064 0 3.192 1.56 1.152 1.56 1.152 4.368v.48q0 2.736-1.32 4.344-1.296 1.608-3.648 1.608-1.872 0-3.072-1.224a3 3 0 0 0-.624.48q-.288.288-.576.624h-.576v-15.936q0-.84-.072-.984t-.456-.192zm7.008 5.856q-.744 0-1.56.48-.792.48-1.632 1.944v6.864q1.032 1.416 2.736 1.416 1.56 0 2.256-1.176.696-1.2.696-3.264v-1.92q0-2.256-.648-3.288-.648-1.056-1.848-1.056M257.456 86.648q-1.32 0-2.064 1.104-.72 1.08-.72 3.576v1.44q0 2.52.72 3.624.744 1.08 2.4 1.08 1.128 0 1.824-.576t.936-1.992l1.272.36q-.432 1.632-1.584 2.304t-2.568.672q-2.592 0-3.888-1.608-1.272-1.632-1.272-4.344v-.48q0-2.688 1.272-4.296 1.272-1.632 3.672-1.632 1.536 0 2.544.6 1.032.6 1.464 1.632.432 1.008.24 2.232l-1.896.288q.264-1.92-.36-2.952-.6-1.032-1.992-1.032"/><path fill="#00bacb" d="m207 160 3.832-4.318-5.656-1.16zm22-28-5.699-.926 2.047 5.398zm-15 8.75-.386-.318zm-6.096 14.842.486.115c.521-2.205 1.273-4.965 2.274-7.631 1.003-2.672 2.242-5.214 3.722-7.008l-.386-.318-.386-.318c-1.584 1.919-2.869 4.582-3.887 7.293-1.02 2.719-1.783 5.523-2.31 7.752zM214 140.75l.386.318c2.582-3.128 7.181-5.541 10.604-7.013l-.197-.46-.198-.459c-3.437 1.478-8.235 3.968-10.981 7.296zM177 174l4.522-3.59-5.37-2.121zm22-16-5.5-1.756 1.23 5.641zm-15 5-.285-.411zm-5.347 6.814.449.22c1.13-2.315 2.842-5.002 5.183-6.623L184 163l-.285-.411c-2.551 1.767-4.356 4.639-5.511 7.006zM184 163l.285.411c2.53-1.752 7.02-3.118 10.439-3.967l-.121-.486-.12-.485c-3.406.846-8.067 2.246-10.768 4.116zM204.547 57.109l4.692-3.364-5.259-2.382zm29.047-8.826-2.225-5.327-3.501 4.59zm-27.191 4.727.434.249c1.975-3.442 5.67-7.886 11.839-8.762l-.07-.495-.07-.495c-6.617.94-10.527 5.701-12.566 9.254zm12.203-9.008.07.495c5.146-.731 8.774.301 11.111 1.502l.228-.445.229-.445c-2.517-1.293-6.353-2.363-11.708-1.602z"/><defs><linearGradient id="a" x1="88" x2="88" y1="47" y2="67" gradientUnits="userSpaceOnUse"><stop stop-color="#acacac"/><stop offset="1" stop-color="#3c3c3c"/></linearGradient><linearGradient id="b" x1="223" x2="223" y1="47" y2="67" gradientUnits="userSpaceOnUse"><stop stop-color="#acacac"/><stop offset="1" stop-color="#3c3c3c"/></linearGradient><linearGradient id="c" x1="121" x2="121" y1="20" y2="40" gradientUnits="userSpaceOnUse"><stop stop-color="#acacac"/><stop offset="1" stop-color="#3c3c3c"/></linearGradient><linearGradient id="d" x1="254" x2="254" y1="19" y2="39" gradientUnits="userSpaceOnUse"><stop stop-color="#acacac"/><stop offset="1" stop-color="#3c3c3c"/></linearGradient><linearGradient id="e" x1="57" x2="57" y1="166" y2="186" gradientUnits="userSpaceOnUse"><stop stop-color="#acacac"/><stop offset="1" stop-color="#3c3c3c"/></linearGradient><linearGradient id="f" x1="192" x2="192" y1="166" y2="186" gradientUnits="userSpaceOnUse"><stop stop-color="#acacac"/><stop offset="1" stop-color="#3c3c3c"/></linearGradient><linearGradient id="g" x1="93" x2="93" y1="140" y2="160" gradientUnits="userSpaceOnUse"><stop stop-color="#acacac"/><stop offset="1" stop-color="#3c3c3c"/></linearGradient><linearGradient id="h" x1="223" x2="223" y1="138" y2="158" gradientUnits="userSpaceOnUse"><stop stop-color="#acacac"/><stop offset="1" stop-color="#3c3c3c"/></linearGradient></defs></svg>