<svg xmlns="http://www.w3.org/2000/svg" width="300" height="200" fill="none" viewBox="0 0 300 200"><g clip-path="url(#a)"><path fill="#000" d="M0 0h300v200H0z"/><path fill="#fff" d="m61 27-5.773 10h11.547zm0 138h1V36h-2v129z"/><path fill="#fff" d="m288 164-10-5.774v11.548zm-228 0v1h219v-2H60zM7.808 46.104l.16-.864h7.712l-.16.864-1.792.16q-.32.032-.48.128t-.256.416q-.096.288-.224 1.024L9.824 64.408q-.191 1.12-.128 1.312.065.192.576.256l1.728.192-.16.832H4.128l.16-.832 1.792-.192q.352-.031.48-.096.16-.096.256-.384.096-.32.224-1.088l2.944-16.576q.191-1.12.128-1.312-.065-.192-.576-.256zm9.533 11.744.192-1.28q.64-4.192 3.008-7.456Q22.91 45.816 26.973 43l.672.896q-3.2 2.527-4.96 5.76-1.728 3.232-2.4 7.168l-.224 1.216a25.5 25.5 0 0 0-.32 4.768q.095 2.369.8 4.512a11.3 11.3 0 0 0 2.144 3.872l-.8.704q-1.951-1.984-3.072-4.352a16.8 16.8 0 0 1-1.472-4.864 16.7 16.7 0 0 1 0-4.832M38.46 67.32q-.608 0-1.056-.192a1.35 1.35 0 0 1-.672-.576q-.255-.449-.384-1.248l-.928-6.816a38 38 0 0 1-.192-1.312q-.096-.768-.192-1.568a53 53 0 0 1-.16-1.504q-.063-.705-.128-1.216h-.128q-.48 1.152-1.248 2.656t-1.44 2.784L27.355 67h-3.008l9.6-17.216-.384-2.144q-.224-1.409-1.024-2.112-.768-.705-2.304-.704a7 7 0 0 0-1.024.064q-.447.064-.8.128l.48-2.24q.32-.096.64-.128.352-.065.736-.096.384-.032.8-.032 1.665 0 2.72.544t1.664 1.696q.64 1.152.928 2.976l2.624 16.16q.096.448.192.704.129.225.288.32a.9.9 0 0 0 .416.096q.255 0 .48-.064.256-.065.416-.096l-.448 2.08q-.255.096-.576.192a2.8 2.8 0 0 1-.608.128 3.6 3.6 0 0 1-.704.064m12.778-10.24-.192 1.28q-.608 4.16-3.008 7.424t-6.432 6.112l-.64-.896q3.168-2.528 4.896-5.728 1.76-3.233 2.432-7.2l.224-1.184q.416-2.368.32-4.768t-.8-4.544a10.6 10.6 0 0 0-2.144-3.872l.8-.704q1.952 1.984 3.072 4.352a16.8 16.8 0 0 1 1.472 4.864 16.9 16.9 0 0 1 0 4.864M176.928 195.32q-.608 0-1.056-.192a1.36 1.36 0 0 1-.672-.576q-.257-.448-.384-1.248l-.928-6.816a38 38 0 0 1-.192-1.312q-.096-.768-.192-1.568a54 54 0 0 1-.16-1.504 37 37 0 0 0-.128-1.216h-.128q-.48 1.152-1.248 2.656a271 271 0 0 1-1.44 2.784L165.824 195h-3.008l9.6-17.216-.384-2.144q-.224-1.409-1.024-2.112-.768-.704-2.304-.704a7 7 0 0 0-1.024.064q-.448.064-.8.128l.48-2.24q.32-.096.64-.128.352-.065.736-.096.384-.032.8-.032 1.664 0 2.72.544t1.664 1.696q.64 1.152.928 2.976l2.624 16.16q.096.448.192.704a.85.85 0 0 0 .288.32.9.9 0 0 0 .416.096q.257 0 .48-.064.256-.064.416-.096l-.448 2.08a9 9 0 0 1-.576.192 2.8 2.8 0 0 1-.608.128 3.6 3.6 0 0 1-.704.064"/><path stroke="#ffff32" stroke-linecap="round" stroke-width="3" d="M92 162.229s20-118.5 78-103c5.449 1.456 16.5-16.729 16.5-16.729S195 78 200 76s16.5-37.5 16.5-37.5l13.273 63.229M293.5 150c-22-8-44-84-44-84s-4 41.453-10.54 45.229m-9.187-9.5c3.05 3.187 6.097 6.375 9.187 9.5m-9.187-9.5 9.187 9.5"/><path fill="#59f9ff" d="m184.276 9.508 5.292-2.988h2.556l-3.78 21.564q-.216 1.224-.144 1.476.072.216.612.288l1.944.216-.18.936h-9.396l.18-.936 2.736-.216q.576-.036.72-.252.18-.252.396-1.512l3.456-19.764-3.888 2.196zM229.38 23.584 228.084 31h-14.472l.36-1.908q.468-2.592 1.656-4.284a12.7 12.7 0 0 1 2.772-2.88 42 42 0 0 1 3.312-2.196q1.62-.972 3.06-2.016a8.3 8.3 0 0 0 2.376-2.556q.936-1.512.936-3.816 0-2.16-.864-3.096-.828-.936-2.592-.936-2.376 0-3.6 1.8-1.224 1.764-1.476 5.076l-3.024-.576q0-2.016.9-3.708.936-1.692 2.736-2.7Q222 6.16 224.628 6.16q2.412 0 3.888.792 1.512.792 2.232 2.124t.72 2.988q0 2.052-.828 3.42t-2.232 2.34q-1.368.936-3.024 1.728a104 104 0 0 0-3.312 1.584 18.2 18.2 0 0 0-4.068 2.772q-1.8 1.656-2.52 4.392h9.144q.864 0 1.224-.036.36-.072.54-.288t.36-.612l1.692-3.78zM261.488 47.98q0 1.836-.936 3.528t-2.88 2.772-4.932 1.08q-2.88 0-4.716-1.296-1.8-1.332-2.196-4.356l2.052-.648q0 1.98.648 3.132.648 1.116 1.656 1.584a5.7 5.7 0 0 0 2.196.432q2.664 0 4.14-1.872 1.512-1.872 1.512-4.716 0-2.232-1.152-3.42-1.152-1.224-3.816-1.224h-.972l.252-1.152h.972q2.34 0 3.744-.936 1.44-.972 2.088-2.484a8.1 8.1 0 0 0 .648-3.24q0-2.016-.864-2.916-.828-.936-2.484-.936-2.412 0-3.672 1.8-1.224 1.764-1.476 5.076l-3.024-.576q0-1.944.936-3.636t2.772-2.736q1.836-1.08 4.536-1.08 3.528 0 5.112 1.62 1.62 1.584 1.62 3.924 0 2.52-1.62 4.32-1.62 1.764-4.896 2.412 2.304.54 3.528 1.944 1.224 1.368 1.224 3.6"/></g><defs><clipPath id="a"><path fill="#fff" d="M0 0h300v200H0z"/></clipPath></defs></svg>