<svg xmlns="http://www.w3.org/2000/svg" width="300" height="200" fill="none" viewBox="0 0 300 200"><g clip-path="url(#a)"><path fill="#000" d="M0 0h300v200H0z"/><path fill="#fff" d="m61 27-5.773 10h11.547zm0 138h1V36h-2v129z"/><path fill="#fff" d="m288 164-10-5.774v11.548zm-228 0v1h219v-2H60zM7.808 46.104l.16-.864h7.712l-.16.864-1.792.16q-.32.032-.48.128t-.256.416q-.096.288-.224 1.024L9.824 64.408q-.191 1.12-.128 1.312.065.192.576.256l1.728.192-.16.832H4.128l.16-.832 1.792-.192q.352-.031.48-.096.16-.096.256-.384.096-.32.224-1.088l2.944-16.576q.191-1.12.128-1.312-.065-.192-.576-.256zm9.533 11.744.192-1.28q.64-4.192 3.008-7.456Q22.91 45.816 26.973 43l.672.896q-3.2 2.527-4.96 5.76-1.728 3.232-2.4 7.168l-.224 1.216a25.5 25.5 0 0 0-.32 4.768q.095 2.369.8 4.512a11.3 11.3 0 0 0 2.144 3.872l-.8.704q-1.951-1.984-3.072-4.352a16.8 16.8 0 0 1-1.472-4.864 16.7 16.7 0 0 1 0-4.832M38.46 67.32q-.608 0-1.056-.192a1.35 1.35 0 0 1-.672-.576q-.255-.449-.384-1.248l-.928-6.816a38 38 0 0 1-.192-1.312q-.096-.768-.192-1.568a53 53 0 0 1-.16-1.504q-.063-.705-.128-1.216h-.128q-.48 1.152-1.248 2.656t-1.44 2.784L27.355 67h-3.008l9.6-17.216-.384-2.144q-.224-1.409-1.024-2.112-.768-.705-2.304-.704a7 7 0 0 0-1.024.064q-.447.064-.8.128l.48-2.24q.32-.096.64-.128.352-.065.736-.096.384-.032.8-.032 1.665 0 2.72.544t1.664 1.696q.64 1.152.928 2.976l2.624 16.16q.096.448.192.704.129.225.288.32a.9.9 0 0 0 .416.096q.255 0 .48-.064.256-.065.416-.096l-.448 2.08q-.255.096-.576.192a2.8 2.8 0 0 1-.608.128 3.6 3.6 0 0 1-.704.064m12.778-10.24-.192 1.28q-.608 4.16-3.008 7.424t-6.432 6.112l-.64-.896q3.168-2.528 4.896-5.728 1.76-3.233 2.432-7.2l.224-1.184q.416-2.368.32-4.768t-.8-4.544a10.6 10.6 0 0 0-2.144-3.872l.8-.704q1.952 1.984 3.072 4.352a16.8 16.8 0 0 1 1.472 4.864 16.9 16.9 0 0 1 0 4.864M176.928 195.32q-.608 0-1.056-.192a1.36 1.36 0 0 1-.672-.576q-.257-.448-.384-1.248l-.928-6.816a38 38 0 0 1-.192-1.312q-.096-.768-.192-1.568a54 54 0 0 1-.16-1.504 37 37 0 0 0-.128-1.216h-.128q-.48 1.152-1.248 2.656a271 271 0 0 1-1.44 2.784L165.824 195h-3.008l9.6-17.216-.384-2.144q-.224-1.409-1.024-2.112-.768-.704-2.304-.704a7 7 0 0 0-1.024.064q-.448.064-.8.128l.48-2.24q.32-.096.64-.128.352-.065.736-.096.384-.032.8-.032 1.664 0 2.72.544t1.664 1.696q.64 1.152.928 2.976l2.624 16.16q.096.448.192.704a.85.85 0 0 0 .288.32.9.9 0 0 0 .416.096q.257 0 .48-.064.256-.064.416-.096l-.448 2.08a9 9 0 0 1-.576.192 2.8 2.8 0 0 1-.608.128 3.6 3.6 0 0 1-.704.064"/><path stroke="#ffff32" stroke-linecap="round" stroke-width="3" d="M92 162.229s20-118.5 78-103c14.753 3.943 26.723 11.573 37.5 20.76m86 70.011c-22-8-19.811-9.949-33.777-20.271M207.5 79.989c3.992 3.402 5.755-39.481 9.5-35.76m-9.5 35.76 9.5-35.76m0 0c3.623 3.601 9.232 53.8 12.773 57.5m0 0c3.05 3.187 6.097 6.375 9.187 9.5m-9.187-9.5 9.187 9.5m0 0c2.96 2.994 1.959-46.324 5.04-43.5m0 0c3.762 3.45 11.645 58.986 15.723 62m-15.723-62 15.723 62"/></g><defs><clipPath id="a"><path fill="#fff" d="M0 0h300v200H0z"/></clipPath></defs></svg>