<svg xmlns="http://www.w3.org/2000/svg" width="300" height="200" fill="none" viewBox="0 0 300 200"><g clip-path="url(#a)"><path fill="#000" d="M0 0h300v200H0z"/><circle cx="73.926" cy="90.959" r="19.553" fill="url(#b)" transform="rotate(62.438 73.926 90.959)"/><path fill="#fff" d="M78.92 95.864q-1.12 1.952-2.816 2.72-1.695.736-3.36.736-2.208 0-3.68-1.056-1.44-1.056-2.016-2.944-.544-1.92-.096-4.448l.128-.704q.384-2.175 1.472-3.808 1.12-1.664 2.784-2.592 1.695-.928 3.808-.928 1.632 0 2.752.544t1.696 1.44q.576.864.576 1.856 0 1.6-1.152 2.752-1.12 1.152-3.136 1.824-1.984.64-4.608.832l-1.664.128q-.416 3.04.416 4.576.864 1.504 2.816 1.504.768 0 1.664-.288t1.696-.992q.8-.705 1.216-1.952zm-8.928-6.112-.224 1.44 1.472-.096q2.624-.16 4.032-.864 1.409-.705 1.952-1.696.544-.992.544-1.984 0-1.248-.736-1.952-.704-.736-1.984-.736-1.695 0-3.104 1.408-1.409 1.375-1.952 4.48"/><path stroke="url(#c)" stroke-width="4" d="m65.132 47.276 8.545 22.007"/><path stroke="url(#d)" stroke-width="4" d="m54.64 52.503 9.65 18.489"/><path stroke="url(#e)" stroke-width="4" d="m40.461 59.3 16.634 17.784"/><circle cx="107.5" cy="145.5" r="25.5" stroke="#fff" stroke-dasharray="5 5" stroke-width="2"/><circle cx="207.016" cy="96.056" r="21.469" fill="url(#f)" transform="rotate(-22.524 207.016 96.056)"/><path fill="#fff" d="m201.864 107.168-.128.832h-6.08l.128-.832 1.664-.192a1.9 1.9 0 0 0 .48-.096q.192-.064.448-.352t.768-.928l6.592-8.32-3.392-8.64q-.352-.96-.512-1.12-.16-.192-.608-.256l-1.632-.16.16-.864h7.648l-.16.864-1.664.16q-.512.064-.576.256-.032.192.32 1.12l2.592 6.656 5.216-6.656q.737-.928.768-1.12.064-.192-.416-.256l-1.632-.16.16-.864h6.08l-.16.864-1.664.16a1.5 1.5 0 0 0-.512.128q-.16.064-.416.352-.256.256-.768.896l-6.208 7.872 3.552 9.088q.352.96.512 1.152.16.16.608.224l1.632.192-.16.832h-7.616l.16-.832 1.664-.192q.544-.064.576-.224.032-.192-.32-1.152l-2.784-7.104-5.6 7.104q-.737.928-.768 1.12t.448.256z"/><path stroke="url(#g)" stroke-width="4" d="m158.443 101.652 24.894-7.225"/><path stroke="url(#h)" stroke-width="4" d="m163.168 113.624 21.154-8.772"/><path stroke="url(#i)" stroke-width="4" d="m169.281 129.762 21.057-16.48"/><circle cx="150" cy="223" r="205" stroke="#fff" stroke-width="2"/><circle cx="149.5" cy="242.5" r="104.5" stroke="#fff" stroke-width="2"/><path fill="#fff" d="m108 146-.376-11.541-9.807 6.096zm-23-37-.85.528 18.249 29.356.85-.528.849-.528-18.249-29.356z"/><path fill="#ffff32" d="m150 171.064-.18.936h-8.676l.18-.936 2.016-.216q.612-.072.756-.288.144-.252.36-1.476l3.276-18.648q.216-1.26.144-1.476-.072-.252-.612-.288l-1.944-.216.144-.936h8.676l-.144.936-2.016.216q-.576.036-.756.288-.144.216-.36 1.476L149.1 160.48l10.44-10.26q1.044-1.044 1.08-1.26.072-.252-.468-.288l-1.8-.216.144-.936h7.056l-.144.936-1.908.216q-.36.036-.612.144-.216.072-.54.396-.324.288-1.044 1.008l-6.876 6.768 4.788 12.096q.36.864.54 1.224.216.324.396.432.216.072.576.108l1.692.216-.18.936h-5.4l-4.788-12.672-3.312 3.276-1.152 6.48q-.216 1.224-.144 1.476.072.216.612.288zM152.568 45.06 151.524 51h-16.38l.18-.936 2.016-.216q.396-.036.54-.108.18-.108.288-.432.108-.36.252-1.224l3.312-18.648q.216-1.26.144-1.476t-.648-.288l-1.944-.18.18-.972h8.676l-.18.972-2.016.18q-.36.036-.54.144t-.288.468q-.108.324-.252 1.152l-3.6 20.412h6.516q.864 0 1.224-.036.36-.072.54-.252.18-.216.36-.648l1.728-3.852z"/></g><defs><linearGradient id="b" x1="73.926" x2="73.926" y1="71.406" y2="110.512" gradientUnits="userSpaceOnUse"><stop stop-color="#59f9ff"/><stop offset="1" stop-color="#369699"/></linearGradient><linearGradient id="c" x1="62.801" x2="71.346" y1="48.181" y2="70.188" gradientUnits="userSpaceOnUse"><stop/><stop offset="1" stop-color="#4dedff"/></linearGradient><linearGradient id="d" x1="52.424" x2="62.074" y1="53.66" y2="72.149" gradientUnits="userSpaceOnUse"><stop/><stop offset="1" stop-color="#4dedff"/></linearGradient><linearGradient id="e" x1="38.635" x2="55.269" y1="61.007" y2="78.792" gradientUnits="userSpaceOnUse"><stop/><stop offset="1" stop-color="#4dedff"/></linearGradient><linearGradient id="f" x1="207.016" x2="207.016" y1="74.587" y2="117.525" gradientUnits="userSpaceOnUse"><stop stop-color="#ff424c"/><stop offset="1" stop-color="#ffaeaf"/></linearGradient><linearGradient id="g" x1="159.139" x2="184.034" y1="104.053" y2="96.828" gradientUnits="userSpaceOnUse"><stop/><stop offset="1" stop-color="#ff4d50"/></linearGradient><linearGradient id="h" x1="164.126" x2="185.28" y1="115.933" y2="107.161" gradientUnits="userSpaceOnUse"><stop/><stop offset="1" stop-color="#ff4d50"/></linearGradient><linearGradient id="i" x1="170.822" x2="191.879" y1="131.731" y2="115.251" gradientUnits="userSpaceOnUse"><stop/><stop offset="1" stop-color="#ff4d50"/></linearGradient><clipPath id="a"><path fill="#fff" d="M0 0h300v200H0z"/></clipPath></defs></svg>