<svg xmlns="http://www.w3.org/2000/svg" width="300" height="200" fill="none" viewBox="0 0 300 200"><path fill="#000" d="M0 0h300v200H0z"/><path fill="#ff5252" d="M140.4 58.66v-.7h5.28v.7zm20.246 5.82V65h-4.82v-.52l1.1-.12q.32-.04.38-.16t.06-.82v-4.92h-6.04v4.92q0 .7.06.82t.38.16l1.1.12V65h-4.82v-.52l1.1-.12q.32-.04.38-.16t.06-.82V53.02q0-.7-.06-.82t-.38-.16l-1.1-.1v-.54h4.82v.54l-1.1.1q-.32.04-.38.16t-.06.82v4.8h6.04v-4.8q0-.7-.06-.82t-.38-.16l-1.1-.1v-.54h4.82v.54l-1.1.1q-.32.04-.38.16t-.06.82v10.36q0 .7.06.82t.38.16zm7.632.72q-2.54 0-3.88-1.7-1.32-1.7-1.32-4.56v-1.5q0-1.88.56-3.28.58-1.4 1.7-2.18t2.74-.78q1.5 0 2.48.6.98.58 1.42 1.54.44.94.28 2.06l-1.72.42q.22-1.92-.44-2.94-.66-1.04-2.02-1.04-1.52 0-2.32 1.08-.78 1.08-.78 3.52v3.5q0 2.46.84 3.54t2.5 1.08q.66 0 1.26-.22.6-.24 1.02-.8t.52-1.56l1.24.32q-.441 1.6-1.56 2.26-1.101.64-2.52.64m5.52-14.46v-.54h3.18v13.18q0 .7.06.82t.38.16l1.1.12V65h-4.72v-.52l1.1-.12q.32-.04.38-.16t.06-.82V51.82q0-.7-.06-.82t-.38-.16zM198.4 111.66v-.7h5.28v.7zm20.246 5.82v.52h-4.82v-.52l1.1-.12q.32-.04.38-.16t.06-.82v-4.92h-6.04v4.92q0 .7.06.82t.38.16l1.1.12v.52h-4.82v-.52l1.1-.12q.32-.04.38-.16t.06-.82v-10.36q0-.7-.06-.82t-.38-.16l-1.1-.1v-.54h4.82v.54l-1.1.1q-.32.04-.38.16t-.06.82v4.8h6.04v-4.8q0-.7-.06-.82t-.38-.16l-1.1-.1v-.54h4.82v.54l-1.1.1q-.32.04-.38.16t-.06.82v10.36q0 .7.06.82t.38.16zm7.632.72q-2.54 0-3.88-1.7-1.32-1.7-1.32-4.56v-1.5q0-1.88.56-3.28.58-1.4 1.7-2.18t2.74-.78q1.5 0 2.48.6.98.58 1.42 1.54.44.94.28 2.06l-1.72.42q.22-1.92-.44-2.94-.66-1.04-2.02-1.04-1.52 0-2.32 1.08-.78 1.08-.78 3.52v3.5q0 2.46.84 3.54t2.5 1.08q.66 0 1.26-.22.6-.24 1.02-.8t.52-1.56l1.24.32q-.441 1.6-1.56 2.26-1.101.64-2.52.64m5.52-14.46v-.54h3.18v13.18q0 .7.06.82t.38.16l1.1.12v.52h-4.72v-.52l1.1-.12q.32-.04.38-.16t.06-.82v-11.56q0-.7-.06-.82t-.38-.16zM145.4 173.66v-.7h5.28v.7zm20.246 5.82v.52h-4.82v-.52l1.1-.12q.32-.04.38-.16t.06-.82v-4.92h-6.04v4.92q0 .7.06.82t.38.16l1.1.12v.52h-4.82v-.52l1.1-.12q.32-.04.38-.16t.06-.82v-10.36q0-.7-.06-.82t-.38-.16l-1.1-.1v-.54h4.82v.54l-1.1.1q-.32.04-.38.16t-.06.82v4.8h6.04v-4.8q0-.7-.06-.82t-.38-.16l-1.1-.1v-.54h4.82v.54l-1.1.1q-.32.04-.38.16t-.06.82v10.36q0 .7.06.82t.38.16zm7.632.72q-2.54 0-3.88-1.7-1.32-1.7-1.32-4.56v-1.5q0-1.88.56-3.28.58-1.4 1.7-2.18t2.74-.78q1.5 0 2.48.6.98.58 1.42 1.54.44.94.28 2.06l-1.72.42q.22-1.92-.44-2.94-.66-1.04-2.02-1.04-1.52 0-2.32 1.08-.78 1.08-.78 3.52v3.5q0 2.46.84 3.54t2.5 1.08q.66 0 1.26-.22.6-.24 1.02-.8t.52-1.56l1.24.32q-.441 1.6-1.56 2.26-1.101.64-2.52.64m5.52-14.46v-.54h3.18v13.18q0 .7.06.82t.38.16l1.1.12v.52h-4.72v-.52l1.1-.12q.32-.04.38-.16t.06-.82v-11.56q0-.7-.06-.82t-.38-.16zM6.4 171.66v-.7h5.28v.7zm20.246 5.82v.52h-4.82v-.52l1.1-.12q.32-.04.38-.16t.06-.82v-4.92h-6.04v4.92q0 .7.06.82t.38.16l1.1.12v.52h-4.82v-.52l1.1-.12q.32-.04.38-.16t.06-.82v-10.36q0-.7-.06-.82t-.38-.16l-1.1-.1v-.54h4.82v.54l-1.1.1q-.32.04-.38.16t-.06.82v4.8h6.04v-4.8q0-.7-.06-.82t-.38-.16l-1.1-.1v-.54h4.82v.54l-1.1.1q-.32.04-.38.16t-.06.82v10.36q0 .7.06.82t.38.16zm7.632.72q-2.54 0-3.88-1.7-1.32-1.7-1.32-4.56v-1.5q0-1.88.56-3.28.58-1.4 1.7-2.18t2.74-.78q1.5 0 2.48.6.98.58 1.42 1.54.44.94.28 2.06l-1.72.42q.22-1.92-.44-2.94-.66-1.04-2.02-1.04-1.52 0-2.32 1.08-.78 1.08-.78 3.52v3.5q0 2.46.84 3.54t2.5 1.08q.66 0 1.26-.22.6-.24 1.02-.8t.52-1.56l1.24.32q-.441 1.6-1.56 2.26-1.101.64-2.52.64m5.52-14.46v-.54h3.18v13.18q0 .7.06.82t.38.16l1.1.12v.52h-4.72v-.52l1.1-.12q.32-.04.38-.16t.06-.82v-11.56q0-.7-.06-.82t-.38-.16z"/><path fill="#fff" d="M34.682 44.23q-2.921 0-4.462-1.955-1.518-1.955-1.518-5.244v-1.725q0-2.162.644-3.772.667-1.61 1.955-2.507t3.151-.897q1.724 0 2.852.69 1.127.667 1.633 1.771.506 1.08.322 2.369l-1.978.483q.253-2.208-.506-3.381-.759-1.196-2.323-1.196-1.748 0-2.668 1.242-.897 1.242-.897 4.048v4.025q0 2.829.966 4.071t2.875 1.242q.759 0 1.449-.253.69-.276 1.173-.92t.598-1.794l1.426.368q-.506 1.84-1.794 2.599-1.265.736-2.898.736m21.389-.828V44h-5.543v-.598l1.265-.138q.367-.046.437-.184.069-.138.069-.943v-5.658h-6.946v5.658q0 .805.069.943t.437.184l1.265.138V44H41.58v-.598l1.265-.138q.367-.046.437-.184.069-.138.069-.943V30.223q0-.805-.07-.943-.068-.138-.436-.184l-1.265-.115v-.621h5.543v.621l-1.265.115q-.368.045-.437.184-.07.138-.07.943v5.52H52.3v-5.52q0-.805-.07-.943-.068-.138-.436-.184l-1.265-.115v-.621h5.543v.621l-1.265.115q-.368.045-.437.184-.07.138-.07.943v11.914q0 .805.07.943.069.138.437.184zm4.613 1.955v-.897H57.28v-.483q.781-.85 1.288-1.61a8.3 8.3 0 0 0 .874-1.679q.345-.92.552-2.093h1.564a7.14 7.14 0 0 1-1.426 2.875 47 47 0 0 1-2.254 2.507h2.806v-1.771l1.334-.138v1.909h.897v.483h-.897v.897q0 .39.046.46.046.069.207.115l.644.069v.414h-3.22v-.414l.736-.069q.184-.023.207-.115.045-.07.046-.46M222.682 45.23q-2.921 0-4.462-1.955-1.518-1.955-1.518-5.244v-1.725q0-2.162.644-3.772.667-1.61 1.955-2.507t3.151-.897q1.725 0 2.852.69 1.127.667 1.633 1.771.506 1.08.322 2.369l-1.978.483q.253-2.208-.506-3.381-.759-1.196-2.323-1.196-1.748 0-2.668 1.242-.897 1.242-.897 4.048v4.025q0 2.829.966 4.071t2.875 1.242q.759 0 1.449-.253.69-.276 1.173-.92t.598-1.794l1.426.368q-.506 1.84-1.794 2.599-1.264.736-2.898.736m21.389-.828V45h-5.543v-.598l1.265-.138q.368-.046.437-.184t.069-.943v-5.658h-6.946v5.658q0 .805.069.943.068.138.437.184l1.265.138V45h-5.543v-.598l1.265-.138q.368-.046.437-.184t.069-.943V31.223q0-.805-.069-.943-.07-.138-.437-.184l-1.265-.115v-.621h5.543v.621l-1.265.115q-.369.045-.437.184-.069.138-.069.943v5.52h6.946v-5.52q0-.805-.069-.943-.07-.138-.437-.184l-1.265-.115v-.621h5.543v.621l-1.265.115q-.368.045-.437.184-.069.138-.069.943v11.914q0 .805.069.943t.437.184zm3.762-.759h-.414v-.483h.414q.874 0 1.219-.46.368-.483.368-1.219 0-1.518-1.15-1.518-1.357 0-1.15 2.07l-1.357-.184a1.92 1.92 0 0 1 .437-1.633q.621-.736 2.07-.736 1.403 0 2.001.598t.598 1.403q0 1.472-1.564 1.909 1.702.46 1.702 2.07 0 .828-.644 1.449t-2.07.621a3.3 3.3 0 0 1-1.564-.368q-.69-.345-.966-1.311l.759-.23q.115.828.598 1.127.506.3 1.058.299 1.357 0 1.357-1.587 0-.805-.391-1.311-.367-.506-1.311-.506m11.707 1.587q-2.92 0-4.462-1.955-1.518-1.955-1.518-5.244v-1.725q0-2.162.644-3.772.668-1.61 1.955-2.507 1.288-.897 3.151-.897 1.725 0 2.852.69 1.128.667 1.633 1.771.507 1.08.322 2.369l-1.978.483q.253-2.208-.506-3.381-.759-1.196-2.323-1.196-1.747 0-2.668 1.242-.897 1.242-.897 4.048v4.025q0 2.829.966 4.071t2.875 1.242q.759 0 1.449-.253.69-.276 1.173-.92t.598-1.794l1.426.368q-.505 1.84-1.794 2.599-1.264.736-2.898.736m6.349-16.629v-.621h3.657v15.157q0 .805.069.943.07.138.437.184l1.265.138V45h-5.428v-.598l1.265-.138q.368-.046.437-.184t.069-.943V29.843q0-.805-.069-.943-.07-.138-.437-.184zM222.682 164.23q-2.921 0-4.462-1.955-1.518-1.954-1.518-5.244v-1.725q0-2.162.644-3.772.667-1.61 1.955-2.507t3.151-.897q1.725 0 2.852.69 1.127.667 1.633 1.771.506 1.081.322 2.369l-1.978.483q.253-2.208-.506-3.381-.759-1.196-2.323-1.196-1.748 0-2.668 1.242-.897 1.242-.897 4.048v4.025q0 2.829.966 4.071t2.875 1.242q.759 0 1.449-.253.69-.276 1.173-.92.483-.643.598-1.794l1.426.368q-.506 1.84-1.794 2.599-1.264.736-2.898.736m21.389-.828V164h-5.543v-.598l1.265-.138q.368-.046.437-.184t.069-.943v-5.658h-6.946v5.658q0 .805.069.943.068.138.437.184l1.265.138V164h-5.543v-.598l1.265-.138q.368-.046.437-.184t.069-.943v-11.914q0-.805-.069-.943-.07-.138-.437-.184l-1.265-.115v-.621h5.543v.621l-1.265.115q-.369.046-.437.184-.069.138-.069.943v5.52h6.946v-5.52q0-.805-.069-.943-.07-.138-.437-.184l-1.265-.115v-.621h5.543v.621l-1.265.115q-.368.046-.437.184t-.069.943v11.914q0 .805.069.943t.437.184zm6.292.736h.483v2.277h-4.991v-.621q0-.851.23-1.357t.667-.874a9.5 9.5 0 0 1 1.081-.736q.599-.345 1.104-.782.506-.46.506-1.38 0-1.656-1.127-1.656-1.334 0-1.127 2.07l-1.357-.184a1.98 1.98 0 0 1 .46-1.679q.621-.736 2.024-.736t1.978.667q.598.667.598 1.541 0 .875-.46 1.38a3.5 3.5 0 0 1-1.127.782q-.667.276-1.288.598-1.311.667-1.449 1.955h2.99q.392 0 .483-.046.115-.046.138-.253zm9.155.092q-2.921 0-4.462-1.955-1.518-1.954-1.518-5.244v-1.725q0-2.162.644-3.772.667-1.61 1.955-2.507t3.151-.897q1.725 0 2.852.69 1.127.667 1.633 1.771.506 1.081.322 2.369l-1.978.483q.253-2.208-.506-3.381-.759-1.196-2.323-1.196-1.748 0-2.668 1.242-.897 1.242-.897 4.048v4.025q0 2.829.966 4.071t2.875 1.242q.759 0 1.449-.253.69-.276 1.173-.92.483-.643.598-1.794l1.426.368q-.506 1.84-1.794 2.599-1.265.736-2.898.736m6.349-16.629v-.621h3.657v15.157q0 .805.069.943.068.138.437.184l1.265.138V164h-5.428v-.598l1.265-.138q.368-.046.437-.184t.069-.943v-13.294q0-.805-.069-.943-.07-.138-.437-.184zm11.292 16.537h.483v2.277h-4.991v-.621q0-.851.23-1.357t.667-.874a9.5 9.5 0 0 1 1.081-.736q.599-.345 1.104-.782.506-.46.506-1.38 0-1.656-1.127-1.656-1.334 0-1.127 2.07l-1.357-.184a1.98 1.98 0 0 1 .46-1.679q.621-.736 2.024-.736t1.978.667q.598.667.598 1.541 0 .875-.46 1.38a3.5 3.5 0 0 1-1.127.782q-.667.276-1.288.598-1.311.667-1.449 1.955h2.99q.392 0 .483-.046.115-.046.138-.253zM65.682 166.23q-2.921 0-4.462-1.955-1.518-1.954-1.518-5.244v-1.725q0-2.162.644-3.772.667-1.61 1.955-2.507t3.151-.897q1.725 0 2.852.69 1.127.667 1.633 1.771.506 1.081.322 2.369l-1.978.483q.253-2.208-.506-3.381-.759-1.196-2.323-1.196-1.748 0-2.668 1.242-.897 1.242-.897 4.048v4.025q0 2.829.966 4.071t2.875 1.242q.759 0 1.449-.253.69-.276 1.173-.92.483-.643.598-1.794l1.426.368q-.506 1.84-1.794 2.599-1.265.736-2.898.736m21.389-.828V166h-5.543v-.598l1.265-.138q.367-.046.437-.184.069-.138.069-.943v-5.658h-6.946v5.658q0 .805.069.943t.437.184l1.265.138V166H72.58v-.598l1.265-.138q.367-.046.437-.184.069-.138.069-.943v-11.914q0-.805-.07-.943-.068-.138-.436-.184l-1.265-.115v-.621h5.543v.621l-1.265.115q-.369.046-.437.184-.07.138-.07.943v5.52H83.3v-5.52q0-.805-.07-.943-.068-.138-.436-.184l-1.265-.115v-.621h5.543v.621l-1.265.115q-.369.046-.437.184-.07.138-.07.943v11.914q0 .805.07.943.069.138.437.184zm8.776.828q-2.921 0-4.462-1.955-1.518-1.954-1.518-5.244v-1.725q0-2.162.644-3.772.667-1.61 1.955-2.507t3.151-.897q1.725 0 2.852.69 1.127.667 1.633 1.771.506 1.081.322 2.369l-1.978.483q.253-2.208-.506-3.381-.759-1.196-2.323-1.196-1.748 0-2.668 1.242-.897 1.242-.897 4.048v4.025q0 2.829.966 4.071t2.875 1.242q.759 0 1.449-.253.69-.276 1.173-.92.483-.643.598-1.794l1.426.368q-.505 1.84-1.794 2.599-1.265.736-2.898.736m6.349-16.629v-.621h3.657v15.157q0 .805.069.943t.437.184l1.265.138V166h-5.428v-.598l1.265-.138q.368-.046.437-.184t.069-.943v-13.294q0-.805-.069-.943-.07-.138-.437-.184zm8.762 15.042h-.414v-.483h.414q.874 0 1.219-.46.368-.483.368-1.219 0-1.518-1.15-1.518-1.357 0-1.15 2.07l-1.357-.184a1.92 1.92 0 0 1 .437-1.633q.621-.736 2.07-.736 1.403 0 2.001.598t.598 1.403q0 1.472-1.564 1.909 1.702.46 1.702 2.07 0 .828-.644 1.449t-2.07.621a3.3 3.3 0 0 1-1.564-.368q-.69-.345-.966-1.311l.759-.23q.115.828.598 1.127.506.299 1.058.299 1.357 0 1.357-1.587 0-.805-.391-1.311-.368-.506-1.311-.506M19.682 101.23q-2.921 0-4.462-1.955-1.518-1.954-1.518-5.244v-1.725q0-2.162.644-3.772.667-1.61 1.955-2.507t3.151-.897q1.724 0 2.852.69 1.127.667 1.633 1.771.506 1.08.322 2.369l-1.978.483q.253-2.208-.506-3.381-.759-1.196-2.323-1.196-1.748 0-2.668 1.242-.897 1.242-.897 4.048v4.025q0 2.829.966 4.071t2.875 1.242q.759 0 1.449-.253.69-.275 1.173-.92.483-.644.598-1.794l1.426.368q-.505 1.84-1.794 2.599-1.265.736-2.898.736m13.477 0q-2.922 0-4.462-1.955-1.518-1.954-1.518-5.244v-1.725q0-2.162.644-3.772.666-1.61 1.955-2.507 1.288-.897 3.15-.897 1.725 0 2.853.69 1.126.667 1.633 1.771.505 1.08.322 2.369l-1.978.483q.252-2.208-.506-3.381-.759-1.196-2.323-1.196-1.749 0-2.668 1.242-.897 1.242-.897 4.048v4.025q0 2.829.966 4.071t2.875 1.242q.759 0 1.449-.253.69-.275 1.173-.92.482-.644.598-1.794l1.426.368q-.507 1.84-1.794 2.599-1.266.736-2.898.736m6.348-16.629v-.621h3.657v15.157q0 .805.07.943.067.138.436.184l1.265.138V101h-5.428v-.598l1.265-.138q.368-.046.437-.184.07-.138.07-.943V85.843q0-.805-.07-.943-.069-.138-.437-.184zm9.614 17.756v-.897h-3.404v-.483q.78-.85 1.288-1.61a8.3 8.3 0 0 0 .874-1.679q.345-.92.552-2.093h1.564a7.14 7.14 0 0 1-1.426 2.875 47 47 0 0 1-2.254 2.507h2.806v-1.771l1.334-.138v1.909h.897v.483h-.897v.897q0 .391.046.46t.207.115l.644.069v.414h-3.22v-.414l.736-.069q.183-.023.207-.115.045-.069.046-.46"/><path fill="#fffb2a" d="M218.682 88.23q-2.921 0-4.462-1.955-1.518-1.954-1.518-5.244v-1.725q0-2.162.644-3.772.667-1.61 1.955-2.507t3.151-.897q1.725 0 2.852.69 1.127.667 1.633 1.771.506 1.08.322 2.369l-1.978.483q.253-2.208-.506-3.381-.759-1.196-2.323-1.196-1.748 0-2.668 1.242-.897 1.242-.897 4.048v4.025q0 2.829.966 4.071t2.875 1.242q.759 0 1.449-.253.69-.275 1.173-.92.483-.644.598-1.794l1.426.368q-.506 1.84-1.794 2.599-1.264.736-2.898.736m6.349-16.629v-.621h3.657v15.157q0 .805.069.943t.437.184l1.265.138V88h-5.428v-.598l1.265-.138q.368-.046.437-.184t.069-.943V72.843q0-.805-.069-.943-.07-.138-.437-.184zm11.292 16.537h.483v2.277h-4.991v-.621q0-.851.23-1.357t.667-.874q.46-.367 1.081-.736.599-.344 1.104-.782.506-.46.506-1.38 0-1.656-1.127-1.656-1.334 0-1.127 2.07l-1.357-.184a1.98 1.98 0 0 1 .46-1.679q.621-.736 2.024-.736t1.978.667q.598.667.598 1.541 0 .875-.46 1.38a3.5 3.5 0 0 1-1.127.782q-.667.276-1.288.598-1.311.667-1.449 1.955h2.99q.391 0 .483-.046.115-.046.138-.253zM143.682 148.23q-2.921 0-4.462-1.955-1.518-1.954-1.518-5.244v-1.725q0-2.162.644-3.772.667-1.61 1.955-2.507t3.151-.897q1.725 0 2.852.69 1.127.667 1.633 1.771.506 1.081.322 2.369l-1.978.483q.253-2.208-.506-3.381-.759-1.196-2.323-1.196-1.748 0-2.668 1.242-.897 1.242-.897 4.048v4.025q0 2.829.966 4.071t2.875 1.242q.759 0 1.449-.253.69-.276 1.173-.92.483-.643.598-1.794l1.426.368q-.506 1.84-1.794 2.599-1.264.736-2.898.736m6.349-16.629v-.621h3.657v15.157q0 .805.069.943t.437.184l1.265.138V148h-5.428v-.598l1.265-.138q.368-.046.437-.184t.069-.943v-13.294q0-.805-.069-.943-.07-.138-.437-.184zm11.292 16.537h.483v2.277h-4.991v-.621q0-.851.23-1.357t.667-.874a9.5 9.5 0 0 1 1.081-.736q.599-.345 1.104-.782.506-.46.506-1.38 0-1.656-1.127-1.656-1.334 0-1.127 2.07l-1.357-.184a1.98 1.98 0 0 1 .46-1.679q.621-.736 2.024-.736t1.978.667q.598.667.598 1.541 0 .875-.46 1.38a3.5 3.5 0 0 1-1.127.782q-.667.276-1.288.598-1.311.667-1.449 1.955h2.99q.391 0 .483-.046.115-.046.138-.253zM42.682 141.23q-2.921 0-4.462-1.955-1.518-1.954-1.518-5.244v-1.725q0-2.162.644-3.772.667-1.61 1.955-2.507t3.151-.897q1.724 0 2.852.69 1.127.667 1.633 1.771.506 1.081.322 2.369l-1.978.483q.253-2.208-.506-3.381-.759-1.196-2.323-1.196-1.748 0-2.668 1.242-.897 1.242-.897 4.048v4.025q0 2.829.966 4.071t2.875 1.242q.759 0 1.449-.253.69-.276 1.173-.92.483-.643.598-1.794l1.426.368q-.506 1.84-1.794 2.599-1.265.736-2.898.736m6.349-16.629v-.621h3.657v15.157q0 .805.069.943t.437.184l1.265.138V141H49.03v-.598l1.265-.138q.367-.046.437-.184.069-.138.069-.943v-13.294q0-.805-.07-.943-.067-.138-.436-.184zm11.292 16.537h.483v2.277h-4.991v-.621q0-.851.23-1.357t.667-.874a9.4 9.4 0 0 1 1.081-.736 7 7 0 0 0 1.104-.782q.506-.46.506-1.38 0-1.656-1.127-1.656-1.334 0-1.127 2.07l-1.357-.184a1.98 1.98 0 0 1 .46-1.679q.621-.736 2.024-.736t1.978.667q.598.667.598 1.541 0 .875-.46 1.38a3.5 3.5 0 0 1-1.127.782q-.667.276-1.288.598-1.311.667-1.449 1.955h2.99q.39 0 .483-.046.115-.046.138-.253z"/><path fill="#fff" d="M100.682 45.23q-2.921 0-4.462-1.955-1.518-1.955-1.518-5.244v-1.725q0-2.162.644-3.772.667-1.61 1.955-2.507t3.151-.897q1.725 0 2.852.69 1.127.667 1.633 1.771.506 1.08.322 2.369l-1.978.483q.253-2.208-.506-3.381-.759-1.196-2.323-1.196-1.748 0-2.668 1.242-.897 1.242-.897 4.048v4.025q0 2.829.966 4.071t2.875 1.242q.759 0 1.449-.253.69-.276 1.173-.92t.598-1.794l1.426.368q-.505 1.84-1.794 2.599-1.264.736-2.898.736m6.349-16.629v-.621h3.657v15.157q0 .805.069.943t.437.184l1.265.138V45h-5.428v-.598l1.265-.138q.368-.046.437-.184t.069-.943V29.843q0-.805-.069-.943-.07-.138-.437-.184zm11.292 16.537h.483v2.277h-4.991v-.621q0-.851.23-1.357t.667-.874q.46-.367 1.081-.736.599-.344 1.104-.782.506-.46.506-1.38 0-1.656-1.127-1.656-1.334 0-1.127 2.07l-1.357-.184a1.98 1.98 0 0 1 .46-1.679q.621-.736 2.024-.736t1.978.667q.598.667.598 1.541t-.46 1.38a3.5 3.5 0 0 1-1.127.782q-.667.276-1.288.598-1.311.667-1.449 1.955h2.99q.391 0 .483-.046.115-.046.138-.253zM83.024 37.392h-4.56v4.656h-.84v-4.656h-4.536V36.6h4.536v-4.68h.84v4.68h4.56z"/><path fill="#88eafb" d="m200 39-7.5-4.33v8.66zm-68-.75a.75.75 0 0 0 0 1.5v-1.5m61.25.75v-.75H132v1.5h61.25zM244 130l4.33-7.5h-8.66zm.75-68a.75.75 0 0 0-1.5 0h1.5m-.75 61.25h.75V62h-1.5v61.25zM129 158l7.5 4.33v-8.66zm68 .75a.75.75 0 0 0 0-1.5v1.5m-61.25-.75v.75H197v-1.5h-61.25zM31 107.5l-4.33 7.5h8.66zm0 50.5h-.75v.75H31zm21.5.75a.75.75 0 0 0 0-1.5v1.5M31 114.25h-.75V158h1.5v-43.75zM31 158v.75h21.5v-1.5H31z"/><circle cx="163.5" cy="16.5" r="13.5" fill="url(#a)"/><circle cx="267.5" cy="81.5" r="13.5" fill="url(#b)"/><circle cx="179.5" cy="140.5" r="13.5" fill="url(#c)"/><circle cx="15" cy="135" r="12" fill="url(#d)"/><defs><linearGradient id="a" x1="163.5" x2="163.5" y1="3" y2="30" gradientUnits="userSpaceOnUse"><stop stop-color="#ff2626"/><stop offset="1" stop-color="#ffb521"/></linearGradient><linearGradient id="b" x1="267.5" x2="267.5" y1="68" y2="95" gradientUnits="userSpaceOnUse"><stop stop-color="#ff2626"/><stop offset="1" stop-color="#ffb521"/></linearGradient><linearGradient id="c" x1="179.5" x2="179.5" y1="127" y2="154" gradientUnits="userSpaceOnUse"><stop stop-color="#ff2626"/><stop offset="1" stop-color="#ffb521"/></linearGradient><linearGradient id="d" x1="15" x2="15" y1="123" y2="147" gradientUnits="userSpaceOnUse"><stop stop-color="#ff2626"/><stop offset="1" stop-color="#ffb521"/></linearGradient></defs></svg>