<svg xmlns="http://www.w3.org/2000/svg" width="300" height="200" fill="none" viewBox="0 0 300 200"><path fill="#000" d="M0 0h300v200H0z"/><path stroke="#fff" stroke-width="2" d="M155.213 49.965a3 3 0 0 1 2.929 0l42.486 23.763a3 3 0 0 1 1.535 2.618v47.308a3 3 0 0 1-1.535 2.618l-42.486 23.763a3 3 0 0 1-2.929 0l-42.486-23.763a3 3 0 0 1-1.536-2.618V76.346c0-1.087.588-2.088 1.536-2.618z"/><path stroke="#fff" stroke-linecap="round" stroke-width="2" d="M122.873 117.719V83.013M162.274 134.533l25.883-15.656M160.586 65.031l23.338 14.583"/></svg>