<svg xmlns="http://www.w3.org/2000/svg" width="300" height="200" fill="none" viewBox="0 0 300 200"><path fill="#000" d="M0 0h300v200H0z"/><path fill="#fff" d="M151.097 25.94v-.54h3.82v.54l-1.1.1q-.32.04-.38.18-.06.12-.06.8V39h-.98l-7.28-12.28v10.66q0 .68.06.82.06.12.38.16l1.1.12V39h-3.82v-.52l1.1-.12q.32-.04.38-.16.06-.14.06-.82V27.02q0-.68-.06-.8-.06-.14-.38-.18l-1.1-.1v-.54h3.46l6.34 10.72v-9.1q0-.68-.06-.8-.06-.14-.38-.18zm16.448 5.5v1.5q0 2.92-1.34 4.6-1.34 1.66-3.84 1.66-2.52 0-3.86-1.66-1.32-1.68-1.32-4.6v-1.5q0-2.9 1.32-4.56 1.34-1.68 3.86-1.68 2.5 0 3.84 1.68 1.34 1.66 1.34 4.56m-1.9-1q0-2.5-.84-3.54-.82-1.06-2.44-1.06t-2.46 1.06q-.82 1.04-.82 3.54v3.5q0 2.5.82 3.56.84 1.06 2.46 1.06t2.44-1.06q.84-1.06.84-3.56zm7.901 8.68h.42v1.98h-4.34v-.54q0-.74.2-1.18t.58-.76q.4-.32.94-.64.519-.3.96-.68.44-.4.44-1.2 0-1.44-.98-1.44-1.16 0-.98 1.8l-1.18-.16a1.72 1.72 0 0 1 .4-1.46q.54-.64 1.76-.64t1.72.58q.52.58.52 1.34t-.4 1.2q-.4.42-.98.68-.58.24-1.12.52-1.14.58-1.26 1.7h2.6q.339 0 .42-.04.099-.04.12-.22z"/><path fill="#ff5252" d="M254.024 120.088h.624V124h-11.496v-.624l1.32-.144q.384-.048.456-.192t.072-.984v-12.432q0-.84-.072-.984t-.456-.192l-1.32-.12v-.648h11.184v3.912h-.6l-.696-2.52q-.072-.288-.168-.408-.072-.144-.312-.168-.24-.048-.816-.048h-4.656v6.936h3.216q.576 0 .816-.024.24-.048.312-.168.096-.144.168-.432l.456-1.8h.624v5.616h-.624l-.456-1.8q-.072-.288-.168-.408-.072-.144-.312-.168-.24-.048-.816-.048h-3.216v7.08h4.944q.576 0 .816-.024.24-.048.312-.168.096-.144.168-.432zm9.112-8.653H260.4v2.794h-.504v-2.794h-2.721v-.475h2.721v-2.808h.504v2.808h2.736z"/><path stroke="#fff" stroke-width="2" d="M149.253 73.263a3 3 0 0 1 2.929 0l33.86 18.939a3 3 0 0 1 1.535 2.618v37.659a3 3 0 0 1-1.535 2.618l-33.86 18.939a3 3 0 0 1-2.929 0l-33.86-18.939a3 3 0 0 1-1.536-2.618v-37.66c0-1.086.587-2.087 1.536-2.617z"/><circle cx="150.717" cy="114.105" r="22.18" stroke="#fae13e" stroke-width="3"/><path stroke="#fff" stroke-linecap="round" stroke-width="2" d="M150.842 73.035V45.14"/><circle cx="189" cy="133" r="15" fill="#88eafb" fill-opacity=".74"/><circle cx="111" cy="132" r="15" fill="#88eafb" fill-opacity=".74"/><path fill="#fff" d="M218.024 116.392h-4.56v4.656h-.84v-4.656h-4.536v-.792h4.536v-4.68h.84v4.68h4.56z"/></svg>