<svg xmlns="http://www.w3.org/2000/svg" width="300" height="200" fill="none" viewBox="0 0 300 200"><path fill="#000" d="M0 0h300v200H0z"/><path fill="#fff" d="M73.28 106.24q-3.05 0-4.657-2.04-1.584-2.04-1.584-5.472v-1.8q0-2.256.672-3.936.696-1.68 2.04-2.616t3.288-.936q1.8 0 2.976.72 1.176.696 1.704 1.848.528 1.128.336 2.472l-2.064.504q.264-2.304-.528-3.528-.792-1.248-2.424-1.248-1.824 0-2.784 1.296-.936 1.296-.936 4.224v4.2q0 2.952 1.008 4.248t3 1.296q.792 0 1.512-.264.72-.288 1.224-.96t.624-1.872l1.488.384q-.528 1.92-1.872 2.712-1.32.768-3.024.768m22.318-.864V106h-5.784v-.624l1.32-.144q.384-.048.456-.192t.072-.984v-5.904h-7.248v5.904q0 .84.072.984t.456.192l1.32.144V106h-5.784v-.624l1.32-.144q.384-.048.456-.192t.072-.984V91.624q0-.84-.072-.984t-.456-.192l-1.32-.12v-.648h5.784v.648l-1.32.12q-.384.048-.456.192t-.072.984v5.76h7.248v-5.76q0-.84-.072-.984t-.456-.192l-1.32-.12v-.648h5.784v.648l-1.32.12q-.384.048-.456.192t-.072.984v12.432q0 .84.072.984t.456.192zM133.682 106.23q-2.921 0-4.462-1.955-1.518-1.954-1.518-5.244v-1.725q0-2.161.644-3.772.667-1.61 1.955-2.507t3.151-.897q1.725 0 2.852.69 1.127.667 1.633 1.771.506 1.08.322 2.37l-1.978.482q.253-2.208-.506-3.38-.759-1.197-2.323-1.197-1.748 0-2.668 1.242-.897 1.242-.897 4.048v4.025q0 2.829.966 4.071t2.875 1.242q.759 0 1.449-.253.69-.275 1.173-.92.483-.643.598-1.794l1.426.368q-.506 1.84-1.794 2.599-1.264.736-2.898.736m21.389-.828V106h-5.543v-.598l1.265-.138q.368-.046.437-.184t.069-.943v-5.658h-6.946v5.658q0 .805.069.943t.437.184l1.265.138V106h-5.543v-.598l1.265-.138q.368-.046.437-.184t.069-.943V92.223q0-.805-.069-.943-.07-.138-.437-.184l-1.265-.115v-.62h5.543v.62l-1.265.115q-.368.046-.437.184t-.069.943v5.52h6.946v-5.52q0-.805-.069-.943-.07-.138-.437-.184l-1.265-.115v-.62h5.543v.62l-1.265.115q-.368.046-.437.184t-.069.943v11.914q0 .805.069.943t.437.184zm6.292.736h.483v2.277h-4.991v-.621q0-.85.23-1.357.23-.505.667-.874.46-.367 1.081-.736.599-.344 1.104-.782.506-.459.506-1.38 0-1.656-1.127-1.656-1.334 0-1.127 2.07l-1.357-.184a1.98 1.98 0 0 1 .46-1.679q.621-.736 2.024-.736t1.978.667q.598.668.598 1.541 0 .875-.46 1.38a3.5 3.5 0 0 1-1.127.782 17 17 0 0 0-1.288.598q-1.311.668-1.449 1.955h2.99q.392 0 .483-.046.115-.046.138-.253zM208.594 107.402V108h-5.543v-.598l1.265-.138q.368-.046.437-.184t.069-.943v-5.658h-6.946v5.658q0 .805.069.943.07.138.437.184l1.265.138V108h-5.543v-.598l1.265-.138q.368-.046.437-.184t.069-.943V94.223q0-.805-.069-.943-.07-.138-.437-.184l-1.265-.115v-.62h5.543v.62l-1.265.115q-.368.046-.437.184t-.069.943v5.52h6.946v-5.52q0-.805-.069-.943-.07-.138-.437-.184l-1.265-.115v-.62h5.543v.62l-1.265.115q-.368.046-.437.184t-.069.943v11.914q0 .805.069.943.07.138.437.184zm2.198-14.42v-.622h6.256q2.255 0 3.381 1.058 1.127 1.035 1.127 2.668v.621q0 1.196-.713 2.047-.712.85-2.001 1.196 1.61.276 2.507 1.219t.897 2.369v.621q0 1.68-1.173 2.76-1.149 1.081-3.45 1.081h-6.831v-.598l1.265-.138q.368-.046.437-.184t.069-.943V94.223q0-.805-.069-.943t-.437-.184zm6.256.114h-2.484v6.578h2.484q2.392 0 2.392-2.783v-.943q0-2.852-2.392-2.852m.575 7.314h-3.059v6.854h3.059q2.507 0 2.507-2.967v-.943q0-1.425-.644-2.185-.621-.759-1.863-.759m6.796-3.174v-.62h3.542v1.84q.806-1.082 1.61-1.565.828-.506 1.679-.506.737 0 1.38.437.645.437 1.081 1.403l-1.495.897q-.344-.828-.782-1.15a1.6 1.6 0 0 0-.966-.322q-.574 0-1.15.368-.552.368-1.242 1.38v6.739q0 .806.069.966.07.138.437.161l1.725.138V108h-5.888v-.598l1.265-.138q.368-.046.437-.184t.069-.943v-7.659q0-.804-.069-.943t-.437-.184zM11.682 106.23q-2.921 0-4.462-1.955-1.518-1.954-1.518-5.244v-1.725q0-2.161.644-3.772.667-1.61 1.955-2.507t3.151-.897q1.724 0 2.852.69 1.127.667 1.633 1.771.506 1.08.322 2.37l-1.978.482q.253-2.208-.506-3.38-.759-1.197-2.323-1.197-1.748 0-2.668 1.242-.897 1.242-.897 4.048v4.025q0 2.829.966 4.071t2.875 1.242q.759 0 1.449-.253.69-.275 1.173-.92.483-.643.598-1.794l1.426.368q-.506 1.84-1.794 2.599-1.265.736-2.898.736m21.389-.828V106h-5.543v-.598l1.265-.138q.367-.046.437-.184.069-.138.069-.943v-5.658h-6.946v5.658q0 .805.069.943.068.138.437.184l1.265.138V106H18.58v-.598l1.265-.138q.367-.046.437-.184.069-.138.069-.943V92.223q0-.805-.07-.943-.068-.138-.436-.184l-1.265-.115v-.62h5.543v.62l-1.265.115q-.369.046-.437.184-.07.138-.07.943v5.52H29.3v-5.52q0-.805-.07-.943-.068-.138-.436-.184l-1.265-.115v-.62h5.543v.62l-1.265.115q-.369.046-.437.184-.07.138-.07.943v11.914q0 .805.07.943.068.138.437.184zm3.762-.759h-.414v-.483h.414q.874 0 1.219-.46.368-.483.368-1.219 0-1.518-1.15-1.518-1.357 0-1.15 2.07l-1.357-.184a1.92 1.92 0 0 1 .437-1.633q.621-.736 2.07-.736 1.402 0 2.001.598.598.599.598 1.403 0 1.473-1.564 1.909 1.702.46 1.702 2.07 0 .828-.644 1.449-.645.621-2.07.621-.874 0-1.564-.368-.69-.345-.966-1.311l.759-.23q.115.828.598 1.127.506.3 1.058.299 1.357 0 1.357-1.587 0-.804-.391-1.311-.367-.506-1.311-.506M181.024 101.392h-4.56v4.656h-.84v-4.656h-4.536v-.792h4.536v-4.68h.84v4.68h4.56z"/><path stroke="#fff" stroke-linecap="round" stroke-width="1.5" d="M40.75 98.75h21.5M101.013 94.25h21.5M101.013 101.25h21.5"/><path fill="#88eafb" d="m287 100-7.5-4.33v8.66zm-41-.75a.75.75 0 0 0 0 1.5v-1.5m34.25.75v-.75H246v1.5h34.25z"/></svg>