<svg xmlns="http://www.w3.org/2000/svg" width="300" height="200" fill="none" viewBox="0 0 300 200"><path fill="#000" d="M0 0h300v200H0z"/><path fill="#fff" d="M153.717 31.44v1.5q0 2.92-1.34 4.6-1.34 1.66-3.84 1.66-2.52 0-3.86-1.66-1.32-1.68-1.32-4.6v-1.5q0-2.9 1.32-4.56 1.34-1.68 3.86-1.68 2.5 0 3.84 1.68 1.34 1.66 1.34 4.56m-1.9-1q0-2.5-.84-3.54-.82-1.06-2.44-1.06t-2.46 1.06q-.82 1.04-.82 3.54v3.5q0 2.5.82 3.56.84 1.06 2.46 1.06t2.44-1.06q.84-1.06.84-3.56zm16.941 8.04V39h-4.82v-.52l1.1-.12q.32-.04.38-.16t.06-.82v-4.92h-6.04v4.92q0 .7.06.82t.38.16l1.1.12V39h-4.82v-.52l1.1-.12q.32-.04.38-.16t.06-.82V27.02q0-.7-.06-.82t-.38-.16l-1.1-.1v-.54h4.82v.54l-1.1.1q-.32.04-.38.16t-.06.82v4.8h6.04v-4.8q0-.7-.06-.82t-.38-.16l-1.1-.1v-.54h4.82v.54l-1.1.1q-.32.04-.38.16t-.06.82v10.36q0 .7.06.82t.38.16z"/><path fill="#ff5252" d="M254.024 120.088h.624V124h-11.496v-.624l1.32-.144q.384-.048.456-.192t.072-.984v-12.432q0-.84-.072-.984t-.456-.192l-1.32-.12v-.648h11.184v3.912h-.6l-.696-2.52q-.072-.288-.168-.408-.072-.144-.312-.168-.24-.048-.816-.048h-4.656v6.936h3.216q.576 0 .816-.024.24-.048.312-.168.096-.144.168-.432l.456-1.8h.624v5.616h-.624l-.456-1.8q-.072-.288-.168-.408-.072-.144-.312-.168-.24-.048-.816-.048h-3.216v7.08h4.944q.576 0 .816-.024.24-.048.312-.168.096-.144.168-.432zm9.112-8.653H260.4v2.794h-.504v-2.794h-2.721v-.475h2.721v-2.808h.504v2.808h2.736z"/><path stroke="#fff" stroke-width="2" d="M149.253 73.263a3 3 0 0 1 2.929 0l33.86 18.939a3 3 0 0 1 1.535 2.618v37.659a3 3 0 0 1-1.535 2.618l-33.86 18.939a3 3 0 0 1-2.929 0l-33.86-18.939a3 3 0 0 1-1.536-2.618v-37.66c0-1.086.587-2.087 1.536-2.617z"/><circle cx="150.717" cy="114.105" r="22.18" stroke="#fae13e" stroke-width="3"/><path stroke="#fff" stroke-linecap="round" stroke-width="2" d="M150.842 73.035V45.14"/><circle cx="189" cy="93" r="15" fill="#88eafb" fill-opacity=".74"/><circle cx="112" cy="93" r="15" fill="#88eafb" fill-opacity=".74"/><circle cx="150" cy="153" r="15" fill="#88eafb" fill-opacity=".74"/><path fill="#fff" d="M218.024 116.392h-4.56v4.656h-.84v-4.656h-4.536v-.792h4.536v-4.68h.84v4.68h4.56z"/></svg>