<svg xmlns="http://www.w3.org/2000/svg" width="300" height="200" fill="none" viewBox="0 0 300 200"><path fill="#000" d="M0 0h300v200H0z"/><path fill="#ff5252" d="M85.224 111.196v1.35q0 2.628-1.206 4.14-1.206 1.494-3.456 1.494-2.268 0-3.474-1.494-1.188-1.512-1.188-4.14v-1.35q0-2.61 1.188-4.104 1.206-1.512 3.474-1.512 2.25 0 3.456 1.512 1.206 1.494 1.206 4.104m-1.71-.9q0-2.25-.756-3.186-.738-.954-2.196-.954t-2.214.954q-.738.936-.738 3.186v3.15q0 2.25.738 3.204.756.954 2.214.954t2.196-.954q.756-.954.756-3.204zm3.673-.72v-.486h2.772v1.44q.63-.846 1.26-1.224.648-.396 1.314-.396.576 0 1.08.342t.846 1.098l-1.17.702q-.27-.648-.612-.9a1.25 1.25 0 0 0-.756-.252q-.45 0-.9.288-.432.288-.972 1.08v5.274q0 .63.054.756.054.108.342.126l1.35.108V118h-4.608v-.468l.99-.108q.288-.036.342-.144t.054-.738v-5.994q0-.63-.054-.738t-.342-.144zm16.298 9.468q0 1.44-1.062 2.196-1.044.774-2.916.774-2.052 0-3.006-.72-.954-.702-.99-1.782l1.332-.27q-.072.99.522 1.584.612.612 2.142.612 1.368 0 2.196-.504.846-.504.846-1.476 0-.72-.486-1.08t-1.602-.36h-2.142q-1.206 0-1.692-.504-.486-.522-.486-1.152 0-.522.252-.972.27-.468.846-.918a2.93 2.93 0 0 1-1.17-.99q-.45-.666-.45-1.602 0-.99.45-1.638.468-.666 1.224-.99a4.2 4.2 0 0 1 1.71-.342h.306q.99 0 1.764.36l2.61-.9.198 1.35h-2.106q.414.36.648.9.252.54.252 1.26 0 .954-.468 1.62-.45.666-1.206 1.008a4.3 4.3 0 0 1-1.692.324h-.306q-.306 0-.594-.036a4 4 0 0 1-.558-.108q-.396.27-.576.558-.162.288-.162.594 0 .36.252.576.27.216.846.216h2.34q1.422 0 2.178.612t.756 1.8m-4.176-4.788q.486 0 .882-.216.414-.216.666-.72.252-.522.252-1.44 0-.936-.252-1.44-.252-.522-.666-.738a1.8 1.8 0 0 0-.882-.216h-.306q-.486 0-.9.216t-.666.738q-.252.504-.252 1.44 0 .918.252 1.44.252.504.666.72t.9.216zm12.925 3.87q-1.404 0-1.656-1.296-.63.72-1.386 1.044a4 4 0 0 1-1.494.306q-1.26 0-1.854-.702t-.594-1.692q0-1.062.72-1.674.738-.63 2.538-.63h2.034v-1.458q0-1.44-.504-1.98-.486-.558-1.332-.558-.54 0-.972.216t-.63.792q-.18.558-.036 1.638l-1.422-.216q-.09-.846.216-1.512.324-.684 1.044-1.08.738-.414 1.836-.414 1.314 0 2.016.45.702.432.972 1.134.288.702.288 1.53v4.05q0 .918.198 1.152.216.234.468.234a.9.9 0 0 0 .342-.072q.18-.09.396-.27l.324.45a2.5 2.5 0 0 1-.648.396q-.36.162-.864.162m-4.032-.702q.504 0 1.08-.27.594-.288 1.26-1.134v-1.962h-1.836q-1.008 0-1.476.414-.45.396-.45 1.242 0 .81.342 1.26.36.45 1.08.45m16.398.108V118h-4.248v-.468l.99-.108q.288-.036.342-.144t.054-.738v-4.482q0-1.332-.432-1.872-.432-.558-1.242-.558-.594 0-1.314.36t-1.35 1.404v5.148q0 .63.054.738t.342.144l.99.108V118h-4.248v-.468l.99-.108q.288-.036.342-.144t.054-.738v-5.994q0-.63-.054-.738t-.342-.144l-.99-.09v-.486h2.772v1.458q.648-.864 1.458-1.242a3.8 3.8 0 0 1 1.656-.396q1.332 0 2.052.828.738.81.738 2.304v4.5q0 .63.054.738t.342.144zm3.154-10.458q-.432 0-.72-.27-.27-.288-.27-.738 0-.432.27-.702.288-.27.72-.27t.702.27q.288.27.288.702a1 1 0 0 1-.288.738q-.27.27-.702.27m-2.106 2.502v-.486h2.862v7.452q0 .63.054.738t.342.144l.99.108V118h-4.248v-.468l.99-.108q.288-.036.342-.144t.054-.738v-5.994q0-.63-.054-.738t-.342-.144zm9.59-.09q-.99 0-1.548.828-.54.81-.54 2.682v1.08q0 1.89.54 2.718.558.81 1.8.81.846 0 1.368-.432t.702-1.494l.954.27q-.324 1.224-1.188 1.728a3.75 3.75 0 0 1-1.926.504q-1.944 0-2.916-1.206-.954-1.224-.954-3.258v-.36q0-2.016.954-3.222.954-1.224 2.754-1.224 1.152 0 1.908.45.774.45 1.098 1.224.324.756.18 1.674l-1.422.216q.198-1.44-.27-2.214-.45-.774-1.494-.774m-63.392 18.76v-.486h5.112q1.782 0 2.718.9.936.882.936 2.358v.522q0 1.476-.936 2.376t-2.718.9h-2.16v3.726q0 .63.054.756.054.108.342.126l1.35.108V140h-4.698v-.468l.99-.108q.288-.036.342-.144t.054-.738v-9.324q0-.63-.054-.738t-.342-.144zm5.112.09h-2.16v5.904h2.16q1.998 0 1.998-2.448v-1.026q0-2.43-1.998-2.43m12.377 9.612q-.324 1.224-1.224 1.728a3.9 3.9 0 0 1-1.962.504q-1.998 0-2.988-1.206-.99-1.224-.99-3.258v-.36q0-2.016.954-3.222.954-1.224 2.772-1.224.972 0 1.764.396.81.396 1.278 1.17.486.774.486 1.926 0 .54-.108 1.134h-5.526v.54q0 1.89.576 2.718.594.81 1.908.81.828 0 1.368-.432.558-.432.738-1.494zm-3.438-6.462q-1.062 0-1.584.81t-.522 2.664h4.05v-.054a5.469 5.469 0 0 0 .072-.864q0-1.35-.558-1.944-.558-.612-1.458-.612m5.227.09v-.486h2.772v1.44q.63-.846 1.26-1.224.648-.396 1.314-.396.576 0 1.08.342t.846 1.098l-1.17.702q-.27-.648-.612-.9a1.25 1.25 0 0 0-.756-.252q-.45 0-.9.288-.432.288-.972 1.08v5.274q0 .63.054.756.054.108.342.126l1.35.108V140h-4.608v-.468l.99-.108q.288-.036.342-.144t.054-.738v-5.994q0-.63-.054-.738t-.342-.144zm16.085 3.78v.36q0 2.034-1.026 3.258-1.008 1.206-2.88 1.206-1.854 0-2.88-1.206-1.008-1.224-1.008-3.258v-.36q0-2.016 1.008-3.222 1.008-1.224 2.88-1.224t2.88 1.224q1.026 1.206 1.026 3.222m-1.62-.36q0-1.872-.594-2.682-.576-.828-1.692-.828-1.098 0-1.692.828-.576.81-.576 2.682v1.08q0 1.89.576 2.718.594.81 1.692.81 1.116 0 1.692-.81.594-.828.594-2.718zm6.311 4.536V140h-3.42v-.468l.918-.108q.198-.018.288-.054a.8.8 0 0 0 .234-.198q.126-.162.36-.522l2.07-2.988-1.998-3.222a4 4 0 0 0-.342-.504q-.108-.162-.216-.198a.7.7 0 0 0-.27-.072l-.936-.09v-.486h4.23v.486l-.918.09q-.288.036-.288.144 0 .09.342.63l1.386 2.232 1.53-2.232q.36-.522.342-.63 0-.108-.27-.144l-.918-.09v-.486h3.42v.486l-.918.09a.8.8 0 0 0-.288.072q-.108.036-.234.198-.108.144-.36.504l-1.944 2.808 2.106 3.402q.216.36.324.522.126.144.216.198.108.036.288.054l.936.108V140h-4.23v-.468l.918-.108q.288-.036.288-.126t-.342-.648l-1.494-2.412-1.656 2.412q-.36.54-.36.648.018.09.288.126zm8.576-10.458q-.432 0-.72-.27-.27-.288-.27-.738 0-.432.27-.702.288-.27.72-.27t.702.27q.288.27.288.702a1 1 0 0 1-.288.738q-.27.27-.702.27m-2.106 2.502v-.486h2.862v7.452q0 .63.054.738t.342.144l.99.108V140h-4.248v-.468l.99-.108q.288-.036.342-.144t.054-.738v-5.994q0-.63-.054-.738t-.342-.144zm14.685 7.974v.45h-2.772v-1.422q-.558.828-1.242 1.224a3 3 0 0 1-1.494.378q-1.548 0-2.412-1.152-.846-1.17-.846-3.294v-.36q0-2.034.99-3.24 1.008-1.224 2.754-1.224 1.278 0 2.16.792v-3.564q0-.63-.054-.738t-.342-.144l-.99-.09v-.486h2.862v11.862q0 .63.054.738t.342.144zm-7.146-3.276q0 1.692.486 2.484.504.792 1.386.792.576 0 1.188-.36t1.224-1.458v-5.148q-.792-1.062-2.07-1.062-1.152 0-1.692.882-.522.882-.522 2.43zm15.95 1.674q-.324 1.224-1.224 1.728a3.9 3.9 0 0 1-1.962.504q-1.998 0-2.988-1.206-.99-1.224-.99-3.258v-.36q0-2.016.954-3.222.954-1.224 2.772-1.224.972 0 1.764.396.81.396 1.278 1.17.486.774.486 1.926 0 .54-.108 1.134h-5.526v.54q0 1.89.576 2.718.594.81 1.908.81.828 0 1.368-.432.558-.432.738-1.494zm-3.438-6.462q-1.062 0-1.584.81t-.522 2.664h4.05v-.054a5.469 5.469 0 0 0 .072-.864q0-1.35-.558-1.944-.558-.612-1.458-.612"/><path fill="#fff" d="M115.016 76.24q-3.048 0-4.656-2.04-1.584-2.04-1.584-5.472v-1.8q0-2.256.672-3.936.696-1.68 2.04-2.616t3.288-.936q1.8 0 2.976.72 1.176.696 1.704 1.848.528 1.128.336 2.472l-2.064.504q.264-2.304-.528-3.528-.792-1.248-2.424-1.248-1.824 0-2.784 1.296-.936 1.296-.936 4.224v4.2q0 2.952 1.008 4.248t3 1.296q.792 0 1.512-.264.72-.288 1.224-.96t.624-1.872l1.488.384q-.528 1.92-1.872 2.712-1.32.768-3.024.768m22.319-.864V76h-5.784v-.624l1.32-.144q.384-.048.456-.192.071-.144.071-.984v-5.904h-7.247v5.904q0 .84.072.984t.456.192l1.32.144V76h-5.784v-.624l1.32-.144q.384-.048.456-.192t.071-.984V61.624q0-.84-.071-.984-.072-.144-.456-.192l-1.32-.12v-.648h5.784v.648l-1.32.12q-.384.048-.456.192t-.072.984v5.76h7.247v-5.76q0-.84-.071-.984-.072-.144-.456-.192l-1.32-.12v-.648h5.784v.648l-1.32.12q-.384.048-.456.192t-.072.984v12.432q0 .84.072.984t.456.192zM174.419 76.23q-2.922 0-4.462-1.955-1.518-1.954-1.518-5.244v-1.725q0-2.162.644-3.772.666-1.61 1.955-2.507 1.288-.897 3.151-.897 1.725 0 2.852.69 1.126.667 1.633 1.771.505 1.08.322 2.369l-1.978.483q.252-2.208-.506-3.381-.76-1.196-2.323-1.196-1.749 0-2.668 1.242-.897 1.242-.897 4.048v4.025q0 2.829.966 4.071t2.875 1.242q.759 0 1.449-.253.69-.275 1.173-.92.483-.644.598-1.794l1.426.368q-.507 1.84-1.794 2.599-1.266.736-2.898.736m21.388-.828V76h-5.543v-.598l1.265-.138q.368-.046.437-.184t.069-.943v-5.658h-6.946v5.658q0 .805.069.943.07.138.437.184l1.265.138V76h-5.543v-.598l1.265-.138q.368-.046.437-.184t.069-.943V62.223q0-.805-.069-.943-.07-.138-.437-.184l-1.265-.115v-.621h5.543v.621l-1.265.115q-.368.045-.437.184-.069.138-.069.943v5.52h6.946v-5.52q0-.805-.069-.943-.07-.138-.437-.184l-1.265-.115v-.621h5.543v.621l-1.265.115q-.368.045-.437.184-.069.138-.069.943v11.914q0 .805.069.943.07.138.437.184zm6.293.736h.483v2.277h-4.991v-.621q0-.851.23-1.357t.667-.874q.46-.367 1.081-.736.597-.344 1.104-.782.506-.46.506-1.38 0-1.656-1.127-1.656-1.334 0-1.127 2.07l-1.357-.184a1.97 1.97 0 0 1 .46-1.679q.62-.736 2.024-.736 1.402 0 1.978.667.598.667.598 1.541 0 .875-.46 1.38a3.5 3.5 0 0 1-1.127.782q-.667.276-1.288.598-1.311.667-1.449 1.955h2.99q.39 0 .483-.046.114-.046.138-.253zM246.594 76.402V77h-5.543v-.598l1.265-.138q.368-.046.437-.184t.069-.943v-5.658h-6.946v5.658q0 .805.069.943.07.138.437.184l1.265.138V77h-5.543v-.598l1.265-.138q.368-.046.437-.184t.069-.943V63.223q0-.805-.069-.943-.07-.138-.437-.184l-1.265-.115v-.621h5.543v.621l-1.265.115q-.368.045-.437.184-.069.138-.069.943v5.52h6.946v-5.52q0-.805-.069-.943-.07-.138-.437-.184l-1.265-.115v-.621h5.543v.621l-1.265.115q-.368.045-.437.184-.069.138-.069.943v11.914q0 .805.069.943.07.138.437.184zm2.198-14.421v-.621h6.256q2.255 0 3.381 1.058 1.127 1.035 1.127 2.668v.621q0 1.196-.713 2.047-.713.85-2.001 1.196 1.61.276 2.507 1.219t.897 2.369v.621q0 1.68-1.173 2.76-1.149 1.08-3.45 1.081h-6.831v-.598l1.265-.138q.368-.046.437-.184t.069-.943V63.223q0-.805-.069-.943t-.437-.184zm6.256.115h-2.484v6.578h2.484q2.392 0 2.392-2.783v-.943q0-2.852-2.392-2.852m.575 7.314h-3.059v6.854h3.059q2.507 0 2.507-2.967v-.943q0-1.425-.644-2.185-.621-.759-1.863-.759m6.796-3.174v-.621h3.542v1.84q.806-1.08 1.61-1.564.828-.506 1.679-.506.736 0 1.38.437.645.437 1.081 1.403l-1.495.897q-.345-.828-.782-1.15a1.6 1.6 0 0 0-.966-.322q-.574 0-1.15.368-.552.368-1.242 1.38v6.739q0 .805.069.966.07.138.437.161l1.725.138V77h-5.888v-.598l1.265-.138q.368-.046.437-.184t.069-.943v-7.659q0-.805-.069-.943-.068-.138-.437-.184zM50.682 76.23q-2.921 0-4.462-1.955-1.518-1.954-1.518-5.244v-1.725q0-2.162.644-3.772.667-1.61 1.955-2.507t3.151-.897q1.724 0 2.852.69 1.127.667 1.633 1.771.506 1.08.322 2.369l-1.978.483q.253-2.208-.506-3.381-.759-1.196-2.323-1.196-1.748 0-2.668 1.242-.897 1.242-.897 4.048v4.025q0 2.829.966 4.071t2.875 1.242q.759 0 1.449-.253.69-.275 1.173-.92.483-.644.598-1.794l1.426.368q-.506 1.84-1.794 2.599-1.265.736-2.898.736m21.389-.828V76h-5.543v-.598l1.265-.138q.367-.046.437-.184.069-.138.069-.943v-5.658h-6.946v5.658q0 .805.069.943t.437.184l1.265.138V76H57.58v-.598l1.265-.138q.367-.046.437-.184.069-.138.069-.943V62.223q0-.805-.07-.943-.068-.138-.436-.184l-1.265-.115v-.621h5.543v.621l-1.265.115q-.368.045-.437.184-.07.138-.07.943v5.52H68.3v-5.52q0-.805-.07-.943-.068-.138-.436-.184l-1.265-.115v-.621h5.543v.621l-1.265.115q-.369.045-.437.184-.07.138-.07.943v11.914q0 .805.07.943.069.138.437.184zm3.762-.759h-.414v-.483h.414q.874 0 1.219-.46.368-.483.368-1.219 0-1.518-1.15-1.518-1.357 0-1.15 2.07l-1.357-.184a1.92 1.92 0 0 1 .437-1.633q.621-.736 2.07-.736 1.403 0 2.001.598t.598 1.403q0 1.472-1.564 1.909 1.702.46 1.702 2.07 0 .828-.644 1.449-.645.621-2.07.621a3.3 3.3 0 0 1-1.564-.368q-.69-.345-.966-1.311l.759-.23q.115.828.598 1.127.506.3 1.058.299 1.357 0 1.357-1.587 0-.806-.391-1.311-.368-.506-1.311-.506M223.024 70.392h-4.56v4.656h-.84v-4.656h-4.536V69.6h4.536v-4.68h.84v4.68h4.56z"/><path stroke="#fff" stroke-linecap="round" stroke-width="1.5" d="M79.75 67.25h21.5M141.75 64.25h21.5M141.75 71.25h21.5"/><path fill="#88eafb" d="m148 160 4.33-7.5h-8.66zm.75-68a.75.75 0 0 0-1.5 0h1.5m-.75 61.25h.75V92h-1.5v61.25z"/></svg>