<svg xmlns="http://www.w3.org/2000/svg" width="300" height="200" fill="none" viewBox="0 0 300 200"><path fill="#000" d="M0 0h300v200H0z"/><path fill="#fff" d="M76.28 107.24q-3.05 0-4.657-2.04-1.584-2.04-1.584-5.472v-1.8q0-2.256.672-3.936.696-1.68 2.04-2.616t3.288-.936q1.8 0 2.976.72 1.176.696 1.704 1.848.528 1.128.336 2.472l-2.064.504q.264-2.304-.528-3.528-.792-1.248-2.424-1.248-1.824 0-2.784 1.296-.936 1.296-.936 4.224v4.2q0 2.952 1.008 4.248t3 1.296q.792 0 1.512-.264.72-.288 1.224-.96t.624-1.872l1.488.384q-.528 1.92-1.872 2.712-1.32.768-3.024.768M119.682 107.23q-2.921 0-4.462-1.955-1.518-1.954-1.518-5.244v-1.725q0-2.162.644-3.772.667-1.61 1.955-2.507t3.151-.897q1.725 0 2.852.69 1.127.667 1.633 1.771.506 1.08.322 2.369l-1.978.483q.253-2.208-.506-3.381-.759-1.196-2.323-1.196-1.748 0-2.668 1.242-.897 1.242-.897 4.048v4.025q0 2.829.966 4.071t2.875 1.242q.759 0 1.449-.253.69-.276 1.173-.92.483-.643.598-1.794l1.426.368q-.505 1.84-1.794 2.599-1.264.736-2.898.736m21.389-.828V107h-5.543v-.598l1.265-.138q.368-.046.437-.184t.069-.943v-5.658h-6.946v5.658q0 .805.069.943t.437.184l1.265.138V107h-5.543v-.598l1.265-.138q.368-.046.437-.184t.069-.943V93.223q0-.805-.069-.943-.07-.138-.437-.184l-1.265-.115v-.621h5.543v.621l-1.265.115q-.368.046-.437.184t-.069.943v5.52h6.946v-5.52q0-.805-.069-.943-.07-.138-.437-.184l-1.265-.115v-.621h5.543v.621l-1.265.115q-.368.046-.437.184t-.069.943v11.914q0 .805.069.943t.437.184zm6.292.736h.483v2.277h-4.991v-.621q0-.851.23-1.357t.667-.874a9.5 9.5 0 0 1 1.081-.736q.599-.345 1.104-.782.506-.46.506-1.38 0-1.656-1.127-1.656-1.334 0-1.127 2.07l-1.357-.184a1.98 1.98 0 0 1 .46-1.679q.621-.736 2.024-.736t1.978.667q.598.667.598 1.541 0 .875-.46 1.38a3.5 3.5 0 0 1-1.127.782q-.667.276-1.288.598-1.311.667-1.449 1.955h2.99q.392 0 .483-.046.115-.046.138-.253zM188.616 100.306v1.725q0 3.358-1.541 5.29-1.54 1.91-4.416 1.909-2.898 0-4.439-1.909-1.518-1.932-1.518-5.29v-1.725q0-3.334 1.518-5.244 1.54-1.932 4.439-1.932 2.875 0 4.416 1.932 1.54 1.909 1.541 5.244m-2.185-1.15q0-2.876-.966-4.071-.943-1.22-2.806-1.219t-2.829 1.219q-.943 1.195-.943 4.071v4.025q0 2.875.943 4.094.966 1.22 2.829 1.219t2.806-1.219q.966-1.219.966-4.094zm6.555 8.487h-.414v-.483h.414q.874 0 1.219-.46.369-.483.368-1.219 0-1.518-1.15-1.518-1.357 0-1.15 2.07l-1.357-.184a1.92 1.92 0 0 1 .437-1.633q.621-.736 2.07-.736 1.404 0 2.001.598.598.598.598 1.403 0 1.472-1.564 1.909 1.702.46 1.702 2.07 0 .828-.644 1.449-.643.621-2.07.621a3.3 3.3 0 0 1-1.564-.368q-.69-.345-.966-1.311l.759-.23q.115.828.598 1.127.506.299 1.058.299 1.357 0 1.357-1.587 0-.806-.391-1.311-.368-.506-1.311-.506"/><path fill="#ff5252" d="M221.37 90.066h.468V93h-8.136v-.396l6.174-11.268h-3.978q-.63 0-.756.09-.126.072-.216.378l-.522 1.89h-.468V80.76h7.722v.396l-6.156 11.268h4.374q.432 0 .612-.018.18-.036.234-.126.072-.108.126-.324zm11.885 2.466V93h-4.248v-.468l.99-.108q.288-.036.342-.144t.054-.738V87.06q0-1.332-.432-1.872-.432-.558-1.242-.558-.594 0-1.314.36t-1.35 1.404v5.148q0 .63.054.738t.342.144l.99.108V93h-4.248v-.468l.99-.108q.288-.036.342-.144t.054-.738v-5.994q0-.63-.054-.738t-.342-.144l-.99-.09v-.486h2.772v1.458q.648-.864 1.458-1.242a3.8 3.8 0 0 1 1.656-.396q1.332 0 2.052.828.738.81.738 2.304v4.5q0 .63.054.738t.342.144zm6.321-12.852.648.27-6.228 15.624-.63-.27zm13.12 12.852V93h-4.338v-.468l.99-.108q.288-.036.342-.144t.054-.738v-4.428h-5.436v4.428q0 .63.054.738t.342.144l.99.108V93h-4.338v-.468l.99-.108q.288-.036.342-.144t.054-.738v-9.324q0-.63-.054-.738t-.342-.144l-.99-.09v-.486h4.338v.486l-.99.09q-.288.036-.342.144t-.054.738v4.32h5.436v-4.32q0-.63-.054-.738t-.342-.144l-.99-.09v-.486h4.338v.486l-.99.09q-.288.036-.342.144t-.054.738v9.324q0 .63.054.738t.342.144zm4.925.576h.378v1.782h-3.906v-.486q0-.666.18-1.062a1.9 1.9 0 0 1 .522-.684q.36-.288.846-.576.468-.27.864-.612.396-.36.396-1.08 0-1.296-.882-1.296-1.044 0-.882 1.62l-1.062-.144q-.126-.738.36-1.314t1.584-.576 1.548.522q.468.522.468 1.206t-.36 1.08a2.8 2.8 0 0 1-.882.612q-.522.216-1.008.468-1.026.522-1.134 1.53h2.34q.306 0 .378-.036.09-.036.108-.198zm11.808-6.912v1.35q0 2.628-1.206 4.14-1.206 1.494-3.456 1.494-2.268 0-3.474-1.494-1.188-1.512-1.188-4.14v-1.35q0-2.61 1.188-4.104 1.206-1.512 3.474-1.512 2.25 0 3.456 1.512 1.206 1.494 1.206 4.104m-1.71-.9q0-2.25-.756-3.186-.738-.954-2.196-.954t-2.214.954q-.738.936-.738 3.186v3.15q0 2.25.738 3.204.756.954 2.214.954t2.196-.954q.756-.954.756-3.204z"/><path fill="#fff" d="M20.682 66.23q-2.921 0-4.462-1.955-1.518-1.954-1.518-5.244v-1.725q0-2.162.644-3.772.667-1.61 1.955-2.507t3.151-.897q1.724 0 2.852.69 1.127.667 1.633 1.771.506 1.08.322 2.369l-1.978.483q.253-2.208-.506-3.381-.759-1.196-2.323-1.196-1.748 0-2.668 1.242-.897 1.242-.897 4.048v4.025q0 2.829.966 4.071t2.875 1.242q.759 0 1.449-.253.69-.275 1.173-.92.483-.644.598-1.794l1.426.368q-.505 1.84-1.794 2.599-1.265.736-2.898.736m21.389-.828V66h-5.543v-.598l1.265-.138q.367-.046.437-.184.069-.138.069-.943v-5.658h-6.946v5.658q0 .805.069.943.068.138.437.184l1.265.138V66H27.58v-.598l1.265-.138q.367-.046.437-.184.069-.138.069-.943V52.223q0-.805-.07-.943-.068-.138-.436-.184l-1.265-.115v-.621h5.543v.621l-1.265.115q-.369.045-.437.184-.07.138-.07.943v5.52H38.3v-5.52q0-.805-.07-.943-.068-.138-.436-.184l-1.265-.115v-.621h5.543v.621l-1.265.115q-.368.045-.437.184-.07.138-.07.943v11.914q0 .805.07.943.069.138.437.184zm3.762-.759h-.414v-.483h.414q.874 0 1.219-.46.368-.483.368-1.219 0-1.518-1.15-1.518-1.357 0-1.15 2.07l-1.357-.184a1.92 1.92 0 0 1 .437-1.633q.621-.736 2.07-.736 1.402 0 2.001.598.598.598.598 1.403 0 1.472-1.564 1.909 1.702.46 1.702 2.07 0 .828-.644 1.449-.645.621-2.07.621a3.3 3.3 0 0 1-1.564-.368q-.69-.345-.966-1.311l.759-.23q.115.828.598 1.127.506.3 1.058.299 1.357 0 1.357-1.587 0-.806-.391-1.311-.367-.506-1.311-.506M20.682 142.23q-2.921 0-4.462-1.955-1.518-1.954-1.518-5.244v-1.725q0-2.162.644-3.772.667-1.61 1.955-2.507t3.151-.897q1.724 0 2.852.69 1.127.667 1.633 1.771.506 1.081.322 2.369l-1.978.483q.253-2.208-.506-3.381-.759-1.196-2.323-1.196-1.748 0-2.668 1.242-.897 1.242-.897 4.048v4.025q0 2.829.966 4.071t2.875 1.242q.759 0 1.449-.253.69-.276 1.173-.92.483-.643.598-1.794l1.426.368q-.505 1.84-1.794 2.599-1.265.736-2.898.736m21.389-.828V142h-5.543v-.598l1.265-.138q.367-.046.437-.184.069-.138.069-.943v-5.658h-6.946v5.658q0 .805.069.943.068.138.437.184l1.265.138V142H27.58v-.598l1.265-.138q.367-.046.437-.184.069-.138.069-.943v-11.914q0-.805-.07-.943-.068-.138-.436-.184l-1.265-.115v-.621h5.543v.621l-1.265.115q-.369.046-.437.184-.07.138-.07.943v5.52H38.3v-5.52q0-.805-.07-.943-.068-.138-.436-.184l-1.265-.115v-.621h5.543v.621l-1.265.115q-.368.046-.437.184-.07.138-.07.943v11.914q0 .805.07.943.069.138.437.184zm3.762-.759h-.414v-.483h.414q.874 0 1.219-.46.368-.483.368-1.219 0-1.518-1.15-1.518-1.357 0-1.15 2.07l-1.357-.184a1.92 1.92 0 0 1 .437-1.633q.621-.736 2.07-.736 1.402 0 2.001.598.598.598.598 1.403 0 1.472-1.564 1.909 1.702.46 1.702 2.07 0 .828-.644 1.449-.645.621-2.07.621a3.3 3.3 0 0 1-1.564-.368q-.69-.345-.966-1.311l.759-.23q.115.828.598 1.127.506.299 1.058.299 1.357 0 1.357-1.587 0-.805-.391-1.311-.367-.506-1.311-.506M168.024 102.392h-4.56v4.656h-.84v-4.656h-4.536v-.792h4.536v-4.68h.84v4.68h4.56z"/><path stroke="#fff" stroke-linecap="round" stroke-width="1.5" d="M61.203 108 46 123.203M61.203 88.263 46 73.061M87.013 95.25h21.5M87.013 102.25h21.5"/><path fill="#88eafb" d="m277 103-7.5-4.33v8.66zm-68-.75a.75.75 0 0 0 0 1.5v-1.5m61.25.75v-.75H209v1.5h61.25z"/></svg>