<svg xmlns="http://www.w3.org/2000/svg" width="300" height="200" fill="none" viewBox="0 0 300 200"><path fill="#000" d="M0 0h300v200H0z"/><path stroke="#fff" stroke-dasharray="3 3" stroke-linecap="round" stroke-width="1.5" d="m148.009 98.328 27.92 54.797"/><path fill="#fff" d="M156.272 30.376V31h-5.784v-.624l1.32-.144q.384-.048.456-.192t.072-.984v-5.904h-7.248v5.904q0 .84.072.984t.456.192l1.32.144V31h-5.784v-.624l1.32-.144q.384-.048.456-.192t.072-.984V16.624q0-.84-.072-.984t-.456-.192l-1.32-.12v-.648h5.784v.648l-1.32.12q-.384.048-.456.192t-.072.984v5.76h7.248v-5.76q0-.84-.072-.984t-.456-.192l-1.32-.12v-.648h5.784v.648l-1.32.12q-.384.048-.456.192t-.072.984v12.432q0 .84.072.984t.456.192zM88.272 142.376V143h-5.784v-.624l1.32-.144q.384-.048.456-.192t.072-.984v-5.904h-7.248v5.904q0 .84.072.984t.456.192l1.32.144V143h-5.784v-.624l1.32-.144q.384-.048.456-.192t.072-.984v-12.432q0-.84-.072-.984t-.456-.192l-1.32-.12v-.648h5.784v.648l-1.32.12q-.384.048-.456.192t-.072.984v5.76h7.248v-5.76q0-.84-.072-.984t-.456-.192l-1.32-.12v-.648h5.784v.648l-1.32.12q-.384.048-.456.192t-.072.984v12.432q0 .84.072.984t.456.192zM223.272 142.376V143h-5.784v-.624l1.32-.144q.384-.048.456-.192t.072-.984v-5.904h-7.248v5.904q0 .84.072.984t.456.192l1.32.144V143h-5.784v-.624l1.32-.144q.384-.048.456-.192t.072-.984v-12.432q0-.84-.072-.984t-.456-.192l-1.32-.12v-.648h5.784v.648l-1.32.12q-.384.048-.456.192t-.072.984v5.76h7.248v-5.76q0-.84-.072-.984t-.456-.192l-1.32-.12v-.648h5.784v.648l-1.32.12q-.384.048-.456.192t-.072.984v12.432q0 .84.072.984t.456.192z"/><path stroke="#fff" stroke-dasharray="3 3" stroke-linecap="round" stroke-width="1.5" d="m148.448 99.215 26.53-55.483M148.577 99.027l-61.315 4.766"/><path fill="#fff" d="M192.272 37.376V38h-5.784v-.624l1.32-.144q.384-.048.456-.192t.072-.984v-5.904h-7.248v5.904q0 .84.072.984t.456.192l1.32.144V38h-5.784v-.624l1.32-.144q.384-.048.456-.192t.072-.984V23.624q0-.84-.072-.984t-.456-.192l-1.32-.12v-.648h5.784v.648l-1.32.12q-.384.048-.456.192t-.072.984v5.76h7.248v-5.76q0-.84-.072-.984t-.456-.192l-1.32-.12v-.648h5.784v.648l-1.32.12q-.384.048-.456.192t-.072.984v12.432q0 .84.072.984t.456.192zM78.07 111.294v.624h-5.785v-.624l1.32-.144q.384-.048.456-.192t.072-.984v-5.904h-7.248v5.904q0 .84.072.984t.456.192l1.32.144v.624H62.95v-.624l1.32-.144q.384-.048.456-.192t.072-.984V97.543q0-.84-.072-.985-.072-.144-.456-.192l-1.32-.12V95.6h5.784v.647l-1.32.12q-.384.049-.456.192t-.072.984v5.76h7.248v-5.76q0-.84-.072-.984t-.456-.192l-1.32-.12V95.6h5.784v.647l-1.32.12q-.384.049-.456.192t-.072.984v12.432q0 .84.072.984t.456.192zM196.272 171.376V172h-5.784v-.624l1.32-.144q.384-.048.456-.192t.072-.984v-5.904h-7.248v5.904q0 .84.072.984t.456.192l1.32.144V172h-5.784v-.624l1.32-.144q.384-.048.456-.192t.072-.984v-12.432q0-.84-.072-.984t-.456-.192l-1.32-.12v-.648h5.784v.648l-1.32.12q-.384.048-.456.192t-.072.984v5.76h7.248v-5.76q0-.84-.072-.984t-.456-.192l-1.32-.12v-.648h5.784v.648l-1.32.12q-.384.048-.456.192t-.072.984v12.432q0 .84.072.984t.456.192z"/><circle cx="150.5" cy="100.5" r="34.5" fill="#000" stroke="#fffb2a" stroke-width="2"/><path stroke="#fff" stroke-linecap="round" stroke-width="1.5" d="M149.25 99.25v-61.5M149.285 99.025l-53.26 30.75M150.025 99.725l53.26 30.75"/></svg>