<svg xmlns="http://www.w3.org/2000/svg" width="300" height="200" fill="none" viewBox="0 0 300 200"><path fill="#000" d="M0 0h300v200H0z"/><path stroke="#fff" stroke-dasharray="3 3" stroke-linecap="round" stroke-width="1.5" d="m83.645 93.362 21.017 41.248"/><path fill="#fff" d="M93.598 47.376V48h-5.784v-.624l1.32-.144q.384-.048.456-.192t.072-.984v-5.904h-7.248v5.904q0 .84.072.984t.456.192l1.32.144V48h-5.784v-.624l1.32-.144q.384-.048.456-.192t.072-.984V33.624q0-.84-.072-.984t-.456-.192l-1.32-.12v-.648h5.784v.648l-1.32.12q-.384.048-.456.192t-.072.984v5.76h7.248v-5.76q0-.84-.072-.984t-.456-.192l-1.32-.12v-.648h5.784v.648l-1.32.12q-.384.048-.456.192t-.072.984v12.432q0 .84.072.984t.456.192zM42.012 132.342v.624h-5.784v-.624l1.32-.144q.384-.048.456-.192t.072-.984v-5.904h-7.248v5.904q0 .84.072.984t.456.192l1.32.144v.624h-5.784v-.624l1.32-.144q.384-.048.456-.192t.072-.984V118.59q0-.84-.072-.984t-.456-.192l-1.32-.12v-.648h5.784v.648l-1.32.12q-.384.048-.456.192t-.072.984v5.76h7.248v-5.76q0-.84-.072-.984t-.456-.192l-1.32-.12v-.648h5.784v.648l-1.32.12q-.384.048-.456.192t-.072.984v12.432q0 .84.072.984t.456.192zM144.426 132.342v.624h-5.784v-.624l1.32-.144q.384-.048.456-.192t.072-.984v-5.904h-7.248v5.904q0 .84.072.984t.456.192l1.32.144v.624h-5.784v-.624l1.32-.144q.384-.048.456-.192t.072-.984V118.59q0-.84-.072-.984t-.456-.192l-1.32-.12v-.648h5.784v.648l-1.32.12q-.384.048-.456.192t-.072.984v5.76h7.248v-5.76q0-.84-.072-.984t-.456-.192l-1.32-.12v-.648h5.784v.648l-1.32.12q-.384.048-.456.192t-.072.984v12.432q0 .84.072.984t.456.192z"/><path stroke="#fff" stroke-dasharray="3 3" stroke-linecap="round" stroke-width="1.5" d="m83.65 93.715 19.97-41.764M83.666 94.008l-46.153 3.588"/><path fill="#fff" d="M120.909 52.686v.624h-5.784v-.624l1.32-.144q.384-.048.456-.192t.072-.984v-5.904h-7.248v5.904q0 .84.072.984t.456.192l1.32.144v.624h-5.784v-.624l1.32-.144q.384-.048.456-.192t.072-.984V38.934q0-.84-.072-.984t-.456-.192l-1.32-.12v-.648h5.784v.648l-1.32.12q-.384.048-.456.192t-.072.984v5.76h7.248v-5.76q0-.84-.072-.984t-.456-.192l-1.32-.12v-.648h5.784v.648l-1.32.12q-.384.048-.456.192t-.072.984v12.432q0 .84.072.984t.456.192zM34.272 108.762v.624h-5.784v-.624l1.32-.144q.384-.048.456-.192t.072-.984v-5.904h-7.248v5.904q0 .84.072.984t.456.192l1.32.144v.624h-5.784v-.624l1.32-.144q.384-.048.456-.192t.072-.984V95.01q0-.84-.072-.984t-.456-.192l-1.32-.12v-.648h5.784v.648l-1.32.12q-.384.048-.456.192t-.072.984v5.76h7.248v-5.76q0-.84-.072-.984t-.456-.192l-1.32-.12v-.648h5.784v.648l-1.32.12q-.384.048-.456.192t-.072.984v12.432q0 .84.072.984t.456.192zM123.943 154.342v.624h-5.784v-.624l1.32-.144q.384-.048.456-.192t.072-.984v-5.904h-7.248v5.904q0 .84.072.984t.456.192l1.32.144v.624h-5.784v-.624l1.32-.144q.384-.048.456-.192t.072-.984V140.59q0-.84-.072-.984t-.456-.192l-1.32-.12v-.648h5.784v.648l-1.32.12q-.384.048-.456.192t-.072.984v5.76h7.248v-5.76q0-.84-.072-.984t-.456-.192l-1.32-.12v-.648h5.784v.648l-1.32.12q-.384.048-.456.192t-.072.984v12.432q0 .84.072.984t.456.192zM59.016 178.392h.416V181h-7.664v-.416l.88-.096q.255-.032.304-.128t.048-.656v-8.288q0-.56-.048-.656t-.304-.128l-.88-.08v-.432h7.456v2.608h-.4l-.464-1.68a.7.7 0 0 0-.112-.272q-.048-.096-.208-.112a3 3 0 0 0-.544-.032h-3.104v4.624h2.144q.384 0 .544-.016.16-.032.208-.112a1 1 0 0 0 .112-.288l.304-1.2h.416v3.744h-.416l-.304-1.2a.7.7 0 0 0-.112-.272q-.048-.096-.208-.112a3 3 0 0 0-.544-.032h-2.144v4.72h3.296q.384 0 .544-.016.16-.032.208-.112a1 1 0 0 0 .112-.288zm5.507-4.96q-.88 0-1.376.736-.48.72-.48 2.384v.96q0 1.68.48 2.416.495.72 1.6.72.751 0 1.216-.384t.624-1.328l.848.24q-.288 1.087-1.056 1.536a3.33 3.33 0 0 1-1.712.448q-1.728 0-2.592-1.072-.849-1.088-.848-2.896v-.32q0-1.792.848-2.864.847-1.088 2.448-1.088 1.024 0 1.696.4.688.4.976 1.088.288.672.16 1.488l-1.264.192q.175-1.28-.24-1.968-.4-.688-1.328-.688m4.175-3.84v-.432h2.544v10.544q0 .56.048.656t.304.128l.88.096V181h-3.776v-.416l.88-.096q.256-.032.304-.128t.048-.656v-9.248q0-.56-.048-.656t-.304-.128zm6.672 1.696a.9.9 0 0 1-.64-.24.92.92 0 0 1-.24-.656q0-.384.24-.624a.9.9 0 0 1 .64-.24q.383 0 .623.24.257.24.257.624a.89.89 0 0 1-.257.656.84.84 0 0 1-.623.24m-1.873 2.224v-.432h2.544v6.624q0 .56.049.656.047.096.303.128l.88.096V181h-3.775v-.416l.88-.096q.256-.032.303-.128.048-.096.049-.656v-5.328q0-.56-.049-.656-.047-.096-.303-.128zm4.67-.016v-.416h2.464v1.28q.48-.752 1.072-1.088a2.63 2.63 0 0 1 1.344-.352q1.375 0 2.128 1.04.768 1.04.768 2.912v.32q0 1.824-.88 2.896t-2.448 1.072q-1.12 0-1.904-.688v2.64q0 .544.048.64.048.112.304.144l1.2.08v.432h-4.096v-.432l.88-.08q.256-.031.304-.144.048-.096.048-.64v-8.736q0-.56-.048-.656t-.304-.128zm4.672 0q-.496 0-1.04.32-.528.32-1.088 1.296v4.576q.687.944 1.824.944 1.04 0 1.504-.784.465-.8.464-2.176v-1.28q0-1.504-.432-2.192-.432-.704-1.232-.704m8.097 4.272-.976-.24q-2-.512-2-2.304 0-.592.272-1.12t.864-.848q.608-.336 1.552-.336 1.056 0 1.696.352.64.353.896.912.256.56.16 1.216l-1.248.224q.192-1.04-.224-1.616-.4-.576-1.328-.576-.72 0-1.152.368-.432.352-.432 1.04 0 .511.32.912.32.384 1.072.576l1.008.24q1.056.257 1.632.816.592.56.592 1.472 0 1.024-.752 1.664-.736.64-2.112.64-.656 0-1.28-.192a3 3 0 0 1-1.072-.64q-.448-.448-.656-1.152l.896-.32q.175 1.008.768 1.408.592.4 1.36.4.448 0 .848-.144.415-.144.672-.448.256-.32.256-.816 0-.512-.352-.88t-1.28-.608m11.018 1.408q-.288 1.087-1.088 1.536a3.45 3.45 0 0 1-1.744.448q-1.776 0-2.656-1.072-.88-1.088-.88-2.896v-.32q0-1.792.848-2.864.849-1.088 2.464-1.088.864 0 1.568.352.72.352 1.136 1.04.432.688.432 1.712 0 .48-.096 1.008h-4.912v.48q0 1.68.512 2.416.529.72 1.696.72.735 0 1.216-.384.496-.384.656-1.328zm-3.056-5.744q-.945 0-1.408.72-.464.72-.464 2.368h3.6v-.048q.032-.208.048-.4.016-.208.016-.368 0-1.2-.496-1.728-.496-.544-1.296-.544m12.918 7.168v.4h-2.464v-1.264q-.495.736-1.104 1.088a2.64 2.64 0 0 1-1.328.336q-1.376 0-2.144-1.024-.752-1.04-.752-2.928v-.32q0-1.808.88-2.88.897-1.088 2.448-1.088 1.137 0 1.92.704v-3.168q0-.56-.048-.656t-.304-.128l-.88-.08v-.432h2.544v10.544q0 .56.048.656t.304.128zm-6.352-2.912q0 1.504.432 2.208.449.704 1.232.704.513 0 1.056-.32.545-.32 1.088-1.296v-4.576q-.703-.944-1.84-.944-1.023 0-1.504.784-.464.784-.464 2.16z"/><path fill="#88eafb" d="M203.32 183.648q1.072 0 1.728-.528.672-.528.672-1.552 0-.816-.496-1.36-.497-.56-1.728-.896l-1.104-.32q-1.216-.336-1.856-1.136t-.64-1.952q0-.768.352-1.44.368-.672 1.104-1.088.752-.416 1.904-.416 1.28 0 2.064.48.784.464 1.088 1.216a2.84 2.84 0 0 1 .144 1.616l-1.344.288q.208-1.488-.304-2.288-.496-.8-1.728-.8-.976 0-1.536.528-.56.512-.56 1.504 0 .784.448 1.344.448.545 1.584.864l1.104.32q2.672.737 2.672 3.12 0 .847-.4 1.536-.384.672-1.184 1.072-.784.4-1.984.4a5 5 0 0 1-1.6-.256 2.97 2.97 0 0 1-1.296-.88q-.528-.624-.704-1.728l.96-.32q.08 1.056.464 1.632t.96.816a3.3 3.3 0 0 0 1.216.224m10.286-1.28q-.24.928-.752 1.36-.513.432-1.312.432-.768 0-1.248-.336a2.06 2.06 0 0 1-.704-.912 3.1 3.1 0 0 1-.224-1.168v-4.368q0-.56-.048-.656-.033-.096-.304-.128l-.88-.08v-.432h1.232v-2.096l1.312-.272v2.368h2.608v.512h-2.608v5.28q0 1.008.272 1.392a.9.9 0 0 0 .752.384q.464 0 .704-.352.255-.353.368-1.152zm7.499 1.744q-1.248 0-1.472-1.152-.56.64-1.232.928a3.5 3.5 0 0 1-1.328.272q-1.12 0-1.648-.624t-.528-1.504q0-.944.64-1.488.655-.56 2.256-.56h1.808v-1.296q0-1.28-.448-1.76-.432-.496-1.184-.496-.48 0-.864.192t-.56.704q-.16.496-.032 1.456l-1.264-.192q-.08-.752.192-1.344.288-.608.928-.96.655-.368 1.632-.368 1.168 0 1.792.4.624.384.864 1.008.256.624.256 1.36v3.6q0 .816.176 1.024.192.208.416.208a.8.8 0 0 0 .304-.064q.16-.08.352-.24l.288.4q-.24.208-.576.352a1.9 1.9 0 0 1-.768.144m-3.584-.624q.449 0 .96-.24.528-.257 1.12-1.008v-1.744h-1.632q-.896 0-1.312.368-.4.352-.4 1.104 0 .72.304 1.12.32.4.96.4m13.089 1.44q0 1.28-.944 1.952-.928.688-2.592.688-1.824 0-2.672-.64-.849-.624-.88-1.584l1.184-.24q-.064.88.464 1.408.543.544 1.904.544 1.215 0 1.952-.448.752-.448.752-1.312 0-.64-.432-.96t-1.424-.32h-1.904q-1.072 0-1.504-.448-.432-.464-.432-1.024 0-.463.224-.864.24-.416.752-.816a2.6 2.6 0 0 1-1.04-.88q-.4-.592-.4-1.424 0-.88.4-1.456a2.5 2.5 0 0 1 1.088-.88 3.7 3.7 0 0 1 1.52-.304h.272q.88 0 1.568.32l2.32-.8.176 1.2h-1.872q.367.32.576.8.224.48.224 1.12 0 .847-.416 1.44a2.5 2.5 0 0 1-1.072.896q-.673.288-1.504.288h-.272q-.273 0-.528-.032a4 4 0 0 1-.496-.096q-.353.24-.512.496a1.07 1.07 0 0 0-.144.528q0 .32.224.512.24.192.752.192h2.08q1.264 0 1.936.544t.672 1.6m-3.712-4.256q.432 0 .784-.192.367-.192.592-.64.224-.464.224-1.28 0-.832-.224-1.28-.225-.464-.592-.656a1.6 1.6 0 0 0-.784-.192h-.272q-.432 0-.8.192t-.592.656q-.225.448-.224 1.28 0 .816.224 1.28.223.448.592.64.368.192.8.192zm12.352 4.256q0 1.28-.944 1.952-.927.688-2.592.688-1.824 0-2.672-.64-.847-.624-.88-1.584l1.184-.24q-.063.88.464 1.408.545.544 1.904.544 1.217 0 1.952-.448.752-.448.752-1.312 0-.64-.432-.96-.431-.32-1.424-.32h-1.904q-1.072 0-1.504-.448-.432-.464-.432-1.024 0-.463.224-.864.24-.416.752-.816a2.6 2.6 0 0 1-1.04-.88q-.4-.592-.4-1.424 0-.88.4-1.456.416-.592 1.088-.88a3.7 3.7 0 0 1 1.52-.304h.272q.88 0 1.568.32l2.32-.8.176 1.2h-1.872q.369.32.576.8.225.48.224 1.12 0 .847-.416 1.44a2.5 2.5 0 0 1-1.072.896 3.8 3.8 0 0 1-1.504.288h-.272q-.272 0-.528-.032a4 4 0 0 1-.496-.096q-.351.24-.512.496a1.07 1.07 0 0 0-.144.528q0 .32.224.512.24.192.752.192h2.08q1.264 0 1.936.544t.672 1.6m-3.712-4.256q.433 0 .784-.192.369-.192.592-.64.225-.464.224-1.28 0-.832-.224-1.28-.223-.464-.592-.656a1.6 1.6 0 0 0-.784-.192h-.272q-.431 0-.8.192-.367.192-.592.656-.224.448-.224 1.28 0 .816.224 1.28.225.448.592.64.368.192.8.192zm11.713 1.504q-.288 1.087-1.088 1.536a3.45 3.45 0 0 1-1.744.448q-1.776 0-2.656-1.072-.88-1.088-.88-2.896v-.32q0-1.792.848-2.864.848-1.088 2.464-1.088.864 0 1.568.352.72.352 1.136 1.04.432.688.432 1.712 0 .48-.096 1.008h-4.912v.48q0 1.68.512 2.416.528.72 1.696.72.736 0 1.216-.384.496-.384.656-1.328zm-3.056-5.744q-.944 0-1.408.72t-.464 2.368h3.6v-.048q.031-.208.048-.4.016-.208.016-.368 0-1.2-.496-1.728-.497-.544-1.296-.544m4.646.08v-.432h2.464v1.28q.56-.752 1.12-1.088.576-.352 1.168-.352.513 0 .96.304.449.304.752.976l-1.04.624q-.24-.576-.544-.8a1.1 1.1 0 0 0-.672-.224q-.4 0-.8.256-.384.256-.864.96v4.688q0 .56.048.672.048.096.304.112l1.2.096V184h-4.096v-.416l.88-.096q.256-.032.304-.128t.048-.656v-5.328q0-.56-.048-.656t-.304-.128zm13.754 5.664q-.288 1.087-1.088 1.536a3.45 3.45 0 0 1-1.744.448q-1.776 0-2.656-1.072-.88-1.088-.88-2.896v-.32q0-1.792.848-2.864.847-1.088 2.464-1.088.864 0 1.568.352.72.352 1.136 1.04.432.688.432 1.712 0 .48-.096 1.008h-4.912v.48q0 1.68.512 2.416.528.72 1.696.72.736 0 1.216-.384.495-.384.656-1.328zm-3.056-5.744q-.945 0-1.408.72-.464.72-.464 2.368h3.6v-.048q.031-.208.048-.4.015-.208.016-.368 0-1.2-.496-1.728-.497-.544-1.296-.544m12.918 7.168v.4h-2.464v-1.264q-.497.736-1.104 1.088a2.64 2.64 0 0 1-1.328.336q-1.376 0-2.144-1.024-.752-1.04-.752-2.928v-.32q0-1.808.88-2.88.895-1.088 2.448-1.088 1.136 0 1.92.704v-3.168q0-.56-.048-.656t-.304-.128l-.88-.08v-.432h2.544v10.544q0 .56.048.656t.304.128zm-6.352-2.912q0 1.504.432 2.208.448.704 1.232.704.511 0 1.056-.32.544-.32 1.088-1.296v-4.576q-.704-.944-1.84-.944-1.024 0-1.504.784-.464.784-.464 2.16z"/><circle cx="85.292" cy="94.931" r="25.931" fill="#000" stroke="#fffb2a" stroke-width="2"/><path stroke="#fff" stroke-linecap="round" stroke-width="1.5" d="M84.162 93.802V47.509M84.304 94.059l-40.091 23.147M85.178 94.277l40.091 23.147"/><path fill="#fff" d="M238.727 48.376V49h-5.784v-.624l1.32-.144q.384-.048.456-.192t.072-.984v-5.904h-7.248v5.904q0 .84.072.984t.456.192l1.32.144V49h-5.784v-.624l1.32-.144q.384-.048.456-.192t.072-.984V34.624q0-.84-.072-.984t-.456-.192l-1.32-.12v-.648h5.784v.648l-1.32.12q-.384.048-.456.192t-.072.984v5.76h7.248v-5.76q0-.84-.072-.984t-.456-.192l-1.32-.12v-.648h5.784v.648l-1.32.12q-.384.048-.456.192t-.072.984v12.432q0 .84.072.984t.456.192zM189.272 129.831v.624h-5.784v-.624l1.32-.144q.384-.048.456-.192t.072-.984v-5.904h-7.248v5.904q0 .84.072.984t.456.192l1.32.144v.624h-5.784v-.624l1.32-.144q.384-.048.456-.192t.072-.984v-12.432q0-.84-.072-.984t-.456-.192l-1.32-.12v-.648h5.784v.648l-1.32.12q-.384.048-.456.192t-.072.984v5.76h7.248v-5.76q0-.84-.072-.984t-.456-.192l-1.32-.12v-.648h5.784v.648l-1.32.12q-.384.048-.456.192t-.072.984v12.432q0 .84.072.984t.456.192zM287.454 129.831v.624h-5.784v-.624l1.32-.144q.384-.048.456-.192t.072-.984v-5.904h-7.248v5.904q0 .84.072.984t.456.192l1.32.144v.624h-5.784v-.624l1.32-.144q.384-.048.456-.192t.072-.984v-12.432q0-.84-.072-.984t-.456-.192l-1.32-.12v-.648h5.784v.648l-1.32.12q-.384.048-.456.192t-.072.984v5.76h7.248v-5.76q0-.84-.072-.984t-.456-.192l-1.32-.12v-.648h5.784v.648l-1.32.12q-.384.048-.456.192t-.072.984v12.432q0 .84.072.984t.456.192zM287.454 78.194v.624h-5.784v-.624l1.32-.144q.384-.048.456-.192t.072-.984V70.97h-7.248v5.904q0 .84.072.984t.456.192l1.32.144v.624h-5.784v-.624l1.32-.144q.384-.048.456-.192t.072-.984V64.442q0-.84-.072-.984t-.456-.192l-1.32-.12v-.648h5.784v.648l-1.32.12q-.384.048-.456.192t-.072.984v5.76h7.248v-5.76q0-.84-.072-.984t-.456-.192l-1.32-.12v-.648h5.784v.648l-1.32.12q-.384.048-.456.192t-.072.984v12.432q0 .84.072.984t.456.192zM191.454 77.467v.624h-5.784v-.624l1.32-.144q.384-.048.456-.192t.072-.984v-5.904h-7.248v5.904q0 .84.072.984t.456.192l1.32.144v.624h-5.784v-.624l1.32-.144q.384-.048.456-.192t.072-.984V63.715q0-.84-.072-.984t-.456-.192l-1.32-.12v-.648h5.784v.648l-1.32.12q-.384.048-.456.192t-.072.984v5.76h7.248v-5.76q0-.84-.072-.984t-.456-.192l-1.32-.12v-.648h5.784v.648l-1.32.12q-.384.048-.456.192t-.072.984v12.432q0 .84.072.984t.456.192zM238.727 160.376V161h-5.784v-.624l1.32-.144q.384-.048.456-.192t.072-.984v-5.904h-7.248v5.904q0 .84.072.984t.456.192l1.32.144V161h-5.784v-.624l1.32-.144q.384-.048.456-.192t.072-.984v-12.432q0-.84-.072-.984t-.456-.192l-1.32-.12v-.648h5.784v.648l-1.32.12q-.384.048-.456.192t-.072.984v5.76h7.248v-5.76q0-.84-.072-.984t-.456-.192l-1.32-.12v-.648h5.784v.648l-1.32.12q-.384.048-.456.192t-.072.984v12.432q0 .84.072.984t.456.192z"/><path stroke="#fff" stroke-linecap="round" stroke-width="1.5" d="m229.279 91.576 38.41-22.109M229.079 91.87l-38.351-22.209M229.39 92.721l-.058 44.318"/><circle cx="230.091" cy="93" r="24.818" fill="#000" stroke="#fffb2a" stroke-width="2"/><path stroke="#fff" stroke-linecap="round" stroke-width="1.5" d="M228.977 91.886V47.568M229.132 92.206l-38.38 22.159M230.025 92.362l38.38 22.159"/></svg>