<svg xmlns="http://www.w3.org/2000/svg" width="300" height="200" fill="none" viewBox="0 0 300 200"><path fill="#000" d="M0 0h300v200H0z"/><path fill="#ff5252" d="M121.581 101.425V102h-3.542v-1.817q-.714 1.058-1.587 1.564a3.8 3.8 0 0 1-1.909.483q-1.978 0-3.082-1.472-1.081-1.495-1.081-4.209v-.46q0-2.6 1.265-4.14 1.287-1.564 3.519-1.564 1.632 0 2.76 1.012v-4.554q0-.805-.069-.943-.07-.138-.437-.184l-1.265-.115v-.621h3.657v15.157q0 .805.069.943t.437.184zm-9.131-4.186q0 2.162.621 3.174.643 1.012 1.771 1.012.735 0 1.518-.46.781-.46 1.564-1.863v-6.578q-1.013-1.357-2.645-1.357-1.472 0-2.162 1.127-.667 1.127-.667 3.105zm10.582-6.003v-.621h3.542v1.84q.804-1.08 1.61-1.564.828-.506 1.679-.506.735 0 1.38.437.643.437 1.081 1.403l-1.495.897q-.345-.828-.782-1.15a1.6 1.6 0 0 0-.966-.322q-.576 0-1.15.368-.552.367-1.242 1.38v6.739q0 .806.069.966.069.138.437.161l1.725.138V102h-5.888v-.598l1.265-.138q.368-.046.437-.184t.069-.943v-7.659q0-.805-.069-.943-.07-.138-.437-.184zm15.742 11.914q-.505 1.403-1.104 2.277-.598.897-1.426 1.288-.828.414-2.07.414v-1.84q1.656 0 2.507-.529.851-.506 1.357-1.909l.299-.851h-.667l-3.381-9.66q-.23-.667-.345-.782-.115-.138-.483-.184l-1.173-.138v-.621h5.244v.621l-1.173.138q-.322.023-.368.161t.184.805l2.76 7.958 2.783-7.981q.207-.667.161-.782-.023-.115-.368-.161l-1.196-.138v-.621h4.209v.621l-1.173.138q-.345.045-.46.161-.115.115-.345.782zm26.736-3.772q-.414 1.565-1.564 2.208-1.127.644-2.507.644-2.552 0-3.818-1.541-1.265-1.564-1.265-4.163v-.46q0-2.576 1.219-4.117 1.22-1.564 3.542-1.564 1.243 0 2.254.506a3.84 3.84 0 0 1 1.633 1.495q.621.99.621 2.461 0 .69-.138 1.449h-7.061v.69q0 2.415.736 3.473.76 1.035 2.438 1.035 1.059 0 1.748-.552.714-.552.943-1.909zm-4.393-8.257q-1.356 0-2.024 1.035-.666 1.035-.667 3.404h5.175v-.069q.047-.3.069-.575.023-.3.023-.529 0-1.725-.713-2.484-.713-.782-1.863-.782m14.269 8.533q-.345 1.334-1.081 1.955-.735.621-1.886.621-1.104 0-1.794-.483a2.95 2.95 0 0 1-1.012-1.311 4.5 4.5 0 0 1-.322-1.679v-6.279q0-.805-.069-.943-.045-.138-.437-.184l-1.265-.115v-.621h1.771v-3.013l1.886-.391v3.404h3.749v.736h-3.749v7.59q0 1.449.391 2.001.415.552 1.081.552.667 0 1.012-.506.369-.505.529-1.656zm14.001 1.748V102h-5.428v-.598l1.265-.138q.368-.046.437-.184t.069-.943V94.41q0-1.702-.552-2.392-.552-.713-1.564-.713-.783 0-1.702.46-.921.46-1.725 1.817v6.555q0 .805.069.943t.437.184l1.265.138V102h-5.428v-.598l1.265-.138q.368-.046.437-.184t.069-.943V86.843q0-.805-.069-.943-.07-.138-.437-.184l-1.265-.115v-.621h3.657v7.383q.805-1.035 1.84-1.495 1.035-.483 2.047-.483 1.701 0 2.622 1.058.92 1.035.92 2.944v5.75q0 .805.069.943t.437.184zm11.14-2.024q-.415 1.565-1.564 2.208-1.127.644-2.507.644-2.553 0-3.818-1.541-1.266-1.564-1.265-4.163v-.46q0-2.576 1.219-4.117 1.218-1.564 3.542-1.564 1.242 0 2.254.506 1.035.506 1.633 1.495.621.99.621 2.461 0 .69-.138 1.449h-7.061v.69q0 2.415.736 3.473.759 1.035 2.438 1.035 1.058 0 1.748-.552.712-.552.943-1.909zm-4.393-8.257q-1.358 0-2.024 1.035-.667 1.035-.667 3.404h5.175v-.069q.045-.3.069-.575.023-.3.023-.529 0-1.725-.713-2.484-.714-.782-1.863-.782m6.679.115v-.621h3.542v1.84q.804-1.08 1.61-1.564.827-.506 1.679-.506.735 0 1.38.437.643.437 1.081 1.403l-1.495.897q-.345-.828-.782-1.15a1.6 1.6 0 0 0-.966-.322q-.576 0-1.15.368-.552.367-1.242 1.38v6.739q0 .806.069.966.068.138.437.161l1.725.138V102h-5.888v-.598l1.265-.138q.368-.046.437-.184t.069-.943v-7.659q0-.805-.069-.943-.07-.138-.437-.184z"/><path fill="#fff" d="M145.028 55.446h.598V60h-9.223v-1.219q0-1.587.529-2.645a5.9 5.9 0 0 1 1.357-1.794 14.5 14.5 0 0 1 1.817-1.38 43 43 0 0 0 1.61-1.127 4.9 4.9 0 0 0 1.288-1.403q.53-.851.529-2.116 0-1.748-.69-2.599-.667-.85-1.886-.851-1.587 0-2.208 1.15-.598 1.127-.368 3.243l-2.001-.368q-.23-1.242.184-2.323.437-1.08 1.541-1.748 1.104-.69 2.875-.69 1.702 0 2.76.598t1.541 1.564.483 2.07q0 1.265-.483 2.116a4.3 4.3 0 0 1-1.265 1.403q-.782.552-1.702.989-.92.414-1.794.874a8.4 8.4 0 0 0-1.564 1.035q-.69.599-1.15 1.449-.437.828-.529 2.047h5.934q.805 0 .966-.092.184-.115.276-.506zm12.973-10.465v-.621h4.393v.621l-1.265.115q-.368.046-.437.207-.069.138-.069.92V60h-1.127l-8.372-14.122v12.259q0 .782.069.943.07.138.437.184l1.265.138V60h-4.393v-.598l1.265-.138q.368-.046.437-.184.069-.161.069-.943V46.223q0-.782-.069-.92-.069-.16-.437-.207l-1.265-.115v-.621h3.979l7.291 12.328V46.223q0-.782-.069-.92-.069-.16-.437-.207zm15.154 15.18q-1.794 0-2.116-1.656-.805.92-1.771 1.334-.966.39-1.909.391-1.61 0-2.369-.897t-.759-2.162q0-1.357.92-2.139.944-.805 3.243-.805h2.599v-1.863q0-1.84-.644-2.53-.62-.713-1.702-.713-.69 0-1.242.276t-.805 1.012q-.23.713-.046 2.093l-1.817-.276q-.115-1.08.276-1.932.414-.874 1.334-1.38.944-.53 2.346-.529 1.679 0 2.576.575.897.552 1.242 1.449.368.897.368 1.955v5.175q0 1.173.253 1.472.276.3.598.299.207 0 .437-.092.23-.116.506-.345l.414.575q-.345.3-.828.506-.46.207-1.104.207m-5.152-.897q.644 0 1.38-.345.76-.368 1.61-1.449v-2.507h-2.346q-1.288 0-1.886.529-.575.505-.575 1.587 0 1.035.437 1.61.46.575 1.38.575M74.104 44.981v-.62h6.394q2.254 0 3.45 1.08 1.22 1.058 1.219 2.83v.712q0 1.404-.782 2.392-.759.966-2.185 1.334l2.944 5.428q.3.552.437.782.138.207.253.276.138.046.368.07l1.035.137V60h-3.473l-3.634-7.084h-2.254v5.221q0 .805.069.943.07.139.437.184l1.265.138V60h-5.543v-.598l1.265-.138q.368-.045.437-.184.069-.138.069-.943V46.223q0-.804-.069-.943-.07-.138-.437-.184zm6.394.115h-2.622v7.084h2.622q1.196 0 1.863-.759.69-.781.69-2.346v-.897q0-1.564-.69-2.323-.667-.759-1.863-.759m11.201 14.306V60h-4.278v-.598l1.173-.138q.23-.022.345-.069.138-.046.276-.253.16-.207.437-.667l3.657-5.934-3.542-6.256a6 6 0 0 0-.391-.644q-.115-.207-.253-.253a.85.85 0 0 0-.345-.092l-1.173-.115v-.62h5.589v.62l-1.196.115q-.345.045-.368.184 0 .138.368.805l2.691 4.761 2.944-4.76q.414-.668.414-.806t-.368-.184l-1.173-.115v-.62h4.278v.62l-1.173.115a1.1 1.1 0 0 0-.368.092q-.115.046-.253.253-.138.184-.437.644l-3.427 5.543 3.772 6.647q.253.461.368.667a1 1 0 0 0 .253.253q.138.046.368.07l1.196.137V60h-5.589v-.598l1.196-.138q.368-.046.368-.16.023-.14-.368-.829L93.746 53.1l-3.174 5.175q-.414.667-.414.805 0 .139.368.184zM213.324 60.402V61h-4.278v-.598l1.173-.138a1.4 1.4 0 0 0 .345-.069q.138-.045.276-.253.16-.207.437-.667l3.657-5.934-3.542-6.256a6 6 0 0 0-.391-.644q-.115-.207-.253-.253a.9.9 0 0 0-.345-.092l-1.173-.115v-.621h5.589v.621l-1.196.115q-.345.045-.368.184 0 .138.368.805l2.691 4.761 2.944-4.761q.414-.667.414-.805t-.368-.184l-1.173-.115v-.621h4.278v.621l-1.173.115a1.1 1.1 0 0 0-.368.092q-.115.046-.253.253-.138.184-.437.644l-3.427 5.543 3.772 6.647.368.667a1 1 0 0 0 .253.253q.138.046.368.069l1.196.138V61h-5.589v-.598l1.196-.138q.368-.045.368-.161.023-.138-.368-.828l-2.944-5.175-3.174 5.175q-.414.667-.414.805t.368.184zm10.526-14.421v-.621h6.394q2.255 0 3.45 1.081 1.22 1.057 1.219 2.829v.713q0 1.403-.782 2.392-.759.966-2.185 1.334l2.944 5.428q.299.552.437.782.138.207.253.276.138.046.368.069l1.035.138V61h-3.473l-3.634-7.084h-2.254v5.221q0 .805.069.943.07.138.437.184l1.265.138V61h-5.543v-.598l1.265-.138q.368-.046.437-.184t.069-.943V47.223q0-.805-.069-.943-.07-.138-.437-.184zm6.394.115h-2.622v7.084h2.622q1.196 0 1.863-.759.69-.782.69-2.346v-.897q0-1.564-.69-2.323-.667-.759-1.863-.759M121.024 53.392h-4.56v4.656h-.84v-4.656h-4.536V52.6h4.536v-4.68h.84v4.68h4.56zM195.024 53.392h-4.56v4.656h-.84v-4.656h-4.536V52.6h4.536v-4.68h.84v4.68h4.56z"/><path fill="#88eafb" d="m150 120 4.33-7.5h-8.66zm.75-41a.75.75 0 0 0-1.5 0h1.5m-.75 34.25h.75V79h-1.5v34.25z"/><path fill="#fff" d="M178.028 145.446h.598V150h-9.223v-1.219q0-1.587.529-2.645a5.9 5.9 0 0 1 1.357-1.794 14.5 14.5 0 0 1 1.817-1.38 43 43 0 0 0 1.61-1.127 4.9 4.9 0 0 0 1.288-1.403q.53-.851.529-2.116 0-1.748-.69-2.599-.667-.85-1.886-.851-1.587 0-2.208 1.15-.598 1.126-.368 3.243l-2.001-.368q-.23-1.242.184-2.323.437-1.081 1.541-1.748 1.104-.69 2.875-.69 1.702 0 2.76.598t1.541 1.564.483 2.07q0 1.265-.483 2.116a4.3 4.3 0 0 1-1.265 1.403 11.5 11.5 0 0 1-1.702.989q-.92.414-1.794.874a8.4 8.4 0 0 0-1.564 1.035q-.69.599-1.15 1.449-.437.828-.529 2.047h5.934q.805 0 .966-.092.184-.115.276-.506zm12.973-10.465v-.621h4.393v.621l-1.265.115q-.368.046-.437.207-.069.138-.069.92V150h-1.127l-8.372-14.122v12.259q0 .782.069.943.07.138.437.184l1.265.138V150h-4.393v-.598l1.265-.138q.368-.046.437-.184.069-.161.069-.943v-11.914q0-.782-.069-.92-.069-.16-.437-.207l-1.265-.115v-.621h3.979l7.291 12.328v-10.465q0-.782-.069-.92-.068-.16-.437-.207zm15.154 15.18q-1.794 0-2.116-1.656-.805.92-1.771 1.334a5.1 5.1 0 0 1-1.909.391q-1.61 0-2.369-.897t-.759-2.162q0-1.357.92-2.139.944-.805 3.243-.805h2.599v-1.863q0-1.84-.644-2.53-.62-.713-1.702-.713-.69 0-1.242.276t-.805 1.012q-.23.713-.046 2.093l-1.817-.276q-.115-1.082.276-1.932.414-.874 1.334-1.38.944-.53 2.346-.529 1.679 0 2.576.575.897.552 1.242 1.449.368.897.368 1.955v5.175q0 1.173.253 1.472.276.299.598.299.207 0 .437-.092.23-.115.506-.345l.414.575q-.345.299-.828.506-.46.207-1.104.207m-5.152-.897q.643 0 1.38-.345.76-.368 1.61-1.449v-2.507h-2.346q-1.288 0-1.886.529-.575.506-.575 1.587 0 1.035.437 1.61.46.575 1.38.575m11.616.138V150h-4.278v-.598l1.173-.138q.23-.023.345-.069.138-.046.276-.253.16-.207.437-.667l3.657-5.934-3.542-6.256a6 6 0 0 0-.391-.644q-.115-.207-.253-.253a.85.85 0 0 0-.345-.092l-1.173-.115v-.621h5.589v.621l-1.196.115q-.345.046-.368.184 0 .138.368.805l2.691 4.761 2.944-4.761q.414-.667.414-.805t-.368-.184l-1.173-.115v-.621h4.278v.621l-1.173.115a1.1 1.1 0 0 0-.368.092q-.115.046-.253.253-.138.184-.437.644l-3.427 5.543 3.772 6.647.368.667a1 1 0 0 0 .253.253q.138.046.368.069l1.196.138V150h-5.589v-.598l1.196-.138q.368-.046.368-.161.023-.138-.368-.828l-2.944-5.175-3.174 5.175q-.414.667-.414.805t.368.184zM71.104 134.981v-.621h6.394q2.254 0 3.45 1.081 1.22 1.058 1.219 2.829v.713q0 1.403-.782 2.392-.759.966-2.185 1.334l2.944 5.428q.3.552.437.782.138.207.253.276.138.046.368.069l1.035.138V150h-3.473l-3.634-7.084h-2.254v5.221q0 .805.069.943.07.138.437.184l1.265.138V150h-5.543v-.598l1.265-.138q.368-.046.437-.184t.069-.943v-11.914q0-.805-.069-.943-.07-.138-.437-.184zm6.394.115h-2.622v7.084h2.622q1.196 0 1.863-.759.69-.781.69-2.346v-.897q0-1.564-.69-2.323-.667-.759-1.863-.759M127.104 134.981v-.621h6.394q2.255 0 3.45 1.081 1.22 1.058 1.219 2.829v.713q0 1.403-.782 2.392-.759.966-2.185 1.334l2.944 5.428q.299.552.437.782.138.207.253.276.138.046.368.069l1.035.138V150h-3.473l-3.634-7.084h-2.254v5.221q0 .805.069.943.07.138.437.184l1.265.138V150h-5.543v-.598l1.265-.138q.368-.046.437-.184t.069-.943v-11.914q0-.805-.069-.943-.07-.138-.437-.184zm6.394.115h-2.622v7.084h2.622q1.196 0 1.863-.759.69-.781.69-2.346v-.897q0-1.564-.69-2.323-.667-.759-1.863-.759M161.024 143.392h-4.56v4.656h-.84v-4.656h-4.536v-.792h4.536v-4.68h.84v4.68h4.56z"/><path stroke="#fff" d="M89 143.5h30"/></svg>