<svg xmlns="http://www.w3.org/2000/svg" width="300" height="200" fill="none" viewBox="0 0 300 200"><g clip-path="url(#a)"><path fill="#000" d="M0 0h300v200H0z"/><path fill="#fff" d="M89.68 106.2q-2.54 0-3.88-1.7-1.32-1.7-1.32-4.56v-1.5q0-1.88.56-3.28.58-1.4 1.7-2.18t2.74-.78q1.5 0 2.48.6.98.58 1.42 1.54.44.94.28 2.06l-1.72.42q.22-1.92-.44-2.94-.66-1.04-2.02-1.04-1.52 0-2.32 1.08-.78 1.08-.78 3.52v3.5q0 2.46.84 3.54t2.5 1.08q.66 0 1.26-.22.6-.24 1.02-.8t.52-1.56l1.24.32q-.44 1.6-1.56 2.26-1.1.64-2.52.64m18.599-.72v.52h-4.82v-.52l1.1-.12q.32-.04.38-.16t.06-.82v-4.92h-6.04v4.92q0 .7.06.82t.38.16l1.1.12v.52h-4.82v-.52l1.1-.12q.32-.04.38-.16t.06-.82V94.02q0-.7-.06-.82t-.38-.16l-1.1-.1v-.54h4.82v.54l-1.1.1q-.32.04-.38.16t-.06.82v4.8h6.04v-4.8q0-.7-.06-.82t-.38-.16l-1.1-.1v-.54h4.82v.54l-1.1.1q-.32.04-.38.16t-.06.82v10.36q0 .7.06.82t.38.16zm3.271-.66h-.36v-.42h.36q.76 0 1.06-.4.32-.42.32-1.06 0-1.32-1-1.32-1.18 0-1 1.8l-1.18-.16a1.67 1.67 0 0 1 .38-1.42q.54-.64 1.8-.64 1.221 0 1.74.52.52.52.52 1.22 0 1.28-1.36 1.66 1.48.4 1.48 1.8 0 .72-.56 1.26t-1.8.54a2.85 2.85 0 0 1-1.36-.32q-.6-.3-.84-1.14l.66-.2q.1.72.52.98.44.26.92.26 1.18 0 1.18-1.38 0-.7-.34-1.14-.32-.44-1.14-.44m10.181 1.38q-2.54 0-3.88-1.7-1.32-1.7-1.32-4.56v-1.5q0-1.88.56-3.28.58-1.4 1.7-2.18t2.74-.78q1.5 0 2.48.6.98.58 1.42 1.54.44.94.28 2.06l-1.72.42q.22-1.92-.44-2.94-.66-1.04-2.02-1.04-1.52 0-2.32 1.08-.78 1.08-.78 3.52v3.5q0 2.46.84 3.54t2.5 1.08q.66 0 1.26-.22.6-.24 1.02-.8t.52-1.56l1.24.32q-.441 1.6-1.56 2.26-1.101.64-2.52.64m5.52-14.46v-.54h3.18v13.18q0 .7.06.82t.38.16l1.1.12v.52h-4.72v-.52l1.1-.12q.32-.04.38-.16t.06-.82V92.82q0-.7-.06-.82t-.38-.16zM217.68 40.2q-2.54 0-3.88-1.7-1.32-1.7-1.32-4.56v-1.5q0-1.88.56-3.28.58-1.4 1.7-2.18t2.74-.78q1.5 0 2.48.6.98.58 1.42 1.54.44.94.28 2.06l-1.72.42q.22-1.92-.44-2.94-.66-1.04-2.02-1.04-1.52 0-2.32 1.08-.78 1.08-.78 3.52v3.5q0 2.46.84 3.54t2.5 1.08q.66 0 1.26-.22.6-.24 1.02-.8t.52-1.56l1.24.32q-.44 1.6-1.56 2.26-1.1.64-2.52.64m18.599-.72V40h-4.82v-.52l1.1-.12q.32-.04.38-.16t.06-.82v-4.92h-6.04v4.92q0 .7.06.82t.38.16l1.1.12V40h-4.82v-.52l1.1-.12q.32-.04.38-.16t.06-.82V28.02q0-.7-.06-.82t-.38-.16l-1.1-.1v-.54h4.82v.54l-1.1.1q-.32.04-.38.16t-.06.82v4.8h6.04v-4.8q0-.7-.06-.82t-.38-.16l-1.1-.1v-.54h4.82v.54l-1.1.1q-.32.04-.38.16t-.06.82v10.36q0 .7.06.82t.38.16zm3.271-.66h-.36v-.42h.36q.76 0 1.06-.4.32-.42.32-1.06 0-1.32-1-1.32-1.18 0-1 1.8l-1.18-.16a1.67 1.67 0 0 1 .38-1.42q.54-.64 1.8-.64 1.221 0 1.74.52.52.52.52 1.22 0 1.28-1.36 1.66 1.48.4 1.48 1.8 0 .72-.56 1.26t-1.8.54q-.76 0-1.36-.32-.6-.3-.84-1.14l.66-.2q.1.72.52.98.44.26.92.26 1.18 0 1.18-1.38 0-.7-.34-1.14-.32-.44-1.14-.44M279.56 106.48v.52h-4.82v-.52l1.1-.12q.32-.04.38-.16t.06-.82v-4.92h-6.04v4.92q0 .7.06.82t.38.16l1.1.12v.52h-4.82v-.52l1.1-.12q.32-.04.38-.16t.06-.82V95.02q0-.7-.06-.82t-.38-.16l-1.1-.1v-.54h4.82v.54l-1.1.1q-.32.04-.38.16t-.06.82v4.8h6.04v-4.8q0-.7-.06-.82t-.38-.16l-1.1-.1v-.54h4.82v.54l-1.1.1q-.32.04-.38.16t-.06.82v10.36q0 .7.06.82t.38.16zm7.632.72q-2.54 0-3.88-1.7-1.32-1.7-1.32-4.56v-1.5q0-1.88.56-3.28.58-1.4 1.7-2.18t2.74-.78q1.5 0 2.48.6.98.58 1.42 1.54.44.94.28 2.06l-1.72.42q.22-1.92-.44-2.94-.66-1.04-2.02-1.04-1.52 0-2.32 1.08-.78 1.08-.78 3.52v3.5q0 2.46.84 3.54t2.5 1.08q.66 0 1.26-.22.6-.24 1.02-.8t.52-1.56l1.24.32q-.441 1.6-1.56 2.26-1.101.64-2.52.64m5.52-14.46v-.54h3.18v13.18q0 .7.06.82t.38.16l1.1.12v.52h-4.72v-.52l1.1-.12q.32-.04.38-.16t.06-.82V93.82q0-.7-.06-.82t-.38-.16z"/><path stroke="#fff" stroke-width="2" d="M33.633 67.965a3 3 0 0 1 2.928 0l26.395 14.763a3 3 0 0 1 1.535 2.618v29.308a3 3 0 0 1-1.535 2.618l-26.394 14.763a3 3 0 0 1-2.93 0L7.238 117.272a3 3 0 0 1-1.535-2.618V85.346a3 3 0 0 1 1.535-2.618z"/><circle cx="35.097" cy="100.366" r="17.511" stroke="#fae13e" stroke-width="3"/><path stroke="#fff" stroke-width="2" d="M216.633 67.965a3 3 0 0 1 2.929 0l26.394 14.763a3 3 0 0 1 1.535 2.618v29.308a3 3 0 0 1-1.535 2.618l-26.394 14.763a3 3 0 0 1-2.929 0l-26.396-14.763a3 3 0 0 1-1.535-2.618V85.346a3 3 0 0 1 1.535-2.618z"/><circle cx="218.097" cy="100.366" r="17.511" stroke="#fae13e" stroke-width="3"/><path fill="#fff" d="M80.024 99.392h-4.56v4.656h-.84v-4.656h-4.536V98.6h4.536v-4.68h.84v4.68h4.56zM263.024 101.392h-4.56v4.656h-.84v-4.656h-4.536v-.792h4.536v-4.68h.84v4.68h4.56z"/><path fill="#ff5252" d="M143.183 85.558V86h-3.23v-.442l.918-.102q.186-.016.272-.051a.45.45 0 0 0 .153-.204 4 4 0 0 0 .204-.578l3.281-10.183h1.071l3.315 10.183q.118.408.187.578.084.153.17.204a1 1 0 0 0 .255.051l.935.102V86h-4.131v-.442l.935-.102q.271-.034.289-.136.033-.12-.153-.697l-.697-2.176h-4.148l-.697 2.176q-.188.578-.17.697.033.102.306.136zm-.204-3.655h3.808l-1.904-5.916zm17.781 3.655V86h-4.012v-.442l.935-.102q.272-.034.323-.136t.051-.697V80.39q0-1.258-.408-1.768-.408-.527-1.173-.527-.561 0-1.241.34-.681.34-1.275 1.326v4.862q0 .595.051.697t.323.136l.935.102V86h-4.012v-.442l.935-.102q.272-.034.323-.136t.051-.697v-5.661q0-.595-.051-.697t-.323-.136l-.935-.085v-.459h2.618v1.377q.612-.816 1.377-1.173a3.6 3.6 0 0 1 1.564-.374q1.257 0 1.938.782.696.765.697 2.176v4.25q0 .595.051.697t.323.136zm10.373 0V86h-4.012v-.442l.935-.102q.272-.034.323-.136t.051-.697V80.39q0-1.258-.408-1.768-.409-.527-1.156-.527-.579 0-1.258.34-.681.34-1.275 1.343v4.845q0 .595.051.697t.323.136l.935.102V86h-4.012v-.442l.935-.102q.272-.034.323-.136t.051-.697v-9.826q0-.595-.051-.697t-.323-.136l-.935-.085v-.459h2.703v5.457q.594-.765 1.36-1.105a3.56 3.56 0 0 1 1.513-.357q1.257 0 1.938.782.68.765.68 2.176v4.25q0 .595.051.697t.323.136zm4.659 1.292q-.375 1.036-.816 1.683-.442.663-1.054.952-.612.306-1.53.306v-1.36q1.224 0 1.853-.391.628-.375 1.003-1.411l.221-.629h-.493l-2.499-7.14q-.171-.493-.255-.578-.085-.102-.357-.136l-.867-.102v-.459h3.876v.459l-.867.102q-.239.017-.272.119-.035.102.136.595l2.04 5.882 2.057-5.899q.153-.493.119-.578-.018-.085-.272-.119l-.884-.102v-.459h3.111v.459l-.867.102q-.255.034-.34.119-.085.086-.255.578zm-28.409 38.708V126h-3.23v-.442l.918-.102q.187-.016.272-.051a.43.43 0 0 0 .153-.204q.085-.17.204-.578l3.281-10.183h1.071l3.315 10.183q.119.408.187.578.085.153.17.204.085.035.255.051l.935.102V126h-4.131v-.442l.935-.102q.272-.034.289-.136.034-.119-.153-.697l-.697-2.176h-4.148l-.697 2.176q-.187.578-.17.697.034.102.306.136zm-.204-3.655h3.808l-1.904-5.916zm8.159-8.024v-.459h2.703v11.203q0 .595.051.697t.323.136l.935.102V126h-4.012v-.442l.935-.102q.272-.034.323-.136t.051-.697v-9.826q0-.595-.051-.697t-.323-.136zm10.182 12.291q-2.158 0-3.298-1.445-1.122-1.445-1.122-3.876v-1.275q0-1.598.476-2.788.494-1.19 1.445-1.853t2.329-.663q1.275 0 2.108.51.834.493 1.207 1.309.375.799.238 1.751l-1.462.357q.187-1.632-.374-2.499-.56-.884-1.717-.884-1.291 0-1.972.918-.663.918-.663 2.992v2.975q0 2.091.714 3.009.715.918 2.125.918.561 0 1.071-.187.51-.204.867-.68.357-.475.442-1.326l1.054.272q-.374 1.36-1.326 1.921-.934.544-2.142.544m4.693-12.291v-.459h2.703v11.203q0 .595.051.697t.323.136l.935.102V126h-4.012v-.442l.935-.102q.272-.034.323-.136t.051-.697v-9.826q0-.595-.051-.697t-.323-.136zm6.476 11.118h-.306v-.357h.306q.646 0 .901-.34.273-.357.272-.901 0-1.122-.85-1.122-1.002 0-.85 1.53l-1.003-.136a1.42 1.42 0 0 1 .323-1.207q.459-.544 1.53-.544 1.038 0 1.479.442t.442 1.037q0 1.088-1.156 1.411 1.258.34 1.258 1.53 0 .612-.476 1.071-.475.459-1.53.459-.645 0-1.156-.272-.51-.255-.714-.969l.561-.17q.085.612.442.833.374.22.782.221 1.003 0 1.003-1.173 0-.596-.289-.969-.272-.374-.969-.374"/><path fill="#88eafb" d="m180 100-7.5-4.33v8.66zm-41-.75a.75.75 0 0 0 0 1.5v-1.5m34.25.75v-.75H139v1.5h34.25z"/><path stroke="#fff" stroke-linecap="round" stroke-width="1.5" d="M218.25 68.25v-22.5"/></g><defs><clipPath id="a"><path fill="#fff" d="M0 0h300v200H0z"/></clipPath></defs></svg>