<svg xmlns="http://www.w3.org/2000/svg" width="300" height="200" fill="none" viewBox="0 0 300 200"><path fill="#000" d="M0 0h300v200H0z"/><path fill="#fff" d="M108.68 54.2q-2.54 0-3.88-1.7-1.32-1.7-1.32-4.56v-1.5q0-1.88.56-3.28.58-1.4 1.7-2.18t2.74-.78q1.5 0 2.48.6.98.58 1.42 1.54.44.94.28 2.06l-1.72.42q.22-1.92-.44-2.94-.66-1.04-2.02-1.04-1.52 0-2.32 1.08-.78 1.08-.78 3.52v3.5q0 2.46.84 3.54t2.5 1.08q.66 0 1.26-.22.6-.24 1.02-.8t.52-1.56l1.24.32q-.44 1.6-1.56 2.26-1.1.64-2.52.64m18.599-.72V54h-4.82v-.52l1.1-.12q.32-.04.38-.16t.06-.82v-4.92h-6.04v4.92q0 .7.06.82t.38.16l1.1.12V54h-4.82v-.52l1.1-.12q.32-.04.38-.16t.06-.82V42.02q0-.7-.06-.82t-.38-.16l-1.1-.1v-.54h4.82v.54l-1.1.1q-.32.04-.38.16t-.06.82v4.8h6.04v-4.8q0-.7-.06-.82t-.38-.16l-1.1-.1v-.54h4.82v.54l-1.1.1q-.32.04-.38.16t-.06.82v10.36q0 .7.06.82t.38.16zm3.271-.66h-.36v-.42h.36q.76 0 1.06-.4.32-.42.32-1.06 0-1.32-1-1.32-1.18 0-1 1.8l-1.18-.16a1.67 1.67 0 0 1 .38-1.42q.54-.64 1.8-.64 1.221 0 1.74.52.52.52.52 1.22 0 1.28-1.36 1.66 1.48.4 1.48 1.8 0 .72-.56 1.26t-1.8.54q-.76 0-1.36-.32-.6-.3-.84-1.14l.66-.2q.1.72.52.98.44.26.92.26 1.18 0 1.18-1.38 0-.7-.34-1.14-.32-.44-1.14-.44m10.181 1.38q-2.54 0-3.88-1.7-1.32-1.7-1.32-4.56v-1.5q0-1.88.56-3.28.58-1.4 1.7-2.18t2.74-.78q1.5 0 2.48.6.98.58 1.42 1.54.44.94.28 2.06l-1.72.42q.22-1.92-.44-2.94-.66-1.04-2.02-1.04-1.52 0-2.32 1.08-.78 1.08-.78 3.52v3.5q0 2.46.84 3.54t2.5 1.08q.66 0 1.26-.22.6-.24 1.02-.8t.52-1.56l1.24.32q-.441 1.6-1.56 2.26-1.101.64-2.52.64m16.879-7.76v1.5q0 2.92-1.34 4.6-1.341 1.66-3.84 1.66-2.52 0-3.86-1.66-1.32-1.68-1.32-4.6v-1.5q0-2.9 1.32-4.56 1.34-1.68 3.86-1.68 2.499 0 3.84 1.68 1.34 1.66 1.34 4.56m-1.9-1q0-2.5-.84-3.54-.82-1.06-2.44-1.06t-2.46 1.06q-.82 1.04-.82 3.54v3.5q0 2.5.82 3.56.84 1.06 2.46 1.06t2.44-1.06q.84-1.06.84-3.56zm10.06 8.76q-2.54 0-3.88-1.7-1.32-1.7-1.32-4.56v-1.5q0-1.88.56-3.28.58-1.4 1.7-2.18t2.74-.78q1.5 0 2.48.6.98.58 1.42 1.54.44.94.28 2.06l-1.72.42q.22-1.92-.44-2.94-.66-1.04-2.02-1.04-1.52 0-2.32 1.08-.78 1.08-.78 3.52v3.5q0 2.46.84 3.54t2.5 1.08q.66 0 1.26-.22.6-.24 1.02-.8t.52-1.56l1.24.32q-.44 1.6-1.56 2.26-1.1.64-2.52.64m5.52-14.46v-.54h3.18v13.18q0 .7.06.82t.38.16l1.1.12V54h-4.72v-.52l1.1-.12q.32-.04.38-.16t.06-.82V40.82q0-.7-.06-.82t-.38-.16z"/><path stroke="#fff" stroke-width="2" d="M52.633 15.965a3 3 0 0 1 2.928 0l26.395 14.763a3 3 0 0 1 1.535 2.618v29.308a3 3 0 0 1-1.535 2.618L55.562 80.036a3 3 0 0 1-2.93 0L26.238 65.272a3 3 0 0 1-1.535-2.618V33.346a3 3 0 0 1 1.535-2.618z"/><circle cx="54.097" cy="48.366" r="17.511" stroke="#fae13e" stroke-width="3"/><path fill="#fff" d="M99.024 47.392h-4.56v4.656h-.84v-4.656h-4.536V46.6h4.536v-4.68h.84v4.68h4.56z"/><path fill="#ff5252" d="M139.183 103.558V104h-3.23v-.442l.918-.102a1 1 0 0 0 .272-.051.45.45 0 0 0 .153-.204q.084-.17.204-.578l3.281-10.183h1.071l3.315 10.183q.118.408.187.578.084.153.17.204.084.035.255.051l.935.102V104h-4.131v-.442l.935-.102q.271-.034.289-.136.033-.119-.153-.697l-.697-2.176h-4.148l-.697 2.176q-.188.578-.17.697.033.102.306.136zm-.204-3.655h3.808l-1.904-5.916zm17.781 3.655V104h-4.012v-.442l.935-.102q.272-.034.323-.136t.051-.697V98.39q0-1.258-.408-1.768-.408-.527-1.173-.527-.561 0-1.241.34-.681.34-1.275 1.326v4.862q0 .595.051.697t.323.136l.935.102V104h-4.012v-.442l.935-.102q.272-.034.323-.136t.051-.697v-5.661q0-.595-.051-.697t-.323-.136l-.935-.085v-.459h2.618v1.377q.612-.816 1.377-1.173a3.6 3.6 0 0 1 1.564-.374q1.257 0 1.938.782.696.765.697 2.176v4.25q0 .595.051.697t.323.136zm10.373 0V104h-4.012v-.442l.935-.102q.272-.034.323-.136t.051-.697V98.39q0-1.258-.408-1.768-.409-.527-1.156-.527-.579 0-1.258.34-.681.34-1.275 1.343v4.845q0 .595.051.697t.323.136l.935.102V104h-4.012v-.442l.935-.102q.272-.034.323-.136t.051-.697v-9.826q0-.595-.051-.697t-.323-.136l-.935-.085v-.459h2.703v5.457q.594-.765 1.36-1.105a3.56 3.56 0 0 1 1.513-.357q1.257 0 1.938.782.68.765.68 2.176v4.25q0 .595.051.697t.323.136zm4.659 1.292q-.375 1.036-.816 1.683-.442.663-1.054.952-.612.306-1.53.306v-1.36q1.224 0 1.853-.391.628-.374 1.003-1.411l.221-.629h-.493l-2.499-7.14q-.171-.493-.255-.578-.085-.102-.357-.136l-.867-.102v-.459h3.876v.459l-.867.102q-.239.017-.272.119-.035.102.136.595l2.04 5.882 2.057-5.899q.153-.493.119-.578-.018-.085-.272-.119l-.884-.102v-.459h3.111v.459l-.867.102q-.255.034-.34.119-.085.086-.255.578zm-30.335 18.708V124h-3.23v-.442l.918-.102q.188-.016.272-.051a.43.43 0 0 0 .153-.204q.085-.17.204-.578l3.281-10.183h1.071l3.315 10.183q.12.408.187.578.086.153.17.204.085.035.255.051l.935.102V124h-4.131v-.442l.935-.102q.273-.034.289-.136.035-.119-.153-.697l-.697-2.176h-4.148l-.697 2.176q-.186.578-.17.697.034.102.306.136zm-.204-3.655h3.808l-1.904-5.916zm8.159-8.024v-.459h2.703v11.203q0 .595.051.697t.323.136l.935.102V124h-4.012v-.442l.935-.102q.272-.034.323-.136t.051-.697v-9.826q0-.595-.051-.697t-.323-.136zm10.183 12.291q-2.16 0-3.298-1.445-1.122-1.445-1.122-3.876v-1.275q0-1.598.476-2.788.492-1.19 1.445-1.853.951-.663 2.329-.663 1.274 0 2.108.51.832.493 1.207 1.309.373.799.238 1.751l-1.462.357q.186-1.632-.374-2.499-.562-.884-1.717-.884-1.293 0-1.972.918-.663.918-.663 2.992v2.975q0 2.091.714 3.009t2.125.918q.561 0 1.071-.187.51-.204.867-.68.357-.475.442-1.326l1.054.272q-.375 1.36-1.326 1.921-.936.544-2.142.544m4.692-12.291v-.459h2.703v11.203q0 .595.051.697t.323.136l.935.102V124h-4.012v-.442l.935-.102q.272-.034.323-.136t.051-.697v-9.826q0-.595-.051-.697t-.323-.136zm6.477 11.118h-.306v-.357h.306q.646 0 .901-.34.272-.357.272-.901 0-1.122-.85-1.122-1.003 0-.85 1.53l-1.003-.136q-.12-.68.323-1.207.459-.544 1.53-.544 1.036 0 1.479.442.441.442.442 1.037 0 1.088-1.156 1.411 1.257.34 1.258 1.53 0 .612-.476 1.071-.477.459-1.53.459a2.4 2.4 0 0 1-1.156-.272q-.51-.255-.714-.969l.561-.17q.085.612.442.833.374.22.782.221 1.002 0 1.003-1.173 0-.596-.289-.969-.273-.374-.969-.374"/><path fill="#88eafb" d="m209 114-2.765-8.207-5.725 6.498zm-41.504-37.563a.75.75 0 0 0-.992 1.126L167 77zm36.439 33.101.496-.563-36.935-32.538L167 77l-.496.563 36.935 32.538z"/><path fill="#fff" d="M239.68 91.2q-2.54 0-3.88-1.7-1.32-1.7-1.32-4.56v-1.5q0-1.88.56-3.28.58-1.4 1.7-2.18t2.74-.78q1.5 0 2.48.6.98.58 1.42 1.54.44.94.28 2.06l-1.72.42q.22-1.92-.44-2.94-.66-1.04-2.02-1.04-1.52 0-2.32 1.08-.78 1.08-.78 3.52v3.5q0 2.46.84 3.54t2.5 1.08q.66 0 1.26-.22.6-.24 1.02-.8t.52-1.56l1.24.32q-.44 1.6-1.56 2.26-1.1.64-2.52.64m16.879-7.76v1.5q0 2.92-1.34 4.6-1.341 1.66-3.84 1.66-2.52 0-3.86-1.66-1.32-1.68-1.32-4.6v-1.5q0-2.9 1.32-4.56 1.34-1.68 3.86-1.68 2.499 0 3.84 1.68 1.34 1.66 1.34 4.56m-1.9-1q0-2.5-.84-3.54-.82-1.06-2.44-1.06t-2.46 1.06q-.82 1.04-.82 3.54v3.5q0 2.5.82 3.56.84 1.06 2.46 1.06t2.44-1.06q.84-1.06.84-3.56zm10.06 8.76q-2.54 0-3.88-1.7-1.32-1.7-1.32-4.56v-1.5q0-1.88.56-3.28.58-1.4 1.7-2.18t2.74-.78q1.5 0 2.48.6.98.58 1.42 1.54.44.94.28 2.06l-1.72.42q.22-1.92-.44-2.94-.66-1.04-2.02-1.04-1.52 0-2.32 1.08-.78 1.08-.78 3.52v3.5q0 2.46.84 3.54t2.5 1.08q.66 0 1.26-.22.6-.24 1.02-.8t.52-1.56l1.24.32q-.44 1.6-1.56 2.26-1.1.64-2.52.64m18.599-.72V91h-4.82v-.52l1.1-.12q.32-.04.38-.16t.06-.82v-4.92h-6.04v4.92q0 .7.06.82t.38.16l1.1.12V91h-4.82v-.52l1.1-.12q.32-.04.38-.16t.06-.82V79.02q0-.7-.06-.82t-.38-.16l-1.1-.1v-.54h4.82v.54l-1.1.1q-.32.04-.38.16t-.06.82v4.8h6.04v-4.8q0-.7-.06-.82t-.38-.16l-1.1-.1v-.54h4.82v.54l-1.1.1q-.32.04-.38.16t-.06.82v10.36q0 .7.06.82t.38.16zm3.272-.66h-.36v-.42h.36q.76 0 1.06-.4.32-.42.32-1.06 0-1.32-1-1.32-1.18 0-1 1.8l-1.18-.16a1.66 1.66 0 0 1 .38-1.42q.54-.64 1.8-.64 1.22 0 1.74.52t.52 1.22q0 1.28-1.36 1.66 1.48.4 1.48 1.8 0 .72-.56 1.26-.561.54-1.8.54-.76 0-1.36-.32-.6-.3-.84-1.14l.66-.2q.1.72.52.98.44.26.92.26 1.18 0 1.18-1.38 0-.7-.34-1.14-.321-.44-1.14-.44"/><path stroke="#fff" stroke-width="2" d="M237.633 120.965a3 3 0 0 1 2.929 0l26.394 14.763a3 3 0 0 1 1.535 2.618v29.308a3 3 0 0 1-1.535 2.618l-26.394 14.763a3 3 0 0 1-2.929 0l-26.396-14.763a3 3 0 0 1-1.535-2.618v-29.308c0-1.087.587-2.088 1.535-2.618z"/><circle cx="239.097" cy="153.366" r="17.511" stroke="#fae13e" stroke-width="3"/><path stroke="#fff" stroke-linecap="round" stroke-width="2" d="M239 119V97"/><path fill="url(#a)" d="M214.723 82.485c-3.016 8.044-10.893 12.529-17.592 10.016-6.7-2.512-9.686-11.07-6.669-19.114 1.272-3.391-1.352 11.989 8.632 5.243 1.921-1.409 1.397-15.573 3.592-15.86 1.16-.739.384 13.11 3.739 14.367 8.966 5.13 5.732-11.38 7.059-9.404.946 1.407 1.632 3.036 2.026 4.796.69 3.082.485 6.565-.787 9.956"/><defs><linearGradient id="a" x1="207.613" x2="197.131" y1="64.549" y2="92.501" gradientUnits="userSpaceOnUse"><stop stop-color="#ff5252"/><stop offset="1" stop-color="#fffb2a"/></linearGradient></defs></svg>