<svg xmlns="http://www.w3.org/2000/svg" width="300" height="200" fill="none" viewBox="0 0 300 200"><path fill="#000" d="M0 0h300v200H0z"/><path fill="#fff" d="M138.016 50.24q-3.048 0-4.656-2.04-1.584-2.04-1.584-5.472v-1.8q0-2.256.672-3.936.696-1.68 2.04-2.616t3.288-.936q1.8 0 2.976.72 1.176.696 1.704 1.848.528 1.128.336 2.472l-2.064.504q.264-2.304-.528-3.528-.792-1.248-2.424-1.248-1.824 0-2.784 1.296-.936 1.296-.936 4.224v4.2q0 2.952 1.008 4.248t3 1.296q.792 0 1.512-.264.72-.288 1.224-.96t.624-1.872l1.488.384q-.528 1.92-1.872 2.712-1.32.768-3.024.768M183.682 50.23q-2.921 0-4.462-1.955-1.518-1.955-1.518-5.244v-1.725q0-2.162.644-3.772.667-1.61 1.955-2.507t3.151-.897q1.725 0 2.852.69 1.127.667 1.633 1.771.506 1.08.322 2.369l-1.978.483q.253-2.208-.506-3.381-.759-1.196-2.323-1.196-1.748 0-2.668 1.242-.897 1.242-.897 4.048v4.025q0 2.829.966 4.071t2.875 1.242q.759 0 1.449-.253.69-.276 1.173-.92t.598-1.794l1.426.368q-.506 1.84-1.794 2.599-1.264.736-2.898.736M229.594 49.402V50h-5.543v-.598l1.265-.138q.368-.046.437-.184t.069-.943v-5.658h-6.946v5.658q0 .805.069.943.07.138.437.184l1.265.138V50h-5.543v-.598l1.265-.138q.368-.046.437-.184t.069-.943V36.223q0-.805-.069-.943-.07-.138-.437-.184l-1.265-.115v-.621h5.543v.621l-1.265.115q-.368.045-.437.184-.069.138-.069.943v5.52h6.946v-5.52q0-.805-.069-.943-.07-.138-.437-.184l-1.265-.115v-.621h5.543v.621l-1.265.115q-.368.045-.437.184-.069.138-.069.943v11.914q0 .805.069.943.07.138.437.184z"/><path stroke="#fff" stroke-linecap="round" stroke-width="1.5" d="M136.75 54.75v21.5M190.75 42.25h21.5M148.75 36.25h21.5M148.75 43.25h21.5M148.75 49.25h21.5"/><path stroke="#fff" stroke-width="2" d="M135.253 77.965a3 3 0 0 1 2.929 0l33.86 18.938a3 3 0 0 1 1.535 2.618v37.66a3 3 0 0 1-1.535 2.618l-33.86 18.938a3 3 0 0 1-2.929 0l-33.86-18.938a3 3 0 0 1-1.536-2.618v-37.66c0-1.086.587-2.087 1.536-2.618z"/><circle cx="136.717" cy="118.806" r="22.18" stroke="#fae13e" stroke-width="3"/></svg>