<svg xmlns="http://www.w3.org/2000/svg" width="300" height="200" fill="none" viewBox="0 0 300 200"><path fill="#000" d="M0 0h300v200H0z"/><path fill="#f6f31f" fill-opacity=".29" d="m68.5 56 123-50.5-6 118L61 175z"/><path stroke="#fff" stroke-dasharray="3 3" d="m67.499 56.029-7 120M192.193 4.461l-124 52"/><path stroke="#fff" stroke-width="2" d="m67.928 55.629 40 100"/><path stroke="#f6f31f" stroke-width="2" d="m14.618 195.076 271-112"/><path fill="#f6f31f" d="M244.7 110.64v-.54h3.08v1.6q.7-.94 1.4-1.36.72-.44 1.46-.44.64 0 1.2.38t.94 1.22l-1.3.78q-.3-.72-.68-1a1.38 1.38 0 0 0-.84-.28q-.5 0-1 .32-.48.32-1.08 1.2v5.86q0 .7.06.84.06.12.38.14l1.5.12v.52h-5.12v-.52l1.1-.12q.32-.04.38-.16t.06-.82v-6.66q0-.7-.06-.82t-.38-.16z"/><path fill="#fff" d="M117.12 88.32h-.94v-.44q0-.9.26-1.44.28-.56.68-.96l.8-.84q.4-.44.66-1.06.28-.64.28-1.68 0-1.54-.56-2.3t-1.6-.76q-1.32 0-1.84 1-.52.98-.32 2.82l-1.64-.32q-.18-1.08.16-2.02.36-.94 1.28-1.52.92-.6 2.38-.6 1.42 0 2.3.5t1.28 1.3q.4.78.4 1.68 0 .92-.3 1.54-.28.6-.72 1.04-.44.42-.94.76-.48.34-.9.72-.4.36-.64.86-.22.5-.14 1.26zm-.5 3.88q-.5 0-.82-.32-.3-.32-.3-.82t.3-.8q.32-.32.82-.32t.82.32q.32.3.32.8t-.32.82-.82.32"/><path fill="#ff626a" d="M54.68 47.2q-2.54 0-3.88-1.7-1.32-1.7-1.32-4.56v-1.5q0-1.88.56-3.28.58-1.4 1.7-2.18t2.74-.78q1.5 0 2.48.6.98.58 1.42 1.54.44.94.28 2.06l-1.72.42q.22-1.92-.44-2.94-.66-1.04-2.02-1.04-1.52 0-2.32 1.08-.78 1.08-.78 3.52v3.5q0 2.46.84 3.54t2.5 1.08q.66 0 1.26-.22.6-.24 1.02-.8t.52-1.56l1.24.32q-.44 1.6-1.56 2.26-1.1.64-2.52.64"/><path fill="#f6f31f" d="M76.94 190.14q-1.56 0-1.84-1.44-.7.8-1.54 1.16-.84.34-1.66.34-1.4 0-2.06-.78t-.66-1.88q0-1.18.8-1.86.82-.7 2.82-.7h2.26v-1.62q0-1.6-.56-2.2-.54-.62-1.48-.62-.6 0-1.08.24t-.7.88q-.2.62-.04 1.82l-1.58-.24q-.1-.94.24-1.68.36-.76 1.16-1.2.82-.46 2.04-.46 1.46 0 2.24.5.78.48 1.08 1.26.32.78.32 1.7v4.5q0 1.02.22 1.28.24.26.52.26.18 0 .38-.08.2-.1.44-.3l.36.5q-.3.26-.72.44-.4.18-.96.18m-4.48-.78q.56 0 1.2-.3.66-.32 1.4-1.26v-2.18h-2.04q-1.12 0-1.64.46-.5.44-.5 1.38 0 .9.38 1.4.4.5 1.2.5"/><circle cx="67.5" cy="55.5" r="4.5" fill="#ff626a"/><circle cx="60.5" cy="174.5" r="4.5" fill="#f6f31f"/><path fill="#fff" d="m83 51-.864 5.709 5.376-2.107zm38 97 .864-5.708-5.376 2.105zM84.641 55.19l-.465.182 34.717 88.62.466-.182.465-.182-34.717-88.62z"/><path stroke="#fff" stroke-dasharray="3 3" d="m192.499 4.029-7 120"/></svg>