<svg xmlns="http://www.w3.org/2000/svg" width="300" height="200" fill="none" viewBox="0 0 300 200"><path fill="#000" d="M0 0h300v200H0z"/><path fill="#f6f31f" fill-opacity=".51" stroke="#f6f31f" d="M287.219 29.54 75.82 91.46 4.375 51.486l200.656-45.97z"/><path fill="#3bf8ff" d="m110 60-1.003 11.503 10.464-4.883zm28 60 .906-.423-24.194-51.844-.906.423-.906.422 24.194 51.845z"/><path fill="#f6f31f" d="m125 129 .501-5.752-5.231 2.442zM97 69l-.501 5.752 5.231-2.442zm26.097 55.922.453-.211-24.194-51.845-.453.212-.453.211 24.194 51.845z"/><path fill="#fff" d="m262 119-10-5.774v11.548zm-124 0v1h115v-2H138z"/><path fill="#fff" d="m73 184 11.154-2.989-8.165-8.165zm65-65-.707-.707-58.636 58.636.707.707.707.707 58.636-58.636z"/><path fill="#fff" d="m138 9-5.774 10h11.547zm0 110h1V18h-2v101zM259.76 150.48v.52h-3.72v-.52l1.02-.12q.2-.02.3-.06.12-.04.24-.22.14-.18.38-.58l3.18-5.16-3.08-5.44a5 5 0 0 0-.34-.56q-.1-.18-.22-.22a.7.7 0 0 0-.3-.08l-1.02-.1v-.54h4.86v.54l-1.04.1q-.3.04-.32.16 0 .12.32.7l2.34 4.14 2.56-4.14q.36-.58.36-.7t-.32-.16l-1.02-.1v-.54h3.72v.54l-1.02.1a.9.9 0 0 0-.32.08q-.1.04-.22.22-.12.16-.38.56l-2.98 4.82 3.28 5.78.32.58q.12.16.22.22.12.04.32.06l1.04.12v.52h-4.86v-.52l1.04-.12q.32-.04.32-.14.02-.12-.32-.72l-2.56-4.5-2.76 4.5q-.36.58-.36.7t.32.16zM158.3 24.48V25h-4.82v-.52l1.1-.12q.32-.04.38-.16t.06-.82V19.2l-3.22-6.3a4 4 0 0 0-.32-.56q-.1-.18-.22-.22a.8.8 0 0 0-.32-.08l-1.02-.1v-.54h4.84v.54l-1.02.1q-.3.04-.32.16 0 .12.28.7l2.72 5.46 2.78-5.46q.3-.58.28-.7t-.32-.16l-1.02-.1v-.54h3.7v.54l-1.04.1a1 1 0 0 0-.32.08q-.1.04-.22.22a7 7 0 0 0-.3.56l-3.2 6.26v4.22q0 .7.06.82t.38.16zM60.3 180.74h.52V184h-9.04v-.44l6.86-12.52h-4.42q-.7 0-.84.1-.14.08-.24.42l-.58 2.1h-.52v-3.26h8.58v.44l-6.84 12.52h4.86q.48 0 .68-.02.2-.04.26-.14.08-.12.14-.36z"/><path fill="#3bf8ff" d="M144.136 91.52v-.592q0-2 .88-3.712.896-1.712 2.672-3.216l.368.384q-1.376 1.296-1.952 2.992a11.3 11.3 0 0 0-.56 3.552v.592q0 1.84.56 3.552.576 1.695 1.952 2.992l-.368.384q-1.776-1.504-2.672-3.216a8.06 8.06 0 0 1-.88-3.712m4.687-6.928v-.432h2.544v10.544q0 .56.048.656t.304.128l.88.096V96h-3.776v-.416l.88-.096q.256-.032.304-.128t.048-.656v-9.248q0-.56-.048-.656t-.304-.128zm7.184 10.88q0 .72-.48 1.68-.465.96-1.296 1.936l-.352-.288q.656-.8.944-1.472.288-.656.32-1.168h-.016a.84.84 0 0 1-.624-.24.84.84 0 0 1-.24-.624q0-.384.24-.624t.624-.24.624.272q.255.256.256.768m10.525.112V96h-3.776v-.416l.88-.096q.255-.032.304-.128t.048-.656V90.72q0-1.184-.368-1.664-.353-.495-1.04-.496-.496 0-1.12.32-.609.32-1.168 1.232v4.592q0 .56.048.656t.304.128l.88.096V96h-3.776v-.416l.88-.096q.255-.032.304-.128t.048-.656v-5.328q0-.56-.048-.656-.049-.096-.304-.128l-.88-.08v-.432h2.464v1.296q.56-.752 1.264-1.104a3.2 3.2 0 0 1 1.424-.352q1.728 0 2.224 1.584.591-.832 1.312-1.2.735-.384 1.472-.384 1.136 0 1.76.736.64.72.64 2.048v4q0 .56.048.656t.304.128l.88.096V96h-3.776v-.416l.88-.096q.255-.032.304-.128t.048-.656V90.72q0-1.184-.368-1.664-.353-.495-1.04-.496-.497 0-1.136.336-.624.32-1.185 1.264.017.128.017.272.016.128.016.272v4q0 .56.048.656t.304.128zm8.318-.112q0 .72-.48 1.68-.464.96-1.296 1.936l-.352-.288q.657-.8.944-1.472.288-.656.32-1.168h-.016a.84.84 0 0 1-.624-.24.84.84 0 0 1-.24-.624q0-.384.24-.624t.624-.24.624.272q.256.256.256.768m10.685.112V96h-3.776v-.416l.88-.096q.256-.032.304-.128t.048-.656V90.72q0-1.184-.384-1.664-.384-.495-1.104-.496-.528 0-1.168.32t-1.2 1.248v4.576q0 .56.048.656t.304.128l.88.096V96h-3.776v-.416l.88-.096q.256-.032.304-.128t.048-.656v-5.328q0-.56-.048-.656t-.304-.128l-.88-.08v-.432h2.464v1.296q.576-.768 1.296-1.104a3.4 3.4 0 0 1 1.472-.352q1.185 0 1.824.736.656.72.656 2.048v4q0 .56.048.656t.304.128zm4.611-4.656v.592q0 1.984-.896 3.712-.88 1.712-2.656 3.216l-.368-.384q1.377-1.296 1.936-2.992.56-1.712.56-3.552v-.592q0-1.856-.56-3.552t-1.936-2.992l.368-.384q1.776 1.505 2.656 3.216a7.9 7.9 0 0 1 .896 3.712"/><path fill="#f6f31f" d="M93.56 106.62v-.52h3.08v1.6q.6-.94 1.34-1.36a3.3 3.3 0 0 1 1.68-.44q1.72 0 2.66 1.3.96 1.3.96 3.64v.4q0 2.28-1.1 3.62t-3.06 1.34q-1.4 0-2.38-.86v3.3q0 .68.06.8.06.14.38.18l1.5.1v.54h-5.12v-.54l1.1-.1q.32-.04.38-.18.06-.12.06-.8v-10.92q0-.7-.06-.82t-.38-.16zm5.84 0q-.62 0-1.3.4-.66.4-1.36 1.62v5.72q.86 1.18 2.28 1.18 1.3 0 1.88-.98.58-1 .58-2.72v-1.6q0-1.88-.54-2.74-.54-.88-1.54-.88"/></svg>