<svg xmlns="http://www.w3.org/2000/svg" width="300" height="200" fill="none" viewBox="0 0 300 200"><path fill="#000" d="M0 0h300v200H0z"/><path stroke="#fff" stroke-width="2" d="M250 153H74L179 46z"/><path fill="#f6f31f" d="M27.768 163.552v-.432h4.544q1.584 0 2.416.8.832.784.832 2.096v.464q0 1.313-.832 2.112t-2.416.8h-1.92v3.312q0 .56.048.672.048.096.304.112l1.2.096V174h-4.176v-.416l.88-.096q.256-.032.304-.128t.048-.656v-8.288q0-.56-.048-.656t-.304-.128zm4.544.08h-1.92v5.248h1.92q1.776 0 1.776-2.176v-.912q0-2.16-1.776-2.16m8.637 5.888v-.592a8 8 0 0 1 .88-3.712q.895-1.712 2.672-3.216l.367.384q-1.376 1.296-1.952 2.992a11.3 11.3 0 0 0-.56 3.552v.592q0 1.84.56 3.552.577 1.696 1.953 2.992l-.368.384q-1.776-1.504-2.672-3.216a8.06 8.06 0 0 1-.88-3.712m7.422 4.064V174h-3.04v-.416l.816-.096q.176-.016.257-.048a.7.7 0 0 0 .207-.176 8 8 0 0 0 .32-.464l1.84-2.656-1.776-2.864a3.4 3.4 0 0 0-.303-.448q-.097-.144-.193-.176a.6.6 0 0 0-.24-.064l-.831-.08v-.432h3.76v.432l-.817.08q-.256.032-.256.128 0 .08.304.56l1.233 1.984 1.36-1.984q.32-.464.303-.56 0-.096-.24-.128l-.816-.08v-.432h3.04v.432l-.816.08a.8.8 0 0 0-.255.064.5.5 0 0 0-.209.176q-.095.128-.32.448l-1.727 2.496 1.871 3.024q.192.32.288.464a1 1 0 0 0 .193.176q.096.031.256.048l.831.096V174h-3.76v-.416l.816-.096q.257-.032.257-.112t-.304-.576l-1.328-2.144-1.472 2.144q-.32.48-.32.576.015.08.256.112zm5.655-2.688 1.056-.656h.8v4.688q0 .272.032.32.033.048.145.064l.448.048v.32H54.17v-.32l.608-.048q.129-.016.145-.064.031-.048.032-.32v-4.176l-.736.464zm5.934 2.576q0 .72-.48 1.68-.465.96-1.296 1.936l-.352-.288q.656-.8.944-1.472.288-.656.32-1.168h-.016a.84.84 0 0 1-.624-.24.84.84 0 0 1-.24-.624q0-.384.24-.624t.624-.24.624.272q.256.257.256.768m9.286 1.328q-.352.976-.768 1.584-.416.624-.992.896-.576.288-1.44.288v-1.28q1.152 0 1.744-.368.591-.352.944-1.328l.208-.592h-.464l-2.352-6.72q-.16-.464-.24-.544-.081-.096-.336-.128l-.816-.096v-.432h3.648v.432l-.816.096q-.225.016-.256.112-.033.096.128.56l1.92 5.536 1.936-5.552q.144-.464.112-.544-.016-.08-.256-.112l-.832-.096v-.432h2.928v.432l-.816.096q-.24.032-.32.112t-.24.544zm4.437-3.904 1.056-.656h.8v4.688q0 .272.032.32t.144.064l.448.048v.32h-2.336v-.32l.608-.048q.127-.016.144-.064.032-.048.032-.32v-4.176l-.736.464zm5.933 2.576q0 .72-.48 1.68-.465.96-1.296 1.936l-.352-.288q.656-.8.944-1.472.288-.656.32-1.168h-.016a.84.84 0 0 1-.624-.24.84.84 0 0 1-.24-.624q0-.384.24-.624t.624-.24.624.272q.255.257.256.768m11.014-1.76h.416V174h-5.904v-.4l4.288-7.008h-2.4q-.528 0-.656.08-.112.064-.208.336l-.432 1.36h-.416v-2.288h5.568v.4l-4.256 7.008h2.704q.543 0 .656-.064.127-.064.208-.352zm1.63-.816 1.057-.656h.8v4.688q0 .272.032.32t.144.064l.448.048v.32h-2.336v-.32l.608-.048q.127-.016.144-.064.032-.048.032-.32v-4.176l-.736.464zm7.23-1.968v.592q0 1.984-.896 3.712-.88 1.712-2.656 3.216l-.368-.384q1.376-1.296 1.936-2.992a11.4 11.4 0 0 0 .56-3.552v-.592q0-1.856-.56-3.552t-1.936-2.992l.368-.384q1.776 1.504 2.656 3.216a7.9 7.9 0 0 1 .896 3.712M219.008 178.568l.224 1.424q-1.248 0-2.224-.624-.976-.607-1.568-2.208h-.096q-2.032 0-3.104-1.328-1.056-1.344-1.056-3.68v-1.2q0-2.32 1.056-3.648 1.072-1.344 3.104-1.344 2 0 3.072 1.344 1.088 1.328 1.088 3.648v1.2q0 2.128-.912 3.44-.896 1.296-2.576 1.52.368.847 1.072 1.152.703.304 1.92.304m-1.024-8.416q0-2-.672-2.832-.672-.848-1.968-.848-1.312 0-1.984.848-.656.833-.656 2.832v2.8q0 2 .656 2.848.672.848 1.984.848 1.296 0 1.968-.848t.672-2.848zm7.465 2.368v-.592q0-2 .88-3.712.896-1.712 2.672-3.216l.368.384q-1.377 1.296-1.952 2.992a11.2 11.2 0 0 0-.56 3.552v.592q0 1.84.56 3.552.575 1.696 1.952 2.992l-.368.384q-1.776-1.504-2.672-3.216a8.06 8.06 0 0 1-.88-3.712m7.423 4.064V177h-3.04v-.416l.816-.096q.175-.016.256-.048a.7.7 0 0 0 .208-.176q.111-.144.32-.464l1.84-2.656-1.776-2.864a3.5 3.5 0 0 0-.304-.448q-.096-.144-.192-.176a.6.6 0 0 0-.24-.064l-.832-.08v-.432h3.76v.432l-.816.08q-.256.032-.256.128 0 .08.304.56l1.232 1.984 1.36-1.984q.32-.464.304-.56 0-.096-.24-.128l-.816-.08v-.432h3.04v.432l-.816.08a.8.8 0 0 0-.256.064.5.5 0 0 0-.208.176 19 19 0 0 0-.32.448l-1.728 2.496 1.872 3.024q.192.32.288.464a.9.9 0 0 0 .192.176q.096.031.256.048l.831.096V177h-3.759v-.416l.816-.096q.256-.032.256-.112t-.304-.576l-1.328-2.144-1.472 2.144q-.321.48-.321.576.017.08.257.112zm8.807.512h.336v1.584h-3.472v-.432q0-.592.16-.944t.464-.608q.32-.256.752-.512.415-.24.768-.544.352-.32.352-.96 0-1.152-.784-1.152-.928 0-.784 1.44l-.944-.128a1.37 1.37 0 0 1 .32-1.168q.432-.512 1.408-.512.975 0 1.376.464.416.464.416 1.072 0 .607-.32.96a2.5 2.5 0 0 1-.784.544q-.465.192-.896.416-.912.464-1.008 1.36h2.08q.272 0 .336-.032.08-.032.096-.176zm3.968-.624q0 .72-.48 1.68-.463.96-1.296 1.936l-.352-.288q.656-.8.944-1.472.288-.656.32-1.168h-.016a.84.84 0 0 1-.624-.24.84.84 0 0 1-.24-.624q0-.384.24-.624t.624-.24.624.272q.256.257.256.768m9.286 1.328q-.353.976-.768 1.584-.416.624-.992.896-.576.288-1.44.288v-1.28q1.152 0 1.744-.368.592-.352.944-1.328l.208-.592h-.464l-2.352-6.72q-.16-.464-.24-.544-.08-.096-.336-.128l-.816-.096v-.432h3.648v.432l-.816.096q-.224.016-.256.112t.128.56l1.92 5.536 1.936-5.552q.144-.464.112-.544-.016-.08-.256-.112l-.832-.096v-.432h2.928v.432l-.816.096q-.24.032-.32.112t-.24.544zm7.589-.704h.336v1.584h-3.472v-.432q0-.592.16-.944t.464-.608q.32-.256.752-.512a5 5 0 0 0 .768-.544q.352-.32.352-.96 0-1.152-.784-1.152-.928 0-.784 1.44l-.944-.128a1.38 1.38 0 0 1 .32-1.168q.432-.512 1.408-.512.977 0 1.376.464.417.464.416 1.072 0 .607-.32.96a2.5 2.5 0 0 1-.784.544q-.464.192-.896.416-.912.464-1.008 1.36h2.08q.273 0 .336-.032.081-.032.096-.176zm3.969-.624q0 .72-.48 1.68-.464.96-1.296 1.936l-.352-.288q.656-.8.944-1.472.288-.656.32-1.168h-.016a.84.84 0 0 1-.624-.24.84.84 0 0 1-.24-.624q0-.384.24-.624t.624-.24.624.272q.256.257.256.768m11.014-1.76h.416V177h-5.904v-.4l4.288-7.008h-2.4q-.528 0-.656.08-.112.064-.208.336l-.432 1.36h-.416v-2.288h5.568v.4l-4.256 7.008h2.704q.544 0 .656-.064.128-.064.208-.352zm4.783 2.384h.336v1.584h-3.472v-.432q0-.592.16-.944t.464-.608q.32-.256.752-.512.416-.24.768-.544.352-.32.352-.96 0-1.152-.784-1.152-.928 0-.784 1.44l-.944-.128a1.37 1.37 0 0 1 .32-1.168q.432-.512 1.408-.512t1.376.464q.416.464.416 1.072 0 .607-.32.96a2.5 2.5 0 0 1-.784.544q-.464.192-.896.416-.912.464-1.008 1.36h2.08q.272 0 .336-.032.08-.032.096-.176zm5.265-5.168v.592a7.95 7.95 0 0 1-.896 3.712q-.88 1.712-2.656 3.216l-.368-.384q1.375-1.296 1.936-2.992.56-1.712.56-3.552v-.592q0-1.856-.56-3.552t-1.936-2.992l.368-.384q1.776 1.504 2.656 3.216a7.9 7.9 0 0 1 .896 3.712M155.768 20.552v-.432h4.448q1.567 0 2.4.752.848.736.848 1.968v.496q0 .975-.544 1.664-.528.672-1.52.928l2.048 3.776q.208.384.304.544.096.144.176.192.096.032.256.048l.72.096V31h-2.416l-2.528-4.928h-1.568v3.632q0 .56.048.656t.304.128l.88.096V31h-3.856v-.416l.88-.096q.256-.032.304-.128t.048-.656v-8.288q0-.56-.048-.656t-.304-.128zm4.448.08h-1.824v4.928h1.824q.833 0 1.296-.528.48-.544.48-1.632v-.624q0-1.088-.48-1.616-.464-.528-1.296-.528m9.545 5.888v-.592q0-2 .88-3.712.896-1.712 2.672-3.216l.368.384q-1.376 1.296-1.952 2.992a11.3 11.3 0 0 0-.56 3.552v.592q0 1.84.56 3.552.576 1.695 1.952 2.992l-.368.384q-1.776-1.505-2.672-3.216a8.06 8.06 0 0 1-.88-3.712m7.423 4.064V31h-3.04v-.416l.816-.096a1 1 0 0 0 .256-.048.7.7 0 0 0 .208-.176q.112-.143.32-.464l1.84-2.656-1.776-2.864a3.4 3.4 0 0 0-.304-.448q-.096-.144-.192-.176a.6.6 0 0 0-.24-.064l-.832-.08v-.432H178v.432l-.816.08q-.256.032-.256.128 0 .08.304.56l1.232 1.984 1.36-1.984q.32-.464.304-.56 0-.096-.24-.128l-.816-.08v-.432h3.04v.432l-.816.08a.7.7 0 0 0-.256.064.5.5 0 0 0-.208.176 19 19 0 0 0-.32.448l-1.728 2.496 1.872 3.024q.192.32.288.464a1 1 0 0 0 .192.176q.096.032.256.048l.832.096V31h-3.76v-.416l.816-.096q.256-.032.256-.112t-.304-.576l-1.328-2.144-1.472 2.144q-.32.48-.32.576.016.08.256.112zm7.047-.528h-.288v-.336h.288q.608 0 .848-.32.256-.336.256-.848 0-1.056-.8-1.056-.944 0-.8 1.44l-.944-.128a1.33 1.33 0 0 1 .304-1.136q.432-.512 1.44-.512.977 0 1.392.416.416.416.416.976 0 1.024-1.088 1.328 1.184.32 1.184 1.44 0 .576-.448 1.008t-1.44.432q-.608 0-1.088-.256-.48-.24-.672-.912l.528-.16q.08.576.416.784.352.208.736.208.944 0 .944-1.104 0-.56-.272-.912-.256-.352-.912-.352m5.744.416q0 .72-.48 1.68-.464.96-1.296 1.936l-.352-.288q.657-.8.944-1.472.288-.656.32-1.168h-.016a.84.84 0 0 1-.624-.24.84.84 0 0 1-.24-.624q0-.384.24-.624t.624-.24.624.272q.256.256.256.768m9.286 1.328q-.351.976-.768 1.584-.416.624-.992.896-.576.288-1.44.288v-1.28q1.153 0 1.744-.368.593-.352.944-1.328l.208-.592h-.464l-2.352-6.72q-.159-.464-.24-.544-.08-.096-.336-.128l-.816-.096v-.432h3.648v.432l-.816.096q-.223.015-.256.112-.031.096.128.56l1.92 5.536 1.936-5.552q.145-.464.112-.544-.016-.08-.256-.112l-.832-.096v-.432h2.928v.432l-.816.096q-.24.032-.32.112t-.24.544zm5.829-1.744h-.288v-.336h.288q.608 0 .848-.32.256-.336.256-.848 0-1.056-.8-1.056-.944 0-.8 1.44l-.944-.128a1.34 1.34 0 0 1 .304-1.136q.432-.512 1.44-.512.976 0 1.392.416t.416.976q0 1.024-1.088 1.328 1.184.32 1.184 1.44 0 .576-.448 1.008-.447.432-1.44.432-.608 0-1.088-.256-.48-.24-.672-.912l.528-.16q.08.576.416.784.352.208.736.208.944 0 .944-1.104 0-.56-.272-.912-.255-.352-.912-.352m5.745.416q0 .72-.48 1.68-.465.96-1.296 1.936l-.352-.288q.656-.8.944-1.472.287-.656.32-1.168h-.016a.84.84 0 0 1-.624-.24.84.84 0 0 1-.24-.624q0-.384.24-.624t.624-.24.624.272q.255.256.256.768m11.014-1.76h.416V31h-5.904v-.4l4.288-7.008h-2.4q-.528 0-.656.08-.112.065-.208.336l-.432 1.36h-.416V23.08h5.568v.4l-4.256 7.008h2.704q.543 0 .656-.064.127-.064.208-.352zm3.023 1.344h-.288v-.336h.288q.608 0 .848-.32.255-.336.256-.848 0-1.056-.8-1.056-.945 0-.8 1.44l-.944-.128a1.33 1.33 0 0 1 .304-1.136q.432-.512 1.44-.512.975 0 1.392.416t.416.976q0 1.024-1.088 1.328 1.184.32 1.184 1.44 0 .576-.448 1.008-.449.432-1.44.432-.609 0-1.088-.256-.48-.24-.672-.912l.528-.16q.08.576.416.784.352.208.736.208.944 0 .944-1.104 0-.56-.272-.912-.256-.352-.912-.352m7.04-4.128v.592a7.95 7.95 0 0 1-.896 3.712q-.88 1.712-2.656 3.216l-.368-.384q1.376-1.296 1.936-2.992.56-1.712.56-3.552v-.592q0-1.855-.56-3.552-.56-1.695-1.936-2.992l.368-.384q1.776 1.505 2.656 3.216a7.9 7.9 0 0 1 .896 3.712"/><path fill="#3bf8ff" d="M189.68 116.2q-2.54 0-3.88-1.7-1.32-1.7-1.32-4.56v-1.5q0-1.88.56-3.28.58-1.4 1.7-2.18t2.74-.78q1.5 0 2.48.6.98.58 1.42 1.54.44.94.28 2.06l-1.72.42q.22-1.92-.44-2.94-.66-1.04-2.02-1.04-1.52 0-2.32 1.08-.78 1.08-.78 3.52v3.5q0 2.46.84 3.54t2.5 1.08q.66 0 1.26-.22.6-.24 1.02-.8t.52-1.56l1.24.32q-.44 1.6-1.56 2.26-1.1.64-2.52.64"/><circle cx="172" cy="104" r="4" fill="#3bf8ff"/></svg>