<svg xmlns="http://www.w3.org/2000/svg" width="300" height="200" fill="none" viewBox="0 0 300 200"><path fill="#000" d="M0 0h300v200H0z"/><path fill="#fff" d="M57.667 100a5.333 5.333 0 1 0 10.666 0 5.333 5.333 0 0 0-10.666 0m102 0a5.33 5.33 0 0 0 5.333 5.333 5.333 5.333 0 1 0-5.333-5.333M63 100v1h102v-2H63z"/><path fill="#f6f31f" d="M31.96 112.94v-.54h5.68q1.98 0 3.02 1 1.04.98 1.04 2.62v.58q0 1.64-1.04 2.64t-3.02 1h-2.4v4.14q0 .7.06.84.06.12.38.14l1.5.12v.52h-5.22v-.52l1.1-.12q.32-.04.38-.16t.06-.82v-10.36q0-.7-.06-.82t-.38-.16zm5.68.1h-2.4v6.56h2.4q2.22 0 2.22-2.72v-1.14q0-2.7-2.22-2.7m10.796 7.36v-.74q0-2.5 1.1-4.64 1.12-2.14 3.34-4.02l.46.48q-1.72 1.62-2.44 3.74a14 14 0 0 0-.7 4.44v.74q0 2.3.7 4.44.72 2.12 2.44 3.74l-.46.48q-2.22-1.88-3.34-4.02a10.1 10.1 0 0 1-1.1-4.64m9.278 5.08v.52h-3.8v-.52l1.02-.12q.22-.02.32-.06a.9.9 0 0 0 .26-.22q.14-.18.4-.58l2.3-3.32-2.22-3.58a4 4 0 0 0-.38-.56q-.12-.18-.24-.22a.7.7 0 0 0-.3-.08l-1.04-.1v-.54h4.7v.54l-1.02.1q-.32.04-.32.16 0 .1.38.7l1.54 2.48 1.7-2.48q.4-.58.38-.7 0-.12-.3-.16l-1.02-.1v-.54h3.8v.54l-1.02.1a.9.9 0 0 0-.32.08q-.12.04-.26.22-.12.16-.4.56l-2.16 3.12 2.34 3.78q.24.4.36.58.141.16.24.22.12.04.32.06l1.04.12v.52h-4.7v-.52l1.02-.12q.32-.04.32-.14t-.38-.72l-1.66-2.68-1.84 2.68q-.4.6-.4.72.02.1.32.14zm7.07-3.36 1.32-.82h1v5.86q0 .34.04.4.039.06.18.08l.56.06v.4h-2.92v-.4l.76-.06q.159-.02.18-.08.04-.06.04-.4v-5.22l-.92.58zm7.415 3.22q0 .9-.6 2.1-.579 1.2-1.62 2.42l-.44-.36q.82-1 1.18-1.84.36-.82.4-1.46h-.02q-.48 0-.78-.3t-.3-.78.3-.78.78-.3.78.34q.32.32.32.96M83.808 127q-.44 1.22-.96 1.98-.52.78-1.24 1.12-.72.36-1.8.36v-1.6q1.44 0 2.18-.46.74-.44 1.18-1.66l.26-.74h-.58l-2.94-8.4q-.2-.58-.3-.68-.1-.12-.42-.16l-1.02-.12v-.54h4.56v.54l-1.02.12q-.28.02-.32.14t.16.7l2.4 6.92 2.42-6.94q.18-.58.14-.68-.02-.1-.32-.14l-1.04-.12v-.54h3.66v.54l-1.02.12q-.3.04-.4.14t-.3.68zm5.546-4.88 1.32-.82h1v5.86q0 .34.04.4t.18.08l.56.06v.4h-2.92v-.4l.76-.06q.16-.02.18-.08.04-.06.04-.4v-5.22l-.92.58zm7.417 3.22q0 .9-.6 2.1-.58 1.2-1.62 2.42l-.44-.36q.82-1 1.18-1.84.36-.82.4-1.46h-.02q-.48 0-.78-.3t-.3-.78.3-.78.78-.3.78.34q.32.32.32.96m13.767-2.2h.52V126h-7.38v-.5l5.36-8.76h-3q-.66 0-.82.1-.14.08-.26.42l-.54 1.7h-.52v-2.86h6.96v.5l-5.32 8.76h3.38q.68 0 .82-.08.16-.08.26-.44zm2.039-1.02 1.32-.82h1v5.86q0 .34.04.4t.18.08l.56.06v.4h-2.92v-.4l.76-.06q.16-.02.18-.08.04-.06.04-.4v-5.22l-.92.58zm9.037-2.46v.74q0 2.48-1.12 4.64-1.1 2.14-3.32 4.02l-.46-.48q1.72-1.62 2.42-3.74.7-2.14.7-4.44v-.74q0-2.32-.7-4.44t-2.42-3.74l.46-.48q2.22 1.88 3.32 4.02 1.12 2.14 1.12 4.64"/><path fill="#3bf8ff" d="M279.84 74.44v1.5q0 2.92-1.34 4.6-1.34 1.66-3.84 1.66-2.52 0-3.86-1.66-1.32-1.68-1.32-4.6v-1.5q0-2.9 1.32-4.56 1.34-1.68 3.86-1.68 2.5 0 3.84 1.68 1.34 1.66 1.34 4.56m-1.9-1q0-2.5-.84-3.54-.82-1.06-2.44-1.06t-2.46 1.06q-.82 1.04-.82 3.54v3.5q0 2.5.82 3.56.84 1.06 2.46 1.06t2.44-1.06q.84-1.06.84-3.56zM161.68 54.48V55h-4.72v-.52l1.1-.12q.32-.04.38-.16t.06-.82V48.4q0-1.48-.46-2.08-.44-.62-1.3-.62-.62 0-1.4.4-.76.4-1.46 1.54v5.74q0 .7.06.82t.38.16l1.1.12V55h-4.72v-.52l1.1-.12q.32-.04.38-.16t.06-.82v-6.66q0-.7-.06-.82t-.38-.16l-1.1-.1v-.54h3.08v1.62q.7-.94 1.58-1.38.9-.44 1.78-.44 2.16 0 2.78 1.98.74-1.04 1.64-1.5.92-.48 1.84-.48 1.42 0 2.2.92.8.9.8 2.56v5q0 .7.06.82t.38.16l1.1.12V55h-4.72v-.52l1.1-.12q.32-.04.38-.16t.06-.82V48.4q0-1.48-.46-2.08-.44-.62-1.3-.62-.62 0-1.42.42-.78.4-1.48 1.58.02.16.02.34.02.16.02.34v5q0 .7.06.82t.38.16zM224.88 81.48V82h-4.72v-.52l1.1-.12q.32-.04.38-.16t.06-.82V75.4q0-1.48-.48-2.08-.48-.62-1.38-.62-.66 0-1.46.4t-1.5 1.56v5.72q0 .7.06.82t.38.16l1.1.12V82h-4.72v-.52l1.1-.12q.32-.04.38-.16t.06-.82v-6.66q0-.7-.06-.82t-.38-.16l-1.1-.1v-.54h3.08v1.62q.72-.96 1.62-1.38a4.2 4.2 0 0 1 1.84-.44q1.48 0 2.28.92.82.9.82 2.56v5q0 .7.06.82t.38.16z"/><path fill="#f6f31f" d="m169.26 127.96.28 1.78q-1.56 0-2.78-.78-1.22-.76-1.96-2.76h-.12q-2.54 0-3.88-1.66-1.32-1.68-1.32-4.6v-1.5q0-2.9 1.32-4.56 1.34-1.68 3.88-1.68 2.5 0 3.84 1.68 1.36 1.66 1.36 4.56v1.5q0 2.66-1.14 4.3-1.12 1.62-3.22 1.9.46 1.06 1.34 1.44t2.4.38m-1.28-10.52q0-2.5-.84-3.54-.84-1.06-2.46-1.06-1.64 0-2.48 1.06-.82 1.04-.82 3.54v3.5q0 2.5.82 3.56.84 1.06 2.48 1.06 1.62 0 2.46-1.06t.84-3.56zm9.331 2.96v-.74q0-2.5 1.1-4.64 1.12-2.14 3.34-4.02l.46.48q-1.72 1.62-2.44 3.74a14 14 0 0 0-.7 4.44v.74q0 2.3.7 4.44.72 2.12 2.44 3.74l-.46.48q-2.22-1.88-3.34-4.02a10.1 10.1 0 0 1-1.1-4.64m9.278 5.08v.52h-3.8v-.52l1.02-.12q.22-.02.32-.06a.9.9 0 0 0 .26-.22q.14-.18.4-.58l2.3-3.32-2.22-3.58a4 4 0 0 0-.38-.56q-.12-.18-.24-.22a.7.7 0 0 0-.3-.08l-1.04-.1v-.54h4.7v.54l-1.02.1q-.32.04-.32.16 0 .1.38.7l1.54 2.48 1.7-2.48q.4-.58.38-.7 0-.12-.3-.16l-1.02-.1v-.54h3.8v.54l-1.02.1a.9.9 0 0 0-.32.08q-.12.04-.26.22-.12.16-.4.56l-2.16 3.12 2.34 3.78q.24.4.36.58.141.16.24.22.12.04.32.06l1.04.12v.52h-4.7v-.52l1.02-.12q.32-.04.32-.14t-.38-.72l-1.66-2.68-1.84 2.68q-.4.6-.4.72.02.1.32.14zm11.009.64h.42v1.98h-4.34v-.54q0-.74.2-1.18t.58-.76q.4-.32.94-.64.52-.3.96-.68.44-.4.44-1.2 0-1.44-.98-1.44-1.16 0-.98 1.8l-1.18-.16a1.72 1.72 0 0 1 .4-1.46q.54-.64 1.76-.64t1.72.58q.52.58.52 1.34t-.4 1.2q-.4.42-.98.68-.58.24-1.12.52-1.14.58-1.26 1.7h2.6q.34 0 .42-.04.1-.04.12-.22zm4.961-.78q0 .9-.6 2.1-.58 1.2-1.62 2.42l-.44-.36q.82-1 1.18-1.84.36-.82.4-1.46h-.02q-.48 0-.78-.3t-.3-.78.3-.78.78-.3.78.34q.32.32.32.96m11.607 1.66q-.44 1.22-.96 1.98-.52.78-1.24 1.12-.72.36-1.8.36v-1.6q1.44 0 2.18-.46.74-.44 1.18-1.66l.26-.74h-.58l-2.94-8.4q-.2-.58-.3-.68-.099-.12-.42-.16l-1.02-.12v-.54h4.56v.54l-1.02.12q-.28.02-.32.14t.16.7l2.4 6.92 2.42-6.94q.18-.58.14-.68-.02-.1-.32-.14l-1.04-.12v-.54h3.66v.54l-1.02.12q-.3.04-.4.14-.099.1-.3.68zm9.487-.88h.42v1.98h-4.34v-.54q0-.74.2-1.18t.58-.76q.4-.32.94-.64.519-.3.96-.68.44-.4.44-1.2 0-1.44-.98-1.44-1.16 0-.98 1.8l-1.18-.16a1.72 1.72 0 0 1 .4-1.46q.54-.64 1.76-.64t1.72.58q.52.58.52 1.34t-.4 1.2q-.4.42-.98.68-.58.24-1.12.52-1.14.58-1.26 1.7h2.6q.339 0 .42-.04.099-.04.12-.22zm4.961-.78q0 .9-.6 2.1-.58 1.2-1.62 2.42l-.44-.36q.82-1 1.18-1.84.36-.82.4-1.46h-.02q-.48 0-.78-.3t-.3-.78.3-.78.78-.3.78.34q.32.32.32.96m13.767-2.2h.52V126h-7.38v-.5l5.36-8.76h-3q-.66 0-.82.1-.14.08-.26.42l-.54 1.7h-.52v-2.86h6.96v.5l-5.32 8.76h3.38q.68 0 .82-.08.16-.08.26-.44zm5.979 2.98h.42v1.98h-4.34v-.54q0-.74.2-1.18t.58-.76q.4-.32.94-.64.52-.3.96-.68.44-.4.44-1.2 0-1.44-.98-1.44-1.16 0-.98 1.8l-1.18-.16a1.72 1.72 0 0 1 .4-1.46q.54-.64 1.76-.64t1.72.58q.52.58.52 1.34t-.4 1.2q-.4.42-.98.68-.58.24-1.12.52-1.14.58-1.26 1.7h2.6q.34 0 .42-.04.1-.04.12-.22zm6.581-6.46v.74q0 2.48-1.12 4.64-1.1 2.14-3.32 4.02l-.46-.48q1.72-1.62 2.42-3.74.7-2.14.7-4.44v-.74q0-2.32-.7-4.44t-2.42-3.74l.46-.48q2.22 1.88 3.32 4.02 1.12 2.14 1.12 4.64"/><circle cx="275" cy="99" r="4" fill="#3bf8ff"/><path fill="#3bf8ff" d="m176 89 5 2.887v-5.774zm92 0-5-2.887v5.774zm-87.5 0v.5h83v-1h-83zM63 62l5 2.887v-5.774zm205 0-5-2.887v5.774zM67.5 62v.5h196v-1h-196z"/></svg>