<svg xmlns="http://www.w3.org/2000/svg" width="300" height="200" fill="none" viewBox="0 0 300 200"><path fill="#000" d="M0 0h300v200H0z"/><path stroke="#fff" stroke-width="2" d="m82.187 185.418 48-67"/><path fill="#f6f31f" fill-opacity=".51" stroke="#f6f31f" d="M293.219 102.539 81.82 164.461l-71.445-39.976 200.656-45.97z"/><path stroke="#fff" stroke-width="2" d="m129.965 118.985 67.444-94.135"/><path fill="#fff" d="M202.42 47.74v-.54h3.18v6.34q.58-.86 1.32-1.24a3.3 3.3 0 0 1 1.6-.4q1.72 0 2.66 1.3.96 1.3.96 3.64v.4q0 2.28-1.1 3.62-1.08 1.34-3.04 1.34-1.56 0-2.56-1.02-.28.16-.52.4t-.48.52h-.48V48.82q0-.7-.06-.82t-.38-.16zm5.84 4.88q-.62 0-1.3.4-.66.4-1.36 1.62v5.72q.86 1.18 2.28 1.18 1.3 0 1.88-.98.58-1 .58-2.72v-1.6q0-1.88-.54-2.74-.54-.88-1.54-.88"/><path fill="#f6f31f" d="M94.88 53.48V54h-4.72v-.52l1.1-.12q.32-.04.38-.16t.06-.82V47.4q0-1.48-.48-2.08-.48-.62-1.38-.62-.66 0-1.46.4t-1.5 1.56v5.72q0 .7.06.82t.38.16l1.1.12V54H83.7v-.52l1.1-.12q.32-.04.38-.16t.06-.82v-6.66q0-.7-.06-.82t-.38-.16l-1.1-.1v-.54h3.08v1.62q.72-.96 1.62-1.38a4.2 4.2 0 0 1 1.84-.44q1.48 0 2.28.92.82.9.82 2.56v5q0 .7.06.82t.38.16z"/><path fill="#fff" d="m214 24-10.619 4.536 9.238 6.928zm-33 44 .8.6 27.6-36.8-.8-.6-.8-.6-27.6 36.8z"/><path fill="#f6f31f" d="m102 52-1.388 11.463 10.622-4.53zm29 68 .92-.392-25.47-59.722-.919.393-.92.392 25.469 59.721z"/><path fill="#f6f31f" d="M221.258 95.966a1 1 0 1 0-.516-1.932L221 95zM131 119l.258.966 90-24L221 95l-.258-.966-90 24z"/><path fill="#fff" d="m148 96.5 5.309 2.269-.69-5.732zm13 15 4.243-3.916-5.513-1.716zm-8.532-15.537-.167.47c1.351.48 3.118 1.491 5.372 3.445L158 99.5l.327-.378c-2.314-2.005-4.187-3.098-5.692-3.63zM158 99.5l-.327.378c3.258 2.824 4.133 5.397 4.165 7.333l.5-.008.5-.008c-.037-2.269-1.077-5.097-4.511-8.073zM170.92 100.2q-1.64 0-2.72-.92-1.06-.94-1.58-2.66-.52-1.74-.52-4.16 0-2.44.48-4.18t1.54-2.66q1.08-.92 2.8-.92 1.66 0 2.74.92 1.08.9 1.6 2.64.54 1.74.54 4.2 0 2.42-.5 4.16-.48 1.72-1.56 2.66-1.06.92-2.82.92m0-1.46q1.04 0 1.7-.6.68-.6 1.02-1.88t.38-3.34h-6.14q.04 2.04.34 3.32.32 1.28.98 1.9.66.6 1.72.6m-3.04-7.18H174q-.06-1.82-.4-3-.34-1.2-1-1.78-.66-.6-1.68-.6t-1.68.6q-.64.58-.96 1.78-.32 1.18-.4 3"/></svg>