<svg xmlns="http://www.w3.org/2000/svg" width="300" height="200" fill="none" viewBox="0 0 300 200"><path fill="#000" d="M0 0h300v200H0z"/><path fill="#fff" d="m262 119-10-5.774v11.548zm-124 0v1h115v-2H138z"/><path fill="#fff" d="m73 184 11.154-2.989-8.165-8.165zm65-65-.707-.707-58.636 58.636.707.707.707.707 58.636-58.636z"/><path fill="#fff" d="m138 9-5.774 10h11.547zm0 110h1V18h-2v101zM259.76 150.48v.52h-3.72v-.52l1.02-.12q.2-.02.3-.06.12-.04.24-.22.14-.18.38-.58l3.18-5.16-3.08-5.44a5 5 0 0 0-.34-.56q-.1-.18-.22-.22a.7.7 0 0 0-.3-.08l-1.02-.1v-.54h4.86v.54l-1.04.1q-.3.04-.32.16 0 .12.32.7l2.34 4.14 2.56-4.14q.36-.58.36-.7t-.32-.16l-1.02-.1v-.54h3.72v.54l-1.02.1a.9.9 0 0 0-.32.08q-.1.04-.22.22-.12.16-.38.56l-2.98 4.82 3.28 5.78.32.58q.12.16.22.22.12.04.32.06l1.04.12v.52h-4.86v-.52l1.04-.12q.32-.04.32-.14.02-.12-.32-.72l-2.56-4.5-2.76 4.5q-.36.58-.36.7t.32.16zM158.3 24.48V25h-4.82v-.52l1.1-.12q.32-.04.38-.16t.06-.82V19.2l-3.22-6.3a4 4 0 0 0-.32-.56q-.1-.18-.22-.22a.8.8 0 0 0-.32-.08l-1.02-.1v-.54h4.84v.54l-1.02.1q-.3.04-.32.16 0 .12.28.7l2.72 5.46 2.78-5.46q.3-.58.28-.7t-.32-.16l-1.02-.1v-.54h3.7v.54l-1.04.1a1 1 0 0 0-.32.08q-.1.04-.22.22a7 7 0 0 0-.3.56l-3.2 6.26v4.22q0 .7.06.82t.38.16zM60.3 180.74h.52V184h-9.04v-.44l6.86-12.52h-4.42q-.7 0-.84.1-.14.08-.24.42l-.58 2.1h-.52v-3.26h8.58v.44l-6.84 12.52h4.86q.48 0 .68-.02.2-.04.26-.14.08-.12.14-.36z"/><path fill="#ff626a" d="M88.94 122.14q-1.56 0-1.84-1.44-.7.8-1.54 1.16-.84.34-1.66.34-1.4 0-2.06-.78t-.66-1.88q0-1.18.8-1.86.82-.7 2.82-.7h2.26v-1.62q0-1.6-.56-2.2-.54-.62-1.48-.62-.6 0-1.08.24t-.7.88q-.2.62-.04 1.82l-1.58-.24q-.1-.94.24-1.68.36-.76 1.16-1.2.82-.46 2.04-.46 1.46 0 2.24.5.78.48 1.08 1.26.32.78.32 1.7v4.5q0 1.02.22 1.28.24.26.52.26.18 0 .38-.08.2-.1.44-.3l.36.5q-.3.26-.72.44-.4.18-.96.18m-4.48-.78q.56 0 1.2-.3.66-.32 1.4-1.26v-2.18h-2.04q-1.12 0-1.64.46-.5.44-.5 1.38 0 .9.38 1.4.4.5 1.2.5"/><path fill="#3bf8ff" d="M185.42 89.74v-.54h3.18v6.34q.58-.86 1.32-1.24a3.3 3.3 0 0 1 1.6-.4q1.72 0 2.66 1.3.96 1.3.96 3.64v.4q0 2.28-1.1 3.62-1.08 1.34-3.04 1.34-1.56 0-2.56-1.02-.28.16-.52.4t-.48.52h-.48V90.82q0-.7-.06-.82t-.38-.16zm5.84 4.88q-.62 0-1.3.4-.66.4-1.36 1.62v5.72q.86 1.18 2.28 1.18 1.3 0 1.88-.98.58-1 .58-2.72v-1.6q0-1.88-.54-2.74-.54-.88-1.54-.88M193 65l-11.154 2.989 8.165 8.165zm-54 54 .707.707 47.636-47.636-.707-.707-.707-.707-47.636 47.636z"/><path fill="#ff626a" d="m57 84 6.93 9.236 4.534-10.62zm82 35 .393-.92L65.67 86.613l-.392.92-.393.92 73.722 31.467z"/><path stroke="#f6f31f" stroke-width="2" d="m16.857 91.01 276-40"/></svg>