<svg xmlns="http://www.w3.org/2000/svg" width="300" height="200" fill="none" viewBox="0 0 300 200"><path fill="#000" d="M0 0h300v200H0z"/><path fill="#fff" d="m262 119-10-5.774v11.548zm-124 0v1h115v-2H138z"/><path fill="#fff" d="m73 184 11.154-2.989-8.165-8.165zm65-65-.707-.707-58.636 58.636.707.707.707.707 58.636-58.636z"/><path fill="#fff" d="m138 9-5.774 10h11.547zm0 110h1V18h-2v101zM259.76 150.48v.52h-3.72v-.52l1.02-.12q.2-.02.3-.06.12-.04.24-.22.14-.18.38-.58l3.18-5.16-3.08-5.44a5 5 0 0 0-.34-.56q-.1-.18-.22-.22a.7.7 0 0 0-.3-.08l-1.02-.1v-.54h4.86v.54l-1.04.1q-.3.04-.32.16 0 .12.32.7l2.34 4.14 2.56-4.14q.36-.58.36-.7t-.32-.16l-1.02-.1v-.54h3.72v.54l-1.02.1a.9.9 0 0 0-.32.08q-.1.04-.22.22-.12.16-.38.56l-2.98 4.82 3.28 5.78.32.58q.12.16.22.22.12.04.32.06l1.04.12v.52h-4.86v-.52l1.04-.12q.32-.04.32-.14.02-.12-.32-.72l-2.56-4.5-2.76 4.5q-.36.58-.36.7t.32.16zM158.3 24.48V25h-4.82v-.52l1.1-.12q.32-.04.38-.16t.06-.82V19.2l-3.22-6.3a4 4 0 0 0-.32-.56q-.1-.18-.22-.22a.8.8 0 0 0-.32-.08l-1.02-.1v-.54h4.84v.54l-1.02.1q-.3.04-.32.16 0 .12.28.7l2.72 5.46 2.78-5.46q.3-.58.28-.7t-.32-.16l-1.02-.1v-.54h3.7v.54l-1.04.1a1 1 0 0 0-.32.08q-.1.04-.22.22a7 7 0 0 0-.3.56l-3.2 6.26v4.22q0 .7.06.82t.38.16zM60.3 180.74h.52V184h-9.04v-.44l6.86-12.52h-4.42q-.7 0-.84.1-.14.08-.24.42l-.58 2.1h-.52v-3.26h8.58v.44l-6.84 12.52h4.86q.48 0 .68-.02.2-.04.26-.14.08-.12.14-.36z"/><path fill="#3bf8ff" d="M75.53 111.777a5.333 5.333 0 1 0 9.476-4.898 5.333 5.333 0 0 0-9.475 4.898m154.571-79.898a5.334 5.334 0 1 0 9.476-4.9 5.334 5.334 0 0 0-9.476 4.9M80.268 109.328l.46.889 154.57-79.9-.459-.887-.459-.889L79.81 108.44z"/><path fill="#f6f31f" d="M28.768 117.552v-.432h4.544q1.584 0 2.416.8.832.784.832 2.096v.464q0 1.313-.832 2.112t-2.416.8h-1.92v3.312q0 .56.048.672.048.096.304.112l1.2.096V128h-4.176v-.416l.88-.096q.256-.032.304-.128t.048-.656v-8.288q0-.56-.048-.656t-.304-.128zm4.544.08h-1.92v5.248h1.92q1.776 0 1.776-2.176v-.912q0-2.16-1.776-2.16m8.637 5.888v-.592a8 8 0 0 1 .88-3.712q.895-1.712 2.672-3.216l.367.384q-1.376 1.296-1.952 2.992a11.3 11.3 0 0 0-.56 3.552v.592q0 1.84.56 3.552.577 1.696 1.953 2.992l-.368.384q-1.776-1.504-2.672-3.216a8.06 8.06 0 0 1-.88-3.712m7.422 4.064V128h-3.04v-.416l.816-.096q.176-.016.257-.048a.7.7 0 0 0 .207-.176 8 8 0 0 0 .32-.464l1.84-2.656-1.776-2.864a3.4 3.4 0 0 0-.303-.448q-.097-.144-.193-.176a.6.6 0 0 0-.24-.064l-.831-.08v-.432h3.76v.432l-.817.08q-.256.032-.256.128 0 .08.304.56l1.233 1.984 1.36-1.984q.32-.464.303-.56 0-.096-.24-.128l-.816-.08v-.432h3.04v.432l-.816.08a.8.8 0 0 0-.255.064.5.5 0 0 0-.209.176q-.095.128-.32.448l-1.727 2.496 1.871 3.024q.192.32.288.464a1 1 0 0 0 .193.176q.096.032.256.048l.831.096V128h-3.76v-.416l.816-.096q.257-.032.257-.112t-.304-.576l-1.328-2.144-1.472 2.144q-.32.48-.32.576.015.08.256.112zm5.655-2.688 1.056-.656h.8v4.688q0 .272.032.32.033.048.145.064l.448.048v.32H55.17v-.32l.608-.048q.129-.016.145-.064.031-.048.032-.32v-4.176l-.736.464zm5.934 2.576q0 .72-.48 1.68-.465.96-1.296 1.936l-.352-.288q.656-.8.944-1.472.288-.656.32-1.168h-.016a.84.84 0 0 1-.624-.24.84.84 0 0 1-.24-.624q0-.384.24-.624t.624-.24.624.272q.256.257.256.768m9.286 1.328q-.352.976-.768 1.584-.416.624-.992.896-.576.288-1.44.288v-1.28q1.152 0 1.744-.368.591-.352.944-1.328l.208-.592h-.464l-2.352-6.72q-.16-.464-.24-.544-.081-.096-.336-.128l-.816-.096v-.432h3.648v.432l-.816.096q-.225.016-.256.112-.033.096.128.56l1.92 5.536 1.936-5.552q.144-.464.112-.544-.016-.08-.256-.112l-.832-.096v-.432h2.928v.432l-.816.096q-.24.032-.32.112t-.24.544zm4.437-3.904 1.056-.656h.8v4.688q0 .272.032.32t.144.064l.448.048v.32h-2.336v-.32l.608-.048q.127-.016.144-.064.032-.048.032-.32v-4.176l-.736.464zm5.933 2.576q0 .72-.48 1.68-.465.96-1.296 1.936l-.352-.288q.656-.8.944-1.472.288-.656.32-1.168h-.016a.84.84 0 0 1-.624-.24.84.84 0 0 1-.24-.624q0-.384.24-.624t.624-.24.624.272q.255.257.256.768m11.014-1.76h.416V128h-5.904v-.4l4.288-7.008h-2.4q-.528 0-.656.08-.112.065-.208.336l-.432 1.36h-.416v-2.288h5.568v.4l-4.256 7.008h2.704q.543 0 .656-.064.127-.064.208-.352zm1.63-.816 1.057-.656h.8v4.688q0 .272.032.32t.144.064l.448.048v.32h-2.336v-.32l.608-.048q.127-.016.144-.064.032-.048.032-.32v-4.176l-.736.464zm7.23-1.968v.592a7.95 7.95 0 0 1-.896 3.712q-.88 1.711-2.656 3.216l-.368-.384q1.376-1.296 1.936-2.992a11.4 11.4 0 0 0 .56-3.552v-.592q0-1.856-.56-3.552t-1.936-2.992l.368-.384q1.776 1.505 2.656 3.216a7.9 7.9 0 0 1 .896 3.712M217.008 62.568l.224 1.424q-1.248 0-2.224-.624-.976-.607-1.568-2.208h-.096q-2.032 0-3.104-1.328-1.056-1.344-1.056-3.68v-1.2q0-2.32 1.056-3.648 1.072-1.344 3.104-1.344 2 0 3.072 1.344 1.088 1.328 1.088 3.648v1.2q0 2.128-.912 3.44-.896 1.296-2.576 1.52.368.848 1.072 1.152.703.304 1.92.304m-1.024-8.416q0-2-.672-2.832-.672-.848-1.968-.848-1.312 0-1.984.848-.656.833-.656 2.832v2.8q0 2 .656 2.848.672.848 1.984.848 1.296 0 1.968-.848t.672-2.848zm7.465 2.368v-.592q0-2 .88-3.712.896-1.711 2.672-3.216l.368.384q-1.377 1.296-1.952 2.992a11.2 11.2 0 0 0-.56 3.552v.592q0 1.84.56 3.552.575 1.696 1.952 2.992l-.368.384q-1.776-1.505-2.672-3.216a8.06 8.06 0 0 1-.88-3.712m7.423 4.064V61h-3.04v-.416l.816-.096a1 1 0 0 0 .256-.048.7.7 0 0 0 .208-.176 8 8 0 0 0 .32-.464l1.84-2.656-1.776-2.864a3.5 3.5 0 0 0-.304-.448q-.096-.144-.192-.176a.6.6 0 0 0-.24-.064l-.832-.08v-.432h3.76v.432l-.816.08q-.256.032-.256.128 0 .08.304.56l1.232 1.984 1.36-1.984q.32-.465.304-.56 0-.096-.24-.128l-.816-.08v-.432h3.04v.432l-.816.08a.7.7 0 0 0-.256.064.5.5 0 0 0-.208.176 19 19 0 0 0-.32.448l-1.728 2.496 1.872 3.024q.192.32.288.464a.9.9 0 0 0 .192.176q.096.031.256.048l.831.096V61h-3.759v-.416l.816-.096q.256-.032.256-.112t-.304-.576l-1.328-2.144-1.472 2.144q-.321.48-.321.576.017.08.257.112zm8.807.512h.336v1.584h-3.472v-.432q0-.593.16-.944.16-.352.464-.608.32-.255.752-.512.415-.24.768-.544.352-.32.352-.96 0-1.152-.784-1.152-.928 0-.784 1.44l-.944-.128a1.37 1.37 0 0 1 .32-1.168q.432-.512 1.408-.512.975 0 1.376.464.416.465.416 1.072 0 .608-.32.96a2.5 2.5 0 0 1-.784.544q-.465.192-.896.416-.912.465-1.008 1.36h2.08q.272 0 .336-.032.08-.032.096-.176zm3.968-.624q0 .72-.48 1.68-.463.96-1.296 1.936l-.352-.288q.656-.8.944-1.472.288-.656.32-1.168h-.016a.84.84 0 0 1-.624-.24.84.84 0 0 1-.24-.624q0-.384.24-.624t.624-.24.624.272q.256.256.256.768m9.286 1.328q-.353.976-.768 1.584-.416.624-.992.896-.576.288-1.44.288v-1.28q1.152 0 1.744-.368.592-.352.944-1.328l.208-.592h-.464l-2.352-6.72q-.16-.464-.24-.544-.08-.096-.336-.128l-.816-.096v-.432h3.648v.432l-.816.096q-.224.015-.256.112-.032.096.128.56l1.92 5.536 1.936-5.552q.144-.464.112-.544-.016-.08-.256-.112l-.832-.096v-.432h2.928v.432l-.816.096q-.24.032-.32.112t-.24.544zm7.589-.704h.336v1.584h-3.472v-.432q0-.593.16-.944.16-.352.464-.608.32-.255.752-.512a5 5 0 0 0 .768-.544q.352-.32.352-.96 0-1.152-.784-1.152-.928 0-.784 1.44l-.944-.128a1.38 1.38 0 0 1 .32-1.168q.432-.512 1.408-.512.977 0 1.376.464.417.465.416 1.072 0 .608-.32.96a2.4 2.4 0 0 1-.784.544q-.464.192-.896.416-.912.465-1.008 1.36h2.08q.273 0 .336-.032.081-.032.096-.176zm3.969-.624q0 .72-.48 1.68-.464.96-1.296 1.936l-.352-.288q.656-.8.944-1.472.288-.656.32-1.168h-.016a.84.84 0 0 1-.624-.24.84.84 0 0 1-.24-.624q0-.384.24-.624t.624-.24.624.272q.256.256.256.768m11.014-1.76h.416V61h-5.904v-.4l4.288-7.008h-2.4q-.528 0-.656.08-.112.064-.208.336l-.432 1.36h-.416V53.08h5.568v.4l-4.256 7.008h2.704q.544 0 .656-.064.128-.064.208-.352zm4.783 2.384h.336v1.584h-3.472v-.432q0-.593.16-.944.16-.352.464-.608.32-.255.752-.512.416-.24.768-.544.352-.32.352-.96 0-1.152-.784-1.152-.928 0-.784 1.44l-.944-.128a1.37 1.37 0 0 1 .32-1.168q.432-.512 1.408-.512t1.376.464q.416.465.416 1.072 0 .608-.32.96a2.5 2.5 0 0 1-.784.544q-.464.192-.896.416-.912.465-1.008 1.36h2.08q.272 0 .336-.032.08-.032.096-.176zm5.265-5.168v.592a7.95 7.95 0 0 1-.896 3.712q-.88 1.712-2.656 3.216l-.368-.384q1.375-1.296 1.936-2.992.56-1.712.56-3.552v-.592q0-1.856-.56-3.552t-1.936-2.992l.368-.384q1.776 1.505 2.656 3.216a7.9 7.9 0 0 1 .896 3.712"/></svg>