<svg xmlns="http://www.w3.org/2000/svg" width="300" height="200" fill="none" viewBox="0 0 300 200"><path fill="#000" d="M0 0h300v200H0z"/><path fill="#fff" d="m262 119-10-5.774v11.548zm-124 0v1h115v-2H138z"/><path fill="#fff" d="m73 184 11.154-2.989-8.165-8.165zm65-65-.707-.707-58.636 58.636.707.707.707.707 58.636-58.636z"/><path fill="#fff" d="m138 9-5.774 10h11.547zm0 110h1V18h-2v101z"/><path fill="#3bf8ff" d="m242 52-11.533.562 6.253 9.707zm-104 67 .542.841 96.434-62.126-.542-.84-.541-.842-96.435 62.126z"/><path fill="#fff" d="M259.76 150.48v.52h-3.72v-.52l1.02-.12q.2-.02.3-.06.12-.04.24-.22.14-.18.38-.58l3.18-5.16-3.08-5.44a5 5 0 0 0-.34-.56q-.1-.18-.22-.22a.7.7 0 0 0-.3-.08l-1.02-.1v-.54h4.86v.54l-1.04.1q-.3.04-.32.16 0 .12.32.7l2.34 4.14 2.56-4.14q.36-.58.36-.7t-.32-.16l-1.02-.1v-.54h3.72v.54l-1.02.1a.9.9 0 0 0-.32.08q-.1.04-.22.22-.12.16-.38.56l-2.98 4.82 3.28 5.78.32.58q.12.16.22.22.12.04.32.06l1.04.12v.52h-4.86v-.52l1.04-.12q.32-.04.32-.14.02-.12-.32-.72l-2.56-4.5-2.76 4.5q-.36.58-.36.7t.32.16zM158.3 24.48V25h-4.82v-.52l1.1-.12q.32-.04.38-.16t.06-.82V19.2l-3.22-6.3a4 4 0 0 0-.32-.56q-.1-.18-.22-.22a.8.8 0 0 0-.32-.08l-1.02-.1v-.54h4.84v.54l-1.02.1q-.3.04-.32.16 0 .12.28.7l2.72 5.46 2.78-5.46q.3-.58.28-.7t-.32-.16l-1.02-.1v-.54h3.7v.54l-1.04.1a1 1 0 0 0-.32.08q-.1.04-.22.22a7 7 0 0 0-.3.56l-3.2 6.26v4.22q0 .7.06.82t.38.16zM60.3 180.74h.52V184h-9.04v-.44l6.86-12.52h-4.42q-.7 0-.84.1-.14.08-.24.42l-.58 2.1h-.52v-3.26h8.58v.44l-6.84 12.52h4.86q.48 0 .68-.02.2-.04.26-.14.08-.12.14-.36z"/><path fill="#ff626a" d="m166 103 3.828 4.322 1.829-5.476zm7 15.5 4.51-3.605-5.377-2.103zm-2.732-14.074-.337.369c.801.733 1.697 1.828 2.636 3.455L173 108l.433-.25c-.979-1.695-1.935-2.877-2.828-3.693zM173 108l-.433.25c1.397 2.419 1.703 4.45 1.574 6.018l.498.041.499.041c.146-1.783-.213-4.015-1.705-6.6z"/><path fill="#62ff94" d="m138.081 99.809 5.556 1.569-1.419-5.596zm14.265 9.261 1.847-5.47-5.661 1.135zm-9.903-10.367-.085.493c1.071.183 2.416.621 4.085 1.483l.23-.445.229-.444c-1.739-.897-3.182-1.375-4.375-1.58zm4.23 1.531-.23.445c2.483 1.281 3.837 2.824 4.576 4.213l.442-.234.441-.235c-.84-1.579-2.348-3.264-5-4.633z"/><path fill="#7988ff" d="m151.137 112.046-2.529 5.19 5.759-.405zm-22.971 16.148 3.906 4.252 1.729-5.509zm23.286-11.659-.481-.137c-.572 2.012-2.173 4.776-6.104 8.169l.327.378.327.379c4.026-3.476 5.77-6.396 6.412-8.652zm-6.258 8.41-.327-.378c-4.949 4.272-9.362 4.834-12.349 4.478l-.059.497-.059.496c3.259.388 7.954-.254 13.121-4.714z"/><path fill="#ff626a" d="M192.46 111.2q-1.28 0-2.26-.62t-1.54-1.84q-.56-1.24-.56-3.06 0-2.72 1.18-4.16 1.2-1.44 3.26-1.44.76 0 1.38.22.62.2 1.1.58.5.36.84.86h.08l.26-1.46h1.4v8.36q0 .62.24.88.24.24.58.24.16 0 .34-.04l.26-.06v1.28q-.1.06-.28.12t-.4.1-.44.04q-.74 0-1.24-.36-.48-.36-.7-1.28h-.14q-.32.48-.8.86-.48.36-1.12.58-.64.2-1.44.2m.36-1.46q1.1 0 1.76-.42.68-.42.98-1.3t.3-2.24v-.12q0-2-.68-3.06-.66-1.06-2.38-1.06-1.46 0-2.18 1.08-.7 1.06-.7 3.08 0 2 .74 3.02t2.16 1.02"/><path fill="#62ff94" d="M147.7 95.8V80.42q0-1.72.6-2.74.62-1.04 1.66-1.5 1.04-.48 2.32-.48 1.36 0 2.3.44.96.44 1.44 1.3.5.84.5 2.08 0 .96-.4 1.66a3.3 3.3 0 0 1-1.02 1.12q-.64.42-1.42.58v.08q1.02.14 1.8.62t1.22 1.32q.46.82.46 2.04 0 1.36-.62 2.32-.6.96-1.66 1.46-1.04.48-2.36.48-.72 0-1.26-.08a4.6 4.6 0 0 1-.94-.24q-.42-.16-.86-.36v5.28zm4.66-6.04q1.4 0 2.22-.76.82-.78.82-2.18 0-1.06-.42-1.74a2.54 2.54 0 0 0-1.08-1.04q-.66-.36-1.42-.36h-1.66v-1.36h1.46q.76 0 1.3-.34.56-.34.84-.96.3-.62.3-1.42 0-1.24-.74-1.84-.72-.6-1.74-.6-.7 0-1.34.28-.64.26-1.04.98t-.4 2.08v8.44q.7.36 1.34.6.64.22 1.56.22"/><path fill="#8291ff" d="M147.86 155.2v-4.06L144 140.28h1.82l1.94 5.78q.16.48.4 1.14t.44 1.3q.22.62.32 1.02h.08q1.14-1.26 1.78-2.64.66-1.4.92-3.02.28-1.64.28-3.58h1.74q0 2.06-.36 3.88-.36 1.8-1.26 3.5-.88 1.68-2.48 3.42v4.12z"/></svg>