<svg xmlns="http://www.w3.org/2000/svg" width="300" height="200" fill="none" viewBox="0 0 300 200"><path fill="#000" d="M0 0h300v200H0z"/><path fill="#f6f31f" fill-opacity=".29" d="M125.5 70.5 224 29l-18.5 88.5L103 163z"/><path stroke="#fff" stroke-width="2" d="m128.927 71.624 28 69"/><path fill="#fff" d="m139.463 66.812-.794 5.719 5.349-2.171zm28 69 .795-5.719-5.35 2.171zm-26.308-64.83-.463.188 24.616 60.66.463-.188.464-.188-24.616-60.66z"/><path stroke="#f6f31f" stroke-width="2" d="m30.593 114.086 209-93M71.594 177.086l208.999-93"/><circle cx="127" cy="71" r="4" fill="#ff626a"/><path fill="#ff626a" d="M114.94 57.14q-1.56 0-1.84-1.44-.7.8-1.54 1.16-.84.34-1.66.34-1.4 0-2.06-.78t-.66-1.88q0-1.18.8-1.86.82-.7 2.82-.7h2.26v-1.62q0-1.6-.56-2.2-.54-.62-1.48-.62-.6 0-1.08.24t-.7.88q-.2.62-.04 1.82l-1.58-.24q-.1-.94.24-1.68.36-.76 1.16-1.2.82-.46 2.04-.46 1.46 0 2.24.5.78.48 1.08 1.26.32.78.32 1.7v4.5q0 1.02.22 1.28.24.26.52.26.18 0 .38-.08.2-.1.44-.3l.36.5q-.3.26-.72.44-.4.18-.96.18m-4.48-.78q.56 0 1.2-.3.66-.32 1.4-1.26v-2.18h-2.04q-1.12 0-1.64.46-.5.44-.5 1.38 0 .9.38 1.4.4.5 1.2.5m10.861.76h.42v1.98h-4.34v-.54q0-.74.2-1.18t.58-.76q.4-.32.94-.64.519-.3.96-.68.44-.4.44-1.2 0-1.44-.98-1.44-1.16 0-.98 1.8l-1.18-.16a1.72 1.72 0 0 1 .4-1.46q.54-.64 1.76-.64t1.72.58q.52.58.52 1.34t-.4 1.2q-.4.42-.98.68-.58.24-1.12.52-1.14.58-1.26 1.7h2.6q.339 0 .42-.04.099-.04.12-.22z"/><circle cx="102" cy="163" r="4" fill="#ff626a"/><path fill="#ff626a" d="M110.94 186.14q-1.56 0-1.84-1.44-.7.8-1.54 1.16-.84.34-1.66.34-1.4 0-2.06-.78t-.66-1.88q0-1.18.8-1.86.82-.7 2.82-.7h2.26v-1.62q0-1.6-.56-2.2-.54-.62-1.48-.62-.6 0-1.08.24t-.7.88q-.2.62-.04 1.82l-1.58-.24q-.1-.94.24-1.68.36-.76 1.16-1.2.82-.46 2.04-.46 1.46 0 2.24.5.78.48 1.08 1.26.32.78.32 1.7v4.5q0 1.02.22 1.28.24.26.52.26.18 0 .38-.08.2-.1.44-.3l.36.5q-.3.26-.72.44-.4.18-.96.18m-4.48-.78q.56 0 1.2-.3.66-.32 1.4-1.26v-2.18h-2.04q-1.12 0-1.64.46-.5.44-.5 1.38 0 .9.38 1.4.4.5 1.2.5m6.921-3.24 1.32-.82h1v5.86q0 .34.04.4.039.06.18.08l.56.06v.4h-2.92v-.4l.76-.06q.159-.02.18-.08.04-.06.04-.4v-5.22l-.92.58z"/><path fill="#3bf8ff" d="M235.42 129.74v-.54h3.18v6.34q.58-.86 1.32-1.24a3.3 3.3 0 0 1 1.6-.4q1.72 0 2.66 1.3.96 1.3.96 3.64v.4q0 2.28-1.1 3.62-1.08 1.34-3.04 1.34-1.56 0-2.56-1.02-.28.16-.52.4t-.48.52h-.48v-13.28q0-.7-.06-.82t-.38-.16zm5.84 4.88q-.62 0-1.3.4-.66.4-1.36 1.62v5.72q.86 1.18 2.28 1.18 1.3 0 1.88-.98.58-1 .58-2.72v-1.6q0-1.88-.54-2.74-.54-.88-1.54-.88"/><path fill="#fff" d="M165.12 92.32h-.94v-.44q0-.9.26-1.44.28-.56.68-.96l.8-.84q.4-.44.66-1.06.28-.64.28-1.68 0-1.54-.56-2.3t-1.6-.76q-1.32 0-1.84 1-.52.98-.32 2.82l-1.64-.32q-.18-1.08.16-2.02.36-.94 1.28-1.52.92-.6 2.38-.6 1.42 0 2.3.5t1.28 1.3q.4.78.4 1.68 0 .92-.3 1.54-.28.6-.72 1.04-.44.42-.94.76-.48.34-.9.72-.4.36-.64.86-.22.5-.14 1.26zm-.5 3.88q-.5 0-.82-.32-.3-.32-.3-.82t.3-.8q.32-.32.82-.32t.82.32q.32.3.32.8t-.32.82-.82.32"/><path fill="#3bf8ff" d="m260 111-11.488-1.161 4.738 10.53zm-60 27 .41.912 51.793-23.307-.41-.912-.411-.912-51.792 23.307z"/></svg>