<svg xmlns="http://www.w3.org/2000/svg" width="300" height="200" fill="none" viewBox="0 0 300 200"><path fill="#000" d="M0 0h300v200H0z"/><path fill="#f6f31f" fill-opacity=".51" stroke="#f6f31f" d="M295.219 118.539 83.82 180.461l-71.445-39.976 200.656-45.97z"/><ellipse cx="145.101" cy="130.883" fill="#f6f31f" fill-opacity=".35" rx="13.854" ry="2.703" transform="rotate(-13.59 145.101 130.883)"/><path fill="#ff626a" d="M93.761 47.52v-.592a8 8 0 0 1 .88-3.712q.896-1.711 2.672-3.216l.368.384q-1.376 1.296-1.952 2.992a11.3 11.3 0 0 0-.56 3.552v.592q0 1.84.56 3.552.576 1.696 1.952 2.992l-.368.384q-1.776-1.505-2.672-3.216a8.06 8.06 0 0 1-.88-3.712m7.423 4.064V52h-3.04v-.416l.816-.096a1 1 0 0 0 .256-.048.7.7 0 0 0 .208-.176q.112-.144.32-.464l1.84-2.656-1.776-2.864a3.4 3.4 0 0 0-.304-.448q-.096-.144-.192-.176a.6.6 0 0 0-.24-.064l-.832-.08v-.432H102v.432l-.816.08q-.256.032-.256.128 0 .08.304.56l1.232 1.984 1.36-1.984q.32-.465.304-.56 0-.096-.24-.128l-.816-.08v-.432h3.04v.432l-.816.08a.7.7 0 0 0-.256.064.5.5 0 0 0-.208.176 19 19 0 0 0-.32.448l-1.728 2.496 1.872 3.024q.192.32.288.464a1 1 0 0 0 .192.176q.096.031.256.048l.832.096V52h-3.76v-.416l.816-.096q.256-.032.256-.112t-.304-.576l-1.328-2.144-1.472 2.144q-.32.48-.32.576.016.08.256.112zm5.655-2.688 1.056-.656h.8v4.688q0 .272.032.32t.144.064l.448.048v.32h-2.336v-.32l.608-.048q.127-.015.144-.064.032-.048.032-.32v-4.176l-.736.464zm5.933 2.576q0 .72-.48 1.68-.463.96-1.296 1.936l-.352-.288q.656-.8.944-1.472.288-.656.32-1.168h-.016a.84.84 0 0 1-.624-.24.84.84 0 0 1-.24-.624q0-.384.24-.624t.624-.24.624.272q.256.256.256.768m9.286 1.328q-.352.976-.768 1.584-.416.624-.992.896-.576.288-1.44.288v-1.28q1.152 0 1.744-.368.592-.352.944-1.328l.208-.592h-.464l-2.352-6.72q-.16-.464-.24-.544-.08-.096-.336-.128l-.816-.096v-.432h3.648v.432l-.816.096q-.224.015-.256.112-.032.096.128.56l1.92 5.536 1.936-5.552q.144-.464.112-.544-.016-.08-.256-.112l-.832-.096v-.432h2.928v.432l-.816.096q-.24.032-.32.112t-.24.544zm4.437-3.904 1.056-.656h.8v4.688q0 .272.032.32.033.048.144.064l.448.048v.32h-2.336v-.32l.608-.048q.129-.015.144-.064.032-.048.032-.32v-4.176l-.736.464zm5.933 2.576q0 .72-.48 1.68-.464.96-1.296 1.936l-.352-.288q.656-.8.944-1.472.288-.656.32-1.168h-.016a.84.84 0 0 1-.624-.24.84.84 0 0 1-.24-.624q0-.384.24-.624t.624-.24.624.272q.256.256.256.768m11.014-1.76h.416V52h-5.904v-.4l4.288-7.008h-2.4q-.528 0-.656.08-.112.064-.208.336l-.432 1.36h-.416V44.08h5.568v.4l-4.256 7.008h2.704q.545 0 .656-.064.129-.064.208-.352zm1.631-.816 1.056-.656h.8v4.688q0 .272.032.32.033.048.144.064l.448.048v.32h-2.336v-.32l.608-.048q.129-.015.144-.064.033-.048.032-.32v-4.176l-.736.464zm7.23-1.968v.592a7.95 7.95 0 0 1-.896 3.712q-.88 1.712-2.656 3.216l-.368-.384q1.375-1.296 1.936-2.992.56-1.712.56-3.552v-.592q0-1.856-.56-3.552t-1.936-2.992l.368-.384q1.776 1.505 2.656 3.216a7.9 7.9 0 0 1 .896 3.712"/><circle cx="129" cy="66" r="5" fill="#ff626a"/><path fill="#3bf8ff" d="m145 131 3.219-11.089-11.213 2.757zm-2.149-8.74.971-.238-12.851-52.26L130 70l-.971.239 12.851 52.26z"/></svg>