<svg xmlns="http://www.w3.org/2000/svg" width="300" height="200" fill="none" viewBox="0 0 300 200"><path fill="#000" d="M0 0h300v200H0z"/><path fill="#fff" d="m262 119-10-5.774v11.548zm-124 0v1h115v-2H138z"/><path fill="#fff" d="m73 184 11.154-2.989-8.165-8.165zm65-65-.707-.707-58.636 58.636.707.707.707.707 58.636-58.636z"/><path fill="#fff" d="m138 9-5.774 10h11.547zm0 110h1V18h-2v101z"/><path fill="#3bf8ff" d="m242 52-11.533.562 6.253 9.707zm-104 67 .542.841 96.434-62.126-.542-.84-.541-.842-96.435 62.126z"/><path fill="#fff" d="M259.76 150.48v.52h-3.72v-.52l1.02-.12q.2-.02.3-.06.12-.04.24-.22.14-.18.38-.58l3.18-5.16-3.08-5.44a5 5 0 0 0-.34-.56q-.1-.18-.22-.22a.7.7 0 0 0-.3-.08l-1.02-.1v-.54h4.86v.54l-1.04.1q-.3.04-.32.16 0 .12.32.7l2.34 4.14 2.56-4.14q.36-.58.36-.7t-.32-.16l-1.02-.1v-.54h3.72v.54l-1.02.1a.9.9 0 0 0-.32.08q-.1.04-.22.22-.12.16-.38.56l-2.98 4.82 3.28 5.78.32.58q.12.16.22.22.12.04.32.06l1.04.12v.52h-4.86v-.52l1.04-.12q.32-.04.32-.14.02-.12-.32-.72l-2.56-4.5-2.76 4.5q-.36.58-.36.7t.32.16zM158.3 24.48V25h-4.82v-.52l1.1-.12q.32-.04.38-.16t.06-.82V19.2l-3.22-6.3a4 4 0 0 0-.32-.56q-.1-.18-.22-.22a.8.8 0 0 0-.32-.08l-1.02-.1v-.54h4.84v.54l-1.02.1q-.3.04-.32.16 0 .12.28.7l2.72 5.46 2.78-5.46q.3-.58.28-.7t-.32-.16l-1.02-.1v-.54h3.7v.54l-1.04.1a1 1 0 0 0-.32.08q-.1.04-.22.22a7 7 0 0 0-.3.56l-3.2 6.26v4.22q0 .7.06.82t.38.16z"/><path fill="#3bf8ff" d="M126.84 115.44v1.5q0 2.92-1.34 4.6-1.34 1.66-3.84 1.66-2.52 0-3.86-1.66-1.32-1.68-1.32-4.6v-1.5q0-2.9 1.32-4.56 1.34-1.68 3.86-1.68 2.5 0 3.84 1.68 1.34 1.66 1.34 4.56m-1.9-1q0-2.5-.84-3.54-.82-1.06-2.44-1.06t-2.46 1.06q-.82 1.04-.82 3.54v3.5q0 2.5.82 3.56.84 1.06 2.46 1.06t2.44-1.06q.84-1.06.84-3.56z"/><path fill="#3bf8ff" d="M126.84 115.44v1.5q0 2.92-1.34 4.6-1.34 1.66-3.84 1.66-2.52 0-3.86-1.66-1.32-1.68-1.32-4.6v-1.5q0-2.9 1.32-4.56 1.34-1.68 3.86-1.68 2.5 0 3.84 1.68 1.34 1.66 1.34 4.56m-1.9-1q0-2.5-.84-3.54-.82-1.06-2.44-1.06t-2.46 1.06q-.82 1.04-.82 3.54v3.5q0 2.5.82 3.56.84 1.06 2.46 1.06t2.44-1.06q.84-1.06.84-3.56zM243.96 31.94v-.54h5.68q1.98 0 3.02 1 1.04.98 1.04 2.62v.58q0 1.64-1.04 2.64t-3.02 1h-2.4v4.14q0 .7.06.84.06.12.38.14l1.5.12V45h-5.22v-.52l1.1-.12q.32-.04.38-.16t.06-.82V33.02q0-.7-.06-.82t-.38-.16zm5.68.1h-2.4v6.56h2.4q2.22 0 2.22-2.72v-1.14q0-2.7-2.22-2.7"/><path fill="#f6f31f" d="M176.7 68.64v-.54h3.08v1.6q.7-.94 1.4-1.36.72-.44 1.46-.44.64 0 1.2.38t.94 1.22l-1.3.78q-.3-.72-.68-1a1.4 1.4 0 0 0-.84-.28q-.5 0-1 .32-.48.32-1.08 1.2v5.86q0 .7.06.84.06.12.38.14l1.5.12V78h-5.12v-.52l1.1-.12q.32-.04.38-.16t.06-.82v-6.66q0-.7-.06-.82t-.38-.16z"/><path fill="#fff" d="M60.3 180.74h.52V184h-9.04v-.44l6.86-12.52h-4.42q-.7 0-.84.1-.14.08-.24.42l-.58 2.1h-.52v-3.26h8.58v.44l-6.84 12.52h4.86q.48 0 .68-.02.2-.04.26-.14.08-.12.14-.36z"/></svg>