<svg xmlns="http://www.w3.org/2000/svg" width="300" height="200" fill="none" viewBox="0 0 300 200"><path fill="#000" d="M0 0h300v200H0z"/><path stroke="#fff" stroke-width="1.5" d="M85.75 7.75h50.5v50.5h-50.5zm86 0h50.5v50.5h-50.5zm-100 94h50.5v50.5h-50.5zm62 0h50.5v50.5h-50.5zm62 0h50.5v50.5h-50.5z"/><path fill="#fff" d="m100.276 66.508 5.292-2.988h2.556l-3.78 21.564q-.216 1.224-.144 1.476.072.216.612.288l1.944.216-.18.936H97.18l.18-.936 2.736-.216q.576-.036.72-.252.18-.252.396-1.512l3.456-19.764-3.888 2.196zm16.363 21.852a9.8 9.8 0 0 1-2.952-.432q-1.368-.432-2.232-1.404-.828-1.008-.936-2.628l2.088-.72q-.036 2.34 1.116 3.204t2.88.864q2.016 0 3.276-.864 1.296-.9 1.296-2.52 0-1.08-.72-1.872-.684-.828-2.412-1.368l-2.088-.684q-1.728-.54-2.7-1.728-.936-1.188-.936-2.844 0-1.332.648-2.592.684-1.26 2.124-2.088 1.44-.864 3.816-.864 2.34 0 3.708.828 1.404.828 1.836 2.124.468 1.296-.036 2.772l-2.952.576q.9-2.484.144-3.816t-2.88-1.332q-1.728 0-2.772.9-1.044.864-1.044 2.376 0 1.26.684 2.016.72.72 1.98 1.116l2.088.684q1.872.576 2.952 1.8 1.116 1.224 1.116 3.06 0 1.368-.756 2.628-.72 1.26-2.304 2.052-1.548.756-4.032.756m82.741-7.776L198.084 88h-14.472l.36-1.908q.468-2.592 1.656-4.284a12.7 12.7 0 0 1 2.772-2.88 42 42 0 0 1 3.312-2.196q1.62-.972 3.06-2.016a8.3 8.3 0 0 0 2.376-2.556q.936-1.512.936-3.816 0-2.16-.864-3.096-.828-.936-2.592-.936-2.376 0-3.6 1.8-1.224 1.764-1.476 5.076l-3.024-.576q0-2.016.9-3.708.936-1.692 2.736-2.7 1.836-1.044 4.464-1.044 2.412 0 3.888.792 1.512.792 2.232 2.124t.72 2.988q0 2.052-.828 3.42t-2.232 2.34q-1.368.936-3.024 1.728a104 104 0 0 0-3.312 1.584 18.2 18.2 0 0 0-4.068 2.772q-1.8 1.656-2.52 4.392h9.144q.864 0 1.224-.036.36-.072.54-.288t.36-.612l1.692-3.78zm9.974 7.776a9.8 9.8 0 0 1-2.952-.432q-1.368-.432-2.232-1.404-.828-1.008-.936-2.628l2.088-.72q-.036 2.34 1.116 3.204t2.88.864q2.016 0 3.276-.864 1.296-.9 1.296-2.52 0-1.08-.72-1.872-.684-.828-2.412-1.368l-2.088-.684q-1.728-.54-2.7-1.728-.936-1.188-.936-2.844 0-1.332.648-2.592.684-1.26 2.124-2.088 1.44-.864 3.816-.864 2.34 0 3.708.828 1.404.828 1.836 2.124.468 1.296-.036 2.772l-2.952.576q.9-2.484.144-3.816t-2.88-1.332q-1.728 0-2.772.9-1.044.864-1.044 2.376 0 1.26.684 2.016.72.72 1.98 1.116l2.088.684q1.872.576 2.952 1.8 1.116 1.224 1.116 3.06 0 1.368-.756 2.628-.72 1.26-2.304 2.052-1.548.756-4.032.756m-54.974 92.224L153.084 188h-14.472l.36-1.908q.468-2.592 1.656-4.284a12.7 12.7 0 0 1 2.772-2.88 42 42 0 0 1 3.312-2.196q1.62-.972 3.06-2.016a8.3 8.3 0 0 0 2.376-2.556q.936-1.512.936-3.816 0-2.16-.864-3.096-.828-.936-2.592-.936-2.376 0-3.6 1.8-1.224 1.764-1.476 5.076l-3.024-.576q0-2.016.9-3.708.936-1.692 2.736-2.7 1.836-1.044 4.464-1.044 2.412 0 3.888.792 1.512.792 2.232 2.124t.72 2.988q0 2.052-.828 3.42t-2.232 2.34q-1.368.936-3.024 1.728a104 104 0 0 0-3.312 1.584 18.2 18.2 0 0 0-4.068 2.772q-1.8 1.656-2.52 4.392h9.144q.864 0 1.224-.036.36-.072.54-.288t.36-.612l1.692-3.78zm12.998 7.776q-1.476 0-2.592-.54a5.1 5.1 0 0 1-1.872-1.548l-1.656 9.396h-2.952l3.96-22.572q.216-1.224.144-1.44-.072-.252-.612-.324l-1.944-.216.18-.936h5.616l-.576 3.204q1.26-1.98 2.664-2.772t2.88-.792q2.16 0 3.492 1.332 1.332 1.296 1.8 3.492t-.036 4.896l-.144.792q-.432 2.52-1.692 4.32-1.224 1.8-2.952 2.772a7.7 7.7 0 0 1-3.708.936m2.736-17.28q-.684 0-1.584.432-.864.396-1.872 1.548-.972 1.116-2.016 3.312l-1.404 8.1q.648 1.404 1.62 2.052.972.612 2.304.612 2.232 0 3.492-1.692 1.296-1.728 1.8-4.752l.36-2.052q.612-3.636-.18-5.58-.792-1.98-2.52-1.98"/><path fill="#ff6d6d" d="m100 20 5.774 10H94.227zm0 26h-1V29h2v17zm59 68 5.774 10h-11.548zm0 26h-1v-17h2v17z"/><path fill="#4cfdf4" d="m123 46 5.774-10h-11.548zm0-26h-1v17h2V20z"/><path fill="#ff6d6d" d="m185 20 5.774 10h-11.548zm0 26h-1V29h2v17z"/><path fill="#4cfdf4" d="m208 46 5.774-10h-11.548zm0-26h-1v17h2V20z"/><path fill="#ff6d6d" d="m85 114 5.773 10H79.227zm0 26h-1v-17h2v17z"/><path fill="#4cfdf4" d="m108 140 5.774-10h-11.548zm0-26h-1v17h2v-17z"/></svg>