<svg xmlns="http://www.w3.org/2000/svg" width="300" height="200" fill="none" viewBox="0 0 300 200"><path fill="#000" d="M0 0h300v200H0z"/><path fill="#fff" d="M47.256 113.48q-3.984 0-6.528-1.92-2.496-1.968-3.408-5.472-.912-3.552-.192-8.208l.528-3.216q1.104-6.864 4.752-10.8 3.696-3.984 9.456-3.984 3.552 0 5.76 1.488 2.208 1.44 2.976 3.744t-.048 4.848l-4.32 1.008q1.296-4.608.144-7.056-1.152-2.496-4.56-2.496t-5.808 2.544-3.36 8.304l-1.344 8.016q-1.008 6.096.528 8.88t5.568 2.784q2.304 0 4.368-1.392t3.12-5.04l2.976 1.008q-1.728 3.792-4.56 5.376-2.784 1.584-6.048 1.584m40.701-18.048-.528 3.12q-1.248 7.248-4.512 11.088t-8.496 3.84q-3.696 0-6.048-1.92-2.304-1.968-3.12-5.472-.768-3.504.048-8.208l.528-3.12q1.248-7.152 4.512-10.992 3.264-3.888 8.496-3.888 3.696 0 6 1.968 2.304 1.92 3.12 5.424t0 8.16m-4.128-2.544q1.008-5.904-.384-8.688-1.344-2.784-4.608-2.784-3.168 0-5.088 2.64-1.92 2.592-2.976 8.496l-1.344 7.92q-1.008 5.856.336 8.688 1.392 2.784 4.608 2.784t5.136-2.592q1.92-2.64 2.976-8.544zm16.476 20.4-.816 4.752H89.073l.24-1.296q.336-1.776.912-2.832a5.25 5.25 0 0 1 1.584-1.776q1.056-.768 2.688-1.584 2.448-1.248 3.36-2.496.912-1.296.912-3.072 0-2.4-1.776-2.4-1.488 0-2.256 1.104-.72 1.104-.912 3.216l-2.736-.384q0-1.968 1.44-3.504t4.368-1.536q2.688 0 3.792 1.2 1.104 1.152 1.104 2.736 0 1.536-.864 2.64-.864 1.056-2.448 1.968a81 81 0 0 1-3.792 1.92q-1.632.768-2.544 1.632-.864.912-1.248 2.352h6.24q.816 0 1.008-.096.24-.096.384-.528l.816-2.016zm96.407-31.632.24-1.296h8.016l10.944 25.632 3.888-21.744q.288-1.632.192-1.92-.096-.336-.816-.432l-2.64-.24.24-1.296h9.168l-.24 1.296-2.64.24q-.768.096-1.008.432-.192.288-.48 1.92L216.488 113h-1.92l-12.672-29.424-4.512 25.536q-.288 1.632-.192 1.968.096.288.816.384l2.592.288-.24 1.248h-9.168l.24-1.248 2.688-.288q.816-.096 1.008-.384.192-.336.48-1.968l4.368-24.864q.288-1.632.192-1.92-.096-.336-.816-.432zm37.172 31.632-.816 4.752h-10.417l.24-1.296q.336-1.776.912-2.832a5.3 5.3 0 0 1 1.585-1.776q1.056-.768 2.688-1.584 2.447-1.248 3.36-2.496.912-1.296.912-3.072 0-2.4-1.776-2.4-1.488 0-2.256 1.104-.72 1.104-.912 3.216l-2.736-.384q0-1.968 1.44-3.504t4.368-1.536q2.688 0 3.792 1.2 1.104 1.152 1.104 2.736 0 1.536-.864 2.64-.864 1.056-2.448 1.968a81 81 0 0 1-3.792 1.92q-1.632.768-2.544 1.632-.864.912-1.248 2.352h6.24q.816 0 1.008-.096.24-.096.384-.528l.816-2.016zm33.697-17.856-.576 3.12q-.768 4.512-2.688 7.872t-4.896 5.232q-2.976 1.824-6.864 1.824-4.176 0-6.768-2.016-2.544-2.064-3.456-5.616t-.144-7.968l.528-3.12q.816-4.464 2.736-7.824t4.848-5.184q2.976-1.872 6.864-1.872 4.176 0 6.72 2.064 2.592 2.064 3.504 5.616.96 3.504.192 7.872m-4.128-2.496q.96-5.472-.624-8.496-1.536-3.024-5.664-3.024-3.744 0-6.144 2.832-2.352 2.784-3.312 8.208l-1.392 7.92q-.96 5.52.576 8.544 1.584 3.024 5.664 3.024 3.792 0 6.192-2.832t3.312-8.256z"/><path fill="#ffff5b" d="m123 100 15 8.66V91.34zm54 0-15-8.66v17.32zm-40.5 0v1.5h27v-3h-27z"/></svg>