<svg xmlns="http://www.w3.org/2000/svg" width="300" height="200" fill="none" viewBox="0 0 300 200"><g clip-path="url(#a)"><path fill="#000" d="M0 0h300v200H0z"/><path stroke="#fff" stroke-width="2" d="M159.999 3v92m0 0L115 117.5M159.999 95l78.501 43.5M159.999 95 266 35"/><ellipse cx="209.5" cy="73.5" fill="url(#b)" fill-opacity=".9" rx="60.5" ry="59.5"/><ellipse cx="126.5" cy="105.5" fill="url(#c)" fill-opacity=".95" rx="60.5" ry="59.5"/><path fill="#fff" d="m50.648 159.376-.096.624h-4.56l.096-.624 1.248-.144q.24-.024.36-.072.144-.048.336-.264t.576-.696l4.944-6.24-2.544-6.48q-.264-.72-.384-.84-.12-.144-.456-.192l-1.224-.12.12-.648H54.8l-.12.648-1.248.12q-.384.048-.432.192-.024.144.24.84l1.944 4.992 3.912-4.992q.552-.696.576-.84.048-.144-.312-.192l-1.224-.12.12-.648h4.56l-.12.648-1.248.12q-.24.024-.384.096-.12.048-.312.264-.192.192-.576.672l-4.656 5.904 2.664 6.816q.264.72.384.864.12.12.456.168l1.224.144-.12.624h-5.712l.12-.624 1.248-.144q.408-.048.432-.168.024-.144-.24-.864l-2.088-5.328-4.2 5.328q-.552.696-.576.84t.336.192zM253.024 173.376l-.12.624h-5.784l.12-.624 1.344-.144q.264-.024.384-.072.12-.072.216-.336l1.008-5.832-2.52-7.512q-.24-.72-.384-.84-.12-.144-.456-.192l-1.224-.12.12-.648h5.736l-.12.648-1.248.12q-.384.048-.432.192-.024.144.216.84l2.112 6.552 4.488-6.552q.48-.696.48-.84 0-.168-.336-.192l-1.224-.12.12-.648h4.512l-.12.648-1.248.12a1.2 1.2 0 0 0-.408.096q-.144.048-.312.264-.144.192-.48.672l-5.184 7.536-.888 5.088.024-.048q-.144.84-.096.984t.408.192zM147.424 14.088 146.752 18h-10.848l.096-.528 10.728-15.024h-5.16q-.552 0-.816.048-.264.024-.384.168-.096.12-.216.408L139 5.592h-.624l.696-3.912h10.32l-.12.528-10.728 15.024h5.712q.576 0 .816-.024a.7.7 0 0 0 .36-.168q.12-.144.24-.432l1.128-2.52z"/><path stroke="#fff" stroke-width="2" d="m116.47 116.883-47 25"/></g><defs><radialGradient id="b" cx="0" cy="0" r="1" gradientTransform="matrix(16.7773 71.5 -72.7017 16.5 192.723 61.5)" gradientUnits="userSpaceOnUse"><stop stop-color="#fffd7b"/><stop offset="1" stop-color="#7b850e"/></radialGradient><radialGradient id="c" cx="0" cy="0" r="1" gradientTransform="matrix(16.7773 71.5 -72.7017 16.5 109.723 93.5)" gradientUnits="userSpaceOnUse"><stop stop-color="#fffd7b"/><stop offset="1" stop-color="#abb911"/></radialGradient><clipPath id="a"><path fill="#fff" d="M0 0h300v200H0z"/></clipPath></defs></svg>