<svg xmlns="http://www.w3.org/2000/svg" width="300" height="200" fill="none" viewBox="0 0 300 200"><path fill="#000" d="M0 0h300v200H0z"/><path fill="url(#a)" fill-opacity=".9" d="M152.5 106.215c-9.5-2.545-36.5 17.909-36.5 40s16.342 40 36.5 40 36.5-17.909 36.5-40-27-37.454-36.5-40" opacity=".9"/><ellipse cx="155.5" cy="111" fill="url(#b)" fill-opacity=".53" rx="55.5" ry="18"/><path stroke="#fff" stroke-width="2" d="M154 13v92m0 0-86 13m86-13 89.5-11"/><path fill="url(#c)" fill-opacity=".9" d="M156.5 106C147 108.546 120 88.091 120 66s16.342-40 36.5-40S193 43.909 193 66s-27 37.454-36.5 40" opacity=".9"/><path fill="#fff" d="m50.648 137.376-.096.624h-4.56l.096-.624 1.248-.144q.24-.024.36-.072.144-.048.336-.264t.576-.696l4.944-6.24-2.544-6.48q-.264-.72-.384-.84-.12-.144-.456-.192l-1.224-.12.12-.648H54.8l-.12.648-1.248.12q-.384.048-.432.192-.024.144.24.84l1.944 4.992 3.912-4.992q.552-.696.576-.84.048-.144-.312-.192l-1.224-.12.12-.648h4.56l-.12.648-1.248.12q-.24.024-.384.096-.12.048-.312.264-.192.192-.576.672l-4.656 5.904 2.664 6.816q.264.72.384.864.12.12.456.168l1.224.144-.12.624h-5.712l.12-.624 1.248-.144q.408-.048.432-.168.024-.144-.24-.864l-2.088-5.328-4.2 5.328q-.552.696-.576.84t.336.192zM247.024 183.376l-.12.624h-5.784l.12-.624 1.344-.144q.264-.024.384-.072.12-.072.216-.336l1.008-5.832-2.52-7.512q-.24-.72-.384-.84-.12-.144-.456-.192l-1.224-.12.12-.648h5.736l-.12.648-1.248.12q-.384.048-.432.192-.024.144.216.84l2.112 6.552 4.488-6.552q.48-.696.48-.84 0-.168-.336-.192l-1.224-.12.12-.648h4.512l-.12.648-1.248.12a1.2 1.2 0 0 0-.408.096q-.144.048-.312.264-.144.192-.48.672l-5.184 7.536-.888 5.088.024-.048q-.144.84-.096.984t.408.192zM141.424 25.088 140.752 29h-10.848l.096-.528 10.728-15.024h-5.16q-.552 0-.816.048-.264.024-.384.168-.096.12-.216.408L133 16.592h-.624l.696-3.912h10.32l-.12.528-10.728 15.024h5.712q.576 0 .816-.024a.7.7 0 0 0 .36-.168q.12-.144.24-.432l1.128-2.52z"/><path stroke="#fff" stroke-width="2" d="m153.595 105.196 81 60"/><defs><radialGradient id="a" cx="0" cy="0" r="1" gradientTransform="matrix(-43.8613 -11.0924 -10.1218 48.0672 159.861 157.307)" gradientUnits="userSpaceOnUse"><stop stop-color="#ff7bf2"/><stop offset="1" stop-color="#850e2e"/></radialGradient><radialGradient id="b" cx="0" cy="0" r="1" gradientTransform="matrix(55.5 0 0 18 155.5 111)" gradientUnits="userSpaceOnUse"><stop/><stop offset=".207"/><stop offset=".308" stop-color="#93ff95"/><stop offset="1" stop-color="#2c8509"/></radialGradient><radialGradient id="c" cx="0" cy="0" r="1" gradientTransform="matrix(-43.8613 11.0924 -10.1218 -48.0672 163.861 54.908)" gradientUnits="userSpaceOnUse"><stop stop-color="#ff7bf2"/><stop offset="1" stop-color="#850e2e"/></radialGradient></defs></svg>