<svg xmlns="http://www.w3.org/2000/svg" width="300" height="200" fill="none" viewBox="0 0 300 200"><path fill="#000" d="M0 0h300v200H0z"/><path fill="#fff" d="m54.52 77.288 3.552-1.968h2.4l-2.496 14.064q-.144.816-.096.96.096.144.432.192l1.344.144-.192.96h-7.008l.192-.96 1.824-.144q.384-.048.48-.192t.24-.96L57.4 77.096l-2.304 1.296zm10.36 0 3.551-1.968h2.4l-2.496 14.064q-.144.816-.096.96.096.144.432.192l1.344.144-.192.96h-7.008l.192-.96 1.824-.144q.384-.048.48-.192t.24-.96l2.208-12.288-2.304 1.296zm10.55 4.368.24-1.296h12.865q3.12 0 5.04 1.104 1.968 1.056 2.736 2.88.816 1.776.432 3.984l-.192 1.344q-.432 2.496-2.112 4.224-1.68 1.68-4.512 2.352 3.12.672 4.56 2.736t.96 4.992l-.24 1.296q-.528 3.504-3.312 5.616Q89.159 113 84.455 113H69.91l.24-1.248 2.688-.288q.816-.096 1.008-.384.192-.336.48-1.968l4.368-24.864q.288-1.68.192-1.968t-.816-.384zm13.057.24h-5.232l-2.4 13.728h5.184q4.992 0 6-5.568l.336-1.968q.576-3.024-.432-4.608t-3.456-1.584M86.999 97.16h-6.432l-2.496 14.304h6.384q5.184 0 6.288-5.952l.336-1.968q.576-3.072-.48-4.704-1.056-1.68-3.6-1.68m-34.567 18.624 1.872-8.064h6.624q.912 0 1.056-.048.192-.096.336-.576l.48-1.344h.672l-.768 4.08h-7.872l-1.056 4.56a6.5 6.5 0 0 1 3.168-.816q2.304 0 3.696 1.248 1.392 1.2 1.392 3.456 0 1.392-.672 2.784t-2.112 2.304-3.792.912q-1.776 0-3.024-.816-1.248-.768-1.488-2.544l1.632-.48q.048 1.584.768 2.208a2.74 2.74 0 0 0 1.776.624q1.776 0 2.784-1.584 1.056-1.584 1.056-3.936 0-1.44-.528-2.256-.528-.864-1.872-.864a4.6 4.6 0 0 0-1.68.336q-.864.288-1.872 1.056zM199.52 79.288l3.552-1.968h2.4l-2.496 14.064q-.144.816-.096.96.096.144.432.192l1.344.144-.192.96h-7.008l.192-.96 1.824-.144q.384-.048.48-.192t.24-.96l2.208-12.288-2.304 1.296zm19.479 9.504q0 1.2-.672 2.4-.672 1.152-2.064 1.92t-3.648.768q-1.872 0-3.216-.768t-1.584-2.736l1.68-.48q-.048 1.728.864 2.352a3.57 3.57 0 0 0 2.064.624q1.68 0 2.592-1.2.96-1.2.96-3.12 0-1.248-.72-2.016-.672-.768-2.304-.768h-.864l.192-1.008h.864q2.16 0 3.072-1.344.96-1.392.96-3.024 0-2.304-1.968-2.304-1.488 0-2.256 1.104-.72 1.104-.912 3.216l-2.688-.384q-.048-1.968 1.344-3.456t4.416-1.488q2.64 0 3.84 1.152 1.2 1.104 1.2 2.736 0 1.536-1.008 2.688t-3.072 1.632q2.928.816 2.928 3.504m13.585 26.688q-3.984 0-6.528-1.92-2.496-1.968-3.408-5.472-.912-3.552-.192-8.208l.528-3.216q1.104-6.864 4.752-10.8 3.696-3.984 9.456-3.984 3.552 0 5.76 1.488 2.208 1.44 2.976 3.744t-.048 4.848l-4.32 1.008q1.296-4.608.144-7.056-1.152-2.496-4.56-2.496t-5.808 2.544-3.36 8.304l-1.344 8.016q-1.008 6.096.528 8.88t5.568 2.784q2.304 0 4.368-1.392t3.12-5.04l2.976 1.008q-1.728 3.792-4.56 5.376-2.784 1.584-6.048 1.584m-24.256 6.192q-.288 2.208-2.016 3.408-1.68 1.2-4.032 1.2-2.928 0-4.224-2.016t-.72-5.568l.24-1.488q.672-3.984 2.448-5.856 1.824-1.872 4.56-1.872 2.832 0 4.032 1.488 1.248 1.44.72 3.264l-2.928.384q1.2-4.128-1.728-4.128-1.248 0-2.304 1.008-1.008 1.008-1.584 4.272l-.288 1.584q1.44-1.104 3.36-1.104 2.304 0 3.552 1.44 1.248 1.392.96 3.648zm-8.304-1.536q-.48 2.832.192 3.984t1.968 1.152q1.104 0 1.968-.864.912-.864 1.248-2.928l.048-.24q.288-1.824-.192-2.832-.432-1.056-1.824-1.056-.768 0-1.584.384-.816.336-1.632 1.296z"/><path fill="#ffff5b" d="m123 100 15 8.66V91.34zm54 0-15-8.66v17.32zm-40.5 0v1.5h27v-3h-27z"/></svg>