<svg xmlns="http://www.w3.org/2000/svg" width="300" height="200" fill="none" viewBox="0 0 300 200"><path fill="#000" d="M0 0h300v200H0z"/><path fill="#fff" d="M47.64 86.792q0 1.2-.672 2.4-.672 1.152-2.064 1.92t-3.648.768q-1.872 0-3.216-.768t-1.584-2.736l1.68-.48q-.048 1.728.864 2.352a3.57 3.57 0 0 0 2.064.624q1.68 0 2.592-1.2.96-1.2.96-3.12 0-1.248-.72-2.016-.672-.768-2.304-.768h-.864l.192-1.008h.864q2.16 0 3.072-1.344.96-1.392.96-3.024 0-2.304-1.968-2.304-1.488 0-2.256 1.104-.72 1.104-.912 3.216l-2.688-.384q-.048-1.968 1.344-3.456t4.416-1.488q2.64 0 3.84 1.152 1.2 1.104 1.2 2.736 0 1.536-1.008 2.688t-3.072 1.632q2.928.816 2.928 3.504m16.657-3.984-.288 1.68q-.576 3.696-2.4 5.568-1.776 1.824-4.56 1.824-3.168 0-4.512-2.16-1.344-2.208-.768-5.568l.336-1.68q1.296-7.392 6.912-7.392 3.168 0 4.464 2.16 1.344 2.16.816 5.568m-2.88-1.2q.48-2.784-.144-4.08-.624-1.344-2.16-1.344-1.488 0-2.4 1.248-.912 1.2-1.392 3.984l-.672 3.936q-.48 2.784.144 4.128.672 1.296 2.16 1.296 1.536 0 2.448-1.2.912-1.248 1.392-4.032zm13.055 31.872q-2.544 0-4.8-.768a7.57 7.57 0 0 1-3.696-2.688q-1.392-1.92-1.44-5.28l3.024-.96q-.144 3.216.768 4.992t2.544 2.496q1.632.672 3.648.672 3.936 0 5.952-1.776 2.064-1.824 2.064-4.896 0-2.208-1.2-3.648-1.152-1.44-3.984-2.592L73.8 97.64q-2.88-1.152-4.464-3.216Q67.8 92.36 67.8 89.288q0-2.544 1.152-4.656 1.2-2.16 3.6-3.456T78.6 79.88q2.976 0 4.944.912 2.016.864 3.12 2.352a6.67 6.67 0 0 1 1.344 3.216 7.5 7.5 0 0 1-.336 3.456l-4.176.864q1.344-4.368.096-6.816t-5.184-2.448q-3.12 0-4.992 1.632-1.872 1.584-1.872 4.8 0 2.16 1.056 3.648 1.104 1.44 3.888 2.544l3.552 1.44q3.024 1.2 4.656 3.168 1.632 1.92 1.632 4.896 0 2.544-1.296 4.848-1.248 2.256-3.888 3.696-2.64 1.392-6.672 1.392m25-29.664q-2.35 0-2.351-2.304 0-1.2.768-2.016.816-.864 2.112-.864 1.104 0 1.728.624.672.576.672 1.632 0 1.2-.816 2.064-.768.864-2.112.864m-7.007 6.72.24-1.296h7.632l-2.88 16.56q-.624 3.552-.48 4.704t.912 1.152q.72 0 1.536-.816.864-.864 1.488-2.88l1.728 1.056q-1.056 2.208-2.496 3.216-1.392 1.008-2.976 1.008-2.208 0-3.312-1.728-1.056-1.728-.432-5.328l2.256-13.056q.288-1.632.192-1.92-.096-.336-.816-.432zm-51.554 19.152 3.552-1.968h2.4l-2.496 14.064q-.144.816-.096.96.096.144.432.192l1.344.144-.192.96h-7.008l.192-.96 1.824-.144q.384-.048.48-.192t.24-.96l2.208-12.288-2.304 1.296zm14.247 12.144.336-1.872h-7.104l.144-1.008q1.92-1.728 3.312-3.36a22 22 0 0 0 2.448-3.504q1.104-1.872 1.92-4.368h3.216q-1.248 3.36-3.84 6a87 87 0 0 1-5.52 5.232h5.616l.624-3.696 2.832-.288-.72 3.984h1.872l-.192 1.008H58.28l-.336 1.872q-.144.816-.096.96t.432.24l1.248.144-.144.864h-6.72l.192-.864 1.584-.144q.384-.048.48-.24.096-.144.24-.96m158.48-35.04q0 1.2-.672 2.4-.672 1.152-2.064 1.92t-3.648.768q-1.872 0-3.216-.768t-1.584-2.736l1.68-.48q-.048 1.728.864 2.352a3.57 3.57 0 0 0 2.064.624q1.68 0 2.592-1.2.96-1.2.96-3.12 0-1.248-.72-2.016-.672-.768-2.304-.768h-.864l.192-1.008h.864q2.16 0 3.072-1.344.96-1.392.96-3.024 0-2.304-1.968-2.304-1.488 0-2.256 1.104-.72 1.104-.912 3.216l-2.688-.384q-.048-1.968 1.344-3.456t4.416-1.488q2.64 0 3.84 1.152 1.2 1.104 1.2 2.736 0 1.536-1.008 2.688t-3.072 1.632q2.928.816 2.928 3.504m4.849-9.504 3.552-1.968h2.4l-2.496 14.064q-.144.816-.096.96.096.144.432.192l1.344.144-.192.96h-7.008l.192-.96 1.824-.144q.384-.048.48-.192t.24-.96l2.208-12.288-2.304 1.296zm10.551 4.368.24-1.296h13.392q3.12 0 5.136 1.2t2.88 3.264q.864 2.016.384 4.608l-.24 1.392q-.672 3.936-3.408 6.144-2.688 2.208-7.584 2.208h-6l-1.728 9.936q-.288 1.68-.24 2.016.096.288.864.336l3.552.288-.24 1.248H223.52l.24-1.248 2.688-.288q.816-.096 1.008-.384.192-.336.48-1.968l4.368-24.864q.288-1.68.192-1.968t-.816-.384zm13.584.24h-5.76l-2.736 15.744h5.712q5.424 0 6.48-6.24l.48-2.736q1.104-6.768-4.176-6.768m-42.712 27.792 3.552-1.968h2.4l-2.496 14.064q-.144.816-.096.96.096.144.432.192l1.344.144-.192.96h-7.008l.192-.96 1.824-.144q.384-.048.48-.192t.24-.96l2.208-12.288-2.304 1.296zm9.879 6.096 1.872-8.064h6.624q.912 0 1.056-.048.192-.096.336-.576l.48-1.344h.672l-.768 4.08h-7.872l-1.056 4.56a6.5 6.5 0 0 1 3.168-.816q2.304 0 3.696 1.248 1.392 1.2 1.392 3.456 0 1.392-.672 2.784t-2.112 2.304-3.792.912q-1.776 0-3.024-.816-1.248-.768-1.488-2.544l1.632-.48q.048 1.584.768 2.208a2.74 2.74 0 0 0 1.776.624q1.776 0 2.784-1.584 1.056-1.584 1.056-3.936 0-1.44-.528-2.256-.528-.864-1.872-.864a4.6 4.6 0 0 0-1.68.336q-.864.288-1.872 1.056z"/><path fill="#ffff5b" d="m123 100 15 8.66V91.34zm54 0-15-8.66v17.32zm-40.5 0v1.5h27v-3h-27z"/></svg>