<svg xmlns="http://www.w3.org/2000/svg" width="300" height="200" fill="none" viewBox="0 0 300 200"><path fill="#000" d="M0 0h300v200H0z"/><path fill="url(#a)" fill-opacity=".9" d="M89.435 159.886c-13-17 5.5-33.562 18-43 12.5-9.437 45-26.026 45-10.562s-1.238 36.626-17.5 48.5c-14.439 10.543-32.5 22.062-45.5 5.062"/><path stroke="#fff" stroke-width="2" d="m90.1 99.005 139 14M151 167V37"/><path fill="#fff" d="m93.648 149.376-.096.624h-4.56l.096-.624 1.248-.144q.24-.024.36-.072.144-.048.336-.264t.576-.696l4.944-6.24-2.544-6.48q-.264-.72-.384-.84-.12-.144-.456-.192l-1.224-.12.12-.648H97.8l-.12.648-1.248.12q-.384.048-.432.192-.024.144.24.84l1.944 4.992 3.912-4.992q.552-.696.576-.84.048-.144-.312-.192l-1.224-.12.12-.648h4.56l-.12.648-1.248.12q-.24.024-.384.096-.12.048-.312.264-.192.192-.576.672l-4.656 5.904 2.664 6.816q.264.72.384.864.12.12.456.168l1.224.144-.12.624h-5.712l.12-.624 1.248-.144q.408-.048.432-.168.024-.144-.24-.864l-2.088-5.328-4.2 5.328q-.552.696-.576.84t.336.192zM243.024 133.376l-.12.624h-5.784l.12-.624 1.344-.144q.264-.024.384-.072.12-.072.216-.336l1.008-5.832-2.52-7.512q-.24-.72-.384-.84-.12-.144-.456-.192l-1.224-.12.12-.648h5.736l-.12.648-1.248.12q-.384.048-.432.192-.024.144.216.84l2.112 6.552 4.488-6.552q.48-.696.48-.84 0-.168-.336-.192l-1.224-.12.12-.648h4.512l-.12.648-1.248.12a1.2 1.2 0 0 0-.408.096q-.144.048-.312.264-.144.192-.48.672l-5.184 7.536-.888 5.088.024-.048q-.144.84-.096.984t.408.192zM152.424 24.088 151.752 28h-10.848l.096-.528 10.728-15.024h-5.16q-.552 0-.816.048-.264.024-.384.168-.096.12-.216.408L144 15.592h-.624l.696-3.912h10.32l-.12.528-10.728 15.024h5.712q.576 0 .816-.024a.7.7 0 0 0 .36-.168q.12-.144.24-.432l1.128-2.52z"/><path stroke="#fff" stroke-width="2" d="m154 105-39 24"/><path fill="url(#b)" fill-opacity=".8" d="M216.5 49.938c13 17-5.5 33.562-18 43-12.5 9.437-45 26.026-45 10.562S154.738 66.874 171 55c14.439-10.543 32.5-22.062 45.5-5.062"/><path fill="url(#c)" fill-opacity=".9" d="M89.435 41.651c-13 17 5.5 33.563 18 43 12.5 9.438 45 26.027 45 10.563s-1.238-36.626-17.5-48.5c-14.439-10.544-32.5-22.063-45.5-5.063"/><path fill="url(#d)" fill-opacity=".9" d="M216 166.886c13-17-5.5-33.562-18-43-12.5-9.437-45-26.026-45-10.562s1.238 36.626 17.5 48.5c14.439 10.543 32.5 22.062 45.5 5.062"/><defs><radialGradient id="a" cx="0" cy="0" r="1" gradientTransform="matrix(21.22856 -45.2706 44.5424 20.88709 119 150)" gradientUnits="userSpaceOnUse"><stop stop-color="#ff6483"/><stop offset="1" stop-color="#bc1d3d"/></radialGradient><radialGradient id="b" cx="0" cy="0" r="1" gradientTransform="matrix(5.99997 57.5 -56.57503 5.90345 184 64.5)" gradientUnits="userSpaceOnUse"><stop stop-color="#ff6483"/><stop offset="1" stop-color="#bc1d3d"/></radialGradient><radialGradient id="c" cx="0" cy="0" r="1" gradientTransform="matrix(32.99995 41.5 -40.83244 32.46912 110 55)" gradientUnits="userSpaceOnUse"><stop stop-color="#9aff64"/><stop offset="1" stop-color="#42bc1d"/></radialGradient><radialGradient id="d" cx="0" cy="0" r="1" gradientTransform="rotate(235.146 141.872 26.14)scale(68.2422 67.1445)" gradientUnits="userSpaceOnUse"><stop stop-color="#9aff64"/><stop offset="1" stop-color="#42bc1d"/></radialGradient></defs></svg>