<svg xmlns="http://www.w3.org/2000/svg" width="300" height="200" fill="none" viewBox="0 0 300 200"><path fill="#000" d="M0 0h300v200H0z"/><path fill="#fff" d="m48.52 80.288 3.552-1.968h2.4l-2.496 14.064q-.144.816-.096.96.096.144.432.192l1.344.144-.192.96h-7.008l.192-.96 1.824-.144q.384-.048.48-.192t.24-.96L51.4 80.096l-2.304 1.296zm19.143 9.6-.816 4.752H56.431l.24-1.296q.336-1.776.912-2.832a5.25 5.25 0 0 1 1.584-1.776q1.056-.768 2.688-1.584 2.448-1.248 3.36-2.496.912-1.296.912-3.072 0-2.4-1.776-2.4-1.488 0-2.256 1.104-.72 1.104-.912 3.216l-2.736-.384q0-1.968 1.44-3.504t4.368-1.536q2.688 0 3.792 1.2 1.104 1.152 1.104 2.736 0 1.536-.864 2.64-.864 1.056-2.448 1.968a81 81 0 0 1-3.792 1.92q-1.632.768-2.544 1.68-.864.864-1.248 2.304h6.24q.816 0 1.008-.096.24-.096.384-.528l.816-2.016zm13.874 26.592q-3.984 0-6.528-1.92-2.496-1.968-3.408-5.472-.912-3.552-.192-8.208l.528-3.216q1.104-6.864 4.752-10.8 3.696-3.984 9.456-3.984 3.552 0 5.76 1.488 2.208 1.44 2.976 3.744t-.048 4.848l-4.32 1.008q1.296-4.608.144-7.056-1.152-2.496-4.56-2.496T80.29 86.96t-3.36 8.304l-1.344 8.016q-1.008 6.096.528 8.88t5.568 2.784q2.304 0 4.368-1.392t3.12-5.04l2.976 1.008q-1.728 3.792-4.56 5.376-2.784 1.584-6.048 1.584m-20.21 4.192q-.288 2.208-2.016 3.408-1.68 1.2-4.032 1.2-2.928 0-4.224-2.016t-.72-5.568l.24-1.488q.672-3.984 2.448-5.856 1.824-1.872 4.56-1.872 2.832 0 4.032 1.488 1.248 1.44.72 3.264l-2.928.384q1.2-4.128-1.728-4.128-1.248 0-2.304 1.008-1.008 1.008-1.584 4.272l-.288 1.584q1.44-1.104 3.36-1.104 2.304 0 3.552 1.44 1.248 1.392.96 3.648zm-8.304-1.536q-.48 2.832.192 3.984t1.968 1.152q1.104 0 1.968-.864.912-.864 1.248-2.928l.048-.24q.288-1.824-.192-2.832-.432-1.056-1.824-1.056-.768 0-1.584.384-.816.336-1.632 1.296zM201.52 82.288l3.552-1.968h2.4l-2.496 14.064q-.144.816-.096.96.096.144.432.192l1.344.144-.192.96h-7.008l.192-.96 1.824-.144q.384-.048.48-.192t.24-.96l2.208-12.288-2.304 1.296zm19.479 9.504q0 1.2-.672 2.4-.672 1.152-2.064 1.92t-3.648.768q-1.872 0-3.216-.768t-1.584-2.736l1.68-.48q-.048 1.728.864 2.352a3.57 3.57 0 0 0 2.064.624q1.68 0 2.592-1.2.96-1.2.96-3.12 0-1.248-.72-2.016-.672-.768-2.304-.768h-.864l.192-1.008h.864q2.16 0 3.072-1.344.96-1.392.96-3.024 0-2.304-1.968-2.304-1.488 0-2.256 1.104-.72 1.104-.912 3.216l-2.688-.384q-.048-1.968 1.344-3.456t4.416-1.488q2.64 0 3.84 1.152 1.2 1.104 1.2 2.736 0 1.536-1.008 2.688t-3.072 1.632q2.928.816 2.928 3.504m13.585 26.688q-3.984 0-6.528-1.92-2.496-1.968-3.408-5.472-.912-3.552-.192-8.208l.528-3.216q1.104-6.864 4.752-10.8 3.696-3.984 9.456-3.984 3.552 0 5.76 1.488 2.208 1.44 2.976 3.744t-.048 4.848l-4.32 1.008q1.296-4.608.144-7.056-1.152-2.496-4.56-2.496t-5.808 2.544-3.36 8.304l-1.344 8.016q-1.008 6.096.528 8.88t5.568 2.784q2.304 0 4.368-1.392t3.12-5.04l2.976 1.008q-1.728 3.792-4.56 5.376-2.784 1.584-6.048 1.584m-20.256 4.192q-.288 2.208-2.016 3.408-1.68 1.2-4.032 1.2-2.928 0-4.224-2.016t-.72-5.568l.24-1.488q.672-3.984 2.448-5.856 1.824-1.872 4.56-1.872 2.832 0 4.032 1.488 1.248 1.44.72 3.264l-2.928.384q1.2-4.128-1.728-4.128-1.248 0-2.304 1.008-1.008 1.008-1.584 4.272l-.288 1.584q1.44-1.104 3.36-1.104 2.304 0 3.552 1.44 1.248 1.392.96 3.648zm-8.304-1.536q-.48 2.832.192 3.984t1.968 1.152q1.104 0 1.968-.864.912-.864 1.248-2.928l.048-.24q.288-1.824-.192-2.832-.432-1.056-1.824-1.056-.768 0-1.584.384-.816.336-1.632 1.296z"/><path fill="#ffff5b" d="m123 100 15 8.66V91.34zm54 0-15-8.66v17.32zm-40.5 0v1.5h27v-3h-27z"/></svg>