<svg xmlns="http://www.w3.org/2000/svg" width="300" height="200" fill="none" viewBox="0 0 300 200"><path fill="#000" d="M0 0h300v200H0z"/><path stroke="#fff" stroke-width="1.5" d="M81.75 65.75h50.5v50.5h-50.5zm86 0h50.5v50.5h-50.5z"/><path fill="#fff" d="m95.276 139.508 5.292-2.988h2.556l-3.78 21.564q-.216 1.224-.144 1.476.072.216.612.288l1.944.216-.18.936H92.18l.18-.936 2.736-.216q.576-.036.72-.252.18-.252.396-1.512l3.456-19.764-3.888 2.196zm16.363 21.852a9.8 9.8 0 0 1-2.952-.432q-1.368-.432-2.232-1.404-.828-1.008-.936-2.628l2.088-.72q-.036 2.34 1.116 3.204t2.88.864q2.016 0 3.276-.864 1.296-.9 1.296-2.52 0-1.08-.72-1.872-.684-.828-2.412-1.368l-2.088-.684q-1.728-.54-2.7-1.728-.936-1.188-.936-2.844 0-1.332.648-2.592.684-1.26 2.124-2.088 1.44-.864 3.816-.864 2.34 0 3.708.828 1.404.828 1.836 2.124.468 1.296-.036 2.772l-2.952.576q.9-2.484.144-3.816t-2.88-1.332q-1.728 0-2.772.9-1.044.864-1.044 2.376 0 1.26.684 2.016.72.72 1.98 1.116l2.088.684q1.872.576 2.952 1.8 1.116 1.224 1.116 3.06 0 1.368-.756 2.628-.72 1.26-2.304 2.052-1.548.756-4.032.756m82.741-7.776L193.084 161h-14.472l.36-1.908q.468-2.592 1.656-4.284a12.7 12.7 0 0 1 2.772-2.88 42 42 0 0 1 3.312-2.196q1.62-.972 3.06-2.016a8.3 8.3 0 0 0 2.376-2.556q.936-1.512.936-3.816 0-2.16-.864-3.096-.828-.936-2.592-.936-2.376 0-3.6 1.8-1.224 1.764-1.476 5.076l-3.024-.576q0-2.016.9-3.708.936-1.692 2.736-2.7 1.836-1.044 4.464-1.044 2.412 0 3.888.792 1.512.792 2.232 2.124t.72 2.988q0 2.052-.828 3.42t-2.232 2.34q-1.368.936-3.024 1.728a104 104 0 0 0-3.312 1.584 18.2 18.2 0 0 0-4.068 2.772q-1.8 1.656-2.52 4.392h9.144q.864 0 1.224-.036.36-.072.54-.288t.36-.612l1.692-3.78zm9.974 7.776a9.8 9.8 0 0 1-2.952-.432q-1.368-.432-2.232-1.404-.828-1.008-.936-2.628l2.088-.72q-.036 2.34 1.116 3.204t2.88.864q2.016 0 3.276-.864 1.296-.9 1.296-2.52 0-1.08-.72-1.872-.684-.828-2.412-1.368l-2.088-.684q-1.728-.54-2.7-1.728-.936-1.188-.936-2.844 0-1.332.648-2.592.684-1.26 2.124-2.088 1.44-.864 3.816-.864 2.34 0 3.708.828 1.404.828 1.836 2.124.468 1.296-.036 2.772l-2.952.576q.9-2.484.144-3.816t-2.88-1.332q-1.728 0-2.772.9-1.044.864-1.044 2.376 0 1.26.684 2.016.72.72 1.98 1.116l2.088.684q1.872.576 2.952 1.8 1.116 1.224 1.116 3.06 0 1.368-.756 2.628-.72 1.26-2.304 2.052-1.548.756-4.032.756"/><path fill="#ff6d6d" d="m96 78 5.774 10H90.227zm0 26h-1V87h2v17z"/><path fill="#4cfdf4" d="m119 104 5.774-10h-11.548zm0-26h-1v17h2V78z"/><path fill="#ff6d6d" d="m181 78 5.774 10h-11.548zm0 26h-1V87h2v17z"/><path fill="#4cfdf4" d="m204 104 5.774-10h-11.548zm0-26h-1v17h2V78z"/></svg>