<svg xmlns="http://www.w3.org/2000/svg" width="300" height="200" fill="none" viewBox="0 0 300 200"><path fill="#000" d="M0 0h300v200H0z"/><path fill="#fff" d="m51 9-5.773 10h11.547zm0 138h1V18h-2v129z"/><path fill="#fff" d="m140 146-10-5.774v11.548zm-90 0v1h81v-2H50zM13.528 73.68l1.568-7.392q-2.08-.096-3.616-.896-1.505-.832-2.112-2.688-.576-1.856.096-5.024l1.888-8.832H14.2l-1.92 8.928q-.512 2.4-.128 3.712.415 1.313 1.344 1.824a5.8 5.8 0 0 0 2.08.64l4.736-22.272h2.72l-4.704 22.24a6.5 6.5 0 0 0 2.784-.928q1.28-.768 2.208-2.24.96-1.472 1.472-3.712.352-1.472.448-2.784.128-1.313.096-2.624 0-1.313-.096-2.784h2.784q.096 1.44.128 2.752.032 1.313-.064 2.624a18 18 0 0 1-.416 2.72q-.736 3.264-2.272 5.28-1.504 2.016-3.488 2.976a11.4 11.4 0 0 1-4.096 1.088l-1.568 7.392zm25.227-25.088-.544 3.168h-6.944l.16-.864q.224-1.185.608-1.888.384-.705 1.056-1.184.704-.511 1.792-1.056 1.632-.833 2.24-1.664.608-.864.608-2.048 0-1.6-1.184-1.6-.993 0-1.504.736-.48.735-.608 2.144l-1.824-.256q0-1.312.96-2.336t2.912-1.024q1.791 0 2.528.8.736.768.736 1.824 0 1.025-.576 1.76-.576.705-1.632 1.312-1.056.575-2.528 1.28-1.088.512-1.696 1.12-.577.576-.832 1.536h4.16q.543 0 .672-.064.16-.064.256-.352l.544-1.344zM125.624 158.6q-.544 0-1.216.352-.64.352-1.376 1.28t-1.6 2.656L119.64 173h-2.624l2.336-13.248q.192-1.088.128-1.28-.064-.223-.544-.288l-1.76-.16.16-.864h5.024l-.576 3.328q1.248-1.984 2.56-2.816t2.56-.832q1.025 0 1.824.576t1.12 1.888l-2.24 1.504q-.257-1.216-.768-1.696-.48-.512-1.216-.512"/><path fill="#80ff6a" d="m85.864 192.168-.16.832h-6.176l.16-.832 1.76-.192a2.5 2.5 0 0 0 .544-.096q.192-.096.352-.416.193-.32.544-1.056l9.568-19.168h2.016l2.848 19.168q.16 1.088.288 1.312.127.192.576.256l1.728.192-.128.832h-7.68l.16-.832 1.792-.192q.544-.064.608-.256.096-.224-.064-1.312l-.576-4.096h-7.808l-2.048 4.096q-.544 1.088-.544 1.312 0 .192.512.256zm.864-6.88h7.136l-1.6-11.136zm129.08-13.184.16-.864h8.576q2.08 0 3.36.736 1.313.704 1.824 1.92.544 1.184.288 2.656l-.128.896q-.288 1.664-1.408 2.816-1.12 1.12-3.008 1.568 2.08.449 3.04 1.824t.64 3.328l-.16.864q-.352 2.336-2.208 3.744-1.824 1.408-4.96 1.408h-9.696l.16-.832 1.792-.192q.544-.064.672-.256.128-.224.32-1.312l2.912-16.576q.192-1.12.128-1.312t-.544-.256zm8.704.16h-3.488l-1.6 9.152h3.456q3.328 0 4-3.712l.224-1.312q.384-2.016-.288-3.072t-2.304-1.056m-.992 10.176h-4.288l-1.664 9.536h4.256q3.456 0 4.192-3.968l.224-1.312q.384-2.048-.32-3.136-.703-1.12-2.4-1.12"/><path stroke="#ffff32" stroke-linecap="round" stroke-width="3" d="M61.5 17s-2 93 40.5 124.5"/><path fill="#fff" d="m173 9-5.774 10h11.547zm0 138h1V18h-2v129z"/><path fill="#fff" d="m293 146-10-5.774v11.548zm-121 0v1h112v-2H172zm-36.472-72.32 1.568-7.392q-2.08-.096-3.616-.896-1.504-.832-2.112-2.688-.576-1.856.096-5.024l1.888-8.832h2.848l-1.92 8.928q-.512 2.4-.128 3.712.416 1.313 1.344 1.824.96.512 2.08.64l4.736-22.272h2.72l-4.704 22.24a6.5 6.5 0 0 0 2.784-.928q1.28-.768 2.208-2.24.96-1.472 1.472-3.712.352-1.472.448-2.784.127-1.313.096-2.624 0-1.313-.096-2.784h2.784q.096 1.44.128 2.752.032 1.313-.064 2.624a18.4 18.4 0 0 1-.416 2.72q-.736 3.264-2.272 5.28-1.504 2.016-3.488 2.976a11.4 11.4 0 0 1-4.096 1.088l-1.568 7.392zm25.227-25.088-.544 3.168h-6.944l.16-.864q.224-1.185.608-1.888.384-.705 1.056-1.184.703-.511 1.792-1.056 1.631-.833 2.24-1.664.608-.864.608-2.048 0-1.6-1.184-1.6-.993 0-1.504.736-.48.735-.608 2.144l-1.824-.256q0-1.312.96-2.336t2.912-1.024q1.791 0 2.528.8.736.768.736 1.824 0 1.025-.576 1.76-.576.705-1.632 1.312-1.056.575-2.528 1.28-1.089.512-1.696 1.12-.577.576-.832 1.536h4.16q.543 0 .672-.064.16-.064.256-.352l.544-1.344zM278.624 158.6q-.544 0-1.216.352-.64.352-1.376 1.28t-1.6 2.656L272.64 173h-2.624l2.336-13.248q.192-1.088.128-1.28-.064-.223-.544-.288l-1.76-.16.16-.864h5.024l-.576 3.328q1.248-1.984 2.56-2.816t2.56-.832q1.024 0 1.824.576t1.12 1.888l-2.24 1.504q-.257-1.216-.768-1.696-.48-.512-1.216-.512"/><path stroke="#ffff32" stroke-linecap="round" stroke-width="3" d="M183.5 17s17 127.5 29 127.5 13.5-38 22-38 6.5 26 37.5 38"/></svg>