<svg xmlns="http://www.w3.org/2000/svg" width="300" height="200" fill="none" viewBox="0 0 300 200"><g clip-path="url(#a)"><path fill="#000" d="M0 0h300v200H0z"/><path fill="url(#b)" d="M25 61h77c14 0-33.627 30.5-33.627 53.5S117.5 179 102 179H25z"/><path fill="url(#c)" d="M270.024 61h-77c-14 0 33.627 30.5 33.627 53.5S177.524 179 193.024 179h77z"/><path fill="#fff" d="M58.578 106.818 54.231 133h-2.326L40.08 111.075h-.205L36.231 133h-2.39l4.346-26.182h2.314l11.864 21.95h.205l3.656-21.95zM253.291 108.504q.09-2.301-1.368-3.605-1.445-1.304-4.052-1.304-1.815 0-3.324.639-1.496.627-2.467 1.726a4.96 4.96 0 0 0-1.189 2.506q-.166 1.035.153 1.815.32.768.984 1.33.666.562 1.522.959.869.396 1.764.664l2.646.793q1.176.345 2.34.882a8.4 8.4 0 0 1 2.071 1.342 4.86 4.86 0 0 1 1.342 1.982q.447 1.177.179 2.812a8.1 8.1 0 0 1-1.713 3.797q-1.343 1.662-3.528 2.634-2.187.971-5.05.971-2.671 0-4.5-.882-1.828-.895-2.698-2.467t-.664-3.643h2.454q-.14 1.546.575 2.62.73 1.074 2.071 1.637 1.356.549 3.12.549 1.956 0 3.592-.652 1.636-.664 2.698-1.841a5.3 5.3 0 0 0 1.329-2.761q.23-1.33-.319-2.237-.537-.907-1.675-1.521-1.125-.627-2.685-1.1l-2.991-.92q-2.928-.895-4.36-2.519-1.418-1.623-1.01-4.142a7.43 7.43 0 0 1 1.752-3.72q1.406-1.61 3.49-2.506 2.084-.894 4.5-.895 2.442 0 4.155.908 1.726.907 2.556 2.506.844 1.585.627 3.643z"/><circle cx="146.5" cy="119.5" r="47.5" fill="url(#d)"/><path stroke="#000" d="m98.95 135.415 95.978-29.5M98.739 144.356l95.978-29.499M95.989 128.187l95.978-29.499"/><path stroke="#fff" stroke-width="2" d="M38 36.5s38.5-14 113.5-14 111.5 14 111.5 14M43.032 34.252l-6-23M143 23.385V-.385M250.033 33.515l6-22.77M94.138 25.42 90.027 8.233M205.135 24.967l3.89-17.188"/><path fill="#feff53" d="M146.038 120.275a1.002 1.002 0 0 0 1.924-.55L147 120zM115 8l-2.804 11.201 11.103-3.172zm32 112 .962-.275-29.528-103.346-.962.275-.961.274 29.527 103.347z"/></g><defs><linearGradient id="b" x1="65.012" x2="65.012" y1="61" y2="179" gradientUnits="userSpaceOnUse"><stop stop-color="#ff3236"/><stop offset="1" stop-color="#991e20"/></linearGradient><linearGradient id="c" x1="230.012" x2="230.012" y1="61" y2="179" gradientUnits="userSpaceOnUse"><stop stop-color="#76eaff"/><stop offset="1" stop-color="#478d99"/></linearGradient><linearGradient id="d" x1="117" x2="183" y1="88.5" y2="152.5" gradientUnits="userSpaceOnUse"><stop stop-color="#d9d9d9"/><stop offset="1" stop-color="#737373"/></linearGradient><clipPath id="a"><path fill="#fff" d="M0 0h300v200H0z"/></clipPath></defs></svg>