<svg xmlns="http://www.w3.org/2000/svg" width="300" height="200" fill="none" viewBox="0 0 300 200"><path fill="#000" d="M0 0h300v200H0z"/><circle cx="150.5" cy="100.5" r="83.5" fill="url(#a)" stroke="url(#b)" stroke-width="4"/><path fill="#fff" d="m210 101-15-8.66v17.32zm-59 0v1.5h45.5v-3H151z"/><path stroke="#fff" stroke-dasharray="5 5" stroke-width="2" d="m151.631 100.776-64 52"/><path fill="#fff" d="M175.04 76.23q.72-1.41 2.04-2.19 1.35-.78 3.27-.78v2.82h-.72q-4.59 0-4.59 4.98V90h-2.73V73.56h2.73zM109.32 117l-4.98-8.55h-3.3V117h-2.73V96.09h6.75q2.37 0 3.99.81 1.65.81 2.46 2.19t.81 3.15q0 2.16-1.26 3.81-1.23 1.65-3.72 2.19l5.25 8.76zm-8.28-10.74h4.02q2.22 0 3.33-1.08 1.11-1.11 1.11-2.94 0-1.86-1.11-2.88-1.08-1.02-3.33-1.02h-4.02z"/><defs><linearGradient id="a" x1="150.5" x2="150.5" y1="15" y2="186" gradientUnits="userSpaceOnUse"><stop stop-color="#df9046"/><stop offset="1" stop-color="#794e26"/></linearGradient><linearGradient id="b" x1="150.5" x2="150.5" y1="15" y2="186" gradientUnits="userSpaceOnUse"><stop stop-color="#df9046"/><stop offset="1" stop-color="#794e26"/></linearGradient></defs></svg>