<svg xmlns="http://www.w3.org/2000/svg" width="300" height="200" fill="none" viewBox="0 0 300 200"><g clip-path="url(#a)"><path fill="#000" d="M0 0h300v200H0z"/><path fill="#fff" d="M112.72 119.89q-.78 0-1.32-.54t-.54-1.32.54-1.32 1.32-.54q.75 0 1.26.54.54.54.54 1.32t-.54 1.32q-.51.54-1.26.54m1.32 2.67V139h-2.73v-16.44zM95.511 135.227a2.46 2.46 0 0 1-1.804-.753 2.46 2.46 0 0 1-.752-1.804q0-1.05.752-1.804a2.46 2.46 0 0 1 1.804-.752q1.051 0 1.804.752.753.754.753 1.804 0 .696-.355 1.279a2.65 2.65 0 0 1-.923.937 2.43 2.43 0 0 1-1.279.341"/><path stroke="#fff" stroke-dasharray="5 5" stroke-width="2" d="M33 121.5c.167-13.167 3.3-42.4 14.5-54l17.5-11 64.5-20 63 15H240l33.5 29L267 111l-12 28-46.5 25-48 6.5L65 160l-27.5-13z"/><circle cx="96" cy="132" r="9.5" stroke="#fff"/><path fill="#fff" d="M259.2 33.17V31.1l10.53-14.58H273V30.8h3v2.37h-3V38h-2.7v-4.83zm11.22-13.8-8.07 11.43h8.07zm10.167-.48q-.78 0-1.32-.54t-.54-1.32.54-1.32 1.32-.54q.75 0 1.26.54.54.54.54 1.32t-.54 1.32q-.51.54-1.26.54m1.32 2.67V38h-2.73V21.56zM244.511 34.227q-1.05 0-1.804-.753a2.46 2.46 0 0 1-.752-1.803q0-1.052.752-1.805a2.46 2.46 0 0 1 1.804-.752 2.46 2.46 0 0 1 1.804.752 2.46 2.46 0 0 1 .753 1.805q0 .696-.355 1.278-.34.582-.923.937-.568.342-1.279.341"/><circle cx="245" cy="31" r="9.5" stroke="#fff"/><path fill="#fff" d="M231.8 77.77q.21-2.76 2.13-4.32t4.98-1.56q2.04 0 3.51.75 1.5.72 2.25 1.98.78 1.26.78 2.85 0 1.86-1.08 3.21-1.05 1.35-2.76 1.74v.15q1.95.48 3.09 1.89t1.14 3.69q0 1.71-.78 3.09-.78 1.35-2.34 2.13t-3.75.78q-3.18 0-5.22-1.65-2.04-1.68-2.28-4.74h2.64q.21 1.8 1.47 2.94t3.36 1.14 3.18-1.08q1.11-1.11 1.11-2.85 0-2.25-1.5-3.24t-4.53-.99h-.69V81.4h.72q2.76-.03 4.17-.9 1.41-.9 1.41-2.76 0-1.59-1.05-2.55-1.02-.96-2.94-.96-1.86 0-3 .96t-1.35 2.58zm19.586-2.88q-.78 0-1.32-.54t-.54-1.32.54-1.32 1.32-.54q.75 0 1.26.54.54.54.54 1.32t-.54 1.32q-.51.54-1.26.54m1.32 2.67V94h-2.73V77.56zM216.511 90.227q-1.05 0-1.804-.753a2.46 2.46 0 0 1-.752-1.803q0-1.052.752-1.805a2.46 2.46 0 0 1 1.804-.752 2.46 2.46 0 0 1 1.804.752 2.46 2.46 0 0 1 .753 1.805q0 .695-.355 1.278-.34.582-.923.937-.568.341-1.279.341"/><circle cx="217" cy="87" r="9.5" stroke="#fff"/><path fill="#fff" d="M128.53 80.81q3.81-3.06 5.97-5.01 2.16-1.98 3.63-4.11 1.5-2.16 1.5-4.23 0-1.95-.96-3.06-.93-1.14-3.03-1.14-2.04 0-3.18 1.29-1.11 1.26-1.2 3.39h-2.64q.12-3.36 2.04-5.19t4.95-1.83q3.09 0 4.89 1.71 1.83 1.71 1.83 4.71 0 2.49-1.5 4.86a21.4 21.4 0 0 1-3.36 4.14q-1.89 1.77-4.83 4.14h10.32v2.28h-14.43zm19.446-16.92q-.78 0-1.32-.54t-.54-1.32.54-1.32 1.32-.54q.75 0 1.26.54.54.54.54 1.32t-.54 1.32q-.51.54-1.26.54m1.32 2.67V83h-2.73V66.56zM111.712 84l-3.12-4.896-3 4.896h-2.28l4.248-6.528-4.248-6.624h2.472l3.12 4.872 2.976-4.872h2.28l-4.224 6.504L114.184 84z"/><path stroke="#fff" d="M109 65.5c6.332 0 11.5 5.353 11.5 12s-5.168 12-11.5 12-11.5-5.353-11.5-12 5.168-12 11.5-12Z"/><path fill="#fff" d="M200.2 141.17v-2.07l10.53-14.58H214v14.28h3v2.37h-3V146h-2.7v-4.83zm11.22-13.8-8.07 11.43h8.07zm10.167-.48q-.78 0-1.32-.54t-.54-1.32.54-1.32 1.32-.54q.75 0 1.26.54.54.54.54 1.32t-.54 1.32q-.51.54-1.26.54m1.32 2.67V146h-2.73v-16.44zM183.712 147l-3.12-4.896-3 4.896h-2.28l4.248-6.528-4.248-6.624h2.472l3.12 4.872 2.976-4.872h2.28l-4.224 6.504 4.248 6.648z"/><path stroke="#fff" d="M181 128.5c6.332 0 11.5 5.353 11.5 12s-5.168 12-11.5 12-11.5-5.353-11.5-12 5.168-12 11.5-12Z"/><path fill="#fff" d="M269.37 174.18q.3 1.71 1.38 2.64 1.11.93 2.97.93 2.49 0 3.66-1.95 1.2-1.95 1.14-6.57-.63 1.35-2.1 2.13-1.47.75-3.27.75-2.01 0-3.6-.81a6.1 6.1 0 0 1-2.46-2.43q-.9-1.59-.9-3.84 0-3.21 1.86-5.16 1.86-1.98 5.28-1.98 4.2 0 5.88 2.73 1.71 2.73 1.71 8.13 0 3.78-.69 6.24-.66 2.46-2.28 3.75-1.59 1.29-4.38 1.29-3.06 0-4.77-1.65t-1.95-4.2zm4.23-4.38q2.01 0 3.3-1.23 1.29-1.26 1.29-3.39 0-2.25-1.26-3.63t-3.54-1.38q-2.1 0-3.36 1.32-1.23 1.32-1.23 3.48 0 2.19 1.23 3.51t3.57 1.32m13.016-8.91q-.78 0-1.32-.54t-.54-1.32.54-1.32 1.32-.54q.75 0 1.26.54.54.54.54 1.32t-.54 1.32q-.51.54-1.26.54m1.32 2.67V180h-2.73v-16.44zM248.712 181l-3.12-4.896-3 4.896h-2.28l4.248-6.528-4.248-6.624h2.472l3.12 4.872 2.976-4.872h2.28l-4.224 6.504 4.248 6.648z"/><path stroke="#fff" d="M246 162.5c6.332 0 11.5 5.353 11.5 12s-5.168 12-11.5 12-11.5-5.353-11.5-12 5.168-12 11.5-12Z"/><path fill="#fff" d="m154.803 41.396-11.987-12.503-4.834 16.632z"/></g><defs><clipPath id="a"><path fill="#fff" d="M0 0h300v200H0z"/></clipPath></defs></svg>