<svg xmlns="http://www.w3.org/2000/svg" width="300" height="200" fill="none" viewBox="0 0 300 200"><path fill="#000" d="M0 0h300v200H0z"/><path fill="#f95a20" d="m62.449 63.364 1.815-11.007h-.204q-.537.895-1.432 1.84-.882.934-2.186 1.573-1.305.64-3.081.64-2.403 0-4.014-1.28-1.611-1.277-2.25-3.566-.626-2.289-.128-5.331.499-3.03 1.879-5.305 1.394-2.289 3.426-3.554a8.3 8.3 0 0 1 4.475-1.279q1.802 0 2.876.64 1.086.638 1.65 1.572a7 7 0 0 1 .804 1.802h.269l.64-3.745h2.224l-4.475 27zm-4.487-9.039q1.917 0 3.426-1.035 1.521-1.05 2.531-2.877 1.01-1.84 1.406-4.218.383-2.353-.025-4.155-.396-1.816-1.56-2.838-1.164-1.035-3.094-1.036-1.968 0-3.502 1.074-1.522 1.06-2.519 2.877t-1.368 4.078q-.384 2.288.013 4.129.41 1.84 1.572 2.927 1.176 1.074 3.12 1.074"/><path fill="#feff53" d="m30.368 108 3.273-19.636h2.211l-.511 3.017h.204a6.2 6.2 0 0 1 2.378-2.39q1.521-.883 3.452-.883 2.02 0 3.17.959 1.15.945 1.535 2.608h.166a6.8 6.8 0 0 1 2.595-2.596q1.674-.97 3.822-.971 2.724 0 4.027 1.726 1.304 1.725.755 5.011L55.245 108H52.97l2.199-13.155q.37-2.326-.6-3.49-.973-1.163-2.916-1.163-2.25 0-3.72 1.38-1.457 1.368-1.802 3.503L43.97 108h-2.327l2.237-13.36q.32-1.994-.576-3.221-.882-1.227-2.902-1.227a5.15 5.15 0 0 0-2.57.677 6.06 6.06 0 0 0-2.02 1.854q-.817 1.176-1.073 2.698L32.644 108zM137.591 10.15l14.726 9.118.534-17.312zm.723 19.69.056 1.499h.007l.019-.001.071-.003.27-.012a122.249 122.249 0 0 0 4.612-.323c2.968-.265 6.939-.722 10.911-1.495 3.947-.768 8.006-1.867 11.09-3.458 2.997-1.546 5.635-3.866 5.51-7.26l-1.499.055-1.499.055c.057 1.527-1.096 3.044-3.887 4.483-2.703 1.395-6.429 2.43-10.288 3.18-3.835.747-7.695 1.193-10.604 1.452a119 119 0 0 1-4.487.314l-.255.012-.063.002h-.015l-.004.001zm31.047-10.998 1.499-.055c-.136-3.713-3.457-5.902-6.976-7.215-3.663-1.366-8.341-2.101-12.663-2.5l-.137 1.494-.138 1.493c4.243.392 8.604 1.098 11.89 2.324 3.43 1.28 4.965 2.833 5.026 4.514z"/><path stroke="#fff" stroke-dasharray="5 5" d="M150.5 6v194"/><circle cx="149.5" cy="114.5" r="81.5" fill="url(#a)" opacity=".72"/><defs><linearGradient id="a" x1="149.5" x2="149.5" y1="33" y2="196" gradientUnits="userSpaceOnUse"><stop stop-color="#f95a20"/><stop offset="1" stop-color="#933513"/></linearGradient></defs></svg>