<svg xmlns="http://www.w3.org/2000/svg" width="300" height="200" fill="none" viewBox="0 0 300 200"><path fill="#000" d="M0 0h300v200H0z"/><path fill="#fff" d="m165.32 149-4.98-8.55h-3.3V149h-2.73v-20.91h6.75q2.37 0 3.99.81 1.65.81 2.46 2.19t.81 3.15q0 2.16-1.26 3.81-1.23 1.65-3.72 2.19l5.25 8.76zm-8.28-10.74h4.02q2.22 0 3.33-1.08 1.11-1.11 1.11-2.94 0-1.86-1.11-2.88-1.08-1.02-3.33-1.02h-4.02z"/><path stroke="#fff" stroke-dasharray="5 5" d="m152.316 99.612 65 53"/><circle cx="151.5" cy="100.5" r="83.5" stroke="url(#a)" stroke-width="4"/><circle cx="151.5" cy="100.5" r="79" stroke="url(#b)"/><circle cx="152" cy="101" r="80.5" stroke="url(#c)"/><path fill="#fff" d="M152.511 102.227q-1.05 0-1.804-.753a2.46 2.46 0 0 1-.752-1.803q0-1.052.752-1.805a2.46 2.46 0 0 1 1.804-.752 2.46 2.46 0 0 1 1.804.752 2.46 2.46 0 0 1 .753 1.805q0 .695-.355 1.278a2.65 2.65 0 0 1-.923.937 2.43 2.43 0 0 1-1.279.341M68 92l-8.66 15h17.32z"/><defs><linearGradient id="a" x1="151.5" x2="151.5" y1="15" y2="186" gradientUnits="userSpaceOnUse"><stop stop-color="#df9046"/><stop offset="1" stop-color="#794e26"/></linearGradient><linearGradient id="b" x1="151.5" x2="151.5" y1="21" y2="180" gradientUnits="userSpaceOnUse"><stop stop-color="#df9046"/><stop offset="1" stop-color="#794e26"/></linearGradient><linearGradient id="c" x1="152" x2="152" y1="20" y2="182" gradientUnits="userSpaceOnUse"><stop stop-color="#df9046"/><stop offset="1" stop-color="#794e26"/></linearGradient></defs></svg>