<svg xmlns="http://www.w3.org/2000/svg" width="300" height="200" fill="none" viewBox="0 0 300 200"><path fill="#000" d="M0 0h300v200H0z"/><circle cx="150.5" cy="100.5" r="81.5" stroke="#fff" stroke-dasharray="5 5" stroke-width="2"/><circle cx="150" cy="179" r="21" fill="url(#a)"/><path fill="#000" d="m150.966 191.909 1.21-7.338h-.136a7.2 7.2 0 0 1-.955 1.227 5 5 0 0 1-1.457 1.049q-.87.426-2.054.426-1.602 0-2.676-.853-1.074-.852-1.5-2.377-.418-1.526-.086-3.554.333-2.02 1.253-3.537.93-1.525 2.284-2.37a5.53 5.53 0 0 1 2.983-.852q1.203 0 1.918.426.724.426 1.099 1.049.375.613.537 1.201h.179l.426-2.497h1.483l-2.983 18zm-2.992-6.025q1.279 0 2.285-.691 1.014-.699 1.687-1.917.673-1.228.938-2.813.255-1.568-.018-2.77-.264-1.21-1.039-1.892-.776-.69-2.063-.69-1.312 0-2.335.716-1.014.707-1.679 1.917t-.912 2.719q-.256 1.526.009 2.753.272 1.227 1.048 1.952.785.716 2.079.716"/><circle cx="150" cy="100" r="4" fill="#d9d9d9"/><path fill="#feff53" d="m145 80.432 13.915 10.314 1.974-17.208zm9.111 35.861c.369 1.454.37 1.454.371 1.453h.002l.005-.002.016-.004.049-.013.171-.048c.144-.042.348-.104.601-.189a23 23 0 0 0 2.049-.799c1.658-.738 3.839-1.927 5.882-3.731 2.049-1.81 3.977-4.255 5.073-7.49 1.098-3.243 1.326-7.18.125-11.909l-1.454.37-1.454.369c1.077 4.236.832 7.577-.059 10.208-.894 2.639-2.473 4.663-4.217 6.203-1.749 1.545-3.644 2.585-5.115 3.239-.732.325-1.35.551-1.779.695q-.325.106-.49.154l-.12.033-.025.007-.003.001h.001c.001-.001.001-.001.371 1.453m12.89-22.363 1.454-.369c-1.749-6.886-5.352-10.807-9.342-12.916l-.701 1.326-.701 1.326c3.197 1.69 6.284 4.89 7.836 11.003zM198.72 94.364l-.332 1.981h-9.639l.319-1.981zM188.812 114l3.746-22.513q.256-1.585 1.164-2.672a6 6 0 0 1 2.198-1.649 6.45 6.45 0 0 1 2.621-.562q.895 0 1.458.153.563.141.882.281l-.972 1.995q-.255-.077-.614-.18-.345-.101-.907-.102-1.484 0-2.429.831-.947.831-1.215 2.378L191.088 114z"/><defs><linearGradient id="a" x1="150" x2="150" y1="158" y2="200" gradientUnits="userSpaceOnUse"><stop stop-color="#76eaff"/><stop offset="1" stop-color="#478d99"/></linearGradient></defs></svg>