<svg xmlns="http://www.w3.org/2000/svg" width="300" height="200" fill="none" viewBox="0 0 300 200"><path fill="#000" d="M0 0h300v200H0z"/><path stroke="url(#a)" stroke-width="4" d="M149.5 11c48.346 0 87.5 38.749 87.5 86.5 0 47.752-39.154 86.5-87.5 86.5S62 145.252 62 97.5C62 49.749 101.154 11 149.5 11Z"/><circle cx="149.5" cy="97.5" r="82" stroke="url(#b)"/><path stroke="url(#c)" d="M149.5 14.5c46.395 0 84 37.387 84 83.5s-37.605 83.5-84 83.5-84-37.387-84-83.5 37.605-83.5 84-83.5Z"/><path fill="#fff" d="m62 84-8.66 15h17.32zM48.161 136l2.727-16.364h1.907L50.069 136zm4.368-19.208q-.597 0-1.012-.405a1.3 1.3 0 0 1-.394-.98q.021-.543.437-.938a1.4 1.4 0 0 1 1.001-.404q.597 0 1.012.415.415.405.394.98a1.27 1.27 0 0 1-.436.938 1.43 1.43 0 0 1-1.002.394"/><path fill="#feff53" d="M254.148 151.182 250.526 173h-1.939l-9.854-18.271h-.171L235.526 173h-1.992l3.622-21.818h1.929l9.886 18.292h.17l3.047-18.292z"/><path fill="#76eaff" d="M136.67 107h-2.227l12.33-23.273h2.272L153.648 107h-2.228l-3.875-20.511h-.147zm3.091-8.92h11.546l-.318 1.909h-11.546z"/><defs><linearGradient id="a" x1="149.5" x2="149.5" y1="9" y2="186" gradientUnits="userSpaceOnUse"><stop stop-color="#df9046"/><stop offset="1" stop-color="#794e26"/></linearGradient><linearGradient id="b" x1="149.5" x2="149.5" y1="15" y2="180" gradientUnits="userSpaceOnUse"><stop stop-color="#df9046"/><stop offset="1" stop-color="#794e26"/></linearGradient><linearGradient id="c" x1="149.5" x2="149.5" y1="14" y2="182" gradientUnits="userSpaceOnUse"><stop stop-color="#df9046"/><stop offset="1" stop-color="#794e26"/></linearGradient></defs></svg>