<svg xmlns="http://www.w3.org/2000/svg" width="300" height="200" fill="none" viewBox="0 0 300 200"><path fill="#000" d="M0 0h300v200H0z"/><path fill="#feff53" d="m126.422 35.458-17.225 1.813 10.182 14.011zM44.878 94.717l.882 1.213 70.623-51.322-.882-1.213-.882-1.214-70.623 51.322z"/><circle cx="44.355" cy="97.212" r="30.5" fill="url(#a)" transform="rotate(.523 44.355 97.212)"/><path fill="#000" d="m44.141 115.074 1.916-10.99-.205-.002q-.545.89-1.448 1.828-.89.925-2.2 1.553-1.311.626-3.087.611-2.403-.022-4.002-1.315-1.6-1.293-2.218-3.587-.606-2.295-.079-5.332.525-3.026 1.928-5.288 1.413-2.277 3.458-3.523a8.3 8.3 0 0 1 4.486-1.237q1.803.015 2.87.665 1.08.65 1.635 1.587.555.925.789 1.81l.268.003.674-3.74 2.224.02-4.72 26.958zm-4.404-9.079q1.917.018 3.435-1.004 1.53-1.033 2.558-2.853 1.026-1.832 1.444-4.206.405-2.347.013-4.155-.38-1.818-1.534-2.852-1.154-1.046-3.084-1.063-1.969-.018-3.513 1.041-1.53 1.047-2.544 2.854-1.015 1.806-1.405 4.065-.405 2.285-.025 4.129.392 1.845 1.545 2.942 1.166 1.085 3.11 1.102"/><path fill="#fff" d="m283 148-15-8.66v17.32zm-154 0v1.5h140.5v-3H129zM195.841 191l4.347-26.182h8.833q2.557 0 4.117.895t2.148 2.442q.6 1.547.255 3.515-.268 1.637-1.01 2.8a6.5 6.5 0 0 1-1.802 1.879 7.2 7.2 0 0 1-2.263 1.036l-.038.204q1.252.09 2.313.895 1.061.793 1.586 2.225.537 1.431.217 3.426a8.15 8.15 0 0 1-1.483 3.541q-1.137 1.547-3.119 2.442-1.969.882-4.781.882zm2.748-2.148h6.929q3.03 0 4.705-1.342 1.674-1.343 2.033-3.375.243-1.496-.282-2.71-.523-1.227-1.713-1.943t-2.953-.716h-7.031zm2.046-12.209h6.66q1.548 0 2.813-.639a5.84 5.84 0 0 0 2.097-1.764 5.8 5.8 0 0 0 1.061-2.57q.357-2.083-.78-3.387-1.125-1.317-3.823-1.317h-6.443z"/><path fill="#feff53" d="m120.395 63.223 4.148 23.114.243.002 12.202-22.965 2.505.023-14.109 26.054-2.557-.023-4.938-26.228z"/><defs><linearGradient id="a" x1="44.355" x2="44.355" y1="66.712" y2="127.712" gradientUnits="userSpaceOnUse"><stop stop-color="#76eaff"/><stop offset="1" stop-color="#478d99"/></linearGradient></defs></svg>