<svg xmlns="http://www.w3.org/2000/svg" width="300" height="200" fill="none" viewBox="0 0 300 200"><path fill="#000" d="M0 0h300v200H0z"/><path stroke="#fff" stroke-dasharray="5 5" d="M103 99.5h164"/><path fill="#fff" d="M269.511 102.227q-1.05 0-1.804-.753a2.46 2.46 0 0 1-.752-1.803q0-1.052.752-1.805a2.46 2.46 0 0 1 1.804-.752 2.46 2.46 0 0 1 1.804.752 2.46 2.46 0 0 1 .753 1.805q0 .695-.355 1.278a2.65 2.65 0 0 1-.923.937 2.43 2.43 0 0 1-1.279.341M292.29 94.21q0 2.61-1.8 4.35-1.77 1.71-5.43 1.71h-4.02V109h-2.73V88.09h6.75q3.54 0 5.37 1.71 1.86 1.71 1.86 4.41m-7.23 3.81q2.28 0 3.36-.99t1.08-2.82q0-3.87-4.44-3.87h-4.02v7.68zM83.968 53.616a1.92 1.92 0 0 1-1.408-.576 1.92 1.92 0 0 1-.576-1.408q0-.832.576-1.408a1.92 1.92 0 0 1 1.408-.576q.8 0 1.344.576.576.576.576 1.408t-.576 1.408q-.544.576-1.344.576m1.408 2.848V74h-2.912V56.464zM149.376 109.312a5.6 5.6 0 0 1 2.176-2.336q1.44-.832 3.488-.832v3.008h-.768q-4.896 0-4.896 5.312V124h-2.912v-17.536h2.912z"/><path stroke="url(#a)" stroke-width="4" d="M105 6v194"/><path fill="#fff" d="M208.226 114.95v1.797h-7.972v-1.797zm1.176-.196v1.993q0 2.564-.637 4.223t-1.797 2.458q-1.16.801-2.728.801t-2.744-.801q-1.176-.8-1.83-2.458-.653-1.659-.653-4.223v-1.993q0-2.549.645-4.173.645-1.626 1.813-2.402t2.736-.776q1.585 0 2.753.776t1.805 2.402q.637 1.624.637 4.173m-1.96 2.353v-2.712q0-1.683-.409-2.859-.408-1.176-1.135-1.788a2.54 2.54 0 0 0-1.691-.613q-1.42 0-2.344 1.372-.923 1.364-.923 3.888v2.712q0 2.523.94 3.961.94 1.43 2.36 1.429.964 0 1.683-.645t1.119-1.854.4-2.891m6.556 9.768v-8.249h-.081l-2.581 1.715v-1.732l2.662-1.764h1.699v10.03zM203.226 79.95v1.797h-7.972V79.95zm1.176-.196v1.993q0 2.565-.637 4.223t-1.797 2.458-2.728.8-2.744-.8-1.83-2.458q-.653-1.658-.653-4.223v-1.993q0-2.548.645-4.173t1.813-2.402 2.736-.776q1.585 0 2.753.776t1.805 2.402.637 4.173m-1.96 2.352v-2.711q0-1.683-.409-2.859-.408-1.176-1.135-1.788a2.55 2.55 0 0 0-1.691-.613q-1.42 0-2.344 1.372-.923 1.364-.923 3.888v2.712q0 2.523.94 3.96.94 1.43 2.36 1.43a2.44 2.44 0 0 0 1.683-.645q.719-.645 1.119-1.854t.4-2.892m4.122 9.769v-1.274l3.823-3.398q.571-.507.955-.907.385-.4.58-.775.196-.376.196-.8 0-.735-.563-1.169-.563-.433-1.397-.433-.882 0-1.421.474-.539.465-.539 1.225h-1.699q0-1.396 1.037-2.246 1.038-.858 2.655-.858 1.078 0 1.895.392.816.385 1.274 1.062.457.67.457 1.52 0 .67-.269 1.241-.27.572-.842 1.184-.572.613-1.47 1.397l-2.123 1.862v.066h4.998v1.437z"/><path stroke="#f9f9f9" stroke-width="2" d="M230.357 100c.398 13.2 7.765 15.635 11.398 15.202M235.772 82.007c-11.84 5.85-10.991 13.562-9.087 16.686"/><path stroke="#fff" stroke-dasharray="5 5" d="m105.737 199.575 162-100M103.241 8.562l165 91"/><path fill="#fff" d="m105 65-5.773 10h11.547z"/><defs><linearGradient id="a" x1="102.5" x2="102.5" y1="6" y2="200" gradientUnits="userSpaceOnUse"><stop stop-color="#df9046"/><stop offset="1" stop-color="#794e26"/></linearGradient></defs></svg>