<svg xmlns="http://www.w3.org/2000/svg" width="300" height="200" fill="none" viewBox="0 0 300 200"><path fill="#000" d="M0 0h300v200H0z"/><path stroke="#6c6c6c" stroke-dasharray="5 5" stroke-width="2" d="M112 88.746c0 42.938 11.982 77.746 26.762 77.746"/><mask id="a" fill="#fff"><path d="M157.352 12.746c-12.02 0-23.087 8.36-31.205 22.276C118.044 48.912 113 68.169 113 89.492h-2c0-21.614 5.109-41.23 13.42-55.478 8.297-14.223 19.905-23.268 32.932-23.268z"/></mask><path fill="#6c6c6c" d="M157.352 12.746v1h1v-1zm-31.205 22.276-.863-.504zM113 89.492v1h1v-1zm-2 0h-1v1h1zm13.42-55.478-.864-.504zm32.932-23.268h1v-1h-1zm0 2v-1q-1.31 0-2.602.126l.096.996.097.995a25 25 0 0 1 2.409-.117zm-7.423 1.079-.282-.96a30 30 0 0 0-4.827 1.889l.442.897.441.898a28 28 0 0 1 4.507-1.765zm-8.984 4.374-.569-.823a41 41 0 0 0-4.029 3.192l.668.745.668.744a39 39 0 0 1 3.831-3.036zm-7.475 6.663-.743-.67a56 56 0 0 0-3.237 3.95l.801.6.801.598a54 54 0 0 1 3.122-3.81zm-6.019 8.013-.846-.534q-.673 1.065-1.321 2.177l.863.504.864.503q.631-1.08 1.285-2.115zm-1.304 2.147-.863-.504a76 76 0 0 0-1.172 2.083l.88.477.879.476q.56-1.033 1.14-2.029zm-3.279 6.272-.906-.424q-.996 2.13-1.906 4.378l.927.375.927.375a87 87 0 0 1 1.863-4.28zm-3.546 8.749-.944-.329a102 102 0 0 0-1.462 4.539l.958.285.959.285q.675-2.273 1.434-4.452zm-2.693 9.048-.97-.243a116 116 0 0 0-1.06 4.643l.979.203.979.203q.48-2.318 1.042-4.563zm-1.916 9.246-.987-.164q-.386 2.326-.688 4.708l.992.126.992.126q.297-2.344.677-4.632zm-1.191 9.366-.996-.089a132 132 0 0 0-.338 4.744l.999.053.999.053q.125-2.358.332-4.672zm-.501 9.427-1-.017q-.021 1.185-.021 2.38h2q0-1.177.021-2.345zM113 89.492v-1h-.5v2h.5zm-1.5 0v-1h-.5v2h.5zm-.5 0h1q0-1.198.021-2.388l-1-.017-1-.018Q110 88.277 110 89.492zm.191-7.213.999.054q.128-2.403.34-4.76l-.996-.09-.996-.09a133 133 0 0 0-.345 4.833zm.862-9.579.992.127q.304-2.388.692-4.72l-.986-.164-.986-.164q-.395 2.37-.704 4.795zm1.582-9.486.979.203a114 114 0 0 1 1.065-4.647l-.97-.244-.97-.243q-.585 2.327-1.083 4.728zm2.346-9.325.958.286q.69-2.314 1.464-4.534l-.944-.33-.944-.329a105 105 0 0 0-1.493 4.622zm3.173-9.079.927.376a89 89 0 0 1 1.901-4.36l-.905-.424-.906-.424a91 91 0 0 0-1.944 4.457zm4.088-8.702.879.476q.571-1.05 1.163-2.067l-.864-.503-.864-.504a79 79 0 0 0-1.193 2.121zm1.178-2.094.864.503q.662-1.135 1.352-2.225l-.844-.535-.845-.535q-.71 1.12-1.391 2.288zm4.369-6.6.799.601a56 56 0 0 1 3.3-3.996l-.741-.673-.74-.672a58 58 0 0 0-3.417 4.139zm7.108-7.781.663.748a40.5 40.5 0 0 1 4.056-3.17l-.563-.826-.564-.827a43 43 0 0 0-4.256 3.326zm8.717-5.894.435.9a30 30 0 0 1 4.764-1.825l-.275-.962-.276-.96a32 32 0 0 0-5.082 1.946zm10.102-2.869.094.996q1.26-.12 2.542-.12v-2q-1.376 0-2.73.129zm2.636-.124h-1v.5h2v-.5zm0 1.5h-1v.5h2v-.5zm0 .5v2h2v-2zm-31.205 22.276-1.727-1.008zM113 89.492v2h2v-2zm-2 0h-2v2h2zm13.42-55.478-1.728-1.008zm32.932-23.268h2v-2h-2zm0 2v-2q-1.358 0-2.699.131l.193 1.99.194 1.991a24 24 0 0 1 2.312-.112zm-7.423 1.079-.564-1.92a31 31 0 0 0-4.986 1.952l.883 1.794.882 1.795a27.3 27.3 0 0 1 4.348-1.702zm-8.984 4.374-1.138-1.645a42 42 0 0 0-4.127 3.27l1.335 1.489 1.336 1.489a38 38 0 0 1 3.732-2.959zm-7.475 6.663-1.486-1.339a58 58 0 0 0-3.295 4.02l1.602 1.199 1.602 1.197a53 53 0 0 1 3.064-3.74zm-6.019 8.013-1.691-1.068q-.683 1.08-1.34 2.207l1.727 1.008 1.728 1.007q.623-1.066 1.266-2.085zm-1.304 2.147-1.727-1.008a78 78 0 0 0-1.187 2.11l1.759.953 1.758.953a72 72 0 0 1 1.125-2zm-3.279 6.272-1.812-.848a90 90 0 0 0-1.927 4.427l1.854.75 1.854.75a86 86 0 0 1 1.842-4.231zm-3.546 8.749-1.888-.658a105 105 0 0 0-1.477 4.583l1.917.57 1.917.57q.67-2.25 1.42-4.408zm-2.693 9.048-1.94-.486a116 116 0 0 0-1.07 4.683l1.959.406 1.958.405q.476-2.298 1.033-4.522zm-1.916 9.246-1.973-.327q-.39 2.344-.695 4.745l1.985.252 1.984.252q.295-2.326.672-4.594zm-1.191 9.366-1.992-.178a132 132 0 0 0-.34 4.78l1.997.106 1.997.106q.124-2.34.33-4.636zm-.501 9.427-2-.035a136 136 0 0 0-.021 2.397h4q0-1.167.02-2.327zM113 89.492v-2h-.5v4h.5zm-1.5 0v-2h-.5v4h.5zm-.5 0h2q0-1.19.021-2.37l-2-.035-2-.036Q109 88.268 109 89.492zm.191-7.213 1.997.107q.128-2.385.338-4.724l-1.992-.179-1.992-.178a133 133 0 0 0-.348 4.868zm.862-9.579 1.984.253q.302-2.37.687-4.681l-1.973-.329-1.973-.328a127 127 0 0 0-.709 4.833zm1.582-9.486 1.958.407a114 114 0 0 1 1.056-4.607l-1.94-.488-1.94-.487a119 119 0 0 0-1.093 4.769zm2.346-9.325 1.916.572a101 101 0 0 1 1.451-4.49l-1.889-.66-1.888-.658a106 106 0 0 0-1.507 4.665zm3.173-9.079 1.853.751a89 89 0 0 1 1.881-4.31l-1.811-.849-1.811-.849a93 93 0 0 0-1.966 4.506zm4.088-8.702 1.759.953q.563-1.038 1.146-2.04l-1.727-1.007-1.728-1.008a81 81 0 0 0-1.208 2.149zm1.178-2.094 1.727 1.007a72 72 0 0 1 1.334-2.194l-1.689-1.07-1.69-1.07q-.72 1.136-1.41 2.319zm4.369-6.6 1.598 1.202a55 55 0 0 1 3.241-3.925l-1.481-1.345-1.48-1.345a59 59 0 0 0-3.476 4.21zm7.108-7.781 1.326 1.497a39.5 39.5 0 0 1 3.956-3.092l-1.126-1.653-1.127-1.653a44 44 0 0 0-4.356 3.404zm8.717-5.894.869 1.801a29 29 0 0 1 4.606-1.765l-.551-1.923-.552-1.922a33 33 0 0 0-5.24 2.007zm10.102-2.869.188 1.991a26 26 0 0 1 2.448-.115v-4q-1.423 0-2.824.133zm2.636-.124h-2v.5h4v-.5zm0 1.5h-2v.5h4v-.5z" mask="url(#a)"/><mask id="b" fill="#fff"><path d="M195.352 12.746c-12.02 0-23.087 8.36-31.205 22.276C156.044 48.912 151 68.169 151 89.492h-2c0-21.614 5.109-41.23 13.42-55.478 8.297-14.223 19.905-23.268 32.932-23.268z"/></mask><path fill="#6c6c6c" d="M195.352 12.746v1h1v-1zm-31.205 22.276-.863-.504zM151 89.492v1h1v-1zm-2 0h-1v1h1zm13.42-55.478-.864-.504zm32.932-23.268h1v-1h-1zm0 2v-1q-1.31 0-2.602.126l.096.996.097.995a25 25 0 0 1 2.409-.117zm-7.423 1.079-.282-.96a30 30 0 0 0-4.827 1.889l.442.897.441.898a28 28 0 0 1 4.507-1.765zm-8.984 4.374-.569-.823a41 41 0 0 0-4.029 3.192l.668.745.668.744a39 39 0 0 1 3.831-3.036zm-7.475 6.663-.743-.67a56 56 0 0 0-3.237 3.95l.801.6.801.598a54 54 0 0 1 3.122-3.81zm-6.019 8.013-.846-.534q-.673 1.065-1.321 2.177l.863.504.864.503q.631-1.08 1.285-2.115zm-1.304 2.147-.863-.504a76 76 0 0 0-1.172 2.083l.88.477.879.476q.56-1.033 1.14-2.029zm-3.279 6.272-.906-.424q-.996 2.13-1.906 4.378l.927.375.927.375a87 87 0 0 1 1.863-4.28zm-3.546 8.749-.944-.329a102 102 0 0 0-1.462 4.539l.958.285.959.285q.675-2.273 1.434-4.452zm-2.693 9.048-.97-.243a116 116 0 0 0-1.06 4.643l.979.203.979.203q.48-2.318 1.042-4.563zm-1.916 9.246-.987-.164q-.386 2.326-.688 4.708l.992.126.992.126q.297-2.344.677-4.632zm-1.191 9.366-.996-.089a132 132 0 0 0-.338 4.744l.999.053.999.053q.125-2.358.332-4.672zm-.501 9.427-1-.017q-.021 1.185-.021 2.38h2q0-1.177.021-2.345zM151 89.492v-1h-.5v2h.5zm-1.5 0v-1h-.5v2h.5zm-.5 0h1q0-1.198.021-2.388l-1-.017-1-.018Q148 88.277 148 89.492zm.191-7.213.999.054q.128-2.403.34-4.76l-.996-.09-.996-.09a133 133 0 0 0-.345 4.833zm.862-9.579.992.127q.304-2.388.692-4.72l-.986-.164-.986-.164q-.395 2.37-.704 4.795zm1.582-9.486.979.203a114 114 0 0 1 1.065-4.647l-.97-.244-.97-.243q-.585 2.327-1.083 4.728zm2.346-9.325.958.286q.69-2.314 1.464-4.534l-.944-.33-.944-.329a105 105 0 0 0-1.493 4.622zm3.173-9.079.927.376a89 89 0 0 1 1.901-4.36l-.905-.424-.906-.424a91 91 0 0 0-1.944 4.457zm4.088-8.702.879.476q.571-1.05 1.163-2.067l-.864-.503-.864-.504a79 79 0 0 0-1.193 2.121zm1.178-2.094.864.503q.662-1.135 1.352-2.225l-.844-.535-.845-.535q-.71 1.12-1.391 2.288zm4.369-6.6.799.601a56 56 0 0 1 3.3-3.996l-.741-.673-.74-.672a58 58 0 0 0-3.417 4.139zm7.108-7.781.663.748a40.5 40.5 0 0 1 4.056-3.17l-.563-.826-.564-.827a43 43 0 0 0-4.256 3.326zm8.717-5.894.435.9a30 30 0 0 1 4.764-1.825l-.275-.962-.276-.96a32 32 0 0 0-5.082 1.946zm10.102-2.869.094.996q1.26-.12 2.542-.12v-2q-1.375 0-2.73.129zm2.636-.124h-1v.5h2v-.5zm0 1.5h-1v.5h2v-.5zm0 .5v2h2v-2zm-31.205 22.276-1.727-1.008zM151 89.492v2h2v-2zm-2 0h-2v2h2zm13.42-55.478-1.728-1.008zm32.932-23.268h2v-2h-2zm0 2v-2q-1.358 0-2.699.131l.193 1.99.194 1.991a24 24 0 0 1 2.312-.112zm-7.423 1.079-.564-1.92a31 31 0 0 0-4.986 1.952l.883 1.794.882 1.795a27.3 27.3 0 0 1 4.348-1.702zm-8.984 4.374-1.138-1.645a42 42 0 0 0-4.127 3.27l1.335 1.489 1.336 1.489a38 38 0 0 1 3.732-2.959zm-7.475 6.663-1.486-1.339a58 58 0 0 0-3.295 4.02l1.602 1.199 1.602 1.197a53 53 0 0 1 3.064-3.74zm-6.019 8.013-1.691-1.068q-.683 1.08-1.34 2.207l1.727 1.008 1.728 1.007q.623-1.066 1.266-2.085zm-1.304 2.147-1.727-1.008a78 78 0 0 0-1.187 2.11l1.759.953 1.758.953a72 72 0 0 1 1.125-2zm-3.279 6.272-1.812-.848a90 90 0 0 0-1.927 4.427l1.854.75 1.854.75a86 86 0 0 1 1.842-4.231zm-3.546 8.749-1.888-.658a105 105 0 0 0-1.477 4.583l1.917.57 1.917.57q.67-2.25 1.42-4.408zm-2.693 9.048-1.94-.486a116 116 0 0 0-1.07 4.683l1.959.406 1.958.405q.476-2.298 1.033-4.522zm-1.916 9.246-1.973-.327q-.39 2.344-.695 4.745l1.985.252 1.984.252q.295-2.326.672-4.594zm-1.191 9.366-1.992-.178a132 132 0 0 0-.34 4.78l1.997.106 1.997.106q.124-2.34.33-4.636zm-.501 9.427-2-.035a136 136 0 0 0-.021 2.397h4q0-1.167.02-2.327zM151 89.492v-2h-.5v4h.5zm-1.5 0v-2h-.5v4h.5zm-.5 0h2q0-1.19.021-2.37l-2-.035-2-.036Q147 88.268 147 89.492zm.191-7.213 1.997.107q.128-2.385.338-4.724l-1.992-.179-1.992-.178a133 133 0 0 0-.348 4.868zm.862-9.579 1.984.253q.302-2.37.687-4.681l-1.973-.329-1.973-.328a127 127 0 0 0-.709 4.833zm1.582-9.486 1.958.407a114 114 0 0 1 1.056-4.607l-1.94-.488-1.94-.487a119 119 0 0 0-1.093 4.769zm2.346-9.325 1.916.572a101 101 0 0 1 1.451-4.49l-1.889-.66-1.888-.658a106 106 0 0 0-1.507 4.665zm3.173-9.079 1.853.751a89 89 0 0 1 1.881-4.31l-1.811-.849-1.811-.849a93 93 0 0 0-1.966 4.506zm4.088-8.702 1.759.953q.563-1.038 1.146-2.04l-1.727-1.007-1.728-1.008a81 81 0 0 0-1.208 2.149zm1.178-2.094 1.727 1.007a72 72 0 0 1 1.334-2.194l-1.689-1.07-1.69-1.07q-.72 1.136-1.41 2.319zm4.369-6.6 1.598 1.202a55 55 0 0 1 3.241-3.925l-1.481-1.345-1.48-1.345a59 59 0 0 0-3.476 4.21zm7.108-7.781 1.326 1.497a39.5 39.5 0 0 1 3.956-3.092l-1.126-1.653-1.127-1.653a44 44 0 0 0-4.356 3.404zm8.717-5.894.869 1.801a29 29 0 0 1 4.606-1.765l-.551-1.923-.552-1.922a33 33 0 0 0-5.24 2.007zm10.102-2.869.188 1.991a26 26 0 0 1 2.448-.115v-4q-1.423 0-2.824.133zm2.636-.124h-2v.5h4v-.5zm0 1.5h-2v.5h4v-.5z" mask="url(#b)"/><path stroke="#6c6c6c" stroke-dasharray="5 5" stroke-width="2" d="M150 88.746c0 42.938 11.982 77.746 26.762 77.746"/><mask id="c" fill="#fff"><path d="M232.352 12.746c-12.02 0-23.087 8.36-31.205 22.276C193.044 48.912 188 68.169 188 89.492h-2c0-21.614 5.109-41.23 13.42-55.478 8.297-14.223 19.905-23.268 32.932-23.268z"/></mask><path fill="#6c6c6c" d="M232.352 12.746v1h1v-1zm-31.205 22.276-.863-.504zM188 89.492v1h1v-1zm-2 0h-1v1h1zm13.42-55.478-.864-.504zm32.932-23.268h1v-1h-1zm0 2v-1q-1.31 0-2.602.126l.096.996.097.995a25 25 0 0 1 2.409-.117zm-7.423 1.079-.282-.96a30 30 0 0 0-4.827 1.889l.442.897.441.898a28 28 0 0 1 4.507-1.765zm-8.984 4.374-.569-.823a41 41 0 0 0-4.029 3.192l.668.745.668.744a39 39 0 0 1 3.831-3.036zm-7.475 6.663-.743-.67a56 56 0 0 0-3.237 3.95l.801.6.801.598a54 54 0 0 1 3.122-3.81zm-6.019 8.013-.846-.534q-.673 1.065-1.321 2.177l.863.504.864.503q.631-1.08 1.285-2.115zm-1.304 2.147-.863-.504a76 76 0 0 0-1.172 2.083l.88.477.879.476q.56-1.033 1.14-2.029zm-3.279 6.272-.906-.424q-.997 2.13-1.906 4.378l.927.375.927.375a87 87 0 0 1 1.863-4.28zm-3.546 8.749-.944-.329a102 102 0 0 0-1.462 4.539l.958.285.959.285q.675-2.273 1.434-4.452zm-2.693 9.048-.97-.243a116 116 0 0 0-1.06 4.643l.979.203.979.203q.48-2.318 1.042-4.563zm-1.916 9.246-.987-.164q-.386 2.326-.688 4.708l.992.126.992.126q.297-2.344.677-4.632zm-1.191 9.366-.996-.089a132 132 0 0 0-.338 4.744l.999.053.999.053q.125-2.358.332-4.672zm-.501 9.427-1-.017q-.021 1.185-.021 2.38h2q0-1.177.021-2.345zM188 89.492v-1h-.5v2h.5zm-1.5 0v-1h-.5v2h.5zm-.5 0h1q0-1.198.021-2.388l-1-.017-1-.018Q185 88.277 185 89.492zm.191-7.213.999.054q.128-2.403.34-4.76l-.996-.09-.996-.09a133 133 0 0 0-.345 4.833zm.862-9.579.992.127q.304-2.388.692-4.72l-.986-.164-.986-.164q-.395 2.37-.704 4.795zm1.582-9.486.979.203a114 114 0 0 1 1.065-4.647l-.97-.244-.97-.243q-.585 2.327-1.083 4.728zm2.346-9.325.958.286q.69-2.314 1.464-4.534l-.944-.33-.944-.329a105 105 0 0 0-1.493 4.622zm3.173-9.079.927.376a89 89 0 0 1 1.901-4.36l-.905-.424-.906-.424a91 91 0 0 0-1.944 4.457zm4.088-8.702.879.476q.571-1.05 1.163-2.067l-.864-.503-.864-.504a79 79 0 0 0-1.193 2.121zm1.178-2.094.864.503q.662-1.135 1.352-2.225l-.844-.535-.845-.535q-.71 1.12-1.391 2.288zm4.369-6.6.799.601a56 56 0 0 1 3.3-3.996l-.741-.673-.74-.672a58 58 0 0 0-3.417 4.139zm7.108-7.781.663.748a40.5 40.5 0 0 1 4.056-3.17l-.563-.826-.564-.827a43 43 0 0 0-4.256 3.326zm8.717-5.894.435.9a30 30 0 0 1 4.764-1.825l-.275-.962-.276-.96a32 32 0 0 0-5.082 1.946zm10.102-2.869.094.996q1.26-.12 2.542-.12v-2q-1.375 0-2.73.129zm2.636-.124h-1v.5h2v-.5zm0 1.5h-1v.5h2v-.5zm0 .5v2h2v-2zm-31.205 22.276-1.727-1.008zM188 89.492v2h2v-2zm-2 0h-2v2h2zm13.42-55.478-1.728-1.008zm32.932-23.268h2v-2h-2zm0 2v-2q-1.358 0-2.699.131l.193 1.99.194 1.991a24 24 0 0 1 2.312-.112zm-7.423 1.079-.564-1.92a31 31 0 0 0-4.986 1.952l.883 1.794.882 1.795a27.3 27.3 0 0 1 4.348-1.702zm-8.984 4.374-1.138-1.645a42 42 0 0 0-4.127 3.27l1.335 1.489 1.336 1.489a38 38 0 0 1 3.732-2.959zm-7.475 6.663-1.486-1.339a58 58 0 0 0-3.295 4.02l1.602 1.199 1.602 1.197a53 53 0 0 1 3.064-3.74zm-6.019 8.013-1.691-1.068q-.683 1.08-1.34 2.207l1.727 1.008 1.728 1.007q.623-1.066 1.266-2.085zm-1.304 2.147-1.727-1.008a78 78 0 0 0-1.187 2.11l1.759.953 1.758.953a72 72 0 0 1 1.125-2zm-3.279 6.272-1.812-.848a90 90 0 0 0-1.927 4.427l1.854.75 1.854.75a86 86 0 0 1 1.842-4.231zm-3.546 8.749-1.888-.658a105 105 0 0 0-1.477 4.583l1.917.57 1.917.57q.67-2.25 1.42-4.408zm-2.693 9.048-1.94-.486a116 116 0 0 0-1.07 4.683l1.959.406 1.958.405q.476-2.298 1.033-4.522zm-1.916 9.246-1.973-.327q-.39 2.344-.695 4.745l1.985.252 1.984.252q.295-2.326.672-4.594zm-1.191 9.366-1.992-.178a132 132 0 0 0-.34 4.78l1.997.106 1.997.106q.125-2.34.33-4.636zm-.501 9.427-2-.035a136 136 0 0 0-.021 2.397h4q0-1.167.02-2.327zM188 89.492v-2h-.5v4h.5zm-1.5 0v-2h-.5v4h.5zm-.5 0h2q0-1.19.021-2.37l-2-.035-2-.036Q184 88.268 184 89.492zm.191-7.213 1.997.107q.128-2.385.338-4.724l-1.992-.179-1.992-.178a133 133 0 0 0-.348 4.868zm.862-9.579 1.984.253q.301-2.37.687-4.681l-1.973-.329-1.973-.328a127 127 0 0 0-.709 4.833zm1.582-9.486 1.958.407a114 114 0 0 1 1.056-4.607l-1.94-.488-1.94-.487a119 119 0 0 0-1.093 4.769zm2.346-9.325 1.916.572a101 101 0 0 1 1.451-4.49l-1.889-.66-1.888-.658a106 106 0 0 0-1.507 4.665zm3.173-9.079 1.853.751a89 89 0 0 1 1.881-4.31l-1.811-.849-1.811-.849a93 93 0 0 0-1.966 4.506zm4.088-8.702 1.759.953q.563-1.038 1.146-2.04l-1.727-1.007-1.728-1.008a81 81 0 0 0-1.208 2.149zm1.178-2.094 1.727 1.007a72 72 0 0 1 1.334-2.194l-1.689-1.07-1.69-1.07q-.72 1.136-1.41 2.319zm4.369-6.6 1.598 1.202a55 55 0 0 1 3.241-3.925l-1.481-1.345-1.48-1.345a59 59 0 0 0-3.476 4.21zm7.108-7.781 1.326 1.497a39.5 39.5 0 0 1 3.956-3.092l-1.126-1.653-1.127-1.653a44 44 0 0 0-4.356 3.404zm8.717-5.894.869 1.801a29 29 0 0 1 4.606-1.765l-.551-1.923-.552-1.922a33 33 0 0 0-5.24 2.007zm10.102-2.869.188 1.991a26 26 0 0 1 2.448-.115v-4q-1.423 0-2.824.133zm2.636-.124h-2v.5h4v-.5zm0 1.5h-2v.5h4v-.5z" mask="url(#c)"/><mask id="d" fill="#fff"><path d="M120.352 12.746c-12.02 0-23.087 8.36-31.205 22.276C81.045 48.912 76 68.169 76 89.492h-2c0-21.614 5.109-41.23 13.42-55.478 8.296-14.223 19.905-23.268 32.932-23.268z"/></mask><path fill="#6c6c6c" d="M120.352 12.746v1h1v-1zM89.147 35.022l-.863-.504zM76 89.492v1h1v-1zm-2 0h-1v1h1zm13.42-55.478-.864-.504zm32.932-23.268h1v-1h-1zm0 2v-1q-1.31 0-2.602.126l.096.996.097.995a25 25 0 0 1 2.409-.117zm-7.423 1.079-.282-.96a30 30 0 0 0-4.827 1.889l.442.897.441.898a28 28 0 0 1 4.507-1.765zm-8.984 4.374-.569-.823a41 41 0 0 0-4.029 3.192l.668.745.668.744a39 39 0 0 1 3.831-3.036zm-7.474 6.663-.744-.67a56 56 0 0 0-3.237 3.95l.801.6.8.598a54 54 0 0 1 3.123-3.81zm-6.02 8.013-.846-.534a72 72 0 0 0-1.321 2.177l.863.504.864.503q.63-1.08 1.285-2.115zm-1.303 2.147-.864-.504a76 76 0 0 0-1.172 2.083l.88.477.879.476q.56-1.033 1.14-2.029zm-3.28 6.272-.906-.424q-.997 2.13-1.906 4.378l.927.375.927.375a87 87 0 0 1 1.863-4.28zm-3.546 8.749-.944-.329a103 103 0 0 0-1.462 4.539l.958.285.959.285q.675-2.273 1.434-4.452zM79.63 59.09l-.97-.243a116 116 0 0 0-1.06 4.643l.979.203.979.203q.48-2.318 1.042-4.563zm-1.916 9.246-.987-.164a125 125 0 0 0-.689 4.708l.992.126.993.126q.297-2.344.677-4.632zm-1.191 9.366-.996-.089q-.21 2.35-.338 4.744l.999.053.999.053q.125-2.358.332-4.672zm-.501 9.427-1-.017Q75 88.298 75 89.493h2q0-1.177.02-2.345zM76 89.492v-1h-.5v2h.5zm-1.5 0v-1H74v2h.5zm-.5 0h1q0-1.198.021-2.388l-1-.017-1-.018Q73 88.277 73 89.492zm.191-7.213.999.054q.128-2.403.34-4.76l-.996-.09-.996-.09a133 133 0 0 0-.345 4.833zm.862-9.579.992.127q.304-2.388.692-4.72l-.986-.164-.986-.164q-.395 2.37-.704 4.795zm1.582-9.486.979.203q.49-2.36 1.065-4.647l-.97-.244-.97-.243q-.585 2.327-1.083 4.728zm2.346-9.325.958.286q.69-2.314 1.464-4.534l-.944-.33-.944-.329a105 105 0 0 0-1.493 4.622zm3.173-9.079.927.376a89 89 0 0 1 1.901-4.36l-.905-.424-.906-.424a91 91 0 0 0-1.944 4.457zm4.088-8.702.88.476q.57-1.05 1.162-2.067l-.864-.503-.864-.504a78 78 0 0 0-1.193 2.121zm1.178-2.094.864.503q.662-1.135 1.352-2.225l-.844-.535-.845-.535q-.71 1.12-1.39 2.288zm4.369-6.6.799.601a56 56 0 0 1 3.3-3.996l-.74-.673-.74-.672a58 58 0 0 0-3.418 4.139zm7.108-7.781.663.748a41 41 0 0 1 4.056-3.17l-.563-.826-.564-.827a43 43 0 0 0-4.256 3.326zm8.717-5.894.435.9a30 30 0 0 1 4.764-1.825l-.275-.962-.276-.96a32 32 0 0 0-5.082 1.946zm10.102-2.869.094.996q1.26-.12 2.542-.12v-2q-1.375 0-2.73.129zm2.636-.124h-1v.5h2v-.5zm0 1.5h-1v.5h2v-.5zm0 .5v2h2v-2zM89.147 35.022l-1.727-1.008zM76 89.492v2h2v-2zm-2 0h-2v2h2zm13.42-55.478-1.728-1.008zm32.932-23.268h2v-2h-2zm0 2v-2q-1.358 0-2.699.131l.193 1.99.194 1.991a24 24 0 0 1 2.312-.112zm-7.423 1.079-.564-1.92a31 31 0 0 0-4.986 1.952l.883 1.794.882 1.795a27.3 27.3 0 0 1 4.348-1.702zm-8.984 4.374-1.138-1.645a42 42 0 0 0-4.127 3.27l1.335 1.489 1.336 1.489a38 38 0 0 1 3.732-2.959zm-7.474 6.663-1.487-1.339a57 57 0 0 0-3.294 4.02l1.601 1.199 1.602 1.197a53 53 0 0 1 3.064-3.74zm-6.02 8.013-1.691-1.068q-.683 1.08-1.34 2.207l1.727 1.008 1.728 1.007q.623-1.066 1.266-2.085zm-1.303 2.147-1.728-1.008a77 77 0 0 0-1.187 2.11l1.759.953 1.758.953q.552-1.02 1.125-2zm-3.28 6.272-1.812-.848a91 91 0 0 0-1.927 4.427l1.854.75 1.854.75a86 86 0 0 1 1.842-4.231zm-3.546 8.749-1.889-.658a105 105 0 0 0-1.476 4.583l1.917.57 1.918.57q.668-2.25 1.42-4.408zM79.63 59.09l-1.94-.486a116 116 0 0 0-1.07 4.683l1.959.406 1.958.405q.476-2.298 1.033-4.522zm-1.916 9.246-1.973-.327q-.39 2.344-.694 4.745l1.983.252 1.985.252q.295-2.326.672-4.594zm-1.191 9.366-1.992-.178a132 132 0 0 0-.34 4.78l1.997.106 1.997.106q.124-2.34.33-4.636zm-.501 9.427-2-.035A136 136 0 0 0 74 89.492h4q0-1.167.02-2.327zM76 89.492v-2h-.5v4h.5zm-1.5 0v-2H74v4h.5zm-.5 0h2q0-1.19.02-2.37l-1.999-.035-2-.036Q72 88.268 72 89.492zm.191-7.213 1.997.107q.128-2.385.338-4.724l-1.992-.179-1.992-.178q-.217 2.41-.348 4.868zm.862-9.579 1.984.253q.3-2.37.687-4.681l-1.973-.329-1.973-.328a127 127 0 0 0-.71 4.833zm1.582-9.486 1.958.407q.486-2.34 1.056-4.607l-1.94-.488-1.94-.487a118 118 0 0 0-1.093 4.769zm2.346-9.325 1.916.572q.684-2.292 1.45-4.49l-1.888-.66-1.888-.658a106 106 0 0 0-1.507 4.665zm3.173-9.079 1.853.751a88 88 0 0 1 1.88-4.31l-1.81-.849-1.811-.849A92 92 0 0 0 80.3 44.06zm4.088-8.702 1.759.953q.562-1.038 1.146-2.04l-1.727-1.007-1.728-1.008q-.615 1.056-1.208 2.149zm1.178-2.094 1.727 1.007q.654-1.12 1.334-2.194l-1.69-1.07-1.689-1.07q-.72 1.136-1.41 2.319zm4.369-6.6 1.598 1.202a55 55 0 0 1 3.24-3.925l-1.48-1.345-1.48-1.345a59 59 0 0 0-3.476 4.21zm7.108-7.781 1.326 1.497a39.5 39.5 0 0 1 3.956-3.092l-1.126-1.653-1.127-1.653a44 44 0 0 0-4.356 3.404zm8.717-5.894.869 1.801a29 29 0 0 1 4.606-1.765l-.551-1.923-.552-1.922a33 33 0 0 0-5.24 2.007zm10.102-2.869.188 1.991a26 26 0 0 1 2.448-.115v-4q-1.423 0-2.824.133zm2.636-.124h-2v.5h4v-.5zm0 1.5h-2v.5h4v-.5z" mask="url(#d)"/><path stroke="#6c6c6c" stroke-dasharray="5 5" stroke-width="2" d="M187 88.746c0 42.938 11.982 77.746 26.762 77.746"/><path fill="#fff" d="M82.499 10c13.027 0 24.636 9.045 32.933 23.268 8.311 14.247 13.419 33.864 13.419 55.478h-2c0-21.323-5.044-40.58-13.147-54.47C105.587 20.36 94.519 12 82.499 12s-23.087 8.36-31.204 22.275c-8.103 13.891-13.147 33.148-13.147 54.471h-2c0-21.614 5.108-41.23 13.42-55.478C57.863 19.045 69.471 10 82.498 10"/><path stroke="#6c6c6c" stroke-dasharray="5 5" stroke-width="2" d="M224 88.746c0 42.938 11.982 77.746 26.762 77.746"/><mask id="e" fill="#fff"><path d="M269.352 12.746c-12.02 0-23.087 8.36-31.205 22.276C230.044 48.912 225 68.169 225 89.492h-2c0-21.614 5.109-41.23 13.42-55.478 8.297-14.223 19.905-23.268 32.932-23.268z"/></mask><path fill="#6c6c6c" d="M269.352 12.746v1h1v-1zm-31.205 22.276-.863-.504zM225 89.492v1h1v-1zm-2 0h-1v1h1zm13.42-55.478-.864-.504zm32.932-23.268h1v-1h-1zm0 2v-1q-1.31 0-2.602.126l.096.996.097.995a25 25 0 0 1 2.409-.117zm-7.423 1.079-.282-.96a30 30 0 0 0-4.827 1.889l.442.897.441.898a28 28 0 0 1 4.507-1.765zm-8.984 4.374-.569-.823a41 41 0 0 0-4.029 3.192l.668.745.668.744a39 39 0 0 1 3.831-3.036zm-7.475 6.663-.743-.67a56 56 0 0 0-3.237 3.95l.801.6.801.598a54 54 0 0 1 3.122-3.81zm-6.019 8.013-.846-.534q-.673 1.065-1.321 2.177l.863.504.864.503q.631-1.08 1.285-2.115zm-1.304 2.147-.863-.504a76 76 0 0 0-1.172 2.083l.88.477.879.476q.56-1.033 1.14-2.029zm-3.279 6.272-.906-.424q-.997 2.13-1.906 4.378l.927.375.927.375a87 87 0 0 1 1.863-4.28zm-3.546 8.749-.944-.329a102 102 0 0 0-1.462 4.539l.958.285.959.285q.675-2.273 1.434-4.452zm-2.693 9.048-.97-.243a116 116 0 0 0-1.06 4.643l.979.203.979.203q.48-2.318 1.042-4.563zm-1.916 9.246-.987-.164q-.386 2.326-.688 4.708l.992.126.992.126q.297-2.344.677-4.632zm-1.191 9.366-.996-.089a132 132 0 0 0-.338 4.744l.999.053.999.053q.125-2.358.332-4.672zm-.501 9.427-1-.017q-.021 1.185-.021 2.38h2q0-1.177.021-2.345zM225 89.492v-1h-.5v2h.5zm-1.5 0v-1h-.5v2h.5zm-.5 0h1q0-1.198.021-2.388l-1-.017-1-.018Q222 88.277 222 89.492zm.191-7.213.999.054q.128-2.403.34-4.76l-.996-.09-.996-.09a133 133 0 0 0-.345 4.833zm.862-9.579.992.127q.304-2.388.692-4.72l-.986-.164-.986-.164q-.395 2.37-.704 4.795zm1.582-9.486.979.203a114 114 0 0 1 1.065-4.647l-.97-.244-.97-.243q-.585 2.327-1.083 4.728zm2.346-9.325.958.286q.69-2.314 1.464-4.534l-.944-.33-.944-.329a105 105 0 0 0-1.493 4.622zm3.173-9.079.927.376a89 89 0 0 1 1.901-4.36l-.905-.424-.906-.424a91 91 0 0 0-1.944 4.457zm4.088-8.702.879.476q.571-1.05 1.163-2.067l-.864-.503-.864-.504a79 79 0 0 0-1.193 2.121zm1.178-2.094.864.503q.662-1.135 1.352-2.225l-.844-.535-.845-.535q-.71 1.12-1.391 2.288zm4.369-6.6.799.601a56 56 0 0 1 3.3-3.996l-.741-.673-.74-.672a58 58 0 0 0-3.417 4.139zm7.108-7.781.663.748a40.5 40.5 0 0 1 4.056-3.17l-.563-.826-.564-.827a43 43 0 0 0-4.256 3.326zm8.717-5.894.435.9a30 30 0 0 1 4.764-1.825l-.275-.962-.276-.96a32 32 0 0 0-5.082 1.946zm10.102-2.869.094.996q1.26-.12 2.542-.12v-2q-1.375 0-2.73.129zm2.636-.124h-1v.5h2v-.5zm0 1.5h-1v.5h2v-.5zm0 .5v2h2v-2zm-31.205 22.276-1.727-1.008zM225 89.492v2h2v-2zm-2 0h-2v2h2zm13.42-55.478-1.728-1.008zm32.932-23.268h2v-2h-2zm0 2v-2q-1.358 0-2.699.131l.193 1.99.194 1.991a24 24 0 0 1 2.312-.112zm-7.423 1.079-.564-1.92a31 31 0 0 0-4.986 1.952l.883 1.794.882 1.795a27.3 27.3 0 0 1 4.348-1.702zm-8.984 4.374-1.138-1.645a42 42 0 0 0-4.127 3.27l1.335 1.489 1.336 1.489a38 38 0 0 1 3.732-2.959zm-7.475 6.663-1.486-1.339a58 58 0 0 0-3.295 4.02l1.602 1.199 1.602 1.197a53 53 0 0 1 3.064-3.74zm-6.019 8.013-1.691-1.068q-.683 1.08-1.34 2.207l1.727 1.008 1.728 1.007q.623-1.066 1.266-2.085zm-1.304 2.147-1.727-1.008a78 78 0 0 0-1.187 2.11l1.759.953 1.758.953a72 72 0 0 1 1.125-2zm-3.279 6.272-1.812-.848a90 90 0 0 0-1.927 4.427l1.854.75 1.854.75a86 86 0 0 1 1.842-4.231zm-3.546 8.749-1.888-.658a105 105 0 0 0-1.477 4.583l1.917.57 1.917.57q.67-2.25 1.42-4.408zm-2.693 9.048-1.94-.486a116 116 0 0 0-1.07 4.683l1.959.406 1.958.405q.476-2.298 1.033-4.522zm-1.916 9.246-1.973-.327q-.39 2.344-.695 4.745l1.985.252 1.984.252q.295-2.326.672-4.594zm-1.191 9.366-1.992-.178a132 132 0 0 0-.34 4.78l1.997.106 1.997.106q.125-2.34.33-4.636zm-.501 9.427-2-.035a136 136 0 0 0-.021 2.397h4q0-1.167.02-2.327zM225 89.492v-2h-.5v4h.5zm-1.5 0v-2h-.5v4h.5zm-.5 0h2q0-1.19.021-2.37l-2-.035-2-.036Q221 88.268 221 89.492zm.191-7.213 1.997.107q.128-2.385.338-4.724l-1.992-.179-1.992-.178a133 133 0 0 0-.348 4.868zm.862-9.579 1.984.253q.301-2.37.687-4.681l-1.973-.329-1.973-.328a127 127 0 0 0-.709 4.833zm1.582-9.486 1.958.407a114 114 0 0 1 1.056-4.607l-1.94-.488-1.94-.487a119 119 0 0 0-1.093 4.769zm2.346-9.325 1.916.572a101 101 0 0 1 1.451-4.49l-1.889-.66-1.888-.658a106 106 0 0 0-1.507 4.665zm3.173-9.079 1.853.751a89 89 0 0 1 1.881-4.31l-1.811-.849-1.811-.849a93 93 0 0 0-1.966 4.506zm4.088-8.702 1.759.953q.563-1.038 1.146-2.04l-1.727-1.007-1.728-1.008a81 81 0 0 0-1.208 2.149zm1.178-2.094 1.727 1.007a72 72 0 0 1 1.334-2.194l-1.689-1.07-1.69-1.07q-.72 1.136-1.41 2.319zm4.369-6.6 1.598 1.202a55 55 0 0 1 3.241-3.925l-1.481-1.345-1.48-1.345a59 59 0 0 0-3.476 4.21zm7.108-7.781 1.326 1.497a39.5 39.5 0 0 1 3.956-3.092l-1.126-1.653-1.127-1.653a44 44 0 0 0-4.356 3.404zm8.717-5.894.869 1.801a29 29 0 0 1 4.606-1.765l-.551-1.923-.552-1.922a33 33 0 0 0-5.24 2.007zm10.102-2.869.188 1.991a26 26 0 0 1 2.448-.115v-4q-1.423 0-2.824.133zm2.636-.124h-2v.5h4v-.5zm0 1.5h-2v.5h4v-.5z" mask="url(#e)"/><path fill="#fff" d="M120 12.746c12.02 0 23.087 8.36 31.204 22.276 8.103 13.89 13.148 33.147 13.148 54.47h2c0-21.614-5.109-41.23-13.42-55.478C144.635 19.79 133.027 10.746 120 10.746zM101.091 167.492c4.119 0 7.895-2.427 11.192-6.478 3.304-4.06 6.235-9.873 8.677-16.968 4.887-14.199 7.893-33.751 7.893-55.3h-2c0 21.389-2.987 40.71-7.785 54.65-2.4 6.973-5.236 12.546-8.336 16.355-3.106 3.817-6.37 5.741-9.641 5.741z"/><path fill="#fff" d="M138.59 167.492c4.119 0 7.895-2.427 11.192-6.478 3.304-4.06 6.235-9.873 8.677-16.968 4.888-14.199 7.893-33.751 7.893-55.3h-2c0 21.389-2.987 40.71-7.785 54.65-2.4 6.974-5.236 12.546-8.336 16.355-3.106 3.817-6.37 5.741-9.641 5.741zM157 12.746c12.02 0 23.087 8.36 31.204 22.276 8.103 13.89 13.148 33.147 13.148 54.47h2c0-21.614-5.109-41.23-13.42-55.478C181.635 19.79 170.027 10.746 157 10.746z"/><path fill="#5cefff" d="m233 12-5.774 10h11.548zm-1 88a1 1 0 0 0 2 0h-2m1-79h-1v79h2V21z"/><path fill="#fff" d="M175.59 167.492c4.119 0 7.895-2.427 11.192-6.478 3.304-4.06 6.235-9.873 8.677-16.968 4.888-14.199 7.893-33.751 7.893-55.3h-2c0 21.389-2.987 40.71-7.785 54.65-2.4 6.974-5.236 12.546-8.336 16.355-3.106 3.817-6.37 5.741-9.641 5.741zM195 12.746c12.02 0 23.087 8.36 31.204 22.276 8.103 13.89 13.148 33.147 13.148 54.47h2c0-21.614-5.109-41.23-13.42-55.478C219.635 19.79 208.027 10.746 195 10.746z"/><path fill="#fff" d="M213.59 167.492c4.119 0 7.895-2.427 11.192-6.478 3.304-4.06 6.235-9.873 8.677-16.968 4.888-14.199 7.893-33.751 7.893-55.3h-2c0 21.389-2.987 40.71-7.785 54.65-2.4 6.974-5.236 12.546-8.336 16.355-3.106 3.817-6.37 5.741-9.641 5.741z"/><path stroke="#f95a20" stroke-dasharray="5 5" d="M46 94.5h65"/><path fill="#fff" d="M232 12.746c12.02 0 23.087 8.36 31.204 22.276 8.103 13.89 13.148 33.147 13.148 54.47h2c0-21.614-5.109-41.23-13.42-55.478C256.635 19.79 245.027 10.746 232 10.746z"/><path fill="#fff" d="M250.59 167.492c4.119 0 7.895-2.427 11.192-6.478 3.304-4.06 6.235-9.873 8.677-16.968 4.888-14.199 7.893-33.751 7.893-55.3h-2c0 21.389-2.987 40.71-7.785 54.65-2.4 6.974-5.236 12.546-8.336 16.355-3.106 3.817-6.37 5.741-9.641 5.741z"/><path stroke="#6c6c6c" stroke-dasharray="5 5" stroke-width="2" d="M75 88.746c0 42.938 11.982 77.746 26.762 77.746"/><circle cx="37.644" cy="95.39" r="15.644" fill="url(#f)"/><path fill="#000" d="m38.966 107.655 1.21-7.338h-.136a7.2 7.2 0 0 1-.955 1.227 5 5 0 0 1-1.457 1.049q-.87.426-2.054.426-1.602 0-2.676-.852-1.074-.853-1.5-2.378-.418-1.526-.085-3.554.332-2.02 1.252-3.537.93-1.525 2.284-2.37a5.5 5.5 0 0 1 2.983-.852q1.201 0 1.918.426.725.426 1.1 1.049.374.614.536 1.201h.18l.425-2.497h1.483l-2.982 18zm-2.992-6.025q1.279 0 2.285-.691 1.014-.699 1.687-1.917.673-1.228.938-2.813.255-1.568-.017-2.77-.265-1.21-1.04-1.892-.776-.69-2.063-.69-1.312 0-2.335.716-1.014.707-1.679 1.917t-.912 2.72q-.256 1.525.009 2.752.271 1.227 1.048 1.952.784.716 2.08.716"/><path fill="#feff53" d="m172 188-10-5.774v11.548zm-85 0v1h76v-2H87zM188.227 194l2.898-17.455h5.889q1.705 0 2.745.597 1.04.596 1.431 1.628.4 1.031.171 2.344-.18 1.09-.673 1.866-.495.767-1.202 1.253a4.9 4.9 0 0 1-1.509.69l-.025.137a2.83 2.83 0 0 1 1.542.596q.708.53 1.057 1.483.358.955.145 2.284a5.4 5.4 0 0 1-.989 2.361q-.757 1.031-2.079 1.628-1.313.588-3.188.588zm1.833-1.432h4.619q2.02 0 3.136-.895 1.117-.894 1.355-2.25.162-.996-.187-1.807a2.75 2.75 0 0 0-1.142-1.295q-.792-.477-1.969-.477h-4.687zm1.363-8.139h4.441q1.03 0 1.875-.426a3.9 3.9 0 0 0 1.397-1.176q.554-.75.708-1.713.239-1.39-.52-2.259-.75-.878-2.548-.878h-4.296z"/><path fill="#76eaff" d="m275.636 50 3.864-23.273h7.511q2.478 0 3.989.887 1.523.885 2.102 2.465.59 1.568.262 3.614-.341 2.023-1.455 3.58-1.102 1.557-2.909 2.443-1.807.875-4.261.875h-6.387l.33-1.943h6.329q1.83 0 3.137-.603 1.306-.602 2.091-1.715.783-1.114 1.034-2.637.25-1.535-.171-2.67-.409-1.137-1.522-1.762-1.102-.624-2.944-.625h-5.329L277.761 50zm12-10.5 3.989 10.5h-2.443l-3.921-10.5z"/><path fill="#f95a20" d="m12.15 40.546 2.907 15.383h.162l7.994-15.384h1.67L15.637 58h-1.704L10.48 40.545z"/><path fill="#f85356" d="m41 46-7.167 9.054 11.424 1.68zm-5 34 .99.145 3.69-25.095-.99-.146-.989-.145-3.69 25.096z"/><path stroke="#fff" stroke-width="2" d="M39 75s10.434.576 14.783 5C58.056 84.347 59 95 59 95"/><path fill="#fff" d="m63.764 63.804-.23 1.432h-8.59l.23-1.432zm.955-.23-.298 1.781q-.444 2.677-1.364 4.423-.912 1.747-2.216 2.608-1.305.853-2.923.853-1.62 0-2.66-.861-1.04-.86-1.389-2.608-.349-1.747.094-4.415l.298-1.781q.452-2.66 1.364-4.38.912-1.731 2.216-2.566 1.305-.844 2.923-.844 1.628 0 2.668.844 1.04.835 1.38 2.565.35 1.722-.093 4.38m-1.892 2.037.392-2.284q.332-2.02.12-3.392-.205-1.373-.913-2.063-.707-.699-1.832-.699-1.713 0-2.992 1.577-1.27 1.568-1.772 4.577l-.384 2.284q-.51 3.025.239 4.636.75 1.602 2.437 1.602 1.142 0 2.088-.724t1.611-2.122q.673-1.398 1.006-3.392"/><defs><linearGradient id="f" x1="37.644" x2="37.644" y1="79.746" y2="111.033" gradientUnits="userSpaceOnUse"><stop stop-color="#76eaff"/><stop offset="1" stop-color="#478d99"/></linearGradient></defs></svg>