<svg xmlns="http://www.w3.org/2000/svg" width="300" height="200" fill="none" viewBox="0 0 300 200"><path fill="#000" d="M0 0h300v200H0z"/><path fill="#fff" d="m226.32 136-4.98-8.55h-3.3V136h-2.73v-20.91h6.75q2.37 0 3.99.81 1.65.81 2.46 2.19t.81 3.15q0 2.16-1.26 3.81-1.23 1.65-3.72 2.19l5.25 8.76zm-8.28-10.74h4.02q2.22 0 3.33-1.08 1.11-1.11 1.11-2.94 0-1.86-1.11-2.88-1.08-1.02-3.33-1.02h-4.02z"/><path stroke="#fff" stroke-dasharray="5 5" d="m16.319 77.615 117 97M242.334 77.372l-109 98"/><path stroke="url(#a)" stroke-width="4" d="M244 77c-30.235-37.777-71.242-59-114-59S46.235 39.223 16 77"/><path fill="#fff" d="M133.511 175.227q-1.05 0-1.804-.753a2.46 2.46 0 0 1-.752-1.804q0-1.05.752-1.804a2.47 2.47 0 0 1 1.804-.752q1.051 0 1.804.752.753.754.753 1.804 0 .697-.355 1.279a2.65 2.65 0 0 1-.923.937 2.43 2.43 0 0 1-1.279.341M133 18l-15-8.66v17.32zM136.338 131.196v2.344H125.94v-2.344zm1.534-.256v2.6q0 3.345-.831 5.508-.83 2.162-2.344 3.206-1.512 1.044-3.558 1.044t-3.579-1.044q-1.535-1.044-2.387-3.206t-.852-5.508v-2.6q0-3.323.842-5.444.841-2.12 2.365-3.132 1.523-1.011 3.569-1.012 2.066 0 3.59 1.012 1.523 1.013 2.354 3.132t.831 5.444m-2.557 3.069v-3.537q0-2.194-.532-3.729-.533-1.535-1.481-2.333a3.32 3.32 0 0 0-2.205-.799q-1.854 0-3.058 1.79-1.203 1.779-1.204 5.071v3.537q0 3.291 1.225 5.166 1.225 1.865 3.079 1.865 1.257 0 2.195-.842.937-.841 1.459-2.418.522-1.576.522-3.771"/><path stroke="#f9f9f9" stroke-width="2" d="M147.032 163c-14.344-15.311-22.603-5.22-24.939 1.739"/><defs><linearGradient id="a" x1="16" x2="244" y1="47.5" y2="47.5" gradientUnits="userSpaceOnUse"><stop stop-color="#df9046"/><stop offset="1" stop-color="#794e26"/></linearGradient></defs></svg>