<svg xmlns="http://www.w3.org/2000/svg" width="300" height="200" fill="none" viewBox="0 0 300 200"><path fill="#000" d="M0 0h300v200H0z"/><path stroke="url(#a)" stroke-width="4" d="M121.5 13c48.346 0 87.5 38.749 87.5 86.5 0 47.752-39.154 86.5-87.5 86.5S34 147.252 34 99.5C34 51.749 73.154 13 121.5 13Z"/><circle cx="121.5" cy="99.5" r="82" stroke="url(#b)"/><path stroke="url(#c)" d="M121.5 16.5c46.395 0 84 37.387 84 83.5s-37.605 83.5-84 83.5-84-37.387-84-83.5 37.605-83.5 84-83.5Z"/><path fill="#fff" d="m34 86-8.66 15h17.32z"/><path fill="#feff53" d="M113.156 89.182h2.301l4.773 19.006h.203l11.047-19.006h2.301L130.159 111h-1.875l2.94-17.61h-.17L120.752 111h-1.811l-4.421-17.61h-.171l-2.94 17.61h-1.875z"/><path fill="#76eaff" d="m237.534 175 3.622-21.818h7.362q2.13 0 3.43.746t1.79 2.034q.501 1.29.213 2.93-.224 1.364-.842 2.333a5.5 5.5 0 0 1-1.502 1.566 6 6 0 0 1-1.885.863l-.032.171q1.043.074 1.928.745.884.661 1.321 1.854.448 1.193.181 2.855a6.8 6.8 0 0 1-1.236 2.951q-.948 1.289-2.599 2.035-1.64.735-3.985.735zm2.291-1.79h5.774q2.525 0 3.92-1.118 1.396-1.12 1.694-2.813.203-1.247-.234-2.258a3.43 3.43 0 0 0-1.428-1.62q-.99-.596-2.461-.596h-5.859zm1.704-10.174h5.551q1.288 0 2.343-.532a4.9 4.9 0 0 0 1.747-1.471 4.8 4.8 0 0 0 .885-2.141q.298-1.737-.65-2.823-.937-1.097-3.186-1.097h-5.369zM285 135l-10-5.774v11.548zm-63 0v1h54v-2h-54z"/><defs><linearGradient id="a" x1="121.5" x2="121.5" y1="11" y2="188" gradientUnits="userSpaceOnUse"><stop stop-color="#df9046"/><stop offset="1" stop-color="#794e26"/></linearGradient><linearGradient id="b" x1="121.5" x2="121.5" y1="17" y2="182" gradientUnits="userSpaceOnUse"><stop stop-color="#df9046"/><stop offset="1" stop-color="#794e26"/></linearGradient><linearGradient id="c" x1="121.5" x2="121.5" y1="16" y2="184" gradientUnits="userSpaceOnUse"><stop stop-color="#df9046"/><stop offset="1" stop-color="#794e26"/></linearGradient></defs></svg>