<svg xmlns="http://www.w3.org/2000/svg" width="300" height="200" fill="none" viewBox="0 0 300 200"><path fill="#000" d="M0 0h300v200H0z"/><path stroke="#fff" stroke-dasharray="5 5" d="M103 99.5h164"/><path fill="#fff" d="M269.511 102.227q-1.05 0-1.804-.753a2.46 2.46 0 0 1-.752-1.803q0-1.052.752-1.805a2.46 2.46 0 0 1 1.804-.752 2.46 2.46 0 0 1 1.804.752 2.46 2.46 0 0 1 .753 1.805q0 .695-.355 1.278a2.65 2.65 0 0 1-.923.937 2.43 2.43 0 0 1-1.279.341M292.29 94.21q0 2.61-1.8 4.35-1.77 1.71-5.43 1.71h-4.02V109h-2.73V88.09h6.75q3.54 0 5.37 1.71 1.86 1.71 1.86 4.41m-7.23 3.81q2.28 0 3.36-.99t1.08-2.82q0-3.87-4.44-3.87h-4.02v7.68zM83.968 53.616a1.92 1.92 0 0 1-1.408-.576 1.92 1.92 0 0 1-.576-1.408q0-.832.576-1.408a1.92 1.92 0 0 1 1.408-.576q.8 0 1.344.576.576.576.576 1.408t-.576 1.408q-.544.576-1.344.576m1.408 2.848V74h-2.912V56.464zM190.376 112.312a5.6 5.6 0 0 1 2.176-2.336q1.44-.832 3.488-.832v3.008h-.768q-4.896 0-4.896 5.312V127h-2.912v-17.536h2.912z"/><path stroke="url(#a)" stroke-width="4" d="M105 6v194"/><path fill="#fff" d="m105 65-5.773 10h11.547z"/><defs><linearGradient id="a" x1="102.5" x2="102.5" y1="6" y2="200" gradientUnits="userSpaceOnUse"><stop stop-color="#df9046"/><stop offset="1" stop-color="#794e26"/></linearGradient></defs></svg>