<svg xmlns="http://www.w3.org/2000/svg" width="300" height="200" fill="none" viewBox="0 0 300 200"><path fill="#000" d="M0 0h300v200H0z"/><circle cx="150.5" cy="90.5" r="81.5" stroke="#fff" stroke-dasharray="5 5" stroke-width="2"/><path fill="#feff53" d="m222 175-15-8.66v17.32zm-77 0v1.5h63.5v-3H145z"/><circle cx="147" cy="175" r="21" fill="url(#a)"/><path fill="#000" d="m146.671 186.04 1.21-7.338h-.136a7.2 7.2 0 0 1-.955 1.227 5 5 0 0 1-1.457 1.049q-.87.426-2.054.426-1.602 0-2.676-.852-1.074-.853-1.5-2.378-.418-1.526-.086-3.554.333-2.02 1.253-3.537.93-1.525 2.284-2.37a5.5 5.5 0 0 1 2.983-.852q1.202 0 1.918.426.724.426 1.099 1.049.375.613.537 1.201h.179l.426-2.497h1.483l-2.983 18zm-2.992-6.025q1.28 0 2.284-.691 1.015-.699 1.688-1.917.673-1.228.937-2.813.256-1.568-.017-2.77-.264-1.21-1.039-1.892-.776-.69-2.063-.69-1.312 0-2.335.716-1.014.707-1.679 1.917t-.912 2.719q-.256 1.526.008 2.753.273 1.227 1.049 1.952.785.716 2.079.716"/><path fill="#83ff92" d="m24.84 181 4.348-26.182h8.833q2.557 0 4.117.895t2.148 2.442q.6 1.547.255 3.515-.268 1.637-1.01 2.8a6.5 6.5 0 0 1-1.802 1.879 7.3 7.3 0 0 1-2.263 1.036l-.038.204q1.252.09 2.314.895 1.06.793 1.585 2.225.537 1.431.217 3.426a8.15 8.15 0 0 1-1.483 3.541q-1.137 1.547-3.12 2.442-1.968.882-4.78.882zm2.75-2.148h6.929q3.03 0 4.704-1.342 1.675-1.343 2.033-3.375.243-1.496-.282-2.71-.523-1.227-1.713-1.943t-2.953-.716h-7.031zm2.045-12.209h6.66q1.548 0 2.813-.639a5.84 5.84 0 0 0 2.097-1.764 5.8 5.8 0 0 0 1.06-2.57q.36-2.083-.78-3.387-1.124-1.317-3.822-1.317H31.22z"/><path fill="#feff53" d="m239.226 162.818 4.359 23.075h.243l11.992-23.075h2.505L244.455 189h-2.557l-5.178-26.182z"/><circle cx="33.5" cy="118.5" r="18" stroke="#83ff92"/><path fill="#83ff92" d="m30.021 108.364 3.682 8.373 6.469-8.373h2.659l-7.977 9.856 4.679 9.78h-2.621l-3.707-8.092L26.8 128h-2.685l7.9-9.831-4.602-9.805z"/><path stroke="#fff" d="M151 90.5h83"/><path fill="#fff" d="m179.841 78 4.347-26.182h8.45q2.787 0 4.487.997 1.713.997 2.365 2.775.665 1.763.294 4.065-.384 2.276-1.636 4.027-1.24 1.751-3.273 2.748-2.032.985-4.794.985h-7.185l.371-2.186h7.121q2.058 0 3.528-.678t2.352-1.93q.883-1.253 1.164-2.966.28-1.725-.192-3.004-.46-1.279-1.713-1.982-1.24-.703-3.311-.703h-5.996L182.232 78zm13.5-11.812L197.828 78h-2.748l-4.411-11.812z"/><defs><linearGradient id="a" x1="147" x2="147" y1="154" y2="196" gradientUnits="userSpaceOnUse"><stop stop-color="#76eaff"/><stop offset="1" stop-color="#478d99"/></linearGradient></defs></svg>