<svg xmlns="http://www.w3.org/2000/svg" width="300" height="200" fill="none" viewBox="0 0 300 200"><path fill="#000" d="M0 0h300v200H0z"/><path fill="#fff" d="m179.89 126-3.9-6.12-3.75 6.12h-2.85l5.31-8.16-5.31-8.28h3.09l3.9 6.09 3.72-6.09h2.85l-5.28 8.13 5.31 8.31zM286.29 117.21q0 2.61-1.8 4.35-1.77 1.71-5.43 1.71h-4.02V132h-2.73v-20.91h6.75q3.54 0 5.37 1.71 1.86 1.71 1.86 4.41m-7.23 3.81q2.28 0 3.36-.99t1.08-2.82q0-3.87-4.44-3.87h-4.02v7.68zM48.32 122l-4.98-8.55h-3.3V122h-2.73v-20.91h6.75q2.37 0 3.99.81 1.65.81 2.46 2.19t.81 3.15q0 2.16-1.26 3.81-1.23 1.65-3.72 2.19l5.25 8.76zm-8.28-10.74h4.02q2.22 0 3.33-1.08 1.11-1.11 1.11-2.94 0-1.86-1.11-2.88-1.08-1.02-3.33-1.02h-4.02z"/><path stroke="url(#a)" stroke-width="4" d="M67.5 10c13.508 0 26.09 9.241 35.403 24.941C112.191 50.598 118 72.358 118 96.5s-5.809 45.902-15.097 61.559C93.59 173.759 81.008 183 67.5 183s-26.09-9.241-35.403-24.941C22.809 142.402 17 120.642 17 96.5s5.809-45.902 15.097-61.559C41.41 19.241 53.992 10 67.5 10Z"/><path stroke="url(#b)" d="M67.5 14.5c13.143 0 25.132 9.065 33.863 23.917C110.088 53.257 115.5 73.792 115.5 96.5s-5.412 43.243-14.137 58.083C92.633 169.435 80.643 178.5 67.5 178.5s-25.132-9.065-33.863-23.917C24.913 139.743 19.5 119.208 19.5 96.5s5.413-43.243 14.137-58.083C42.367 23.565 54.357 14.5 67.5 14.5Z"/><path stroke="url(#c)" d="M67.5 13.5c13.42 0 25.66 9.234 34.571 24.356C110.976 52.968 116.5 73.877 116.5 97s-5.524 44.032-14.429 59.144C93.16 171.266 80.92 180.5 67.5 180.5s-25.66-9.234-34.571-24.356C24.024 141.032 18.5 120.122 18.5 97c0-23.123 5.524-44.032 14.429-59.144C41.84 22.734 54.08 13.5 67.5 13.5Z"/><path fill="#fff" d="M275.511 102.227q-1.05 0-1.804-.753a2.46 2.46 0 0 1-.752-1.803q0-1.052.752-1.805a2.46 2.46 0 0 1 1.804-.752 2.46 2.46 0 0 1 1.804.752 2.46 2.46 0 0 1 .753 1.805q0 .695-.355 1.278a2.65 2.65 0 0 1-.923.937 2.43 2.43 0 0 1-1.279.341M16 88l-8.66 15h17.32z"/><path stroke="#fff" stroke-dasharray="5 5" d="M68 99.5h202M68.449 100.221l-30 61"/><defs><linearGradient id="a" x1="67.5" x2="67.5" y1="8" y2="185" gradientUnits="userSpaceOnUse"><stop stop-color="#df9046"/><stop offset="1" stop-color="#794e26"/></linearGradient><linearGradient id="b" x1="67.5" x2="67.5" y1="14" y2="179" gradientUnits="userSpaceOnUse"><stop stop-color="#df9046"/><stop offset="1" stop-color="#794e26"/></linearGradient><linearGradient id="c" x1="67.5" x2="67.5" y1="13" y2="181" gradientUnits="userSpaceOnUse"><stop stop-color="#df9046"/><stop offset="1" stop-color="#794e26"/></linearGradient></defs></svg>