<svg xmlns="http://www.w3.org/2000/svg" width="300" height="200" fill="none" viewBox="0 0 300 200"><path fill="#000" d="M0 0h300v200H0z"/><rect width="242" height="87" x="23" y="56" fill="url(#a)" opacity=".76" rx="12"/><path stroke="url(#b)" stroke-width="2" d="M36.654 55.945C36.632 55.225 36.31 50 31.61 50 26.562 50 11 68.509 11 99.93 11 131.352 24.459 149 31.609 149c6.28 0 5.422-3.652 5.12-4.541m-.075-88.514.002.081m-.002-.082C39.702 52.05 42.547 50 44.226 50c5.047 0 5.047 6.026 5.047 6.026m-12.619-.082c-6.11 7.807-13.036 23.023-13.036 43.986 0 22.118 6.668 37.411 13.11 44.529m0 0c-.04-.124-.072-.194-.072-.194m.073.194c2.71 2.994 5.38 4.541 7.498 4.541 7.15 0 5.047-4.735 5.047-4.735m12.615-88.32c-.022-.72-.345-5.945-5.045-5.945-5.047 0-20.609 18.509-20.609 49.93 0 31.422 13.46 49.07 20.61 49.07 6.279 0 5.421-3.652 5.12-4.541m-.076-88.514.002.081m-.002-.082C64.938 52.05 67.783 50 69.463 50c5.047 0 5.047 6.026 5.047 6.026m-12.62-.082c-6.11 7.807-13.036 23.023-13.036 43.986 0 22.118 6.669 37.411 13.111 44.529m0 0a2 2 0 0 0-.073-.194m.073.194c2.71 2.994 5.38 4.541 7.498 4.541 7.15 0 5.047-4.735 5.047-4.735m13.457-88.32c-.022-.72-.345-5.945-5.045-5.945-5.047 0-20.61 18.509-20.61 49.93 0 31.422 13.46 49.07 20.61 49.07 6.279 0 5.422-3.652 5.12-4.541m-.075-88.514.002.081m-.002-.082C91.014 52.05 93.858 50 95.538 50c5.047 0 5.047 6.026 5.047 6.026m-12.619-.082c-6.11 7.807-13.037 23.023-13.037 43.986 0 22.118 6.669 37.411 13.112 44.529m0 0c-.042-.124-.073-.194-.073-.194m.073.194c2.71 2.994 5.38 4.541 7.497 4.541 7.15 0 5.047-4.735 5.047-4.735m13.457-88.32c-.022-.72-.345-5.945-5.045-5.945-5.047 0-20.609 18.509-20.609 49.93 0 31.422 13.459 49.07 20.609 49.07 6.279 0 5.422-3.652 5.12-4.541m-.075-88.514.002.081m-.002-.082C117.09 52.05 119.935 50 121.615 50c5.047 0 5.047 6.026 5.047 6.026m-12.62-.082c-6.109 7.807-13.036 23.023-13.036 43.986 0 22.118 6.668 37.411 13.111 44.529m0 0c-.042-.124-.073-.194-.073-.194m.073.194c2.71 2.994 5.381 4.541 7.498 4.541 7.15 0 5.047-4.735 5.047-4.735m12.616-88.32c-.022-.72-.346-5.945-5.046-5.945-5.047 0-20.608 18.509-20.608 49.93 0 31.422 13.458 49.07 20.608 49.07 6.28 0 5.422-3.652 5.12-4.541m-.074-88.514.001.081m-.001-.082C142.326 52.05 145.17 50 146.85 50c5.047 0 5.047 6.026 5.047 6.026S154 65.066 154 99.93c0 34.866-2.103 44.335-2.103 44.335S154 149 146.85 149c-2.117 0-4.787-1.547-7.498-4.541m-.074-88.514c-6.11 7.806-13.037 23.022-13.037 43.985 0 22.118 6.669 37.411 13.111 44.529m0 0c-.041-.124-.073-.194-.073-.194"/><path stroke="url(#c)" stroke-width="2" d="M163.654 55.945c-.022-.72-.345-5.945-5.045-5.945C153.562 50 138 68.509 138 99.93c0 31.422 13.459 49.07 20.609 49.07 6.279 0 5.422-3.652 5.12-4.541m-.075-88.514.002.081m-.002-.082c3.048-3.894 5.893-5.944 7.572-5.944 5.048 0 5.048 6.026 5.048 6.026m-12.62-.082c-6.109 7.807-13.036 23.023-13.036 43.986 0 22.118 6.668 37.411 13.111 44.529m0 0c-.042-.124-.073-.194-.073-.194m.073.194c2.71 2.994 5.38 4.541 7.497 4.541 7.15 0 5.048-4.735 5.048-4.735m12.616-88.32c-.023-.72-.346-5.945-5.046-5.945-5.047 0-20.609 18.509-20.609 49.93 0 31.422 13.459 49.07 20.609 49.07 6.28 0 5.422-3.652 5.12-4.541m-.074-88.514.001.081m-.001-.082c3.047-3.894 5.892-5.944 7.572-5.944 5.047 0 5.047 6.026 5.047 6.026m-12.619-.082c-6.11 7.807-13.037 23.023-13.037 43.986 0 22.118 6.668 37.411 13.111 44.529m0 0c-.042-.124-.073-.194-.073-.194m.073.194c2.71 2.994 5.381 4.541 7.498 4.541 7.15 0 5.047-4.735 5.047-4.735m13.457-88.32c-.022-.72-.345-5.945-5.045-5.945-5.047 0-20.609 18.509-20.609 49.93 0 31.422 13.459 49.07 20.609 49.07 6.279 0 5.422-3.652 5.12-4.541m-.075-88.514.002.081m-.002-.082c3.048-3.894 5.892-5.944 7.572-5.944 5.047 0 5.047 6.026 5.047 6.026m-12.619-.082c-6.11 7.807-13.037 23.023-13.037 43.986 0 22.118 6.669 37.411 13.112 44.529m0 0c-.042-.124-.073-.194-.073-.194m.073.194c2.71 2.994 5.38 4.541 7.497 4.541 7.15 0 5.047-4.735 5.047-4.735m13.457-88.32c-.022-.72-.345-5.945-5.045-5.945-5.047 0-20.609 18.509-20.609 49.93 0 31.422 13.459 49.07 20.609 49.07 6.279 0 5.422-3.652 5.12-4.541m-.075-88.514.002.081m-.002-.082C244.09 52.05 246.935 50 248.615 50c5.047 0 5.047 6.026 5.047 6.026m-12.62-.082c-6.109 7.807-13.036 23.023-13.036 43.986 0 22.118 6.668 37.411 13.111 44.529m0 0c-.042-.124-.073-.194-.073-.194m.073.194c2.71 2.994 5.381 4.541 7.498 4.541 7.15 0 5.047-4.735 5.047-4.735m12.616-88.32c-.022-.72-.346-5.945-5.046-5.945-5.047 0-20.608 18.509-20.608 49.93 0 31.422 13.458 49.07 20.608 49.07 6.28 0 5.422-3.652 5.12-4.541m-.074-88.514.001.081m-.001-.082C269.326 52.05 272.17 50 273.85 50c5.047 0 5.047 6.026 5.047 6.026S281 65.066 281 99.93c0 34.866-2.103 44.335-2.103 44.335S281 149 273.85 149c-2.117 0-4.787-1.547-7.498-4.541m-.074-88.514c-6.11 7.806-13.037 23.022-13.037 43.985 0 22.118 6.669 37.411 13.111 44.529m0 0c-.041-.124-.073-.194-.073-.194"/><path fill="#feff53" d="M138.676 171.727 136.643 184h-2.275l3.273-19.636h2.211l-.511 3.081h.204q.921-1.509 2.544-2.417 1.637-.92 3.797-.92 1.97 0 3.324.831 1.368.818 1.943 2.416.588 1.598.205 3.925L149.223 184h-2.276l2.097-12.58q.396-2.403-.703-3.809-1.087-1.419-3.362-1.419-1.547 0-2.877.665a6.14 6.14 0 0 0-2.224 1.917q-.908 1.24-1.202 2.953"/><path fill="#fff" d="m11 93-5.773 10h11.546zM4.393 69l3.273-19.636h2.289L6.682 69zm5.242-23.05q-.716 0-1.215-.486a1.56 1.56 0 0 1-.473-1.176 1.6 1.6 0 0 1 .525-1.125q.51-.485 1.201-.485.716 0 1.215.498.498.486.473 1.176-.013.652-.524 1.125-.512.474-1.202.473"/><defs><linearGradient id="a" x1="144" x2="144" y1="143" y2="56" gradientUnits="userSpaceOnUse"><stop stop-color="#efefef"/><stop offset="1" stop-color="#2c2c2c"/></linearGradient><linearGradient id="b" x1="136.546" x2="136.546" y1="50" y2="149" gradientUnits="userSpaceOnUse"><stop stop-color="#df9046"/><stop offset="1" stop-color="#794e26"/></linearGradient><linearGradient id="c" x1="263.546" x2="263.546" y1="50" y2="149" gradientUnits="userSpaceOnUse"><stop stop-color="#df9046"/><stop offset="1" stop-color="#794e26"/></linearGradient></defs></svg>