<svg xmlns="http://www.w3.org/2000/svg" width="300" height="200" fill="none" viewBox="0 0 300 200"><path fill="#000" d="M0 0h300v200H0z"/><rect width="172" height="105" x="64" y="32" fill="url(#a)" opacity=".76" rx="12"/><path stroke="url(#b)" stroke-width="2" d="M94.857 32.145C94.83 31.281 94.44 25 88.788 25 82.718 25 64 47.248 64 85.017S80.188 144 88.788 144c7.553 0 6.522-4.39 6.159-5.459m-.09-106.396.002.098m-.002-.098c3.666-4.68 7.087-7.145 9.108-7.145 6.07 0 6.07 7.243 6.07 7.243m-15.178-.098c-7.349 9.384-15.68 27.673-15.68 52.872 0 26.586 8.02 44.969 15.77 53.524m0 0c-.05-.148-.088-.232-.088-.232m.088.232c3.26 3.599 6.471 5.459 9.018 5.459 8.6 0 6.07-5.691 6.07-5.691M125.21 32.145c-.027-.864-.416-7.145-6.069-7.145-6.07 0-24.788 22.248-24.788 60.017S110.54 144 119.14 144c7.553 0 6.522-4.39 6.159-5.459m-.09-106.396.002.098m-.002-.098c3.666-4.68 7.087-7.145 9.108-7.145 6.07 0 6.07 7.243 6.07 7.243m-15.178-.098c-7.349 9.384-15.681 27.673-15.681 52.872 0 26.586 8.021 44.969 15.771 53.524m0 0c-.051-.148-.088-.232-.088-.232m.088.232c3.259 3.599 6.471 5.459 9.018 5.459 8.6 0 6.07-5.691 6.07-5.691m16.186-106.164c-.026-.864-.415-7.145-6.068-7.145-6.071 0-24.788 22.248-24.788 60.017S141.906 144 150.506 144c7.553 0 6.521-4.39 6.158-5.459m-.09-106.396.002.098m-.002-.098c3.667-4.68 7.088-7.145 9.108-7.145 6.071 0 6.071 7.243 6.071 7.243m-15.179-.098c-7.348 9.384-15.68 27.673-15.68 52.872 0 26.586 8.021 44.969 15.77 53.524m0 0c-.05-.148-.088-.232-.088-.232m.088.232c3.26 3.599 6.472 5.459 9.018 5.459 8.6 0 6.071-5.691 6.071-5.691m16.186-106.164c-.027-.864-.415-7.145-6.068-7.145-6.071 0-24.789 22.248-24.789 60.017S173.271 144 181.871 144c7.552 0 6.521-4.39 6.158-5.459m-.09-106.396.002.098m-.002-.098c3.666-4.68 7.088-7.145 9.108-7.145 6.071 0 6.071 7.243 6.071 7.243m-15.179-.098c-7.349 9.384-15.68 27.673-15.68 52.872 0 26.586 8.021 44.969 15.77 53.524m0 0c-.05-.148-.088-.232-.088-.232m.088.232c3.26 3.599 6.472 5.459 9.018 5.459 8.6 0 6.071-5.691 6.071-5.691m15.174-106.164c-.027-.864-.415-7.145-6.068-7.145-6.071 0-24.789 22.248-24.789 60.017S203.624 144 212.224 144c7.552 0 6.521-4.39 6.158-5.459m-.09-106.396.002.098m-.002-.098C221.958 27.465 225.38 25 227.4 25c6.071 0 6.071 7.243 6.071 7.243S236 43.11 236 85.018s-2.529 53.292-2.529 53.292S236 144 227.4 144c-2.546 0-5.758-1.86-9.018-5.459m-.09-106.396c-7.349 9.384-15.68 27.673-15.68 52.872 0 26.586 8.021 44.969 15.77 53.524m0 0c-.05-.148-.088-.232-.088-.232"/><path fill="#feff53" d="M144.676 170.727 142.643 183h-2.275l3.273-19.636h2.211l-.511 3.081h.204q.921-1.509 2.544-2.417 1.637-.92 3.797-.92 1.97 0 3.324.831 1.368.818 1.943 2.416.588 1.598.205 3.925L155.223 183h-2.276l2.097-12.58q.396-2.403-.703-3.809-1.087-1.419-3.362-1.419-1.547 0-2.877.665a6.14 6.14 0 0 0-2.224 1.917q-.908 1.24-1.202 2.953"/><path stroke="#fff" stroke-width="2" d="M9 85h275"/><path stroke="#fff" stroke-dasharray="5 5" stroke-width="2" d="m109.556 84.104 121-60M109.106 85.447l-28-56"/><path stroke="#fff" stroke-width="3" d="M93.5 84.5s-2-3 3-7.5 7-2.5 7-2.5M141.581 84.457s2.671-2.421-1.08-8.005-6.178-4.133-6.178-4.133"/><path fill="#fff" d="m81.352 65.739-.306 1.909H69.59l.307-1.91zm1.273-.307-.398 2.375q-.591 3.568-1.818 5.897-1.215 2.33-2.955 3.478-1.738 1.136-3.897 1.136-2.16 0-3.546-1.147-1.386-1.149-1.852-3.478t.125-5.886l.398-2.375q.602-3.545 1.818-5.841 1.216-2.307 2.954-3.42 1.74-1.126 3.898-1.126 2.17 0 3.557 1.125 1.386 1.115 1.841 3.42.466 2.296-.125 5.842m-2.523 2.716.523-3.046q.444-2.693.16-4.523-.274-1.83-1.217-2.75-.943-.93-2.443-.931-2.284 0-3.989 2.102-1.692 2.091-2.363 6.102l-.512 3.046q-.681 4.035.319 6.182 1 2.136 3.25 2.136 1.523 0 2.784-.966t2.147-2.83q.898-1.864 1.341-4.522M85.838 82l2-12.046h-.114l-3.875 2.307.33-1.886 3.886-2.33h1.91L87.655 82zM180.352 66.739l-.307 1.909h-11.454l.307-1.91zm1.273-.307-.398 2.375q-.591 3.568-1.818 5.897-1.216 2.33-2.954 3.478-1.74 1.136-3.898 1.136-2.16 0-3.546-1.147-1.386-1.149-1.852-3.478t.125-5.886l.398-2.375q.602-3.545 1.818-5.841 1.216-2.307 2.955-3.42 1.738-1.126 3.897-1.126 2.17 0 3.557 1.125 1.386 1.115 1.841 3.42.466 2.296-.125 5.842m-2.523 2.716.523-3.046q.443-2.693.159-4.523-.273-1.83-1.216-2.75-.943-.93-2.443-.931-2.284 0-3.989 2.102-1.692 2.091-2.363 6.102l-.512 3.046q-.681 4.035.319 6.182 1 2.136 3.25 2.136 1.522 0 2.784-.966t2.147-2.83q.898-1.864 1.341-4.522M181.611 83l.204-1.364 6.046-4.897a28 28 0 0 0 1.761-1.512q.693-.647 1.057-1.204a3 3 0 0 0 .455-1.194q.181-1.09-.546-1.772-.716-.682-2-.682-1.306 0-2.295.739-.978.738-1.159 1.886h-1.841q.296-1.785 1.806-2.954 1.523-1.182 3.66-1.182 1.42 0 2.397.534.989.534 1.432 1.454.444.909.261 2.046-.136.84-.579 1.59-.432.74-1.318 1.603-.886.852-2.364 2.034l-4.011 3.239v.08h7.42l-.25 1.556z"/><defs><linearGradient id="a" x1="150" x2="150" y1="137" y2="32" gradientUnits="userSpaceOnUse"><stop stop-color="#efefef"/><stop offset="1" stop-color="#2c2c2c"/></linearGradient><linearGradient id="b" x1="215.006" x2="215.006" y1="25" y2="144" gradientUnits="userSpaceOnUse"><stop stop-color="#df9046"/><stop offset="1" stop-color="#794e26"/></linearGradient></defs></svg>