<svg xmlns="http://www.w3.org/2000/svg" width="300" height="200" fill="none" viewBox="0 0 300 200"><g clip-path="url(#a)"><path fill="#000" d="M0 0h300v200H0z"/><path fill="url(#b)" d="M98.5-3v-5.5h-11V-3h11M93-3h-5.5v.99h11V-3zm0 2.97h-5.5v1.98h11V-.03zm0 3.96h-5.5v1.98h11V3.93zm0 3.96h-5.5v1.98h11V7.89zm0 3.96h-5.5v1.98h11v-1.98zm0 3.96h-5.5v1.98h11v-1.98zm0 3.96h-5.5v1.98h11v-1.98zm0 3.96h-5.5v1.98h11v-1.98zm0 3.96h-5.5v1.98h11v-1.98zm0 3.96h-5.5v1.98h11v-1.98zm0 3.96h-5.5v1.98h11v-1.98zm0 3.96h-5.5v1.98h11v-1.98zm0 3.96h-5.5v1.98h11v-1.98zm0 3.96h-5.5v1.98h11v-1.98zm0 3.96h-5.5v1.98h11v-1.98zm0 3.96h-5.5v1.98h11v-1.98zm0 3.96h-5.5v1.98h11v-1.98zm0 3.96h-5.5v1.98h11v-1.98zm0 3.96h-5.5v1.98h11v-1.98zm0 3.96h-5.5v1.98h11v-1.98zm0 3.96h-5.5v1.98h11v-1.98zm0 3.96h-5.5v1.98h11v-1.98zm0 3.96h-5.5v1.98h11v-1.98zm0 3.96h-5.5v1.98h11v-1.98zm0 3.96h-5.5v1.98h11v-1.98zm0 3.96h-5.5v1.98h11v-1.98zm0 3.96h-5.5v1.98h11v-1.98zm0 3.96h-5.5v1.98h11v-1.98zm0 3.96h-5.5v1.98h11v-1.98zm0 3.96h-5.5v1.98h11v-1.98zm0 3.96h-5.5v1.98h11v-1.98zm0 3.96h-5.5v1.98h11v-1.98zm0 3.96h-5.5v1.98h11v-1.98zm0 3.96h-5.5v1.98h11v-1.98zm0 3.96h-5.5v1.98h11v-1.98zm0 3.96h-5.5v1.98h11v-1.98zm0 3.96h-5.5v1.98h11v-1.98zm0 3.96h-5.5v1.98h11v-1.98zm0 3.96h-5.5v1.98h11v-1.98zm0 3.96h-5.5v1.98h11v-1.98zm0 3.96h-5.5v1.98h11v-1.98zm0 3.96h-5.5v1.98h11v-1.98zm0 3.96h-5.5v1.98h11v-1.98zm0 3.96h-5.5v1.98h11v-1.98zm0 3.96h-5.5v1.98h11v-1.98zm0 3.96h-5.5v1.98h11v-1.98zm0 3.96h-5.5v1.98h11v-1.98zm0 3.96h-5.5v1.98h11v-1.98zm0 3.96h-5.5v1.98h11v-1.98zm0 3.96h-5.5v1.98h11v-1.98zm0 3.96h-5.5v.99h11v-.99z"/><path fill="url(#c)" d="M218.5-3v-5.5h-11V-3h11M213-3h-5.5v.99h11V-3zm0 2.97h-5.5v1.98h11V-.03zm0 3.96h-5.5v1.98h11V3.93zm0 3.96h-5.5v1.98h11V7.89zm0 3.96h-5.5v1.98h11v-1.98zm0 3.96h-5.5v1.98h11v-1.98zm0 3.96h-5.5v1.98h11v-1.98zm0 3.96h-5.5v1.98h11v-1.98zm0 3.96h-5.5v1.98h11v-1.98zm0 3.96h-5.5v1.98h11v-1.98zm0 3.96h-5.5v1.98h11v-1.98zm0 3.96h-5.5v1.98h11v-1.98zm0 3.96h-5.5v1.98h11v-1.98zm0 3.96h-5.5v1.98h11v-1.98zm0 3.96h-5.5v1.98h11v-1.98zm0 3.96h-5.5v1.98h11v-1.98zm0 3.96h-5.5v1.98h11v-1.98zm0 3.96h-5.5v1.98h11v-1.98zm0 3.96h-5.5v1.98h11v-1.98zm0 3.96h-5.5v1.98h11v-1.98zm0 3.96h-5.5v1.98h11v-1.98zm0 3.96h-5.5v1.98h11v-1.98zm0 3.96h-5.5v1.98h11v-1.98zm0 3.96h-5.5v1.98h11v-1.98zm0 3.96h-5.5v1.98h11v-1.98zm0 3.96h-5.5v1.98h11v-1.98zm0 3.96h-5.5v1.98h11v-1.98zm0 3.96h-5.5v1.98h11v-1.98zm0 3.96h-5.5v1.98h11v-1.98zm0 3.96h-5.5v1.98h11v-1.98zm0 3.96h-5.5v1.98h11v-1.98zm0 3.96h-5.5v1.98h11v-1.98zm0 3.96h-5.5v1.98h11v-1.98zm0 3.96h-5.5v1.98h11v-1.98zm0 3.96h-5.5v1.98h11v-1.98zm0 3.96h-5.5v1.98h11v-1.98zm0 3.96h-5.5v1.98h11v-1.98zm0 3.96h-5.5v1.98h11v-1.98zm0 3.96h-5.5v1.98h11v-1.98zm0 3.96h-5.5v1.98h11v-1.98zm0 3.96h-5.5v1.98h11v-1.98zm0 3.96h-5.5v1.98h11v-1.98zm0 3.96h-5.5v1.98h11v-1.98zm0 3.96h-5.5v1.98h11v-1.98zm0 3.96h-5.5v1.98h11v-1.98zm0 3.96h-5.5v1.98h11v-1.98zm0 3.96h-5.5v1.98h11v-1.98zm0 3.96h-5.5v1.98h11v-1.98zm0 3.96h-5.5v1.98h11v-1.98zm0 3.96h-5.5v1.98h11v-1.98zm0 3.96h-5.5v.99h11v-.99z"/><path fill="url(#d)" d="M98.5 21v-5.5h-11V21h11M93 21h-5.5v158h11V21z"/><path fill="url(#e)" d="M218.5 21v-5.5h-11V21h11m-5.5 0h-5.5v158h11V21z"/><path fill="#fff" d="m93 83-11.547 20h23.094zM213 84l-11.547 20h23.094zM53.394 110l3.272-19.636h2.289L55.682 110zm5.24-23.05q-.714 0-1.214-.486a1.56 1.56 0 0 1-.473-1.176 1.6 1.6 0 0 1 .525-1.125q.51-.485 1.201-.485.716 0 1.215.498.498.486.473 1.176-.013.652-.524 1.125-.512.474-1.202.473m4.856 27.55 2.25-13.551h-.128l-4.36 2.595.371-2.122 4.372-2.62h2.148L65.535 114.5zM240.393 110l3.273-19.636h2.289L242.682 110zm5.242-23.05q-.715 0-1.215-.486a1.56 1.56 0 0 1-.473-1.176q.026-.652.525-1.125a1.69 1.69 0 0 1 1.201-.485q.716 0 1.215.498a1.5 1.5 0 0 1 .473 1.176q-.013.652-.524 1.125a1.71 1.71 0 0 1-1.202.473m1.224 27.55.23-1.534 6.801-5.51q1.214-.972 1.982-1.7.78-.73 1.189-1.355.408-.64.511-1.343.205-1.227-.614-1.994-.804-.767-2.25-.767-1.47 0-2.582.831-1.1.83-1.304 2.122h-2.071q.333-2.007 2.033-3.324 1.713-1.33 4.116-1.33 1.599 0 2.698.601 1.112.601 1.61 1.637.5 1.023.294 2.301a5.1 5.1 0 0 1-.652 1.79q-.485.831-1.482 1.802-.998.958-2.66 2.289l-4.512 3.643v.09h8.348l-.282 1.751z"/><path fill="#feff53" d="m104 156 10 5.774v-11.548zm101 0-10-5.773v11.547zm-92 0v1h83v-2h-83zM149.399 145.409q-2.416 0-4.027-1.278-1.611-1.28-2.25-3.567-.64-2.289-.14-5.331.51-3.03 1.904-5.305 1.407-2.29 3.439-3.554a8.25 8.25 0 0 1 4.462-1.279q1.802 0 2.876.639 1.088.627 1.649 1.56.564.933.806 1.815h.204l1.714-10.291h2.288L157.977 145h-2.211l.613-3.643h-.281q-.55.895-1.445 1.84-.882.934-2.173 1.573-1.292.639-3.081.639m.499-2.084q1.905 0 3.439-1.035 1.547-1.048 2.582-2.877 1.048-1.84 1.432-4.218.396-2.353-.013-4.155-.41-1.815-1.585-2.838-1.176-1.036-3.107-1.036-1.956 0-3.477 1.074-1.522 1.06-2.518 2.876-.986 1.816-1.368 4.079-.37 2.288 0 4.129t1.508 2.927q1.15 1.074 3.107 1.074"/></g><defs><linearGradient id="b" x1="92.5" x2="92.5" y1="-3" y2="195" gradientUnits="userSpaceOnUse"><stop stop-color="#f95a20"/><stop offset="1" stop-color="#794e26"/></linearGradient><linearGradient id="c" x1="212.5" x2="212.5" y1="-3" y2="195" gradientUnits="userSpaceOnUse"><stop stop-color="#f95a20"/><stop offset="1" stop-color="#794e26"/></linearGradient><linearGradient id="d" x1="92.5" x2="92.5" y1="21" y2="179" gradientUnits="userSpaceOnUse"><stop stop-color="#f95a20"/><stop offset="1" stop-color="#794e26"/></linearGradient><linearGradient id="e" x1="212.5" x2="212.5" y1="21" y2="179" gradientUnits="userSpaceOnUse"><stop stop-color="#f95a20"/><stop offset="1" stop-color="#794e26"/></linearGradient><clipPath id="a"><path fill="#fff" d="M0 0h300v200H0z"/></clipPath></defs></svg>