<svg xmlns="http://www.w3.org/2000/svg" width="300" height="200" fill="none" viewBox="0 0 300 200"><g clip-path="url(#a)"><path fill="#000" d="M0 0h300v200H0z"/><path stroke="#fff" stroke-dasharray="5 5" d="M58 33.5h191"/><path fill="#fff" d="M247.511 36.227q-1.05 0-1.804-.753a2.46 2.46 0 0 1-.752-1.803q0-1.052.752-1.805a2.46 2.46 0 0 1 1.804-.752 2.46 2.46 0 0 1 1.804.752 2.46 2.46 0 0 1 .753 1.804q0 .697-.355 1.279-.34.582-.923.937-.568.342-1.279.341M272.29 29.21q0 2.61-1.8 4.35-1.77 1.71-5.43 1.71h-4.02V44h-2.73V23.09h6.75q3.54 0 5.37 1.71 1.86 1.71 1.86 4.41m-7.23 3.81q2.28 0 3.36-.99t1.08-2.82q0-3.87-4.44-3.87h-4.02v7.68zM36.968 69.616a1.92 1.92 0 0 1-1.408-.576 1.92 1.92 0 0 1-.576-1.408q0-.832.576-1.408a1.92 1.92 0 0 1 1.408-.576q.8 0 1.344.576.576.576.576 1.408t-.576 1.408q-.544.576-1.344.576m1.408 2.848V90h-2.912V72.464zM103.376 47.312a5.6 5.6 0 0 1 2.176-2.336q1.44-.832 3.488-.832v3.008h-.768q-4.896 0-4.896 5.312V62h-2.912V44.464h2.912z"/><path stroke="url(#b)" stroke-width="4" d="M59 34v143"/><path fill="#fff" d="M204.56 47.77V49.8h-9.012V47.77zm1.329-.222v2.253q0 2.9-.72 4.774t-2.031 2.779q-1.311.904-3.084.904t-3.102-.904q-1.33-.905-2.068-2.78-.74-1.873-.739-4.773v-2.253q0-2.88.729-4.718.73-1.838 2.05-2.714 1.32-.877 3.093-.877 1.79 0 3.112.877 1.32.877 2.04 2.714.72 1.838.72 4.718m-2.216 2.66v-3.066q0-1.902-.461-3.232-.462-1.33-1.284-2.021a2.88 2.88 0 0 0-1.911-.693q-1.606 0-2.65 1.551-1.043 1.542-1.043 4.395v3.065q0 2.853 1.062 4.478 1.062 1.617 2.668 1.616 1.089 0 1.902-.73.812-.728 1.265-2.095.452-1.366.452-3.269"/><path stroke="#f9f9f9" stroke-width="2" d="M212.181 33.714c.463 14.458 9.046 17.124 13.279 16.65"/><path stroke="#fff" stroke-dasharray="5 5" d="M0-.5h237.357" transform="matrix(.8001 -.59986 .64695 .76253 57.962 177)"/><path fill="#fff" d="m59 86-5.773 10h11.547z"/></g><defs><linearGradient id="b" x1="56.5" x2="56.5" y1="34" y2="177" gradientUnits="userSpaceOnUse"><stop stop-color="#df9046"/><stop offset="1" stop-color="#794e26"/></linearGradient><clipPath id="a"><path fill="#fff" d="M0 0h300v200H0z"/></clipPath></defs></svg>