<svg xmlns="http://www.w3.org/2000/svg" width="300" height="200" fill="none" viewBox="0 0 300 200"><path fill="#000" d="M0 0h300v200H0z"/><path stroke="url(#a)" stroke-width="7" d="M148.5 35v140"/><path fill="#fff" d="m127 37-5.774 10h11.548zm0 137 5.773-10h-11.547zm0-128h-1v119h2V46zM107.99 92.818 103.643 119h-2.275l4.346-26.182z"/><path fill="#feff53" d="m172.393 113 3.273-19.636h2.289L174.682 113zm5.242-23.05q-.715 0-1.215-.486a1.56 1.56 0 0 1-.473-1.176q.026-.652.525-1.125a1.69 1.69 0 0 1 1.201-.485q.716 0 1.215.498a1.5 1.5 0 0 1 .473 1.176q-.013.652-.524 1.125a1.71 1.71 0 0 1-1.202.473"/><path fill="#83ff92" d="m228.841 175 4.347-26.182h8.833q2.557 0 4.117.895t2.148 2.442q.6 1.547.255 3.515-.268 1.637-1.01 2.8a6.5 6.5 0 0 1-1.802 1.879 7.2 7.2 0 0 1-2.263 1.036l-.038.204q1.252.09 2.313.895 1.061.793 1.586 2.225.537 1.431.217 3.426a8.15 8.15 0 0 1-1.483 3.541q-1.137 1.547-3.119 2.442-1.969.882-4.781.882zm2.748-2.148h6.929q3.03 0 4.705-1.342 1.674-1.343 2.033-3.375.243-1.496-.282-2.71-.523-1.227-1.713-1.943t-2.953-.716h-7.031zm2.046-12.209h6.66q1.548 0 2.813-.639a5.84 5.84 0 0 0 2.097-1.764 5.8 5.8 0 0 0 1.061-2.57q.357-2.083-.78-3.387-1.125-1.317-3.823-1.317h-6.443z"/><circle cx="237.5" cy="112.5" r="18" stroke="#83ff92"/><path fill="#83ff92" d="m234.021 102.364 3.682 8.373 6.469-8.373h2.659l-7.977 9.856 4.679 9.78h-2.621l-3.707-8.092L230.8 122h-2.685l7.901-9.831-4.603-9.805z"/><path fill="#feff53" d="M147.5 95a1.5 1.5 0 0 0 3 0h-3m1.5-7-8.66 15h17.32z"/><defs><linearGradient id="a" x1="144.5" x2="144.5" y1="35" y2="175" gradientUnits="userSpaceOnUse"><stop stop-color="#df9046"/><stop offset="1" stop-color="#794e26"/></linearGradient></defs></svg>