<svg xmlns="http://www.w3.org/2000/svg" width="300" height="200" fill="none" viewBox="0 0 300 200"><path fill="#000" d="M0 0h300v200H0z"/><path fill="url(#a)" d="M28.61 191.5c-2.211 0-2.788-3.058-.729-3.863L290.217 85.088a2 2 0 0 1 2.727 1.9l-1.907 102.549a2 2 0 0 1-2 1.963z"/><path stroke="#fff" stroke-width="2" d="M71.161 190.483s2.825-2.556-.672-9.364-6.49-6.594-6.49-6.594"/><path fill="#fff" d="M91.064 184.24q-1.272 0-2.16-.552-.864-.552-1.32-1.632-.456-1.104-.456-2.76 0-.696.048-1.44a50 50 0 0 1 .168-1.536 22 22 0 0 1 .288-1.536q.48-2.16 1.104-3.864.648-1.704 1.488-2.88.864-1.176 1.968-1.776 1.104-.624 2.544-.624 1.176 0 2.04.504t1.344 1.656q.504 1.128.504 3 0 .576-.072 1.32-.048.72-.168 1.536t-.312 1.728a23 23 0 0 1-1.08 3.648q-.624 1.632-1.488 2.808-.84 1.152-1.944 1.776t-2.496.624m.24-1.752q.816 0 1.488-.432.672-.456 1.2-1.32.552-.864 1.008-2.16t.864-3h-6.312q-.192.984-.288 1.872a20 20 0 0 0-.072 1.656q0 1.752.504 2.568.528.816 1.608.816m-1.368-8.712H96.2q.168-.816.24-1.632.096-.84.096-1.512 0-1.608-.504-2.424t-1.536-.816q-.816 0-1.488.432t-1.224 1.248-1.008 2.016q-.456 1.176-.84 2.688"/><circle cx="245.5" cy="52.5" r="47.5" fill="url(#b)"/><path fill="#fff" d="M167.208 49.16q-1.184 0-1.888-.704-.672-.736-.736-2.208-1.088 1.695-2.336 2.4-1.248.672-2.56.672-1.888 0-3.072-1.152-1.184-1.185-1.6-3.136t.032-4.352l.128-.704q.416-2.24 1.472-3.84 1.088-1.6 2.624-2.432a6.56 6.56 0 0 1 3.264-.864q1.344 0 2.336.544a4.26 4.26 0 0 1 1.664 1.472q.448-.352.864-.8l.832-.896h1.12L167.4 44.2q-.416 2.368-.32 3.136t.608.768q.48 0 1.024-.544.576-.576 1.024-1.92l1.12.704q-.703 1.472-1.632 2.144t-2.016.672m-9.44-7.648q-.544 3.2.128 4.96.703 1.76 2.208 1.76.608 0 1.376-.32.768-.352 1.6-1.28.864-.96 1.76-2.752l1.312-7.552q-.576-1.248-1.44-1.824-.832-.576-1.984-.576-1.952 0-3.104 1.536-1.12 1.536-1.568 4.224zm19.72 4.406q-.96 0-1.766.845-.807.826-1.114 2.688l-.192 1.152q-.326 1.997.135 2.995.48.98 1.593.98.442 0 .941-.173.519-.173.96-.595.46-.443.73-1.19l.883.498q-.673 1.172-1.651 1.632-.96.442-1.978.442-1.248 0-2.074-.634-.825-.633-1.152-1.766-.306-1.152-.038-2.669l.077-.422q.25-1.305.902-2.285a4.7 4.7 0 0 1 1.632-1.555q.98-.557 2.189-.557 1.133 0 1.862.48t.98 1.286q.249.807-.077 1.786l-1.555.307q.498-1.536.134-2.38-.345-.865-1.421-.865M173 78l11.373 1.996-3.958-10.847zm74-27-.343-.94-65.545 23.916.343.94.343.939 65.545-23.916z"/><defs><linearGradient id="a" x1="157" x2="156.5" y1="122.5" y2="219.5" gradientUnits="userSpaceOnUse"><stop stop-color="#b17300"/><stop offset="1" stop-color="#4b3300"/></linearGradient><linearGradient id="b" x1="245.5" x2="245.5" y1="5" y2="100" gradientUnits="userSpaceOnUse"><stop stop-color="#d9d9d9"/><stop offset="1" stop-color="#737373"/></linearGradient></defs></svg>