<svg xmlns="http://www.w3.org/2000/svg" width="300" height="200" fill="none" viewBox="0 0 300 200"><g clip-path="url(#a)"><path fill="#000" d="M0 0h300v200H0z"/><path fill="#000" d="M77.608 106.344q-.704 1.472-1.664 2.144a3.4 3.4 0 0 1-2.048.672q-1.472 0-2.176-1.024t-.288-3.2l1.28-6.272q.48-2.432-.064-3.52-.511-1.088-1.632-1.088t-2.592.992q-1.44.96-3.04 3.744L63.592 109h-2.624l1.824-10.336q.448-2.432-.064-3.52t-1.632-1.088-2.592.992-3.072 3.84L53.64 109h-2.624l2.304-13.248q.191-1.088.128-1.28-.064-.224-.544-.288l-1.728-.16.16-.864h4.992l-.544 3.36q1.408-1.952 2.88-2.816t3.008-.864q1.793 0 2.784 1.056 1.024 1.024 1.12 2.816 1.409-2.08 2.912-2.976 1.536-.896 3.104-.896 2.272 0 3.264 1.568 1.025 1.568.48 4.224l-1.312 6.4q-.32 1.632-.288 2.368.032.704.64.704.544 0 1.088-.544.576-.576.992-1.92z"/><path fill="#fff" d="M77.608 106.344q-.704 1.472-1.664 2.144a3.4 3.4 0 0 1-2.048.672q-1.472 0-2.176-1.024t-.288-3.2l1.28-6.272q.48-2.432-.064-3.52-.511-1.088-1.632-1.088t-2.592.992q-1.44.96-3.04 3.744L63.592 109h-2.624l1.824-10.336q.448-2.432-.064-3.52t-1.632-1.088-2.592.992-3.072 3.84L53.64 109h-2.624l2.304-13.248q.191-1.088.128-1.28-.064-.224-.544-.288l-1.728-.16.16-.864h4.992l-.544 3.36q1.408-1.952 2.88-2.816t3.008-.864q1.793 0 2.784 1.056 1.024 1.024 1.12 2.816 1.409-2.08 2.912-2.976 1.536-.896 3.104-.896 2.272 0 3.264 1.568 1.025 1.568.48 4.224l-1.312 6.4q-.32 1.632-.288 2.368.032.704.64.704.544 0 1.088-.544.576-.576.992-1.92z"/><path fill="#000" d="M243.208 128.16q-1.184 0-1.888-.704-.672-.737-.736-2.208-1.088 1.697-2.336 2.4-1.248.672-2.56.672-1.888 0-3.072-1.152-1.184-1.184-1.6-3.136t.032-4.352l.128-.704q.416-2.24 1.472-3.84 1.088-1.6 2.624-2.432a6.56 6.56 0 0 1 3.264-.864q1.344 0 2.336.544a4.25 4.25 0 0 1 1.664 1.472q.448-.352.864-.8l.832-.896h1.12L243.4 123.2q-.416 2.368-.32 3.136t.608.768q.48 0 1.024-.544.576-.576 1.024-1.92l1.12.704q-.703 1.472-1.632 2.144t-2.016.672m-9.44-7.648q-.544 3.2.128 4.96.703 1.76 2.208 1.76.608 0 1.376-.32.768-.352 1.6-1.28.864-.96 1.76-2.752l1.312-7.552q-.576-1.248-1.44-1.824-.832-.576-1.984-.576-1.952 0-3.104 1.536-1.12 1.536-1.568 4.224z"/><path fill="#fff" d="M243.208 128.16q-1.184 0-1.888-.704-.672-.737-.736-2.208-1.088 1.697-2.336 2.4-1.248.672-2.56.672-1.888 0-3.072-1.152-1.184-1.184-1.6-3.136t.032-4.352l.128-.704q.416-2.24 1.472-3.84 1.088-1.6 2.624-2.432a6.56 6.56 0 0 1 3.264-.864q1.344 0 2.336.544a4.25 4.25 0 0 1 1.664 1.472q.448-.352.864-.8l.832-.896h1.12L243.4 123.2q-.416 2.368-.32 3.136t.608.768q.48 0 1.024-.544.576-.576 1.024-1.92l1.12.704q-.703 1.472-1.632 2.144t-2.016.672m-9.44-7.648q-.544 3.2.128 4.96.703 1.76 2.208 1.76.608 0 1.376-.32.768-.352 1.6-1.28.864-.96 1.76-2.752l1.312-7.552q-.576-1.248-1.44-1.824-.832-.576-1.984-.576-1.952 0-3.104 1.536-1.12 1.536-1.568 4.224z"/><path fill="#000" d="M178 24.184q-.384 2.24-1.504 3.84-1.088 1.6-2.624 2.464a6.8 6.8 0 0 1-3.296.832q-1.344 0-2.336-.48a4.8 4.8 0 0 1-1.664-1.408q-.608.32-1.088.768-.48.416-1.024.96h-.768l3.712-21.248q.192-1.088.128-1.28-.064-.224-.544-.288l-1.696-.16.128-.864h5.088l-1.856 10.496q1.087-1.632 2.304-2.304t2.496-.672q1.92 0 3.104 1.184 1.184 1.152 1.6 3.104t-.032 4.352zm-4.992-8.224q-.608 0-1.408.384-.768.352-1.632 1.376-.864.992-1.824 2.912l-1.248 7.232q.576 1.248 1.44 1.824.864.544 2.048.544 1.984 0 3.104-1.504 1.152-1.536 1.6-4.224l.32-1.824q.544-3.232-.16-4.96-.704-1.76-2.24-1.76"/><path fill="#fff" d="M178 24.184q-.384 2.24-1.504 3.84-1.088 1.6-2.624 2.464a6.8 6.8 0 0 1-3.296.832q-1.344 0-2.336-.48a4.8 4.8 0 0 1-1.664-1.408q-.608.32-1.088.768-.48.416-1.024.96h-.768l3.712-21.248q.192-1.088.128-1.28-.064-.224-.544-.288l-1.696-.16.128-.864h5.088l-1.856 10.496q1.087-1.632 2.304-2.304t2.496-.672q1.92 0 3.104 1.184 1.184 1.152 1.6 3.104t-.032 4.352zm-4.992-8.224q-.608 0-1.408.384-.768.352-1.632 1.376-.864.992-1.824 2.912l-1.248 7.232q.576 1.248 1.44 1.824.864.544 2.048.544 1.984 0 3.104-1.504 1.152-1.536 1.6-4.224l.32-1.824q.544-3.232-.16-4.96-.704-1.76-2.24-1.76"/><path fill="url(#b)" d="M95 50h110v140H95z"/><path fill="#fff" d="m95 38 10 5.773V32.227zm110 0-10-5.773v11.547zm-101 0v1h92v-2h-92zM219 189l5.774-10h-11.548zm0-139-5.773 10h11.547zm0 130h1V59h-2v121z"/><path stroke="#fff" stroke-dasharray="5 5" d="M149.5 203V3"/></g><defs><linearGradient id="b" x1="150" x2="150" y1="50" y2="190" gradientUnits="userSpaceOnUse"><stop stop-color="#d9d9d9"/><stop offset="1" stop-color="#737373"/></linearGradient><clipPath id="a"><path fill="#fff" d="M0 0h300v200H0z"/></clipPath></defs></svg>