<svg xmlns="http://www.w3.org/2000/svg" width="300" height="200" fill="none" viewBox="0 0 300 200"><path fill="#000" d="M0 0h300v200H0z"/><path stroke="#fff" stroke-dasharray="5 5" d="M136.5 15v170"/><path fill="#000" d="M85.608 78.344q-.704 1.472-1.664 2.144a3.4 3.4 0 0 1-2.048.672q-1.472 0-2.176-1.024t-.288-3.2l1.28-6.272q.48-2.432-.064-3.52-.511-1.088-1.632-1.088t-2.592.992q-1.44.96-3.04 3.744L71.592 81h-2.624l1.824-10.336q.448-2.432-.064-3.52-.511-1.088-1.632-1.088t-2.592.992-3.072 3.84L61.64 81h-2.624l2.304-13.248q.191-1.088.128-1.28-.064-.224-.544-.288l-1.728-.16.16-.864h4.992l-.544 3.36q1.408-1.952 2.88-2.816t3.008-.864q1.792 0 2.784 1.056 1.024 1.024 1.12 2.816 1.409-2.08 2.912-2.976 1.536-.896 3.104-.896 2.272 0 3.264 1.568 1.025 1.568.48 4.224l-1.312 6.4q-.32 1.632-.288 2.368.032.704.64.704.544 0 1.088-.544.576-.576.992-1.92z"/><path fill="#fff" d="M85.608 78.344q-.704 1.472-1.664 2.144a3.4 3.4 0 0 1-2.048.672q-1.472 0-2.176-1.024t-.288-3.2l1.28-6.272q.48-2.432-.064-3.52-.511-1.088-1.632-1.088t-2.592.992q-1.44.96-3.04 3.744L71.592 81h-2.624l1.824-10.336q.448-2.432-.064-3.52-.511-1.088-1.632-1.088t-2.592.992-3.072 3.84L61.64 81h-2.624l2.304-13.248q.191-1.088.128-1.28-.064-.224-.544-.288l-1.728-.16.16-.864h4.992l-.544 3.36q1.408-1.952 2.88-2.816t3.008-.864q1.792 0 2.784 1.056 1.024 1.024 1.12 2.816 1.409-2.08 2.912-2.976 1.536-.896 3.104-.896 2.272 0 3.264 1.568 1.025 1.568.48 4.224l-1.312 6.4q-.32 1.632-.288 2.368.032.704.64.704.544 0 1.088-.544.576-.576.992-1.92z"/><path stroke="#fff" stroke-width="2" d="M136 120s2.5 3 10 0 7.5-6 7.5-6"/><path stroke="url(#a)" stroke-linecap="round" stroke-width="13" d="M204.897 176.137 85.056 17.103"/><path fill="#fff" d="M149.752 156.82q-1.697 0-2.88-.736-1.152-.736-1.76-2.176-.608-1.472-.608-3.68 0-.928.064-1.92.096-1.024.224-2.048.16-1.056.384-2.048.64-2.88 1.472-5.152.864-2.272 1.984-3.84 1.152-1.568 2.624-2.368 1.472-.832 3.392-.832 1.568 0 2.72.672t1.792 2.208q.672 1.504.672 4 0 .768-.096 1.76a26 26 0 0 1-.224 2.048 38 38 0 0 1-.416 2.304q-.576 2.688-1.44 4.864-.832 2.177-1.984 3.744-1.12 1.536-2.592 2.368t-3.328.832m.32-2.336q1.088 0 1.984-.576.896-.608 1.6-1.76.736-1.152 1.344-2.88a41 41 0 0 0 1.152-4h-8.416a30 30 0 0 0-.384 2.496 27 27 0 0 0-.096 2.208q0 2.336.672 3.424.704 1.088 2.144 1.088m-1.824-11.616h8.352a19 19 0 0 0 .32-2.176q.128-1.12.128-2.016 0-2.144-.672-3.232t-2.048-1.088q-1.088 0-1.984.576t-1.632 1.664q-.737 1.088-1.344 2.688a31 31 0 0 0-1.12 3.584"/><defs><linearGradient id="a" x1="214.399" x2="86.735" y1="177.115" y2="7.699" gradientUnits="userSpaceOnUse"><stop stop-color="#fff"/><stop offset="1" stop-color="#999"/></linearGradient></defs></svg>