<svg xmlns="http://www.w3.org/2000/svg" width="300" height="200" fill="none" viewBox="0 0 300 200"><path fill="#000" d="M0 0h300v200H0z"/><path fill="url(#a)" d="M27.283 192c-2.154 0-2.786-2.936-.824-3.823L254.126 85.299a2 2 0 0 1 2.823 1.854l-1.656 102.879a2 2 0 0 1-1.999 1.968z"/><path stroke="#fff" stroke-width="2" d="M64.161 190.483s2.825-2.556-.672-9.364-6.49-6.594-6.49-6.594"/><path fill="#fff" d="M91.064 184.24q-1.272 0-2.16-.552-.864-.552-1.32-1.632-.456-1.104-.456-2.76 0-.696.048-1.44a50 50 0 0 1 .168-1.536 22 22 0 0 1 .288-1.536q.48-2.16 1.104-3.864.648-1.704 1.488-2.88.864-1.176 1.968-1.776 1.104-.624 2.544-.624 1.176 0 2.04.504t1.344 1.656q.504 1.128.504 3 0 .576-.072 1.32-.048.72-.168 1.536t-.312 1.728a23 23 0 0 1-1.08 3.648q-.624 1.632-1.488 2.808-.84 1.152-1.944 1.776t-2.496.624m.24-1.752q.816 0 1.488-.432.672-.456 1.2-1.32.552-.864 1.008-2.16t.864-3h-6.312q-.192.984-.288 1.872a20 20 0 0 0-.072 1.656q0 1.752.504 2.568.528.816 1.608.816m-1.368-8.712H96.2q.168-.816.24-1.632.096-.84.096-1.512 0-1.608-.504-2.424t-1.536-.816q-.816 0-1.488.432t-1.224 1.248-1.008 2.016q-.456 1.176-.84 2.688"/><circle cx="202.5" cy="57.5" r="47.5" fill="url(#b)"/><path fill="#fff" d="M293.816 140.344q-.704 1.472-1.664 2.144a3.4 3.4 0 0 1-2.048.672q-1.44 0-2.176-.992-.704-1.024-.256-3.232l1.248-6.272q.512-2.432-.032-3.52t-1.792-1.088q-.768 0-1.728.416-.928.416-1.984 1.472-1.056 1.024-2.144 2.944L279.448 143h-2.624l3.712-21.088q.192-1.088.128-1.28-.064-.224-.544-.288l-1.76-.16.16-.864h5.088l-1.952 11.104q1.408-1.92 2.944-2.752t3.072-.832q2.336 0 3.392 1.568 1.056 1.567.512 4.224l-1.312 6.4q-.32 1.632-.288 2.368.032.704.64.704.512 0 1.088-.544.576-.576.992-1.92zM131.808 24.104l.16-.864h8.672q2.144 0 3.488.768 1.376.736 1.952 2.016t.288 2.912l-.16.96q-.352 2.048-1.664 3.328-1.28 1.248-3.36 1.696l2.752 7.488q.288.768.416 1.088.16.288.32.384.16.065.48.096l1.408.192-.128.832h-4.672l-3.36-9.856h-3.264l-1.28 7.264q-.192 1.088-.128 1.312.064.192.544.256l1.728.192-.16.832h-7.712l.16-.832 1.792-.192q.544-.064.672-.256.128-.225.32-1.312l2.912-16.576q.192-1.088.128-1.28-.064-.224-.544-.288zm8.896.16h-3.68l-1.728 9.856h3.648q1.632 0 2.816-1.056 1.184-1.088 1.504-3.04l.192-1.216q.384-2.208-.384-3.36-.768-1.184-2.368-1.184"/><defs><linearGradient id="a" x1="138.804" x2="138.223" y1="122.679" y2="220.129" gradientUnits="userSpaceOnUse"><stop stop-color="#b17300"/><stop offset="1" stop-color="#4b3300"/></linearGradient><linearGradient id="b" x1="202.5" x2="202.5" y1="10" y2="105" gradientUnits="userSpaceOnUse"><stop stop-color="#d9d9d9"/><stop offset="1" stop-color="#737373"/></linearGradient></defs></svg>