<svg xmlns="http://www.w3.org/2000/svg" width="300" height="200" fill="none" viewBox="0 0 300 200"><path fill="#000" d="M0 0h300v200H0z"/><ellipse cx="150.5" cy="118.5" fill="#d9d9d9" rx="131.5" ry="42.5"/><ellipse cx="150" cy="118.5" fill="#000" rx="82" ry="26.5"/><path fill="#fff" d="m112.808 102.104.16-.864h8.672q2.144 0 3.488.768 1.376.736 1.952 2.016t.288 2.912l-.16.96q-.352 2.048-1.664 3.328-1.28 1.248-3.36 1.696l2.752 7.488q.288.768.416 1.088.16.288.32.384.16.065.48.096l1.408.192-.128.832h-4.672l-3.36-9.856h-3.264l-1.28 7.264q-.192 1.088-.128 1.312.064.192.544.256l1.728.192-.16.832h-7.712l.16-.832 1.792-.192q.544-.064.672-.256.128-.224.32-1.312l2.912-16.576q.192-1.088.128-1.28-.064-.224-.544-.288zm8.896.16h-3.68l-1.728 9.856h3.648q1.632 0 2.816-1.056 1.184-1.088 1.504-3.04l.192-1.216q.384-2.208-.384-3.36-.768-1.184-2.368-1.184m7.904 14.528 2.368-1.312h1.6l-1.664 9.376q-.096.544-.064.64.065.096.288.128l.896.096-.128.64h-4.672l.128-.64 1.216-.096q.256-.032.32-.128t.16-.64l1.472-8.192-1.536.864zM246.808 161.104l.16-.864h8.672q2.144 0 3.488.768 1.376.737 1.952 2.016.576 1.28.288 2.912l-.16.96q-.352 2.048-1.664 3.328-1.28 1.248-3.36 1.696l2.752 7.488q.288.768.416 1.088.16.288.32.384.16.065.48.096l1.408.192-.128.832h-4.672l-3.36-9.856h-3.264l-1.28 7.264q-.192 1.088-.128 1.312.064.192.544.256l1.728.192-.16.832h-7.712l.16-.832 1.792-.192q.544-.064.672-.256.128-.224.32-1.312l2.912-16.576q.192-1.088.128-1.28-.064-.224-.544-.288zm8.896.16h-3.68l-1.728 9.856h3.648q1.632 0 2.816-1.056 1.184-1.088 1.504-3.04l.192-1.216q.384-2.208-.384-3.36-.768-1.184-2.368-1.184m13.76 20.928-.544 3.168h-6.944l.16-.864q.224-1.184.608-1.888a3.5 3.5 0 0 1 1.056-1.184q.704-.511 1.792-1.056 1.632-.832 2.24-1.664.608-.864.608-2.048 0-1.6-1.184-1.6-.992 0-1.504.736-.48.736-.608 2.144l-1.824-.256q0-1.312.96-2.336t2.912-1.024q1.792 0 2.528.8.736.768.736 1.824 0 1.024-.576 1.76-.576.704-1.632 1.312-1.056.576-2.528 1.28-1.088.512-1.696 1.088-.576.608-.832 1.568h4.16q.544 0 .672-.064.16-.064.256-.352l.544-1.344z"/><path stroke="#fff" stroke-dasharray="5 5" d="M148.5 145V6"/><path fill="#fff" d="M260.608 64.344q-.704 1.472-1.664 2.144a3.4 3.4 0 0 1-2.048.672q-1.472 0-2.176-1.024-.703-1.025-.288-3.2l1.28-6.272q.48-2.432-.064-3.52-.512-1.088-1.632-1.088t-2.592.992q-1.44.96-3.04 3.744L246.592 67h-2.624l1.824-10.336q.448-2.432-.064-3.52t-1.632-1.088-2.592.992-3.072 3.84L236.64 67h-2.624l2.304-13.248q.192-1.088.128-1.28-.064-.224-.544-.288l-1.728-.16.16-.864h4.992l-.544 3.36q1.409-1.952 2.88-2.816 1.472-.864 3.008-.864 1.792 0 2.784 1.056 1.024 1.024 1.12 2.816 1.408-2.08 2.912-2.976 1.536-.896 3.104-.896 2.273 0 3.264 1.568 1.024 1.568.48 4.224l-1.312 6.4q-.32 1.632-.288 2.368.032.704.64.704.544 0 1.088-.544.576-.576.992-1.92zM118 145l11.464-1.381-6.928-9.238zm32-24-.6-.8-24.8 18.6.6.8.6.8 24.8-18.6z"/><path fill="#fff" d="m243 145-8.24-8.089-2.885 11.181zm-93-24-.25.968 84.286 21.751.25-.968.249-.968-84.285-21.751z"/></svg>