<svg xmlns="http://www.w3.org/2000/svg" width="300" height="200" fill="none" viewBox="0 0 300 200"><path fill="#000" d="M0 0h300v200H0z"/><path fill="url(#a)" d="M16 164h273v30H16z"/><circle cx="150" cy="95" r="69" fill="url(#b)"/><path fill="#fff" d="M58.608 61.344q-.705 1.472-1.664 2.144a3.4 3.4 0 0 1-2.048.672q-1.472 0-2.176-1.024t-.288-3.2l1.28-6.272q.48-2.432-.064-3.52-.512-1.088-1.632-1.088t-2.592.992q-1.44.96-3.04 3.744L44.592 64h-2.624l1.824-10.336q.448-2.432-.064-3.52t-1.632-1.088-2.592.992-3.072 3.84L34.64 64h-2.624l2.304-13.248q.191-1.088.128-1.28-.064-.224-.544-.288l-1.728-.16.16-.864h4.992l-.544 3.36q1.408-1.952 2.88-2.816t3.008-.864q1.793 0 2.784 1.056 1.024 1.024 1.12 2.816 1.409-2.08 2.912-2.976 1.536-.896 3.104-.896 2.273 0 3.264 1.568 1.024 1.568.48 4.224l-1.312 6.4q-.32 1.632-.288 2.368.032.705.64.704.544 0 1.088-.544.576-.576.992-1.92zM232.696 56.024l.16-.864h5.088l-1.504 8.736q-.608 3.36-.128 4.8.512 1.44 1.984 1.44 1.408 0 2.816-1.184 1.408-1.216 2.336-3.712.96-2.496.96-6.336 0-.735-.064-1.504a39 39 0 0 0-.096-1.6l2.944-.96q-.288 4.896-1.312 8.096-.992 3.2-2.4 5.056-1.408 1.824-2.944 2.592-1.504.736-2.848.736-2.496 0-3.52-1.952-.992-1.952-.384-5.44l1.088-6.176q.192-1.088.128-1.28-.065-.224-.576-.288zm21.417 11.894q-.96 0-1.766.845-.807.826-1.114 2.688l-.192 1.152q-.326 1.997.135 2.995.48.98 1.593.98.442 0 .941-.173.519-.173.96-.595.46-.443.73-1.19l.883.498q-.673 1.171-1.651 1.632-.96.442-1.978.442-1.248 0-2.074-.634-.825-.632-1.152-1.766-.306-1.152-.038-2.669l.077-.422q.25-1.305.902-2.285a4.7 4.7 0 0 1 1.632-1.555q.98-.557 2.189-.557 1.133 0 1.862.48t.98 1.286q.249.807-.077 1.786l-1.555.307q.498-1.536.134-2.38-.345-.865-1.421-.865M250 95l-10-5.773v11.547zm-100 0v1h91v-2h-91z"/><defs><linearGradient id="a" x1="152.5" x2="152.5" y1="164" y2="194" gradientUnits="userSpaceOnUse"><stop stop-color="#b17300"/><stop offset="1"/></linearGradient><linearGradient id="b" x1="150" x2="150" y1="26" y2="164" gradientUnits="userSpaceOnUse"><stop stop-color="#d9d9d9"/><stop offset="1" stop-color="#737373"/></linearGradient></defs></svg>