<svg xmlns="http://www.w3.org/2000/svg" width="300" height="200" fill="none" viewBox="0 0 300 200"><path fill="#000" d="M0 0h300v200H0z"/><path fill="#000" d="M122.608 42.344q-.704 1.472-1.664 2.144a3.4 3.4 0 0 1-2.048.672q-1.472 0-2.176-1.024-.703-1.025-.288-3.2l1.28-6.272q.48-2.432-.064-3.52-.511-1.088-1.632-1.088t-2.592.992q-1.44.96-3.04 3.744L108.592 45h-2.624l1.824-10.336q.448-2.432-.064-3.52-.511-1.088-1.632-1.088t-2.592.992-3.072 3.84L98.64 45h-2.624l2.304-13.248q.192-1.088.128-1.28-.064-.224-.544-.288l-1.728-.16.16-.864h4.992l-.544 3.36q1.409-1.952 2.88-2.816 1.472-.864 3.008-.864 1.792 0 2.784 1.056 1.024 1.024 1.12 2.816 1.408-2.08 2.912-2.976 1.536-.896 3.104-.896 2.273 0 3.264 1.568 1.025 1.568.48 4.224l-1.312 6.4q-.32 1.632-.288 2.368.032.705.64.704.544 0 1.088-.544.576-.576.992-1.92z"/><path fill="#fff" d="M122.608 42.344q-.704 1.472-1.664 2.144a3.4 3.4 0 0 1-2.048.672q-1.472 0-2.176-1.024-.703-1.025-.288-3.2l1.28-6.272q.48-2.432-.064-3.52-.511-1.088-1.632-1.088t-2.592.992q-1.44.96-3.04 3.744L108.592 45h-2.624l1.824-10.336q.448-2.432-.064-3.52-.511-1.088-1.632-1.088t-2.592.992-3.072 3.84L98.64 45h-2.624l2.304-13.248q.192-1.088.128-1.28-.064-.224-.544-.288l-1.728-.16.16-.864h4.992l-.544 3.36q1.409-1.952 2.88-2.816 1.472-.864 3.008-.864 1.792 0 2.784 1.056 1.024 1.024 1.12 2.816 1.408-2.08 2.912-2.976 1.536-.896 3.104-.896 2.273 0 3.264 1.568 1.025 1.568.48 4.224l-1.312 6.4q-.32 1.632-.288 2.368.032.705.64.704.544 0 1.088-.544.576-.576.992-1.92z"/><path fill="#000" d="m257.808 120.104.16-.864h8.672q2.144 0 3.488.768 1.376.736 1.952 2.016t.288 2.912l-.16.96q-.352 2.048-1.664 3.328-1.28 1.248-3.36 1.696l2.752 7.488q.288.768.416 1.088.16.288.32.384.16.065.48.096l1.408.192-.128.832h-4.672l-3.36-9.856h-3.264l-1.28 7.264q-.192 1.088-.128 1.312.064.192.544.256l1.728.192-.16.832h-7.712l.16-.832 1.792-.192q.545-.064.672-.256.128-.224.32-1.312l2.912-16.576q.192-1.088.128-1.28-.064-.224-.544-.288zm8.896.16h-3.68l-1.728 9.856h3.648q1.632 0 2.816-1.056 1.184-1.088 1.504-3.04l.192-1.216q.384-2.208-.384-3.36-.768-1.184-2.368-1.184"/><path fill="#fff" d="m257.808 120.104.16-.864h8.672q2.144 0 3.488.768 1.376.736 1.952 2.016t.288 2.912l-.16.96q-.352 2.048-1.664 3.328-1.28 1.248-3.36 1.696l2.752 7.488q.288.768.416 1.088.16.288.32.384.16.065.48.096l1.408.192-.128.832h-4.672l-3.36-9.856h-3.264l-1.28 7.264q-.192 1.088-.128 1.312.064.192.544.256l1.728.192-.16.832h-7.712l.16-.832 1.792-.192q.545-.064.672-.256.128-.224.32-1.312l2.912-16.576q.192-1.088.128-1.28-.064-.224-.544-.288zm8.896.16h-3.68l-1.728 9.856h3.648q1.632 0 2.816-1.056 1.184-1.088 1.504-3.04l.192-1.216q.384-2.208-.384-3.36-.768-1.184-2.368-1.184"/><ellipse cx="150" cy="100.5" fill="url(#a)" rx="107" ry="40.5"/><path stroke="#fff" stroke-dasharray="5 5" d="m149.565 100.753 55-97M91.57 199.745l35-59"/><path stroke="#fff" stroke-width="2" d="M150 99h107M170.987 98.774s1.878-3.424-3.659-9.306c-5.536-5.882-8.328-4.785-8.328-4.785"/><path fill="#fff" d="M182.752 91.32q-1.697 0-2.88-.736-1.152-.735-1.76-2.176-.608-1.472-.608-3.68 0-.928.064-1.92.096-1.024.224-2.048a30 30 0 0 1 .384-2.048q.64-2.88 1.472-5.152.864-2.273 1.984-3.84 1.152-1.568 2.624-2.368 1.472-.832 3.392-.832 1.568 0 2.72.672t1.792 2.208q.672 1.504.672 4a19 19 0 0 1-.096 1.76q-.064.96-.224 2.048a38 38 0 0 1-.416 2.304q-.576 2.688-1.44 4.864-.832 2.176-1.984 3.744-1.12 1.536-2.592 2.368t-3.328.832m.32-2.336q1.088 0 1.984-.576.896-.608 1.6-1.76.736-1.152 1.344-2.88a41 41 0 0 0 1.152-4h-8.416a30 30 0 0 0-.384 2.496 27 27 0 0 0-.096 2.208q0 2.336.672 3.424.704 1.088 2.144 1.088m-1.824-11.616h8.352q.224-1.087.32-2.176.128-1.12.128-2.016 0-2.145-.672-3.232t-2.048-1.088q-1.088 0-1.984.576t-1.632 1.664q-.737 1.088-1.344 2.688a31 31 0 0 0-1.12 3.584"/><defs><linearGradient id="a" x1="150" x2="150" y1="60" y2="141" gradientUnits="userSpaceOnUse"><stop stop-color="#dadada"/><stop offset="1" stop-color="#424242"/></linearGradient></defs></svg>