<svg xmlns="http://www.w3.org/2000/svg" width="300" height="200" fill="none" viewBox="0 0 300 200"><g clip-path="url(#a)"><path fill="#000" d="M0 0h300v200H0z"/><path fill="#000" d="M266.608 31.344q-.704 1.472-1.664 2.144a3.4 3.4 0 0 1-2.048.672q-1.472 0-2.176-1.024-.703-1.025-.288-3.2l1.28-6.272q.48-2.432-.064-3.52-.511-1.088-1.632-1.088t-2.592.992q-1.44.96-3.04 3.744L252.592 34h-2.624l1.824-10.336q.448-2.432-.064-3.52t-1.632-1.088-2.592.992-3.072 3.84L242.64 34h-2.624l2.304-13.248q.192-1.088.128-1.28-.064-.224-.544-.288l-1.728-.16.16-.864h4.992l-.544 3.36q1.409-1.952 2.88-2.816 1.472-.864 3.008-.864 1.792 0 2.784 1.056 1.024 1.024 1.12 2.816 1.408-2.08 2.912-2.976 1.536-.896 3.104-.896 2.273 0 3.264 1.568 1.024 1.567.48 4.224l-1.312 6.4q-.32 1.632-.288 2.368.032.704.64.704.544 0 1.088-.544.576-.576.992-1.92z"/><path fill="#fff" d="M266.608 31.344q-.704 1.472-1.664 2.144a3.4 3.4 0 0 1-2.048.672q-1.472 0-2.176-1.024-.703-1.025-.288-3.2l1.28-6.272q.48-2.432-.064-3.52-.511-1.088-1.632-1.088t-2.592.992q-1.44.96-3.04 3.744L252.592 34h-2.624l1.824-10.336q.448-2.432-.064-3.52t-1.632-1.088-2.592.992-3.072 3.84L242.64 34h-2.624l2.304-13.248q.192-1.088.128-1.28-.064-.224-.544-.288l-1.728-.16.16-.864h4.992l-.544 3.36q1.409-1.952 2.88-2.816 1.472-.864 3.008-.864 1.792 0 2.784 1.056 1.024 1.024 1.12 2.816 1.408-2.08 2.912-2.976 1.536-.896 3.104-.896 2.273 0 3.264 1.568 1.024 1.567.48 4.224l-1.312 6.4q-.32 1.632-.288 2.368.032.704.64.704.544 0 1.088-.544.576-.576.992-1.92z"/><path stroke="#fff" stroke-dasharray="5 5" d="M67.5 195V0"/><path stroke="#fff" stroke-width="2" d="m149.765 51.028 58-14"/><path fill="#000" d="m187.808 6.104.16-.864h8.672q2.144 0 3.488.768 1.376.736 1.952 2.016t.288 2.912l-.16.96q-.352 2.048-1.664 3.328-1.28 1.248-3.36 1.696l2.752 7.488q.288.768.416 1.088.16.288.32.384.16.064.48.096l1.408.192-.128.832h-4.672l-3.36-9.856h-3.264l-1.28 7.264q-.192 1.088-.128 1.312.064.192.544.256l1.728.192-.16.832h-7.712l.16-.832 1.792-.192q.544-.064.672-.256.128-.225.32-1.312l2.912-16.576q.192-1.088.128-1.28-.064-.224-.544-.288zm8.896.16h-3.68l-1.728 9.856h3.648q1.632 0 2.816-1.056 1.184-1.088 1.504-3.04l.192-1.216q.384-2.208-.384-3.36-.768-1.184-2.368-1.184"/><path fill="#fff" d="m187.808 6.104.16-.864h8.672q2.144 0 3.488.768 1.376.736 1.952 2.016t.288 2.912l-.16.96q-.352 2.048-1.664 3.328-1.28 1.248-3.36 1.696l2.752 7.488q.288.768.416 1.088.16.288.32.384.16.064.48.096l1.408.192-.128.832h-4.672l-3.36-9.856h-3.264l-1.28 7.264q-.192 1.088-.128 1.312.064.192.544.256l1.728.192-.16.832h-7.712l.16-.832 1.792-.192q.544-.064.672-.256.128-.225.32-1.312l2.912-16.576q.192-1.088.128-1.28-.064-.224-.544-.288zm8.896.16h-3.68l-1.728 9.856h3.648q1.632 0 2.816-1.056 1.184-1.088 1.504-3.04l.192-1.216q.384-2.208-.384-3.36-.768-1.184-2.368-1.184"/><path fill="url(#b)" d="M151.5 32c47.773 0 86.5 8.283 86.5 18.5q0 .25-.031.5H238v112h-.031c-1.239 9.986-39.478 18-86.469 18s-85.23-8.014-86.469-18H65V51h.031a4 4 0 0 1-.031-.5C65 40.283 103.727 32 151.5 32m0 116c-23.692 0-45.023 2.057-60.328 5.33-7.685 1.644-13.637 3.55-17.57 5.538-1.972.998-3.235 1.917-3.955 2.669-.347.363-.513.63-.587.787a.7.7 0 0 0-.055.147q-.006.03-.005.029s0 .008.005.029a.7.7 0 0 0 .055.147c.074.157.24.424.587.787.72.752 1.983 1.671 3.956 2.669 3.932 1.988 9.884 3.894 17.569 5.538 15.305 3.273 36.636 5.33 60.328 5.33s45.023-2.057 60.328-5.33c7.685-1.644 13.637-3.55 17.569-5.538 1.973-.998 3.236-1.917 3.956-2.669.347-.363.513-.63.587-.787a.7.7 0 0 0 .055-.147q.006-.03.005-.029.001.001-.005-.029a.7.7 0 0 0-.055-.147c-.074-.157-.24-.424-.587-.787-.72-.752-1.983-1.671-3.956-2.669-3.932-1.988-9.884-3.894-17.569-5.538-15.305-3.273-36.636-5.33-60.328-5.33M69 156.924C80.061 149.432 112.815 144 151.5 144s71.439 5.432 82.5 12.924V56.075C222.939 63.567 190.186 69 151.5 69S80.06 63.567 69 56.075zM151.5 36c-23.692 0-45.023 2.057-60.328 5.33-7.685 1.644-13.637 3.55-17.57 5.538-1.972.998-3.235 1.917-3.955 2.67-.347.362-.513.63-.587.786a.8.8 0 0 0-.055.147q-.006.03-.005.029s0 .008.005.03.019.07.055.146c.074.157.24.424.587.787.72.752 1.983 1.671 3.956 2.669 3.932 1.988 9.884 3.894 17.569 5.538C106.477 62.943 127.808 65 151.5 65s45.023-2.057 60.328-5.33c7.685-1.644 13.637-3.55 17.569-5.538 1.973-.998 3.236-1.917 3.956-2.67.347-.362.513-.63.587-.786a.7.7 0 0 0 .055-.147q.006-.03.005-.029.001.002-.005-.03a.7.7 0 0 0-.055-.146c-.074-.157-.24-.424-.587-.787-.72-.752-1.983-1.671-3.956-2.669-3.932-1.988-9.884-3.894-17.569-5.538C196.523 38.057 175.192 36 151.5 36"/></g><defs><linearGradient id="b" x1="151.5" x2="151.5" y1="32" y2="181" gradientUnits="userSpaceOnUse"><stop stop-color="#fff"/><stop offset="1" stop-color="#999"/></linearGradient><clipPath id="a"><path fill="#fff" d="M0 0h300v200H0z"/></clipPath></defs></svg>