<svg xmlns="http://www.w3.org/2000/svg" width="300" height="200" fill="none" viewBox="0 0 300 200"><g clip-path="url(#a)"><path fill="#000" d="M0 0h300v200H0z"/><path fill="url(#b)" d="M147.912 51.336a28 28 0 0 1 25.176 0l48.204 24.261c13.544 6.816 19.201 23.174 12.762 36.901l-13.391 28.551a28 28 0 0 1-25.35 16.11h-69.626a28 28 0 0 1-25.35-16.11l-13.392-28.551c-6.438-13.727-.78-30.085 12.763-36.901z"/><path stroke="#fff" stroke-dasharray="4 4" d="M50.5-2v200M161.5 3v200"/><path fill="#000" d="M179.119 104h-1.585a3.3 3.3 0 0 0-1.336-2.071 3.6 3.6 0 0 0-1.093-.537 4.4 4.4 0 0 0-1.253-.179q-1.188 0-2.154.601-.958.6-1.528 1.771-.562 1.169-.562 2.87 0 1.7.562 2.87.57 1.17 1.528 1.77a4 4 0 0 0 2.154.601q.653 0 1.253-.179a3.7 3.7 0 0 0 1.093-.53q.5-.359.844-.876.351-.524.492-1.202h1.585a5.3 5.3 0 0 1-.652 1.796 4.9 4.9 0 0 1-1.176 1.349 5.2 5.2 0 0 1-1.579.837 5.9 5.9 0 0 1-1.86.288q-1.674 0-2.978-.818-1.305-.819-2.052-2.327t-.748-3.579q0-2.071.748-3.58.747-1.509 2.052-2.327 1.304-.818 2.978-.818.992 0 1.86.288.876.288 1.579.844.703.549 1.176 1.342.474.786.652 1.796m13.607 2.455q0 2.07-.747 3.579-.749 1.509-2.052 2.327-1.305.818-2.979.818t-2.979-.818q-1.303-.819-2.052-2.327-.747-1.509-.747-3.579t.747-3.58q.749-1.509 2.052-2.327 1.304-.818 2.979-.818 1.674 0 2.979.818 1.303.819 2.052 2.327.747 1.509.747 3.58m-1.534 0q0-1.701-.569-2.87-.562-1.17-1.527-1.771a3.96 3.96 0 0 0-2.148-.601q-1.19 0-2.154.601-.959.6-1.528 1.771-.562 1.169-.562 2.87 0 1.7.562 2.87.569 1.17 1.528 1.77a4 4 0 0 0 2.154.601q1.189 0 2.148-.601.964-.6 1.527-1.77.57-1.17.569-2.87m4.2-6.546h1.892l4.449 10.867h.153l4.449-10.867h1.892V113h-1.483v-9.946h-.128L202.525 113h-1.431l-4.091-9.946h-.128V113h-1.483z"/><circle cx="161" cy="110" r="3" fill="#000"/><path fill="#fff" d="M104.088 174.205q-1.227 0-2.167-.62-.939-.627-1.47-1.765-.53-1.143-.53-2.704 0-1.547.53-2.684t1.477-1.758q.945-.62 2.186-.62.958 0 1.515.32.562.312.856.715.3.397.467.652h.128v-4.832h1.508V174h-1.457v-1.509h-.179a10 10 0 0 1-.473.678q-.307.402-.876.722-.569.314-1.515.314m.205-1.356q.907 0 1.534-.473.626-.478.952-1.323.326-.85.326-1.962 0-1.1-.319-1.924-.32-.83-.947-1.291-.626-.467-1.546-.467-.96 0-1.598.492-.633.486-.953 1.323-.313.832-.313 1.867 0 1.048.32 1.905.326.85.958 1.355.64.498 1.586.498M54.646 183.146a.5.5 0 0 0 0 .708l3.182 3.182a.5.5 0 0 0 .707-.708l-2.828-2.828 2.828-2.828a.501.501 0 0 0-.707-.708zm103.708.708a.5.5 0 0 0 0-.708l-3.182-3.182a.502.502 0 0 0-.708.708l2.829 2.828-2.829 2.828a.502.502 0 0 0 .708.708zM55 183.5v.5h103v-1H55z"/></g><defs><linearGradient id="b" x1="203.5" x2="84.5" y1="62" y2="191" gradientUnits="userSpaceOnUse"><stop stop-color="#c9c9c9"/><stop offset="1" stop-color="#515151"/></linearGradient><clipPath id="a"><path fill="#fff" d="M0 0h300v200H0z"/></clipPath></defs></svg>