<svg xmlns="http://www.w3.org/2000/svg" width="300" height="200" fill="none" viewBox="0 0 300 200"><path fill="#000" d="M0 0h300v200H0z"/><path fill="#000" d="M281.608 42.344q-.704 1.472-1.664 2.144a3.4 3.4 0 0 1-2.048.672q-1.472 0-2.176-1.024-.703-1.025-.288-3.2l1.28-6.272q.48-2.432-.064-3.52-.511-1.088-1.632-1.088t-2.592.992q-1.44.96-3.04 3.744L267.592 45h-2.624l1.824-10.336q.448-2.432-.064-3.52t-1.632-1.088-2.592.992-3.072 3.84L257.64 45h-2.624l2.304-13.248q.192-1.088.128-1.28-.064-.224-.544-.288l-1.728-.16.16-.864h4.992l-.544 3.36q1.409-1.952 2.88-2.816 1.472-.864 3.008-.864 1.793 0 2.784 1.056 1.024 1.024 1.12 2.816 1.408-2.08 2.912-2.976 1.536-.896 3.104-.896 2.273 0 3.264 1.568 1.024 1.568.48 4.224l-1.312 6.4q-.32 1.632-.288 2.368.032.705.64.704.544 0 1.088-.544.576-.576.992-1.92z"/><path fill="#fff" d="M281.608 42.344q-.704 1.472-1.664 2.144a3.4 3.4 0 0 1-2.048.672q-1.472 0-2.176-1.024-.703-1.025-.288-3.2l1.28-6.272q.48-2.432-.064-3.52-.511-1.088-1.632-1.088t-2.592.992q-1.44.96-3.04 3.744L267.592 45h-2.624l1.824-10.336q.448-2.432-.064-3.52t-1.632-1.088-2.592.992-3.072 3.84L257.64 45h-2.624l2.304-13.248q.192-1.088.128-1.28-.064-.224-.544-.288l-1.728-.16.16-.864h4.992l-.544 3.36q1.409-1.952 2.88-2.816 1.472-.864 3.008-.864 1.793 0 2.784 1.056 1.024 1.024 1.12 2.816 1.408-2.08 2.912-2.976 1.536-.896 3.104-.896 2.273 0 3.264 1.568 1.024 1.568.48 4.224l-1.312 6.4q-.32 1.632-.288 2.368.032.705.64.704.544 0 1.088-.544.576-.576.992-1.92z"/><path stroke="#fff" stroke-dasharray="5 5" d="M157.5 200V5"/><path stroke="#fff" stroke-width="2" d="M232 115.767v-59"/><path fill="#000" d="m271.808 88.87.16-.863h8.672q2.144 0 3.488.768 1.376.735 1.952 2.016.576 1.28.288 2.912l-.16.96q-.352 2.047-1.664 3.328-1.28 1.248-3.36 1.696l2.752 7.488q.288.767.416 1.088.16.288.32.384.16.063.48.096l1.408.192-.128.832h-4.672l-3.36-9.856h-3.264l-1.28 7.264q-.192 1.087-.128 1.312.064.192.544.256l1.728.192-.16.832h-7.712l.16-.832 1.792-.192q.545-.064.672-.256.128-.225.32-1.312l2.912-16.576q.192-1.089.128-1.28-.064-.225-.544-.288zm8.896.16h-3.68l-1.728 9.857h3.648q1.632 0 2.816-1.056 1.184-1.09 1.504-3.04l.192-1.216q.384-2.208-.384-3.36-.768-1.184-2.368-1.184"/><path fill="#fff" d="m271.808 88.87.16-.863h8.672q2.144 0 3.488.768 1.376.735 1.952 2.016.576 1.28.288 2.912l-.16.96q-.352 2.047-1.664 3.328-1.28 1.248-3.36 1.696l2.752 7.488q.288.767.416 1.088.16.288.32.384.16.063.48.096l1.408.192-.128.832h-4.672l-3.36-9.856h-3.264l-1.28 7.264q-.192 1.087-.128 1.312.064.192.544.256l1.728.192-.16.832h-7.712l.16-.832 1.792-.192q.545-.064.672-.256.128-.225.32-1.312l2.912-16.576q.192-1.089.128-1.28-.064-.225-.544-.288zm8.896.16h-3.68l-1.728 9.857h3.648q1.632 0 2.816-1.056 1.184-1.09 1.504-3.04l.192-1.216q.384-2.208-.384-3.36-.768-1.184-2.368-1.184"/><path fill="#000" d="m169.168 8.184.128-.864h5.088l-3.296 18.88q-.416 2.368-.32 3.136.128.768.64.768.448 0 1.024-.544.576-.576.992-1.92l1.12.704q-.703 1.472-1.632 2.144t-1.984.672q-1.505 0-2.208-1.152t-.288-3.552l2.88-16.544q.192-1.088.128-1.28-.064-.224-.544-.288z"/><path fill="#fff" d="m169.168 8.184.128-.864h5.088l-3.296 18.88q-.416 2.368-.32 3.136.128.768.64.768.448 0 1.024-.544.576-.576.992-1.92l1.12.704q-.703 1.472-1.632 2.144t-1.984.672q-1.505 0-2.208-1.152t-.288-3.552l2.88-16.544q.192-1.088.128-1.28-.064-.224-.544-.288z"/><path fill="url(#a)" d="M42.009 115.259c.367-34.507 12.23-62.212 26.81-62.212q.363 0 .724.023V52h162.362v1.07C246.382 53.984 258 82.214 258 116.906l-.009 1.649c-.361 33.934-11.839 61.289-26.086 62.188v.024H69.543v-.024q-.36.023-.725.024C54.007 180.766 42 152.175 42 116.906zm166.353 1.647c0 17.235 2.942 32.65 7.543 43.608 2.304 5.486 4.946 9.667 7.675 12.416 2.714 2.733 5.28 3.836 7.601 3.837 2.321 0 4.886-1.104 7.6-3.837 2.729-2.749 5.372-6.93 7.676-12.416 4.602-10.958 7.543-26.373 7.543-43.608s-2.941-32.65-7.543-43.606c-2.304-5.487-4.947-9.668-7.676-12.416-2.714-2.734-5.279-3.837-7.6-3.837s-4.887 1.103-7.601 3.837c-2.729 2.748-5.371 6.93-7.675 12.416-4.601 10.957-7.543 26.372-7.543 43.606M76.902 56c10.86 8.165 18.736 32.346 18.736 60.906l-.01 1.649c-.283 26.716-7.461 49.351-17.453 58.212h143.644c-10.194-9.045-17.457-32.434-17.457-59.861l.009-1.647c.296-27.84 8.075-51.25 18.726-59.259zM46 116.906c0 17.235 2.941 32.65 7.543 43.608 2.304 5.486 4.946 9.667 7.675 12.416 2.714 2.733 5.28 3.836 7.6 3.837 2.321 0 4.887-1.104 7.6-3.837 2.73-2.749 5.372-6.929 7.677-12.416 4.601-10.958 7.543-26.373 7.543-43.608s-2.942-32.65-7.543-43.606c-2.305-5.487-4.947-9.668-7.676-12.416-2.714-2.734-5.28-3.837-7.6-3.837-2.322 0-4.887 1.103-7.601 3.837-2.73 2.748-5.37 6.93-7.675 12.416C48.941 84.257 46 99.672 46 116.906"/><path fill="#fff" d="m68 41 10 5.773V35.227zm170 0-10-5.773v11.547zM77 41v1h152v-2H77z"/><defs><linearGradient id="a" x1="42" x2="258" y1="116.383" y2="116.383" gradientUnits="userSpaceOnUse"><stop stop-color="#fff"/><stop offset="1" stop-color="#999"/></linearGradient></defs></svg>