<svg xmlns="http://www.w3.org/2000/svg" width="300" height="200" fill="none" viewBox="0 0 300 200"><path fill="#000" d="M0 0h300v200H0z"/><path stroke="#fff" stroke-dasharray="5 5" d="M76.5 19v163"/><circle cx="215" cy="100" r="23" fill="url(#a)"/><path fill="#000" d="M228.608 105.344q-.704 1.472-1.664 2.144a3.4 3.4 0 0 1-2.048.672q-1.472 0-2.176-1.024-.703-1.024-.288-3.2l1.28-6.272q.48-2.432-.064-3.52-.512-1.088-1.632-1.088t-2.592.992q-1.44.96-3.04 3.744L214.592 108h-2.624l1.824-10.336q.448-2.432-.064-3.52t-1.632-1.088-2.592.992-3.072 3.84L204.64 108h-2.624l2.304-13.248q.192-1.088.128-1.28-.064-.224-.544-.288l-1.728-.16.16-.864h4.992l-.544 3.36q1.409-1.952 2.88-2.816 1.472-.864 3.008-.864 1.792 0 2.784 1.056 1.024 1.024 1.12 2.816 1.408-2.08 2.912-2.976 1.536-.896 3.104-.896 2.273 0 3.264 1.568 1.024 1.568.48 4.224l-1.312 6.4q-.32 1.632-.288 2.368.032.704.64.704.544 0 1.088-.544.576-.576.992-1.92z"/><path fill="#000" d="M228.608 105.344q-.704 1.472-1.664 2.144a3.4 3.4 0 0 1-2.048.672q-1.472 0-2.176-1.024-.703-1.024-.288-3.2l1.28-6.272q.48-2.432-.064-3.52-.512-1.088-1.632-1.088t-2.592.992q-1.44.96-3.04 3.744L214.592 108h-2.624l1.824-10.336q.448-2.432-.064-3.52t-1.632-1.088-2.592.992-3.072 3.84L204.64 108h-2.624l2.304-13.248q.192-1.088.128-1.28-.064-.224-.544-.288l-1.728-.16.16-.864h4.992l-.544 3.36q1.409-1.952 2.88-2.816 1.472-.864 3.008-.864 1.792 0 2.784 1.056 1.024 1.024 1.12 2.816 1.408-2.08 2.912-2.976 1.536-.896 3.104-.896 2.273 0 3.264 1.568 1.024 1.568.48 4.224l-1.312 6.4q-.32 1.632-.288 2.368.032.704.64.704.544 0 1.088-.544.576-.576.992-1.92zM153.624 160.6q-.544 0-1.216.352-.64.352-1.376 1.28t-1.6 2.656L147.64 175h-2.624l2.336-13.248q.192-1.088.128-1.28-.064-.223-.544-.288l-1.76-.16.16-.864h5.024l-.576 3.328q1.248-1.984 2.56-2.816t2.56-.832q1.024 0 1.824.576t1.12 1.888l-2.24 1.504q-.257-1.216-.768-1.696-.48-.512-1.216-.512"/><path fill="#fff" d="M153.624 160.6q-.544 0-1.216.352-.64.352-1.376 1.28t-1.6 2.656L147.64 175h-2.624l2.336-13.248q.192-1.088.128-1.28-.064-.223-.544-.288l-1.76-.16.16-.864h5.024l-.576 3.328q1.248-1.984 2.56-2.816t2.56-.832q1.024 0 1.824.576t1.12 1.888l-2.24 1.504q-.257-1.216-.768-1.696-.48-.512-1.216-.512M82 146l10 5.774v-11.548zm133 0-10-5.774v11.548zm-124 0v1h115v-2H91z"/><defs><linearGradient id="a" x1="215" x2="215" y1="77" y2="123" gradientUnits="userSpaceOnUse"><stop stop-color="#6dfaff"/><stop offset="1" stop-color="#419699"/></linearGradient></defs></svg>