<svg xmlns="http://www.w3.org/2000/svg" width="300" height="200" fill="none" viewBox="0 0 300 200"><path fill="#000" d="M0 0h300v200H0z"/><path stroke="#fff" stroke-dasharray="5 5" d="M149.5 196V3"/><path stroke="#fff" stroke-dasharray="4 4" stroke-width="2" d="M77 103.5S96.5 85 149.5 85s72.5 18.5 72.5 18.5"/><path fill="#000" d="M226.608 31.344q-.704 1.472-1.664 2.144a3.4 3.4 0 0 1-2.048.672q-1.472 0-2.176-1.024-.703-1.025-.288-3.2l1.28-6.272q.48-2.432-.064-3.52-.512-1.088-1.632-1.088t-2.592.992q-1.44.96-3.04 3.744L212.592 34h-2.624l1.824-10.336q.448-2.432-.064-3.52t-1.632-1.088-2.592.992-3.072 3.84L202.64 34h-2.624l2.304-13.248q.192-1.088.128-1.28-.064-.224-.544-.288l-1.728-.16.16-.864h4.992l-.544 3.36q1.409-1.952 2.88-2.816 1.472-.864 3.008-.864 1.792 0 2.784 1.056 1.024 1.024 1.12 2.816 1.408-2.08 2.912-2.976 1.536-.896 3.104-.896 2.273 0 3.264 1.568 1.024 1.567.48 4.224l-1.312 6.4q-.32 1.632-.288 2.368.032.704.64.704.544 0 1.088-.544.576-.576.992-1.92z"/><path fill="#fff" d="M226.608 31.344q-.704 1.472-1.664 2.144a3.4 3.4 0 0 1-2.048.672q-1.472 0-2.176-1.024-.703-1.025-.288-3.2l1.28-6.272q.48-2.432-.064-3.52-.512-1.088-1.632-1.088t-2.592.992q-1.44.96-3.04 3.744L212.592 34h-2.624l1.824-10.336q.448-2.432-.064-3.52t-1.632-1.088-2.592.992-3.072 3.84L202.64 34h-2.624l2.304-13.248q.192-1.088.128-1.28-.064-.224-.544-.288l-1.728-.16.16-.864h4.992l-.544 3.36q1.409-1.952 2.88-2.816 1.472-.864 3.008-.864 1.792 0 2.784 1.056 1.024 1.024 1.12 2.816 1.408-2.08 2.912-2.976 1.536-.896 3.104-.896 2.273 0 3.264 1.568 1.024 1.567.48 4.224l-1.312 6.4q-.32 1.632-.288 2.368.032.704.64.704.544 0 1.088-.544.576-.576.992-1.92z"/><path fill="#000" d="m234.808 91.104.16-.864h8.672q2.144 0 3.488.768 1.376.736 1.952 2.016t.288 2.912l-.16.96q-.352 2.048-1.664 3.328-1.28 1.248-3.36 1.696l2.752 7.488q.288.768.416 1.088.16.288.32.384.16.065.48.096l1.408.192-.128.832h-4.672l-3.36-9.856h-3.264l-1.28 7.264q-.192 1.088-.128 1.312.064.192.544.256l1.728.192-.16.832h-7.712l.16-.832 1.792-.192q.544-.064.672-.256.128-.224.32-1.312l2.912-16.576q.192-1.088.128-1.28-.064-.224-.544-.288zm8.896.16h-3.68l-1.728 9.856h3.648q1.632 0 2.816-1.056 1.184-1.088 1.504-3.04l.192-1.216q.384-2.208-.384-3.36-.768-1.185-2.368-1.184"/><path fill="#fff" d="m234.808 91.104.16-.864h8.672q2.144 0 3.488.768 1.376.736 1.952 2.016t.288 2.912l-.16.96q-.352 2.048-1.664 3.328-1.28 1.248-3.36 1.696l2.752 7.488q.288.768.416 1.088.16.288.32.384.16.065.48.096l1.408.192-.128.832h-4.672l-3.36-9.856h-3.264l-1.28 7.264q-.192 1.088-.128 1.312.064.192.544.256l1.728.192-.16.832h-7.712l.16-.832 1.792-.192q.544-.064.672-.256.128-.224.32-1.312l2.912-16.576q.192-1.088.128-1.28-.064-.224-.544-.288zm8.896.16h-3.68l-1.728 9.856h3.648q1.632 0 2.816-1.056 1.184-1.088 1.504-3.04l.192-1.216q.384-2.208-.384-3.36-.768-1.185-2.368-1.184"/><path stroke="#fff" stroke-dasharray="4 4" stroke-width="2" d="M77 103.5S96.5 85 149.5 85s72.5 18.5 72.5 18.5"/><circle cx="149.5" cy="103.5" r="72.5" fill="url(#a)"/><path stroke="#fff" stroke-dasharray="4 4" stroke-width="2" d="M77 104s19.5 18.5 72.5 18.5S222 104 222 104"/><defs><linearGradient id="a" x1="149.5" x2="149.5" y1="31" y2="176" gradientUnits="userSpaceOnUse"><stop stop-color="#d9d9d9" stop-opacity=".8"/><stop offset="1" stop-color="#737373"/></linearGradient></defs></svg>