<svg xmlns="http://www.w3.org/2000/svg" width="300" height="200" fill="none" viewBox="0 0 300 200"><path fill="#000" d="M0 0h300v200H0z"/><path stroke="url(#a)" stroke-linecap="round" stroke-width="13" d="M49.5 93.5h202"/><path stroke="#fff" stroke-dasharray="5 5" d="M146.5 19v170"/><path fill="#000" d="M232.608 74.344q-.704 1.472-1.664 2.144a3.4 3.4 0 0 1-2.048.672q-1.472 0-2.176-1.024-.703-1.025-.288-3.2l1.28-6.272q.48-2.432-.064-3.52-.512-1.088-1.632-1.088t-2.592.992q-1.44.96-3.04 3.744L218.592 77h-2.624l1.824-10.336q.448-2.432-.064-3.52t-1.632-1.088-2.592.992-3.072 3.84L208.64 77h-2.624l2.304-13.248q.192-1.088.128-1.28-.064-.224-.544-.288l-1.728-.16.16-.864h4.992l-.544 3.36q1.409-1.952 2.88-2.816 1.472-.864 3.008-.864 1.792 0 2.784 1.056 1.024 1.024 1.12 2.816 1.408-2.08 2.912-2.976 1.536-.896 3.104-.896 2.273 0 3.264 1.568 1.024 1.568.48 4.224l-1.312 6.4q-.32 1.632-.288 2.368.032.704.64.704.544 0 1.088-.544.576-.576.992-1.92z"/><path fill="#fff" d="M232.608 74.344q-.704 1.472-1.664 2.144a3.4 3.4 0 0 1-2.048.672q-1.472 0-2.176-1.024-.703-1.025-.288-3.2l1.28-6.272q.48-2.432-.064-3.52-.512-1.088-1.632-1.088t-2.592.992q-1.44.96-3.04 3.744L218.592 77h-2.624l1.824-10.336q.448-2.432-.064-3.52t-1.632-1.088-2.592.992-3.072 3.84L208.64 77h-2.624l2.304-13.248q.192-1.088.128-1.28-.064-.224-.544-.288l-1.728-.16.16-.864h4.992l-.544 3.36q1.409-1.952 2.88-2.816 1.472-.864 3.008-.864 1.792 0 2.784 1.056 1.024 1.024 1.12 2.816 1.408-2.08 2.912-2.976 1.536-.896 3.104-.896 2.273 0 3.264 1.568 1.024 1.568.48 4.224l-1.312 6.4q-.32 1.632-.288 2.368.032.704.64.704.544 0 1.088-.544.576-.576.992-1.92z"/><path fill="#000" d="m162.168 135.184.128-.864h5.088l-3.296 18.88q-.416 2.368-.32 3.136.128.768.64.768.448 0 1.024-.544.576-.576.992-1.92l1.12.704q-.703 1.472-1.632 2.144t-1.984.672q-1.505 0-2.208-1.152t-.288-3.552l2.88-16.544q.192-1.088.128-1.28-.064-.224-.544-.288z"/><path fill="#fff" d="m162.168 135.184.128-.864h5.088l-3.296 18.88q-.416 2.368-.32 3.136.128.768.64.768.448 0 1.024-.544.576-.576.992-1.92l1.12.704q-.703 1.472-1.632 2.144t-1.984.672q-1.505 0-2.208-1.152t-.288-3.552l2.88-16.544q.192-1.088.128-1.28-.064-.224-.544-.288zM43 122l10 5.774v-11.548zm215 0-10-5.774v11.547zm-206 0v1h197v-2H52z"/><defs><linearGradient id="a" x1="43" x2="258" y1="100.5" y2="100.5" gradientUnits="userSpaceOnUse"><stop stop-color="#fff"/><stop offset="1" stop-color="#999"/></linearGradient></defs></svg>