<svg xmlns="http://www.w3.org/2000/svg" width="300" height="200" fill="none" viewBox="0 0 300 200"><g clip-path="url(#a)"><path fill="#000" d="M0 0h300v200H0z"/><path stroke="url(#b)" stroke-width="6" d="M149.5 140c23.438 0 44.555 2.392 59.726 6.207 7.608 1.913 13.552 4.143 17.522 6.503 4.166 2.476 5.252 4.528 5.252 5.79s-1.086 3.314-5.252 5.79c-3.97 2.36-9.914 4.59-17.522 6.503C194.055 174.608 172.938 177 149.5 177s-44.555-2.392-59.726-6.207c-7.608-1.913-13.552-4.143-17.522-6.503-4.165-2.476-5.252-4.528-5.252-5.79s1.087-3.314 5.252-5.79c3.97-2.36 9.914-4.59 17.522-6.503C104.945 142.392 126.062 140 149.5 140Z"/><path stroke="url(#c)" stroke-linecap="round" stroke-width="6" d="m231.038 154.886-79.976-129.73c-1.174-1.904-3.944-1.9-5.112.008L66.5 154.886"/><path fill="#fff" d="M247.608 99.344q-.704 1.472-1.664 2.144a3.4 3.4 0 0 1-2.048.672q-1.472 0-2.176-1.024-.703-1.025-.288-3.2l1.28-6.272q.48-2.432-.064-3.52-.512-1.088-1.632-1.088t-2.592.992q-1.44.96-3.04 3.744L233.592 102h-2.624l1.824-10.336q.448-2.432-.064-3.52t-1.632-1.088-2.592.992-3.072 3.84L223.64 102h-2.624l2.304-13.248q.192-1.088.128-1.28-.064-.224-.544-.288l-1.728-.16.16-.864h4.992l-.544 3.36q1.409-1.952 2.88-2.816 1.472-.864 3.008-.864 1.792 0 2.784 1.056 1.024 1.024 1.12 2.816 1.408-2.08 2.912-2.976 1.536-.896 3.104-.896 2.273 0 3.264 1.568 1.024 1.568.48 4.224l-1.312 6.4q-.32 1.632-.288 2.368.032.704.64.704.544 0 1.088-.544.576-.576.992-1.92zM247.808 138.104l.16-.864h8.672q2.144 0 3.488.768 1.376.737 1.952 2.016.576 1.28.288 2.912l-.16.96q-.352 2.048-1.664 3.328-1.28 1.248-3.36 1.696l2.752 7.488q.288.768.416 1.088.16.288.32.384.16.065.48.096l1.408.192-.128.832h-4.672l-3.36-9.856h-3.264l-1.28 7.264q-.192 1.088-.128 1.312.064.192.544.256l1.728.192-.16.832h-7.712l.16-.832 1.792-.192q.544-.064.672-.256.128-.224.32-1.312l2.912-16.576q.192-1.088.128-1.28-.064-.224-.544-.288zm8.896.16h-3.68l-1.728 9.856h3.648q1.632 0 2.816-1.056 1.184-1.088 1.504-3.04l.192-1.216q.384-2.208-.384-3.36-.768-1.184-2.368-1.184"/><path stroke="#fff" stroke-dasharray="5 5" d="M148.5 195V6"/></g><defs><linearGradient id="b" x1="64" x2="235" y1="158.5" y2="158.5" gradientUnits="userSpaceOnUse"><stop stop-color="#999"/><stop offset="1" stop-color="#fff"/></linearGradient><linearGradient id="c" x1="170.392" x2="89.765" y1="191.099" y2="56.072" gradientUnits="userSpaceOnUse"><stop stop-color="#fff"/><stop offset="1" stop-color="#999"/></linearGradient><clipPath id="a"><path fill="#fff" d="M0 0h300v200H0z"/></clipPath></defs></svg>