<svg xmlns="http://www.w3.org/2000/svg" width="300" height="200" fill="none" viewBox="0 0 300 200"><path fill="#000" d="M0 0h300v200H0z"/><path fill="#000" d="M221.608 79.344q-.704 1.472-1.664 2.144a3.4 3.4 0 0 1-2.048.672q-1.472 0-2.176-1.024-.703-1.025-.288-3.2l1.28-6.272q.48-2.432-.064-3.52-.512-1.088-1.632-1.088t-2.592.992q-1.44.96-3.04 3.744L207.592 82h-2.624l1.824-10.336q.448-2.432-.064-3.52t-1.632-1.088-2.592.992-3.072 3.84L197.64 82h-2.624l2.304-13.248q.192-1.088.128-1.28-.064-.224-.544-.288l-1.728-.16.16-.864h4.992l-.544 3.36q1.409-1.952 2.88-2.816 1.472-.864 3.008-.864 1.792 0 2.784 1.056 1.024 1.024 1.12 2.816 1.408-2.08 2.912-2.976 1.536-.896 3.104-.896 2.273 0 3.264 1.568 1.024 1.568.48 4.224l-1.312 6.4q-.32 1.632-.288 2.368.032.704.64.704.544 0 1.088-.544.576-.576.992-1.92z"/><path fill="#fff" d="M221.608 79.344q-.704 1.472-1.664 2.144a3.4 3.4 0 0 1-2.048.672q-1.472 0-2.176-1.024-.703-1.025-.288-3.2l1.28-6.272q.48-2.432-.064-3.52-.512-1.088-1.632-1.088t-2.592.992q-1.44.96-3.04 3.744L207.592 82h-2.624l1.824-10.336q.448-2.432-.064-3.52t-1.632-1.088-2.592.992-3.072 3.84L197.64 82h-2.624l2.304-13.248q.192-1.088.128-1.28-.064-.224-.544-.288l-1.728-.16.16-.864h4.992l-.544 3.36q1.409-1.952 2.88-2.816 1.472-.864 3.008-.864 1.792 0 2.784 1.056 1.024 1.024 1.12 2.816 1.408-2.08 2.912-2.976 1.536-.896 3.104-.896 2.273 0 3.264 1.568 1.024 1.568.48 4.224l-1.312 6.4q-.32 1.632-.288 2.368.032.704.64.704.544 0 1.088-.544.576-.576.992-1.92z"/><path stroke="#fff" stroke-dasharray="5 5" d="M22 165.5h271"/><path fill="url(#a)" d="m116 20.5 147.5 145H56.589z"/><path fill="#000" d="m117 166 5.774-10h-11.548zm0-144-5.773 10h11.547zm0 135h1V31h-2v126zM148.816 117.344q-.704 1.472-1.664 2.144a3.4 3.4 0 0 1-2.048.672q-1.44 0-2.176-.992-.704-1.024-.256-3.232l1.248-6.272q.512-2.432-.032-3.52t-1.792-1.088q-.768 0-1.728.416-.928.416-1.984 1.472-1.056 1.024-2.144 2.944L134.448 120h-2.624l3.712-21.088q.192-1.088.128-1.28-.064-.224-.544-.288l-1.76-.16.16-.864h5.088l-1.952 11.104q1.408-1.92 2.944-2.752t3.072-.832q2.336 0 3.392 1.568t.512 4.224l-1.312 6.4q-.32 1.632-.288 2.368.032.704.64.704.512 0 1.088-.544.576-.576.992-1.92z"/><path fill="#000" d="M148.816 117.344q-.704 1.472-1.664 2.144a3.4 3.4 0 0 1-2.048.672q-1.44 0-2.176-.992-.704-1.024-.256-3.232l1.248-6.272q.512-2.432-.032-3.52t-1.792-1.088q-.768 0-1.728.416-.928.416-1.984 1.472-1.056 1.024-2.144 2.944L134.448 120h-2.624l3.712-21.088q.192-1.088.128-1.28-.064-.224-.544-.288l-1.76-.16.16-.864h5.088l-1.952 11.104q1.408-1.92 2.944-2.752t3.072-.832q2.336 0 3.392 1.568t.512 4.224l-1.312 6.4q-.32 1.632-.288 2.368.032.704.64.704.512 0 1.088-.544.576-.576.992-1.92z"/><defs><linearGradient id="a" x1="160.044" x2="160.044" y1="20.5" y2="165.5" gradientUnits="userSpaceOnUse"><stop stop-color="#d9d9d9"/><stop offset="1" stop-color="#737373"/></linearGradient></defs></svg>