<svg xmlns="http://www.w3.org/2000/svg" width="300" height="200" fill="none" viewBox="0 0 300 200"><path fill="#000" d="M0 0h300v200H0z"/><path stroke="#fff" stroke-dasharray="5 5" stroke-width="2" d="m219.806 9.592-133 181"/><path stroke="#fff" d="M291 104.5H9"/><path fill="#000" d="M115.608 43.344q-.704 1.472-1.664 2.144a3.4 3.4 0 0 1-2.048.672q-1.472 0-2.176-1.024-.703-1.025-.288-3.2l1.28-6.272q.48-2.432-.064-3.52-.511-1.088-1.632-1.088t-2.592.992q-1.44.96-3.04 3.744L101.592 46h-2.624l1.824-10.336q.448-2.432-.064-3.52-.511-1.088-1.632-1.088t-2.592.992-3.072 3.84L91.64 46h-2.624l2.304-13.248q.192-1.088.128-1.28-.064-.224-.544-.288l-1.728-.16.16-.864h4.992l-.544 3.36q1.409-1.952 2.88-2.816 1.472-.864 3.008-.864 1.792 0 2.784 1.056 1.024 1.024 1.12 2.816 1.408-2.08 2.912-2.976 1.536-.896 3.104-.896 2.273 0 3.264 1.568 1.025 1.568.48 4.224l-1.312 6.4q-.32 1.632-.288 2.368.032.705.64.704.544 0 1.088-.544.576-.576.992-1.92z"/><path fill="#fff" d="M115.608 43.344q-.704 1.472-1.664 2.144a3.4 3.4 0 0 1-2.048.672q-1.472 0-2.176-1.024-.703-1.025-.288-3.2l1.28-6.272q.48-2.432-.064-3.52-.511-1.088-1.632-1.088t-2.592.992q-1.44.96-3.04 3.744L101.592 46h-2.624l1.824-10.336q.448-2.432-.064-3.52-.511-1.088-1.632-1.088t-2.592.992-3.072 3.84L91.64 46h-2.624l2.304-13.248q.192-1.088.128-1.28-.064-.224-.544-.288l-1.728-.16.16-.864h4.992l-.544 3.36q1.409-1.952 2.88-2.816 1.472-.864 3.008-.864 1.792 0 2.784 1.056 1.024 1.024 1.12 2.816 1.408-2.08 2.912-2.976 1.536-.896 3.104-.896 2.273 0 3.264 1.568 1.025 1.568.48 4.224l-1.312 6.4q-.32 1.632-.288 2.368.032.705.64.704.544 0 1.088-.544.576-.576.992-1.92z"/><path fill="#000" d="m62.808 139.104.16-.864h8.672q2.145 0 3.488.768 1.376.737 1.952 2.016.576 1.28.288 2.912l-.16.96q-.353 2.048-1.664 3.328-1.28 1.248-3.36 1.696l2.752 7.488q.287.768.416 1.088.16.288.32.384.16.065.48.096l1.408.192-.128.832H72.76l-3.36-9.856h-3.264l-1.28 7.264q-.192 1.088-.128 1.312.064.192.544.256l1.728.192-.16.832h-7.712l.16-.832 1.792-.192q.545-.064.672-.256.128-.224.32-1.312l2.912-16.576q.192-1.088.128-1.28-.064-.224-.544-.288zm8.896.16h-3.68l-1.728 9.856h3.648q1.632 0 2.816-1.056 1.184-1.088 1.504-3.04l.192-1.216q.384-2.208-.384-3.36-.768-1.184-2.368-1.184"/><path fill="#fff" d="m62.808 139.104.16-.864h8.672q2.145 0 3.488.768 1.376.737 1.952 2.016.576 1.28.288 2.912l-.16.96q-.353 2.048-1.664 3.328-1.28 1.248-3.36 1.696l2.752 7.488q.287.768.416 1.088.16.288.32.384.16.065.48.096l1.408.192-.128.832H72.76l-3.36-9.856h-3.264l-1.28 7.264q-.192 1.088-.128 1.312.064.192.544.256l1.728.192-.16.832h-7.712l.16-.832 1.792-.192q.545-.064.672-.256.128-.224.32-1.312l2.912-16.576q.192-1.088.128-1.28-.064-.224-.544-.288zm8.896.16h-3.68l-1.728 9.856h3.648q1.632 0 2.816-1.056 1.184-1.088 1.504-3.04l.192-1.216q.384-2.208-.384-3.36-.768-1.184-2.368-1.184"/><path stroke="url(#a)" stroke-width="6" d="M150 73c30.439 0 57.879 3.783 77.61 9.827 9.884 3.028 17.664 6.571 22.908 10.368C255.828 97.041 258 100.731 258 104s-2.172 6.959-7.482 10.805c-5.244 3.797-13.024 7.34-22.908 10.368C207.879 131.217 180.439 135 150 135s-57.88-3.783-77.61-9.827c-9.884-3.028-17.665-6.571-22.908-10.368C44.172 110.959 42 107.269 42 104s2.172-6.959 7.482-10.805c5.243-3.797 13.024-7.34 22.908-10.368C92.12 76.783 119.56 73 150 73Z"/><path stroke="#fff" stroke-width="2" d="M171.987 104.774s1.878-3.424-3.659-9.306c-5.536-5.882-8.328-4.785-8.328-4.785"/><path fill="#fff" d="M183.752 97.32q-1.697 0-2.88-.736-1.152-.735-1.76-2.176-.608-1.472-.608-3.68 0-.928.064-1.92.096-1.024.224-2.048a30 30 0 0 1 .384-2.048q.64-2.88 1.472-5.152.864-2.273 1.984-3.84 1.152-1.568 2.624-2.368 1.472-.832 3.392-.832 1.568 0 2.72.672t1.792 2.208q.672 1.504.672 4a19 19 0 0 1-.096 1.76q-.064.96-.224 2.048a38 38 0 0 1-.416 2.304q-.576 2.688-1.44 4.864-.832 2.176-1.984 3.744-1.12 1.536-2.592 2.368t-3.328.832m.32-2.336q1.088 0 1.984-.576.896-.608 1.6-1.76.736-1.152 1.344-2.88a41 41 0 0 0 1.152-4h-8.416a30 30 0 0 0-.384 2.496 27 27 0 0 0-.096 2.208q0 2.336.672 3.424.704 1.088 2.144 1.088m-1.824-11.616h8.352q.224-1.087.32-2.176.128-1.12.128-2.016 0-2.145-.672-3.232t-2.048-1.088q-1.088 0-1.984.576t-1.632 1.664q-.737 1.088-1.344 2.688a31 31 0 0 0-1.12 3.584"/><defs><linearGradient id="a" x1="39" x2="261" y1="104" y2="104" gradientUnits="userSpaceOnUse"><stop stop-color="#fff"/><stop offset="1" stop-color="#999"/></linearGradient></defs></svg>