<svg xmlns="http://www.w3.org/2000/svg" width="300" height="200" fill="none" viewBox="0 0 300 200"><g clip-path="url(#a)"><path fill="#000" d="M0 0h300v200H0z"/><circle cx="79.891" cy="91.891" r="38.814" fill="url(#b)" transform="rotate(45.15 79.891 91.891)"/><path stroke="url(#c)" stroke-width="3" d="M0-1.5h33.196" transform="rotate(-179.85 16.66 46.973)scale(1 -1)"/><path stroke="url(#d)" stroke-width="3" d="M0-1.5h33.196" transform="rotate(-179.85 19.44 36.464)scale(1 -1)"/><path stroke="url(#e)" stroke-width="3" d="M0-1.5h33.196" transform="rotate(-179.85 19.412 57.489)scale(1 -1)"/><path fill="#fff" d="M76.08 187.4q-1.64 0-2.88-.6a5.63 5.63 0 0 1-2.08-1.72l-1.84 10.44H66l4.4-25.08q.24-1.36.16-1.6-.08-.28-.68-.36l-2.16-.24.2-1.04h6.24l-.64 3.56q1.4-2.2 2.96-3.08t3.2-.88q2.4 0 3.88 1.48 1.48 1.44 2 3.88t-.04 5.44l-.16.88q-.48 2.8-1.88 4.8-1.36 2-3.28 3.08a8.5 8.5 0 0 1-4.12 1.04m3.04-19.2q-.76 0-1.76.48-.96.44-2.08 1.72-1.08 1.24-2.24 3.68l-1.56 9q.72 1.56 1.8 2.28 1.08.68 2.56.68 2.48 0 3.88-1.88 1.44-1.92 2-5.28l.4-2.28q.68-4.04-.2-6.2-.88-2.2-2.8-2.2M139 91l10 5.773V85.227zm43 0-10-5.773v11.546zm-34 0v1h25v-2h-25z"/><path fill="#8efbff" d="M284.884 102.798a2 2 0 1 0-3.768-1.34l1.884.67zm-46.884-.67-1.921.557.007.023.007.023zm-21.543-34.113-.134 1.995zm42.607 65.952-.2 1.99zM193 102.128l1.907.602v-.001l.001-.003.006-.017.022-.069.091-.282a135.14 135.14 0 0 1 1.763-4.974c1.213-3.224 2.954-7.499 5.068-11.733 2.125-4.256 4.578-8.369 7.193-11.337 2.684-3.05 5.141-4.447 7.272-4.304l.134-1.995.135-1.996c-4.082-.275-7.664 2.382-10.543 5.651-2.949 3.349-5.584 7.817-7.769 12.194-2.197 4.398-3.991 8.81-5.234 12.111a139 139 0 0 0-1.82 5.138l-.098.303-.026.08-.006.021-.002.006-.001.002zm23.457-34.113-.134 1.995c2.087.14 4.452 1.78 6.951 4.919 2.432 3.055 4.675 7.13 6.597 11.283 1.914 4.135 3.468 8.258 4.546 11.356a133 133 0 0 1 1.557 4.763l.08.268.019.066.005.016.001.003v.001l1.921-.557 1.921-.558-.001-.002-.002-.005-.006-.021-.022-.076-.086-.29c-.076-.251-.188-.617-.334-1.082-.293-.928-.723-2.252-1.276-3.84-1.104-3.175-2.706-7.43-4.693-11.722-1.978-4.275-4.377-8.678-7.098-12.095-2.655-3.333-5.955-6.158-9.811-6.418zM238 102.128a374 374 0 0 0-1.906.604v.002l.002.005.006.019.023.071q.03.094.087.268c.076.232.188.57.335.999.294.858.724 2.081 1.276 3.55 1.102 2.933 2.697 6.87 4.659 10.856 1.953 3.969 4.311 8.07 6.96 11.281 2.587 3.136 5.764 5.805 9.422 6.174l.2-1.99.2-1.99c-2.017-.203-4.311-1.799-6.737-4.74-2.364-2.866-4.563-6.654-6.457-10.501-1.885-3.832-3.429-7.64-4.503-10.497a123 123 0 0 1-1.555-4.39l-.08-.246-.02-.061-.004-.014-.001-.003v-.001zm21.064 31.839-.2 1.99c3.997.402 7.594-2.017 10.521-5.061 2.993-3.113 5.704-7.307 7.968-11.425 2.276-4.139 4.156-8.302 5.465-11.422a133 133 0 0 0 1.521-3.788 92 92 0 0 0 .508-1.358l.027-.076.007-.021.003-.006v-.001l-1.884-.671-1.884-.67h-.001l-.001.004-.005.015-.024.066-.097.265a124.289 124.289 0 0 1-1.859 4.694c-1.276 3.041-3.095 7.067-5.281 11.042-2.197 3.994-4.709 7.837-7.346 10.579-2.703 2.81-5.143 4.065-7.238 3.854z"/><path fill="#fff" d="m139 153-10-5.774v11.548zm-107 0v1h98v-2H32z"/></g><defs><linearGradient id="b" x1="104.447" x2="54.543" y1="64.167" y2="121.992" gradientUnits="userSpaceOnUse"><stop stop-color="#49e0e5"/><stop offset="1" stop-color="#287c7f"/></linearGradient><linearGradient id="c" x1="33.196" x2="0" y1=".5" y2=".5" gradientUnits="userSpaceOnUse"><stop/><stop offset="1" stop-color="#00828c"/></linearGradient><linearGradient id="d" x1="33.196" x2="0" y1=".5" y2=".5" gradientUnits="userSpaceOnUse"><stop/><stop offset="1" stop-color="#00828c"/></linearGradient><linearGradient id="e" x1="33.196" x2="0" y1=".5" y2=".5" gradientUnits="userSpaceOnUse"><stop/><stop offset="1" stop-color="#00828c"/></linearGradient><clipPath id="a"><path fill="#fff" d="M0 0h300v200H0z"/></clipPath></defs></svg>