<svg xmlns="http://www.w3.org/2000/svg" width="300" height="200" fill="none" viewBox="0 0 300 200"><g clip-path="url(#a)"><path fill="#000" d="M0 0h300v200H0z"/><path fill="#fff" d="M10 23.273q.511-3.068 1.73-5.796a25.2 25.2 0 0 1 3.077-5.113h1.38a19 19 0 0 0-1.517 2.275q-.723 1.27-1.338 2.71-.604 1.44-1.065 2.95-.451 1.499-.699 2.974a22.6 22.6 0 0 0-.298 3.971q.025 2.003.358 3.802.341 1.798.946 3.136h-1.38a18.2 18.2 0 0 1-1.382-5.122q-.323-2.728.188-5.787M16.573 32h-1.67l9.247-17.454h1.704L29.306 32h-1.67l-2.907-15.384h-.11zm2.318-6.69h8.66l-.24 1.431h-8.658zm18.23-2.037a23.5 23.5 0 0 1-1.738 5.795 25 25 0 0 1-3.068 5.114h-1.381a18.4 18.4 0 0 0 1.517-2.276q.724-1.27 1.33-2.71.614-1.44 1.065-2.949.46-1.509.707-2.974.324-1.97.299-3.972a22 22 0 0 0-.367-3.801q-.332-1.798-.937-3.136h1.38a18 18 0 0 1 1.372 5.122q.333 2.727-.179 5.787M157 23.273a23.7 23.7 0 0 1 1.73-5.796 25.2 25.2 0 0 1 3.077-5.113h1.381a19 19 0 0 0-1.518 2.275q-.724 1.27-1.338 2.71-.604 1.44-1.065 2.95-.451 1.499-.699 2.974a22.6 22.6 0 0 0-.298 3.971q.025 2.003.358 3.802.34 1.798.946 3.136h-1.381a18.2 18.2 0 0 1-1.381-5.122q-.323-2.728.188-5.787M163.548 32l2.897-17.454h5.89q1.704 0 2.744.596 1.04.597 1.432 1.628.4 1.031.17 2.344-.179 1.091-.673 1.866-.495.767-1.202 1.253a4.9 4.9 0 0 1-1.508.69l-.026.137q.835.06 1.543.596.707.53 1.056 1.483.358.955.145 2.284a5.4 5.4 0 0 1-.988 2.361q-.759 1.032-2.08 1.628-1.312.588-3.187.588zm1.832-1.432h4.619q2.02 0 3.137-.895 1.116-.894 1.355-2.25.162-.997-.188-1.806a2.74 2.74 0 0 0-1.142-1.296q-.792-.477-1.969-.477h-4.687zm1.364-8.139h4.44q1.03 0 1.875-.426a3.9 3.9 0 0 0 1.398-1.176 3.86 3.86 0 0 0 .707-1.713q.239-1.39-.52-2.259-.75-.878-2.548-.878H167.8zm17.167.844a23.5 23.5 0 0 1-1.739 5.795 25 25 0 0 1-3.068 5.114h-1.381a18.5 18.5 0 0 0 1.517-2.276q.724-1.27 1.33-2.71.613-1.44 1.065-2.949.46-1.509.707-2.974.324-1.97.299-3.972a22 22 0 0 0-.367-3.801q-.332-1.798-.937-3.136h1.38a18 18 0 0 1 1.372 5.122q.333 2.727-.178 5.787M50 4l-5.773 10h11.547zm0 83h1V13h-2v74z"/><path fill="#fff" d="m146 86-10-5.773v11.546zm-96 0v1h87v-2H50zM196 4l-5.774 10h11.547zm0 83h1V13h-2v74z"/><path fill="#fff" d="m292 86-10-5.773v11.546zm-96 0v1h87v-2h-87zM10 115.273q.511-3.069 1.73-5.796a25.2 25.2 0 0 1 3.077-5.113h1.38a19 19 0 0 0-1.517 2.275q-.723 1.27-1.338 2.71a31 31 0 0 0-1.065 2.949 24 24 0 0 0-.699 2.975 22.6 22.6 0 0 0-.298 3.971q.025 2.004.358 3.801.341 1.799.946 3.137h-1.38a18.2 18.2 0 0 1-1.382-5.122q-.323-2.728.188-5.787M32.187 112h-1.585a4.4 4.4 0 0 0-.358-1.653 4.1 4.1 0 0 0-.93-1.338 4.2 4.2 0 0 0-1.423-.887q-.818-.315-1.832-.315-1.67 0-3.196.878-1.525.868-2.625 2.556t-1.5 4.125q-.4 2.404.128 4.049.528 1.636 1.73 2.48 1.21.844 2.838.844 1.04 0 1.994-.316a6.7 6.7 0 0 0 1.756-.878 6.8 6.8 0 0 0 1.406-1.338 6.1 6.1 0 0 0 .938-1.662h1.602a8.7 8.7 0 0 1-1.168 2.242 8.6 8.6 0 0 1-1.772 1.807 8.1 8.1 0 0 1-2.242 1.21 7.7 7.7 0 0 1-2.59.435q-2.234 0-3.776-1.117-1.534-1.116-2.182-3.145-.639-2.037-.18-4.798.453-2.71 1.731-4.705 1.288-1.994 3.153-3.076a7.9 7.9 0 0 1 4.057-1.091q1.398 0 2.506.434a5.3 5.3 0 0 1 1.883 1.211 5.3 5.3 0 0 1 1.202 1.807q.418 1.03.435 2.241m6.599 3.273a23.5 23.5 0 0 1-1.74 5.795 25 25 0 0 1-3.067 5.114h-1.381a18.4 18.4 0 0 0 1.517-2.276q.724-1.27 1.33-2.71.614-1.44 1.065-2.949.46-1.509.707-2.974.324-1.97.299-3.972a22 22 0 0 0-.367-3.801q-.332-1.798-.937-3.136h1.38a18 18 0 0 1 1.373 5.122q.332 2.727-.18 5.787M157 115.273a23.7 23.7 0 0 1 1.73-5.796 25.2 25.2 0 0 1 3.077-5.113h1.381a19 19 0 0 0-1.518 2.275 26 26 0 0 0-1.338 2.71 31 31 0 0 0-1.065 2.949q-.451 1.5-.699 2.975a22.6 22.6 0 0 0-.298 3.971q.025 2.004.358 3.801.34 1.799.946 3.137h-1.381a18.2 18.2 0 0 1-1.381-5.122q-.323-2.728.188-5.787M168.704 124h-5.156l2.897-17.455h5.378q2.489 0 4.108 1.057 1.62 1.057 2.25 3.026.63 1.96.171 4.687-.452 2.728-1.731 4.671-1.278 1.943-3.289 2.983-2.004 1.03-4.628 1.031m-3.324-1.432h3.409q2.233 0 3.903-.903a7.27 7.27 0 0 0 2.719-2.566q1.049-1.67 1.424-3.963.375-2.25-.086-3.852-.451-1.602-1.747-2.454-1.287-.853-3.417-.853h-3.793zm20.218-7.295a23.4 23.4 0 0 1-1.739 5.795 25 25 0 0 1-3.068 5.114h-1.38a18.5 18.5 0 0 0 1.517-2.276q.724-1.27 1.329-2.71.614-1.44 1.065-2.949.46-1.509.708-2.974.324-1.97.298-3.972a22 22 0 0 0-.366-3.801q-.333-1.798-.938-3.136h1.381a18 18 0 0 1 1.372 5.122q.333 2.727-.179 5.787M50 98l-5.773 10h11.547zm0 83h1v-74h-2v74z"/><path fill="#fff" d="m146 180-10-5.774v11.548zm-96 0v1h87v-2H50zM196 98l-5.774 10h11.547zm0 83h1v-74h-2v74z"/><path fill="#fff" d="m292 180-10-5.774v11.548zm-96 0v1h87v-2h-87z"/><path stroke="#e6ff2a" stroke-width="2" d="m196.417 85.188 85-61M195.417 180.188S224.5 179.5 249.5 162.5s30.917-43.312 30.917-43.312M125.374 85.78l-76-61M125.374 179.78S117.5 152 101.5 136s-52.126-17.22-52.126-17.22"/><path fill="#49e0e5" d="M42.04 46.192q-.456 0-.72-.24-.264-.264-.264-.72 0-.504.336-.864.36-.36.888-.36.48 0 .744.264.264.24.264.672 0 .48-.36.864-.336.384-.888.384m-3.264 3.72.096-.6h3.288L40.744 57.4q-.216 1.224-.24 1.872 0 .648.144.912.144.24.408.24.36 0 .792-.456.456-.456.792-1.488l.792.528q-.528 1.08-1.2 1.608-.672.504-1.368.504-.984 0-1.44-.816-.456-.84-.144-2.712l1.104-6.384q.144-.84.096-.984-.048-.168-.408-.192zM89.976 92.28l.12-.6h5.256l-.12.6-1.32.12q-.264.024-.384.096-.12.048-.192.288a6 6 0 0 0-.168.792l-2.208 12.528q-.144.84-.096.984t.408.192l1.296.12-.096.6h-5.256l.096-.6 1.344-.12q.264-.024.384-.072.12-.072.192-.312t.168-.792l2.208-12.528q.144-.84.096-.984-.048-.168-.408-.192zM239.976 92.28l.12-.6h5.256l-.12.6-1.32.12q-.264.024-.384.096-.12.048-.192.288a6 6 0 0 0-.168.792l-2.208 12.528q-.144.84-.096.984t.408.192l1.296.12-.096.6h-5.256l.096-.6 1.344-.12q.264-.024.384-.072.12-.072.192-.312t.168-.792l2.208-12.528q.144-.84.096-.984-.048-.168-.408-.192zM87.976 184.28l.12-.6h5.256l-.12.6-1.32.12q-.264.024-.384.096-.12.048-.192.288a6 6 0 0 0-.168.792l-2.208 12.528q-.144.84-.096.984t.408.192l1.296.12-.096.6h-5.256l.096-.6 1.344-.12q.264-.024.384-.072.12-.072.192-.312t.168-.792l2.208-12.528q.144-.84.096-.984-.048-.168-.408-.192zM237.976 184.28l.12-.6h5.256l-.12.6-1.32.12q-.264.024-.384.096-.12.048-.192.288a6 6 0 0 0-.168.792l-2.208 12.528q-.144.84-.096.984t.408.192l1.296.12-.096.6h-5.256l.096-.6 1.344-.12q.264-.024.384-.072.12-.072.192-.312t.168-.792l2.208-12.528q.144-.84.096-.984-.048-.168-.408-.192zM42.04 138.192q-.456 0-.72-.24-.264-.264-.264-.72 0-.504.336-.864.36-.36.888-.36.48 0 .744.264.264.24.264.672 0 .48-.36.864-.336.384-.888.384m-3.264 3.72.096-.6h3.288l-1.416 8.088q-.216 1.224-.24 1.872 0 .648.144.912.144.24.408.24.36 0 .792-.456.456-.456.792-1.488l.792.528q-.528 1.08-1.2 1.608-.672.504-1.368.504-.984 0-1.44-.816-.456-.84-.144-2.712l1.104-6.384q.144-.84.096-.984-.048-.168-.408-.192zM185.04 138.192q-.456 0-.72-.24-.264-.264-.264-.72 0-.504.336-.864.36-.36.888-.36.48 0 .744.264.264.24.264.672 0 .48-.36.864-.336.384-.888.384m-3.264 3.72.096-.6h3.288l-1.416 8.088q-.216 1.224-.24 1.872 0 .648.144.912.144.24.408.24.36 0 .792-.456.456-.456.792-1.488l.792.528q-.528 1.08-1.2 1.608-.672.504-1.368.504-.984 0-1.44-.816-.456-.84-.144-2.712l1.104-6.384q.144-.84.096-.984-.048-.168-.408-.192zM188.04 46.192q-.456 0-.72-.24-.264-.264-.264-.72 0-.504.336-.864.36-.36.888-.36.48 0 .744.264.264.24.264.672 0 .48-.36.864-.336.384-.888.384m-3.264 3.72.096-.6h3.288l-1.416 8.088q-.216 1.224-.24 1.872 0 .648.144.912.144.24.408.24.36 0 .792-.456.456-.456.792-1.488l.792.528q-.528 1.08-1.2 1.608-.672.504-1.368.504-.984 0-1.44-.816-.456-.84-.144-2.712l1.104-6.384q.144-.84.096-.984-.048-.168-.408-.192z"/></g><defs><clipPath id="a"><path fill="#fff" d="M0 0h300v200H0z"/></clipPath></defs></svg>