<svg xmlns="http://www.w3.org/2000/svg" width="300" height="200" fill="none" viewBox="0 0 300 200"><g clip-path="url(#a)"><path fill="#000" d="M0 0h300v200H0z"/><path fill="#fff" d="m150 13-5.774 10h11.547zm0 155h1V22h-2v146z"/><path fill="#ff2600" d="m88.673 117-1.377-14.472h2.349l.54 7.803q.054.648.108 1.539l.108 1.782q.081.891.081 1.512h.108q1.89-1.782 3.078-3.699a16.8 16.8 0 0 0 1.836-4.104q.675-2.214.945-4.833h2.43q-.297 2.781-1.161 5.211-.837 2.43-2.43 4.698T91.076 117zm10.627-5.292 1.917-1.053h1.134l-1.404 7.965q-.081.486-.054.567t.216.108l.756.054-.081.486h-3.645l.08-.486 1.027-.054q.216-.027.27-.108.081-.081.162-.567l1.242-7.128-1.35.756z"/><path fill="#e6ff2a" d="m165.673 126-1.377-14.472h2.349l.54 7.803q.054.648.108 1.539l.108 1.782q.081.891.081 1.512h.108q1.89-1.782 3.078-3.699a16.8 16.8 0 0 0 1.836-4.104q.675-2.214.945-4.833h2.43q-.297 2.781-1.161 5.211-.837 2.43-2.43 4.698T168.076 126zm15.487.54-.405 2.295h-5.697l.108-.621q.189-1.08.567-1.701a3.1 3.1 0 0 1 .999-1.053q.648-.459 1.647-.945 1.134-.567 1.674-1.242.54-.702.54-1.728 0-.783-.324-1.134-.297-.351-.891-.351-.918 0-1.377.648-.459.621-.567 1.809l-1.242-.216q0-1.08.756-1.917.756-.864 2.403-.864 1.431 0 2.025.648.621.648.621 1.512 0 1.08-.81 1.89-.81.783-2.808 1.755-1.107.513-1.674 1.107-.54.594-.729 1.539h3.51q.459 0 .567-.054.135-.054.216-.297l.405-1.08z"/><path fill="#8efbff" d="M131.67 17.341q-.513 0-.81-.27-.297-.297-.297-.81 0-.567.378-.972.405-.405.999-.405.54 0 .837.297.297.27.297.756 0 .54-.405.972-.378.432-.999.432m-3.672 4.185.108-.675h3.699l-1.593 9.099q-.243 1.377-.27 2.106 0 .729.162 1.026.162.27.459.27.405 0 .891-.513.513-.513.891-1.674l.891.594q-.594 1.215-1.35 1.809-.756.567-1.539.567-1.107 0-1.62-.918-.513-.945-.162-3.051l1.242-7.182q.162-.945.108-1.107-.054-.189-.459-.216zM239.092 179.503 230.857 196h-1.485l-2.403-16.497q-.108-.756-.216-.891-.081-.135-.486-.162l-1.323-.135.135-.675h5.562l-.135.675-1.323.135q-.432.027-.513.189-.081.135.027.864l2.079 14.715 7.317-14.715q.378-.729.351-.864-.027-.162-.459-.189l-1.323-.135.135-.675h4.806l-.135.675-1.323.135q-.405.027-.54.162t-.513.891"/><path stroke="#e6ff2a" stroke-width="3" d="M93 168s24-6.5 38.5-21.5 22-41.5 37-54 35-18 51.25-18H277"/><path stroke="#ff2600" stroke-width="3" d="M33.5 168s33-10 59-30.5 23.5-34.348 37.5-45 73.5-18 89.75-18H277" opacity=".7"/><path fill="#fff" d="m279 168-10-5.774v11.548zm-257 0v1h248v-2H22z"/><path fill="#e6ff2a" d="m88.43 185.414.162-.918h7.128l-.162.918zm22.1-7.911L102.295 194h-1.485l-2.404-16.497q-.108-.756-.216-.891-.08-.135-.486-.162l-1.322-.135.134-.675h5.563l-.135.675-1.323.135q-.432.027-.513.189-.081.135.027.864l2.079 14.715 7.317-14.715q.378-.729.351-.864-.027-.162-.459-.189l-1.323-.135.135-.675h4.806l-.135.675-1.323.135q-.405.027-.54.162t-.513.891m7.46 14.256-.162 1.026q-.324 2.106-1.296 3.132-.972 1.053-2.457 1.053-1.674 0-2.43-1.188t-.405-3.078l.189-1.026q.756-4.158 3.726-4.158 1.674 0 2.403 1.161t.432 3.078m-1.269-.621q.27-1.539-.135-2.295-.405-.783-1.35-.783a1.79 1.79 0 0 0-1.458.702q-.54.702-.837 2.241l-.432 2.322q-.27 1.539.135 2.322.432.783 1.35.783t1.485-.702.837-2.268zm8.533 3.402-.405 2.295h-5.697l.108-.621q.189-1.08.567-1.701a3.1 3.1 0 0 1 .999-1.053q.648-.459 1.647-.945 1.134-.567 1.674-1.242.54-.702.54-1.728 0-.783-.324-1.134-.297-.351-.891-.351-.918 0-1.377.648-.459.621-.567 1.809l-1.242-.216q0-1.08.756-1.917.756-.864 2.403-.864 1.431 0 2.025.648.621.648.621 1.512 0 1.08-.81 1.89-.81.783-2.808 1.755-1.107.513-1.674 1.107-.54.594-.729 1.539h3.51q.459 0 .567-.054.135-.054.216-.297l.405-1.08z"/><path fill="#ff2600" d="m14.43 184.414.162-.918h7.128l-.162.918zm22.1-7.911L28.293 193H26.81l-2.402-16.497q-.11-.756-.216-.891-.081-.135-.486-.162l-1.323-.135.134-.675h5.563l-.136.675-1.323.135q-.432.027-.512.189-.082.135.026.864l2.08 14.715 7.317-14.715q.378-.729.35-.864-.026-.162-.459-.189l-1.322-.135.134-.675h4.807l-.135.675-1.323.135q-.405.027-.54.162t-.514.891m7.46 14.256-.162 1.026q-.324 2.106-1.296 3.132-.972 1.053-2.457 1.053-1.674 0-2.43-1.188t-.405-3.078l.189-1.026q.756-4.158 3.726-4.158 1.674 0 2.403 1.161t.432 3.078m-1.27-.621q.27-1.539-.134-2.295-.405-.783-1.35-.783a1.79 1.79 0 0 0-1.458.702q-.54.702-.837 2.241l-.432 2.322q-.27 1.539.135 2.322.432.783 1.35.783t1.485-.702.837-2.268zm3.674-2.43 1.917-1.053h1.134l-1.404 7.965q-.081.486-.054.567t.216.108l.756.054-.081.486h-3.645l.08-.486 1.027-.054q.216-.027.27-.108.081-.081.162-.567l1.242-7.128-1.35.756z"/></g><defs><clipPath id="a"><path fill="#fff" d="M0 0h300v200H0z"/></clipPath></defs></svg>