<svg xmlns="http://www.w3.org/2000/svg" width="300" height="200" fill="none" viewBox="0 0 300 200"><path fill="#000" d="M0 0h300v200H0z"/><circle cx="152.891" cy="99.891" r="38.814" fill="url(#a)" transform="rotate(45.15 152.891 99.891)"/><path stroke="url(#b)" stroke-width="4" d="M106 104H44"/><path stroke="url(#c)" stroke-width="4" d="M112 83H44"/><path stroke="url(#d)" stroke-width="4" d="M112 125H44"/><path fill="#fff" d="M167.608 107.344q-.704 1.472-1.664 2.144a3.4 3.4 0 0 1-2.048.672q-1.472 0-2.176-1.024-.703-1.024-.288-3.2l1.28-6.272q.48-2.432-.064-3.52-.512-1.088-1.632-1.088t-2.592.992q-1.44.96-3.04 3.744L153.592 110h-2.624l1.824-10.336q.448-2.432-.064-3.52t-1.632-1.088-2.592.992-3.072 3.84L143.64 110h-2.624l2.304-13.248q.192-1.088.128-1.28-.064-.224-.544-.288l-1.728-.16.16-.864h4.992l-.544 3.36q1.409-1.952 2.88-2.816 1.472-.864 3.008-.864 1.792 0 2.784 1.056 1.024 1.024 1.12 2.816 1.408-2.08 2.912-2.976 1.536-.896 3.104-.896 2.273 0 3.264 1.568 1.024 1.568.48 4.224l-1.312 6.4q-.32 1.632-.288 2.368.032.704.64.704.544 0 1.088-.544.576-.576.992-1.92zM141 176.168l-.16.832h-7.712l.16-.832 1.792-.192q.544-.064.672-.256.128-.224.32-1.312l2.912-16.576q.192-1.12.128-1.312-.064-.224-.544-.256l-1.728-.192.128-.832h7.712l-.128.832-1.792.192q-.512.032-.672.256-.128.192-.32 1.312l-1.568 8.928 9.28-9.12q.929-.928.96-1.12.064-.224-.416-.256l-1.6-.192.128-.832h6.272l-.128.832-1.696.192a1.8 1.8 0 0 0-.544.128q-.192.064-.48.352-.288.256-.928.896l-6.112 6.016 4.256 10.752q.32.768.48 1.088.192.288.352.384.192.065.512.096l1.504.192-.16.832h-4.8l-4.256-11.264-2.944 2.912-1.024 5.76q-.192 1.088-.128 1.312.064.192.544.256zm28.978-4.384L169.05 177h-15.328l.16-.832 1.792-.192q.351-.031.512-.096.16-.096.256-.384.096-.32.224-1.088l2.912-16.576q.191-1.12.128-1.312-.064-.192-.544-.256l-1.76-.16.16-.864h14.944l-.928 5.216h-.832l-.32-3.36q-.032-.384-.128-.544-.065-.192-.384-.224-.288-.064-1.056-.064h-6.208l-1.632 9.248h4.288q.768 0 1.088-.032.32-.064.48-.224.16-.192.32-.576l1.024-2.4h.8l-1.312 7.488h-.8l-.192-2.4q-.033-.576-.256-.704-.225-.128-1.344-.128h-4.288l-1.664 9.44h6.592q.768 0 1.088-.032.32-.064.48-.224.16-.192.32-.576l1.504-3.36z"/><defs><linearGradient id="a" x1="177.447" x2="127.543" y1="72.167" y2="129.992" gradientUnits="userSpaceOnUse"><stop stop-color="#49e0e5"/><stop offset="1" stop-color="#287c7f"/></linearGradient><linearGradient id="b" x1="44" x2="106" y1="101.5" y2="101.5" gradientUnits="userSpaceOnUse"><stop/><stop offset="1" stop-color="#00828c"/></linearGradient><linearGradient id="c" x1="44" x2="112" y1="80.5" y2="80.5" gradientUnits="userSpaceOnUse"><stop/><stop offset="1" stop-color="#00828c"/></linearGradient><linearGradient id="d" x1="44" x2="112" y1="122.5" y2="122.5" gradientUnits="userSpaceOnUse"><stop/><stop offset="1" stop-color="#00828c"/></linearGradient></defs></svg>