<svg xmlns="http://www.w3.org/2000/svg" width="300" height="200" fill="none" viewBox="0 0 300 200"><path fill="#000" d="M0 0h300v200H0z"/><circle cx="78.79" cy="99.79" r="23.896" fill="url(#a)" transform="rotate(-44.074 78.79 99.79)"/><circle cx="243.79" cy="74.79" r="23.896" fill="url(#b)" transform="rotate(-44.074 243.79 74.79)"/><circle cx="217.79" cy="99.79" r="23.896" fill="url(#c)" transform="rotate(-44.074 217.79 99.79)"/><circle cx="265.79" cy="99.79" r="23.896" fill="url(#d)" transform="rotate(-44.074 265.79 99.79)"/><circle cx="243.79" cy="122.79" r="23.896" fill="url(#e)" transform="rotate(-44.074 243.79 122.79)"/><path stroke="url(#f)" stroke-width="3" d="M0-1.5h42.434" transform="matrix(-.99997 -.00808 .03231 -.99948 45.433 99.133)"/><path stroke="url(#g)" stroke-width="3" d="M0-1.5h42.434" transform="matrix(-.99997 -.00808 .03231 -.99948 52.071 112.623)"/><path stroke="url(#h)" stroke-width="3" d="M0-1.5h42.434" transform="matrix(-.99997 -.00808 .03231 -.99948 52.986 84.343)"/><path stroke="url(#i)" stroke-width="4" d="M0-2h42.434" transform="matrix(-.99997 -.00808 .03231 -.99948 183.433 100.133)"/><path stroke="url(#j)" stroke-width="4" d="M0-2h42.434" transform="matrix(-.99997 -.00808 .03231 -.99948 190.071 113.623)"/><path stroke="url(#k)" stroke-width="4" d="M0-2h42.434" transform="matrix(-.99997 -.00808 .03231 -.99948 190.986 85.343)"/><path fill="#fff" d="M77.864 107.32q-1.312 0-2.304-.48a4.5 4.5 0 0 1-1.664-1.376l-1.472 8.352H69.8l3.52-20.064q.192-1.088.128-1.28-.064-.224-.544-.288l-1.728-.192.16-.832h4.992l-.512 2.848q1.12-1.76 2.368-2.464 1.248-.705 2.56-.704 1.92 0 3.104 1.184 1.185 1.152 1.6 3.104t-.032 4.352l-.128.704q-.384 2.24-1.504 3.84-1.088 1.6-2.624 2.464a6.8 6.8 0 0 1-3.296.832m2.432-15.36q-.608 0-1.408.384-.768.352-1.664 1.376-.864.992-1.792 2.944l-1.248 7.2q.576 1.248 1.44 1.824.864.544 2.048.544 1.984 0 3.104-1.504 1.152-1.536 1.6-4.224l.32-1.824q.545-3.232-.16-4.96-.704-1.76-2.24-1.76"/><defs><linearGradient id="a" x1="95.218" x2="60.121" y1="116.218" y2="84.108" gradientUnits="userSpaceOnUse"><stop stop-color="#e93232"/><stop offset="1" stop-color="#831c1c"/></linearGradient><linearGradient id="b" x1="260.218" x2="225.121" y1="91.218" y2="59.108" gradientUnits="userSpaceOnUse"><stop stop-color="#e93232"/><stop offset="1" stop-color="#831c1c"/></linearGradient><linearGradient id="c" x1="234.218" x2="199.121" y1="116.218" y2="84.108" gradientUnits="userSpaceOnUse"><stop stop-color="#e93232"/><stop offset="1" stop-color="#831c1c"/></linearGradient><linearGradient id="d" x1="282.218" x2="247.121" y1="116.218" y2="84.108" gradientUnits="userSpaceOnUse"><stop stop-color="#e93232"/><stop offset="1" stop-color="#831c1c"/></linearGradient><linearGradient id="e" x1="260.218" x2="225.121" y1="139.218" y2="107.108" gradientUnits="userSpaceOnUse"><stop stop-color="#e93232"/><stop offset="1" stop-color="#831c1c"/></linearGradient><linearGradient id="f" x1="42.434" x2="0" y1=".5" y2=".5" gradientUnits="userSpaceOnUse"><stop/><stop offset="1" stop-color="#be0000"/></linearGradient><linearGradient id="g" x1="42.434" x2="0" y1=".5" y2=".5" gradientUnits="userSpaceOnUse"><stop/><stop offset="1" stop-color="#be0000"/></linearGradient><linearGradient id="h" x1="42.434" x2="0" y1=".5" y2=".5" gradientUnits="userSpaceOnUse"><stop/><stop offset="1" stop-color="#be0000"/></linearGradient><linearGradient id="i" x1="42.434" x2="0" y1=".5" y2=".5" gradientUnits="userSpaceOnUse"><stop/><stop offset="1" stop-color="#be0000"/></linearGradient><linearGradient id="j" x1="42.434" x2="0" y1=".5" y2=".5" gradientUnits="userSpaceOnUse"><stop/><stop offset="1" stop-color="#be0000"/></linearGradient><linearGradient id="k" x1="42.434" x2="0" y1=".5" y2=".5" gradientUnits="userSpaceOnUse"><stop/><stop offset="1" stop-color="#be0000"/></linearGradient></defs></svg>