<svg xmlns="http://www.w3.org/2000/svg" width="300" height="200" fill="none" viewBox="0 0 300 200"><path fill="#000" d="M0 0h300v200H0z"/><path fill="#fff" d="m79 13-5.773 10h11.546zm0 181h1V22h-2v172z"/><path fill="#fff" d="m259 107-10-5.774v11.548zm-180 0v1h171v-2H79z"/><path stroke="#e6ff2a" stroke-width="3" d="m133.029 106.857 93-79"/><path stroke="#e6ff2a" stroke-dasharray="6 6" stroke-width="3" d="m79.029 153.118 55.636-47.261"/><path fill="#fff" d="M46.552 135.496h-1.376l.16-.832q.288-1.471.864-2.4a7.2 7.2 0 0 1 1.312-1.632q.735-.704 1.472-1.28.768-.576 1.408-1.28a5.4 5.4 0 0 0 1.024-1.696q.416-.992.416-2.496 0-2.176-.992-3.072-.96-.928-2.368-.928-4.384 0-4.832 6.176l-1.824-.512q0-1.728.672-3.232.705-1.504 2.176-2.432 1.471-.96 3.84-.96 2.848 0 4.192 1.376 1.376 1.376 1.376 3.552 0 1.44-.512 2.464a6.2 6.2 0 0 1-1.344 1.792q-.8.736-1.728 1.376t-1.792 1.344a7.2 7.2 0 0 0-1.408 1.6q-.576.895-.672 2.208zm-1.472 5.824q-.64 0-1.056-.352-.384-.352-.384-.992 0-.704.448-1.184.48-.48 1.216-.48.64 0 1.024.352.416.352.416.992 0 .704-.48 1.184-.448.48-1.184.48M66 108l-5.773 10h11.547zm0 45 5.773-10H60.228zm0-36h-1v27h2v-27z"/><path fill="#8efbff" d="M55.092 44.503 46.857 61h-1.485l-2.403-16.497q-.108-.756-.216-.891-.081-.135-.486-.162l-1.323-.135.135-.675h5.562l-.135.675-1.323.135q-.432.027-.513.189-.081.135.027.864l2.079 14.715 7.317-14.715q.378-.729.351-.864-.027-.162-.459-.189l-1.323-.135.135-.675h4.806l-.135.675-1.323.135q-.405.027-.54.162t-.513.891m7.46 14.256-.162 1.026q-.324 2.106-1.296 3.132-.972 1.053-2.457 1.053-1.674 0-2.43-1.188t-.405-3.078l.19-1.026q.755-4.158 3.725-4.158 1.674 0 2.403 1.161t.432 3.078m-1.269-.621q.27-1.539-.135-2.295-.405-.783-1.35-.783a1.79 1.79 0 0 0-1.458.702q-.54.702-.837 2.241l-.432 2.322q-.27 1.539.135 2.322.432.783 1.35.783t1.485-.702.837-2.268zM231.673 134l-1.377-14.472h2.349l.54 7.803q.054.648.108 1.539l.108 1.782q.081.891.081 1.512h.108q1.89-1.782 3.078-3.699a16.8 16.8 0 0 0 1.836-4.104q.675-2.214.945-4.833h2.43q-.297 2.781-1.161 5.211-.837 2.43-2.43 4.698T234.076 134z"/></svg>