<svg xmlns="http://www.w3.org/2000/svg" width="300" height="200" fill="none" viewBox="0 0 300 200"><g clip-path="url(#a)"><path fill="#000" d="M0 0h300v200H0z"/><path stroke="#fff" stroke-width="2" d="M6 162h287"/><path fill="url(#b)" d="M6 163h287v19H6z"/><g filter="url(#c)"><path stroke="url(#d)" stroke-width="8" d="m15.237 67.684 136.791 92.267"/></g><g filter="url(#e)"><path stroke="url(#f)" stroke-width="8" d="m284.028 67.316-136.791 92.267"/></g><path stroke="#fff" stroke-dasharray="5 5" d="M149.5 160V40"/><path fill="#fff" d="M135.67 119.557v1.875h-8.318v-1.875zm1.228-.205v2.08q0 2.676-.665 4.406t-1.875 2.565q-1.21.836-2.847.836-1.636 0-2.863-.836-1.227-.835-1.909-2.565t-.682-4.406v-2.08q0-2.658.673-4.355.674-1.696 1.892-2.506 1.219-.809 2.855-.809 1.654 0 2.872.809 1.22.81 1.884 2.506.665 1.697.665 4.355m-2.046 2.455v-2.83q0-1.756-.426-2.983t-1.185-1.866a2.65 2.65 0 0 0-1.764-.639q-1.482 0-2.446 1.431-.963 1.424-.963 4.057v2.83q0 2.633.98 4.133.981 1.492 2.463 1.492 1.006 0 1.756-.673.75-.674 1.168-1.935t.417-3.017M172.67 118.557v1.875h-8.318v-1.875zm1.228-.205v2.08q0 2.676-.665 4.406t-1.875 2.565-2.847.836q-1.636 0-2.863-.836-1.228-.835-1.909-2.565-.682-1.73-.682-4.406v-2.08q0-2.658.673-4.355.674-1.696 1.892-2.506 1.219-.809 2.855-.809 1.654 0 2.872.809 1.22.81 1.884 2.506.665 1.697.665 4.355m-2.046 2.455v-2.83q0-1.756-.426-2.983t-1.185-1.866a2.65 2.65 0 0 0-1.764-.639q-1.482 0-2.446 1.431-.963 1.424-.963 4.057v2.83q0 2.633.98 4.133.981 1.492 2.463 1.492 1.006 0 1.756-.673.75-.674 1.168-1.935t.417-3.017"/><path stroke="#f9f9f9" stroke-width="2" d="M163.167 143.658c-2.439-11.619-9.794-10.907-13.167-9.098M136.786 143.658c2.439-11.619 9.794-10.907 13.167-9.098"/></g><defs><linearGradient id="b" x1="6" x2="293" y1="172.5" y2="172.5" gradientUnits="userSpaceOnUse"><stop stop-color="#49e0e5"/><stop offset=".399" stop-color="#cde3e4"/><stop offset=".75" stop-color="#49e0e5"/><stop offset="1" stop-color="#cde3e4"/></linearGradient><linearGradient id="d" x1="12.72" x2="149.512" y1="71.415" y2="163.681" gradientUnits="userSpaceOnUse"><stop stop-color="#fd1515"/><stop offset=".5" stop-color="#ca1010"/><stop offset=".75" stop-color="#fd1515"/><stop offset="1" stop-color="#970c0c"/></linearGradient><linearGradient id="f" x1="281.512" x2="144.72" y1="63.586" y2="155.852" gradientUnits="userSpaceOnUse"><stop stop-color="#fd1515"/><stop offset=".5" stop-color="#ca1010"/><stop offset=".75" stop-color="#fd1515"/><stop offset="1" stop-color="#970c0c"/></linearGradient><filter id="c" width="641.265" height="598.899" x="-237" y="-185.632" color-interpolation-filters="sRGB" filterUnits="userSpaceOnUse"><feFlood flood-opacity="0" result="BackgroundImageFix"/><feColorMatrix in="SourceAlpha" result="hardAlpha" values="0 0 0 0 0 0 0 0 0 0 0 0 0 0 0 0 0 0 127 0"/><feOffset/><feGaussianBlur stdDeviation="9.12"/><feColorMatrix values="0 0 0 0 1 0 0 0 0 0.14902 0 0 0 0 0 0 0 0 1 0"/><feBlend in2="BackgroundImageFix" result="effect1_dropShadow_84_24"/><feColorMatrix in="SourceAlpha" result="hardAlpha" values="0 0 0 0 0 0 0 0 0 0 0 0 0 0 0 0 0 0 127 0"/><feOffset/><feGaussianBlur stdDeviation="18.24"/><feColorMatrix values="0 0 0 0 1 0 0 0 0 0.14902 0 0 0 0 0 0 0 0 1 0"/><feBlend in2="effect1_dropShadow_84_24" result="effect2_dropShadow_84_24"/><feColorMatrix in="SourceAlpha" result="hardAlpha" values="0 0 0 0 0 0 0 0 0 0 0 0 0 0 0 0 0 0 127 0"/><feOffset/><feGaussianBlur stdDeviation="63.84"/><feColorMatrix values="0 0 0 0 1 0 0 0 0 0.14902 0 0 0 0 0 0 0 0 1 0"/><feBlend in2="effect2_dropShadow_84_24" result="effect3_dropShadow_84_24"/><feColorMatrix in="SourceAlpha" result="hardAlpha" values="0 0 0 0 0 0 0 0 0 0 0 0 0 0 0 0 0 0 127 0"/><feOffset/><feGaussianBlur stdDeviation="125"/><feColorMatrix values="0 0 0 0 1 0 0 0 0 0.14902 0 0 0 0 0 0 0 0 1 0"/><feBlend in2="effect3_dropShadow_84_24" result="effect4_dropShadow_84_24"/><feColorMatrix in="SourceAlpha" result="hardAlpha" values="0 0 0 0 0 0 0 0 0 0 0 0 0 0 0 0 0 0 127 0"/><feOffset/><feGaussianBlur stdDeviation="125"/><feColorMatrix values="0 0 0 0 1 0 0 0 0 0.14902 0 0 0 0 0 0 0 0 1 0"/><feBlend in2="effect4_dropShadow_84_24" result="effect5_dropShadow_84_24"/><feColorMatrix in="SourceAlpha" result="hardAlpha" values="0 0 0 0 0 0 0 0 0 0 0 0 0 0 0 0 0 0 127 0"/><feOffset/><feGaussianBlur stdDeviation="125"/><feColorMatrix values="0 0 0 0 1 0 0 0 0 0.14902 0 0 0 0 0 0 0 0 1 0"/><feBlend in2="effect5_dropShadow_84_24" result="effect6_dropShadow_84_24"/><feBlend in="SourceGraphic" in2="effect6_dropShadow_84_24" result="shape"/></filter><filter id="e" width="641.265" height="598.899" x="-105" y="-186" color-interpolation-filters="sRGB" filterUnits="userSpaceOnUse"><feFlood flood-opacity="0" result="BackgroundImageFix"/><feColorMatrix in="SourceAlpha" result="hardAlpha" values="0 0 0 0 0 0 0 0 0 0 0 0 0 0 0 0 0 0 127 0"/><feOffset/><feGaussianBlur stdDeviation="9.12"/><feColorMatrix values="0 0 0 0 1 0 0 0 0 0.14902 0 0 0 0 0 0 0 0 1 0"/><feBlend in2="BackgroundImageFix" result="effect1_dropShadow_84_24"/><feColorMatrix in="SourceAlpha" result="hardAlpha" values="0 0 0 0 0 0 0 0 0 0 0 0 0 0 0 0 0 0 127 0"/><feOffset/><feGaussianBlur stdDeviation="18.24"/><feColorMatrix values="0 0 0 0 1 0 0 0 0 0.14902 0 0 0 0 0 0 0 0 1 0"/><feBlend in2="effect1_dropShadow_84_24" result="effect2_dropShadow_84_24"/><feColorMatrix in="SourceAlpha" result="hardAlpha" values="0 0 0 0 0 0 0 0 0 0 0 0 0 0 0 0 0 0 127 0"/><feOffset/><feGaussianBlur stdDeviation="63.84"/><feColorMatrix values="0 0 0 0 1 0 0 0 0 0.14902 0 0 0 0 0 0 0 0 1 0"/><feBlend in2="effect2_dropShadow_84_24" result="effect3_dropShadow_84_24"/><feColorMatrix in="SourceAlpha" result="hardAlpha" values="0 0 0 0 0 0 0 0 0 0 0 0 0 0 0 0 0 0 127 0"/><feOffset/><feGaussianBlur stdDeviation="125"/><feColorMatrix values="0 0 0 0 1 0 0 0 0 0.14902 0 0 0 0 0 0 0 0 1 0"/><feBlend in2="effect3_dropShadow_84_24" result="effect4_dropShadow_84_24"/><feColorMatrix in="SourceAlpha" result="hardAlpha" values="0 0 0 0 0 0 0 0 0 0 0 0 0 0 0 0 0 0 127 0"/><feOffset/><feGaussianBlur stdDeviation="125"/><feColorMatrix values="0 0 0 0 1 0 0 0 0 0.14902 0 0 0 0 0 0 0 0 1 0"/><feBlend in2="effect4_dropShadow_84_24" result="effect5_dropShadow_84_24"/><feColorMatrix in="SourceAlpha" result="hardAlpha" values="0 0 0 0 0 0 0 0 0 0 0 0 0 0 0 0 0 0 127 0"/><feOffset/><feGaussianBlur stdDeviation="125"/><feColorMatrix values="0 0 0 0 1 0 0 0 0 0.14902 0 0 0 0 0 0 0 0 1 0"/><feBlend in2="effect5_dropShadow_84_24" result="effect6_dropShadow_84_24"/><feBlend in="SourceGraphic" in2="effect6_dropShadow_84_24" result="shape"/></filter><clipPath id="a"><path fill="#fff" d="M0 0h300v200H0z"/></clipPath></defs></svg>