<svg xmlns="http://www.w3.org/2000/svg" width="300" height="200" fill="none" viewBox="0 0 300 200"><g clip-path="url(#a)"><path fill="#000" d="M0 0h300v200H0z"/><path fill="url(#b)" d="M0 133h300v67H0z"/><circle cx="74" cy="69" r="16" fill="url(#c)"/><circle cx="238.5" cy="34.5" r="24.5" fill="url(#d)"/><path stroke="url(#e)" stroke-width="3" d="m56.939 57.061-15-15"/><path stroke="url(#f)" stroke-width="3" d="m49.939 69.061-15-15"/><path stroke="url(#g)" stroke-width="3" d="m69.939 49.061-15-15"/><path stroke="url(#h)" stroke-width="3" d="M0-1.5h21.213" transform="rotate(135 96.488 73.942)scale(1 -1)"/><path stroke="url(#i)" stroke-width="3" d="M0-1.5h21.213" transform="rotate(135 95.473 66.492)scale(1 -1)"/><path stroke="url(#j)" stroke-width="3" d="M0-1.5h21.213" transform="rotate(135 101.038 79.927)scale(1 -1)"/><path fill="#fff" d="M237.227 44.364q-2.443 0-4.034-1.137-1.59-1.148-2.227-3.17-.637-2.034-.193-4.682.443-2.636 1.75-4.682 1.307-2.057 3.227-3.216a7.87 7.87 0 0 1 4.17-1.17q1.42 0 2.66.523a5.25 5.25 0 0 1 2.102 1.58q.874 1.056 1.216 2.67.34 1.602-.023 3.795l-.159 1H232.08l.284-1.784h11.579q.285-1.682-.159-3.023-.443-1.34-1.511-2.125-1.058-.795-2.625-.795-1.603 0-3.034.898a8.2 8.2 0 0 0-2.409 2.34 7.74 7.74 0 0 0-1.262 3.057l-.227 1.341q-.364 2.216.091 3.716.454 1.488 1.648 2.25t3.056.761q1.25 0 2.262-.386a5.9 5.9 0 0 0 1.761-1.034q.75-.66 1.205-1.443l1.806.625q-.579 1.102-1.636 2.034-1.045.932-2.489 1.5-1.43.557-3.193.557"/><circle cx="275.5" cy="87.5" r="24.5" fill="url(#k)"/><path stroke="url(#l)" stroke-width="3" d="M0-1.5h21.213" transform="rotate(135 104.011 108.105)scale(1 -1)"/><path stroke="url(#m)" stroke-width="3" d="M0-1.5h21.213" transform="rotate(135 102.996 100.655)scale(1 -1)"/><path stroke="url(#n)" stroke-width="3" d="M0-1.5h21.213" transform="rotate(135 108.354 114.59)scale(1 -1)"/><path fill="#fff" d="M274.227 97.364q-2.443 0-4.034-1.137-1.59-1.148-2.227-3.17-.636-2.034-.193-4.682.443-2.636 1.75-4.682 1.307-2.056 3.227-3.216a7.87 7.87 0 0 1 4.17-1.17q1.42 0 2.66.522a5.25 5.25 0 0 1 2.102 1.58q.874 1.058 1.216 2.67.34 1.603-.023 3.796l-.159 1H269.08l.284-1.784h11.579q.285-1.682-.159-3.023-.443-1.34-1.511-2.125-1.057-.795-2.625-.795-1.602 0-3.034.898a8.2 8.2 0 0 0-2.409 2.34 7.74 7.74 0 0 0-1.262 3.057l-.227 1.341q-.364 2.216.091 3.716.454 1.488 1.648 2.25t3.056.761q1.25 0 2.262-.386a5.9 5.9 0 0 0 1.761-1.034q.75-.66 1.205-1.443l1.806.625q-.579 1.103-1.636 2.034-1.045.931-2.489 1.5-1.43.557-3.193.557"/><circle cx="96" cy="27" r="16" fill="url(#o)"/><path stroke="url(#p)" stroke-width="3" d="m78.939 15.061-15-15"/><path stroke="url(#q)" stroke-width="3" d="m71.939 27.061-15-15"/><path stroke="url(#r)" stroke-width="3" d="m91.939 7.061-15-15"/><circle cx="42" cy="110" r="16" fill="url(#s)"/><path stroke="url(#t)" stroke-width="3" d="m24.939 98.061-15-15"/><path stroke="url(#u)" stroke-width="3" d="m17.939 110.061-15-15"/><path stroke="url(#v)" stroke-width="3" d="m37.939 90.061-15-15"/><circle cx="116" cy="114" r="16" fill="url(#w)"/><path stroke="url(#x)" stroke-width="3" d="m98.939 102.061-15-15"/><path stroke="url(#y)" stroke-width="3" d="m91.939 114.061-15-15"/><path stroke="url(#z)" stroke-width="3" d="m111.939 94.061-15-15"/><circle cx="146" cy="74" r="16" fill="url(#A)"/><path stroke="url(#B)" stroke-width="3" d="m128.939 62.061-15-15"/><path stroke="url(#C)" stroke-width="3" d="m121.939 74.061-15-15"/><path stroke="url(#D)" stroke-width="3" d="m141.939 54.061-15-15"/><circle cx="26" cy="40" r="16" fill="url(#E)"/><path stroke="url(#F)" stroke-width="3" d="m8.939 28.061-15-15"/><path stroke="url(#G)" stroke-width="3" d="m1.939 40.061-15-15"/><path stroke="url(#H)" stroke-width="3" d="m21.939 20.061-15-15"/></g><defs><linearGradient id="b" x1="0" x2="300" y1="166.5" y2="166.5" gradientUnits="userSpaceOnUse"><stop stop-color="#d9d9d9"/><stop offset="1" stop-color="#737373"/></linearGradient><linearGradient id="c" x1="85" x2="61.5" y1="80" y2="58.5" gradientUnits="userSpaceOnUse"><stop stop-color="#e93232"/><stop offset="1" stop-color="#831c1c"/></linearGradient><linearGradient id="d" x1="254" x2="222.5" y1="17" y2="53.5" gradientUnits="userSpaceOnUse"><stop stop-color="#49e0e5"/><stop offset="1" stop-color="#287c7f"/></linearGradient><linearGradient id="e" x1="43.354" x2="58.354" y1="40.646" y2="55.646" gradientUnits="userSpaceOnUse"><stop/><stop offset="1" stop-color="#be0000"/></linearGradient><linearGradient id="f" x1="36.354" x2="51.354" y1="52.646" y2="67.646" gradientUnits="userSpaceOnUse"><stop/><stop offset="1" stop-color="#be0000"/></linearGradient><linearGradient id="g" x1="56.354" x2="71.354" y1="32.646" y2="47.646" gradientUnits="userSpaceOnUse"><stop/><stop offset="1" stop-color="#be0000"/></linearGradient><linearGradient id="h" x1="21.213" x2="0" y1=".5" y2=".5" gradientUnits="userSpaceOnUse"><stop/><stop offset="1" stop-color="#00828c"/></linearGradient><linearGradient id="i" x1="21.213" x2="0" y1=".5" y2=".5" gradientUnits="userSpaceOnUse"><stop/><stop offset="1" stop-color="#00828c"/></linearGradient><linearGradient id="j" x1="21.213" x2="0" y1=".5" y2=".5" gradientUnits="userSpaceOnUse"><stop/><stop offset="1" stop-color="#00828c"/></linearGradient><linearGradient id="k" x1="291" x2="259.5" y1="70" y2="106.5" gradientUnits="userSpaceOnUse"><stop stop-color="#49e0e5"/><stop offset="1" stop-color="#287c7f"/></linearGradient><linearGradient id="l" x1="21.213" x2="0" y1=".5" y2=".5" gradientUnits="userSpaceOnUse"><stop/><stop offset="1" stop-color="#00828c"/></linearGradient><linearGradient id="m" x1="21.213" x2="0" y1=".5" y2=".5" gradientUnits="userSpaceOnUse"><stop/><stop offset="1" stop-color="#00828c"/></linearGradient><linearGradient id="n" x1="21.213" x2="0" y1=".5" y2=".5" gradientUnits="userSpaceOnUse"><stop/><stop offset="1" stop-color="#00828c"/></linearGradient><linearGradient id="o" x1="107" x2="83.5" y1="38" y2="16.5" gradientUnits="userSpaceOnUse"><stop stop-color="#e93232"/><stop offset="1" stop-color="#831c1c"/></linearGradient><linearGradient id="p" x1="65.354" x2="80.354" y1="-1.354" y2="13.646" gradientUnits="userSpaceOnUse"><stop/><stop offset="1" stop-color="#be0000"/></linearGradient><linearGradient id="q" x1="58.354" x2="73.354" y1="10.646" y2="25.646" gradientUnits="userSpaceOnUse"><stop/><stop offset="1" stop-color="#be0000"/></linearGradient><linearGradient id="r" x1="78.354" x2="93.354" y1="-9.354" y2="5.646" gradientUnits="userSpaceOnUse"><stop/><stop offset="1" stop-color="#be0000"/></linearGradient><linearGradient id="s" x1="53" x2="29.5" y1="121" y2="99.5" gradientUnits="userSpaceOnUse"><stop stop-color="#e93232"/><stop offset="1" stop-color="#831c1c"/></linearGradient><linearGradient id="t" x1="11.354" x2="26.354" y1="81.646" y2="96.646" gradientUnits="userSpaceOnUse"><stop/><stop offset="1" stop-color="#be0000"/></linearGradient><linearGradient id="u" x1="4.354" x2="19.354" y1="93.646" y2="108.646" gradientUnits="userSpaceOnUse"><stop/><stop offset="1" stop-color="#be0000"/></linearGradient><linearGradient id="v" x1="24.354" x2="39.354" y1="73.646" y2="88.646" gradientUnits="userSpaceOnUse"><stop/><stop offset="1" stop-color="#be0000"/></linearGradient><linearGradient id="w" x1="127" x2="103.5" y1="125" y2="103.5" gradientUnits="userSpaceOnUse"><stop stop-color="#e93232"/><stop offset="1" stop-color="#831c1c"/></linearGradient><linearGradient id="x" x1="85.354" x2="100.354" y1="85.646" y2="100.646" gradientUnits="userSpaceOnUse"><stop/><stop offset="1" stop-color="#be0000"/></linearGradient><linearGradient id="y" x1="78.354" x2="93.354" y1="97.646" y2="112.646" gradientUnits="userSpaceOnUse"><stop/><stop offset="1" stop-color="#be0000"/></linearGradient><linearGradient id="z" x1="98.354" x2="113.354" y1="77.646" y2="92.646" gradientUnits="userSpaceOnUse"><stop/><stop offset="1" stop-color="#be0000"/></linearGradient><linearGradient id="A" x1="157" x2="133.5" y1="85" y2="63.5" gradientUnits="userSpaceOnUse"><stop stop-color="#e93232"/><stop offset="1" stop-color="#831c1c"/></linearGradient><linearGradient id="B" x1="115.354" x2="130.354" y1="45.646" y2="60.646" gradientUnits="userSpaceOnUse"><stop/><stop offset="1" stop-color="#be0000"/></linearGradient><linearGradient id="C" x1="108.354" x2="123.354" y1="57.646" y2="72.646" gradientUnits="userSpaceOnUse"><stop/><stop offset="1" stop-color="#be0000"/></linearGradient><linearGradient id="D" x1="128.354" x2="143.354" y1="37.646" y2="52.646" gradientUnits="userSpaceOnUse"><stop/><stop offset="1" stop-color="#be0000"/></linearGradient><linearGradient id="E" x1="37" x2="13.5" y1="51" y2="29.5" gradientUnits="userSpaceOnUse"><stop stop-color="#e93232"/><stop offset="1" stop-color="#831c1c"/></linearGradient><linearGradient id="F" x1="-4.646" x2="10.354" y1="11.646" y2="26.646" gradientUnits="userSpaceOnUse"><stop/><stop offset="1" stop-color="#be0000"/></linearGradient><linearGradient id="G" x1="-11.646" x2="3.354" y1="23.646" y2="38.646" gradientUnits="userSpaceOnUse"><stop/><stop offset="1" stop-color="#be0000"/></linearGradient><linearGradient id="H" x1="8.354" x2="23.354" y1="3.646" y2="18.646" gradientUnits="userSpaceOnUse"><stop/><stop offset="1" stop-color="#be0000"/></linearGradient><clipPath id="a"><path fill="#fff" d="M0 0h300v200H0z"/></clipPath></defs></svg>