<svg xmlns="http://www.w3.org/2000/svg" width="300" height="200" fill="none" viewBox="0 0 300 200"><path fill="#000" d="M0 0h300v200H0z"/><path stroke="#e6ff2a" stroke-width="3" d="M180.898 18.08c2.888-1.095 5.491-1.274 7.969-.12 2.532 1.179 3.871 3.167 4.576 5.833.726 2.748.744 6.1.637 9.809-.105 3.626-.33 7.592.028 11.25.359 3.679 1.321 7.274 3.751 10.122 2.004 2.349 5.386 3.613 8.981 4.446 3.648.846 7.904 1.325 11.921 1.846 4.081.53 7.917 1.103 10.954 2.115 3.076 1.025 4.937 2.37 5.634 4.162.802 2.063.473 4.262-.726 6.764-1.212 2.529-3.213 5.16-5.456 7.973-2.202 2.76-4.634 5.692-6.493 8.668-1.859 2.977-3.271 6.186-3.271 9.552 0 3.367 1.412 6.576 3.271 9.553 1.859 2.976 4.291 5.908 6.493 8.668 2.243 2.813 4.244 5.443 5.456 7.972 1.199 2.502 1.528 4.7.726 6.763-.715 1.84-2.632 3.33-5.724 4.587-3.052 1.241-6.898 2.118-10.974 2.96-4.018.831-8.265 1.627-11.901 2.709-3.587 1.068-6.92 2.504-8.891 4.815-2.416 2.832-3.387 6.253-3.75 9.719-.359 3.434-.133 7.097-.028 10.407.107 3.396.086 6.417-.629 8.914-.689 2.4-2.007 4.274-4.585 5.474-2.488 1.159-5.101 1.003-7.988-.049-2.928-1.068-5.987-3.002-9.257-5.214-3.215-2.175-6.634-4.619-10.103-6.494-3.479-1.879-7.176-3.284-11.019-3.284s-7.54 1.405-11.019 3.284c-3.469 1.875-6.888 4.319-10.103 6.494-3.27 2.212-6.329 4.146-9.257 5.214-2.888 1.052-5.5 1.208-7.988.049-2.414-1.124-4.033-3.07-5.223-5.656-1.206-2.62-1.927-5.799-2.577-9.257-.639-3.394-1.215-7.087-2.147-10.457-.936-3.384-2.28-6.639-4.573-9.177-2.126-2.352-5.11-3.798-8.256-4.843-3.141-1.044-6.662-1.755-9.908-2.499-3.31-.76-6.353-1.558-8.809-2.774-2.427-1.201-4.141-2.741-4.99-4.922-.812-2.091-.526-4.308.576-6.805 1.115-2.527 2.983-5.156 5.087-7.967 2.064-2.758 4.356-5.691 6.107-8.665 1.755-2.979 3.08-6.175 3.08-9.519 0-3.343-1.325-6.54-3.08-9.52-1.751-2.973-4.043-5.906-6.107-8.664-2.104-2.811-3.972-5.44-5.087-7.966-1.102-2.498-1.388-4.716-.575-6.807.832-2.14 2.5-3.516 4.888-4.485 2.433-.988 5.457-1.488 8.775-1.936 3.245-.437 6.779-.826 9.94-1.633 3.17-.81 6.2-2.094 8.359-4.483 2.309-2.555 3.649-5.987 4.58-9.593.93-3.602 1.503-7.602 2.143-11.313.652-3.774 1.376-7.273 2.591-10.135 1.206-2.838 2.832-4.9 5.206-6.006 2.478-1.153 5.081-.974 7.969.121 2.929 1.112 5.988 3.106 9.26 5.381 3.215 2.237 6.635 4.745 10.105 6.668 3.479 1.928 7.182 3.371 11.033 3.371 3.852 0 7.554-1.443 11.033-3.37 3.47-1.924 6.89-4.432 10.105-6.669 3.272-2.275 6.331-4.27 9.26-5.38Z"/><path stroke="#fff" stroke-dasharray="5 5" d="M196.018 38.322a82 82 0 0 1 3.829 2.948l-.316.387a80 80 0 0 1 3.623 3.154l.339-.368a80 80 0 0 1 3.449 3.385l-.359.347a80 80 0 0 1 3.219 3.563l.38-.323a80 80 0 0 1 3.017 3.775l-.398.3a79 79 0 0 1 2.766 3.926l.415-.275a80 80 0 0 1 2.539 4.112l-.431.25a78 78 0 0 1 2.268 4.233l.446-.222a79 79 0 0 1 2.017 4.391l-.459.195a78 78 0 0 1 1.732 4.478l.469-.166a78 78 0 0 1 1.462 4.607l-.479.135a78 78 0 0 1 1.166 4.66l.487-.107q.514 2.352.883 4.754l-.493.076q.363 2.36.583 4.764l.497-.045q.22 2.391.293 4.822l-.498.015a80 80 0 0 1 0 4.814l.498.014a79 79 0 0 1-.293 4.822l-.497-.044a79 79 0 0 1-.583 4.764l.493.075a78 78 0 0 1-.883 4.754l-.487-.105a78 78 0 0 1-1.166 4.659l.479.134a78 78 0 0 1-1.462 4.607l-.469-.165a78 78 0 0 1-1.732 4.478l.459.194a79 79 0 0 1-2.017 4.391l-.446-.221a78 78 0 0 1-2.268 4.233l.431.249a79 79 0 0 1-2.539 4.112l-.415-.274a79 79 0 0 1-2.766 3.926l.398.299a80 80 0 0 1-3.017 3.775l-.38-.322a80 80 0 0 1-3.219 3.563l.359.346a80 80 0 0 1-3.449 3.385l-.339-.367a79 79 0 0 1-3.623 3.154l.316.386a82 82 0 0 1-3.829 2.948l-.292-.404a81 81 0 0 1-3.974 2.697l.268.421a81 81 0 0 1-4.155 2.469l-.242-.435a80 80 0 0 1-4.269 2.203l.215.45a81 81 0 0 1-4.419 1.954l-.187-.461a80 80 0 0 1-4.5 1.676l.159.472a81 81 0 0 1-4.622 1.412l-.131-.481a79 79 0 0 1-4.671 1.126l.103.488q-2.356.494-4.759.851l-.072-.493a82 82 0 0 1-4.769.563l.043.497q-2.393.21-4.823.281l-.014-.498a84 84 0 0 1-4.815 0l-.014.498a83 83 0 0 1-4.823-.281l.044-.497a82 82 0 0 1-4.769-.563l-.073.493a81 81 0 0 1-4.759-.851l.104-.488a79 79 0 0 1-4.671-1.126l-.132.481a81 81 0 0 1-4.622-1.412l.16-.472a80 80 0 0 1-4.5-1.676l-.188.461a81 81 0 0 1-4.419-1.954l.216-.45a80 80 0 0 1-4.269-2.203l-.243.435a81 81 0 0 1-4.155-2.469l.269-.421a81 81 0 0 1-3.974-2.697l-.293.404a82 82 0 0 1-3.829-2.948l.317-.386a79 79 0 0 1-3.623-3.154l-.34.367a81 81 0 0 1-3.45-3.385l.361-.346a80 80 0 0 1-3.219-3.563l-.38.322a80 80 0 0 1-3.018-3.775l.4-.299a80 80 0 0 1-2.767-3.926l-.416.274a79 79 0 0 1-2.538-4.112l.431-.249a78 78 0 0 1-2.268-4.233l-.447.221a79 79 0 0 1-2.017-4.391l.46-.194a78 78 0 0 1-1.732-4.478l-.47.165a78 78 0 0 1-1.462-4.607l.48-.134a78 78 0 0 1-1.166-4.659l-.488.105a78 78 0 0 1-.883-4.754l.494-.075a78 78 0 0 1-.583-4.764l-.498.044a79 79 0 0 1-.293-4.822l.5-.014a80 80 0 0 1 0-4.814l-.5-.015q.075-2.43.293-4.822l.498.045q.22-2.403.583-4.764l-.494-.076q.37-2.401.883-4.754l.488.107q.513-2.357 1.166-4.66l-.48-.135a78 78 0 0 1 1.462-4.607l.47.166a78 78 0 0 1 1.732-4.478l-.46-.195a79 79 0 0 1 2.017-4.391l.447.222a79 79 0 0 1 2.268-4.233l-.431-.25a79 79 0 0 1 2.538-4.112l.416.275a79 79 0 0 1 2.766-3.926l-.4-.3a80 80 0 0 1 3.018-3.775l.381.323a80 80 0 0 1 3.219-3.563l-.36-.347a81 81 0 0 1 3.449-3.385l.34.367a80 80 0 0 1 3.623-3.153l-.317-.386a81 81 0 0 1 3.184-2.477l.645-.472.293.405a81 81 0 0 1 3.974-2.697l-.269-.422a81 81 0 0 1 4.155-2.47l.243.437a80 80 0 0 1 4.269-2.203l-.216-.451a81 81 0 0 1 4.419-1.954l.188.462a80 80 0 0 1 4.5-1.676l-.16-.473a81 81 0 0 1 4.622-1.412l.132.482a80 80 0 0 1 4.671-1.126l-.104-.489q2.356-.494 4.759-.851l.073.494a81 81 0 0 1 4.769-.563l-.044-.498a82 82 0 0 1 4.823-.28l.015.498a82 82 0 0 1 4.815 0l.013-.499q2.43.07 4.823.281h.001l-.044.498q2.406.213 4.769.563l.072-.494a81 81 0 0 1 4.759.851l-.103.489q2.362.495 4.671 1.126l.131-.482q2.34.64 4.622 1.412l-.159.473a80 80 0 0 1 4.5 1.676l.187-.462q2.245.913 4.419 1.954l-.215.451a80 80 0 0 1 4.269 2.203l.242-.436a81 81 0 0 1 4.155 2.47l-.268.421a81 81 0 0 1 3.974 2.697z"/><circle cx="151" cy="100" r="49.5" stroke="#fff"/><circle cx="64" cy="136" r="18" fill="url(#a)"/><path fill="#fff" d="M67.92 141.864q-1.12 1.952-2.816 2.72-1.695.736-3.36.736-2.208 0-3.68-1.056-1.44-1.056-2.016-2.944-.544-1.92-.096-4.448l.128-.704q.384-2.176 1.472-3.808 1.12-1.663 2.784-2.592 1.695-.928 3.808-.928 1.632 0 2.752.544t1.696 1.44q.576.864.576 1.856 0 1.6-1.152 2.752-1.12 1.152-3.136 1.824-1.984.64-4.608.832l-1.664.128q-.416 3.04.416 4.576.864 1.504 2.816 1.504.768 0 1.664-.288t1.696-.992 1.216-1.952zm-8.928-6.112-.224 1.44 1.472-.096q2.624-.16 4.032-.864 1.409-.704 1.952-1.696.544-.992.544-1.984 0-1.248-.736-1.952-.704-.736-1.984-.736-1.695 0-3.104 1.408-1.409 1.376-1.952 4.48M196 120l-6.793-9.337-4.69 10.552zm-45-20-.406.914 36.776 16.345.406-.914.406-.914-36.776-16.345zM56.008 83.344q-.705 1.472-1.664 2.144a3.4 3.4 0 0 1-2.048.672q-1.472 0-2.176-1.024t-.288-3.2l1.28-6.272q.48-2.432-.064-3.52t-1.792-1.088q-.768 0-1.728.416-.928.416-1.984 1.472-1.024 1.024-2.144 2.944L41.64 86h-2.624l2.304-13.248q.191-1.088.128-1.28-.064-.224-.544-.288l-1.728-.16.16-.864h4.992l-.576 3.392q1.408-1.984 2.944-2.848 1.567-.864 3.136-.864 2.369 0 3.392 1.568 1.056 1.568.512 4.224l-1.312 6.4q-.32 1.632-.288 2.368.032.704.64.704.544 0 1.088-.544.576-.576.992-1.92zM159.208 131.16q-1.184 0-1.888-.704-.672-.737-.736-2.208-1.088 1.697-2.336 2.4-1.248.672-2.56.672-1.888 0-3.072-1.152-1.184-1.184-1.6-3.136t.032-4.352l.128-.704q.416-2.24 1.472-3.84 1.088-1.6 2.624-2.432a6.56 6.56 0 0 1 3.264-.864q1.344 0 2.336.544a4.25 4.25 0 0 1 1.664 1.472q.448-.352.864-.8l.832-.896h1.12L159.4 126.2q-.416 2.368-.32 3.136t.608.768q.48 0 1.024-.544.576-.576 1.024-1.92l1.12.704q-.703 1.472-1.632 2.144t-2.016.672m-9.44-7.648q-.544 3.2.128 4.96.703 1.76 2.208 1.76.608 0 1.376-.32.768-.352 1.6-1.28.864-.96 1.76-2.752l1.312-7.552q-.576-1.248-1.44-1.824-.832-.576-1.984-.576-1.952 0-3.104 1.536-1.12 1.536-1.568 4.224zm23.272 8.842-.077.422q-.364 2.093-1.593 3.264-1.229 1.152-3.149 1.152-1.344 0-2.208-.672-.845-.691-1.171-1.824-.326-1.152-.077-2.534l.077-.442q.384-2.093 1.593-3.245 1.21-1.171 3.111-1.171 1.363 0 2.227.691.864.672 1.19 1.824.327 1.152.077 2.535m-1.651-.5q.345-1.958-.173-2.956-.518-.999-1.709-.999-1.056 0-1.824.845-.748.825-1.075 2.726l-.192 1.172q-.346 1.958.173 2.976.519.998 1.69.998 1.074 0 1.824-.845.768-.844 1.075-2.745z"/><defs><linearGradient id="a" x1="64" x2="64" y1="118" y2="154" gradientUnits="userSpaceOnUse"><stop stop-color="#49e0e5"/><stop offset="1" stop-color="#287c7f"/></linearGradient></defs></svg>