<svg xmlns="http://www.w3.org/2000/svg" width="300" height="200" fill="none" viewBox="0 0 300 200"><g clip-path="url(#a)"><path fill="#000" d="M0 0h300v200H0z"/><path fill="#fff" d="m79 13-5.773 10h11.546zm0 155h1V22h-2v146z"/><path fill="#fff" d="m258 167-10-5.774v11.548zm-180 0v1h171v-2H78z"/><path stroke="#e6ff2a" stroke-width="3" d="m101.01 167.038 139-122.165"/><path stroke="#fff" stroke-width="2" d="M122.5 148.5s6-2 11 5.5 0 12.5 0 12.5"/><path fill="#49e0e5" d="m15.568 98.4-.096.6h-5.256l.096-.6 1.344-.12q.408-.048.504-.192.096-.168.24-.984l2.208-12.552q.144-.84.096-.984-.048-.168-.408-.192L13 83.256l.096-.576h5.256l-.096.576-1.344.12q-.384.024-.504.192-.096.144-.24.984l-1.272 7.2 7.368-7.44q.624-.624.624-.768.024-.144-.336-.168l-1.152-.12.096-.576h4.512l-.096.576-1.2.12q-.24.024-.384.096-.144.048-.336.24-.192.168-.624.6l-4.992 5.04 3.456 7.752q.264.552.384.792t.24.312q.144.048.384.072l1.176.12-.096.6h-3.072L17.2 90.552l-2.544 2.544-.696 4.008q-.144.816-.096.984.048.144.408.192zm21.81-3.168L36.706 99H25.474l.096-.6 1.344-.12q.264-.024.384-.072.12-.072.192-.312t.168-.792l2.208-12.528q.144-.84.096-.984-.048-.168-.408-.192l-1.32-.12.12-.6H39.25l-.672 3.768h-.576l-.216-2.424q-.024-.408-.192-.504-.144-.12-.984-.12h-4.992l-1.224 6.984h3.552q.576 0 .816-.024.264-.048.36-.168.12-.144.24-.432l.696-1.704h.576l-.936 5.376h-.576l-.12-1.704q-.024-.432-.192-.528-.144-.096-.984-.096h-3.552l-1.248 7.176h5.28q.576 0 .816-.024.264-.048.36-.192.12-.144.24-.408l1.08-2.424zm14.252 6.573q-.317.648-.735.965a1.4 1.4 0 0 1-.864.302q-.56 0-.835-.389-.273-.403-.086-1.368l.576-2.851q.244-1.152-.03-1.67-.273-.519-.863-.519-.576 0-1.267.461-.692.46-1.484 1.742L45.237 103h-.864l.792-4.536q.201-1.152-.058-1.67-.244-.519-.835-.519-.59 0-1.296.475t-1.497 1.786L40.686 103h-.864l1.036-5.875q.087-.504.058-.59-.029-.102-.245-.116l-.792-.072.072-.36h1.973l-.273 1.584q.676-.935 1.367-1.325.692-.402 1.368-.403.85 0 1.282.49t.447 1.325q.675-.994 1.382-1.397.72-.418 1.411-.418 1.023 0 1.454.72.447.72.202 1.887l-.633 3.009q-.115.547-.101.879.015.316.33.316.246 0 .52-.273.273-.274.474-.893zm7.2 1.267q-.489 0-.763-.331-.275-.332-.26-1.037-.518.777-1.094 1.109a2.34 2.34 0 0 1-1.18.331q-.822 0-1.354-.518-.533-.519-.72-1.383-.187-.878 0-1.93l.057-.316q.173-.965.648-1.67.49-.707 1.167-1.095.676-.39 1.454-.389.634 0 1.095.26.46.245.763.69l.201-.403q.101-.216.202-.403h.576l-.864 4.853q-.13.735-.144 1.123 0 .389.086.547.087.144.245.144.216 0 .475-.273.274-.274.475-.893l.476.317q-.318.648-.72.965-.404.302-.821.302m-4.478-3.326q-.23 1.353.13 2.16.374.806 1.122.806.331 0 .706-.158.375-.159.777-.576.404-.432.821-1.224l.59-3.298q-.273-.604-.676-.893-.404-.288-1.023-.288-.935 0-1.526.691-.576.692-.778 1.916zm9.693.82q-.547.691-.922 1.138-.374.447-.677.778a21 21 0 0 1-.662.662l-.72-.533q.763-.518 1.454-1.109.692-.59 1.31-1.281l.634-.706-1.051-2.534q-.158-.39-.245-.461-.086-.087-.302-.1l-.706-.073.072-.36h1.642l1.166 2.794.288-.36q.562-.691.922-1.123.374-.447.677-.778.316-.33.662-.677l.72.533q-.764.519-1.454 1.109-.678.59-1.31 1.281l-.346.39 1.18 2.85q.16.39.245.461.087.072.303.101l.69.072-.057.36h-1.641l-1.31-3.14zM159.376 191l-1.224-12.864h2.088l.48 6.936q.048.576.096 1.368l.096 1.584q.072.792.072 1.344h.096q1.68-1.584 2.736-3.288a15 15 0 0 0 1.632-3.648q.6-1.968.84-4.296h2.16a20.2 20.2 0 0 1-1.032 4.632q-.744 2.16-2.16 4.176T161.512 191z"/><path fill="#fff" d="M156.552 151.496h-1.376l.16-.832q.288-1.471.864-2.4a7.2 7.2 0 0 1 1.312-1.632q.736-.704 1.472-1.28.768-.576 1.408-1.28a5.4 5.4 0 0 0 1.024-1.696q.416-.992.416-2.496 0-2.176-.992-3.072-.96-.928-2.368-.928-4.384 0-4.832 6.176l-1.824-.512q0-1.728.672-3.232.704-1.504 2.176-2.432 1.471-.96 3.84-.96 2.848 0 4.192 1.376 1.376 1.375 1.376 3.552 0 1.44-.512 2.464a6.2 6.2 0 0 1-1.344 1.792q-.8.736-1.728 1.376t-1.792 1.344a7.2 7.2 0 0 0-1.408 1.6q-.576.895-.672 2.208zm-1.472 5.824q-.64 0-1.056-.352-.384-.352-.384-.992 0-.704.448-1.184.48-.48 1.216-.48.64 0 1.024.352.416.352.416.992 0 .704-.48 1.184-.448.48-1.184.48"/></g><defs><clipPath id="a"><path fill="#fff" d="M0 0h300v200H0z"/></clipPath></defs></svg>