<svg xmlns="http://www.w3.org/2000/svg" width="300" height="200" fill="none" viewBox="0 0 300 200"><g clip-path="url(#a)"><path fill="#000" d="M0 0h300v200H0z"/><path fill="#fff" d="m150 13-5.774 10h11.547zm0 155h1V22h-2v146z"/><path fill="#ff2600" d="m210.673 58-1.377-14.472h2.349l.54 7.803q.054.648.108 1.539l.108 1.782q.081.891.081 1.512h.108q1.89-1.782 3.078-3.699a16.8 16.8 0 0 0 1.836-4.104q.675-2.214.945-4.833h2.43q-.297 2.781-1.161 5.211-.837 2.43-2.43 4.698T213.076 58zm10.627-5.292 1.917-1.053h1.134l-1.404 7.965q-.081.486-.054.567t.216.108l.756.054-.081.486h-3.645l.081-.486 1.026-.054q.216-.027.27-.108.081-.081.162-.567l1.242-7.128-1.35.756z"/><path fill="#e6ff2a" d="m208.673 105-1.377-14.472h2.349l.54 7.803q.054.648.108 1.539l.108 1.782q.081.891.081 1.512h.108q1.89-1.782 3.078-3.699a16.8 16.8 0 0 0 1.836-4.104q.675-2.214.945-4.833h2.43q-.297 2.781-1.161 5.211-.837 2.43-2.43 4.698T211.076 105zm15.487.54-.405 2.295h-5.697l.108-.621q.189-1.08.567-1.701a3.1 3.1 0 0 1 .999-1.053q.648-.459 1.647-.945 1.134-.567 1.674-1.242.54-.702.54-1.728 0-.783-.324-1.134-.297-.351-.891-.351-.918 0-1.377.648-.459.621-.567 1.809l-1.242-.216q0-1.08.756-1.917.756-.864 2.403-.864 1.431 0 2.025.648.621.648.621 1.512 0 1.08-.81 1.89-.81.783-2.808 1.755-1.107.513-1.674 1.107-.54.594-.729 1.539h3.51q.459 0 .567-.054.135-.054.216-.297l.405-1.08z"/><path fill="#8efbff" d="M131.724 17.584q-1.323 0-1.323-1.296 0-.675.432-1.134.459-.486 1.188-.486.621 0 .972.351.378.324.378.918 0 .675-.459 1.161-.432.486-1.188.486m-3.942 3.78.135-.729h4.293l-1.62 9.315q-.351 1.998-.27 2.646t.513.648q.405 0 .864-.459.486-.486.837-1.62l.972.594q-.594 1.242-1.404 1.809-.783.567-1.674.567-1.242 0-1.863-.972-.594-.972-.243-2.997l1.269-7.344q.162-.918.108-1.08-.054-.189-.459-.243zM245.2 176.665 237.1 193h-1.836l-2.349-16.335q-.108-.81-.216-.945-.081-.162-.486-.216l-1.377-.135.135-.729h6.291l-.135.729-1.404.135q-.432.054-.513.216-.054.162.054.945l1.998 13.932 6.885-13.932q.405-.783.378-.945 0-.162-.432-.216l-1.377-.135.135-.729h4.995l-.135.729-1.404.135q-.27.027-.432.108-.135.054-.27.297-.135.216-.405.756"/><path stroke="#e6ff2a" stroke-width="3" d="M93 168s24-6.5 38.5-21.5 22-37.5 37-50 35-22 51.25-22H277"/><path stroke="#ff2600" stroke-width="3" d="M93 168s24.936-29.62 44.583-59 17.758-43.234 28.337-58.5S221.46 34 233.739 34H277" opacity=".7"/><path fill="#fff" d="m279 168-10-5.774v11.548zm-257 0v1h248v-2H22z"/><path fill="#e6ff2a" d="m78.43 185.414.162-.918h7.128l-.162.918zm22.1-7.911L92.294 194H90.81l-2.404-16.497q-.108-.756-.216-.891-.08-.135-.486-.162l-1.322-.135.134-.675h5.563l-.135.675-1.323.135q-.433.027-.513.189-.082.135.026.864l2.08 14.715 7.317-14.715q.377-.729.35-.864-.026-.162-.459-.189l-1.322-.135.135-.675h4.806l-.135.675-1.323.135q-.405.027-.54.162t-.513.891m7.46 14.256-.162 1.026q-.324 2.106-1.296 3.132-.972 1.053-2.457 1.053-1.674 0-2.43-1.188t-.405-3.078l.189-1.026q.756-4.158 3.726-4.158 1.674 0 2.403 1.161t.432 3.078m-1.269-.621q.27-1.539-.135-2.295-.405-.783-1.35-.783a1.79 1.79 0 0 0-1.458.702q-.54.702-.837 2.241l-.432 2.322q-.27 1.539.135 2.322.432.783 1.35.783t1.485-.702.837-2.268z"/></g><defs><clipPath id="a"><path fill="#fff" d="M0 0h300v200H0z"/></clipPath></defs></svg>