<svg xmlns="http://www.w3.org/2000/svg" width="300" height="200" fill="none" viewBox="0 0 300 200"><path fill="#000" d="M0 0h300v200H0z"/><path fill="url(#a)" d="M0 133h300v67H0z"/><circle cx="74" cy="69" r="16" fill="url(#b)"/><circle cx="252.5" cy="44.5" r="24.5" fill="url(#c)"/><path fill="#fff" d="m119 114-2.989-11.154-8.165 8.165zM90 85l-.707.707 22.636 22.636.707-.707.707-.707-22.636-22.636zM207 85l-11.154 2.989 8.165 8.164zm-29 29 .707.707 22.636-22.636-.707-.707-.707-.707-22.636 22.636z"/><path stroke="url(#d)" stroke-width="3" d="m56.939 57.061-15-15"/><path stroke="url(#e)" stroke-width="3" d="m49.939 69.061-15-15"/><path stroke="url(#f)" stroke-width="3" d="m69.939 49.061-15-15"/><path stroke="url(#g)" stroke-width="3" d="M0-1.5h21.213" transform="rotate(135 101.417 81.842)scale(1 -1)"/><path stroke="url(#h)" stroke-width="3" d="M0-1.5h21.213" transform="rotate(135 100.402 74.392)scale(1 -1)"/><path stroke="url(#i)" stroke-width="3" d="M0-1.5h21.213" transform="rotate(135 105.967 87.827)scale(1 -1)"/><path fill="#fff" d="M251.227 54.364q-2.443 0-4.034-1.137-1.59-1.148-2.227-3.17-.637-2.034-.193-4.682.443-2.636 1.75-4.682 1.307-2.057 3.227-3.216a7.87 7.87 0 0 1 4.17-1.17q1.42 0 2.66.523a5.25 5.25 0 0 1 2.102 1.58q.874 1.056 1.216 2.67.34 1.602-.023 3.795l-.159 1H246.08l.284-1.784h11.579q.285-1.682-.159-3.023-.443-1.34-1.511-2.125-1.058-.795-2.625-.795-1.603 0-3.034.897a8.2 8.2 0 0 0-2.409 2.341 7.74 7.74 0 0 0-1.262 3.057l-.227 1.341q-.364 2.216.091 3.716.454 1.488 1.648 2.25t3.056.761q1.25 0 2.262-.386a5.9 5.9 0 0 0 1.761-1.034q.75-.66 1.205-1.443l1.806.625q-.579 1.102-1.636 2.034-1.045.932-2.489 1.5-1.43.557-3.193.557"/><path fill="#000" d="M147.375 178.273q-2.478-.216-4.125-1.398-1.636-1.182-2.33-3.125-.681-1.954-.272-4.477.409-2.5 1.738-4.432a10.3 10.3 0 0 1 3.387-3.102q2.044-1.183 4.602-1.375h1.568q2.511.192 4.171 1.375a6.25 6.25 0 0 1 2.341 3.102q.692 1.932.284 4.432-.421 2.534-1.75 4.488a10.2 10.2 0 0 1-3.375 3.137q-2.035 1.17-4.603 1.375zm-1.205 6.272 5-30.181h2l-5 30.181zm3.069-8.056q2.068-.206 3.636-1.239a8.4 8.4 0 0 0 2.557-2.602 9 9 0 0 0 1.284-3.375q.284-1.796-.182-3.341a5.15 5.15 0 0 0-1.704-2.568q-1.228-1.012-3.228-1.216h-1.454q-2.046.204-3.625 1.216a8.3 8.3 0 0 0-2.568 2.568 8.9 8.9 0 0 0-1.273 3.341q-.285 1.795.182 3.375a5.3 5.3 0 0 0 1.693 2.602q1.227 1.034 3.227 1.239z"/><path fill="#fff" d="m71.226 78-2.992-14.727h1.84L72.51 76.13h.125a40 40 0 0 0 2.56-3.451 28 28 0 0 0 1.831-3.193q.757-1.554 1.247-3.078a27 27 0 0 0 .815-3.135h1.716q-.681 3.787-2.646 7.498Q76.202 74.48 72.97 78z"/><defs><linearGradient id="a" x1="0" x2="300" y1="166.5" y2="166.5" gradientUnits="userSpaceOnUse"><stop stop-color="#d9d9d9"/><stop offset="1" stop-color="#737373"/></linearGradient><linearGradient id="b" x1="85" x2="61.5" y1="80" y2="58.5" gradientUnits="userSpaceOnUse"><stop stop-color="#e93232"/><stop offset="1" stop-color="#831c1c"/></linearGradient><linearGradient id="c" x1="268" x2="236.5" y1="27" y2="63.5" gradientUnits="userSpaceOnUse"><stop stop-color="#49e0e5"/><stop offset="1" stop-color="#287c7f"/></linearGradient><linearGradient id="d" x1="43.354" x2="58.354" y1="40.646" y2="55.646" gradientUnits="userSpaceOnUse"><stop/><stop offset="1" stop-color="#be0000"/></linearGradient><linearGradient id="e" x1="36.354" x2="51.354" y1="52.646" y2="67.646" gradientUnits="userSpaceOnUse"><stop/><stop offset="1" stop-color="#be0000"/></linearGradient><linearGradient id="f" x1="56.354" x2="71.354" y1="32.646" y2="47.646" gradientUnits="userSpaceOnUse"><stop/><stop offset="1" stop-color="#be0000"/></linearGradient><linearGradient id="g" x1="21.213" x2="0" y1=".5" y2=".5" gradientUnits="userSpaceOnUse"><stop/><stop offset="1" stop-color="#00828c"/></linearGradient><linearGradient id="h" x1="21.213" x2="0" y1=".5" y2=".5" gradientUnits="userSpaceOnUse"><stop/><stop offset="1" stop-color="#00828c"/></linearGradient><linearGradient id="i" x1="21.213" x2="0" y1=".5" y2=".5" gradientUnits="userSpaceOnUse"><stop/><stop offset="1" stop-color="#00828c"/></linearGradient></defs></svg>