<svg xmlns="http://www.w3.org/2000/svg" width="300" height="200" fill="none" viewBox="0 0 300 200"><path fill="#000" d="M0 0h300v200H0z"/><path fill="url(#a)" d="M199.767 36.342c3.361-1.185 6.847 1.426 6.656 4.984l-1.59 29.555c-.215 3.99-4.791 6.129-7.99 3.734l-26.322-19.71c-3.198-2.395-2.434-7.388 1.334-8.718z"/><rect width="45.598" height="68.397" x="165.206" y="50.362" fill="url(#b)" rx="6" transform="rotate(36.829 165.206 50.362)"/><rect width="12.104" height="68.397" x="148.405" y="122.55" fill="url(#c)" rx="6" transform="rotate(36.829 148.405 122.55)"/><rect width="12.104" height="68.397" x="137.143" y="114.148" fill="url(#d)" rx="6" transform="rotate(36.829 137.143 114.148)"/><rect width="12.104" height="68.397" x="125.881" y="105.746" fill="url(#e)" rx="6" transform="rotate(36.829 125.881 105.746)"/><path fill="#fff" d="m67.498 154.461 10.628-4.514L68.902 143zm42.864-56.912-.799-.601-37.45 49.722.8.602.798.602 37.45-49.723zM72.752 97.963l-9.284 17.454h-2.16l-3.465-17.454h2.102l2.727 14.784h.148l7.648-14.784zm-.61 21.454 1.954-11.636h1.773l-.319 1.92h.091a3.64 3.64 0 0 1 1.489-1.534q.954-.522 1.955-.522.454 0 .818.091.363.079.625.227l-.841 1.545a2 2 0 0 0-.466-.147 2.6 2.6 0 0 0-.625-.069q-1.238 0-2.205.819-.966.806-1.181 2.09l-1.228 7.216z"/><defs><linearGradient id="a" x1="206.825" x2="175.968" y1="33.853" y2="75.062" gradientUnits="userSpaceOnUse"><stop stop-color="#d9d9d9"/><stop offset="1" stop-color="#737373"/></linearGradient><linearGradient id="b" x1="188.005" x2="188.005" y1="50.362" y2="118.759" gradientUnits="userSpaceOnUse"><stop stop-color="#d9d9d9"/><stop offset="1" stop-color="#737373"/></linearGradient><linearGradient id="c" x1="154.457" x2="154.457" y1="122.55" y2="190.947" gradientUnits="userSpaceOnUse"><stop stop-color="#990003"/><stop offset=".365" stop-color="#c79200"/><stop offset=".663" stop-color="#6c6c6c"/><stop offset="1"/></linearGradient><linearGradient id="d" x1="143.195" x2="143.195" y1="114.148" y2="182.545" gradientUnits="userSpaceOnUse"><stop stop-color="#990003"/><stop offset=".365" stop-color="#c79200"/><stop offset=".663" stop-color="#6c6c6c"/><stop offset="1"/></linearGradient><linearGradient id="e" x1="131.933" x2="131.933" y1="105.746" y2="174.143" gradientUnits="userSpaceOnUse"><stop stop-color="#990003"/><stop offset=".365" stop-color="#c79200"/><stop offset=".663" stop-color="#6c6c6c"/><stop offset="1"/></linearGradient></defs></svg>