<svg xmlns="http://www.w3.org/2000/svg" width="300" height="200" fill="none" viewBox="0 0 300 200"><path fill="#000" d="M0 0h300v200H0z"/><path fill="url(#a)" d="M0 176h300v24H0z"/><rect width="138" height="138" x="12" y="38" fill="url(#b)" rx="8"/><path fill="#000" d="M79.136 97.546 76.24 115h-1.594l2.616-15.784h-.102l-4.543 2.719.282-1.654 4.576-2.736z"/><rect width="45" height="45" x="206" y="131" fill="url(#c)" rx="8"/><path fill="#fff" d="m53.912 26 2.182-13.09h1.474l-.34 2.01h.11q.545-.988 1.628-1.593a4.7 4.7 0 0 1 2.327-.614q.188 0 .417.009.231 0 .384.017l-.264 1.542a13 13 0 0 0-.358-.05 4 4 0 0 0-.554-.035 4.2 4.2 0 0 0-1.892.435 4.1 4.1 0 0 0-1.45 1.184 3.9 3.9 0 0 0-.75 1.73L55.43 26zm13.438.273q-1.832 0-3.025-.852-1.194-.861-1.67-2.378-.479-1.526-.146-3.512.333-1.977 1.313-3.511.98-1.542 2.42-2.412a5.9 5.9 0 0 1 3.128-.878q1.065 0 1.994.392a3.9 3.9 0 0 1 1.577 1.185q.657.792.912 2.003.256 1.201-.017 2.846l-.12.75H63.49l.213-1.338h8.685q.213-1.26-.12-2.267-.331-1.006-1.133-1.594-.792-.596-1.969-.596-1.201 0-2.275.673a6.2 6.2 0 0 0-1.807 1.756 5.8 5.8 0 0 0-.946 2.292l-.17 1.006q-.273 1.662.068 2.787.34 1.116 1.236 1.688.894.57 2.292.57.937 0 1.696-.29a4.4 4.4 0 0 0 1.321-.775q.562-.494.904-1.082l1.355.468a5.4 5.4 0 0 1-1.227 1.526 6.2 6.2 0 0 1-1.867 1.125q-1.074.418-2.395.418M86.537 15.78l-1.458.375a3 3 0 0 0-.408-1.057 2 2 0 0 0-.844-.75q-.546-.28-1.432-.28-1.329 0-2.293.647-.963.64-1.125 1.636-.136.836.35 1.355.494.52 1.653.819l1.91.485q1.584.41 2.258 1.279.68.87.469 2.199a3.87 3.87 0 0 1-.947 1.96q-.75.852-1.926 1.338-1.167.486-2.608.486-1.935 0-3.042-.87-1.1-.87-1.176-2.505l1.525-.341q.069 1.16.793 1.756.733.596 2.062.596 1.518 0 2.549-.69t1.184-1.705q.145-.8-.298-1.33-.435-.528-1.483-.783l-2.037-.512q-1.644-.417-2.327-1.304-.673-.894-.451-2.207.178-1.083.903-1.9.725-.818 1.833-1.28a6.15 6.15 0 0 1 2.42-.468q1.807 0 2.753.818.945.81 1.193 2.233m9.143-2.872-.213 1.321H89.21l.222-1.32zm-3.784-3.136h1.525l-2.13 12.81q-.137.818.068 1.286.204.46.63.657.426.187.938.187.299 0 .511-.034.222-.042.392-.085l.111 1.372q-.247.085-.588.153-.34.077-.818.077a3.3 3.3 0 0 1-1.543-.367 2.43 2.43 0 0 1-1.074-1.09q-.367-.725-.196-1.799z"/><path fill="#000" d="m222.852 162 .205-1.168 6.75-6.409a54 54 0 0 0 2.156-2.156q.835-.903 1.278-1.653a4.6 4.6 0 0 0 .58-1.577q.162-.997-.17-1.739a2.43 2.43 0 0 0-1.049-1.167q-.716-.418-1.738-.418-1.075 0-1.969.46a4.23 4.23 0 0 0-2.259 3.103h-1.525a5.63 5.63 0 0 1 1.099-2.566 6.2 6.2 0 0 1 2.148-1.764 6.1 6.1 0 0 1 2.753-.639q1.466 0 2.488.631 1.024.621 1.483 1.696.46 1.073.239 2.403a6.2 6.2 0 0 1-.656 1.875q-.486.895-1.492 2.003-1.005 1.107-2.718 2.71l-5.123 4.832-.025.111h8.633l-.238 1.432z"/><path fill="#fff" d="m183 115 10 5.774v-11.548zm9 0v1h83v-2h-83zM198.852 100l.205-1.168 6.75-6.409q1.321-1.261 2.156-2.156.835-.903 1.278-1.653a4.6 4.6 0 0 0 .58-1.577q.162-.997-.17-1.739-.324-.75-1.049-1.167-.716-.418-1.738-.418a4.24 4.24 0 0 0-1.969.46 4.23 4.23 0 0 0-2.259 3.103h-1.525a5.6 5.6 0 0 1 1.099-2.566 6.2 6.2 0 0 1 2.148-1.764 6.1 6.1 0 0 1 2.753-.64q1.466 0 2.488.632 1.024.622 1.483 1.695.46 1.075.239 2.404a6.2 6.2 0 0 1-.656 1.875q-.486.894-1.492 2.003-1.005 1.107-2.718 2.71l-5.123 4.832-.025.111h8.633l-.238 1.432zm21.458 0 2.182-13.09h1.475l-.341 2.01h.136a4.15 4.15 0 0 1 1.585-1.593q1.014-.588 2.301-.588 1.347 0 2.114.639.767.63 1.023 1.739h.111a4.5 4.5 0 0 1 1.73-1.73q1.116-.649 2.548-.648 1.815 0 2.685 1.15.869 1.15.503 3.341l-1.466 8.77h-1.517l1.465-8.77q.248-1.551-.4-2.327-.648-.775-1.943-.775-1.5 0-2.48.92-.972.913-1.202 2.335l-1.44 8.617h-1.552l1.492-8.906q.213-1.33-.384-2.148-.588-.818-1.934-.818-.912 0-1.713.451a4 4 0 0 0-1.347 1.236 4.4 4.4 0 0 0-.716 1.799L221.827 100zm29.304-18.273-9.077 20.898h-1.423l9.068-20.898zm10.095 8.054-1.458.375a3 3 0 0 0-.409-1.057 2 2 0 0 0-.843-.75q-.546-.28-1.432-.28-1.33 0-2.293.647-.963.64-1.125 1.636-.136.836.35 1.355.494.52 1.653.819l1.909.485q1.586.41 2.259 1.279.681.87.468 2.199a3.86 3.86 0 0 1-.946 1.96q-.75.852-1.926 1.338-1.168.486-2.608.486-1.935 0-3.042-.87-1.1-.87-1.177-2.505l1.526-.341q.069 1.159.793 1.755.732.597 2.062.597 1.518 0 2.548-.69 1.032-.69 1.185-1.705.145-.8-.298-1.33-.435-.528-1.483-.783l-2.037-.512q-1.645-.417-2.327-1.304-.673-.894-.451-2.207.178-1.083.903-1.9.725-.819 1.832-1.28a6.2 6.2 0 0 1 2.421-.468q1.806 0 2.753.818.945.81 1.193 2.233"/><defs><linearGradient id="a" x1="150" x2="150" y1="176" y2="200" gradientUnits="userSpaceOnUse"><stop stop-color="#b55b00"/><stop offset="1"/></linearGradient><linearGradient id="b" x1="81" x2="81" y1="38" y2="176" gradientUnits="userSpaceOnUse"><stop stop-color="#ff9f9f"/><stop offset="1" stop-color="#ed0000"/></linearGradient><linearGradient id="c" x1="228.5" x2="228.5" y1="131" y2="176" gradientUnits="userSpaceOnUse"><stop stop-color="#71ffff"/><stop offset="1" stop-color="#02c5c5"/></linearGradient></defs></svg>