<svg xmlns="http://www.w3.org/2000/svg" width="300" height="200" fill="none" viewBox="0 0 300 200"><path fill="#000" d="M0 0h300v200H0z"/><path fill="#ff7973" d="m139 133 10.659 4.44-1.484-11.451zm108-14-.129-.992-99.074 12.843.128.992.129.992 99.075-12.843z"/><path fill="#15e8ff" d="m175 86-6.417-9.6-5.105 10.357zm-71-35-.442.897 62.927 31.02.443-.896.442-.897-62.928-31.02z"/><circle cx="85.5" cy="43.5" r="39.5" fill="url(#a)"/><ellipse cx="247" cy="116" fill="url(#b)" rx="39" ry="36"/><path fill="#000" d="m75.912 49 2.182-13.09h1.474l-.34 2.01h.136q.57-1.014 1.585-1.593 1.014-.588 2.301-.588 1.346 0 2.114.639.767.63 1.022 1.739h.111a4.5 4.5 0 0 1 1.73-1.73q1.117-.648 2.549-.648 1.815 0 2.684 1.15t.503 3.341L92.497 49H90.98l1.466-8.77q.247-1.551-.4-2.327-.648-.775-1.944-.775-1.5 0-2.48.92-.972.912-1.201 2.335L84.98 49h-1.552l1.492-8.906q.212-1.33-.384-2.148-.588-.818-1.935-.818-.912 0-1.713.452a4.04 4.04 0 0 0-1.346 1.235 4.4 4.4 0 0 0-.716 1.799L77.429 49zm21.795 3 1.5-9.034h-.086l-2.906 1.73.247-1.415 2.915-1.747h1.432L99.07 52z"/><path fill="#15e8ff" d="m153.057 57.997 1.355-8.088h1.517L153.747 63h-1.517l.358-2.173h-.111q-.613 1.005-1.738 1.679-1.117.664-2.557.664-1.253 0-2.139-.545-.879-.555-1.253-1.62-.375-1.065-.12-2.616l1.424-8.48h1.517l-1.398 8.386q-.247 1.535.494 2.472.75.93 2.165.929.887 0 1.773-.426a4.4 4.4 0 0 0 1.551-1.244q.665-.828.861-2.029m5.9 8.003 1.5-9.034h-.086l-2.906 1.73.247-1.415 2.915-1.747h1.432L160.32 66z"/><path fill="#ff7973" d="m185.057 150.997 1.355-8.088h1.517L185.747 156h-1.517l.358-2.173h-.111q-.613 1.005-1.738 1.679-1.117.664-2.557.664-1.253 0-2.139-.545-.878-.554-1.253-1.619-.375-1.066-.12-2.617l1.424-8.48h1.517l-1.398 8.386q-.247 1.535.494 2.472.75.929 2.165.929.887 0 1.773-.426a4.4 4.4 0 0 0 1.551-1.244q.665-.828.861-2.029m3.479 8.003.154-1.023 4.534-3.673q.809-.648 1.321-1.134.52-.485.792-.903.273-.426.341-.895.137-.817-.409-1.329-.537-.512-1.5-.512-.98 0-1.721.554-.733.554-.87 1.415h-1.38q.22-1.338 1.355-2.216 1.142-.886 2.744-.886 1.066 0 1.798.4.743.4 1.074 1.091.333.682.196 1.534a3.4 3.4 0 0 1-.434 1.193q-.324.555-.989 1.202a27 27 0 0 1-1.773 1.526l-3.008 2.429v.059h5.565l-.188 1.168z"/><path fill="#000" d="m236.912 124 2.182-13.091h1.474l-.341 2.011h.137a4.14 4.14 0 0 1 1.585-1.593q1.014-.588 2.301-.588 1.346 0 2.114.639.767.63 1.022 1.738h.111a4.5 4.5 0 0 1 1.73-1.73q1.117-.647 2.549-.647 1.815 0 2.684 1.15t.503 3.341l-1.466 8.77h-1.517l1.466-8.77q.247-1.551-.401-2.327-.647-.775-1.943-.775-1.5 0-2.48.92-.972.912-1.202 2.336L245.98 124h-1.551l1.491-8.906q.214-1.33-.383-2.148-.588-.818-1.935-.818-.912 0-1.713.452a4 4 0 0 0-1.346 1.235 4.36 4.36 0 0 0-.716 1.799L238.429 124zm19.374 3 .154-1.023 4.534-3.673q.809-.648 1.321-1.134.52-.485.792-.903.273-.426.341-.895.137-.818-.409-1.329-.537-.512-1.5-.512-.98 0-1.721.554-.733.555-.87 1.415h-1.38q.22-1.338 1.355-2.216 1.142-.886 2.744-.886 1.065 0 1.798.4.743.4 1.074 1.091.333.682.196 1.534a3.4 3.4 0 0 1-.434 1.193q-.324.555-.989 1.202a27 27 0 0 1-1.773 1.526l-3.008 2.429v.059h5.565l-.188 1.168z"/><defs><linearGradient id="a" x1="85.5" x2="85.5" y1="4" y2="83" gradientUnits="userSpaceOnUse"><stop stop-color="#b8f8ff"/><stop offset="1" stop-color="#15e8ff"/></linearGradient><linearGradient id="b" x1="247" x2="247" y1="80" y2="152" gradientUnits="userSpaceOnUse"><stop stop-color="#ff070b"/><stop offset="1" stop-color="#ff9ea0"/></linearGradient></defs></svg>