<svg xmlns="http://www.w3.org/2000/svg" width="300" height="200" fill="none" viewBox="0 0 300 200"><path fill="#000" d="M0 0h300v200H0z"/><path stroke="#fff" stroke-width="3" d="M278 170 150 13 22 170" opacity=".83"/><circle cx="150" cy="100" r="3.5" fill="#f1ff2f" stroke="#f1ff2f"/><path fill="#f1ff2f" d="M173.128 113.24q-1.992 0-3.264-.96-1.248-.984-1.704-2.736-.456-1.776-.096-4.104l.264-1.608q.552-3.432 2.376-5.4 1.848-1.992 4.728-1.992 1.776 0 2.88.744 1.104.72 1.488 1.872t-.024 2.424l-2.16.504q.648-2.304.072-3.528-.576-1.248-2.28-1.248t-2.904 1.272-1.68 4.152l-.672 4.008q-.504 3.048.264 4.44t2.784 1.392q1.152 0 2.184-.696t1.56-2.52l1.488.504q-.864 1.896-2.28 2.688a6 6 0 0 1-3.024.792m21.671-9.024-.288 1.56q-.384 2.256-1.344 3.936t-2.448 2.616q-1.488.912-3.432.912-2.088 0-3.384-1.008-1.272-1.032-1.728-2.808t-.072-3.984l.264-1.56q.408-2.232 1.368-3.912t2.424-2.592q1.488-.936 3.432-.936 2.088 0 3.36 1.032 1.296 1.032 1.752 2.808.48 1.752.096 3.936m-2.065-1.248q.481-2.736-.311-4.248-.768-1.512-2.832-1.512-1.872 0-3.072 1.416-1.176 1.392-1.656 4.104l-.696 3.96q-.48 2.76.288 4.272.792 1.512 2.832 1.512 1.896 0 3.096-1.416t1.656-4.128zm10.585-6.288 2.616 12.552 7.008-12.552h4.416l-.12.648-1.344.12q-.384.048-.504.216-.096.144-.24.96l-2.184 12.432q-.144.816-.096.984.048.144.408.192l1.296.144-.096.624h-5.784l.096-.624 1.344-.144q.384-.048.48-.192.12-.168.264-.984L213.183 98l-7.32 13.08h-1.632l-2.736-13.152-2.256 13.128q-.144.816-.096.984.048.144.408.192l1.296.144-.12.624h-4.584l.12-.624 1.344-.144q.336-.048.456-.192.144-.168.288-.984l2.184-12.432q.144-.816.096-.96-.048-.168-.408-.216l-1.32-.12.12-.648z"/><path stroke="url(#a)" stroke-width="3" d="M150 161.5c35.321 0 67.282 1.063 90.398 2.778 11.565.859 20.88 1.878 27.284 3.001 3.213.564 5.625 1.143 7.206 1.716.503.182.884.355 1.167.505-.283.15-.664.323-1.167.505-1.581.573-3.993 1.152-7.206 1.716-6.404 1.123-15.719 2.142-27.284 3.001-23.116 1.715-55.077 2.778-90.398 2.778s-67.282-1.063-90.398-2.778c-11.565-.859-20.88-1.878-27.284-3.001-3.213-.564-5.625-1.143-7.206-1.716a9 9 0 0 1-1.168-.505 9 9 0 0 1 1.168-.505c1.58-.573 3.993-1.152 7.206-1.716 6.404-1.123 15.719-2.142 27.284-3.001 23.116-1.715 55.077-2.778 90.398-2.778Z"/><path fill="#f1ff2f" d="M149 170a1 1 0 0 0 2 0h-2m1-66-5.774 10h11.548zm0 66h1v-57h-2v57z"/><defs><linearGradient id="a" x1="22" x2="278" y1="169.5" y2="169.5" gradientUnits="userSpaceOnUse"><stop stop-color="#fff"/><stop offset="1" stop-color="#999"/></linearGradient></defs></svg>