<svg xmlns="http://www.w3.org/2000/svg" width="300" height="200" fill="none" viewBox="0 0 300 200"><path fill="#000" d="M0 0h300v200H0z"/><path stroke="#f1ff2f" stroke-width="5" d="M28 81.337c96.974-81.263 147.755-79.631 232.5 0"/><path stroke="#fff" stroke-dasharray="5 5" d="m29.339 82.632 115 106M144.658 189.636l116-109"/><path stroke="#fff" d="M144.5 189V21"/><path stroke="#fffefe" stroke-width="2" d="M146.5 156c10.628.855 14.958 3.784 20 13"/><path fill="#fff" d="m171.352 138.739-.307 1.909h-11.454l.307-1.909zm1.273-.307-.398 2.375q-.591 3.569-1.818 5.898-1.216 2.33-2.954 3.477-1.74 1.136-3.898 1.136-2.16 0-3.546-1.148t-1.852-3.477q-.466-2.33.125-5.886l.398-2.375q.602-3.546 1.818-5.841 1.216-2.307 2.955-3.421 1.738-1.125 3.897-1.125 2.17 0 3.557 1.125 1.386 1.114 1.841 3.421.466 2.295-.125 5.841m-2.523 2.716.523-3.046q.443-2.693.159-4.522-.273-1.83-1.216-2.75-.943-.933-2.443-.932-2.284 0-3.989 2.102-1.692 2.091-2.363 6.102l-.512 3.046q-.681 4.034.319 6.182 1 2.136 3.25 2.136 1.522 0 2.784-.966t2.147-2.83q.898-1.863 1.341-4.522M168.866 86h-1.585a4.4 4.4 0 0 0-.358-1.653 4.1 4.1 0 0 0-.929-1.338 4.2 4.2 0 0 0-1.423-.887q-.818-.315-1.832-.315-1.67 0-3.196.878-1.525.869-2.625 2.557t-1.5 4.124q-.4 2.404.127 4.049.529 1.635 1.731 2.48 1.209.843 2.838.844 1.04 0 1.994-.316a6.7 6.7 0 0 0 1.756-.877 6.9 6.9 0 0 0 1.406-1.339 6.1 6.1 0 0 0 .937-1.661h1.603a8.617 8.617 0 0 1-2.941 4.048 8.1 8.1 0 0 1-2.241 1.21 7.7 7.7 0 0 1-2.591.435q-2.233 0-3.776-1.117-1.534-1.117-2.181-3.145-.64-2.037-.179-4.798.451-2.71 1.73-4.705 1.287-1.995 3.153-3.076a7.9 7.9 0 0 1 4.057-1.091q1.398 0 2.506.434a5.3 5.3 0 0 1 1.883 1.21q.784.776 1.202 1.808.417 1.03.434 2.241m17.517 3.367q-.452 2.7-1.739 4.695t-3.145 3.086a7.84 7.84 0 0 1-4.039 1.09q-2.242 0-3.785-1.116-1.534-1.125-2.173-3.153-.64-2.037-.187-4.79.451-2.702 1.738-4.696 1.287-1.995 3.154-3.085a7.9 7.9 0 0 1 4.056-1.091q2.217 0 3.75 1.116 1.534 1.117 2.182 3.154.648 2.028.188 4.79m-1.526-.188q.393-2.335-.102-3.98-.486-1.645-1.67-2.514-1.185-.879-2.873-.878a6.36 6.36 0 0 0-3.281.903q-1.535.895-2.616 2.591-1.083 1.687-1.483 4.066-.384 2.325.102 3.98.486 1.644 1.67 2.522 1.194.87 2.89.87a6.37 6.37 0 0 0 3.289-.904q1.534-.903 2.608-2.59 1.083-1.697 1.466-4.066m6.846-8.633h1.841l3.818 15.204h.162l8.838-15.204h1.841L205.305 98h-1.5l2.353-14.088h-.137L197.78 98h-1.449l-3.537-14.088h-.136L190.305 98h-1.5zM223.227 159l2.898-17.455h5.634q1.857 0 2.991.665 1.142.665 1.577 1.85.443 1.176.196 2.71-.256 1.516-1.091 2.685a5.7 5.7 0 0 1-2.182 1.832q-1.355.656-3.196.656h-4.79l.247-1.457h4.748q1.371 0 2.352-.452a3.84 3.84 0 0 0 1.568-1.287q.588-.836.776-1.977.187-1.15-.128-2.003-.308-.852-1.142-1.321-.827-.469-2.208-.469h-3.997L224.821 159zm9-7.875 2.992 7.875h-1.833l-2.94-7.875zM136 97l-5.774 10h11.547zm0 91h1v-82h-2v82z"/><circle cx="144" cy="90" r="6" fill="#6c6c6c"/><path fill="#fffefe" d="m160 192 11.247-2.617-7.89-8.431zM269 90l-11.247 2.617 7.89 8.431zm-102.429 95.851.684.73 95.857-89.701-.683-.73-.684-.73-95.857 89.7z"/></svg>