<svg xmlns="http://www.w3.org/2000/svg" width="300" height="200" fill="none" viewBox="0 0 300 200"><path fill="#000" d="M0 0h300v200H0z"/><path fill="#fff" d="m34 20-5.773 10h11.546zm0 144h1V29h-2v135zM275 165l-10-5.774v11.548zm-242 0v1h233v-2H33zM14.168 112.909q-.452 0-.836-.085a3 3 0 0 1-.588-.188l.64-1.338q.715.247 1.312.154.605-.085 1.15-.58.546-.494 1.075-1.474l.715-1.33-2.59-13.159h1.576l2.046 11.114h.11l5.736-11.114h1.713l-8.054 15.145q-.52.98-1.15 1.611-.622.63-1.347.937-.716.307-1.508.307M138.014 174.909l2.455 5.582 4.312-5.582h1.773l-5.318 6.571 3.119 6.52h-1.747l-2.472-5.395-4.27 5.395h-1.789l5.267-6.554-3.068-6.537z"/><circle cx="86.5" cy="41.5" r="21.5" fill="url(#a)"/><ellipse cx="267.5" cy="101" fill="url(#b)" rx="19.5" ry="18"/><path fill="#000" d="m75.912 49 2.182-13.09h1.474l-.34 2.01h.136q.57-1.014 1.585-1.593 1.014-.588 2.301-.588 1.346 0 2.114.639.767.63 1.022 1.739h.111a4.5 4.5 0 0 1 1.73-1.73q1.117-.648 2.549-.648 1.815 0 2.684 1.15t.503 3.341L92.497 49H90.98l1.466-8.77q.247-1.551-.4-2.327-.648-.775-1.944-.775-1.5 0-2.48.92-.972.912-1.201 2.335L84.98 49h-1.552l1.492-8.906q.212-1.33-.384-2.148-.588-.818-1.935-.818-.912 0-1.713.452a4.04 4.04 0 0 0-1.346 1.235 4.4 4.4 0 0 0-.716 1.799L77.429 49zm21.795 3 1.5-9.034h-.086l-2.906 1.73.247-1.415 2.915-1.747h1.432L99.07 52z"/><path fill="#15e8ff" d="m81.912 105 2.182-13.09h1.474l-.34 2.01h.11q.546-.989 1.628-1.593a4.7 4.7 0 0 1 2.327-.614q.188 0 .417.009.231 0 .384.017l-.264 1.542a13 13 0 0 0-.358-.05 4 4 0 0 0-.554-.035 4.2 4.2 0 0 0-1.892.435 4.1 4.1 0 0 0-1.45 1.184 3.9 3.9 0 0 0-.75 1.73L83.43 105zm9.771 3 1.5-9.034h-.085l-2.906 1.73.247-1.415 2.915-1.747h1.431L93.048 108z"/><path fill="#ff7973" d="m170.912 116 2.182-13.091h1.474l-.341 2.011h.111q.546-.989 1.628-1.593a4.7 4.7 0 0 1 2.327-.614q.188 0 .417.009.23 0 .384.017l-.264 1.542-.358-.051a4 4 0 0 0-.554-.034q-1.023 0-1.892.435a4.1 4.1 0 0 0-1.449 1.184 3.9 3.9 0 0 0-.75 1.73L172.429 116zm7.351 3 .153-1.023 4.534-3.673q.81-.648 1.321-1.134.52-.485.793-.903a2.25 2.25 0 0 0 .341-.895q.136-.818-.409-1.329-.537-.512-1.5-.512-.981 0-1.722.554-.732.555-.869 1.415h-1.381q.222-1.338 1.355-2.216 1.142-.886 2.745-.886 1.065 0 1.798.4.741.4 1.074 1.091.332.682.196 1.534a3.4 3.4 0 0 1-.435 1.193q-.323.555-.989 1.202-.665.64-1.772 1.526l-3.009 2.429v.059h5.566l-.188 1.168z"/><path fill="#000" d="m255.912 107 2.182-13.09h1.474l-.341 2.01h.137a4.14 4.14 0 0 1 1.585-1.593q1.014-.588 2.301-.588 1.346 0 2.114.639.767.63 1.022 1.739h.111a4.5 4.5 0 0 1 1.73-1.73q1.117-.649 2.549-.648 1.815 0 2.684 1.15t.503 3.341l-1.466 8.77h-1.517l1.466-8.77q.247-1.551-.401-2.327-.647-.775-1.943-.775-1.5 0-2.48.92-.972.913-1.202 2.335L264.98 107h-1.551l1.491-8.906q.214-1.33-.383-2.148-.588-.818-1.935-.818-.912 0-1.713.451a4.04 4.04 0 0 0-1.346 1.236 4.36 4.36 0 0 0-.716 1.799L257.429 107zm19.374 3 .154-1.023 4.534-3.673q.809-.648 1.321-1.134.52-.485.792-.903.273-.426.341-.895.137-.818-.409-1.329-.537-.512-1.5-.512-.98 0-1.721.554-.733.555-.87 1.415h-1.38q.22-1.338 1.355-2.216 1.142-.886 2.744-.886 1.065 0 1.798.4.743.4 1.074 1.091.333.682.196 1.534a3.4 3.4 0 0 1-.434 1.193q-.324.555-.989 1.202a27 27 0 0 1-1.773 1.526l-3.008 2.429v.059h5.565l-.188 1.168z"/><path fill="#ff7973" d="m248 111-11.116-3.126 2.851 11.19zM40 164l.247.969 199.279-50.778-.247-.969-.247-.969-199.279 50.778z"/><path fill="#15e8ff" d="m80 61-9.325 6.81 10.56 4.67zM34 165l.914.405 42.36-95.77-.915-.404-.914-.405-42.36 95.769z"/><defs><linearGradient id="a" x1="86.5" x2="86.5" y1="20" y2="63" gradientUnits="userSpaceOnUse"><stop stop-color="#b8f8ff"/><stop offset="1" stop-color="#15e8ff"/></linearGradient><linearGradient id="b" x1="267.5" x2="267.5" y1="83" y2="119" gradientUnits="userSpaceOnUse"><stop stop-color="#ff070b"/><stop offset="1" stop-color="#ff9ea0"/></linearGradient></defs></svg>