<svg xmlns="http://www.w3.org/2000/svg" width="300" height="200" fill="none" viewBox="0 0 300 200"><path fill="#000" d="M0 0h300v200H0z"/><path fill="#fff" d="m34 20-5.773 10h11.546zm0 144h1V29h-2v135zM275 165l-10-5.774v11.548zm-242 0v1h233v-2H33zM14.168 112.909q-.452 0-.836-.085a3 3 0 0 1-.588-.188l.64-1.338q.715.247 1.312.154.605-.085 1.15-.58.546-.494 1.075-1.474l.715-1.33-2.59-13.159h1.576l2.046 11.114h.11l5.736-11.114h1.713l-8.054 15.145q-.52.98-1.15 1.611-.622.63-1.347.937-.716.307-1.508.307M138.014 174.909l2.455 5.582 4.312-5.582h1.773l-5.318 6.571 3.119 6.52h-1.747l-2.472-5.395-4.27 5.395h-1.789l5.267-6.554-3.068-6.537z"/><circle cx="86.5" cy="41.5" r="21.5" fill="url(#a)"/><ellipse cx="267.5" cy="101" fill="url(#b)" rx="19.5" ry="18"/><path fill="#000" d="m75.912 49 2.182-13.09h1.474l-.34 2.01h.136q.57-1.014 1.585-1.593 1.014-.588 2.301-.588 1.346 0 2.114.639.767.63 1.022 1.739h.111a4.5 4.5 0 0 1 1.73-1.73q1.117-.648 2.549-.648 1.815 0 2.684 1.15t.503 3.341L92.497 49H90.98l1.466-8.77q.247-1.551-.4-2.327-.648-.775-1.944-.775-1.5 0-2.48.92-.972.912-1.201 2.335L84.98 49h-1.552l1.492-8.906q.212-1.33-.384-2.148-.588-.818-1.935-.818-.912 0-1.713.452a4.04 4.04 0 0 0-1.346 1.235 4.4 4.4 0 0 0-.716 1.799L77.429 49zm21.795 3 1.5-9.034h-.086l-2.906 1.73.247-1.415 2.915-1.747h1.432L99.07 52z"/><path fill="#15e8ff" d="M137.534 55.298q-1.185 0-2.088-.46a3.03 3.03 0 0 1-1.347-1.346q-.434-.887-.238-2.148.17-.971.648-1.637a3.9 3.9 0 0 1 1.227-1.09 6.6 6.6 0 0 1 1.704-.682q.963-.247 2.097-.375 1.108-.136 1.892-.239t1.219-.324a.94.94 0 0 0 .52-.716l.051-.307q.22-1.338-.409-2.105-.631-.775-2.114-.775-1.414 0-2.455.63-1.03.623-1.534 1.458l-1.346-.52q.614-1.074 1.508-1.713a5.9 5.9 0 0 1 1.918-.93 7.4 7.4 0 0 1 2.02-.289q.75 0 1.525.196.776.195 1.39.682.621.477.912 1.338.297.852.085 2.165L143.236 55h-1.517l.349-2.071h-.094a5 5 0 0 1-.988 1.125 5.2 5.2 0 0 1-1.492.895q-.869.35-1.96.35m.384-1.389q1.21 0 2.19-.537a4.7 4.7 0 0 0 1.619-1.423 4.7 4.7 0 0 0 .818-1.969l.316-1.892q-.188.162-.614.29a9 9 0 0 1-.946.23 21 21 0 0 1-1.048.162l-.921.12a9.7 9.7 0 0 0-1.977.425q-.835.29-1.338.802-.502.503-.631 1.295-.195 1.193.52 1.85.725.647 2.012.647M148.464 58l1.5-9.034h-.085l-2.906 1.73.247-1.415 2.915-1.747h1.432L149.828 58z"/><path fill="#ff7973" d="M205.534 113.298q-1.185 0-2.088-.46a3.03 3.03 0 0 1-1.347-1.347q-.434-.885-.238-2.147.17-.972.648-1.637a3.9 3.9 0 0 1 1.227-1.091 6.6 6.6 0 0 1 1.704-.681q.963-.248 2.097-.375a283 283 0 0 0 1.892-.239q.784-.102 1.219-.324a.94.94 0 0 0 .52-.716l.051-.307q.22-1.337-.409-2.105-.631-.775-2.114-.775-1.414 0-2.455.63-1.03.623-1.534 1.458l-1.346-.52q.614-1.074 1.508-1.713a5.9 5.9 0 0 1 1.918-.929 7.4 7.4 0 0 1 2.02-.29q.75 0 1.525.196.776.196 1.39.682.621.477.912 1.338.297.852.085 2.165L211.236 113h-1.517l.349-2.071h-.094a5 5 0 0 1-.988 1.125 5.2 5.2 0 0 1-1.492.895q-.869.35-1.96.349m.384-1.389q1.21 0 2.19-.537a4.7 4.7 0 0 0 1.619-1.423 4.7 4.7 0 0 0 .818-1.969l.316-1.892q-.188.162-.614.29a9 9 0 0 1-.946.23 22 22 0 0 1-1.048.162l-.921.119a9.7 9.7 0 0 0-1.977.426q-.835.291-1.338.801-.502.504-.631 1.296-.195 1.193.52 1.849.725.648 2.012.648m8.126 4.091.153-1.023 4.535-3.673q.809-.648 1.321-1.134.519-.485.792-.903.273-.426.341-.895.137-.818-.409-1.329-.537-.512-1.5-.512-.98 0-1.722.554-.732.555-.869 1.415h-1.381q.222-1.338 1.356-2.216 1.142-.886 2.744-.886 1.065 0 1.798.4.741.4 1.074 1.091.333.682.196 1.534a3.4 3.4 0 0 1-.435 1.193q-.324.555-.988 1.202a27 27 0 0 1-1.773 1.526l-3.009 2.429v.059h5.566l-.188 1.168z"/><path fill="#000" d="m255.912 107 2.182-13.09h1.474l-.341 2.01h.137a4.14 4.14 0 0 1 1.585-1.593q1.014-.588 2.301-.588 1.346 0 2.114.639.767.63 1.022 1.739h.111a4.5 4.5 0 0 1 1.73-1.73q1.117-.649 2.549-.648 1.815 0 2.684 1.15t.503 3.341l-1.466 8.77h-1.517l1.466-8.77q.247-1.551-.401-2.327-.647-.775-1.943-.775-1.5 0-2.48.92-.972.913-1.202 2.335L264.98 107h-1.551l1.491-8.906q.214-1.33-.383-2.148-.588-.818-1.935-.818-.912 0-1.713.451a4.04 4.04 0 0 0-1.346 1.236 4.36 4.36 0 0 0-.716 1.799L257.429 107zm19.374 3 .154-1.023 4.534-3.673q.809-.648 1.321-1.134.52-.485.792-.903.273-.426.341-.895.137-.818-.409-1.329-.537-.512-1.5-.512-.98 0-1.721.554-.733.555-.87 1.415h-1.38q.22-1.338 1.355-2.216 1.142-.886 2.744-.886 1.065 0 1.798.4.743.4 1.074 1.091.333.682.196 1.534a3.4 3.4 0 0 1-.434 1.193q-.324.555-.989 1.202a27 27 0 0 1-1.773 1.526l-3.008 2.429v.059h5.565l-.188 1.168z"/><path fill="#ff7973" d="m174 142 11.487 1.174-4.727-10.535zm78-35-.409-.912-69.789 31.315.409.912.41.913 69.788-31.316z"/><path fill="#15e8ff" d="m175 86-6.417-9.6-5.105 10.357zm-71-35-.442.897 62.927 31.02.443-.896.442-.897-62.928-31.02z"/><defs><linearGradient id="a" x1="86.5" x2="86.5" y1="20" y2="63" gradientUnits="userSpaceOnUse"><stop stop-color="#b8f8ff"/><stop offset="1" stop-color="#15e8ff"/></linearGradient><linearGradient id="b" x1="267.5" x2="267.5" y1="83" y2="119" gradientUnits="userSpaceOnUse"><stop stop-color="#ff070b"/><stop offset="1" stop-color="#ff9ea0"/></linearGradient></defs></svg>