<svg xmlns="http://www.w3.org/2000/svg" width="300" height="200" fill="none" viewBox="0 0 300 200"><path fill="#000" d="M0 0h300v200H0z"/><path fill="url(#a)" d="M146.507 16.318c1.971-2.968 6.327-2.98 8.315-.023l16.51 24.564c2.229 3.316-.14 7.778-4.135 7.79l-32.884.092c-3.995.01-6.389-4.437-4.179-7.766z"/><rect width="45.598" height="68.397" x="127.334" y="48.31" fill="url(#b)" rx="6" transform="rotate(-.157 127.334 48.31)"/><rect width="12.104" height="68.397" x="157.344" y="116.079" fill="url(#c)" rx="6" transform="rotate(-.157 157.344 116.079)"/><rect width="12.104" height="68.397" x="143.293" y="116.144" fill="url(#d)" rx="6" transform="rotate(-.157 143.293 116.144)"/><rect width="12.104" height="68.397" x="129.242" y="116.208" fill="url(#e)" rx="6" transform="rotate(-.157 129.242 116.208)"/><path fill="#fff" d="m111.914 190.245 5.774-10h-11.547zm0-71.248h-1v62.248h2v-62.248zM244 119.248l5.774-10h-11.548zM244 48h-1v62.248h2V48z"/><path fill="#000" d="m136.368 97 3.273-19.636h2.211l-.511 3.017h.204a6.2 6.2 0 0 1 2.378-2.39q1.522-.883 3.452-.883 2.02 0 3.17.959 1.152.945 1.535 2.608h.166a6.77 6.77 0 0 1 2.595-2.596q1.675-.97 3.822-.971 2.724 0 4.027 1.726 1.305 1.725.755 5.011L161.246 97h-2.276l2.199-13.155q.37-2.326-.601-3.49-.972-1.163-2.915-1.163-2.25 0-3.72 1.38-1.457 1.368-1.802 3.503L149.97 97h-2.327l2.238-13.36q.32-1.994-.576-3.221-.882-1.227-2.902-1.227-1.368 0-2.569.677a6.06 6.06 0 0 0-2.02 1.854q-.818 1.176-1.074 2.698L138.643 97z"/><path fill="#fff" d="M86.636 143.545 77.352 161h-2.159l-3.466-17.455h2.102l2.728 14.785h.147l7.648-14.785zM86.026 165l1.954-11.636h1.773l-.318 1.92h.09a3.64 3.64 0 0 1 1.49-1.534q.954-.522 1.954-.523.455 0 .818.091.363.08.625.227l-.841 1.546a2 2 0 0 0-.466-.148 2.6 2.6 0 0 0-.625-.068q-1.238 0-2.204.818-.966.807-1.182 2.091L87.867 165zM259.784 95.91q-1.784 0-3.057-.467-1.273-.455-2.068-1.25a5 5 0 0 1-1.148-1.784l1.841-1.08q.25.66.762 1.296t1.443 1.046q.931.42 2.443.42 2.307 0 3.966-1.17 1.659-1.16 2.068-3.592l.614-3.931h-.182a8.2 8.2 0 0 1-1.25 1.59q-.785.784-1.943 1.308-1.148.522-2.716.522-2.091 0-3.546-1.034t-2.056-2.955q-.603-1.93-.148-4.602.432-2.647 1.659-4.659 1.239-2.01 3.045-3.136a7.4 7.4 0 0 1 3.978-1.125q1.602 0 2.568.568.966.556 1.466 1.386.511.83.738 1.614h.205l.545-3.33h1.978l-2.955 17.91q-.375 2.216-1.545 3.647a7 7 0 0 1-2.909 2.114q-1.728.693-3.796.693m1.227-8.944q1.683 0 3.023-.807 1.352-.818 2.261-2.33.921-1.523 1.262-3.636.34-2.046-.034-3.625-.364-1.59-1.421-2.5-1.045-.92-2.75-.92-1.761 0-3.113.943-1.341.943-2.216 2.545-.864 1.592-1.193 3.557-.319 2 .022 3.534.352 1.522 1.387 2.387 1.034.852 2.772.852"/><defs><linearGradient id="a" x1="150.647" x2="150.791" y1="10.084" y2="61.565" gradientUnits="userSpaceOnUse"><stop stop-color="#d9d9d9"/><stop offset="1" stop-color="#737373"/></linearGradient><linearGradient id="b" x1="150.133" x2="150.133" y1="48.31" y2="116.707" gradientUnits="userSpaceOnUse"><stop stop-color="#d9d9d9"/><stop offset="1" stop-color="#737373"/></linearGradient><linearGradient id="c" x1="163.396" x2="163.396" y1="116.079" y2="184.476" gradientUnits="userSpaceOnUse"><stop stop-color="#990003"/><stop offset=".365" stop-color="#c79200"/><stop offset=".663" stop-color="#6c6c6c"/><stop offset="1"/></linearGradient><linearGradient id="d" x1="149.345" x2="149.345" y1="116.144" y2="184.541" gradientUnits="userSpaceOnUse"><stop stop-color="#990003"/><stop offset=".365" stop-color="#c79200"/><stop offset=".663" stop-color="#6c6c6c"/><stop offset="1"/></linearGradient><linearGradient id="e" x1="135.294" x2="135.294" y1="116.208" y2="184.605" gradientUnits="userSpaceOnUse"><stop stop-color="#990003"/><stop offset=".365" stop-color="#c79200"/><stop offset=".663" stop-color="#6c6c6c"/><stop offset="1"/></linearGradient></defs></svg>