<svg xmlns="http://www.w3.org/2000/svg" width="300" height="200" fill="none" viewBox="0 0 300 200"><path fill="#000" d="M0 0h300v200H0z"/><path fill="url(#a)" d="M0 176h300v24H0z"/><rect width="138" height="138" x="12" y="38" fill="url(#b)" rx="8"/><path fill="#000" d="M79.136 97.546 76.24 115h-1.594l2.616-15.784h-.102l-4.543 2.719.282-1.654 4.576-2.736z"/><rect width="45" height="45" x="206" y="131" fill="url(#c)" rx="8"/><path fill="#fff" d="m206.912 115 2.182-13.091h1.474l-.341 2.011h.111q.546-.989 1.628-1.593a4.7 4.7 0 0 1 2.327-.614q.188 0 .417.009.23 0 .384.017l-.264 1.542-.358-.051a4 4 0 0 0-.554-.034q-1.023 0-1.892.435a4.1 4.1 0 0 0-1.449 1.184 3.9 3.9 0 0 0-.75 1.73L208.429 115zm13.438.273q-1.832 0-3.025-.853-1.194-.86-1.671-2.377-.477-1.526-.145-3.512.332-1.977 1.313-3.511.98-1.543 2.42-2.412a5.9 5.9 0 0 1 3.128-.878q1.065 0 1.994.392.93.384 1.577 1.185.657.792.912 2.003.255 1.202-.017 2.846l-.119.75h-10.228l.213-1.338h8.685q.213-1.261-.119-2.267-.333-1.005-1.134-1.594-.792-.596-1.969-.596a4.2 4.2 0 0 0-2.275.673 6.2 6.2 0 0 0-1.807 1.756 5.8 5.8 0 0 0-.946 2.292l-.17 1.006q-.273 1.662.068 2.787.34 1.116 1.236 1.687.894.572 2.292.572.938 0 1.696-.29a4.4 4.4 0 0 0 1.321-.776q.562-.494.904-1.082l1.355.469a5.4 5.4 0 0 1-1.227 1.525 6.2 6.2 0 0 1-1.867 1.125q-1.074.418-2.395.418m19.187-10.492-1.457.375a3 3 0 0 0-.41-1.057 2 2 0 0 0-.843-.75q-.546-.28-1.432-.281-1.33 0-2.293.648-.963.639-1.125 1.636-.136.836.35 1.355.494.52 1.653.819l1.909.485q1.585.41 2.259 1.279.682.868.468 2.199a3.86 3.86 0 0 1-.946 1.96q-.75.852-1.926 1.338-1.167.486-2.608.486-1.934 0-3.042-.87-1.1-.869-1.176-2.505l1.525-.341q.069 1.16.793 1.755.732.597 2.062.597 1.518 0 2.549-.69t1.184-1.705q.145-.801-.298-1.329-.435-.53-1.483-.784l-2.037-.512q-1.645-.417-2.327-1.304-.672-.894-.451-2.207.178-1.082.903-1.901.725-.817 1.832-1.278a6.1 6.1 0 0 1 2.421-.469q1.806 0 2.753.818.945.81 1.193 2.233m9.143-2.872-.213 1.321h-6.256l.222-1.321zm-3.784-3.136h1.525l-2.131 12.809q-.136.819.069 1.287.204.46.63.657.426.187.938.187.298 0 .511-.034.222-.043.392-.085l.111 1.372a4.5 4.5 0 0 1-.588.153q-.34.077-.818.077a3.3 3.3 0 0 1-1.543-.366 2.44 2.44 0 0 1-1.074-1.091q-.366-.725-.196-1.799z"/><path fill="#000" d="m222.852 162 .205-1.168 6.75-6.409a54 54 0 0 0 2.156-2.156q.835-.903 1.278-1.653a4.6 4.6 0 0 0 .58-1.577q.162-.997-.17-1.739a2.43 2.43 0 0 0-1.049-1.167q-.716-.418-1.738-.418-1.075 0-1.969.46a4.23 4.23 0 0 0-2.259 3.103h-1.525a5.63 5.63 0 0 1 1.099-2.566 6.2 6.2 0 0 1 2.148-1.764 6.1 6.1 0 0 1 2.753-.639q1.466 0 2.488.631 1.024.621 1.483 1.696.46 1.073.239 2.403a6.2 6.2 0 0 1-.656 1.875q-.486.895-1.492 2.003-1.005 1.107-2.718 2.71l-5.123 4.832-.025.111h8.633l-.238 1.432z"/><path fill="#fff" d="m196 24-10-5.773v11.546zm-92 0v1h83v-2h-83zM26.852 24l.205-1.168 6.75-6.409q1.321-1.261 2.156-2.156.835-.903 1.279-1.653a4.6 4.6 0 0 0 .579-1.577q.162-.997-.17-1.739-.324-.75-1.049-1.167-.715-.418-1.738-.418a4.24 4.24 0 0 0-1.97.46 4.23 4.23 0 0 0-2.258 3.103h-1.525a5.6 5.6 0 0 1 1.1-2.566 6.16 6.16 0 0 1 4.9-2.403q1.466 0 2.488.63a3.6 3.6 0 0 1 1.483 1.697q.46 1.073.239 2.403a6.2 6.2 0 0 1-.656 1.875q-.486.894-1.492 2.003-1.005 1.108-2.718 2.71l-5.123 4.832-.025.111h8.633L37.702 24zm21.458 0 2.182-13.09h1.475l-.341 2.01h.136q.571-1.014 1.585-1.593 1.015-.588 2.301-.588 1.347 0 2.114.639.766.63 1.023 1.739h.11a4.5 4.5 0 0 1 1.73-1.73q1.117-.649 2.549-.648 1.815 0 2.685 1.15t.503 3.341L64.896 24h-1.517l1.465-8.77q.248-1.551-.4-2.327-.648-.775-1.943-.775-1.5 0-2.48.92-.972.913-1.202 2.335L57.379 24h-1.552l1.492-8.906q.213-1.33-.384-2.148-.588-.818-1.934-.818-.913 0-1.713.451a4.04 4.04 0 0 0-1.347 1.236 4.4 4.4 0 0 0-.716 1.799L49.827 24zM77.614 5.727l-9.077 20.898h-1.423l9.068-20.898zm10.095 8.054-1.458.375a3 3 0 0 0-.409-1.057 2 2 0 0 0-.843-.75q-.546-.28-1.432-.28-1.33 0-2.293.647-.963.64-1.125 1.636-.136.836.35 1.355.494.52 1.653.819l1.91.485q1.584.41 2.258 1.279.681.87.468 2.199a3.87 3.87 0 0 1-.946 1.96q-.75.852-1.926 1.338-1.167.486-2.608.486-1.935 0-3.042-.87-1.1-.87-1.177-2.505l1.526-.341q.069 1.16.793 1.756.733.596 2.062.596 1.517 0 2.549-.69 1.03-.69 1.184-1.705.145-.8-.298-1.33-.435-.528-1.483-.783l-2.037-.512q-1.645-.417-2.327-1.304-.674-.894-.452-2.207a3.73 3.73 0 0 1 .904-1.9q.725-.818 1.832-1.28a6.15 6.15 0 0 1 2.42-.468q1.808 0 2.754.818.945.81 1.193 2.233"/><defs><linearGradient id="a" x1="150" x2="150" y1="176" y2="200" gradientUnits="userSpaceOnUse"><stop stop-color="#b55b00"/><stop offset="1"/></linearGradient><linearGradient id="b" x1="81" x2="81" y1="38" y2="176" gradientUnits="userSpaceOnUse"><stop stop-color="#ff9f9f"/><stop offset="1" stop-color="#ed0000"/></linearGradient><linearGradient id="c" x1="228.5" x2="228.5" y1="131" y2="176" gradientUnits="userSpaceOnUse"><stop stop-color="#71ffff"/><stop offset="1" stop-color="#02c5c5"/></linearGradient></defs></svg>