<svg xmlns="http://www.w3.org/2000/svg" width="300" height="200" fill="none" viewBox="0 0 300 200"><g clip-path="url(#a)"><path fill="#000" d="M0 0h300v200H0z"/><path fill="#fff" d="m78.078 29-8.85 7.325 10.788 4.118zM31.045 156.68l.934.357L75.902 37.802l-.935-.357-.934-.356-43.922 119.234z"/><path stroke="#acacac" d="M76 28.5h208"/><path stroke="#6e6b6b" d="M0-.5h138.721" transform="matrix(.30891 -.9511 .94775 .31901 241.127 162)"/><path fill="#f7ff0d" d="m284 30-11.533-.562 5.28 10.27zM37 157l.457.889L276.453 35.005l-.457-.89-.457-.889L36.543 156.111z"/><path fill="#fff" d="M135.456 183.294q-1.192 0-2.164-.449a3.7 3.7 0 0 1-1.544-1.315q-.572-.865-.572-2.091 0-1.078.425-1.748a3 3 0 0 1 1.135-1.062 6 6 0 0 1 1.568-.571 19 19 0 0 1 1.74-.311q1.143-.147 1.854-.22.719-.082 1.046-.27.334-.188.334-.653v-.066q0-1.209-.661-1.878-.654-.67-1.985-.67-1.38 0-2.164.604-.785.605-1.103 1.291l-1.829-.653q.49-1.144 1.306-1.781.825-.645 1.797-.898a7.4 7.4 0 0 1 1.928-.262q.605 0 1.388.147a4.5 4.5 0 0 1 1.528.58q.743.441 1.233 1.331.49.891.49 2.385V183h-1.928v-1.699h-.098q-.195.409-.653.874-.458.466-1.217.792-.759.327-1.854.327m.294-1.732q1.143 0 1.928-.449.792-.449 1.192-1.16.408-.71.408-1.494v-1.764q-.122.147-.539.269a9 9 0 0 1-.947.204q-.531.083-1.037.147-.499.057-.809.098a7.4 7.4 0 0 0-1.405.319q-.645.212-1.045.645-.393.425-.392 1.16 0 1.005.743 1.519.751.506 1.903.506"/><path fill="#f7ff0d" d="M133.188 90h-5.162V73.273h5.39q2.434 0 4.166 1.004 1.731.997 2.654 2.867.923 1.862.923 4.46 0 2.613-.931 4.5-.931 1.878-2.712 2.891Q135.736 90 133.188 90m-3.137-1.797h3.006q2.075 0 3.438-.8a4.93 4.93 0 0 0 2.034-2.28q.67-1.477.67-3.52 0-2.025-.662-3.487-.662-1.47-1.976-2.254-1.316-.792-3.275-.792h-3.235z"/><path fill="#fff" d="M32.026 87V70.273h1.927v6.174h.163q.213-.326.589-.833.384-.515 1.094-.914.72-.41 1.944-.409 1.584 0 2.793.793 1.209.792 1.887 2.245.678 1.455.678 3.43 0 1.994-.678 3.456-.678 1.454-1.879 2.254-1.2.792-2.768.792-1.21 0-1.936-.4-.727-.408-1.12-.923a12 12 0 0 1-.603-.866h-.23V87zm1.894-6.273q0 1.421.417 2.508.416 1.078 1.217 1.69.8.605 1.96.605 1.209 0 2.018-.637.817-.645 1.225-1.732.416-1.094.416-2.434 0-1.323-.408-2.385-.4-1.07-1.217-1.69-.81-.63-2.034-.63-1.176 0-1.976.597-.8.588-1.21 1.65-.407 1.054-.408 2.458M242 158l-10-5.774v11.548zm-212 0v1h203v-2H30z"/></g><defs><clipPath id="a"><path fill="#fff" d="M0 0h300v200H0z"/></clipPath></defs></svg>