<svg xmlns="http://www.w3.org/2000/svg" width="300" height="200" fill="none" viewBox="0 0 300 200"><g clip-path="url(#a)"><path fill="#000" d="M0 0h300v200H0z"/><path fill="#fff" d="M71.983 19.589a1 1 0 0 0-1.32-.505l-8.146 3.702a1 1 0 0 0-.489 1.327 1 1 0 0 0 1.321.505l7.24-3.291 3.33 7.326a1 1 0 0 0 1.321.504 1 1 0 0 0 .489-1.327zM24.045 147.68l.934.357 47.034-127.68-.935-.357-.934-.357-47.033 127.68z"/><path stroke="#acacac" d="M69 19.5h208"/><path stroke="#6e6b6b" d="M0-.5h138.721" transform="matrix(.30891 -.9511 .94775 .31901 234.127 153)"/><path fill="#fff" d="M275.828 23.514a1 1 0 0 0-.613-1.275l-8.454-2.896a1 1 0 0 0-1.266.631 1 1 0 0 0 .613 1.275l7.515 2.574-2.611 7.621a1 1 0 0 0 .613 1.275 1 1 0 0 0 1.266-.631zM23 148.744l.433.901L275.322 24.093l-.433-.901-.434-.901L22.567 147.843zM125.712 174h-2.124l6.142-16.727h2.091L137.963 174h-2.124l-4.998-14.081h-.131zm.784-6.534h8.559v1.797h-8.559zM25.026 78V61.273h5.848q1.747 0 2.883.604 1.135.596 1.69 1.61.555 1.004.556 2.229 0 1.078-.384 1.78-.376.703-.996 1.111a4.5 4.5 0 0 1-1.332.605v.163q.768.049 1.544.54.776.489 1.298 1.404.523.915.523 2.238 0 1.258-.572 2.262-.57 1.004-1.805 1.593-1.233.588-3.21.588zm2.025-1.797h4.019q1.985 0 2.817-.768.842-.776.842-1.878 0-.85-.433-1.568a3.13 3.13 0 0 0-1.233-1.16q-.801-.441-1.895-.441H27.05zm0-7.58h3.757q.915 0 1.65-.359.744-.36 1.176-1.013.441-.653.441-1.535 0-1.103-.768-1.87-.767-.776-2.433-.776H27.05zM75.37 142.261q-1.568-.017-2.735-.849-1.17-.841-1.814-2.312t-.645-3.373q0-1.887.678-3.332.686-1.454 1.887-2.279 1.2-.825 2.76-.825 1.144 0 1.977.441a4.1 4.1 0 0 1 1.413 1.209q.588.776.988 1.781h.752l.294 2.973L82.558 142h-1.797l-1.535-6.305a14 14 0 0 0-.376-1.389 8.2 8.2 0 0 0-.678-1.544 3.9 3.9 0 0 0-1.086-1.241q-.654-.498-1.585-.498-.996 0-1.764.604-.768.605-1.2 1.674-.433 1.07-.433 2.459 0 1.356.408 2.442.408 1.079 1.144 1.707.734.621 1.715.621.906 0 1.576-.498.67-.507 1.127-1.266.457-.768.735-1.577a12 12 0 0 0 .417-1.429l1.372-6.305h1.797l-1.47 6.305-.294 3.071h-.654a7.3 7.3 0 0 1-1.062 1.797q-.628.775-1.51 1.209-.874.433-2.034.424"/><path fill="#fff" d="M235.687 149.707a1 1 0 0 0 0-1.414l-6.364-6.364a.999.999 0 1 0-1.414 1.414l5.657 5.657-5.657 5.657a1 1 0 0 0 1.414 1.414zM22.98 149v1h212v-2h-212z"/></g><defs><clipPath id="a"><path fill="#fff" d="M0 0h300v200H0z"/></clipPath></defs></svg>