<svg xmlns="http://www.w3.org/2000/svg" width="300" height="200" fill="none" viewBox="0 0 300 200"><g clip-path="url(#a)"><path fill="#000" d="M0 0h300v200H0z"/><path fill="#fff" d="m244.176 112 2.777-16.727h1.462l-1.078 6.575h.131q.335-.564.89-1.16.563-.597 1.388-.997.825-.408 1.977-.408 1.544 0 2.573.817 1.037.809 1.445 2.27.41 1.454.09 3.39-.326 1.944-1.217 3.406-.89 1.462-2.189 2.279a5.2 5.2 0 0 1-2.834.816q-1.143 0-1.846-.408-.693-.408-1.061-1.005a5 5 0 0 1-.523-1.176h-.18l-.392 2.328zm2.483-6.265q-.245 1.52 0 2.696.253 1.168.988 1.837.743.662 1.961.662 1.25 0 2.229-.686.989-.694 1.634-1.87a8.2 8.2 0 0 0 .898-2.639q.237-1.445-.008-2.605t-.988-1.838q-.744-.686-2.001-.686a3.85 3.85 0 0 0-2.205.662q-.972.653-1.618 1.813-.645 1.152-.89 2.654M126.345 181.286q-1.136 0-2.001-.441a2.9 2.9 0 0 1-1.29-1.291q-.417-.849-.229-2.058.164-.931.621-1.568.465-.637 1.176-1.046a6.4 6.4 0 0 1 1.633-.653 15 15 0 0 1 2.01-.359q1.061-.131 1.813-.229.751-.098 1.168-.31a.9.9 0 0 0 .498-.686l.049-.295q.213-1.281-.392-2.017-.604-.743-2.026-.743-1.356 0-2.352.604-.989.596-1.47 1.397l-1.291-.498q.588-1.03 1.446-1.642a5.7 5.7 0 0 1 1.838-.89 7 7 0 0 1 1.936-.278q.718 0 1.462.188.743.188 1.331.653.596.458.874 1.283.286.816.081 2.074L131.809 181h-1.454l.335-1.985h-.09q-.342.556-.947 1.078a4.9 4.9 0 0 1-1.429.858q-.834.335-1.879.335m.368-1.331q1.16 0 2.099-.515a4.5 4.5 0 0 0 1.552-1.364 4.5 4.5 0 0 0 .784-1.887l.302-1.813q-.18.156-.588.278a9 9 0 0 1-.907.22q-.498.09-1.004.155l-.882.115a9.3 9.3 0 0 0-1.895.408q-.8.278-1.283.768-.481.482-.604 1.241-.187 1.145.498 1.773.695.621 1.928.621"/><path fill="#f7ff0d" d="m142.176 72 2.777-16.727h5.399q1.78 0 2.867.637 1.094.637 1.511 1.772.425 1.128.188 2.597-.245 1.454-1.046 2.573a5.45 5.45 0 0 1-2.091 1.756q-1.298.63-3.063.63h-4.59l.237-1.397h4.549q1.315 0 2.255-.433a3.7 3.7 0 0 0 1.503-1.234q.563-.8.743-1.895.18-1.102-.123-1.919-.294-.816-1.094-1.266-.792-.45-2.116-.45h-3.83L143.703 72zm8.625-7.547L153.668 72h-1.756l-2.818-7.547z"/><path fill="#fff" d="m213 152-9.966-5.832-.067 11.547zm-172-1-.006 1 163 .948.006-1 .006-1-163-.948z"/><path fill="#fff" d="m258 29-9.115 7.089 10.696 4.35zm-50 122.957.926.377 46.61-114.62-.926-.377-.927-.377-46.609 114.621z"/><path fill="#f7ff0d" d="m258 29-11.546-.132 5.659 10.065zM41 151l.49.872 209.155-117.59-.49-.871-.49-.872L40.51 150.128z"/></g><defs><clipPath id="a"><path fill="#fff" d="M0 0h300v200H0z"/></clipPath></defs></svg>