<svg xmlns="http://www.w3.org/2000/svg" width="300" height="200" fill="none" viewBox="0 0 300 200"><g clip-path="url(#a)"><path fill="#000" d="M0 0h300v200H0z"/><path fill="#fff" d="m169.346 31-12.609 1.546 8.473 7.846zM65 99.16l.734.68 96.811-63.239-.734-.68-.734-.678-96.81 63.238z"/><path fill="#fff" d="m169.346 168-3.992-9.447-8.597 7.709zM65.451 97.912l-.744.668 96.433 65.054.745-.667.744-.668-96.433-65.054zM96.063 65.16V52.614h1.863v1.895h.13q.344-.93 1.242-1.51a3.65 3.65 0 0 1 2.025-.58q.213 0 .531.007.319.009.482.025v1.96a6 6 0 0 0-.449-.073 4.4 4.4 0 0 0-.727-.057q-.915 0-1.633.383-.711.376-1.128 1.046a2.8 2.8 0 0 0-.408 1.51v7.94zM101.275 150.278v-12.545h1.862v1.895h.131q.343-.932 1.241-1.511a3.65 3.65 0 0 1 2.026-.58q.213 0 .531.008t.482.024v1.961a6 6 0 0 0-.449-.074 4.4 4.4 0 0 0-.727-.057q-.915 0-1.634.384-.71.375-1.127 1.045a2.8 2.8 0 0 0-.408 1.511v7.939zM98.271 99.075v1.796H90.3v-1.796zm1.176-.196v1.992q0 2.565-.637 4.223t-1.797 2.459q-1.16.8-2.728.8t-2.744-.8q-1.176-.801-1.83-2.459-.653-1.658-.653-4.223v-1.992q0-2.549.645-4.174t1.813-2.401q1.169-.776 2.737-.776 1.585 0 2.752.776 1.168.775 1.805 2.4.637 1.627.637 4.175m-1.96 2.352v-2.712q0-1.682-.408-2.859-.409-1.176-1.136-1.788a2.54 2.54 0 0 0-1.69-.613q-1.422 0-2.344 1.372-.923 1.365-.923 3.888v2.712q0 2.523.939 3.961.94 1.43 2.36 1.429a2.44 2.44 0 0 0 1.683-.645q.718-.645 1.119-1.854.4-1.209.4-2.891"/><path stroke="#878484" stroke-dasharray="2 2" d="M0-.5h215.771" transform="matrix(.99994 -.01127 .01863 .99983 68.241 98.284)"/></g><defs><clipPath id="a"><path fill="#fff" d="M0 0h300v200H0z"/></clipPath></defs></svg>