<svg xmlns="http://www.w3.org/2000/svg" width="300" height="200" fill="none" viewBox="0 0 300 200"><g clip-path="url(#a)"><path fill="#000" d="M0 0h300v200H0z"/><path fill="#fff" d="M42.67 92h-2.227l12.33-23.273h2.272L59.649 92H57.42l-3.875-20.511h-.147zm3.091-8.92h11.546l-.318 1.909H45.443zM162.636 190l3.864-23.273h7.852q2.273 0 3.659.796 1.387.795 1.909 2.17.535 1.376.228 3.125-.239 1.455-.898 2.489a5.8 5.8 0 0 1-1.602 1.67 6.5 6.5 0 0 1-2.012.921l-.034.182q1.114.08 2.057.795.944.705 1.409 1.977.478 1.273.193 3.046a7.24 7.24 0 0 1-1.318 3.147q-1.01 1.376-2.773 2.171-1.75.784-4.25.784zm2.444-1.909h6.159q2.693 0 4.181-1.193 1.49-1.194 1.807-3 .216-1.33-.25-2.409-.466-1.091-1.522-1.728-1.058-.636-2.625-.636h-6.25zm1.818-10.852h5.92q1.375 0 2.5-.569a5.2 5.2 0 0 0 1.864-1.568 5.14 5.14 0 0 0 .943-2.284q.318-1.852-.693-3.011-1-1.17-3.398-1.171h-5.727z"/><path fill="#f7ff0d" d="M76.28 176.295v-.098q.016-1.56.326-2.483.311-.923.883-1.494a7 7 0 0 1 1.372-1.054q.482-.294.866-.694.383-.408.604-.939.228-.531.229-1.176 0-.801-.376-1.389a2.53 2.53 0 0 0-1.005-.907 3.05 3.05 0 0 0-1.396-.318q-.67 0-1.29.278-.622.277-1.038.874-.417.595-.482 1.56h-2.058q.065-1.389.718-2.377a4.3 4.3 0 0 1 1.74-1.511q1.087-.523 2.41-.523 1.437 0 2.499.572a4.1 4.1 0 0 1 1.65 1.568q.588.996.588 2.271 0 .898-.278 1.625-.269.727-.784 1.299a5.4 5.4 0 0 1-1.225 1.012q-.72.45-1.152.948a3 3 0 0 0-.629 1.168q-.195.678-.212 1.69v.098zm1.045 4.836q-.604 0-1.037-.433a1.42 1.42 0 0 1-.433-1.037q0-.605.433-1.038a1.42 1.42 0 0 1 1.037-.433q.605 0 1.038.433t.433 1.038q0 .399-.205.735-.195.335-.53.539-.328.195-.736.196"/><path fill="#fff" d="m264 154-10-5.774v11.548zm-228 0v1h219v-2H36z"/><path fill="#fff" d="m112 24-10.013 5.751 9.987 5.796zM36 154.957l.865.502 71.482-123.173-.864-.502-.865-.502-71.483 123.173z"/><path stroke="#fff" stroke-dasharray="4 4" stroke-width="2" d="M113 25v129"/><path fill="#f7ff0d" d="m115 154-10-5.773v11.547zm-79 0v1h70v-2H36z"/><path stroke="#fafafa" stroke-width="2" d="M45 139.5s6.902-.5 9.5 4 0 10.5 0 10.5"/><path fill="#fff" d="m77.352 128.739-.306 1.909H65.59l.307-1.909zm1.273-.307-.398 2.375q-.591 3.569-1.818 5.898-1.215 2.33-2.955 3.477-1.738 1.136-3.897 1.136-2.16 0-3.546-1.148t-1.852-3.477q-.465-2.33.125-5.886l.398-2.375q.602-3.546 1.818-5.841 1.216-2.307 2.954-3.421 1.74-1.125 3.898-1.125 2.17 0 3.557 1.125 1.386 1.114 1.841 3.421.466 2.295-.125 5.841m-2.523 2.716.523-3.046q.444-2.693.16-4.522-.274-1.83-1.217-2.75-.943-.932-2.443-.932-2.284 0-3.989 2.102-1.692 2.091-2.363 6.102l-.512 3.046q-.681 4.034.319 6.182 1 2.136 3.25 2.136 1.523 0 2.784-.966t2.147-2.83q.898-1.863 1.341-4.522"/></g><defs><clipPath id="a"><path fill="#fff" d="M0 0h300v200H0z"/></clipPath></defs></svg>