<svg xmlns="http://www.w3.org/2000/svg" width="300" height="200" fill="none" viewBox="0 0 300 200"><g clip-path="url(#a)"><path fill="#000" d="M0 0h300v200H0z"/><path fill="url(#b)" d="m94.858 37.272 129.879-1.93L164.9 145.955l-129.879 1.93z"/><path fill="url(#c)" d="m141.1 66.488 129.879-1.93-59.837 110.614-129.879 1.929z"/><path stroke="#7dc9ff" d="m36.267 147.577 46 29M95.267 37.577l46 29M224.267 35.577l46 29M164.267 145.577l46 29"/><path fill="#fff" d="m95 38-9.88 5.976 10.116 5.569zM35 147l.876.482 55.66-101.115-.876-.483-.876-.482-55.66 101.116z"/><path fill="#fff" d="m164 146-10-5.773v11.547zm-128 0v1h119v-2H36z"/><path fill="#fff" d="m84 177-5.268-10.275-6.265 9.7zm-48-31-.542.84 40.44 26.117.542-.84.542-.84-40.44-26.117zM45.358 86h-1.847l5.341-14.546h1.819L56.01 86h-1.846l-4.347-12.244h-.113zm.682-5.682h7.443v1.563H46.04zM45.466 165h-1.761a3.7 3.7 0 0 0-.547-1.335 3.6 3.6 0 0 0-.938-.966 4 4 0 0 0-1.214-.597 4.9 4.9 0 0 0-1.392-.199q-1.321 0-2.394.668-1.065.668-1.697 1.967-.625 1.3-.625 3.189t.625 3.189q.632 1.3 1.697 1.968a4.44 4.44 0 0 0 2.394.667q.724 0 1.392-.199t1.214-.589q.555-.398.938-.973.39-.583.547-1.335h1.76a5.9 5.9 0 0 1-.724 1.995 5.5 5.5 0 0 1-1.306 1.499 5.7 5.7 0 0 1-1.755.93 6.5 6.5 0 0 1-2.066.32q-1.86 0-3.31-.909-1.449-.91-2.28-2.585-.83-1.677-.83-3.978t.83-3.977 2.28-2.585q1.45-.909 3.31-.909a6.5 6.5 0 0 1 2.066.319 5.6 5.6 0 0 1 1.755.938q.78.61 1.306 1.491.525.874.725 1.996M76.761 139v-14.545h5.086q1.52 0 2.507.525.987.519 1.47 1.399.483.874.483 1.939 0 .938-.334 1.548-.327.612-.867.966a4 4 0 0 1-1.157.526v.142q.667.042 1.342.469.674.426 1.13 1.221.453.796.454 1.946 0 1.094-.497 1.968-.498.873-1.57 1.385-1.072.511-2.791.511zm1.762-1.562h3.494q1.725 0 2.45-.668.732-.674.732-1.634 0-.738-.377-1.363a2.7 2.7 0 0 0-1.072-1.009q-.696-.383-1.648-.383h-3.58zm0-6.591h3.267q.795 0 1.434-.313.647-.312 1.023-.881.384-.567.384-1.335 0-.958-.668-1.626-.667-.675-2.116-.675h-3.324z"/></g><defs><linearGradient id="b" x1="94.858" x2="160.781" y1="37.272" y2="148.399" gradientUnits="userSpaceOnUse"><stop stop-color="#8098f9"/><stop offset="1" stop-color="#4c5a93"/></linearGradient><linearGradient id="c" x1="141.1" x2="207.023" y1="66.488" y2="177.615" gradientUnits="userSpaceOnUse"><stop stop-color="#d9d9d9" stop-opacity=".47"/><stop offset="1" stop-color="#96ecff" stop-opacity=".59"/></linearGradient><clipPath id="a"><path fill="#fff" d="M0 0h300v200H0z"/></clipPath></defs></svg>