<svg xmlns="http://www.w3.org/2000/svg" width="300" height="200" fill="none" viewBox="0 0 300 200"><g clip-path="url(#a)"><path fill="#000" d="M0 0h300v200H0z"/><path fill="url(#b)" d="M78 32h206l-48 124.5H33z"/><path fill="#fff" d="m78.078 29-8.85 7.325 10.788 4.118zM31.045 156.68l.934.357L75.902 37.802l-.935-.357-.934-.356-43.922 119.234zM132.712 183h-2.124l6.142-16.727h2.091L144.963 183h-2.124l-4.998-14.081h-.131zm.784-6.534h8.559v1.797h-8.559zM32.026 87V70.273h5.848q1.747 0 2.883.604 1.135.596 1.69 1.61.555 1.004.556 2.229 0 1.078-.384 1.78-.376.703-.996 1.111a4.5 4.5 0 0 1-1.332.605v.163q.768.049 1.544.54.776.489 1.298 1.404.523.915.523 2.238 0 1.258-.572 2.262-.57 1.004-1.805 1.593-1.233.588-3.21.588zm2.025-1.797h4.019q1.985 0 2.817-.768.842-.776.842-1.878 0-.85-.433-1.568a3.13 3.13 0 0 0-1.233-1.16q-.801-.441-1.895-.441H34.05zm0-7.58h3.757q.915 0 1.65-.359.744-.36 1.176-1.013.441-.653.441-1.535 0-1.103-.768-1.87-.767-.776-2.433-.776H34.05z"/><path fill="#fff" d="m242 158-10-5.774v11.548zm-212 0v1h203v-2H30z"/></g><defs><linearGradient id="b" x1="129.75" x2="129.75" y1="40.5" y2="156.5" gradientUnits="userSpaceOnUse"><stop stop-color="#d9d9d9"/><stop offset="1" stop-color="#737373"/></linearGradient><clipPath id="a"><path fill="#fff" d="M0 0h300v200H0z"/></clipPath></defs></svg>