<svg xmlns="http://www.w3.org/2000/svg" width="300" height="200" fill="none" viewBox="0 0 300 200"><path fill="#000" d="M0 0h300v200H0z"/><path fill="#fff" d="m92 115-10-5.774v11.548zm-54 0v1h45v-2H38zM246 115l-10-5.774v11.548zm-54 0v1h45v-2h-45z"/><path fill="url(#a)" d="M112 49h56v131h-56z"/><path fill="#fff" d="M59.625 74.727 55.761 98h-2.125L57.5 74.727zm4.926 27.5q-1.534 0-2.602-.772-1.058-.761-1.511-2.126-.455-1.363-.16-3.158.296-1.773 1.17-3.114.888-1.341 2.183-2.091a5.63 5.63 0 0 1 2.852-.75q1.602 0 2.659.795 1.068.784 1.5 2.148.444 1.353.17 3.034-.283 1.785-1.17 3.136-.874 1.364-2.193 2.126-1.306.772-2.898.772m.17-1.488q1.08 0 1.955-.614.887-.614 1.477-1.66a6.8 6.8 0 0 0 .796-2.317q.194-1.228-.046-2.239-.238-1.023-.886-1.625t-1.704-.602q-1.034 0-1.91.614-.863.601-1.466 1.636a6.7 6.7 0 0 0-.795 2.295q-.216 1.296.023 2.307.238 1.023.886 1.614t1.67.591M216.852 91.33l.114-.705q.318-1.784.886-2.898a6.3 6.3 0 0 1 1.455-1.875 13 13 0 0 1 2.091-1.477 11.6 11.6 0 0 0 1.579-1.114 5.2 5.2 0 0 0 1.125-1.295 4.3 4.3 0 0 0 .58-1.66q.193-1.237-.216-2.147a3 3 0 0 0-1.284-1.42q-.864-.512-2.057-.512-1.16 0-2.239.512a5.2 5.2 0 0 0-1.863 1.465q-.785.967-1.068 2.342h-2.148q.363-1.876 1.466-3.25a7.6 7.6 0 0 1 2.693-2.137 7.9 7.9 0 0 1 3.398-.75q1.897 0 3.193.784 1.306.784 1.875 2.148.579 1.352.307 3.057-.194 1.227-.716 2.17a6.6 6.6 0 0 1-1.375 1.693q-.852.762-2.046 1.455-1.124.66-1.841 1.33a5 5 0 0 0-1.113 1.51q-.398.841-.614 2.069l-.125.704zm.205 6.84q-.682 0-1.148-.477a1.62 1.62 0 0 1-.454-1.159q0-.682.5-1.148a1.66 1.66 0 0 1 1.17-.465q.67 0 1.148.477t.454 1.136q-.011.455-.25.83-.227.363-.602.59a1.57 1.57 0 0 1-.818.217"/><path stroke="#000" stroke-width="2" d="M123 61v108M135 61v108M147 61v108M159 61v108"/><path fill="#fff" d="m103.023 36 2.415-14.545h4.694q1.548 0 2.493.589.945.59 1.3 1.605.362 1.016.149 2.294a5.55 5.55 0 0 1-.909 2.287 5 5 0 0 1-1.84 1.612q-1.135.597-2.67.597h-3.693l.199-1.193h3.657q1.143 0 1.968-.426a3.53 3.53 0 0 0 1.328-1.18 4.3 4.3 0 0 0 .653-1.697q.156-.959-.099-1.704a2.1 2.1 0 0 0-.938-1.165q-.681-.426-1.832-.426h-3.331L104.351 36zm16.41.227q-1.435 0-2.415-.724-.98-.732-1.385-2.024t-.135-2.983q.27-1.649 1.072-2.898.81-1.258 1.989-1.953a4.9 4.9 0 0 1 2.564-.703q1.442 0 2.415.731.98.732 1.385 2.024.412 1.293.142 2.99-.27 1.641-1.08 2.891-.81 1.243-1.989 1.946a4.9 4.9 0 0 1-2.563.703m.014-1.157q1.164 0 2.074-.618a5 5 0 0 0 1.512-1.662q.597-1.044.803-2.294.192-1.194-.043-2.195t-.902-1.605q-.668-.603-1.775-.604-1.158 0-2.074.632-.916.625-1.513 1.677a6.7 6.7 0 0 0-.795 2.287q-.199 1.2.028 2.194.234.994.902 1.591.675.597 1.783.597m11.191-13.615L128.223 36h-1.264l2.415-14.545zm3.949 14.794q-.987 0-1.74-.384a2.52 2.52 0 0 1-1.122-1.122q-.363-.739-.199-1.79.142-.81.54-1.364.405-.553 1.022-.909.618-.361 1.421-.568a13 13 0 0 1 1.747-.312 222 222 0 0 0 1.577-.2q.653-.084 1.015-.269a.78.78 0 0 0 .434-.597l.042-.255q.185-1.115-.341-1.755-.525-.646-1.761-.646-1.179 0-2.046.526-.859.518-1.278 1.214l-1.122-.433q.512-.896 1.257-1.428a5 5 0 0 1 1.598-.774 6.2 6.2 0 0 1 1.683-.241q.626 0 1.272.163.645.163 1.157.568.519.398.76 1.115.25.71.071 1.804L139.338 36h-1.264l.291-1.726h-.078a4.1 4.1 0 0 1-.824.938q-.518.454-1.242.745a4.4 4.4 0 0 1-1.634.292m.32-1.158q1.008 0 1.825-.447a3.9 3.9 0 0 0 1.349-1.187 3.9 3.9 0 0 0 .682-1.64l.263-1.577q-.156.135-.511.242a8 8 0 0 1-.789.191q-.433.078-.873.135l-.767.1a8 8 0 0 0-1.648.355q-.696.24-1.115.667-.42.42-.526 1.08-.163.995.433 1.541.605.54 1.677.54m7.794.909 1.819-10.91h1.228l-.284 1.677h.092q.455-.825 1.357-1.328a3.9 3.9 0 0 1 1.939-.511q.156 0 .348.007.192 0 .32.014l-.221 1.285q-.085-.014-.298-.042a3.4 3.4 0 0 0-.462-.029q-.852 0-1.576.363a3.4 3.4 0 0 0-1.208.987q-.483.632-.625 1.441L143.966 36zm7.163 0 1.818-10.91h1.271L151.135 36zm2.912-12.805a.93.93 0 0 1-.675-.27.87.87 0 0 1-.263-.654.89.89 0 0 1 .292-.625.94.94 0 0 1 .667-.27.92.92 0 0 1 .675.277q.277.27.263.654a.85.85 0 0 1-.291.625.95.95 0 0 1-.668.263m10.453 4.29-1.215.312a2.5 2.5 0 0 0-.341-.88 1.65 1.65 0 0 0-.703-.626q-.455-.234-1.193-.234-1.108 0-1.911.54-.802.533-.937 1.363-.114.695.291 1.13.412.433 1.378.681l1.591.405q1.321.341 1.882 1.066.568.723.391 1.832a3.22 3.22 0 0 1-.789 1.633q-.624.711-1.605 1.115-.972.405-2.173.405-1.612 0-2.536-.724-.915-.725-.98-2.088l1.272-.284q.056.965.66 1.463.61.497 1.719.497 1.264 0 2.123-.575.86-.576.988-1.42.12-.669-.249-1.109-.362-.44-1.236-.653l-1.697-.426q-1.37-.349-1.939-1.087-.561-.745-.377-1.84.15-.901.753-1.583.605-.682 1.527-1.066a5.1 5.1 0 0 1 2.017-.39q1.506 0 2.294.682.788.675.995 1.86m5.886 8.742q-1.527 0-2.522-.71-.993-.717-1.392-1.982-.398-1.27-.12-2.926.276-1.648 1.093-2.926.817-1.285 2.017-2.01a4.9 4.9 0 0 1 2.607-.731 4.2 4.2 0 0 1 1.662.326q.774.32 1.314.988.546.66.76 1.669.213 1-.014 2.372l-.1.625h-8.523l.178-1.115h7.237q.178-1.05-.099-1.89a2.62 2.62 0 0 0-.945-1.328q-.66-.497-1.641-.497-1 0-1.896.561a5.15 5.15 0 0 0-1.506 1.463 4.85 4.85 0 0 0-.788 1.911l-.142.838q-.227 1.385.057 2.323.284.93 1.03 1.406t1.91.476q.781 0 1.414-.242a3.7 3.7 0 0 0 1.1-.646q.47-.413.753-.902l1.13.39a4.5 4.5 0 0 1-1.023 1.272q-.654.582-1.556.937-.894.348-1.995.348m7.239-.227 1.818-10.91h1.229l-.285 1.677h.093q.455-.825 1.356-1.328a3.9 3.9 0 0 1 1.939-.511q.156 0 .348.007.192 0 .32.014l-.22 1.285q-.086-.014-.299-.042a3.4 3.4 0 0 0-.461-.029 3.48 3.48 0 0 0-2.784 1.35 3.26 3.26 0 0 0-.625 1.441L177.618 36z"/><defs><linearGradient id="a" x1="140" x2="140" y1="49" y2="180" gradientUnits="userSpaceOnUse"><stop stop-color="#d9d9d9"/><stop offset="1" stop-color="#737373"/></linearGradient></defs></svg>