<svg xmlns="http://www.w3.org/2000/svg" width="300" height="200" fill="none" viewBox="0 0 300 200"><path fill="#000" d="M0 0h300v200H0z"/><path fill="url(#a)" d="M0 101h300v99H0z" opacity=".8"/><path fill="#000" d="m56.09 158.625 4-24.08h2.035L60.33 145.33q-.24 1.453.215 2.568.466 1.102 1.49 1.738 1.02.625 2.5.625 1.488 0 2.715-.636a5.85 5.85 0 0 0 3.102-4.295l1.796-10.785h2.034L71.272 152H69.24l.454-2.648h-.114a6.34 6.34 0 0 1-2.352 2.125q-1.431.75-3.011.75-1.568 0-2.761-.784-1.182-.784-1.648-2.204h-.114l-1.568 9.386z"/><path fill="#fff" d="m132.929 74 2.182-13.09h1.525L134.455 74zm3.494-15.367q-.477 0-.809-.323a1.04 1.04 0 0 1-.316-.784q.017-.435.35-.75.34-.324.801-.324.477 0 .81.332.331.324.315.784-.009.435-.35.75a1.14 1.14 0 0 1-.801.316"/><path stroke="#fff" stroke-width="2" d="M137 90.333s1-3 5-6 8.5 0 8.5 0"/><path stroke="#fff" stroke-dasharray="5 5" d="M150.5 48v104"/><path stroke="#fff" stroke-width="2" d="m53.585 30.189 97 70M246.415 31.19l-97 69.999M199.142 182.513l-49-82"/><path fill="#fff" d="m97 62-4.202-10.755-7.213 9.016zM184 76l-11.464 1.381 6.928 9.238zM178 148l.692-11.526-10.328 5.164z"/><defs><linearGradient id="a" x1="150" x2="150" y1="101" y2="200" gradientUnits="userSpaceOnUse"><stop stop-color="#8df4ff"/><stop offset="1" stop-color="#559299"/></linearGradient></defs></svg>