<svg xmlns="http://www.w3.org/2000/svg" width="300" height="200" fill="none" viewBox="0 0 300 200"><path fill="#000" d="M0 0h300v200H0z"/><path fill="url(#a)" stroke="#fff" d="M232.5 15.5h58v172h-58z"/><path fill="url(#b)" d="M48 26 67 5v172l-19 21z"/><path fill="#000" d="M50 70.256 65 53v8.744L50 79zM50 138.256 65 121v8.744L50 147z"/><path stroke="#fff" stroke-width="2" d="M58 99h220"/><path fill="#fff" d="M85.717 8.169q.05-1.278-.76-2.003-.802-.724-2.251-.724-1.008 0-1.847.355a3.7 3.7 0 0 0-1.37.959 2.76 2.76 0 0 0-.66 1.392q-.093.575.084 1.008.178.426.547.739.37.312.845.533.484.22.98.369l1.47.44q.655.192 1.3.49.647.3 1.151.746.504.447.746 1.1.248.654.1 1.563a4.5 4.5 0 0 1-.953 2.11q-.745.923-1.96 1.463t-2.805.54q-1.485 0-2.5-.49-1.016-.498-1.499-1.371-.483-.874-.37-2.024h1.364q-.077.86.32 1.456.405.596 1.15.909.754.305 1.734.305 1.087 0 1.995-.362a4 4 0 0 0 1.499-1.023 2.95 2.95 0 0 0 .739-1.534q.128-.739-.178-1.243-.298-.504-.93-.845a7.6 7.6 0 0 0-1.492-.61l-1.662-.512q-1.626-.498-2.422-1.4-.788-.901-.56-2.3a4.13 4.13 0 0 1 .972-2.067 5.3 5.3 0 0 1 1.94-1.392 6.3 6.3 0 0 1 2.5-.497q1.356 0 2.308.504.958.504 1.42 1.392.468.88.348 2.024zm6.3-3.714L89.602 19h-1.264l2.415-14.545zM92.962 19 94.78 8.09h1.271L94.233 19zm2.912-12.805a.93.93 0 0 1-.675-.27.87.87 0 0 1-.263-.654.88.88 0 0 1 .291-.625q.284-.27.668-.27.397 0 .675.277.277.27.262.654a.85.85 0 0 1-.29.625.95.95 0 0 1-.668.263m7.817 1.896-.177 1.1h-5.213l.184-1.1zm-3.153-2.614h1.271l-1.775 10.675q-.114.681.057 1.072.17.384.525.547.355.157.781.157.249 0 .427-.029.185-.036.326-.07l.093 1.143q-.207.071-.491.127a3 3 0 0 1-.681.064q-.696 0-1.286-.305a2.03 2.03 0 0 1-.895-.91q-.305-.603-.163-1.498zm12.761 5.007-1.214.313a2.5 2.5 0 0 0-.341-.88 1.65 1.65 0 0 0-.704-.626q-.454-.234-1.193-.234-1.107 0-1.91.54-.803.533-.938 1.363-.112.695.291 1.13.412.433 1.378.681l1.591.405q1.321.34 1.882 1.066.568.723.391 1.832a3.2 3.2 0 0 1-.788 1.633q-.625.711-1.606 1.115-.972.405-2.173.405-1.613 0-2.535-.724-.917-.725-.98-2.088l1.271-.284q.057.965.66 1.463.612.497 1.719.497 1.264 0 2.124-.575.86-.576.987-1.42.12-.668-.249-1.109-.362-.44-1.235-.653l-1.698-.426q-1.37-.348-1.939-1.087-.56-.745-.376-1.84a3.1 3.1 0 0 1 .753-1.583q.603-.682 1.527-1.066a5.1 5.1 0 0 1 2.017-.39q1.505 0 2.294.682.788.675.994 1.86M89.875 182.091l-.178 1.101h-5.213l.185-1.101zm-3.153-2.614h1.27l-1.775 10.675q-.112.682.057 1.072.17.384.526.547.355.157.781.157.249 0 .426-.029.185-.035.327-.071l.092 1.144q-.205.071-.49.127-.285.064-.682.064-.696 0-1.285-.305a2.03 2.03 0 0 1-.895-.909q-.306-.604-.163-1.499z"/><path fill="#f2efb2" d="M170.717 8.169q.05-1.278-.76-2.003-.802-.724-2.251-.724a4.7 4.7 0 0 0-1.847.355 3.7 3.7 0 0 0-1.37.959 2.76 2.76 0 0 0-.661 1.392q-.092.575.085 1.008.178.426.547.739.37.312.845.533.483.22.981.369l1.47.44q.653.192 1.299.49.647.3 1.151.746.504.447.746 1.1.248.654.099 1.563a4.5 4.5 0 0 1-.952 2.11q-.745.923-1.96 1.463t-2.805.54q-1.485 0-2.5-.49-1.016-.498-1.499-1.371-.483-.874-.369-2.024h1.364q-.079.86.319 1.456.405.596 1.151.909.752.305 1.733.305 1.086 0 1.995-.362a4 4 0 0 0 1.499-1.023q.597-.66.739-1.534.128-.739-.178-1.243-.298-.504-.93-.845a7.6 7.6 0 0 0-1.492-.61l-1.662-.512q-1.626-.498-2.422-1.4-.787-.901-.561-2.3a4.13 4.13 0 0 1 .973-2.067 5.3 5.3 0 0 1 1.939-1.392 6.3 6.3 0 0 1 2.5-.497q1.357 0 2.308.504.96.504 1.421 1.392.468.88.348 2.024zm6.854 11.058q-1.478 0-2.436-.731-.959-.732-1.342-2.003-.377-1.278-.107-2.898.27-1.647 1.087-2.919.817-1.278 2.017-2.003a5 5 0 0 1 2.635-.731q1.101 0 1.917.426.817.42 1.265 1.186.447.76.426 1.775h-1.279a2.36 2.36 0 0 0-.689-1.59q-.632-.647-1.789-.647-1.059 0-1.961.569-.901.56-1.527 1.57-.618 1-.831 2.322-.227 1.328.043 2.35.27 1.017.966 1.591.704.576 1.775.576.732 0 1.378-.27a3.6 3.6 0 0 0 1.144-.782q.497-.51.76-1.2h1.278a4.8 4.8 0 0 1-1.008 1.761 4.908 4.908 0 0 1-3.722 1.648m6.9-.227 1.818-10.91h1.229l-.284 1.677h.092q.454-.825 1.357-1.328a3.9 3.9 0 0 1 1.938-.511q.157 0 .348.007.192 0 .32.014l-.22 1.285q-.085-.014-.298-.042a3.4 3.4 0 0 0-.462-.029 3.48 3.48 0 0 0-2.784 1.35q-.483.632-.625 1.441L185.735 19zm11.198.227q-1.527 0-2.521-.71-.995-.717-1.392-1.982-.397-1.27-.121-2.926.278-1.647 1.094-2.926.817-1.285 2.017-2.01a4.9 4.9 0 0 1 2.607-.731q.887 0 1.662.326.774.32 1.313.988.547.66.76 1.669.214 1-.014 2.372l-.099.625h-8.523l.178-1.115h7.237q.177-1.05-.1-1.89a2.6 2.6 0 0 0-.944-1.328q-.66-.496-1.641-.497-1.001 0-1.896.561a5.15 5.15 0 0 0-1.506 1.463 4.8 4.8 0 0 0-.788 1.911l-.142.838q-.228 1.384.057 2.323.283.93 1.029 1.406t1.911.476q.782 0 1.413-.242a3.7 3.7 0 0 0 1.101-.646q.47-.412.753-.902l1.129.39q-.362.69-1.022 1.272-.654.582-1.556.937-.894.348-1.996.348m11.621 0q-1.527 0-2.521-.71-.995-.717-1.392-1.982-.397-1.27-.121-2.926.278-1.647 1.094-2.926.817-1.285 2.017-2.01a4.9 4.9 0 0 1 2.607-.731 4.2 4.2 0 0 1 1.662.326q.774.32 1.314.988.546.66.76 1.669.213 1-.015 2.372l-.099.625h-8.523l.178-1.115h7.237q.177-1.05-.1-1.89a2.6 2.6 0 0 0-.944-1.328q-.66-.496-1.641-.497-1 0-1.896.561a5.15 5.15 0 0 0-1.506 1.463 4.8 4.8 0 0 0-.788 1.911l-.142.838q-.228 1.384.057 2.323.283.93 1.03 1.406.746.476 1.91.476.781 0 1.413-.242a3.7 3.7 0 0 0 1.101-.646q.47-.412.753-.902l1.129.39q-.362.69-1.022 1.272-.653.582-1.556.937-.894.348-1.996.348m9.633-7.045L215.794 19h-1.265l1.819-10.91h1.228l-.284 1.713h.114a3.8 3.8 0 0 1 1.413-1.343q.909-.51 2.11-.511 1.093 0 1.846.462.76.454 1.08 1.342.326.888.113 2.18L222.782 19h-1.264l1.165-6.989q.22-1.335-.391-2.116-.603-.788-1.868-.788-.859 0-1.598.369a3.4 3.4 0 0 0-1.235 1.065q-.505.69-.668 1.64"/><path fill="#000" d="m82.057 156.141 2.5-15.05h1.271l-1.122 6.74q-.15.909.135 1.605.291.689.93 1.087.639.39 1.563.39.93 0 1.697-.397a3.66 3.66 0 0 0 1.94-2.685l1.121-6.74h1.272L91.545 152h-1.27l.283-1.655h-.07a3.96 3.96 0 0 1-1.471 1.328 4 4 0 0 1-1.882.469q-.98 0-1.726-.49a2.56 2.56 0 0 1-1.03-1.378h-.07l-.98 5.867z"/><path fill="#fff" d="m73 173 5 2.887v-5.774zm28 0-5-2.887v5.774zm-23.5 0v.5h19v-1h-19z"/><path fill="#d4168f" d="m262 95-9.083-7.13-1.633 11.431zM59.141 65.01a1 1 0 1 0-.282 1.98L59 66zM253.09 93.727l.142-.99L59.142 65.01 59 66l-.141.99 194.09 27.727zM262 107l-9.083 7.13-1.633-11.431zM59.141 136.99a1 1 0 0 1-.282-1.98L59 136zm193.949-28.717.142.99-194.09 27.727L59 136l-.141-.99 194.09-27.727z"/><path fill="url(#c)" d="M73 104h28v61H73z" opacity=".8"/><path fill="#000" d="m77.09 155.625 4-24.08h2.035l-1.796 10.785q-.238 1.453.217 2.568.465 1.102 1.488 1.738 1.023.625 2.5.625 1.489 0 2.716-.636a5.85 5.85 0 0 0 3.102-4.295l1.796-10.785h2.034L92.272 149H90.24l.454-2.648h-.114a6.34 6.34 0 0 1-2.352 2.125q-1.431.75-3.011.75-1.568 0-2.761-.784-1.182-.784-1.648-2.204h-.114l-1.568 9.386z"/><defs><linearGradient id="a" x1="261.5" x2="261.5" y1="24.276" y2="173.158" gradientUnits="userSpaceOnUse"><stop stop-color="#474700"/><stop offset=".154" stop-color="#f2efb2"/><stop offset=".317" stop-color="#474700"/><stop offset=".5" stop-color="#f2efb2"/><stop offset=".678" stop-color="#474700"/><stop offset=".837" stop-color="#f2efb2"/><stop offset="1" stop-color="#474700"/></linearGradient><linearGradient id="b" x1="57.5" x2="57.5" y1="5" y2="198" gradientUnits="userSpaceOnUse"><stop stop-color="#ebe9e9"/><stop offset="1" stop-color="#7d7d7d"/></linearGradient><linearGradient id="c" x1="86.508" x2="85.073" y1="104" y2="178.326" gradientUnits="userSpaceOnUse"><stop stop-color="#aafcff"/><stop offset=".341" stop-color="#41c1c5"/><stop offset=".654" stop-color="#aafcff"/><stop offset="1" stop-color="#49ebf0"/></linearGradient></defs></svg>