<svg xmlns="http://www.w3.org/2000/svg" width="300" height="200" fill="none" viewBox="0 0 300 200"><g clip-path="url(#a)"><path fill="#000" d="M0 0h300v200H0z"/><path fill="#fff" d="m125.25 76.91-.213 1.32h-6.256l.222-1.32zm-3.784-3.137h1.525l-2.13 12.81q-.136.818.068 1.286.204.46.631.657a2.3 2.3 0 0 0 .937.187q.298 0 .512-.034.22-.043.392-.085l.11 1.372q-.246.086-.588.153-.34.078-.818.077a3.3 3.3 0 0 1-1.543-.367 2.43 2.43 0 0 1-1.073-1.09q-.367-.725-.196-1.799zM127.707 93l1.5-9.034h-.086l-2.906 1.73.247-1.415 2.915-1.747h1.432L129.07 93zM158.25 100.909l-.213 1.321h-6.256l.222-1.321zm-3.784-3.136h1.525l-2.13 12.809q-.136.819.068 1.287.204.46.631.657a2.3 2.3 0 0 0 .937.187q.298 0 .512-.034.22-.043.392-.085l.11 1.372a4.4 4.4 0 0 1-.588.153q-.34.077-.818.077a3.3 3.3 0 0 1-1.543-.366 2.44 2.44 0 0 1-1.073-1.091q-.367-.725-.196-1.799zm3.82 19.227.154-1.023 4.534-3.673q.809-.648 1.321-1.134.52-.485.792-.903.273-.426.341-.895.137-.818-.409-1.329-.537-.512-1.5-.512-.98 0-1.721.554-.733.555-.87 1.415h-1.38q.22-1.338 1.355-2.216 1.142-.886 2.744-.886 1.066 0 1.798.4.743.4 1.074 1.091.333.682.196 1.534a3.4 3.4 0 0 1-.434 1.193q-.324.555-.989 1.202a27 27 0 0 1-1.773 1.526l-3.008 2.429v.059h5.565l-.188 1.168z"/><path fill="url(#b)" d="M97 3h53v55H97z" opacity=".8"/><path fill="#fff" d="M4.67 56H2.443l12.33-23.273h2.273L21.648 56H19.42l-3.875-20.511h-.148zm3.091-8.92h11.546l-.318 1.909H7.443zM277.636 57l3.864-23.273h7.852q2.273 0 3.659.796 1.387.795 1.909 2.17.535 1.376.228 3.125-.239 1.455-.898 2.489a5.8 5.8 0 0 1-1.602 1.67 6.5 6.5 0 0 1-2.012.92l-.034.183q1.114.08 2.057.795.944.705 1.409 1.977.477 1.273.193 3.046a7.24 7.24 0 0 1-1.318 3.147q-1.01 1.375-2.773 2.17-1.75.785-4.25.785zm2.444-1.91h6.159q2.693 0 4.181-1.192 1.49-1.194 1.807-3 .216-1.33-.25-2.41a3.66 3.66 0 0 0-1.522-1.727q-1.057-.636-2.625-.636h-6.25zm1.818-10.851h5.92q1.375 0 2.5-.569a5.2 5.2 0 0 0 1.864-1.568 5.15 5.15 0 0 0 .943-2.284q.318-1.852-.693-3.011-1-1.17-3.398-1.17h-5.727zM97 67l10 5.773V61.228zm53 0-10-5.773v11.547zm-44 0v1h35v-2h-35zM97 123l10 5.774v-11.548zm119 0-10-5.774v11.548zm-110 0v1h101v-2H106z"/><path fill="#000" d="m115.091 36.625 4-24.08h2.034L119.33 23.33q-.24 1.454.215 2.568a3.7 3.7 0 0 0 1.489 1.738q1.023.625 2.5.625 1.49 0 2.716-.636a5.852 5.852 0 0 0 3.102-4.296l1.796-10.783h2.034L130.273 30h-2.034l.454-2.648h-.113a6.35 6.35 0 0 1-2.353 2.125 6.4 6.4 0 0 1-3.011.75q-1.569 0-2.761-.784-1.183-.784-1.648-2.204h-.114l-1.568 9.386zM137.088 34l2-12.045h-.114l-3.875 2.306.33-1.886 3.886-2.33h1.909L138.906 34z"/><path fill="url(#c)" d="M97 133h119v57H97z" opacity=".8"/><path fill="#000" d="m141.091 170.625 4-24.08h2.034l-1.795 10.785q-.24 1.453.215 2.568a3.7 3.7 0 0 0 1.489 1.738q1.023.625 2.5.625 1.49 0 2.716-.636a5.851 5.851 0 0 0 3.102-4.295l1.796-10.785h2.034L156.273 164h-2.034l.454-2.648h-.113a6.35 6.35 0 0 1-2.353 2.125 6.4 6.4 0 0 1-3.011.75q-1.569 0-2.761-.784-1.183-.784-1.648-2.204h-.114l-1.568 9.386zm18.77-2.625.204-1.364 6.046-4.897a28 28 0 0 0 1.761-1.512q.694-.648 1.057-1.204.363-.569.455-1.193.181-1.092-.546-1.773-.716-.682-2-.682-1.306 0-2.295.739-.978.738-1.159 1.886h-1.841q.296-1.784 1.806-2.955 1.523-1.18 3.66-1.181 1.42 0 2.397.534.989.534 1.432 1.454.444.909.261 2.046a4.5 4.5 0 0 1-.579 1.591q-.432.738-1.318 1.602-.886.852-2.364 2.034l-4.011 3.239v.079h7.42l-.25 1.557z"/><path fill="#d4168f" d="m272 44-10-5.773v11.547zM26.5 43a1 1 0 1 0 0 2v-2M263 44v-1H26.5v2H263zM271 178l-10-5.774v11.548zm-246.5-1a1 1 0 0 0 0 2v-2m237.5 1v-1H24.5v2H262z"/><path fill="#fff" d="m274.636 189 3.864-23.273h7.852q2.273 0 3.659.796 1.387.795 1.909 2.17.535 1.376.228 3.125-.239 1.455-.898 2.489a5.8 5.8 0 0 1-1.602 1.67 6.5 6.5 0 0 1-2.012.921l-.034.182q1.114.08 2.057.795.944.705 1.409 1.977.477 1.273.193 3.046a7.24 7.24 0 0 1-1.318 3.147q-1.01 1.376-2.773 2.171-1.75.784-4.25.784zm2.444-1.909h6.159q2.693 0 4.181-1.193 1.49-1.194 1.807-3 .216-1.33-.25-2.409-.466-1.091-1.522-1.728-1.057-.636-2.625-.636h-6.25zm1.818-10.852h5.92q1.375 0 2.5-.569a5.2 5.2 0 0 0 1.864-1.568 5.14 5.14 0 0 0 .943-2.284q.318-1.852-.693-3.011-1-1.17-3.398-1.171h-5.727zM1.67 188H-.557l12.33-23.273h2.273L18.648 188H16.42l-3.875-20.511h-.148zm3.091-8.92h11.546l-.318 1.909H4.443z"/></g><defs><linearGradient id="b" x1="122.569" x2="121.952" y1="3" y2="70.034" gradientUnits="userSpaceOnUse"><stop stop-color="#aafcff"/><stop offset=".341" stop-color="#41c1c5"/><stop offset=".654" stop-color="#aafcff"/><stop offset="1" stop-color="#49ebf0"/></linearGradient><linearGradient id="c" x1="154.409" x2="154.114" y1="133" y2="202.477" gradientUnits="userSpaceOnUse"><stop stop-color="#9bffa7"/><stop offset=".341" stop-color="#4ef253"/><stop offset=".654" stop-color="#9bffa7"/><stop offset="1" stop-color="#4ef253"/></linearGradient><clipPath id="a"><path fill="#fff" d="M0 0h300v200H0z"/></clipPath></defs></svg>