<svg xmlns="http://www.w3.org/2000/svg" width="300" height="200" fill="none" viewBox="0 0 300 200"><path fill="#000" d="M0 0h300v200H0z"/><path fill="#fff" d="m85 38.546-.284 1.76h-8.341l.296-1.76zm-5.046-4.182h2.035l-2.841 17.08q-.181 1.09.09 1.715.274.614.841.875.57.25 1.25.25.399 0 .682-.045.296-.057.523-.114l.148 1.83q-.33.113-.784.204a5 5 0 0 1-1.091.102 4.4 4.4 0 0 1-2.057-.488 3.24 3.24 0 0 1-1.432-1.455q-.489-.966-.261-2.398z"/><path fill="url(#a)" d="M54 77h53v70H54z" opacity=".8"/><path fill="#eaf63c" d="M24.67 138h-2.227l12.33-23.273h2.272L41.649 138H39.42l-3.875-20.511h-.147zm3.091-8.92h11.546l-.318 1.909H27.443zM115.636 138l3.864-23.273h7.852q2.273 0 3.659.796 1.387.796 1.909 2.17.535 1.376.228 3.125-.239 1.454-.898 2.489a5.8 5.8 0 0 1-1.602 1.67 6.5 6.5 0 0 1-2.012.921l-.034.182q1.114.08 2.057.795.944.705 1.409 1.977.477 1.273.193 3.046a7.24 7.24 0 0 1-1.318 3.147q-1.01 1.376-2.773 2.171-1.75.784-4.25.784zm2.444-1.909h6.159q2.693 0 4.181-1.193 1.49-1.194 1.807-3 .216-1.33-.25-2.409-.466-1.091-1.522-1.728-1.057-.636-2.625-.636h-6.25zm1.818-10.852h5.92q1.375 0 2.5-.569a5.2 5.2 0 0 0 1.864-1.568 5.14 5.14 0 0 0 .943-2.284q.318-1.852-.693-3.011-1-1.17-3.398-1.171h-5.727z"/><path fill="#fff" d="m54 67 10 5.773V61.228zm53 0-10-5.773v11.547zm-44 0v1h35v-2H63zM235 38.546l-.284 1.76h-8.341l.295-1.76zm-5.045-4.182h2.034l-2.841 17.08q-.182 1.09.091 1.715.272.614.841.875.567.25 1.25.25.397 0 .681-.045.296-.057.523-.114l.148 1.83q-.33.113-.784.204a5 5 0 0 1-1.091.102 4.4 4.4 0 0 1-2.057-.488 3.25 3.25 0 0 1-1.432-1.455q-.489-.966-.261-2.398zM204 67l10 5.773V61.228zm53 0-10-5.773v11.547zm-44 0v1h35v-2h-35z"/><path fill="#000" d="m69.09 109.625 4-24.08h2.035L73.329 96.33q-.238 1.455.217 2.569.465 1.102 1.488 1.738 1.023.625 2.5.625 1.489 0 2.716-.636a5.86 5.86 0 0 0 3.102-4.296l1.796-10.783h2.034L84.272 103H82.24l.454-2.648h-.114a6.34 6.34 0 0 1-2.352 2.125q-1.431.75-3.011.75-1.568 0-2.761-.784-1.182-.784-1.648-2.204h-.114l-1.568 9.386zM91.089 107l2-12.046h-.114L89.1 97.262l.33-1.886 3.886-2.33h1.91L92.905 107z"/><path fill="url(#b)" d="M204 77h53v70h-53z" opacity=".8"/><path fill="#000" d="m219.091 109.625 4-24.08h2.034L223.33 96.33q-.24 1.455.215 2.569a3.7 3.7 0 0 0 1.489 1.738q1.023.625 2.5.625 1.49 0 2.716-.636a5.852 5.852 0 0 0 3.102-4.296l1.796-10.783h2.034L234.273 103h-2.034l.454-2.648h-.113a6.35 6.35 0 0 1-2.353 2.125 6.4 6.4 0 0 1-3.011.75q-1.569 0-2.761-.784-1.183-.784-1.648-2.204h-.114l-1.568 9.386zm18.77-2.625.204-1.364 6.046-4.897a28 28 0 0 0 1.761-1.512q.693-.647 1.057-1.204a3 3 0 0 0 .455-1.194q.181-1.09-.546-1.772-.716-.682-2-.682-1.306 0-2.295.739-.978.738-1.159 1.886h-1.841q.296-1.785 1.806-2.954 1.523-1.182 3.66-1.182 1.42 0 2.397.534.989.534 1.432 1.454.444.909.261 2.046-.136.84-.579 1.59-.432.74-1.318 1.603-.886.852-2.364 2.034l-4.011 3.239v.079h7.42l-.25 1.557z"/><path fill="#d4168f" d="m107 123-10-5.774v11.548zm-52-1a1 1 0 0 0 0 2v-2m43 1v-1H55v2h43zM257 127l-10-5.774v11.548zm-52-1a1 1 0 0 0 0 2v-2m43 1v-1h-43v2h43z"/><path fill="#eaf63c" d="m265.636 134 3.864-23.273h7.852q2.273 0 3.659.796 1.387.796 1.909 2.17.535 1.376.228 3.125-.239 1.454-.898 2.489a5.8 5.8 0 0 1-1.602 1.67 6.5 6.5 0 0 1-2.012.921l-.034.182q1.114.08 2.057.795.944.705 1.409 1.977.477 1.273.193 3.046a7.24 7.24 0 0 1-1.318 3.147q-1.01 1.376-2.773 2.171-1.75.784-4.25.784zm2.444-1.909h6.159q2.693 0 4.181-1.193 1.49-1.194 1.807-3 .216-1.33-.25-2.409-.466-1.091-1.522-1.728-1.057-.636-2.625-.636h-6.25zm1.818-10.852h5.92q1.375 0 2.5-.569a5.2 5.2 0 0 0 1.864-1.568 5.14 5.14 0 0 0 .943-2.284q.318-1.852-.693-3.011-1-1.17-3.398-1.171h-5.727zM174.67 135h-2.227l12.33-23.273h2.272L191.648 135h-2.228l-3.875-20.511h-.147zm3.091-8.92h11.546l-.318 1.909h-11.546z"/><defs><linearGradient id="a" x1="79.569" x2="78.57" y1="77" y2="162.312" gradientUnits="userSpaceOnUse"><stop stop-color="#aafcff"/><stop offset=".341" stop-color="#41c1c5"/><stop offset=".654" stop-color="#aafcff"/><stop offset="1" stop-color="#49ebf0"/></linearGradient><linearGradient id="b" x1="229.569" x2="228.57" y1="77" y2="162.312" gradientUnits="userSpaceOnUse"><stop stop-color="#9bffa7"/><stop offset=".341" stop-color="#4ef253"/><stop offset=".654" stop-color="#9bffa7"/><stop offset="1" stop-color="#4ef253"/></linearGradient></defs></svg>