<svg xmlns="http://www.w3.org/2000/svg" width="300" height="200" fill="none" viewBox="0 0 300 200"><path fill="#000" d="M0 0h300v200H0z"/><path fill="url(#a)" d="M0 101h300v99H0z" opacity=".8"/><path fill="#000" d="m21.09 158.625 4-24.08h2.035l-1.796 10.785q-.239 1.453.216 2.568.466 1.102 1.49 1.738 1.02.625 2.5.625 1.487 0 2.715-.636a5.85 5.85 0 0 0 3.102-4.295l1.796-10.785h2.034L36.272 152H34.24l.454-2.648h-.113a6.34 6.34 0 0 1-2.353 2.125q-1.431.75-3.011.75-1.569 0-2.762-.784-1.181-.784-1.647-2.204h-.114l-1.568 9.386z"/><path fill="#fff" d="m131.929 141 2.182-13.091h1.525L133.455 141zm3.494-15.366q-.477 0-.809-.324a1.04 1.04 0 0 1-.316-.784q.017-.435.35-.75.34-.324.801-.324.477 0 .81.332.331.324.315.784-.009.435-.35.75t-.801.316"/><path stroke="#fff" stroke-width="2" d="M137 111s1 3 5 6 8.5 0 8.5 0"/><path stroke="#fff" stroke-dasharray="5 5" d="M150.5 48v104"/><path stroke="#fff" stroke-width="2" d="m53.585 170.81 97-69.999M246.415 170.811l-97-70M274.283 65.959l-122 36"/><path fill="#fff" d="m106 133-4.202 10.755-7.213-9.016zM197 135l-11.464-1.381 6.928-9.238zM233 84.202l7.422-8.845-11.371-2.005z"/><defs><linearGradient id="a" x1="150" x2="150" y1="101" y2="200" gradientUnits="userSpaceOnUse"><stop stop-color="#8df4ff"/><stop offset="1" stop-color="#559299"/></linearGradient></defs></svg>