<svg xmlns="http://www.w3.org/2000/svg" width="300" height="200" fill="none" viewBox="0 0 300 200"><path fill="#000" d="M0 0h300v200H0z"/><path fill="url(#a)" d="M0 101h300v99H0z" opacity=".8"/><path fill="#000" d="m56.09 158.625 4-24.08h2.035L60.33 145.33q-.24 1.453.215 2.568.466 1.102 1.49 1.738 1.02.625 2.5.625 1.488 0 2.715-.636a5.85 5.85 0 0 0 3.102-4.295l1.796-10.785h2.034L71.272 152H69.24l.454-2.648h-.114a6.34 6.34 0 0 1-2.352 2.125q-1.431.75-3.011.75-1.568 0-2.761-.784-1.182-.784-1.648-2.204h-.114l-1.568 9.386z"/><path fill="#fff" d="m132.929 74 2.182-13.09h1.525L134.455 74zm3.494-15.367q-.477 0-.809-.323a1.04 1.04 0 0 1-.316-.784q.017-.435.35-.75.34-.324.801-.324.477 0 .81.332.331.324.315.784-.009.435-.35.75a1.14 1.14 0 0 1-.801.316"/><path fill="#eaf63c" d="m173.852 121.33.114-.705q.318-1.784.886-2.898a6.3 6.3 0 0 1 1.455-1.875 13 13 0 0 1 2.091-1.477 11.5 11.5 0 0 0 1.579-1.114 5.2 5.2 0 0 0 1.125-1.295q.444-.716.58-1.659.193-1.239-.216-2.148a3 3 0 0 0-1.284-1.42q-.864-.512-2.057-.512-1.16 0-2.239.512a5.2 5.2 0 0 0-1.863 1.466q-.785.965-1.068 2.34h-2.148q.363-1.875 1.466-3.25a7.6 7.6 0 0 1 2.693-2.136 7.9 7.9 0 0 1 3.398-.75q1.897 0 3.193.784 1.306.784 1.875 2.148.579 1.352.307 3.057-.194 1.227-.716 2.17a6.6 6.6 0 0 1-1.375 1.693 12.4 12.4 0 0 1-2.046 1.455q-1.124.658-1.841 1.329-.704.66-1.113 1.512-.398.84-.614 2.068l-.125.705zm.205 6.84q-.682 0-1.148-.477a1.62 1.62 0 0 1-.454-1.159q0-.681.5-1.148t1.17-.466q.67 0 1.148.478.477.477.454 1.136-.011.455-.25.83a1.8 1.8 0 0 1-.602.591 1.6 1.6 0 0 1-.818.215"/><path stroke="#fff" stroke-width="2" d="M137 90.333s1-3 5-6 8.5 0 8.5 0"/><path stroke="#eaf63c" stroke-width="2" d="M157.556 111.209s4.047-2.401 7.106-8.44c3.06-6.04-2.799-10.307-2.799-10.307"/><path stroke="#fff" stroke-dasharray="5 5" d="M150.5 48v104"/><path stroke="#fff" stroke-width="2" d="m53.585 30.189 97 70M246.415 31.19l-97 69.999M199.142 182.513l-49-82"/><path fill="#fff" d="m97 62-4.202-10.755-7.213 9.016zM184 76l-11.464 1.381 6.928 9.238zM178 148l.692-11.526-10.328 5.164z"/><defs><linearGradient id="a" x1="150" x2="150" y1="101" y2="200" gradientUnits="userSpaceOnUse"><stop stop-color="#8df4ff"/><stop offset="1" stop-color="#559299"/></linearGradient></defs></svg>