<svg xmlns="http://www.w3.org/2000/svg" width="300" height="200" fill="none" viewBox="0 0 300 200"><path fill="#000" d="M0 0h300v200H0z"/><path fill="#fff" d="m54 114-10-5.774v11.548zm-54 0v1h45v-2H0zM300 114l-10-5.774v11.548zm-54 0v1h45v-2h-45zM172 114l-10-5.774v11.548zm-54 0v1h45v-2h-45zM233.352 32.739l-.307 1.909h-11.454l.307-1.91zm1.273-.307-.398 2.375q-.591 3.568-1.818 5.898-1.216 2.33-2.954 3.477-1.74 1.136-3.898 1.136-2.16 0-3.546-1.148t-1.852-3.477.125-5.886l.398-2.375q.602-3.545 1.818-5.841 1.216-2.307 2.955-3.42 1.738-1.125 3.897-1.125 2.17 0 3.557 1.125 1.386 1.113 1.841 3.42.466 2.295-.125 5.84m-2.523 2.716.523-3.046q.443-2.693.159-4.522-.273-1.83-1.216-2.75-.943-.933-2.443-.932-2.284 0-3.989 2.102-1.692 2.091-2.363 6.102l-.512 3.046q-.681 4.034.319 6.182 1 2.136 3.25 2.136 1.522 0 2.784-.966t2.147-2.83q.898-1.863 1.341-4.522"/><path fill="url(#a)" d="M68 65h42v98H68z"/><path fill="#fff" d="M21.625 73.727 17.761 97h-2.125L19.5 73.727zm4.926 27.5q-1.534 0-2.602-.772-1.057-.761-1.512-2.126-.455-1.363-.159-3.158.296-1.773 1.17-3.114.887-1.341 2.183-2.091a5.63 5.63 0 0 1 2.852-.75q1.602 0 2.659.795 1.068.784 1.5 2.148.443 1.353.17 3.034-.284 1.785-1.17 3.136-.874 1.364-2.193 2.126-1.306.772-2.898.772m.17-1.488q1.08 0 1.955-.614.887-.614 1.477-1.66a6.8 6.8 0 0 0 .796-2.317q.193-1.228-.046-2.239-.238-1.023-.886-1.625t-1.704-.602q-1.035 0-1.91.614-.863.601-1.465 1.636a6.7 6.7 0 0 0-.796 2.295q-.216 1.296.023 2.307.238 1.023.886 1.614.648.59 1.67.59M270.852 90.33l.114-.705q.318-1.784.886-2.898a6.3 6.3 0 0 1 1.455-1.875 13 13 0 0 1 2.091-1.477 11.6 11.6 0 0 0 1.579-1.114 5.2 5.2 0 0 0 1.125-1.295 4.3 4.3 0 0 0 .58-1.66q.194-1.237-.216-2.147a3 3 0 0 0-1.284-1.42q-.864-.512-2.057-.512-1.16 0-2.239.512a5.2 5.2 0 0 0-1.863 1.465q-.785.967-1.068 2.342h-2.148q.363-1.876 1.466-3.25a7.6 7.6 0 0 1 2.693-2.137 7.9 7.9 0 0 1 3.398-.75q1.897 0 3.193.784 1.306.784 1.875 2.148.579 1.352.307 3.057-.194 1.227-.716 2.17a6.6 6.6 0 0 1-1.375 1.693q-.852.762-2.046 1.455-1.125.66-1.841 1.33a5 5 0 0 0-1.113 1.51q-.398.841-.614 2.069l-.125.704zm.205 6.84q-.682 0-1.148-.477a1.62 1.62 0 0 1-.454-1.159q0-.682.5-1.148a1.66 1.66 0 0 1 1.17-.465q.67 0 1.148.477t.454 1.136q-.011.455-.25.83-.227.363-.602.59a1.57 1.57 0 0 1-.818.217"/><path stroke="#000" stroke-width="2" d="M76 74v81M85 74v81M94 74v81M103 74v81"/><path fill="#fff" d="m55.023 195 2.414-14.545h4.695q1.548 0 2.493.589.945.59 1.3 1.605.361 1.016.149 2.294a5.6 5.6 0 0 1-.91 2.287 5 5 0 0 1-1.839 1.612q-1.135.597-2.67.597h-3.693l.198-1.193h3.658q1.144 0 1.968-.426a3.5 3.5 0 0 0 1.328-1.179 4.3 4.3 0 0 0 .653-1.698q.156-.958-.1-1.704a2.1 2.1 0 0 0-.937-1.165q-.681-.426-1.832-.426h-3.331L56.35 195zm16.41.227q-1.435 0-2.415-.724-.98-.732-1.385-2.024t-.135-2.983q.27-1.648 1.072-2.898.81-1.257 1.989-1.953a4.9 4.9 0 0 1 2.564-.703q1.442 0 2.415.731.98.732 1.385 2.024.412 1.293.142 2.991-.27 1.64-1.08 2.89-.81 1.243-1.989 1.946a4.9 4.9 0 0 1-2.563.703m.014-1.157q1.165 0 2.074-.618a5 5 0 0 0 1.512-1.662 6.8 6.8 0 0 0 .803-2.294q.192-1.194-.043-2.195t-.902-1.605-1.775-.604q-1.158 0-2.074.632-.915.625-1.513 1.677a6.7 6.7 0 0 0-.795 2.287q-.199 1.2.028 2.194.234.994.902 1.591.675.597 1.783.597m11.191-13.615L80.223 195H78.96l2.415-14.545zm3.949 14.794q-.987 0-1.74-.384a2.5 2.5 0 0 1-1.122-1.122q-.363-.739-.2-1.79.143-.81.54-1.364a3.3 3.3 0 0 1 1.023-.909q.618-.361 1.42-.568a13 13 0 0 1 1.748-.312 227 227 0 0 0 1.577-.199q.653-.085 1.015-.27a.78.78 0 0 0 .434-.597l.042-.255q.185-1.115-.34-1.755-.526-.645-1.762-.646-1.18 0-2.045.526-.86.518-1.279 1.214l-1.122-.433q.51-.896 1.257-1.428a5 5 0 0 1 1.598-.774 6.2 6.2 0 0 1 1.683-.241q.625 0 1.272.163.645.163 1.157.568.52.398.76 1.115.25.71.071 1.804L91.338 195h-1.264l.291-1.726h-.078a4.1 4.1 0 0 1-.824.938 4.3 4.3 0 0 1-2.876 1.037m.32-1.158q1.008 0 1.825-.448.824-.447 1.35-1.186a3.9 3.9 0 0 0 .681-1.64l.263-1.577q-.157.135-.511.242a8 8 0 0 1-.789.191q-.434.078-.873.135l-.767.1a8 8 0 0 0-1.648.355q-.696.241-1.115.667-.42.42-.526 1.08-.163.995.434 1.541.603.54 1.676.54M94.7 195l1.819-10.909h1.228l-.284 1.676h.093q.454-.824 1.356-1.328a3.9 3.9 0 0 1 1.939-.511q.156 0 .348.007.192 0 .32.014l-.221 1.285-.298-.042a3.4 3.4 0 0 0-.462-.029 3.5 3.5 0 0 0-1.576.363q-.717.354-1.208.987-.483.632-.625 1.442L95.966 195zm7.163 0 1.818-10.909h1.271L103.135 195zm2.912-12.805a.93.93 0 0 1-.675-.27.87.87 0 0 1-.263-.654.89.89 0 0 1 .292-.625.94.94 0 0 1 .667-.27q.398 0 .675.277.277.27.263.654a.85.85 0 0 1-.291.625.95.95 0 0 1-.668.263m10.453 4.289-1.215.313a2.5 2.5 0 0 0-.341-.881 1.65 1.65 0 0 0-.703-.625q-.455-.234-1.193-.234-1.108 0-1.911.54-.802.532-.937 1.363-.114.696.291 1.129.412.434 1.378.682l1.591.405q1.321.341 1.882 1.065.568.725.391 1.833a3.2 3.2 0 0 1-.789 1.633q-.624.711-1.605 1.115-.972.405-2.173.405-1.612 0-2.536-.724-.915-.724-.98-2.088l1.272-.284q.056.966.66 1.463.61.497 1.719.497 1.264 0 2.123-.575.86-.576.988-1.421.12-.667-.249-1.108-.362-.44-1.236-.653l-1.697-.426q-1.37-.349-1.939-1.087-.561-.746-.377-1.839.15-.903.753-1.584.605-.682 1.527-1.066a5.1 5.1 0 0 1 2.017-.39q1.506 0 2.294.682.788.674.995 1.86m5.886 8.743q-1.527 0-2.522-.71-.993-.718-1.392-1.981-.397-1.272-.12-2.927.277-1.647 1.093-2.926.817-1.285 2.017-2.01a4.93 4.93 0 0 1 2.607-.731q.888 0 1.662.326.774.32 1.314.988.546.66.76 1.669.213 1-.014 2.372l-.1.625h-8.523l.178-1.115h7.237q.178-1.052-.099-1.889a2.62 2.62 0 0 0-.945-1.329q-.66-.497-1.641-.497-1 0-1.896.561a5.15 5.15 0 0 0-1.506 1.463 4.85 4.85 0 0 0-.788 1.911l-.142.838q-.227 1.384.057 2.323.284.93 1.03 1.406t1.91.476q.781 0 1.414-.242a3.7 3.7 0 0 0 1.1-.646q.47-.412.753-.902l1.13.39q-.363.69-1.023 1.272a5.1 5.1 0 0 1-1.556.937q-.894.348-1.995.348m7.239-.227 1.818-10.909h1.229l-.285 1.676h.093q.454-.824 1.356-1.328a3.9 3.9 0 0 1 1.939-.511q.156 0 .348.007.192 0 .32.014l-.22 1.285-.299-.042a3 3 0 0 0-.461-.029q-.852 0-1.577.363a3.4 3.4 0 0 0-1.207.987 3.26 3.26 0 0 0-.625 1.442L129.618 195z"/><path fill="url(#b)" d="M215.351 74h40v94h-40z" transform="rotate(39.944 215.351 74)"/><path stroke="#000" stroke-width="2" d="M215.706 86.036 166.27 145.07M222.606 91.815l-49.437 59.034M228.74 96.951l-49.437 59.034M235.64 102.729l-49.437 59.034"/><path fill="#eaf63c" d="M166.044 195h-1.392l7.706-14.545h1.42L176.655 195h-1.392l-2.422-12.82h-.092zm1.932-5.575h7.216l-.199 1.193h-7.216zm13.302-1.243L180.149 195h-1.264l1.818-10.909h1.229l-.284 1.712h.113a3.8 3.8 0 0 1 1.414-1.343q.909-.511 2.109-.511 1.094 0 1.847.462.76.454 1.079 1.342.327.887.114 2.18L187.138 195h-1.264l1.164-6.989q.22-1.335-.39-2.116-.604-.788-1.868-.788-.86 0-1.598.369-.732.369-1.236 1.065-.504.688-.668 1.641m12.207 7.067q-.987 0-1.74-.384a2.5 2.5 0 0 1-1.122-1.122q-.362-.739-.199-1.79.143-.81.54-1.364a3.3 3.3 0 0 1 1.023-.909q.618-.361 1.42-.568a13 13 0 0 1 1.747-.312q.924-.114 1.577-.199.654-.085 1.016-.27a.78.78 0 0 0 .433-.597l.043-.255q.184-1.115-.341-1.755-.526-.645-1.762-.646-1.179 0-2.045.526-.86.518-1.278 1.214l-1.123-.433q.512-.896 1.257-1.428a5 5 0 0 1 1.598-.774 6.2 6.2 0 0 1 1.684-.241q.624 0 1.271.163t1.158.568q.518.398.76 1.115.248.71.071 1.804L198.237 195h-1.264l.291-1.726h-.078a4.1 4.1 0 0 1-.824.938 4.3 4.3 0 0 1-2.877 1.037m.32-1.158q1.009 0 1.825-.448.824-.447 1.35-1.186a3.9 3.9 0 0 0 .682-1.64l.262-1.577q-.156.135-.511.242a8 8 0 0 1-.788.191q-.433.078-.874.135l-.767.1a8 8 0 0 0-1.648.355q-.696.241-1.115.667-.419.42-.525 1.08-.164.995.433 1.541.603.54 1.676.54m11.474-13.636L202.864 195H201.6l2.415-14.545zm1.143 18.636q-.377 0-.696-.071a2.5 2.5 0 0 1-.49-.156l.533-1.115q.596.206 1.094.127.504-.07.958-.483.455-.412.895-1.228l.597-1.108-2.159-10.966h1.314l1.704 9.261h.093l4.779-9.261h1.428l-6.712 12.621q-.433.817-.959 1.342-.517.525-1.122.781a3.1 3.1 0 0 1-1.257.256m19.455-12.607-1.214.313a2.5 2.5 0 0 0-.341-.881 1.66 1.66 0 0 0-.703-.625q-.455-.234-1.194-.234-1.107 0-1.91.54-.803.532-.938 1.363-.113.696.292 1.129.412.434 1.377.682l1.591.405q1.321.341 1.882 1.065.568.725.391 1.833a3.2 3.2 0 0 1-.788 1.633q-.625.711-1.605 1.115-.973.405-2.174.405-1.612 0-2.535-.724-.917-.724-.98-2.088l1.271-.284q.057.966.661 1.463.61.497 1.718.497 1.264 0 2.124-.575.86-.576.987-1.421.121-.667-.249-1.108-.362-.44-1.235-.653l-1.698-.426q-1.37-.349-1.939-1.087-.56-.746-.376-1.839.148-.903.753-1.584.603-.682 1.527-1.066a5.1 5.1 0 0 1 2.017-.39q1.505 0 2.294.682.788.674.994 1.86m5.886 8.743q-1.527 0-2.521-.71-.995-.718-1.392-1.981-.398-1.272-.121-2.927.277-1.647 1.094-2.926.817-1.285 2.017-2.01a4.9 4.9 0 0 1 2.606-.731q.888 0 1.662.326.774.32 1.314.988.547.66.76 1.669.213 1-.014 2.372l-.099.625h-8.523l.177-1.115h7.238q.177-1.052-.1-1.889a2.62 2.62 0 0 0-.944-1.329q-.662-.497-1.641-.497-1.002 0-1.896.561a5.15 5.15 0 0 0-1.506 1.463 4.8 4.8 0 0 0-.788 1.911l-.142.838q-.228 1.384.056 2.323.285.93 1.03 1.406t1.911.476a3.9 3.9 0 0 0 1.413-.242 3.7 3.7 0 0 0 1.101-.646q.468-.412.753-.902l1.129.39q-.362.69-1.023 1.272a5.1 5.1 0 0 1-1.555.937q-.895.348-1.996.348m7.239-.227 1.818-10.909h1.229l-.284 1.676h.092q.454-.824 1.357-1.328a3.9 3.9 0 0 1 1.939-.511q.156 0 .348.007.192 0 .319.014l-.22 1.285-.298-.042a3.4 3.4 0 0 0-.462-.029q-.852 0-1.577.363-.717.354-1.207.987-.483.632-.625 1.442L240.266 195z"/><path stroke="#fff" stroke-dasharray="5 5" d="M215.5 74V11M215.602 73.698l38-50"/><defs><linearGradient id="a" x1="89" x2="89" y1="65" y2="163" gradientUnits="userSpaceOnUse"><stop stop-color="#d9d9d9"/><stop offset="1" stop-color="#737373"/></linearGradient><linearGradient id="b" x1="235.351" x2="235.351" y1="74" y2="168" gradientUnits="userSpaceOnUse"><stop stop-color="#eaf63c"/><stop offset="1" stop-color="#899023"/></linearGradient></defs></svg>