<svg xmlns="http://www.w3.org/2000/svg" width="300" height="200" fill="none" viewBox="0 0 300 200"><g clip-path="url(#a)"><path fill="#000" d="M0 0h300v200H0z"/><path fill="#fff" d="m150 179.545-.284 1.762h-8.341l.295-1.762zm-5.045-4.181h2.034l-2.841 17.079q-.182 1.09.091 1.716.272.614.841.875.567.25 1.25.25.397 0 .681-.045.296-.057.523-.114l.148 1.83q-.33.113-.784.204a5 5 0 0 1-1.091.102 4.4 4.4 0 0 1-2.057-.488 3.25 3.25 0 0 1-1.432-1.455q-.489-.966-.261-2.398z"/><path fill="url(#b)" d="M113 15h65v141h-65z" opacity=".8"/><path fill="#eaf63c" d="M83.67 118h-2.227l12.33-23.273h2.273L100.648 118h-2.227l-3.876-20.511h-.147zm3.091-8.92h11.546l-.318 1.909H86.443zM192.636 118l3.864-23.273h7.852q2.273 0 3.659.796 1.387.796 1.909 2.17.535 1.376.228 3.125-.239 1.454-.898 2.489a5.8 5.8 0 0 1-1.602 1.67 6.5 6.5 0 0 1-2.012.921l-.034.182q1.114.08 2.057.795.944.705 1.409 1.977.478 1.273.193 3.046a7.24 7.24 0 0 1-1.318 3.147q-1.01 1.376-2.773 2.171-1.75.784-4.25.784zm2.444-1.909h6.159q2.693 0 4.181-1.193 1.49-1.194 1.807-3 .216-1.33-.25-2.409-.466-1.091-1.522-1.728-1.058-.636-2.625-.636h-6.25zm1.818-10.852h5.92q1.375 0 2.5-.569a5.2 5.2 0 0 0 1.864-1.568 5.14 5.14 0 0 0 .943-2.284q.318-1.853-.693-3.011-1-1.17-3.398-1.17h-5.727z"/><path fill="#fff" d="m113 166 10 5.774v-11.548zm65 0-10-5.773v11.547zm-56 0v1h47v-2h-47z"/><path fill="#000" d="m135.091 63.625 4-24.08h2.034L139.33 50.33q-.24 1.454.215 2.568a3.7 3.7 0 0 0 1.489 1.738q1.023.625 2.5.625 1.49 0 2.716-.636a5.852 5.852 0 0 0 3.102-4.295l1.796-10.785h2.034L150.273 57h-2.034l.454-2.648h-.113a6.35 6.35 0 0 1-2.353 2.125 6.4 6.4 0 0 1-3.011.75q-1.569 0-2.761-.784-1.183-.784-1.648-2.204h-.114l-1.568 9.386z"/><path fill="#d4168f" d="m259 84-10-5.773v11.546zM30 83a1 1 0 1 0 0 2v-2m220 1v-1H30v2h220z"/><circle cx="112.5" cy="83.5" r="3.5" fill="#eaf63c"/><circle cx="177.5" cy="84.5" r="3.5" fill="#eaf63c"/></g><defs><linearGradient id="b" x1="144.358" x2="141.056" y1="15" y2="186.803" gradientUnits="userSpaceOnUse"><stop stop-color="#aafcff"/><stop offset=".341" stop-color="#41c1c5"/><stop offset=".654" stop-color="#aafcff"/><stop offset="1" stop-color="#49ebf0"/></linearGradient><clipPath id="a"><path fill="#fff" d="M0 0h300v200H0z"/></clipPath></defs></svg>