<svg xmlns="http://www.w3.org/2000/svg" width="300" height="200" fill="none" viewBox="0 0 300 200"><path fill="#000" d="M0 0h300v200H0z"/><path fill="#fff" d="m286 101-5-2.887v5.774zm-273 0v.5h268.5v-1H13z"/><path fill="#fff" d="m73 9-2.887 5h5.774zm0 187h.5V13.5h-1V196zM281.008 123.584V124h-2.976v-.416l.816-.096a1 1 0 0 0 .24-.048q.096-.032.192-.176.112-.144.304-.464l2.544-4.128-2.464-4.352a4 4 0 0 0-.272-.448q-.08-.144-.176-.176a.6.6 0 0 0-.24-.064l-.816-.08v-.432h3.888v.432l-.832.08q-.24.032-.256.128 0 .096.256.56l1.872 3.312 2.048-3.312q.288-.464.288-.56t-.256-.128l-.816-.08v-.432h2.976v.432l-.816.08a.8.8 0 0 0-.256.064q-.08.032-.176.176a10 10 0 0 0-.304.448l-2.384 3.856 2.624 4.624.256.464a.7.7 0 0 0 .176.176q.096.032.256.048l.832.096V124h-3.888v-.416l.832-.096q.256-.032.256-.112.016-.096-.256-.576l-2.048-3.6-2.208 3.6q-.288.464-.288.56t.256.128zM92.64 19.584V20h-3.856v-.416l.88-.096q.255-.032.304-.128t.048-.656V15.36l-2.576-5.04a3 3 0 0 0-.256-.448q-.08-.144-.176-.176a.6.6 0 0 0-.256-.064l-.816-.08V9.12h3.872v.432l-.816.08q-.24.032-.256.128 0 .096.224.56l2.176 4.368 2.224-4.368q.24-.464.224-.56t-.256-.128l-.816-.08V9.12h2.96v.432l-.832.08a.8.8 0 0 0-.256.064q-.08.032-.176.176a6 6 0 0 0-.24.448l-2.56 5.008v3.376q0 .56.048.656t.304.128z"/><path stroke="#fff126" stroke-width="2" d="M278 21c-51.044 4.264-205 18.003-205 79s134.197 70.889 205 79"/><circle cx="93.5" cy="134.5" r="4.5" fill="#8af3ff"/><circle cx="164.5" cy="36.5" r="4.5" fill="#8af3ff"/><path stroke="#8af3ff" stroke-width="2" d="m93.335 134.253 138-122.999M163.97 37.756l38 151"/><circle cx="171.5" cy="65.5" r="4.5" fill="#fd3d63"/><path fill="#fd3d63" d="M196.12 77.32h-.94v-.44q0-.9.26-1.44.28-.56.68-.96l.8-.84q.4-.44.66-1.06.28-.64.28-1.68 0-1.54-.56-2.3t-1.6-.76q-1.32 0-1.84 1-.52.98-.32 2.82l-1.64-.32q-.18-1.08.16-2.02.36-.94 1.28-1.52.92-.6 2.38-.6 1.42 0 2.3.5t1.28 1.3q.4.78.4 1.68 0 .92-.3 1.54-.28.6-.72 1.04-.44.42-.94.76-.48.34-.9.72-.4.36-.64.86-.22.5-.14 1.26zm-.5 3.88q-.5 0-.82-.32-.3-.32-.3-.82t.3-.8q.32-.32.82-.32t.82.32q.32.3.32.8t-.32.82-.82.32"/></svg>