<svg xmlns="http://www.w3.org/2000/svg" width="300" height="200" fill="none" viewBox="0 0 300 200"><path fill="#000" d="M0 0h300v200H0z"/><path fill="#fff" d="m286 101-5-2.887v5.774zm-273 0v.5h268.5v-1H13z"/><path fill="#fff" d="m73 9-2.887 5h5.774zm0 187h.5V13.5h-1V196zM281.008 123.584V124h-2.976v-.416l.816-.096a1 1 0 0 0 .24-.048q.096-.032.192-.176.112-.144.304-.464l2.544-4.128-2.464-4.352a4 4 0 0 0-.272-.448q-.08-.144-.176-.176a.6.6 0 0 0-.24-.064l-.816-.08v-.432h3.888v.432l-.832.08q-.24.032-.256.128 0 .096.256.56l1.872 3.312 2.048-3.312q.288-.464.288-.56t-.256-.128l-.816-.08v-.432h2.976v.432l-.816.08a.8.8 0 0 0-.256.064q-.08.032-.176.176a10 10 0 0 0-.304.448l-2.384 3.856 2.624 4.624.256.464a.7.7 0 0 0 .176.176q.096.032.256.048l.832.096V124h-3.888v-.416l.832-.096q.256-.032.256-.112.016-.096-.256-.576l-2.048-3.6-2.208 3.6q-.288.464-.288.56t.256.128zM92.64 19.584V20h-3.856v-.416l.88-.096q.255-.032.304-.128t.048-.656V15.36l-2.576-5.04a3 3 0 0 0-.256-.448q-.08-.144-.176-.176a.6.6 0 0 0-.256-.064l-.816-.08V9.12h3.872v.432l-.816.08q-.24.032-.256.128 0 .096.224.56l2.176 4.368 2.224-4.368q.24-.464.224-.56t-.256-.128l-.816-.08V9.12h2.96v.432l-.832.08a.8.8 0 0 0-.256.064q-.08.032-.176.176a6 6 0 0 0-.24.448l-2.56 5.008v3.376q0 .56.048.656t.304.128z"/><circle cx="131.5" cy="100.5" r="4.5" fill="#8af3ff"/><path stroke="#fff126" stroke-width="2" d="M278 21c-51.044 4.264-205 18.003-205 79s134.197 70.889 205 79"/><circle cx="207.5" cy="28.5" r="4.5" fill="#fd3d63"/><path fill="#fd3d63" d="M186.12 80.32h-.94v-.44q0-.9.26-1.44.28-.56.68-.96l.8-.84q.4-.44.66-1.06.28-.64.28-1.68 0-1.54-.56-2.3t-1.6-.76q-1.32 0-1.84 1-.52.98-.32 2.82l-1.64-.32q-.18-1.08.16-2.02.36-.94 1.28-1.52.92-.6 2.38-.6 1.42 0 2.3.5t1.28 1.3q.4.78.4 1.68 0 .92-.3 1.54-.28.6-.72 1.04-.44.42-.94.76-.48.34-.9.72-.4.36-.64.86-.22.5-.14 1.26zm-.5 3.88q-.5 0-.82-.32-.3-.32-.3-.82t.3-.8q.32-.32.82-.32t.82.32q.32.3.32.8t-.32.82-.82.32M203 33l-5.62 1.322 3.955 4.206zm-67 63 5.62-1.322-3.955-4.206zm63.722-59.917-.343-.365-60.443 56.835.342.364.343.365 60.443-56.835zM213.136 47.52v-.592q0-2 .88-3.712.896-1.711 2.672-3.216l.368.384q-1.376 1.296-1.952 2.992a11.3 11.3 0 0 0-.56 3.552v.592q0 1.84.56 3.552.576 1.696 1.952 2.992l-.368.384q-1.776-1.505-2.672-3.216a8.06 8.06 0 0 1-.88-3.712m13.631 4.064V52h-3.776v-.416l.88-.096q.256-.032.304-.128t.048-.656V46.72q0-1.184-.384-1.664-.384-.496-1.088-.496-.544 0-1.184.32t-1.2 1.264v4.56q0 .56.048.656t.304.128l.88.096V52h-3.776v-.416l.88-.096q.256-.032.304-.128t.048-.656v-9.248q0-.56-.048-.656t-.304-.128l-.88-.08v-.432h2.544v5.136q.56-.72 1.28-1.04.72-.336 1.424-.336 1.183 0 1.824.736.64.72.64 2.048v4q0 .56.048.656t.304.128zm3.318-.112q0 .72-.48 1.68-.465.96-1.296 1.936l-.352-.288q.656-.8.944-1.472.287-.656.32-1.168h-.016a.84.84 0 0 1-.624-.24.84.84 0 0 1-.24-.624q0-.384.24-.624t.624-.24.624.272q.255.256.256.768m1.629-10.88v-.432h2.544v8.192l3.024-3.072q.463-.465.496-.56.031-.096-.24-.128l-.816-.08v-.432h3.088v.432l-.816.08a.83.83 0 0 0-.496.24q-.144.128-.464.448l-1.76 1.776 2.352 3.744q.208.32.304.464a.7.7 0 0 0 .208.176q.096.031.256.048l.832.096V52h-2.416l-2.432-4.032-1.12 1.136v1.6q0 .56.048.656t.304.128l.88.096V52h-3.776v-.416l.88-.096q.255-.032.304-.128t.048-.656v-9.248q0-.56-.048-.656-.049-.096-.304-.128zm12.776 6.336v.592a7.95 7.95 0 0 1-.896 3.712q-.88 1.712-2.656 3.216l-.368-.384q1.376-1.296 1.936-2.992.56-1.712.56-3.552v-.592q0-1.856-.56-3.552t-1.936-2.992l.368-.384q1.776 1.505 2.656 3.216a7.9 7.9 0 0 1 .896 3.712"/><path fill="#8af3ff" d="M113.136 119.52v-.592q0-2 .88-3.712.896-1.712 2.672-3.216l.368.384q-1.376 1.296-1.952 2.992a11.3 11.3 0 0 0-.56 3.552v.592q0 1.84.56 3.552.576 1.696 1.952 2.992l-.368.384q-1.776-1.504-2.672-3.216a8.06 8.06 0 0 1-.88-3.712m10.719 4.592q-1.248 0-1.472-1.152-.56.64-1.232.928a3.5 3.5 0 0 1-1.328.272q-1.12 0-1.648-.624t-.528-1.504q0-.944.64-1.488.655-.56 2.256-.56h1.808v-1.296q0-1.28-.448-1.76-.432-.496-1.184-.496-.48 0-.864.192t-.56.704q-.16.496-.032 1.456l-1.264-.192q-.08-.752.192-1.344.288-.608.928-.96.655-.368 1.632-.368 1.168 0 1.792.4.624.384.864 1.008.256.624.256 1.36v3.6q0 .816.176 1.024.192.208.416.208a.8.8 0 0 0 .304-.064q.16-.08.352-.24l.288.4q-.24.208-.576.352a1.9 1.9 0 0 1-.768.144m-3.584-.624q.449 0 .96-.24.528-.257 1.12-1.008v-1.744h-1.632q-.896 0-1.312.368-.4.352-.4 1.104 0 .72.304 1.12.32.4.96.4m8.017-.016q0 .72-.48 1.68-.465.96-1.296 1.936l-.352-.288q.656-.8.944-1.472.288-.656.32-1.168h-.016a.84.84 0 0 1-.624-.24.84.84 0 0 1-.24-.624q0-.384.24-.624t.624-.24.624.272q.255.257.256.768m9.07-5.424v1.008q0 1.536-.432 2.688t-1.264 1.792q-.831.624-2.016.624-1.2 0-2.032-.624-.816-.64-1.248-1.792t-.432-2.688v-1.008q0-1.536.432-2.672.432-1.152 1.248-1.776.832-.64 2.032-.64 1.185 0 2.016.64.832.624 1.264 1.776.432 1.136.432 2.672m-1.552-1.12q0-1.856-.56-2.656t-1.6-.8-1.6.8-.56 2.656v3.248q0 1.872.56 2.672t1.6.8 1.6-.8.56-2.672zm6.45 2v.592a7.95 7.95 0 0 1-.896 3.712q-.88 1.712-2.656 3.216l-.368-.384q1.375-1.296 1.936-2.992.56-1.712.56-3.552v-.592q0-1.856-.56-3.552t-1.936-2.992l.368-.384q1.776 1.505 2.656 3.216a7.9 7.9 0 0 1 .896 3.712"/></svg>