<svg xmlns="http://www.w3.org/2000/svg" width="300" height="200" fill="none" viewBox="0 0 300 200"><path fill="#000" d="M0 0h300v200H0z"/><path fill="#fff" d="m286 101-5-2.887v5.774zm-273 0v.5h268.5v-1H13z"/><path fill="#fff" d="m73 9-2.887 5h5.774zm0 187h.5V13.5h-1V196zM281.008 123.584V124h-2.976v-.416l.816-.096a1 1 0 0 0 .24-.048q.096-.032.192-.176.112-.144.304-.464l2.544-4.128-2.464-4.352a4 4 0 0 0-.272-.448q-.08-.144-.176-.176a.6.6 0 0 0-.24-.064l-.816-.08v-.432h3.888v.432l-.832.08q-.24.032-.256.128 0 .096.256.56l1.872 3.312 2.048-3.312q.288-.464.288-.56t-.256-.128l-.816-.08v-.432h2.976v.432l-.816.08a.8.8 0 0 0-.256.064q-.08.032-.176.176a10 10 0 0 0-.304.448l-2.384 3.856 2.624 4.624.256.464a.7.7 0 0 0 .176.176q.096.032.256.048l.832.096V124h-3.888v-.416l.832-.096q.256-.032.256-.112.016-.096-.256-.576l-2.048-3.6-2.208 3.6q-.288.464-.288.56t.256.128zM92.64 19.584V20h-3.856v-.416l.88-.096q.255-.032.304-.128t.048-.656V15.36l-2.576-5.04a3 3 0 0 0-.256-.448q-.08-.144-.176-.176a.6.6 0 0 0-.256-.064l-.816-.08V9.12h3.872v.432l-.816.08q-.24.032-.256.128 0 .096.224.56l2.176 4.368 2.224-4.368q.24-.464.224-.56t-.256-.128l-.816-.08V9.12h2.96v.432l-.832.08a.8.8 0 0 0-.256.064q-.08.032-.176.176a6 6 0 0 0-.24.448l-2.56 5.008v3.376q0 .56.048.656t.304.128z"/><path stroke="#fff126" stroke-width="2" d="M278 21c-51.044 4.264-205 18.003-205 79s134.197 70.889 205 79"/><circle cx="208.5" cy="27.5" r="4.5" fill="#8af3ff"/><circle cx="93.5" cy="134.5" r="4.5" fill="#8af3ff"/><circle cx="129.5" cy="100.5" r="4.5" fill="#8af3ff"/><path stroke="#8af3ff" stroke-width="2" d="m93.326 134.262 115-105"/><path fill="#1cdbe2" d="m144 108 5.624-1.304-3.941-4.219zm76-71-5.624 1.304 3.941 4.219zm-72.712 67.928.342.365 69.423-64.856-.341-.365-.342-.365-69.423 64.856z"/><path fill="#1cdbe2" d="m144 108 5.624-1.304-3.941-4.219zm76-71-5.624 1.304 3.941 4.219zm-72.712 67.928.342.365 69.423-64.856-.341-.365-.342-.365-69.423 64.856zM104 143l5.619-1.325-3.956-4.204zm34-32-5.619 1.325 3.956 4.204zm-30.723 28.916.343.364 27.446-25.832-.343-.364-.343-.364-27.446 25.832z"/><path fill="#1cdbe2" d="m104 143 5.619-1.325-3.956-4.204zm34-32-5.619 1.325 3.956 4.204zm-30.723 28.916.343.364 27.446-25.832-.343-.364-.343-.364-27.446 25.832z"/><path fill="#8af3ff" d="M131.448 131.592v-.432h2.544v10.544q0 .56.048.656t.304.128l.88.096V143h-3.776v-.416l.88-.096q.256-.032.304-.128t.048-.656v-9.248q0-.56-.048-.656t-.304-.128zm4.704 8.304 1.056-.656h.8v4.688q0 .272.031.32.033.048.145.064l.448.048v.32h-2.336v-.32l.608-.048q.127-.016.144-.064.032-.048.032-.32v-4.176l-.736.464zM191.448 73.592v-.432h2.544v10.544q0 .56.048.656t.304.128l.88.096V85h-3.776v-.416l.88-.096q.256-.032.304-.128t.048-.656v-9.248q0-.56-.048-.656t-.304-.128zm7.856 11.504h.336v1.584h-3.472v-.432q0-.593.16-.944.16-.352.464-.608.32-.255.752-.512.415-.24.768-.544.352-.32.352-.96 0-1.152-.784-1.152-.928 0-.784 1.44l-.944-.128a1.37 1.37 0 0 1 .32-1.168q.432-.512 1.408-.512.975 0 1.376.464.416.465.416 1.072t-.32.96a2.5 2.5 0 0 1-.784.544q-.465.192-.896.416-.912.465-1.008 1.36h2.08q.272 0 .336-.032.08-.032.096-.176z"/></svg>