<svg xmlns="http://www.w3.org/2000/svg" width="300" height="200" fill="none" viewBox="0 0 300 200"><g clip-path="url(#a)"><path fill="#000" d="M0 0h300v200H0z"/><path fill="#fff" d="m286 101-5-2.887v5.774zm-273 0v.5h268.5v-1H13z"/><path fill="#fff" d="m73 9-2.887 5h5.774zm0 187h.5V13.5h-1V196zM281.008 123.584V124h-2.976v-.416l.816-.096a1 1 0 0 0 .24-.048q.096-.032.192-.176.112-.144.304-.464l2.544-4.128-2.464-4.352a4 4 0 0 0-.272-.448q-.08-.144-.176-.176a.6.6 0 0 0-.24-.064l-.816-.08v-.432h3.888v.432l-.832.08q-.24.032-.256.128 0 .096.256.56l1.872 3.312 2.048-3.312q.288-.464.288-.56t-.256-.128l-.816-.08v-.432h2.976v.432l-.816.08a.8.8 0 0 0-.256.064q-.08.032-.176.176a10 10 0 0 0-.304.448l-2.384 3.856 2.624 4.624.256.464a.7.7 0 0 0 .176.176q.096.032.256.048l.832.096V124h-3.888v-.416l.832-.096q.256-.032.256-.112.016-.096-.256-.576l-2.048-3.6-2.208 3.6q-.288.464-.288.56t.256.128zM92.64 19.584V20h-3.856v-.416l.88-.096q.255-.032.304-.128t.048-.656V15.36l-2.576-5.04a3 3 0 0 0-.256-.448q-.08-.144-.176-.176a.6.6 0 0 0-.256-.064l-.816-.08V9.12h3.872v.432l-.816.08q-.24.032-.256.128 0 .096.224.56l2.176 4.368 2.224-4.368q.24-.464.224-.56t-.256-.128l-.816-.08V9.12h2.96v.432l-.832.08a.8.8 0 0 0-.256.064q-.08.032-.176.176a6 6 0 0 0-.24.448l-2.56 5.008v3.376q0 .56.048.656t.304.128z"/><path stroke="#fff126" stroke-width="2" d="M278 21c-51.044 4.264-205 18.003-205 79s134.197 70.889 205 79"/><circle cx="208.5" cy="27.5" r="4.5" fill="#8af3ff"/><circle cx="93.5" cy="134.5" r="4.5" fill="#8af3ff"/><circle cx="259.5" cy="175.5" r="4.5" fill="#8af3ff"/><path stroke="#8af3ff" stroke-width="2" d="m93.326 134.262 115-105M259.056 176.33l-51-146M259.76 176.971l-166-41"/><path fill="#8af3ff" fill-opacity=".57" d="m208.5 28.5 51 148.5L93 134.5z"/><path fill="#8af3ff" d="M190.6 19q-.44 1.22-.96 1.98-.52.78-1.24 1.12-.72.36-1.8.36v-1.6q1.44 0 2.18-.46.74-.44 1.18-1.66l.26-.74h-.58l-2.94-8.4q-.2-.58-.3-.68-.1-.12-.42-.16l-1.02-.12V8.1h4.56v.54l-1.02.12q-.28.02-.32.14t.16.7l2.4 6.92 2.42-6.94q.18-.58.14-.68-.02-.1-.32-.14l-1.04-.12V8.1h3.66v.54l-1.02.12q-.3.04-.4.14t-.3.68zm5.546-4.88 1.32-.82h1v5.86q0 .34.04.4t.18.08l.56.06v.4h-2.92v-.4l.76-.06q.16-.02.18-.08.04-.06.04-.4v-5.22l-.92.58zM88.6 160q-.44 1.22-.96 1.98-.52.78-1.24 1.12-.72.36-1.8.36v-1.6q1.44 0 2.18-.46.74-.44 1.18-1.66l.26-.74h-.58l-2.94-8.4q-.2-.58-.3-.68-.1-.12-.42-.16l-1.02-.12v-.54h4.56v.54l-1.02.12q-.28.02-.32.14t.16.7l2.4 6.92 2.42-6.94q.18-.58.14-.68-.02-.1-.32-.14l-1.04-.12v-.54h3.66v.54l-1.02.12q-.3.04-.4.14t-.3.68zm9.486-.88h.42v1.98h-4.34v-.54q0-.74.2-1.18t.58-.76q.4-.32.94-.64.52-.3.96-.68.44-.4.44-1.2 0-1.44-.98-1.44-1.16 0-.98 1.8l-1.18-.16a1.72 1.72 0 0 1 .4-1.46q.54-.64 1.76-.64t1.72.58q.52.58.52 1.34t-.4 1.2q-.4.42-.98.68-.58.24-1.12.52-1.14.58-1.26 1.7h2.6q.34 0 .42-.04.1-.04.12-.22zM273.6 160q-.44 1.22-.96 1.98-.52.78-1.24 1.12-.72.36-1.8.36v-1.6q1.44 0 2.18-.46.74-.44 1.18-1.66l.26-.74h-.58l-2.94-8.4q-.2-.58-.3-.68-.1-.12-.42-.16l-1.02-.12v-.54h4.56v.54l-1.02.12q-.28.02-.32.14t.16.7l2.4 6.92 2.42-6.94q.18-.58.14-.68-.02-.1-.32-.14l-1.04-.12v-.54h3.66v.54l-1.02.12q-.3.04-.4.14t-.3.68zm7.286-2.18h-.36v-.42h.36q.76 0 1.06-.4.32-.42.32-1.06 0-1.32-1-1.32-1.18 0-1 1.8l-1.18-.16a1.67 1.67 0 0 1 .38-1.42q.54-.64 1.8-.64 1.221 0 1.74.52.52.52.52 1.22 0 1.28-1.36 1.66 1.48.4 1.48 1.8 0 .72-.56 1.26t-1.8.54a2.85 2.85 0 0 1-1.36-.32q-.6-.3-.84-1.14l.66-.2q.1.72.52.98.44.26.92.26 1.18 0 1.18-1.38 0-.7-.34-1.14-.32-.44-1.14-.44"/></g><defs><clipPath id="a"><path fill="#fff" d="M0 0h300v200H0z"/></clipPath></defs></svg>