<svg xmlns="http://www.w3.org/2000/svg" width="300" height="200" fill="none" viewBox="0 0 300 200"><path fill="#000" d="M0 0h300v200H0z"/><path fill="#fff" d="m286 101-5-2.887v5.774zm-273 0v.5h268.5v-1H13z"/><path fill="#fff" d="m73 9-2.887 5h5.774zm0 187h.5V13.5h-1V196zM281.008 123.584V124h-2.976v-.416l.816-.096a1 1 0 0 0 .24-.048q.096-.032.192-.176.112-.144.304-.464l2.544-4.128-2.464-4.352a4 4 0 0 0-.272-.448q-.08-.144-.176-.176a.6.6 0 0 0-.24-.064l-.816-.08v-.432h3.888v.432l-.832.08q-.24.032-.256.128 0 .096.256.56l1.872 3.312 2.048-3.312q.288-.464.288-.56t-.256-.128l-.816-.08v-.432h2.976v.432l-.816.08a.8.8 0 0 0-.256.064q-.08.032-.176.176a10 10 0 0 0-.304.448l-2.384 3.856 2.624 4.624.256.464a.7.7 0 0 0 .176.176q.096.032.256.048l.832.096V124h-3.888v-.416l.832-.096q.256-.032.256-.112.016-.096-.256-.576l-2.048-3.6-2.208 3.6q-.288.464-.288.56t.256.128zM92.64 19.584V20h-3.856v-.416l.88-.096q.255-.032.304-.128t.048-.656V15.36l-2.576-5.04a3 3 0 0 0-.256-.448q-.08-.144-.176-.176a.6.6 0 0 0-.256-.064l-.816-.08V9.12h3.872v.432l-.816.08q-.24.032-.256.128 0 .096.224.56l2.176 4.368 2.224-4.368q.24-.464.224-.56t-.256-.128l-.816-.08V9.12h2.96v.432l-.832.08a.8.8 0 0 0-.256.064q-.08.032-.176.176a6 6 0 0 0-.24.448l-2.56 5.008v3.376q0 .56.048.656t.304.128z"/><path stroke="#fff126" stroke-width="2" d="M278 21c-51.044 4.264-205 18.003-205 79s134.197 70.889 205 79"/><circle cx="208.5" cy="27.5" r="4.5" fill="#8af3ff"/><circle cx="93.5" cy="134.5" r="4.5" fill="#8af3ff"/><circle cx="129.5" cy="100.5" r="4.5" fill="#8af3ff"/><path fill="#8af3ff" d="M186.136 14.52v-.592q0-2 .88-3.712.896-1.711 2.672-3.216l.368.384q-1.376 1.296-1.952 2.992a11.3 11.3 0 0 0-.56 3.552v.592q0 1.84.56 3.552.576 1.695 1.952 2.992l-.368.384q-1.776-1.505-2.672-3.216a8.06 8.06 0 0 1-.88-3.712m9.985 2.848q-.24.928-.752 1.36-.511.432-1.312.432-.768 0-1.248-.336a2.06 2.06 0 0 1-.704-.912 3.1 3.1 0 0 1-.224-1.168v-4.368q0-.56-.048-.656-.031-.096-.304-.128l-.88-.08v-.432h1.232V8.984l1.312-.272v2.368h2.608v.512h-2.608v5.28q0 1.008.272 1.392a.9.9 0 0 0 .752.384q.465 0 .704-.352.257-.352.368-1.152zm4.416-3.44v.592a7.95 7.95 0 0 1-.896 3.712q-.88 1.712-2.656 3.216l-.368-.384q1.376-1.296 1.936-2.992.56-1.712.56-3.552v-.592q0-1.856-.56-3.552t-1.936-2.992l.368-.384q1.776 1.505 2.656 3.216a7.9 7.9 0 0 1 .896 3.712M90.096 157.056h-.752v-.352q0-.72.208-1.152.224-.448.544-.768l.64-.672q.32-.352.528-.848.225-.512.224-1.344 0-1.232-.448-1.84t-1.28-.608q-1.056 0-1.472.8-.416.784-.256 2.256l-1.312-.256a3.15 3.15 0 0 1 .128-1.616q.288-.752 1.024-1.216.735-.48 1.904-.48 1.135 0 1.84.4.704.4 1.024 1.04.32.624.32 1.344 0 .736-.24 1.232a2.9 2.9 0 0 1-.576.832 6 6 0 0 1-.752.608 8 8 0 0 0-.72.576 2.2 2.2 0 0 0-.512.688q-.176.4-.112 1.008zm-.4 3.104a.89.89 0 0 1-.656-.256.92.92 0 0 1-.24-.656q0-.4.24-.64a.89.89 0 0 1 .656-.256q.4 0 .656.256.256.24.256.64a.89.89 0 0 1-.256.656.89.89 0 0 1-.656.256"/><path stroke="#8af3ff" stroke-width="2" d="m93.326 134.262 115-105"/></svg>