<svg xmlns="http://www.w3.org/2000/svg" width="300" height="200" fill="none" viewBox="0 0 300 200"><path fill="#000" d="M0 0h300v200H0z"/><path fill="#fff" d="m286 101-5-2.887v5.774zm-273 0v.5h268.5v-1H13z"/><path fill="#fff" d="m73 9-2.887 5h5.774zm0 187h.5V13.5h-1V196zM281.008 123.584V124h-2.976v-.416l.816-.096a1 1 0 0 0 .24-.048q.096-.032.192-.176.112-.144.304-.464l2.544-4.128-2.464-4.352a4 4 0 0 0-.272-.448q-.08-.144-.176-.176a.6.6 0 0 0-.24-.064l-.816-.08v-.432h3.888v.432l-.832.08q-.24.032-.256.128 0 .096.256.56l1.872 3.312 2.048-3.312q.288-.464.288-.56t-.256-.128l-.816-.08v-.432h2.976v.432l-.816.08a.8.8 0 0 0-.256.064q-.08.032-.176.176a10 10 0 0 0-.304.448l-2.384 3.856 2.624 4.624.256.464a.7.7 0 0 0 .176.176q.096.032.256.048l.832.096V124h-3.888v-.416l.832-.096q.256-.032.256-.112.016-.096-.256-.576l-2.048-3.6-2.208 3.6q-.288.464-.288.56t.256.128zM92.64 19.584V20h-3.856v-.416l.88-.096q.255-.032.304-.128t.048-.656V15.36l-2.576-5.04a3 3 0 0 0-.256-.448q-.08-.144-.176-.176a.6.6 0 0 0-.256-.064l-.816-.08V9.12h3.872v.432l-.816.08q-.24.032-.256.128 0 .096.224.56l2.176 4.368 2.224-4.368q.24-.464.224-.56t-.256-.128l-.816-.08V9.12h2.96v.432l-.832.08a.8.8 0 0 0-.256.064q-.08.032-.176.176a6 6 0 0 0-.24.448l-2.56 5.008v3.376q0 .56.048.656t.304.128z"/><path stroke="#fff126" stroke-width="2" d="M278 21c-51.044 4.264-205 18.003-205 79s134.197 70.889 205 79"/><circle cx="180.5" cy="34.5" r="4.5" fill="#8af3ff"/><path fill="#8af3ff" d="M192.68 54.48V55h-4.72v-.52l1.1-.12q.32-.04.38-.16t.06-.82V48.4q0-1.48-.46-2.08-.44-.62-1.3-.62-.62 0-1.4.4-.76.4-1.46 1.54v5.74q0 .7.06.82t.38.16l1.1.12V55h-4.72v-.52l1.1-.12q.32-.04.38-.16t.06-.82v-6.66q0-.7-.06-.82t-.38-.16l-1.1-.1v-.54h3.08v1.62q.7-.94 1.58-1.38.9-.44 1.78-.44 2.16 0 2.78 1.98.74-1.04 1.64-1.5.92-.48 1.84-.48 1.42 0 2.2.92.8.9.8 2.56v5q0 .7.06.82t.38.16l1.1.12V55h-4.72v-.52l1.1-.12q.32-.04.38-.16t.06-.82V48.4q0-1.48-.46-2.08-.44-.62-1.3-.62-.62 0-1.42.42-.78.4-1.48 1.58.02.16.02.34.02.16.02.34v5q0 .7.06.82t.38.16z"/><path stroke="#8af3ff" stroke-width="2" d="m16.779 70.025 283-64"/></svg>