<svg xmlns="http://www.w3.org/2000/svg" width="300" height="200" fill="none" viewBox="0 0 300 200"><path fill="#000" d="M0 0h300v200H0z"/><path fill="#fff" d="m286 101-5-2.887v5.774zm-273 0v.5h268.5v-1H13z"/><path fill="#fff" d="m73 9-2.887 5h5.774zm0 187h.5V13.5h-1V196zM281.008 123.584V124h-2.976v-.416l.816-.096a1 1 0 0 0 .24-.048q.096-.032.192-.176.112-.144.304-.464l2.544-4.128-2.464-4.352a4 4 0 0 0-.272-.448q-.08-.144-.176-.176a.6.6 0 0 0-.24-.064l-.816-.08v-.432h3.888v.432l-.832.08q-.24.032-.256.128 0 .096.256.56l1.872 3.312 2.048-3.312q.288-.464.288-.56t-.256-.128l-.816-.08v-.432h2.976v.432l-.816.08a.8.8 0 0 0-.256.064q-.08.032-.176.176a10 10 0 0 0-.304.448l-2.384 3.856 2.624 4.624.256.464a.7.7 0 0 0 .176.176q.096.032.256.048l.832.096V124h-3.888v-.416l.832-.096q.256-.032.256-.112.016-.096-.256-.576l-2.048-3.6-2.208 3.6q-.288.464-.288.56t.256.128zM92.64 19.584V20h-3.856v-.416l.88-.096q.255-.032.304-.128t.048-.656V15.36l-2.576-5.04a3 3 0 0 0-.256-.448q-.08-.144-.176-.176a.6.6 0 0 0-.256-.064l-.816-.08V9.12h3.872v.432l-.816.08q-.24.032-.256.128 0 .096.224.56l2.176 4.368 2.224-4.368q.24-.464.224-.56t-.256-.128l-.816-.08V9.12h2.96v.432l-.832.08a.8.8 0 0 0-.256.064q-.08.032-.176.176a6 6 0 0 0-.24.448l-2.56 5.008v3.376q0 .56.048.656t.304.128z"/><path stroke="#fff126" stroke-width="2" d="M278 21c-51.044 4.264-205 18.003-205 79s134.197 70.889 205 79"/><circle cx="180.5" cy="34.5" r="4.5" fill="#8af3ff"/><path fill="#8af3ff" d="M142.42 63.4v-.74q0-2.5 1.1-4.64 1.12-2.14 3.34-4.02l.46.48q-1.72 1.62-2.44 3.74a14 14 0 0 0-.7 4.44v.74q0 2.3.7 4.44.72 2.12 2.44 3.74l-.46.48q-2.22-1.88-3.34-4.02a10.1 10.1 0 0 1-1.1-4.64m12.482 3.56q-.3 1.16-.94 1.7t-1.64.54q-.96 0-1.56-.42a2.56 2.56 0 0 1-.88-1.14 3.9 3.9 0 0 1-.28-1.46v-5.46q0-.7-.06-.82-.04-.12-.38-.16l-1.1-.1v-.54h1.54v-2.62l1.64-.34v2.96h3.26v.64h-3.26v6.6q0 1.26.34 1.74.36.48.94.48t.88-.44q.32-.44.46-1.44zm5.519-4.3v.74a9.9 9.9 0 0 1-1.12 4.64q-1.1 2.14-3.32 4.02l-.46-.48q1.72-1.62 2.42-3.74.7-2.14.7-4.44v-.74q0-2.32-.7-4.44t-2.42-3.74l.46-.48q2.22 1.88 3.32 4.02 1.12 2.14 1.12 4.64"/><path stroke="#8af3ff" stroke-width="2" d="m228.062 163.347-57-154"/></svg>