<svg xmlns="http://www.w3.org/2000/svg" width="300" height="200" fill="none" viewBox="0 0 300 200"><g clip-path="url(#a)"><path fill="#000" d="M0 0h300v200H0z"/><path fill="#fff" d="m286 101-5-2.887v5.774zm-273 0v.5h268.5v-1H13z"/><path fill="#fff" d="m149 8-2.887 5h5.774zm0 187h.5V12.5h-1V195zM281.008 123.584V124h-2.976v-.416l.816-.096a1 1 0 0 0 .24-.048q.096-.032.192-.176.112-.144.304-.464l2.544-4.128-2.464-4.352a4 4 0 0 0-.272-.448q-.08-.144-.176-.176a.6.6 0 0 0-.24-.064l-.816-.08v-.432h3.888v.432l-.832.08q-.24.032-.256.128 0 .096.256.56l1.872 3.312 2.048-3.312q.288-.464.288-.56t-.256-.128l-.816-.08v-.432h2.976v.432l-.816.08a.8.8 0 0 0-.256.064q-.08.032-.176.176a10 10 0 0 0-.304.448l-2.384 3.856 2.624 4.624.256.464a.7.7 0 0 0 .176.176q.096.032.256.048l.832.096V124h-3.888v-.416l.832-.096q.256-.032.256-.112.016-.096-.256-.576l-2.048-3.6-2.208 3.6q-.288.464-.288.56t.256.128zM168.64 18.584V19h-3.856v-.416l.88-.096q.256-.032.304-.128t.048-.656V14.36l-2.576-5.04a3 3 0 0 0-.256-.448q-.08-.144-.176-.176a.6.6 0 0 0-.256-.064l-.816-.08V8.12h3.872v.432l-.816.08q-.24.032-.256.128 0 .096.224.56l2.176 4.368 2.224-4.368q.24-.464.224-.56t-.256-.128l-.816-.08V8.12h2.96v.432l-.832.08a.7.7 0 0 0-.256.064q-.08.032-.176.176a6 6 0 0 0-.24.448l-2.56 5.008v3.376q0 .56.048.656t.304.128z"/><path stroke="#fff126" stroke-width="2" d="M274.5 29.12C243.5 33 150 45.5 150 101s81.5 64.5 124.5 71.88"/><path stroke="#8af3ff" stroke-linecap="round" stroke-width="2" d="M194.601 179.793 71.793 14.399M277.939 26.935 72.935 14.061"/><circle cx="276" cy="29" r="3" fill="#8af3ff"/><circle cx="72" cy="15" r="3" fill="#8af3ff"/><circle cx="160" cy="133" r="3" fill="#8af3ff"/><path fill="#8af3ff" d="M56.12 27.32h-.94v-.44q0-.9.26-1.44.28-.56.68-.96l.8-.84q.4-.44.66-1.06.28-.64.28-1.68 0-1.54-.56-2.3t-1.6-.76q-1.32 0-1.84 1-.52.98-.32 2.82l-1.64-.32q-.18-1.08.16-2.02.36-.94 1.28-1.52.92-.6 2.38-.6 1.42 0 2.3.5T59.3 19q.4.78.4 1.68 0 .92-.3 1.54-.28.6-.72 1.04-.44.42-.94.76-.48.34-.9.72-.4.36-.64.86-.22.5-.14 1.26zm-.5 3.88q-.5 0-.82-.32-.3-.32-.3-.82t.3-.8q.32-.32.82-.32t.82.32q.32.3.32.8t-.32.82-.82.32M270.136 14.52v-.592q0-2 .88-3.712.896-1.711 2.672-3.216l.368.384q-1.376 1.296-1.952 2.992a11.3 11.3 0 0 0-.56 3.552v.592q0 1.84.56 3.552.576 1.695 1.952 2.992l-.368.384q-1.776-1.505-2.672-3.216a8.06 8.06 0 0 1-.88-3.712m9.985 2.848q-.24.928-.752 1.36-.511.432-1.312.432-.768 0-1.248-.336a2.06 2.06 0 0 1-.704-.912 3.1 3.1 0 0 1-.224-1.168v-4.368q0-.56-.048-.656-.031-.096-.304-.128l-.88-.08v-.432h1.232V8.984l1.312-.272v2.368h2.608v.512h-2.608v5.28q0 1.008.272 1.392a.9.9 0 0 0 .752.384q.464 0 .704-.352.257-.352.368-1.152zm.812-1.472 1.056-.656h.8v4.688q0 .272.032.32.031.048.144.064l.448.048v.32h-2.336v-.32l.608-.048q.127-.016.144-.064.032-.048.032-.32v-4.176l-.736.464zm7.229-1.968v.592a7.95 7.95 0 0 1-.896 3.712q-.88 1.712-2.656 3.216l-.368-.384q1.376-1.296 1.936-2.992.56-1.712.56-3.552v-.592q0-1.856-.56-3.552t-1.936-2.992L284.61 7q1.776 1.505 2.656 3.216a7.9 7.9 0 0 1 .896 3.712M127.136 141.52v-.592q0-2 .88-3.712.896-1.712 2.672-3.216l.368.384q-1.376 1.296-1.952 2.992a11.3 11.3 0 0 0-.56 3.552v.592q0 1.84.56 3.552.576 1.696 1.952 2.992l-.368.384q-1.776-1.504-2.672-3.216a8.06 8.06 0 0 1-.88-3.712m9.985 2.848q-.24.928-.752 1.36-.511.432-1.312.432-.768 0-1.248-.336a2.06 2.06 0 0 1-.704-.912 3.1 3.1 0 0 1-.224-1.168v-4.368q0-.56-.048-.656-.031-.096-.304-.128l-.88-.08v-.432h1.232v-2.096l1.312-.272v2.368h2.608v.512h-2.608v5.28q0 1.008.272 1.392a.9.9 0 0 0 .752.384q.465 0 .704-.352.257-.353.368-1.152zm3.964 1.728h.336v1.584h-3.472v-.432q0-.592.16-.944t.464-.608q.32-.256.752-.512.416-.24.768-.544.352-.32.352-.96 0-1.152-.784-1.152-.928 0-.784 1.44l-.944-.128a1.37 1.37 0 0 1 .32-1.168q.432-.512 1.408-.512.975 0 1.376.464.416.464.416 1.072 0 .607-.32.96a2.5 2.5 0 0 1-.784.544q-.464.192-.896.416-.912.464-1.008 1.36h2.08q.272 0 .336-.032.08-.032.096-.176zm5.264-5.168v.592q0 1.984-.896 3.712-.88 1.711-2.656 3.216l-.368-.384q1.377-1.296 1.936-2.992a11.3 11.3 0 0 0 .56-3.552v-.592q0-1.856-.56-3.552t-1.936-2.992l.368-.384q1.776 1.504 2.656 3.216a7.9 7.9 0 0 1 .896 3.712"/></g><defs><clipPath id="a"><path fill="#fff" d="M0 0h300v200H0z"/></clipPath></defs></svg>