<svg xmlns="http://www.w3.org/2000/svg" width="300" height="200" fill="none" viewBox="0 0 300 200"><path fill="#000" d="M0 0h300v200H0z"/><ellipse cx="150.5" cy="100" fill="url(#a)" rx="73.5" ry="73"/><path fill="#000" d="m143.632 87.98 3.708 20.772 11.124-20.772h4.356L148.996 113h-4.752l-5.004-25.02zm23.066 32.214q-1.512 0-2.656-.626a4.5 4.5 0 0 1-1.793-1.771q-.627-1.145-.627-2.614 0-2.008.929-3.672a7.1 7.1 0 0 1 2.592-2.635q1.663-.972 3.694-.972 1.512 0 2.678.648a4.5 4.5 0 0 1 1.815 1.771q.669 1.123.669 2.614 0 2.008-.972 3.672a7.2 7.2 0 0 1-2.635 2.635q-1.663.95-3.694.95m.303-2.073a3.9 3.9 0 0 0 2.246-.691 4.94 4.94 0 0 0 1.62-1.858 5.5 5.5 0 0 0 .583-2.484q0-1.49-.842-2.29-.843-.82-2.117-.82-1.253 0-2.246.712-.972.692-1.534 1.88a5.9 5.9 0 0 0-.54 2.505q0 1.448.778 2.247.8.799 2.052.799"/><circle cx="149.5" cy="99.5" r="92" stroke="#fff" stroke-dasharray="5 5"/><defs><linearGradient id="a" x1="150.5" x2="150.5" y1="27" y2="173" gradientUnits="userSpaceOnUse"><stop stop-color="#e8e7e7"/><stop offset="1" stop-color="#777575"/></linearGradient></defs></svg>