<svg xmlns="http://www.w3.org/2000/svg" width="300" height="200" fill="none" viewBox="0 0 300 200"><path fill="#000" d="M0 0h300v200H0z"/><path fill="url(#a)" d="M58.206 50.276c16.93-16.532 56.905-17.004 61.608-18.894s17.4-4.25 23.044 0c5.643 4.251 77.597 17.005 79.949 27.869 2.351 10.864-16.931 45.345-47.97 76.52s-121.804 0-130.74-19.366c-8.935-19.366-2.821-49.597 14.109-66.129"/><path fill="#fff" d="m67 138-11.12 3.111 8.254 8.075zm-45 46 .715.699 38.706-39.566-.715-.699-.715-.7-38.706 39.567zM70.193 181.727h2.364l2.989 3.943.5.66 3.647 4.852H77.33l-2.681-3.58-.466-.636zm11.432-4.238q-.602 3.602-2.318 6.261t-4.193 4.114a10.46 10.46 0 0 1-5.387 1.454q-2.988 0-5.045-1.488-2.046-1.5-2.898-4.205-.852-2.716-.25-6.386.602-3.603 2.318-6.262t4.205-4.113a10.53 10.53 0 0 1 5.409-1.455q2.954 0 5 1.489 2.046 1.488 2.909 4.204.864 2.704.25 6.387m-2.034-.25q.522-3.114-.136-5.307-.648-2.193-2.228-3.352-1.58-1.171-3.83-1.171a8.5 8.5 0 0 0-4.374 1.205q-2.046 1.193-3.489 3.454-1.443 2.25-1.977 5.421-.512 3.102.136 5.306.648 2.194 2.228 3.364 1.59 1.16 3.852 1.159a8.5 8.5 0 0 0 4.386-1.204q2.046-1.205 3.477-3.455 1.444-2.26 1.955-5.42M106.216 92l2.909-17.454h1.966l-.455 2.681h.182a5.53 5.53 0 0 1 2.114-2.125q1.352-.784 3.068-.784 1.795 0 2.818.853 1.023.84 1.364 2.318h.148a6 6 0 0 1 2.306-2.307q1.489-.864 3.398-.864 2.42 0 3.58 1.534 1.159 1.534.67 4.455L128.33 92h-2.023l1.954-11.693q.33-2.068-.534-3.103-.863-1.033-2.591-1.033-2 0-3.306 1.227-1.296 1.215-1.603 3.113L118.307 92h-2.068l1.988-11.875q.285-1.772-.511-2.864-.784-1.09-2.58-1.09-1.215 0-2.284.602a5.4 5.4 0 0 0-1.795 1.648 5.8 5.8 0 0 0-.955 2.397L108.239 92z"/><path fill="#f9ff4a" d="m253.582 86 9.324-17.454h1.551L267.986 86zm2.438-1.432h10.023l-2.668-13.764h-.102zm16.56-14.59.238-1.432h12.656l-.238 1.431h-5.531L277.045 86h-1.593l2.659-16.023zM245 41l-5.774 10h11.547zm0 75h1V50h-2v66z"/><defs><linearGradient id="a" x1="131.5" x2="131.5" y1="29" y2="149" gradientUnits="userSpaceOnUse"><stop stop-color="#ff2727"/><stop offset="1" stop-color="#991818"/></linearGradient></defs></svg>