<svg xmlns="http://www.w3.org/2000/svg" width="300" height="200" fill="none" viewBox="0 0 300 200"><path fill="#000" d="M0 0h300v200H0z"/><path fill="url(#a)" d="M97 79h123v89H97z"/><path fill="#fff" d="m78 116-11.12 3.111 8.254 8.075zm-45 46 .715.699 38.706-39.566-.715-.699-.715-.7-38.706 39.567zM66.193 168.727h2.364l2.989 3.943.5.66 3.647 4.852H73.33l-2.681-3.58-.466-.636zm11.432-4.238q-.602 3.602-2.318 6.261t-4.193 4.114a10.46 10.46 0 0 1-5.387 1.454q-2.988 0-5.045-1.488-2.046-1.5-2.898-4.205-.852-2.716-.25-6.386.602-3.603 2.318-6.262t4.205-4.113a10.53 10.53 0 0 1 5.409-1.455q2.954 0 5 1.489 2.046 1.488 2.909 4.204.864 2.704.25 6.387m-2.034-.25q.522-3.114-.136-5.307-.648-2.193-2.228-3.352-1.58-1.171-3.83-1.171a8.5 8.5 0 0 0-4.374 1.205q-2.046 1.193-3.489 3.454-1.443 2.25-1.977 5.421-.512 3.102.136 5.306.648 2.194 2.227 3.364 1.591 1.16 3.853 1.159a8.5 8.5 0 0 0 4.386-1.204q2.046-1.205 3.477-3.455 1.444-2.26 1.955-5.42"/><path fill="#f9ff4a" d="m253.582 86 9.324-17.454h1.551L267.986 86zm2.438-1.432h10.023l-2.668-13.764h-.102zm16.56-14.59.238-1.432h12.656l-.238 1.431h-5.531L277.045 86h-1.593l2.659-16.023zM245 41l-5.774 10h11.547zm0 75h1V50h-2v66z"/><path stroke="url(#b)" stroke-width="6" d="M96.5 20v150.5H220V20"/><path fill="url(#c)" d="M100 53h117v26H100z"/><path fill="#fff" d="M153.045 139.091 151.239 150h-2.023l2.909-17.455h1.966l-.455 2.739h.182q.818-1.341 2.262-2.148 1.453-.818 3.375-.818 1.75 0 2.954.739 1.216.727 1.727 2.148.523 1.42.182 3.488L162.42 150h-2.022l1.863-11.182q.353-2.136-.625-3.386-.966-1.262-2.988-1.262-1.375 0-2.557.591a5.46 5.46 0 0 0-1.977 1.705q-.807 1.103-1.069 2.625"/><defs><linearGradient id="a" x1="158.5" x2="158.5" y1="79" y2="168" gradientUnits="userSpaceOnUse"><stop stop-color="#cbce75"/><stop offset="1" stop-color="#66683b"/></linearGradient><linearGradient id="b" x1="158.25" x2="158.25" y1="20" y2="170.5" gradientUnits="userSpaceOnUse"><stop stop-color="#fff"/><stop offset="1" stop-color="#999"/></linearGradient><linearGradient id="c" x1="158.5" x2="158.5" y1="53" y2="79" gradientUnits="userSpaceOnUse"><stop stop-color="#b87100"/><stop offset="1" stop-color="#523300"/></linearGradient></defs></svg>