<svg xmlns="http://www.w3.org/2000/svg" width="300" height="200" fill="none" viewBox="0 0 300 200"><path fill="#000" d="M0 0h300v200H0z"/><path fill="url(#a)" d="M38 35h162v143H38z"/><path stroke="#fff" stroke-dasharray="2 2" d="M38.5 5.5h191v172h-191z"/><path fill="#000" d="M119.812 107.888h-10.476l-2.7 5.112h-4.284l13.392-25.056h4.752L125.032 113h-4.32zm-.54-3.204-2.052-11.772-6.192 11.772zm14.532 15.51q-1.512 0-2.657-.626a4.5 4.5 0 0 1-1.793-1.771q-.626-1.145-.626-2.614 0-2.008.929-3.672a7.1 7.1 0 0 1 2.592-2.635q1.664-.972 3.693-.972 1.512 0 2.679.648a4.5 4.5 0 0 1 1.814 1.771q.67 1.123.67 2.614 0 2.008-.972 3.672a7.23 7.23 0 0 1-2.635 2.635q-1.663.95-3.694.95m.302-2.073q1.231 0 2.247-.691a4.94 4.94 0 0 0 1.62-1.858 5.5 5.5 0 0 0 .583-2.484q0-1.49-.842-2.29-.843-.82-2.117-.82-1.253 0-2.247.712-.972.692-1.533 1.88a5.9 5.9 0 0 0-.54 2.505q0 1.448.777 2.247.8.799 2.052.799"/><defs><linearGradient id="a" x1="119" x2="119" y1="35" y2="178" gradientUnits="userSpaceOnUse"><stop stop-color="#d9d9d9"/><stop offset="1" stop-color="#737373"/></linearGradient></defs></svg>