<svg xmlns="http://www.w3.org/2000/svg" width="300" height="200" fill="none" viewBox="0 0 300 200"><path fill="#000" d="M0 0h300v200H0z"/><path fill="#464646" stroke="#fff" d="M60.5 8.5h31v67h-31z"/><circle cx="76" cy="132" r="59.5" fill="url(#a)" stroke="#fff"/><path fill="#464646" stroke="#fff" d="M213.5 5.5h37v72h-37z"/><circle cx="232" cy="133" r="63.5" fill="url(#b)" stroke="#fff"/><path fill="#000" d="m67.632 114.98 3.708 20.772 11.124-20.772h4.356L72.996 140h-4.752l-5.004-25.02zm23.066 32.214q-1.511 0-2.656-.626a4.5 4.5 0 0 1-1.793-1.771q-.627-1.145-.626-2.614 0-2.008.928-3.672a7.1 7.1 0 0 1 2.592-2.635q1.664-.972 3.694-.972 1.511 0 2.678.648a4.5 4.5 0 0 1 1.815 1.771q.67 1.123.67 2.614 0 2.008-.973 3.672a7.2 7.2 0 0 1-2.635 2.635q-1.663.95-3.693.95m.303-2.073q1.231 0 2.246-.691a4.94 4.94 0 0 0 1.62-1.858 5.5 5.5 0 0 0 .584-2.484q0-1.49-.843-2.29-.842-.82-2.117-.82a3.76 3.76 0 0 0-2.246.712q-.972.692-1.534 1.88a5.9 5.9 0 0 0-.54 2.505q0 1.447.778 2.247.8.799 2.052.799"/><path fill="#fff" d="M188.652 37.84q2.988 0 4.788 1.692 1.8 1.656 1.8 4.752 0 .828-.18 2.016L192.972 58h-4.068l1.98-11.088q.144-1.008.144-1.44 0-1.98-1.116-3.024-1.08-1.044-3.024-1.044-2.34 0-3.96 1.44-1.584 1.404-2.016 4.068v-.072L178.932 58h-4.104l4.716-26.64h4.104l-1.62 9.108a8.7 8.7 0 0 1 2.988-1.944 9.8 9.8 0 0 1 3.636-.684"/><path fill="url(#c)" d="M214 26h36v46h-36z"/><path fill="#fff" d="m205.5 27-2.887 5h5.774zm0 42 2.887-5h-5.774zm0-37.5h-.5v33h1v-33z"/><defs><linearGradient id="a" x1="76" x2="76" y1="72" y2="192" gradientUnits="userSpaceOnUse"><stop stop-color="#9dd7de"/><stop offset="1" stop-color="#0d9dad"/></linearGradient><linearGradient id="b" x1="232" x2="232" y1="69" y2="197" gradientUnits="userSpaceOnUse"><stop stop-color="#9dd7de"/><stop offset="1" stop-color="#0d9dad"/></linearGradient><linearGradient id="c" x1="232" x2="232" y1="26" y2="72" gradientUnits="userSpaceOnUse"><stop stop-color="#14b8ca"/><stop offset="1" stop-color="#9dd7de"/></linearGradient></defs></svg>