<svg xmlns="http://www.w3.org/2000/svg" width="300" height="200" fill="none" viewBox="0 0 300 200"><g clip-path="url(#a)"><path fill="#000" d="M0 0h300v200H0z"/><path fill="url(#b)" d="M20 100h85v73H20z"/><path fill="#fff" d="m73 83 11.515-.863-6.505-9.54zm66-45-.563-.826-58.564 39.93.563.826.563.826 58.564-39.93zM208 83l-3.679-10.945-7.639 8.658zm-51-45-.662.75 44.252 39.045.661-.75.662-.75-44.251-39.045zM146.193 22.727h2.364l2.988 3.944.5.659 3.648 4.852h-2.363l-2.682-3.58-.466-.636zm11.432-4.238q-.603 3.601-2.318 6.261t-4.193 4.114a10.45 10.45 0 0 1-5.387 1.454q-2.988 0-5.045-1.489-2.046-1.5-2.898-4.204-.852-2.716-.25-6.386.603-3.603 2.318-6.262 1.716-2.66 4.205-4.113a10.53 10.53 0 0 1 5.409-1.455q2.954 0 5 1.489t2.909 4.204q.864 2.704.25 6.387m-2.034-.25q.522-3.114-.136-5.307-.648-2.193-2.228-3.352-1.58-1.17-3.829-1.17a8.5 8.5 0 0 0-4.375 1.204q-2.046 1.193-3.489 3.454-1.443 2.25-1.977 5.42-.512 3.103.136 5.308.648 2.193 2.227 3.363 1.591 1.16 3.853 1.16a8.5 8.5 0 0 0 4.386-1.205q2.046-1.205 3.477-3.455 1.443-2.262 1.955-5.42"/><path fill="#f9ff4a" d="m125.582 138 9.324-17.455h1.551L139.986 138zm2.438-1.432h10.023l-2.668-13.764h-.102zm16.56-14.591.238-1.432h12.656l-.238 1.432h-5.531L149.045 138h-1.593l2.659-16.023zM118 93l-5.774 10h11.547zm0 75h1v-66h-2v66zM168 94l-5.774 10h11.547zm0 75h1v-66h-2v66z"/><path stroke="url(#c)" stroke-width="6" d="M20 70v105h85V70"/><path fill="#fff" d="m63.216 133.375-1.943.5a4 4 0 0 0-.546-1.409q-.386-.637-1.125-1-.727-.375-1.909-.375-1.772 0-3.057.864-1.284.852-1.5 2.181-.181 1.114.466 1.807.66.693 2.205 1.091l2.545.648q2.114.545 3.012 1.704.909 1.16.625 2.932a5.16 5.16 0 0 1-1.262 2.614q-.999 1.136-2.568 1.784-1.557.648-3.477.648-2.58 0-4.057-1.159-1.466-1.16-1.568-3.341l2.034-.455q.09 1.546 1.057 2.341.977.795 2.75.795 2.022 0 3.397-.92t1.58-2.273q.193-1.068-.398-1.772-.579-.705-1.977-1.046l-2.716-.682q-2.193-.556-3.102-1.738-.899-1.194-.602-2.944.238-1.442 1.204-2.534.966-1.09 2.443-1.704 1.477-.625 3.228-.625 2.41 0 3.67 1.091 1.26 1.079 1.59 2.977M66.395 151l-1.398-11.636h1.875l.977 9.329h.069l4.125-9.329h1.852l1.023 9.329h.09l4.046-9.329h1.898L75.69 151H73.68l-1.125-8.989h-.068L68.395 151z"/><path fill="url(#d)" d="M187.739 105.652c10.917-10.608 36.693-10.91 39.726-12.123 3.032-1.213 11.22-2.728 14.859 0s50.035 10.911 51.551 17.882-10.916 29.097-30.931 49.1c-20.014 20.004-78.54 0-84.302-12.426s-1.819-31.825 9.097-42.433"/><path fill="#fff" d="m195.216 137 2.909-17.455h1.966l-.455 2.682h.182a5.53 5.53 0 0 1 2.114-2.125q1.352-.784 3.068-.784 1.795 0 2.818.852 1.023.842 1.364 2.319h.148a6 6 0 0 1 2.306-2.307q1.489-.864 3.398-.864 2.42 0 3.58 1.534 1.159 1.534.67 4.455L217.33 137h-2.023l1.954-11.693q.33-2.068-.534-3.102-.863-1.035-2.591-1.035-2 0-3.306 1.228-1.296 1.215-1.603 3.113L207.307 137h-2.068l1.988-11.875q.285-1.773-.511-2.864-.784-1.09-2.58-1.091-1.215 0-2.284.603a5.4 5.4 0 0 0-1.795 1.647 5.84 5.84 0 0 0-.955 2.398L197.239 137zm31.332-3.182-.432 1.216a47 47 0 0 1-1 2.693 97 97 0 0 1-1.17 2.807 49 49 0 0 1-.977 2.148h-1.557q.26-.773.682-1.966.431-1.194.92-2.636.489-1.444.943-2.989l.387-1.273zm27.855-10.443-1.943.5a4 4 0 0 0-.545-1.409q-.387-.636-1.125-1-.727-.375-1.909-.375-1.773 0-3.057.864-1.284.852-1.5 2.181-.182 1.114.466 1.807.659.693 2.204 1.091l2.546.648q2.114.545 3.011 1.704.91 1.16.625 2.932a5.16 5.16 0 0 1-1.261 2.614q-1 1.136-2.568 1.784-1.557.648-3.478.648-2.579 0-4.057-1.159-1.465-1.16-1.568-3.341l2.034-.455q.091 1.546 1.057 2.341.977.795 2.75.795 2.023 0 3.398-.92t1.579-2.273q.194-1.068-.397-1.772-.58-.705-1.977-1.046l-2.716-.682q-2.194-.556-3.103-1.738-.897-1.194-.602-2.944a4.97 4.97 0 0 1 1.205-2.534q.966-1.09 2.443-1.704 1.477-.625 3.227-.625 2.41 0 3.67 1.091 1.262 1.079 1.591 2.977m.963 17.625 2.591-15.5h1.83l-1.023 6.273h.091q.34-.67.909-1.25a4.3 4.3 0 0 1 1.341-.943 4 4 0 0 1 1.716-.364q1.319 0 2.261.716.943.705 1.33 2.045.397 1.33.091 3.205-.307 1.83-1.125 3.182-.807 1.363-1.977 2.113a4.67 4.67 0 0 1-2.569.75q-.954 0-1.602-.363a2.8 2.8 0 0 1-1.023-.955 3.8 3.8 0 0 1-.522-1.239h-.125l-.364 2.33zm2.807-5.898q-.328 2.035.273 3.307.602 1.273 2.148 1.273.988 0 1.818-.58.841-.568 1.409-1.568.58-1 .784-2.295.33-1.954-.295-3.228-.614-1.272-2.171-1.272-1.011 0-1.841.579-.817.58-1.375 1.568a6.6 6.6 0 0 0-.75 2.216"/></g><defs><linearGradient id="b" x1="62.5" x2="62.5" y1="100" y2="173" gradientUnits="userSpaceOnUse"><stop stop-color="#78e3ea"/><stop offset="1" stop-color="#448084"/></linearGradient><linearGradient id="c" x1="62.5" x2="62.5" y1="70" y2="175" gradientUnits="userSpaceOnUse"><stop stop-color="#fff"/><stop offset="1" stop-color="#999"/></linearGradient><linearGradient id="d" x1="235" x2="235" y1="92" y2="169" gradientUnits="userSpaceOnUse"><stop stop-color="#ff2727"/><stop offset="1" stop-color="#991818"/></linearGradient><clipPath id="a"><path fill="#fff" d="M0 0h300v200H0z"/></clipPath></defs></svg>