<svg xmlns="http://www.w3.org/2000/svg" width="300" height="200" fill="none" viewBox="0 0 300 200"><path fill="#000" d="M0 0h300v200H0z"/><path stroke="#fff" stroke-width="2" d="M0-1h10.5" transform="matrix(.64124 .76734 -.78106 .62446 21.267 55)"/><path stroke="#fff" stroke-width="2" d="M0-1h10.5" transform="matrix(.64124 .76734 -.78106 .62446 20.52 69.778)"/><path stroke="#fff" stroke-width="2" d="M0-1h10.5" transform="matrix(.64124 .76734 -.78106 .62446 20.8 83.528)"/><path stroke="#fff" stroke-width="2" d="M0-1h10.5" transform="matrix(.64124 .76734 -.78106 .62446 20.899 94.903)"/><path stroke="#fff" stroke-width="2" d="M0-1h10.5" transform="matrix(.64124 .76734 -.78106 .62446 21.047 108.716)"/><path stroke="#fff" stroke-width="2" d="m0-1 10.5 3.294" transform="matrix(.64124 .76734 -.78106 .62446 20.573 120.886)"/><path stroke="#fff" stroke-width="2" d="M29 50v88"/><path stroke="#fff" stroke-width="30" d="M28 92h196"/><path stroke="url(#a)" stroke-dasharray="2 2" d="M32.5 78.5h245v28h-245z"/><path fill="#fff" d="M128.648 116.36 123.932 143h-4.104l4.716-26.64zm5.547 33.834q-1.512 0-2.657-.626a4.5 4.5 0 0 1-1.793-1.771q-.627-1.145-.626-2.614 0-2.008.928-3.672a7.1 7.1 0 0 1 2.592-2.635q1.663-.972 3.694-.972 1.512 0 2.678.648a4.5 4.5 0 0 1 1.815 1.771q.669 1.123.669 2.614 0 2.008-.972 3.672a7.2 7.2 0 0 1-2.635 2.635q-1.664.95-3.693.95m.302-2.073q1.232 0 2.246-.691a4.9 4.9 0 0 0 1.62-1.858 5.5 5.5 0 0 0 .584-2.484q0-1.49-.843-2.29-.842-.82-2.117-.82-1.253 0-2.246.712-.972.692-1.534 1.88a5.9 5.9 0 0 0-.54 2.505q0 1.447.778 2.247.8.799 2.052.799"/><defs><linearGradient id="a" x1="243" x2="59" y1="83.5" y2="78" gradientUnits="userSpaceOnUse"><stop stop-color="#fff"/><stop offset="1" stop-color="#999"/></linearGradient></defs></svg>