<svg xmlns="http://www.w3.org/2000/svg" width="300" height="200" fill="none" viewBox="0 0 300 200"><path fill="#000" d="M0 0h300v200H0z"/><path fill="url(#a)" d="M0 49h31v123H0z"/><path fill="url(#b)" d="M269 47h31v123h-31z"/><path fill="url(#c)" d="M31 72h238v70H31z"/><path fill="#000" d="M141.253 115h-1.671l9.248-17.454h1.704L153.986 115h-1.671l-2.906-15.383h-.111zm2.318-6.69h8.659l-.239 1.431h-8.659z"/><path fill="#fff" d="m133.227 62 2.898-17.455h1.594l-1.56 9.401h.162l10.074-9.4h2.096l-8.786 8.07L145.56 62h-1.944l-5.079-8.276-2.761 2.608-.955 5.668z"/><path fill="#f9ff4a" d="M145.327 166.545 142.429 184h-1.517l2.898-17.455zM31 157l10 5.774v-11.548zm236 0-10-5.773v11.547zm-227 0v1h218v-2H40z"/><path fill="#ff2727" d="m17.83 20.977.238-1.431h12.656l-.238 1.431h-5.532L22.297 37h-1.594l2.659-16.023zM29.871 40l.154-1.023 4.534-3.673q.81-.648 1.32-1.134.52-.485.793-.903.273-.426.341-.895.137-.817-.409-1.33-.537-.51-1.5-.51-.98 0-1.721.553-.734.555-.87 1.415h-1.38q.22-1.337 1.355-2.216 1.142-.885 2.744-.886 1.066 0 1.798.4.742.4 1.074 1.091.333.682.196 1.534-.102.63-.434 1.194-.324.554-.99 1.201-.663.64-1.772 1.526l-3.008 2.429v.06h5.565L37.474 40z"/><path fill="#78e3ea" d="m271.83 16.977.238-1.431h12.656l-.238 1.431h-5.531L276.295 33h-1.593l2.659-16.023zM286.293 36l1.5-9.034h-.086l-2.906 1.73.247-1.415 2.915-1.747h1.432L287.656 36z"/><defs><linearGradient id="a" x1="31" x2="0" y1="110.5" y2="110.5" gradientUnits="userSpaceOnUse"><stop stop-color="#ede97b"/><stop offset=".543" stop-color="#ff0d12"/><stop offset="1" stop-color="#99080b"/></linearGradient><linearGradient id="b" x1="300" x2="269" y1="108.5" y2="108.5" gradientUnits="userSpaceOnUse"><stop stop-color="#fff"/><stop offset=".543" stop-color="#9dd7de"/><stop offset="1" stop-color="#34b5be"/></linearGradient><linearGradient id="c" x1="31" x2="269" y1="107" y2="107" gradientUnits="userSpaceOnUse"><stop stop-color="#d9d9d9"/><stop offset="1" stop-color="#737373"/></linearGradient></defs></svg>