<svg xmlns="http://www.w3.org/2000/svg" width="300" height="200" fill="none" viewBox="0 0 300 200"><path fill="#000" d="M0 0h300v200H0z"/><path fill="#fff" d="m250 182-10-5.774v11.548zm-70 0v1h61v-2h-61zM275.205 178.455 267.648 193h-3.409l-2.728-14.545h3.182l1.705 11.363h.113l5.455-11.363z"/><circle cx="180.5" cy="85.5" r="80.5" stroke="#fff" stroke-width="4"/><path fill="#fff831" d="m180 82-5.774 10h11.548zm0 78 5.773-10h-11.547zm0-69h-1v60h2V91zM144.827 144l2.897-17.455h6.222q2.029 0 3.247.699 1.227.692 1.688 1.926.468 1.228.204 2.847-.273 1.602-1.15 2.813-.87 1.21-2.327 1.892-1.449.673-3.477.673h-4.713l.392-2.267h4.474q1.287 0 2.148-.367.861-.366 1.346-1.065.495-.7.648-1.679.162-.998-.094-1.713-.255-.724-.997-1.108-.741-.392-2.037-.392h-3.307L147.46 144zm9.92-7.875 3.009 7.875h-3l-2.932-7.875z"/><path stroke="#ff0004" stroke-width="3" d="M180 162.5c2.932 0 5.771 1.783 7.944 5.044 2.167 3.25 3.556 7.826 3.556 12.956s-1.389 9.706-3.556 12.956c-2.173 3.261-5.012 5.044-7.944 5.044s-5.771-1.783-7.944-5.044c-2.167-3.25-3.556-7.826-3.556-12.956s1.389-9.706 3.556-12.956c2.173-3.261 5.012-5.044 7.944-5.044Z"/><path fill="#fff" d="m26.227 56 2.898-17.455h10.1l-.24 1.432H30.48l-1.09 6.571h7.712l-.238 1.432H29.15L27.82 56zm14.485 0 2.181-13.09h1.526L42.237 56zm3.494-15.367q-.477 0-.81-.323a1.04 1.04 0 0 1-.315-.784q.017-.435.35-.75.34-.324.8-.324.478 0 .81.332a1 1 0 0 1 .315.784q-.008.435-.35.75-.34.316-.8.316m5.865 2.276 2.455 5.583 4.312-5.583h1.773l-5.318 6.571 3.12 6.52h-1.748l-2.471-5.395L47.924 56h-1.79l5.267-6.554-3.068-6.537zm14.97 13.364q-1.832 0-3.025-.853-1.194-.86-1.67-2.377-.478-1.526-.145-3.512.332-1.977 1.312-3.511.98-1.544 2.42-2.412a5.9 5.9 0 0 1 3.128-.878q1.065 0 1.995.392a3.9 3.9 0 0 1 1.576 1.185q.657.792.912 2.003.256 1.201-.017 2.846l-.12.75H61.182l.213-1.338h8.684q.213-1.26-.119-2.267-.333-1.005-1.133-1.594-.793-.596-1.97-.596-1.2 0-2.275.673a6.2 6.2 0 0 0-1.807 1.756 5.8 5.8 0 0 0-.946 2.292l-.17 1.006q-.273 1.662.068 2.787.341 1.116 1.236 1.688.894.57 2.292.57.937 0 1.697-.29a4.4 4.4 0 0 0 1.32-.775q.564-.494.904-1.082l1.355.469a5.4 5.4 0 0 1-1.227 1.525 6.2 6.2 0 0 1-1.867 1.125q-1.074.418-2.395.418m14.095 0q-1.612 0-2.685-.853-1.074-.852-1.5-2.377-.426-1.526-.094-3.554.341-2.02 1.27-3.537.938-1.526 2.293-2.37 1.363-.852 2.974-.852 1.201 0 1.918.426.725.418 1.1 1.04t.536 1.21h.137l1.142-6.86h1.525L84.854 56H83.38l.41-2.429h-.188a7.6 7.6 0 0 1-.964 1.227 5 5 0 0 1-1.448 1.049q-.861.426-2.054.426m.332-1.39q1.27 0 2.293-.69 1.03-.699 1.721-1.917.699-1.228.955-2.813.264-1.568-.009-2.77-.272-1.21-1.056-1.892-.785-.69-2.072-.69-1.304 0-2.318.716-1.014.706-1.679 1.917-.656 1.21-.912 2.72-.246 1.524 0 2.752.247 1.227 1.006 1.952.767.715 2.071.715M25.912 82l2.182-13.09h1.474l-.34 2.01h.11q.546-.989 1.628-1.593a4.7 4.7 0 0 1 2.327-.614q.188 0 .417.009.231 0 .384.017l-.264 1.542a13 13 0 0 0-.358-.05 4 4 0 0 0-.554-.035 4.2 4.2 0 0 0-1.892.435 4.1 4.1 0 0 0-1.45 1.184 3.9 3.9 0 0 0-.75 1.73L27.43 82zm9.315 0 2.182-13.09h1.526L36.753 82zm3.494-15.367q-.477 0-.81-.323a1.04 1.04 0 0 1-.315-.784q.017-.435.35-.75.34-.324.801-.324.477 0 .81.332a1 1 0 0 1 .315.784q-.008.435-.35.75-.34.315-.8.316m6.94 20.549q-1.338 0-2.293-.35-.954-.341-1.55-.937a3.7 3.7 0 0 1-.862-1.338l1.381-.81q.187.495.571.972t1.082.784q.699.315 1.833.315 1.73 0 2.974-.878 1.245-.87 1.551-2.693l.46-2.949h-.136a6.1 6.1 0 0 1-.937 1.194 4.9 4.9 0 0 1-1.458.98q-.86.392-2.037.392-1.567 0-2.659-.776-1.09-.776-1.542-2.216-.452-1.449-.111-3.451.324-1.987 1.244-3.495.929-1.508 2.284-2.352a5.56 5.56 0 0 1 2.983-.844q1.202 0 1.926.426.725.418 1.1 1.04.383.622.554 1.21h.153l.41-2.497h1.482l-2.216 13.432q-.28 1.662-1.159 2.736a5.24 5.24 0 0 1-2.181 1.585q-1.296.52-2.847.52m.92-6.708q1.262 0 2.267-.605 1.015-.613 1.696-1.747.69-1.141.946-2.727.255-1.535-.025-2.719-.273-1.193-1.065-1.875-.784-.69-2.063-.69-1.321 0-2.335.707-1.006.707-1.662 1.91a8.5 8.5 0 0 0-.895 2.667q-.239 1.5.017 2.65.264 1.142 1.04 1.79.775.64 2.08.64M56.636 82l2.182-13.09h1.525L58.161 82zm3.494-15.367q-.477 0-.81-.323a1.04 1.04 0 0 1-.315-.784q.017-.435.35-.75.34-.324.8-.324.479 0 .81.332a1 1 0 0 1 .316.784q-.008.435-.35.75-.34.315-.8.316m7.451 15.64q-1.611 0-2.685-.852-1.074-.853-1.5-2.378t-.093-3.554q.34-2.02 1.27-3.537.938-1.526 2.292-2.37 1.364-.852 2.975-.852 1.2 0 1.917.426.725.418 1.1 1.04.374.622.537 1.21h.136l1.142-6.86h1.526L73.3 82h-1.475l.41-2.429h-.188a7.6 7.6 0 0 1-.963 1.227 5 5 0 0 1-1.449 1.049q-.861.426-2.054.426m.332-1.39q1.27 0 2.293-.69 1.031-.699 1.722-1.917.699-1.228.954-2.813.264-1.568-.008-2.77-.273-1.21-1.057-1.892-.784-.69-2.071-.69-1.305 0-2.318.716-1.015.706-1.68 1.917-.655 1.21-.911 2.72-.248 1.525 0 2.752.247 1.227 1.005 1.952.768.715 2.071.715M26.227 108l2.898-17.454h1.594l-1.33 8.002h9.904l1.33-8.002h1.593L39.318 108h-1.594l1.33-8.02h-9.903L27.82 108zm23.271.273q-1.72 0-2.897-.87-1.176-.877-1.662-2.429t-.162-3.579q.324-1.977 1.287-3.477.972-1.509 2.386-2.344a5.9 5.9 0 0 1 3.077-.844q1.73 0 2.898.878 1.176.878 1.662 2.429.494 1.551.17 3.588-.324 1.97-1.295 3.469-.972 1.49-2.387 2.335a5.9 5.9 0 0 1-3.077.844m.018-1.389q1.396 0 2.488-.742 1.1-.75 1.815-1.994a8.2 8.2 0 0 0 .963-2.753q.23-1.432-.05-2.634-.282-1.2-1.083-1.926-.801-.724-2.13-.724-1.39 0-2.49.758-1.098.75-1.815 2.012a8 8 0 0 0-.954 2.744q-.24 1.44.034 2.634.28 1.192 1.082 1.909.81.716 2.14.716m14.882 1.389q-1.721 0-2.898-.87-1.176-.877-1.662-2.429-.485-1.551-.162-3.579.324-1.977 1.287-3.477.972-1.509 2.387-2.344a5.9 5.9 0 0 1 3.077-.844q1.73 0 2.897.878 1.176.878 1.662 2.429.495 1.551.17 3.588-.323 1.97-1.295 3.469-.972 1.49-2.386 2.335a5.9 5.9 0 0 1-3.077.844m.017-1.389q1.397 0 2.489-.742 1.1-.75 1.815-1.994a8.2 8.2 0 0 0 .963-2.753q.23-1.432-.05-2.634-.283-1.2-1.083-1.926-.802-.724-2.131-.724-1.39 0-2.489.758-1.1.75-1.815 2.012a8 8 0 0 0-.954 2.744q-.24 1.44.034 2.634.28 1.192 1.082 1.909.81.716 2.14.716m8.917 6.025 3.017-18h1.474l-.409 2.497h.18q.357-.588.928-1.21a4.8 4.8 0 0 1 1.44-1.04q.87-.426 2.08-.426 1.62 0 2.685.844 1.074.843 1.5 2.37.434 1.524.093 3.545-.331 2.028-1.27 3.554-.937 1.525-2.292 2.377a5.4 5.4 0 0 1-2.949.853q-1.185 0-1.918-.426-.724-.427-1.107-1.049a5 5 0 0 1-.554-1.227h-.137l-1.227 7.338zm3.426-11.446q-.255 1.585 0 2.813.255 1.218 1.031 1.917.776.69 2.046.691 1.304 0 2.326-.716 1.023-.725 1.705-1.952.681-1.227.938-2.753.239-1.509-.018-2.719-.255-1.21-1.022-1.917-.768-.716-2.088-.716-1.28 0-2.302.69-1.014.682-1.687 1.892-.673 1.202-.929 2.77"/><path fill="#ff797c" d="m99.227 189 2.898-17.455h5.634q1.857 0 2.991.665 1.142.665 1.577 1.85.443 1.176.196 2.71-.256 1.517-1.091 2.685a5.7 5.7 0 0 1-2.182 1.832q-1.355.656-3.196.656h-4.79l.247-1.457h4.748q1.371 0 2.352-.452a3.84 3.84 0 0 0 1.568-1.287q.588-.835.776-1.977.187-1.15-.128-2.003-.308-.852-1.142-1.321-.827-.469-2.208-.469h-3.997L100.821 189zm9-7.875 2.992 7.875h-1.833l-2.94-7.875zM114.79 189l2.181-13.091h1.526L116.315 189zm3.494-15.366q-.477 0-.81-.324a1.04 1.04 0 0 1-.315-.784q.017-.435.349-.75.342-.324.801-.324.478 0 .81.332a1 1 0 0 1 .315.784q-.008.435-.349.75-.34.316-.801.316m5.635 7.184L122.564 189h-1.517l2.182-13.091h1.474l-.34 2.054h.136a4.54 4.54 0 0 1 1.696-1.611q1.09-.613 2.531-.613 1.313 0 2.216.554.912.545 1.296 1.61.391 1.066.136 2.617l-1.423 8.48h-1.517l1.397-8.386q.264-1.603-.468-2.54-.725-.946-2.242-.946-1.031 0-1.918.443a4.1 4.1 0 0 0-1.482 1.278q-.606.828-.802 1.969m15.923 13.364q-1.338 0-2.293-.35-.954-.34-1.551-.937a3.7 3.7 0 0 1-.861-1.338l1.381-.81q.187.495.571.972t1.082.784q.699.315 1.833.315 1.73 0 2.974-.878 1.245-.869 1.551-2.693l.461-2.949h-.137a6 6 0 0 1-.937 1.193 4.9 4.9 0 0 1-1.458.981q-.861.392-2.037.392-1.567 0-2.659-.776-1.09-.776-1.542-2.216-.451-1.448-.111-3.452.324-1.985 1.244-3.494.929-1.509 2.284-2.352a5.56 5.56 0 0 1 2.983-.844q1.202 0 1.926.426.725.418 1.1 1.04.383.622.554 1.21h.153l.409-2.497h1.483l-2.216 13.432q-.281 1.662-1.159 2.736a5.24 5.24 0 0 1-2.182 1.585q-1.295.52-2.846.52m.92-6.708q1.262 0 2.267-.605 1.014-.613 1.696-1.747.691-1.141.946-2.727.256-1.534-.025-2.719-.273-1.192-1.066-1.875-.784-.69-2.062-.69-1.321 0-2.335.707-1.006.708-1.662 1.909a8.5 8.5 0 0 0-.895 2.668q-.239 1.5.017 2.65.264 1.143 1.04 1.79.775.639 2.079.639"/></svg>