<svg xmlns="http://www.w3.org/2000/svg" width="300" height="200" fill="none" viewBox="0 0 300 200"><path fill="#000" d="M0 0h300v200H0z"/><path fill="url(#a)" d="M0 162h300v28H0z"/><path fill="#fff" d="m208 76-11.532-.594 5.252 10.284zm-94 48 .455.891 85.984-43.907-.454-.891-.455-.89-85.985 43.906z"/><path fill="#fff831" d="m281 144-10-5.774v11.548zm-166 0v1h157v-2H115z"/><path fill="#fff" d="m147.827 91 2.897-17.454h10.824l-.375 2.266h-8.19l-.886 5.319h7.414l-.375 2.258h-7.414L150.46 91z"/><path fill="#fff831" d="m200.261 135 2.444-14.545h2.897l-.397 2.443h.113q.683-1.321 1.818-1.96 1.137-.654 2.33-.654.597 0 1.065.128.47.114.81.327l-1.364 2.5a2.4 2.4 0 0 0-.596-.199 3.2 3.2 0 0 0-.767-.085q-1.407 0-2.515.937-1.094.923-1.349 2.415L203.273 135z"/><rect width="79" height="65" x="36" y="97" fill="url(#b)" rx="6"/><defs><linearGradient id="a" x1="146.5" x2="146.5" y1="162" y2="190" gradientUnits="userSpaceOnUse"><stop stop-color="#a76702"/><stop offset="1"/></linearGradient><linearGradient id="b" x1="75.5" x2="75.5" y1="97" y2="162" gradientUnits="userSpaceOnUse"><stop stop-color="#ff8feb"/><stop offset="1" stop-color="#930078"/></linearGradient></defs></svg>