<svg xmlns="http://www.w3.org/2000/svg" width="300" height="200" fill="none" viewBox="0 0 300 200"><path fill="#000" d="M0 0h300v200H0z"/><circle cx="192.5" cy="97.5" r="96" stroke="#fff" stroke-width="3"/><circle cx="193.5" cy="95.5" r="76" stroke="#fff" stroke-width="3"/><path fill="#fff831" d="m193 86-5.774 10h11.548zm0 78 5.773-10h-11.547zm0-69h-1v60h2V95zM167.827 139l2.897-17.455h6.222q2.029 0 3.247.699 1.227.691 1.688 1.926.468 1.228.204 2.847-.273 1.602-1.15 2.813-.87 1.21-2.327 1.892-1.449.673-3.477.673h-4.713l.392-2.267h4.474q1.287 0 2.148-.367.861-.366 1.346-1.065.495-.7.648-1.679.162-.998-.094-1.713-.255-.724-.997-1.108-.741-.392-2.037-.392h-3.307L170.46 139zm9.92-7.875 3.009 7.875h-3l-2.932-7.875z"/><path fill="#fff" d="m8.227 44 2.898-17.454h10.1l-.24 1.431H12.48l-1.09 6.571h7.712l-.238 1.432H11.15L9.82 44zm14.485 0 2.181-13.09h1.526L24.237 44zm3.494-15.366q-.477 0-.81-.324a1.04 1.04 0 0 1-.315-.784q.017-.435.35-.75.34-.324.8-.324.477 0 .81.332a1 1 0 0 1 .315.784q-.008.435-.35.75-.34.316-.8.316m5.865 2.275 2.455 5.583 4.312-5.583h1.773l-5.318 6.571 3.12 6.52h-1.748l-2.471-5.395L29.924 44h-1.79l5.267-6.554-3.068-6.537zm14.97 13.364q-1.832 0-3.025-.853-1.194-.86-1.67-2.377-.478-1.526-.145-3.512.332-1.977 1.312-3.511.98-1.544 2.42-2.412a5.9 5.9 0 0 1 3.128-.878q1.065 0 1.995.392a3.9 3.9 0 0 1 1.576 1.185q.657.792.912 2.003.255 1.201-.017 2.846l-.12.75H43.182l.213-1.338h8.684q.214-1.26-.119-2.267-.333-1.005-1.134-1.594-.792-.596-1.968-.596-1.202 0-2.276.673a6.2 6.2 0 0 0-1.807 1.756 5.8 5.8 0 0 0-.946 2.292l-.17 1.006q-.273 1.662.068 2.787.341 1.116 1.236 1.688.894.57 2.292.57.938 0 1.697-.29a4.4 4.4 0 0 0 1.32-.775q.564-.494.904-1.082l1.355.469a5.4 5.4 0 0 1-1.227 1.525 6.2 6.2 0 0 1-1.867 1.125q-1.074.418-2.395.418m14.095 0q-1.612 0-2.685-.853-1.074-.852-1.5-2.377-.426-1.526-.094-3.554.34-2.02 1.27-3.537.938-1.526 2.293-2.37 1.363-.852 2.974-.852 1.201 0 1.918.426.725.418 1.1 1.04t.536 1.21h.137l1.142-6.86h1.525L66.854 44H65.38l.41-2.429h-.188a7.6 7.6 0 0 1-.964 1.227 5 5 0 0 1-1.448 1.049q-.861.426-2.054.426m.332-1.39q1.27 0 2.293-.69 1.03-.699 1.721-1.917.699-1.228.955-2.813.264-1.568-.009-2.77-.272-1.21-1.056-1.892-.785-.69-2.072-.69-1.304 0-2.318.716-1.014.706-1.679 1.917-.655 1.21-.912 2.72-.246 1.524 0 2.752.247 1.227 1.006 1.952.767.715 2.071.715M23.866 58h-1.585a4.4 4.4 0 0 0-.358-1.653 4.08 4.08 0 0 0-2.352-2.225q-.818-.315-1.832-.315-1.671 0-3.196.878-1.525.869-2.625 2.557t-1.5 4.125q-.401 2.403.128 4.048.527 1.635 1.73 2.48 1.209.843 2.838.844 1.04 0 1.994-.316a6.7 6.7 0 0 0 1.756-.877 6.8 6.8 0 0 0 1.406-1.339 6.1 6.1 0 0 0 .937-1.661h1.603a8.7 8.7 0 0 1-1.168 2.24 8.6 8.6 0 0 1-1.773 1.808 8.1 8.1 0 0 1-2.241 1.21 7.7 7.7 0 0 1-2.591.435q-2.233 0-3.776-1.117-1.534-1.117-2.181-3.145-.64-2.037-.18-4.798.452-2.71 1.73-4.705 1.288-1.995 3.154-3.076a7.9 7.9 0 0 1 4.057-1.091q1.398 0 2.506.434a5.3 5.3 0 0 1 1.883 1.21q.784.777 1.202 1.807.417 1.032.434 2.242m2.197 12 2.182-13.09h1.525L27.59 70zm3.494-15.367q-.477 0-.81-.323a1.04 1.04 0 0 1-.315-.784q.017-.435.35-.75.34-.324.8-.324.48 0 .81.332a1 1 0 0 1 .316.784q-.008.435-.35.75-.34.316-.8.316M32.321 70l2.182-13.09h1.474l-.341 2.01h.11q.546-.989 1.629-1.593a4.67 4.67 0 0 1 2.326-.614q.188 0 .418.009.23 0 .383.017l-.264 1.542a13 13 0 0 0-.358-.05 4 4 0 0 0-.554-.035q-1.022 0-1.892.435a4.1 4.1 0 0 0-1.448 1.184 3.9 3.9 0 0 0-.75 1.73L33.838 70zm13.979.273q-1.773 0-2.923-.878-1.15-.877-1.611-2.403-.452-1.534-.128-3.478.324-1.977 1.304-3.503.98-1.534 2.42-2.403a6 6 0 0 1 3.162-.878q1.322 0 2.301.512.981.503 1.517 1.423.537.912.512 2.13H51.32q-.06-1.133-.827-1.909-.758-.775-2.148-.775a4.33 4.33 0 0 0-2.352.682q-1.082.673-1.832 1.883-.742 1.202-.997 2.787-.273 1.594.05 2.821.325 1.219 1.16 1.91.844.69 2.13.69.879 0 1.654-.324a4.3 4.3 0 0 0 1.372-.938q.597-.614.912-1.44h1.534q-.384 1.193-1.21 2.114a5.9 5.9 0 0 1-1.96 1.448q-1.143.53-2.506.529m18.145-5.276L65.8 56.91h1.517L65.135 70h-1.517l.358-2.173h-.11q-.615 1.005-1.74 1.679-1.116.665-2.556.665-1.254 0-2.14-.546-.877-.555-1.252-1.62t-.12-2.616l1.424-8.48h1.517L57.6 65.296q-.247 1.533.494 2.471.75.93 2.165.929a4.06 4.06 0 0 0 1.773-.426 4.4 4.4 0 0 0 1.55-1.244q.666-.828.862-2.029m9.841-12.452L71.388 70h-1.517l2.898-17.455zm5.459 17.753q-1.185 0-2.088-.46a3.03 3.03 0 0 1-1.347-1.346q-.435-.887-.239-2.148.171-.971.648-1.637a3.9 3.9 0 0 1 1.227-1.09 6.6 6.6 0 0 1 1.705-.682q.962-.247 2.097-.375 1.107-.136 1.892-.239t1.218-.324a.94.94 0 0 0 .52-.716l.051-.307q.222-1.338-.409-2.105-.63-.775-2.113-.775-1.416 0-2.455.63-1.031.623-1.534 1.458l-1.347-.52q.614-1.074 1.509-1.713a5.9 5.9 0 0 1 1.918-.93 7.4 7.4 0 0 1 2.02-.289q.75 0 1.525.196.775.195 1.39.682.621.477.911 1.338.298.852.085 2.165L85.446 70H83.93l.35-2.071h-.094a5 5 0 0 1-.989 1.125 5.2 5.2 0 0 1-1.491.895q-.87.35-1.96.35m.383-1.389q1.21 0 2.19-.537a4.7 4.7 0 0 0 1.62-1.423 4.7 4.7 0 0 0 .818-1.969l.315-1.892q-.188.162-.613.29a9 9 0 0 1-.946.23q-.52.094-1.049.162l-.92.12q-1.134.135-1.977.425-.836.29-1.338.802-.504.502-.631 1.295-.195 1.193.52 1.85.724.647 2.011.647M90.202 70l2.182-13.09h1.474l-.34 2.01h.11q.546-.989 1.628-1.593a4.7 4.7 0 0 1 2.327-.614q.188 0 .417.009.23 0 .384.017l-.264 1.542a13 13 0 0 0-.358-.05 4 4 0 0 0-.554-.035 4.2 4.2 0 0 0-1.892.435 4.1 4.1 0 0 0-1.45 1.184 3.9 3.9 0 0 0-.75 1.73L91.72 70zM19.86 83.003q.06-1.534-.912-2.404-.963-.87-2.702-.869-1.21 0-2.216.426-.997.418-1.645 1.15a3.3 3.3 0 0 0-.792 1.671q-.111.69.102 1.21.213.512.656.887t1.015.64a9 9 0 0 0 1.176.442l1.764.529q.784.23 1.56.588.775.358 1.38.895.606.537.895 1.32.299.784.12 1.876a5.4 5.4 0 0 1-1.143 2.53q-.894 1.11-2.352 1.757t-3.366.647q-1.782 0-3-.588-1.219-.596-1.799-1.645-.58-1.047-.443-2.429h1.636q-.093 1.032.384 1.748.486.715 1.38 1.09.904.367 2.08.367 1.305 0 2.395-.435 1.091-.442 1.798-1.227a3.54 3.54 0 0 0 .887-1.84q.153-.888-.213-1.492-.358-.606-1.117-1.015a9 9 0 0 0-1.79-.733l-1.994-.613q-1.952-.597-2.906-1.68-.946-1.08-.673-2.76.239-1.415 1.167-2.48a6.4 6.4 0 0 1 2.327-1.671 7.5 7.5 0 0 1 3-.597q1.627 0 2.77.605 1.15.605 1.704 1.67.563 1.057.418 2.43zm8.28-4.457L25.243 96h-1.517l2.897-17.454zm6.984 17.727q-1.722 0-2.898-.87-1.176-.878-1.662-2.429t-.162-3.58q.324-1.976 1.287-3.476.972-1.509 2.386-2.344a5.9 5.9 0 0 1 3.077-.844q1.731 0 2.898.878 1.176.878 1.662 2.429.495 1.551.17 3.588-.324 1.97-1.295 3.469-.972 1.491-2.387 2.335a5.87 5.87 0 0 1-3.076.844m.017-1.39q1.397 0 2.488-.741 1.1-.75 1.816-1.994a8.2 8.2 0 0 0 .963-2.753q.23-1.432-.051-2.634-.282-1.2-1.083-1.926-.801-.724-2.13-.724-1.39 0-2.49.758-1.098.75-1.814 2.012a8 8 0 0 0-.955 2.744q-.24 1.44.034 2.633.281 1.194 1.082 1.91.81.715 2.14.715M52.215 82.91l-.213 1.321h-6.256l.221-1.32zm-3.784-3.136h1.525l-2.13 12.81q-.137.818.068 1.286.204.46.63.657.426.187.938.187.299 0 .511-.034.222-.043.392-.085l.111 1.372q-.247.086-.588.153-.34.078-.818.077a3.3 3.3 0 0 1-1.543-.367 2.43 2.43 0 0 1-1.074-1.09q-.367-.725-.196-1.799z"/><circle cx="194" cy="182" r="11" fill="url(#a)"/><path fill="#fff" d="m273 182-5-2.887v5.774zm-70 0v.5h65.5v-1H203zM298.205 178.455 290.648 193h-3.409l-2.728-14.545h3.182l1.705 11.363h.113l5.455-11.363z"/><defs><linearGradient id="a" x1="194" x2="194" y1="171" y2="193" gradientUnits="userSpaceOnUse"><stop stop-color="#ff8feb"/><stop offset="1" stop-color="#ca2aad"/></linearGradient></defs></svg>