<svg xmlns="http://www.w3.org/2000/svg" width="300" height="200" fill="none" viewBox="0 0 300 200"><path fill="#000" d="M0 0h300v200H0z"/><circle cx="146.5" cy="96.5" r="95.5" stroke="#fff" stroke-dasharray="5 5" stroke-width="2"/><path fill="#fff" d="m140 100-11.53-.632 5.218 10.301zm-77 39 .452.892 68.971-34.933-.452-.892-.452-.893-68.97 34.934zM94.827 105l2.897-17.454h10.824l-.375 2.266h-8.19l-.886 5.319h7.414l-.375 2.258h-7.414L97.46 105z"/><path fill="#fff831" d="m191.827 90 2.897-17.454h6.222q2.029 0 3.247.698 1.227.69 1.688 1.927.468 1.227.204 2.846-.273 1.602-1.15 2.813-.87 1.21-2.327 1.892-1.449.673-3.477.673h-4.713l.392-2.267h4.474q1.287 0 2.148-.367t1.346-1.065q.495-.698.648-1.679.162-.998-.094-1.713-.255-.724-.997-1.108-.741-.392-2.037-.392h-3.307L194.46 90zm9.92-7.875L204.756 90h-3l-2.932-7.875z"/><circle cx="62.5" cy="138.5" r="22.5" fill="url(#a)"/><path stroke="#fff831" stroke-width="2" d="M155 99h88"/><defs><linearGradient id="a" x1="62.5" x2="62.5" y1="116" y2="161" gradientUnits="userSpaceOnUse"><stop stop-color="#ff8feb"/><stop offset="1" stop-color="#99568d"/></linearGradient></defs></svg>