<svg xmlns="http://www.w3.org/2000/svg" width="300" height="200" fill="none" viewBox="0 0 300 200"><path fill="#000" d="M0 0h300v200H0z"/><path fill="#fff" d="m220 179-10-5.774v11.548zm-70 0v1h61v-2h-61zM245.205 175.455 237.648 190h-3.409l-2.728-14.545h3.182l1.705 11.363h.113l5.455-11.363z"/><path stroke="url(#a)" stroke-width="8" d="M151 160V89"/><circle cx="150" cy="89" r="88" stroke="#fff" stroke-dasharray="4 4" stroke-width="2"/><circle cx="150" cy="175" r="19" fill="url(#b)"/><path fill="#fff831" d="m131 90-5.774 10h11.548zm0 78 5.773-10h-11.547zm0-69h-1v60h2V99zM119.511 118.625 116.273 138h-3.012l3.239-19.375z"/><path fill="#fff" d="m165.227 123 2.898-17.455h5.634q1.857 0 2.991.665 1.142.665 1.577 1.85.443 1.176.196 2.71-.256 1.517-1.091 2.685a5.7 5.7 0 0 1-2.182 1.832q-1.355.656-3.196.656h-4.79l.247-1.457h4.748q1.371 0 2.352-.452a3.84 3.84 0 0 0 1.568-1.287q.588-.835.776-1.977.187-1.15-.128-2.003-.308-.852-1.142-1.321-.827-.468-2.208-.469h-3.997L166.821 123zm9-7.875 2.992 7.875h-1.833l-2.94-7.875zm11.553 8.148q-1.722 0-2.898-.87-1.176-.877-1.662-2.429t-.162-3.579q.324-1.977 1.287-3.477.972-1.509 2.386-2.344a5.9 5.9 0 0 1 3.077-.844q1.73 0 2.898.878 1.176.878 1.662 2.429.494 1.551.17 3.588-.324 1.97-1.295 3.469-.971 1.49-2.387 2.335a5.87 5.87 0 0 1-3.076.844m.017-1.389q1.398 0 2.488-.742 1.1-.75 1.816-1.994a8.2 8.2 0 0 0 .963-2.753q.23-1.432-.051-2.634t-1.083-1.926q-.801-.724-2.13-.724-1.39 0-2.489.758-1.1.75-1.815 2.012a8 8 0 0 0-.955 2.744q-.239 1.44.034 2.634.281 1.192 1.083 1.909.808.716 2.139.716m14.422 1.389q-1.611 0-2.685-.853-1.072-.852-1.5-2.377-.426-1.526-.093-3.554.34-2.02 1.27-3.537.938-1.525 2.292-2.37a5.5 5.5 0 0 1 2.975-.852q1.202 0 1.917.426.725.418 1.1 1.04t.537 1.21h.136l1.142-6.861h1.526L205.938 123h-1.475l.41-2.429h-.188a7.5 7.5 0 0 1-.963 1.227 5.1 5.1 0 0 1-1.449 1.049q-.86.426-2.054.426m.333-1.389q1.269 0 2.292-.691 1.031-.699 1.722-1.917.699-1.228.954-2.813.265-1.568-.008-2.77-.273-1.21-1.057-1.892-.784-.69-2.071-.69-1.304 0-2.318.716-1.014.707-1.679 1.917-.657 1.21-.912 2.719-.247 1.526 0 2.753t1.005 1.952q.767.716 2.072.716"/><defs><linearGradient id="a" x1="155.5" x2="155.5" y1="89" y2="160" gradientUnits="userSpaceOnUse"><stop stop-color="#b2532a"/><stop offset="1" stop-color="#4c3c12"/></linearGradient><linearGradient id="b" x1="150" x2="150" y1="156" y2="194" gradientUnits="userSpaceOnUse"><stop stop-color="#ff8feb"/><stop offset="1" stop-color="#ca2aad"/></linearGradient></defs></svg>