<svg xmlns="http://www.w3.org/2000/svg" width="300" height="200" fill="none" viewBox="0 0 300 200"><path fill="#000" d="M0 0h300v200H0z"/><path fill="url(#a)" d="m29.707 168.713-1.414-1.414c-4.517-4.912-6.66-7.481-6.455-7.686a244 244 0 0 1 9.843-9.255c28.81-25.777 65.626-44.951 105.563-48.28 48.996-4.674 97.243 16.662 132.082 48.279a247 247 0 0 1 10.452 9.871l-15.556 15.556a225 225 0 0 0-9.526-8.996c-31.804-28.756-73.606-46.76-115.561-42.791-34.259 2.849-66.65 19.386-92.837 42.804a222 222 0 0 0-8.957 8.422c-.188.187-2.724-1.992-7.634-6.51"/><circle cx="149.5" cy="76.5" r="25.5" fill="url(#b)"/><defs><linearGradient id="a" x1="155" x2="151" y1="104.5" y2="172" gradientUnits="userSpaceOnUse"><stop stop-color="#ffc568"/><stop offset="1" stop-color="#764900"/></linearGradient><linearGradient id="b" x1="149.5" x2="149.5" y1="51" y2="102" gradientUnits="userSpaceOnUse"><stop stop-color="#ff8feb"/><stop offset="1" stop-color="#ca2aad"/></linearGradient></defs></svg>