<svg xmlns="http://www.w3.org/2000/svg" width="300" height="200" fill="none" viewBox="0 0 300 200"><path fill="#000" d="M0 0h300v200H0z"/><path fill="#fff" d="m66 17-5.773 10h11.547zm0 142h1V26h-2v133z"/><path fill="#fff" d="m266 159-10-5.774v11.548zm-201 0v1h192v-2H65zM38.244 104l-1.943-17.454h2.77l1.16 13.516h.161l5.778-13.516h2.745l1.295 13.525h.17l5.626-13.525h2.778L51.037 104h-2.65l-1.492-13.074h-.137L40.903 104zM171.466 175.455l-.398 2.329h-7.898l.398-2.329zm-5.284-3.466h3.011l-2.329 13.92q-.171.98.312 1.364.483.397 1.165.397.256 0 .525-.042.285-.029.498-.071l.17 2.329a8 8 0 0 1-.824.185q-.355.057-1.165.099-1.832.043-2.968-.866-1.122-.909-.782-2.997z"/><path fill="#000" d="M113.583 33.457c-.644 1.557-1.905 3.499-2.978 4.966-.336.459-.589.016-.837.326-.487.61-.615 1.343-1.124 1.942-.17.197-.637-.38-.803-.164l-.146.197c-.435.66-.793 1.259-1.047 1.724-.124.224-.225.428-.242.457-.007.007.01-.022.074-.247.024-.273.313-.553.062-2.277-.035-.114-.051-.212-.222-.62-.217-.353-.457-1.463-2.475-2.573-2.152-1.047-3.986-.304-4.401-.092-.587.295-.694.443-.773.516-.07.078-.05.085-.01.067.183-.095.624-.53 1.028-.972.838-.915 1.733-2.013 2.649-3.123 1.847-2.23 3.751-4.583 6.22-6.859.422-.387.864-.763 1.16-1.015.069-.058.129-.11.128-.103-.001.006-.018.025-.087.11-.041.05-.084.102-.177.235-.045.065-.093.135-.169.263-.073.127-.151.257-.272.541a4.438 4.438 0 0 0-.334 1.382c-.085.707.106 2.133.946 3.17.827 1.036 1.652 1.342 2.079 1.504.457.16.78.201.969.224.785.065.845-.004.976-.01.191-.034.148-.038.112-.032-.638.124-1.293.277-1.959.45-2.168.551-4.983 1.055-7.521 2.253-.304.14.074.632.029.699-.78 1.044-.805-.198-1.591-.139-.397.027-.821.067-1.438.082a7.6 7.6 0 0 1-1.94-.197c-.83-.193-1.937-.68-2.75-1.664-1.556-2.102-1.107-3.527-1.051-4.41.31-1.792.774-2.863 1.143-3.968.37-1.022-1.154-.55-.083-1.248.073-.046.514.474.703.245.425-.522.907-1.63 1.196-2.025.557-.76.631-.893 1.098-1.634.649-1.013 1.679-2.005 2.311-3.137.134-.241-.609-.308-.429-.746q.041-.097.112-.217c.492-.817 1.67-1.77 2.165-1.935.58-.218.644.356.792.394 1.137.377 2.076-1.456 2.32-1.556 3.667-1.739 6.626-.83 9.623-.637 2.296.184 4.722.32 6.903.908l.317.09c2.378.707 4.23 1.715 6.403 2.528.237.09.242-.723.537-.612 1.06.394 2.339.945 2.912 1.172.41.145.984.372 1.63 1 .773.592 1.436 2.59 1.161 3.54a4.1 4.1 0 0 1-.664 1.685 4.4 4.4 0 0 1-.439.553c-.278.294-.408.392-.555.513a6 6 0 0 1-.368.272 8 8 0 0 1-.546.343c-.169.097-.317.177-.459.25-.578.299-1.105.527-1.616.732a27 27 0 0 1-3.073 1.012c-.325.086-.2-.693-.541-.643-2.032.303-5.387.27-5.381 3.38-1.274.396-2.814.885-4.138.783-.843-.07-.418-1.013-1.181-.381-.174.142.317.628.037.797-1.15.7-2.602 1.045-3.709 1.822-.229.16.044.663.008.785-.294 1-1.792.111-2.039.099-1.92-.058-3.012.667-4.568 1.234a.2.2 0 0 0-.048.024c-.246.165.362.667.041.812-1.733.769-3.606 1.405-5.452 1.746-.416.077-.289-.665-.5-.66-.917.03-.66 1.242-1.527 1.293-.18.012-.29-.54-.342-.586-.814-.71-.725.71-.83.784-1.346.971-2.827.04-4.144.845-.153.097.502.571.057.804q-.84.442-1.673.89c-.627.327-1.132.49-1.474.614-.339.11-.514.227-.31.069.098-.1.303-.274.437-.795.162-.517-.097-1.349-.364-1.59-.228-.234-.329-.197-.25-.132.072.07.266.172.499.263.471.185 1.098.346 1.733.493.492.108.117.62.143.686.493 1.037.886-.322 1.044-.372 1.313-.36 2.658.72 3.502-.946 1.181.052 2.365.024 3.56-.04 4.584-.25 9.016-1.324 13.767-1.227.076 0 .097.683.247.68 1.824-.041 1.252-.98 2.069-2.498.198-.38 1.454.88 1.563.967.39.325.355 1.367.471 1.42.953.396-.042-2.75.986-3.04.034-.005.063.618.167.651.326.105.522-.203.849-.08.74.286 1.424 1.756 2.086.577.083-.153-.651-1.881.294-2.086.376-.077 1.98-.637 2.465-.677.493-.04.377.636.418.65 1.481.333 1.119.806 2.136 1.7 1.011.887-.1-1.694.039-2.077a.24.24 0 0 1 .14-.138c.347-.15 1.161.068 1.413.176.299.132.162.593.402.64 1.599.298.072-1.516.339-2.094.626-1.368 2.169.265 3.168.115.273-.041-.097-.41.113-.534.844-.486 1.6-.064 2.446-.967.137-.148.613-1.612 1.435-.9.116.104.045.666.469.66.633-.008 1.711-.194 2.297-.529.432-.247-.324-.93.338-.83.288.047-.064.654.466.704.536.046 1.768-.28 2.238-.408.469-.129.063-.698.091-.75.182-.3 1.024-.813 1.105-.83a23 23 0 0 1 1.68-.341c3.477-.573 6.875-.494 10.229-1.474.307-.089-.033-.718.012-.738 1.008-.49.512 1.458 1.379 1.908-.373-1.34.114-1.18.834-1.473.351-.143.051-.632.073-.693.385-.904.952.06 1.092.253.508.71.707-.28 1.054.194.34.471-.074 1.341.645 1.197.11-.525-.659-1.7-.153-2.009 1.928-1.172 5.983-.84 7.675-.986 1.685-.152 2.219-.316 3.226-.27 1.808.1 1.048-.775 2.126-1.336 1.096-.55.764 1.862.969 2.353.096.236.172.237.248.202.031-.015.037.037.214-.1a.34.34 0 0 0 .1-.23c-.001-.11-.026-.142-.049-.185-.047-.074-.083-.092-.106-.109-.087-.048-.085-.036-.095-.04l-.044-.004-.049.004a.4.4 0 0 1-.08.006c-.053-.004-.096-.027-.145-.106-.169-.3.317-.597-.166-.752-.477-.155-1.78.68-1.961 1.204-.399 1.11.107 2.316-1.058 1.85-.068-.028.18-.641-.079-.715-2.058-.56-4.236-.636-6.318-1.093-.29-.064-.019-.753-.189-.797-1.744-.469-1.121.708-2.107 1.993.194-1.452-.119-2.434-1.043-2.722a2 2 0 0 0-.56-.087c-.809-.014-.667.742-1.188 1.268-.155.16-.723-.363-.823-.009-.344 1.156.179 2.457-1.187 1.93-.059-.024.135-.657-.07-.697-1.34-.26-1.508.95-2.953 1.088-1.136.108-3.152-.642-4.442-.769.037-1.94-1.185-1.502-1.688-.167-.838-.059-1.747.012-2.554-.177-.278-.064-.092-.625-.127-.686-.537-.955-.907.345-1.088.395-1.965.485-3.554-.51-5.438.44-.067.035-.189 1.382-.681.394-.031-.068.586-.677-.286-.73-.891-.054-2.541-.79-3.775-.18-.29.147-1.054 1.232-1.657.368-.079-.117.015-.503-.097-.72-.339-.69-.611.668-1.002-.498-.197-.48-.403-.912-.751-1.205a2 2 0 0 0-.238-.19 2 2 0 0 0-.28-.13 1.2 1.2 0 0 0-.27-.063c-.02-.002-.106-.01-.047.004l.032.008c.005.004.01-.004.155.05.073.034.18.056.395.262a1.15 1.15 0 0 1 .182 1.366c-.237.38-.411.416-.5.472-.113.05-.094.038-.111.045a1 1 0 0 1-.12.03c-.055.007-.046-.003-.024-.011.031-.026.151-.07.238-.12l.298-.192c.038-.025.266-1.118.659-1.116.657.002 1.481.202 2.162.175.304-.013.09-.677.142-.691 2.056-.434 3.567.13 5.803.34.414.039 1.577-.9 2.369-.194.877.773.08 4.082 2.039 3.257.812-.33 1.737-4.525 3.226-2.39 2.795-.59 5.412.469 8.213-.348.126-.036.505-1.208.806-1.198.45.018.694.558 1.009.589 1.327.14 2.519-.347 3.807-.297.482.017.322.584.898.605.574.021.954-.728 1.739-.383.591.263 1.207 1.769 1.999 1.932.008-1.496.537-1.474 1.489-1.886.182-.08-.024-.597.062-.661.349-.274.689.151 1.019-.146.08-.072.075-.583.14-.67.552-.762 1.509.37 1.675.568.634.75.904.08 1.382.371s-.222.677.332.85c1.155.355 2.613.248 3.78.252.461-.002.135-.678.201-.695.951-.189 1.936.52 2.443-.847.722 3.5.569-.35 1.952.33.109.055.274 1.713-.136 1.963-.411.251-1.048-.257-1.614.132-.133.092-.888 1.66-.993 1.756-.821.751-.98-1.728-1.026-1.863-.523-1.462-1.448.23-1.697.35-1.138.55-2.118.217-3.071.613-.623.255-.654 1.88-1.148 1.84-1.648-.137-2.249-2.394-3.763-.402-.324.425.039 2.195-1.171.82-.077-.087-.983-1.35-1.475-.533-.061.103-.05.62-.133.666-.552.29-.947-.115-1.557.093-.612.209-1.339.516-2.05.353-.427-.098-.983-1.053-1.188-1.285-.581-.67-1.184.456-1.55-.361-.371-.822.301-2.091-.639-2.61-.01 1.346-.065 2.728-.096 4.081-2.065-.01-4.078-.409-6.139-.31-.252.013.02.731-.251.764-1.169.137-2.175-.36-3.369-.131-.924.18-1.906.965-2.89 1.177-.619-1.527-2.048-.975-3.093-1.093-.37-.04-.354-.452-.615-.58-.97-.476-.498.874-.762 1.094-1.135.94-1.315-2.136-2.652-2.029-.082.005-.923 1.667-1.029 1.772-.763.686-.145-.567-.635-.676-.845-.2-1.519-.574-2.495-.063-.32.153-.981 1.198-1.559.43-.079-.1-.062-.643-.122-.672-.381-.196-.736-.025-.633.255.023.024.066.048.16.063.1.01.224.03.584-.049q.069-.015.154-.04c-.032 0 .297-.038 1.017-.518.355-.262.917-.663 1.423-1.68.537-.981.541-2.74-.001-3.733-1.129-1.967-1.9-1.903-2.242-2.144-.367-.154-.562-.197-.663-.226l-.159-.071a.8.8 0 0 1-.212-.136c-.151-.155-.072-.291-.056-.434.079-.282.174-.552.354-.72.578-.555 1.497.637 1.712.98.492.885-.41.368-.44.453-.349 1.018.373.856.91.95.069 1.672.819 1.582.566.091-.031-.163-.447-.013-.566-.091.51-1.632 1.337-1.831 2.262-.29.422.723.021 1.556 1.341 1.262.614-.133.387-1.286.917-1.595 1.223-.706 2.81.378 4.06.216.462-.058.018-.691.331-.753.822-.166 1.552.31 2.387.073.076-.022-.106-.682.155-.69 1.959-.065 3.665.365 5.714.388.989.01 2.767-.344 3.788-.265 1.777.133 3.965 1.107 5.489.886.992-.14.777-.802 1.213-1.247a.8.8 0 0 1 .711-.248c.781.096 1.614 1.023 1.758 1.205.01.008-.86.153-.4.497.26.709.39-.494.4-.497.111.157 1.854.332 2.179.212.191-.066.096-.692.195-.714 2.32-.517 4.623-.627 7.051-.214.043.015-.062.71.043.736.443.122.847.127 1.254.07q.297-.047.632-.126c.116-.025.23-.052.379-.076.071-.012.162-.021.264-.028.072 0 .121-.004.242.007.074.008.114.01.268.038.095.02.207.043.412.104l.084.026c.024.008.154.052.267.096.257.122.553.16 1.432.842.415.38 1.188.954 1.712 2.622.259.653.301 2.577-.292 3.659a5.2 5.2 0 0 1-1.797 2.123c-1.042.673-1.507.704-1.855.803-.337.072-.531.09-.688.105-.301.23-.617.493-.956.715-.938.61-1.769.55-2.547-.556-.766.256-1.989-.098-2.696-.313-.712-.215-.591 1.145-.646 1.18-1.662 1.14-2.851.555-4.756.773-.912.102-2.657.627-3.61.96-.738.264-1.269.042-1.941.38-.092.046.122.621.097.65-.655.866-.555-.662-.77-.89-.779-.826-1.245-1.256-2.181-.608-.218.15-.468 2.375-.878 2.586-.52.267-.461-.525-1.006-.225-.048.025.059.485-.309.539-1.679.253-3.549.364-5.269.78-.237.055.224.72-.115.813q-.163.044-.33.087c-1.456.38-2.997.686-4.444.713-.378.004-.283-.56-.399-.691-.722-.788-1.056.715-1.153.768-2.462 1.346-4.686.772-7.172 2.346-.132.086-.758 1.895-1.752.93-.067-.064-1.055-1.063-1.226-.06-.011.063.564.555-.057.714-.228.06-.479.198-.768.334-.482.23-1.074.452-1.745.197-.343-.123-1.365-1.126-1.818.103-.022.084-.522 2.682-1.45 1.302-.151-.228-.584-1.858-1.26-.741-.129.215.309.474-.096.845-.62.57-1.72.426-2.412 1.404-.123.174-.49 1.468-1.263.777-.121-.109-.108-.696-.409-.68-1.432.075-2.769.8-4.251.744-.523-.02-.475-.965-1.038-1.087-.565-.122-1.633-.132-2.085.385-.455.518.426 1.821-.367 2.099-3.474 1.202-7.203.894-10.852 1.082-.54.026-.054.503-.841.58h-.012c-2.796.237-7.671 1.118-11.12-.402-2.802-1.332.976-1.385-1.147-2.127-.519-.2-1.232.002-2.055.104-.804.118-1.75.057-2.022-.105a7 7 0 0 1-1.942-1.623c-1.407-1.5-2.088-4.725-1.33-6.754.672-2.072 1.81-3.146 2.808-3.901 2.156-1.445 3.044-1.343 3.303-1.617.07-.079-.242-.691-.237-.728q-.022-.021-.159.045c.81-.43 1.744-.638 2.476-1.02.388-.202.1-.646.481-.769.905-.295 1.734-.398 2.714-.265.089.013-.157.812.456.592.987-.356 2.359-.37 3.27-1.254.275-.266-.142-1.385.852-.881.206.106.533 1.515.901.05.07-.247.835-2.323 1.88-1.566.283.196 1.133 1.13 1.463.808.042-.047-.392-.57-.098-.747.425-.25.866-.458 1.33-.665.688-.307 1.358-.585 2.018-.964.289-.169-.405-.615.032-.846 1.194-.632 2.832-1.078 4.129-1.356.482-.102.366.532.421.575.884.702.71-.64.864-.781.931-.853 1.978-.6 2.923-1.147.262-.15-.165-.655-.13-.729.369-.732.358.482.762.456 1.146-.075 2.242-.567 3.232-1.053.36-.178-.328-.683-.004-.835 1.919-.911 3.987-1.692 5.982-2.128.38-.083.386.525.51.61.867.596 1.082-.84 1.193-1.018.493-.812.997-.503 1.516-.865.272-.194.551-.39.678-.504.057-.05.091-.101-.125.041a4 4 0 0 0-.296.229 6.189 6.189 0 0 0-1.007 1.11 6.9 6.9 0 0 0-.999 2.068c-.147.551-.293 1.052-.281 2.178-.103 2.042 1.655 4.68 2.461 5.193a6.9 6.9 0 0 0 2.354 1.345c-1.483-.495-1.968-.74-2.749-1.063-.717-.307-1.395-.607-2.053-.894-1.314-.575-2.546-1.093-3.637-1.486l-.554-.196c-3.154-1.075-6.531-1.925-9.403-1.492-.183.03.09.747-.058.782-.658.146-1.185.3-1.394.378-.229.079.009.025.381-.47a20 20 0 0 0-1.315 2.051c-.112.202.658.313.501.645-.317.683-.84 1.454-1.397 1.965-.27.251-.556-.464-.82-.201-.612.61-1.072 1.37-1.264 2.065-.077.29.758.19.618.526a6 6 0 0 0-.24.69c-.04.128-.011.205.042-.262.017-.245.056-.66-.099-1.444-.155-.794-.657-2.182-1.88-3.336-1.206-1.15-2.579-1.565-3.342-1.68-.767-.113-1.143-.055-1.388-.022-.532.099-.265.103-.043.064.255-.04.613-.113.999-.192.779-.16 1.689-.338 2.653-.466.277-.036 1.018 1.25 1.469.782-.1-.397-.269-.845-.402-1.26a38 38 0 0 1 6.371-2.045c.251-.055.485-.117 1.072-.198.34-.024.593-.136 1.894-.024.58.217 1.992-.269 4.674 2.537 1.306 1.53 1.68 3.712 1.559 4.879-.083 1.135-.359 1.822-.523 2.234-.196.467-.337.708-.466.93a7.26 7.26 0 0 1-.738 1.028 9 9 0 0 1-.45.489c-.221.221-.359.346-.485.46-.474.422-.744.642-1.018.884-1.428 1.251-2.988 3.016-4.486 4.987-.136.18.719.328.461.676-.751 1.01-1.455 2.086-2.356 3.216-.455.567-.947 1.14-1.624 1.799-.353.343-.727.685-1.282 1.126-.622.416-1.007 1.003-3.361 1.881-1.023.304-1.674.07-2.835-.279-.636-.194-1.66-.472-2.792-1.25-1.197-.797-2.036-2.055-2.457-2.91a7 7 0 0 1-.327-.75 10 10 0 0 1-.311-.961c-.364-2.553.13-3.067.187-3.672.122-.529.177-.825.16-1.01-.013-.077-.739-.04-.492-.598.474-1.027.785-1.578 1.056-2.086a29.5 29.5 0 0 1 2.402-3.843c.224-.301.652.357.817.146 1.163-1.493 1.668-3.553 3.126-4.855.98-.865 1.766.124 3.085.167.185.006.599-.617 1.19-.292 1.481.82 2.874 2.085 4.477 2.922.344.178.449-.764.97.164.032.063-.029.75.163 1.048.134.204.815.399.946.726.132.327-.481.234-.378.714.108.481.86.73.585 1.4m53.86-3.899c-.739-.536-.419 1.837.155 1.158.027-.036-.117-1.131-.155-1.158m-12.882-2.988c-.847-1.04-1.397.523-.791 1.326.612.803 1.046-1.01.791-1.326m8.598-.925c-.987-.815-1.083 2.58-.05 1.877.059-.04.107-1.83.05-1.877m-58.701 3.836c.032.006.313-.437.292-.464-.527-.617-1.094.28-.292.464m67.23-4.822c-.312-.454-1.174.09-.788.655.31.454 1.176-.09.788-.655m-36.889 9.755c-.023-.03-.377.067-.3.253.249.6.661.253.3-.253m51.415-10.04c-2.145-.091-3.498-2.872-1.153-2.595.424.05-.898.909-.354 1.153.992.443 1.617-1.327 2.64-.401.185.17-1.01 1.855-1.137 1.847zm-19.618 2.414c-.017-.03-.52.027-.528.06-.139.795.873.682.528-.06m-52.648 12.585c-.043-.058-1.197.12-1.224.188-.356 1.344 2.015.98 1.224-.188m38.092-12.766c-.561.76-1.226.847-1.665-.115.553.054 1.109.065 1.665.114"/><path fill="#000" d="M199.02 27.411c.289-.02 1.449.03 1.952.022-.57.215-2.994.05-1.952-.022m32.919 8.599q.61-.297 1.257-.622c-.534.184-1.118.389-1.681.583-.265.097-.993.32-1.485.416-.505.105-.889.157-1.212.196-.641.074-1.095.098-1.492.11-.219.007.336-.184-.175-.157-.499.023-.396.228-1.082.282-.802.07-4.062.003-5.17.02l-1.054.022c-3.816.08-7.619.194-11.399.135 4.259-.179-.037-.313-1.225-.24-.263.017-.222.407-4.485.33-2.708-.049-.213-.62-4.724-.316 3.471.371.057.36-2.659.392-.469.005-4.248-.026-5.897.013a6 6 0 0 0-.699.074c-.471.068-.971.162-1.457.175-.506.013-.898-.091-1.644-.067-3.513.117-6.916.282-10.281.556 1.922-.703-1.568-.08-1.711-.075-.818-.062 2.792-.468 1.35-.415-1.999.21-3.942.478-5.85.835.983-.129-.026.199-1.108.487-.836.21-1.673.365-1.993.351.225.506-10.069.964-11.104 1.427-.194.063.722.012-.366.256-.532.118-1.44.3-2.922.507-.588.08-.387-.093-.691-.034-.18.036-1.235.64-2.417.53-.402-.056 2.125-.59-3.569.112 1.389.144-1.796.475-4.765.72-1.529.114-2.962.379-3.489.472.28-.009.554-.01.832-.009-1.343.135-1.524.383-1.814.456-1.161.31-2.786.82-3.891 1.405-1.305.695-1.143.929-2.855 1.797q.648-.273 1.26-.513c-1.107.608-2.292 1.317-3.652 2.089 2.576-1.914-.065-.03-.827.451l-.077.054c-.25.16.048-.191-.382.083-.05.037.117.091-.611.57-1.624 1.1-1.537.846-2.337 1.38-.092.058.317-.04-1.242 1.007-5.452 3.356.073-.098.156-.24.121-.091-.324.027-.251-.156.048-.165.762-.73 2.57-1.835-1.21.738-1.533.668-1.673.753-.084.07-2.58 1.7-2.773 1.793-1.314.843-.04.307-.29.483-.154.135-2.76 1.34-4.051 2.086-1.168.544-2.897.831-4.201.698-2.494-.455-3.61-1.59-4.024-1.953-.435-.436-.406-.472-.036-.181.376.26 1.195.994 2.904 1.516 1.705.556 3.996.29 5.274-.29.856-.379 2.103-.944 3.293-1.618.383-.274-2.779 1.177-2.973 1.206l-.416.17c-1.05.431-2.651.762-4.323.435a7.7 7.7 0 0 1-3.676-1.828c-1.427-1.36-1.645-2.066-1.94-2.552-.464-.916-.521-1.057-.605-1.088-.136-.032-.041.743-.48-.249-.498-1.145-.53-3.607-.489-1.134-.3-1.587-.28-2.172-.303-2.587-.008-.388.013-.47.038-.432.049.075.14.689.146.54.002-.472-.116-1.92-.096-2.083.02-.254.13.63.179-.37.007-.163-.16-1.753-.292.297.082-2.734-.053-2.446.335-3.302l-.055-.196c-.281-2.277.638-1.538.835-2.46.708-2.52.105-1.92.098-2.067.062-.484.784-2.495 1.897-4.246 1.091-1.778 2.448-3.254 2.95-3.838-.185.58-3.256 4.028-3.623 5.198-.697 1.732-.125.524.624-.652.753-1.18 1.69-2.254 1.167-1.111a25 25 0 0 1 1.572-2.645c1.445-1.074-.243.636 3.037-2.53.38-.716-2.348 2.22-1.898 1.542.25-.467 2.21-2.231 2.215-2.286-.013-.111-1.744 1.53-1.54 1.206.438-.991 7.229-5.527 2.266-1.756 1.402-1.082 2.402-1.152 3.521-2.056.732-.543-4.053 1.512 2.638-2.336.258.105-2.602 1.59-2.672 1.68-.087.085.696.219.795.19.185-.066 2.124-1.304 4.094-2.355.609-.32 1.249-.667 2.361-1.053a9.5 9.5 0 0 1 2.335-.49c1.032-.1 2.522.066 3.668.537 4.34 2.06 4.485 4.525 4.882 5.37-.124-.554.433.595.62 2.114.759 3.375-1.737 8.775-2.16 9.242-.124.26.578-.564.441-.292-.236.481-.648 1.142-1.192 1.834-1.494 1.98-3.969 3.653-5.163 4.371-1.871 1.13-1.537 1.058-1.645 1.133-.799.41-.216-.018-.697.229-.562.318-3.303 1.502-4.488 1.977-.28.117-.474.213-.504.233-.033.024.454-.002-.078.289-.089.075-.141-.26-1.707.853-1.849 1.434 1.479-.665.803.08-1.389.5-1.166.801-1.502 1.017-.113.077-1.133.533-2.008 1.458a20 20 0 0 1 1.861-1.85c-.689.45-1.888 1.663-2.433 2.194-.267.254-.231-.131-.766.486-.108.146-.153.97 1.072-.724.255.015-.511.638-.773 1.036-.04.06.029.476-.508.816-.115.113.071-1.817-1.8 1.852l-.057.13c-.028.068.089-.011.169-.052.053-.032.091-.047.07 0l-.02.034c-.104.153-.543.771-.57.857-.036.094.295-.2.256-.086-.194.574-1.033 1.026-.376-.05q-.409.496-.774 1.023c.55-.23-.197.633-.388 1.191-1.095 3.642-.063 1.283-.134 1.939-.032 1.085-.535.111-.622 1.797-.003.078.146-.375.198-.357.064.034-.047.426-.287 2.553q.046-.957.149-1.845c-.438.275-.194 2.226-.182 2.388-.006 1.768-.141.515.07 3.291.022.252-.059.81.005 1.368.261 2.301.031-3.029.229-3.079.025-.158.17 5.544.169 5.85-.122.88-.181-2.72-.348-2.022-.027.103.042 1.57.137 3.516.005.101.022.169-.001.002-.015-.086-.036-.239-.134-.563-.119-.33-.232-.847-.975-1.866-.604-.974-2.904-2.642-4.943-2.693-1.971-.108-2.8.376-3.265.553-.46.216-.606.329-.687.379-.073.05-.058.04-.007-.001.942-.74 1.789-1.515 2.168-1.833 1.316-1.11 2.254-1.377 1.848-1.779.761.028.798-.574.96-.742 1.969-2.066 1.976-2.092 3.568-4.06.352-.442.786-.7.892-.875.061-.102-.219-.049.099-.529.439-.64 3.616-4.362 3.936-4.612.304-.222-1.26 1.676-.856 1.431 1.107-1.378 2.142-2.778 3.333-4.233.51-.62.342-.225.559-.49.065-.097 1.859-2.38 1.781-2.33-.515.296-5.535 6.774-4.353 4.949.224-.35 1.345-1.334.944-1.354 1.78-2.048 2.555-3.63 6.365-6.735 2.966-2.184 7.136-4.115 10.858-4.882 2.861-.566 4.287-.534 6.136-.658-1.777.233-3.208.238-6.097.822-3.233.703-6.946 2.213-9.659 4.097-.24.16-.695.467-1.123.78-1.32.991-1.812 1.63-1.627 1.566.414-.393.92-.873 1.712-1.447 2.799-2.117 7.242-4.232 10.72-4.897a17 17 0 0 1 1.979-.314c.14-.014-.351.2.172.155 1.039-.103 3.753-.528 4.202-.486.081.008-1.456.302-.976.396 1.227.242 1.488-.479 2.502-.521.805-.043 5.959.114 7.2-.142 1.34-.276-3.752-.005-3.393-.204 3.472-.315 6.942-.213 10.085-.396.055-.003-.432-.126.267-.182 1.212-.1 1.529.087 2.115.083.094-.001.222-.006.371-.013.896-.046 2.62-.186 2.888-.142.04.008-.415.25-.486.261-1.004.16-1.379-.083-1.473-.08-.315.014-.631.124-.916.153l-.066.005c-.489.023-.768-.054-1.431-.024-.454.02-.004.178-.446.194-.162.008-1.944-.324-2.093.109-.022.045 1.772.031 4.05-.083 4.451-.233 11.071-.725 12.015-.877q-1.903.082-3.81.157c2.586-.08 5.635-.684 5.895-.2l1.205-.102c9.563-.065 14.937 1.131 22.257 1.073 1.7.026 3.304-.082 5.124-.31 1.619-.173.692.274 3.575-.22-.778-.001-1.536.005-2.256.002.922-.078 4.589-.545 7.222-.654.755-.035 1.388-.126 1.633-.182.112-.03.179-.312 1.495-.597 1.196-.272 1.478-.122 2.203-.248.613-.11 1.345-.343 1.551-.377.158-.025.245.092.636.03 1.265-.191.151-.357 1.544-.177q-.487.112-.939.231c1.522-.273 4.058-.342 1.489.09-.415.085-.078-.103-.389-.05-2.897.555-3.986.92-4.575 1.06-.55.15-.431.15.065.058.972-.16 3.674-.912 6.146-1.26l.141-.028c.509.245 4.749-.966 4.959-1.034.224-.01-.504.37.547.193.085.001 6.731-2.156 4.379-1.173-.538.204-3.619 1.13-4.291 1.336 1.438-.08 4.319-1.383 5.858-1.894.284-.101.485-.17.571-.19.959-.213.056.11-.529.352-.493.195-.79.34.041.158.263-.054.652-.144 1.216-.281 3.331-.799.139-.282 1.396-.716.679-.262 4.72-.818 4.565-1.156 1.407-.29.614.06.791.044.14-.02 2.142-.41 3.349-.488l-.605.094a7 7 0 0 1 .527-.087c.105-.012-.177.255-.067.249.207-.024 2.733-.57 2.84-.597.064-.024-.58-.085-.337-.174.275-.113 2.793-.49 2.941-.55.173-.12-2.926.448-2.439.17 1.416-.216 3.779-.685 4.848-.923-.267.061-1.755.236-2.248.295.149-.345 3.458-.66 2.344-.324.727-.18.218-.208.636-.353a1.4 1.4 0 0 1 .196-.029l-.397.036c.045-.015.117-.032.234-.063.114-.03.269-.073.327-.104.01-.007-.206.004-.333-.01-.131-.014-.193-.049-.164-.082-.3-.06 3.16-.636 3.322-.582.717-.012-1.778.402-1.983.586-.02.006 2.163-.06 2.172-.026.168.194-2.22.366-1.921.54a34 34 0 0 1 1.759-.12c-.503.109-1.13.225-1.805.363-.683.14-1.318.288-1.508.318l.343-.03c-1.65.126-2.96.356-3.477.555 1.14-.193 2.334-.349 3.486-.395l-.332.03c.28-.014 1.223-.172 1.789-.18.592-.018.94.055.962.221.03.215-1.353.565-1.283.618.238.149 2.128-.338 2.186-.322q.086.01.088.026c.039.092-2.721.588-2.785.684-.207.136 1.024.314 1.046.405-.018.011-.511.123-.873.239-.36.114-.57.214-.309.245.548.041 2.273-.229 2.313-.206.334.021-2.572.6-2.48.65-.016.017.272.016.648-.002.371-.018.782-.032.805-.01.046.035-1.105.362-1.402.569-.26.162.576.105.44.146a9 9 0 0 1-.751.133l.116-.01c-.843.047-1.907.178-1.986.2-.188.053.439.118.354.163-.121.061-.961.117-.847.154.057.017 1.529.046 2.517.18l-.069.005c.422.04.781.048.781.093.001.075-.388.142-.748.175l.051-.005c-.703.026-1.365.06.02.362l-.027.003c.153.027.333.053.548.075.02.004.75-.196.773-.194.487.074-1.85.731 1.055.183-1.232.255-1.924.472-2.3.553l-.015.001c-.517.097-.328.14.01.183l.027-.003c.499.028 1.258-.027.929.202-.103.069-.441.178-.872.262l-.058.006c-.681.09-1.54.218-1.543.232.22.152.861-.049 1.089.024.126.026-1.686.405-1.259.484.155.024 1.158-.083 1.748-.11.02 0 .08-.007.1-.008.314-.039.528-.077.555-.078.869-.038-.148.272.048.319.182.028 1.338-.189 1.36-.177.046 0-1.198.456-1.878.628-.029.003-.117.013-.147.013l-.087.025c-.086.028-.017.05.092.07.031 0 .123-.01.154-.013.271.014.686-.014.553.026a4 4 0 0 1-.536.113c-.033.003-.13.014-.163.015-1.028.097-2.534.03-.649.329.083.015.432-.011.666-.023.037 0 .147-.013.183-.016.195-.024.336-.046.348-.045.307.023.083.109-.329.198-.039.004-.154.017-.193.018-.317.06-.793.138-.924.222-.406.26 1.585-.037-.067.265.39.006.719.011 1.018.014.046 0 .182-.016.227-.02 1.188-.115 1.694-.282 2.717-.446-.954.15-1.642.391-2.699.594-.047.004-.189.02-.237.021-1.634.303-1.865.594.029.515.054-.001.217-.02.271-.024.65-.064 1.269-.191 1.784-.284-.935.171-1.489.417-1.752.544-.058.005-.231.025-.289.026a.5.5 0 0 1-.267.098c-.214 0-2.341-.072-1.298.538.14.068 1.326-.16.967.06-2.945.281-.023.108-.043.149.075.27-4.146.722-6.959 1.322-.126.024-.5.09-.628.098-.85.061-1.533.146-1.843.203-1.443.269-2.696.892-3.021.962-1.075.238-.22-.128-.474-.136-.242-.025-3.324 1.076-3.506 1.111-.645.09-.06-.27-.127-.264a7 7 0 0 0-.801.162c-1.248.28-4.28 1.377-5.344 1.654.094.114 2.59-.659 1.097.032-1.766.81-2.081.281-2.129.272-2.018.585-4.143 1.168-6.683 1.448-2.481.243-6.702 1.783-11.297 2.036-2.55.142-5.03.567-8.087.966.291.294 5.661-.717 5.694-.639.333.083-1.532.348-3.971.724-2.436.394-5.569.586-6.214.528 1.007.034 2.023.032 3.015.002-1.04.334-3.015.369-4.917.277-.997-.047-1.958-.09-2.787-.053-.728.033.67.205.636.213-.824.122-2.126-.024-1.14-.182-1.99.119-1.704-.07-3.226-.15-.077-.005.571.17-.642.172-.571.007-3.589-.18-3.998-.089-.172.042 1.33.706 1.543.236 3.279.428 1.059-.156 2.342-.075.195.007-.273.275 2.958.267-.633.474-4.328-.062-4.967-.054-1.319.05 4.081.6 5.085.232-.475.361.39.067 1.587.11 1.317.046.737.146 1.458.159.571.01.913-.01 1.144-.035.611-.06.53-.13 1.811.008-1.79-.679 3.118-.21 4.464-.25-1.991.28-4.169.458-6.277.468l-.533.004.352.121c-.547-.011-1.076-.025-1.623-.04l.263-.108c-2.786.189-3.474-.128-3.695-.136-2.92-.138-6.336-.368-9.205-.615-.411-.032-.234.214-3.16-.203-.896-.121-.047-.258-1.039-.288-1.201.46-1.105.069-1.418.064a3.4 3.4 0 0 0-.895.105c-.323.06-.527.108-.579.114-1.498.153-3.687.315-5.321.467-.031.004.834.092-.233.132-.377.014-3.775-.39-6.686.049l2.295-.038c-.595.004-3.531.288-5.023.49-.792.105-1.189.188-.638.214.181.009.405-.004.651-.029 1.089-.11 2.657-.458 2.89-.132-.506.008-1.558.075-2.887.167-4.402.305-11.171.57-11.844.53-.124-.01.629-.171.458-.183-.134-.009-2.746.116-3.084.078-.205-.023.934-.15.842-.195-.093-.035-3.312.039-3.474.222.769-.108 2.996-.137 1.839.053-.153.024-.926-.053-1.108-.021-1.669.28 3.351.017 4.164-.002-2.871.309-8.45.278-10.135.726q-.172.048-.334.097c-.595.077-.112-.114.294-.265-.001-.024.106-.069.122-.095.032-.03-.072-.038-.15-.048q-.004 0-.006-.003c-2.532.434-.578.354-.661.392-.591.266-2.748.32-2.496.879-.81.315-.588.087-1.663.838q.254-.09.503-.169c-.32.311-.828.631-1.411.975.141-.154-.095-.037-.314.102-.229.143-.499.334-.735.5-.474.336-.83.58-.78.485.182-.35.638-.834 1.005-1.149.38-.33.562-.387.551-.383.004-.008-.013-.056-.096-.067.243-.343.844-1.06 2.385-1.442.302-.372-.486-.069-1.168.295-.683.361-1.26.716-.419 0-.231.157-.611.402-1.093.738-.01-.089-1.595 1.532-2.612 2.78-1.09 1.302-2.039 2.517-2.262 2.913-.066.12.634-.131-.713 1.259-.641.662.717-1.076.388-.803-.851.75-11.137 13.972-15.589 16.866-.187.146-.396.304-.624.462-.198.135-.297.16-.388.18-.096.023-.172.04-.478.21-.382.162-.788.57-2.571.821-.871.109-2.391-.02-3.664-.772a6.35 6.35 0 0 1-2.353-2.371c-.733-1.353-.8-2.055-.936-2.685a13 13 0 0 1-.176-1.513c-.033-.47-.057-.913-.055-1.256-.122 2.406-.35-2.238-.354-3.535-.01-1.913.22-1.81.262-2.656.093-3.197.25-8.902 1.75-11.56-.584-.02 2.004-4.692 3.414-6.524l.279-.424c.857-1.332 1.782-2.973.391-1.41 1.728-2.343 3.779-4.797 6.029-6.727.372-.318-.057.22.579-.32.059-.049.047-.226.615-.68 4.94-3.539 2.716-1.553 3.707-2.097.588-.263 1.029-.45 1.349-.591-3.307 1.526-6.285 4.18-7.016 4.888.695-.467 5.919-4.694 8.098-5.25l.031-.01c.024-.01.013.034-.001.081-.027.06-.059.129-.022.114l.004-.002.055-.022c.783-.292 3.681-1.643 2.963-1.545-.17.03-1.301.54-3.074 1.278a27 27 0 0 0-.554.242c.654-.325.08-.28.195-.34q.123-.06.266-.126c1.273-.577 3.481-1.355 4.095-1.691.16-.08.09-.18.115-.194.599-.311.561.114.904-.53.553-.127.194.17-.401.523-.585.35-1.459.742-1.269.805.177.07 2.819-1.249 3.422-2.361.352-.512.521-.995.546-1.253.027-.266-.039-.357-.11-.367.036-.002.085-.025.139-.075.034-.032.056-.096.058-.167.026.101.037.316.279.796.227.448.863 1.314 2.047 1.778a4.3 4.3 0 0 0 1.598.293c.347-.007.485-.035.564-.04.087-.006.133.32.221.3.045-.008.178-.064.125-.062-.045 0-.251.07-.551.207-1.072.501-2.367 1.187-2.928 1.657a59 59 0 0 1 1.857-.901c-3.608 2.052-2.903 1.845-1.738 1.222.058-.034.121-.057.177-.089.934-.474 2.195-1.074 2.227-1.061-.031.009-5.669 3.609-4.717 2.687.077-.145 2.774-1.694 1.356-1.054-.268.107-1.833 1.256-1.906 1.3-.7.255 2.763-2.319 2.244-2.211-.821.748-2.015 1.402-2.888 2.147-.396.339-.382.546-.429.587-.678.623-.393.16-.622.363-.158.113-1.075 1.551-1.213.981-.857 1.063-1.093 1.65-1.2 1.917-.094.267-.032.222.134-.016.312-.469 1.28-1.78 2.696-2.968-.806.877-2.185 2.29-2.493 2.943-.124.233.09.192-.082.573-.165.372-.588 1.211-.689 2.23-.256 2.327-.152 4.763-.152 4.509-.023.041-.117-.159-.161-.104-.052.016-.057.219-.065.15-.009-.048-.032-.167-.031-.233-.001-.068.03-.079.073-.061.089.04.19.124.178.053a1 1 0 0 0-.066-.177c-.054-.116-.119-.293-.398-.7-.282-.37-.801-1.166-2.291-1.812-1.521-.668-3.29-.35-3.941-.044 1.002-.36 2.257-.995 2.568-1.201-2.299 1.308-1.712 1.244.322.15q-.4.325-.803.626c1.106-.613 3.928-2.205 4.83-2.905.128-.102-.443.094-.371.037.451-.355 1.821-1.198 2.894-1.762.407-.212.721-.388.75-.426.064-.086-.979.362-.648.1.067-.051 1.111-.414 2.11-1.07.371-.242.068-.232.16-.296.782-.54.396-.04 1.937-.971 1.15-.678 1.943-1.4 3.784-2.164-5.855 2.617-1.134.2 1.466-.925.417-.165-.069-.338 2.553-1.079-5.258 2.379 1.585-.404 3.119-.57.084-.015.142.144.867.002.062-.01-.053-.113.619-.244a32 32 0 0 1 2.873-.421c1.669-.163-.249.125.562.137.452.004 3.061-.408 3.751-.478.159-.016.1.113.714.049 1.087-.114 2.021-.344 2.707-.434.077-.011.114.187 1.386-.04.356-.065.743-.19.232-.175-1.67.058-5.02.69-7.14.705-1.91.013 4.055-.562 4.3-.6.109-.012-.999.2.139.1.976-.086 2.648-.617 3.989-.76.104-.009 1.217.087 1.172.11-.039.025-1.68.355-1.429.395.032.007 1.082-.166 1.228-.133.178.045.765.677.995.65.589-.069.178-.157.556-.221l.008-.002c1.007-.201 4.26-.504 4.314-.757q-.795.095-1.605.205c2.965-.491 1.675-.391 2.089-.504.438-.115.348.121 1.324.006.237-.03 4.182-.617 4.073-.703-2.121.453-1.373.067-1.47.077-.383.035-.851.254-1.372.322-3.701.487.001-.27-.882-.211-.303.02-.889.235-1.02.247-.423.038-.455-.131-.735-.076-.656.128.15.256.099.276-.556.229-2.941.418-1.517-.077-.896.046-.948.381-1.679.378-1.465.006.679-.318 1.231-.442 1.992-.468 2.618-.423 5.311-.835.965-.147 2.052-.462 2.475-.536.261-.037 2.521.067 2.705-.624a.35.35 0 0 0 .022-.158c1.132-.14 3.013.11 4.161-.075 1.038-.168.668-.418.763-.444.148-.04 1.408-.172 1.828-.26.491-.104.231-.192 1.016-.32 1.942-.307 1.913.017 2.117.017 2.322.05 1.289-.305 1.793-.378.492-.098 7.1-.236 8.466-.351-.553.075-1.118.152-1.68.231 1.01.16 2.065-.177 2.094.166.175-.486 1.742-.302 2.574-.256.121.007.227.01.308.008.241-.01.222-.104.528-.111 1.176-.032 3.833.02 4.47-.032 2.749-.227-4.295-.516-4.869-.523 1.127-.013 7.41-.184 4.519-.429-.445-.038-1.24.217-1.486.23-1.704.079-.368-.156-.501-.176-.226-.032-1.34.194-1.643.172-.1-.007.537-.217-1.095-.2.809-.21 5.368-.09 5.964-.139.212-.017-1.124-.427 2.768-.046l-.136-.115q3.247-.043 6.484-.081c-.234.09-1.445.275.081.23.879-.027.228-.222.308-.228.66-.052 10.691-.049 15.358-.12.878-.012 1.577-.026 1.984-.037.921-.02 3.353-.25 3.512-.266.294-.017.808-.034 1.302-.06.236-.011.48-.03.543-.033.03-.001-.001.003-.14.037-.123.027-.412.124-.306.092 1.002-.326 1.77-.602 2.029-.717.365-.162-.045-.175.28-.3.294-.114.055.16.144.13a9.3 9.3 0 0 0 1.445-.694c.574-.334.896-.668.929-.742-.62.691-1.36 2.513-1.013 4.232.142.69.304 1.279 1.063 2.274.702.98 2.437 2.058 3.731 2.252l-.027-.008.028.007c-1.075-.154-2.886-1.158-3.631-2.197-.799-1.042-.939-1.661-1.059-2.346-.321-1.804.508-3.512 1.068-4.087.005.154-.322.536-.276.56.037 0 .452-.187.426-.26.059.01.086-.05.082-.116-.27.282-.64.747-.903 1.474-.268.715-.342 1.68-.194 2.394q.02.094.043.178c.02.066.057-.044.156.087.052.066.111.18.233.428.158.263.202.617 1.098 1.622a5.95 5.95 0 0 0 3.067 1.745c-.431-.074-.669-.107-.934-.155a9 9 0 0 1-.972-.23c-1.129-.114-8.019-.495-11.395-.465-.955.002-1.64.027-1.808.082-.016.013 1.505.113.476.21-1.389.13-.138-.332-1.755-.381-.235-.01-4.758.025-4.904.055-1.374.261 2.582.375 2.522.406-.133.076-3.422.117-3.55.099-.127-.02 2.547-.365-.67-.236l1.108.126c-1.517.08-1.656-.162-2.025-.177-1.141-.047-2.378.32-4.208-.133-.485-.12.32-.253.259-.271-.584-.162-1.322.27-2.2-.052-.065-.024 1.971-.217-1.589-.218l.736.093c-.503.07-4.11.11-4.597.092-1.419-.05-.181-.27-1.607-.245.916.306-3.429.337-3.176.075-.611.328-4.296.06-6.042.037-1.089-.012-3.353.108-3.692.086-.431-.026-.302-.248-1.066-.309-.223-.018-2.523.116-4.556-.171a1.3 1.3 0 0 1-.213-.052c-.409-.126-.878-.42-.262-.482q.13-.013.276-.02c1.306-.059 3.326.229 3.313.019-.036-.192-2.041-.176-3.308-.199a18 18 0 0 1-.768-.024c-3.952-.272-1.66-.456-1.756-.535-.252-.195-2.429-.276-2.513-.3-.374-.09 1.177-.172 1.197-.288.045-.145-2.044-.509-1.565-.538.68-.037 2.596.262 2.708.254 1.589-.09-.554-.508-1.154-.704-.178-.06.544-.117.396-.138-2.277-.326-.499.468-2.025.35-1.346-.109.396-.25.357-.265-.078-.016-1.693-.11-1.952-.208-.114-.035 4.116-.283 3.953-.496a188 188 0 0 1-4.043-.059c-.081-.26 1.829.032 2.042.012.411-.034-.721-.218-.661-.298.021-.05 1.359-.172.166-.305-.398-.047-1.274.095-2.754-.191 5.209.072 1.604-.284 1.468-.381-.135-.1 2.322-.176-.659-.309-.096-.51.066-.153.929-.193 1.033-.056-1.344-.332 2.435-.03-.206-.238-3.251-.377-3.408-.414-.136-.025.544-.099.307-.153-2.823-.643-.87-.305-1.678-.653-.068-.023-2.742-.378-.699-.233 3.721.218 5.253.568 5.911-.108-2.724-.409-6.071-.192-6.898-.284-1.267-.124.056-.127-.094-.185-.053-.016-1.141-.13-1.153-.147-.717-.586 4.844.475 6.653.417-.469-.104-.952-.21-1.419-.319.642.034 1.294.063 1.946.09-3.089-.317-.099-.062.685-.473.17-.092-1.859-.01.462-.186-1.702-.135-1.153-.2-2.699-.155.059-.166 3.52-.207 4.896-.262-4.819-.378-2.103.395-6.246-.178-.78.169 1.196.25 1.041.275-.591.095-1.938-.184-3.6.115-.27.047.823.39-.827.21-.194-.02-1.202-.348-1.185-.363.164-.127 1.169.054 1.23-.007.037-.053-1.099-.156-1.106-.179-.004-.191.957.05.823-.029-.313-.162-4.244-1.117.994-.32-4.426-.327-.632.198 1.168.233.456.015.571-.09 1.225-.086.841.005 1.798.112 2.243.113.472-.002-2.169-.397 1.659-.138-1.934-.346-5.4-.255-7.193-.67-3.546-.85 2.577-.146 3.321-.212.18.003-.411-.194-.291-.195.185.012 3.87.281 4.251.159.369-.112-1.363-.053-1.469-.195-.068-.083 4.402-.07 1.982-.224-1.658-.1-4.736.082-5.199-.353 2.382.146 4.854.215 7.309.261-1.342-.19-2.682-.39-4.004-.602 1.958.061 3.707.194 5.53.214a32 32 0 0 0 2.224-.052c-1.297-.123-1.969-.215-2.215-.277-.182-.044-.158-.073.003-.092.715-.084 4.292.01 4.364-.03.017-.033-2.437-.46-2.847-.542 2.189-.09 8.915-.103 4.989-.618.716.116 2.443-.134 2.42-.154-.214-.21-3.98-.114-3.365-.298.709-.211 1.7.098 2.803.084 5.625-.084 4.088-1.192 9.747-1.004l-.338-.118c6.157.074 12.329.122 18.531.198 1.271-.171 3.655-.305 6.102-.368 2.257-.058 4.531-.052 6.11.013.645.017 3.939.336 4.226.397.459.082-2.134-.034-.963.138.117.02 1.582.108 3.132.26 1.554.13 3.389.49 3.1.337-.828-.23-3.285-.425-3.575-.478-.913-.157 1.083-.202 4.188.47 2.659.523 4.703 2.44 5.582 3.838.947 1.463 1.313 2.637 1.56 3.956.587 3.123-.668 6.215-2.08 7.915-4.62 5.35-9.054 5.999-9.319 6.38a31 31 0 0 0 1.317-.345 48 48 0 0 1-3.429 1.22m-28.742-9.128c-.618.188-2.166.047-3.082.099-1.265.073-3.421.793-2.492.069q2.79-.081 5.574-.168m26.755.508c-1.163-.15-.236-.521.707-.305.099.025.854.516-.707.305m-12.716-.409c.044-.005 1.126.01 1.157.016.953.167-2.258.12-1.157-.016m-17.602-4.657c1.372-.024.377-.388-.475-.232-.054.01.385.234.475.232m.976.005c1.067.325 3.207-.355 1.504-.279-.167.008-1.553.263-1.504.279m25.098 4.77c.147-.125 1.386-.036 1.913.01-.029.114-1.375-.015-1.913-.01m-4.325-5.143c-.039.108 4.279-.008 4.448-.17-.546.101-4.392.084-4.448.17m-11.336.25c.112.018 1.65-.018 1.601-.105-.746-.11-2.11.031-1.601.106m-22.811.157c-.082.025 1.105.555-1.706.25-.416-.045 1.064-.225.911-.241a7 7 0 0 0-.748-.044c1.31-.078 2.66-.119 2.798-.086q.037.008.064.017c.09.03.076.05.001.065-.279.05-1.285.031-1.32.04m-12.37 1c-.267.112-2.048.233-2.459.244-.071.001.207-.271-.596-.163-.651.091.351.218-.919.332-1.287.125.402-.267.291-.264-.149-.004-2.127.374-2.085.23.033-.119 2.177-.334 2.696-.408.667-.104-.166-.19.959-.273.706-.05.349.299.498.3.123-.007 2.539-.398 1.611.002zm10.475-1.013q.144-.02.352-.022zm21.45 4.397c.646.095-1.272.218-1.999.093-.014-.101 1.897-.108 1.999-.093m-22.657-4.111c-1.959-.013-.516-.174 1.207-.286-.547.073-.561.292-1.207.286m47.526-2.97c-.028-.005-.061-.023-.104-.064.075.016.103.037.104.064m-1.632.93c-.413.296-.152.224.181.064.336-.16.657-.393.616-.444-.004-.044-.74.354-.797.38m-32.153 1.72c.137.017-2.014.573 1.112.148-1.671-.055.092-.124.065-.172-.07-.137-2.873.011-3.494-.044-.482.248 1.855.013 2.314.068zm-44.947 4.122c.391-.22 1.699-.398 2.549-.518-.374.202-1.657.36-2.549.518m12.476 23.643c-5.563.572-6.334.04-1.213-.125.099-.003 1.548.039 1.213.125m-39.7 8.007c-.515.239.501-1.11 1.237-1.824.175-.175.907-.64.327.126-.211-.234-1.292.894-1.564 1.698m57.332-35.253c-.565.188-2.32.139-3.251.163.564-.171 2.435-.19 3.251-.163m-36.191 28.042c-.588 0-.973.236-.872.25.453.07 1.545-.147.872-.25m41.809-28.148c.011.014-.024.029-.092.043-.439.085-2.15.157-2.287-.054.425.006 1.886-.04 2.286-.008q.081.007.093.019m-34.064 3.499c.382-.013-1.53.399-2.149.473.034-.123 1.908-.474 2.149-.474m-16.935 25.12c-.498.011-1.644.105-1.738.209-.159.122 1.5-.06 1.738-.21m97.812-8.762c.076.02-1.737.772-2.629.93l-.092.015c-.339.046-.28-.013-.03-.117.748-.285 2.709-.842 2.751-.828M152.45 50.55c1.704.133-.188.016-.103.233 1.133-.036 4.014-.186 2.025-.296-.385-.021-1.395.055-1.922.063m-1.559-.01c-.177.08-1.378.353-.333.296.483-.026 1.254-.31.333-.295m72.443-4.423c-1.614.262 5.739-1.666 5.76-1.707a1.3 1.3 0 0 1 .215-.015c.227-.138 1.41-.52 1.581-.406-.341.09-1.316.411-1.443.433a1 1 0 0 1-.119.015c-.295.262-5.542 1.678-5.994 1.68m-11.448 2.053c1.912-.647 2.276-.259 2.136-.204-2.009.632-.745-.008-.809-.01-.137.007-1.63.455-1.321.213zm8.613-1.586a82 82 0 0 0 1.934-.332c.706-.07-.117.153-.993.302-.873.151-1.8.217-.941.03M165.314 25.02c-.643.086-.382-.07.029-.18.192-.049.422-.094.623-.113.06-.004.28.146-.59.284zm-15.247 25.602c-.256-.02-6.314.056-5.929.318.484-.049 7.412-.15 5.929-.318M117.414 67.83c.729-.855.136.246-.334.64-.173.146.151-.425.334-.64m74.295-44.9c1.112-.152.888.326-.081.171-.038-.006.037-.165.081-.171m-68.641 38.164c-2.194 3.032-2.251 1.796.914-1.79l-.189.417c3.449-4.168.292-.285-.519.83-.304.415.071.16-.203.54zm-9.709 11.19c-3.137 2.367 2.338-2.659 3.524-4.286-1.111 1.66-2.918 3.59-.356 1.094-3.457 3.922-2.206 2.137-2.343 2.282-.187.17-.689.808-.825.91m6.533-7.468c.123-.175 1.213-1.343 1.546-1.796-.33.743-2.343 2.961-1.546 1.796m79.942-15.067c.118-.172.475-.325 1.742-.443-.373.132-1.187.31-1.742.443m2.19-23.685c-.839-.012-2.513-.072-2 .092.057.014 1.998 0 2-.092M133.976 51.48c-.212-.044-3.17 1.106-2.086.858.248-.133 3.166-.986 2.086-.858m22.585-1.283c-.413.028-2.037.15-2.07.187-.104.135 1.891-.05 2.07-.187M197.786 25.9c-.112-.016-2.681.007-2.399.082.537.145 2.778-.026 2.399-.082m-35.779.035c-.202.035-.497-.093-.568-.085-.139.02-4.022.617-2.562.198.304-.07 5.694-.747 6.239-.875.303.187-1.878.345-2.44.445-.096.018-.127.22-.667.316zm43.987 22.838c.068-.08 1.067-.244 2.072-.325 1.52-.111 2.952-.326 2.931-.228-.942.155-1.921.276-2.924.348-.693.053-1.383.122-2.079.205m-2.125.233c-.934.022 1.216-.307 1.807-.317.025.092-1.66.308-1.807.317m-56.267 1.047c-.463.052.974.217.656.27-.205.033-1.246-.012-1.573.067-.093.025.97.19 1.278.17.435-.026.007-.17.482-.188 1.582-.06 2.998 0 4.506-.071.134-.007-.924-.071.237-.123.18-.009 1.266.11 2.682 0 .375-.087.757-.16 1.116-.222 2.498-.434 4.625-.224 7.957-.652-.148-.037-3.009.056-3.177.063-1.293.065-2.996.172-4.802.286-2.761.172-5.624.275-7.624.349-.861.03-.439.125-.81.142-.292.013.048-.202-.928-.092m54.869-24.103c-.401-.203-1.805-.075-2.702-.086.315.183 1.826.041 2.702.087m-20.558 23.337c-.467-.026-1.883-.2-2-.15-.163.07 1.884.282 2 .15m-41.489-20.416c-.039.01-1.133.104-1.173.101-.987-.068 2.278-.349 1.173-.101M114.127 39.8c-.605.428-1.154.837-1.431.808.369-.18 1.433-.943 1.431-.808m12.698-8.787c-.071-.034.061-.142.294-.28.2-.127.509-.257.502-.233-.004.01-.109.062-.341.118a4 4 0 0 1-.814.099c.089.02.429.028.699-.002.277-.029.454-.072.497-.074.089-.01-.232.146-.46.25-.194.091-.336.142-.377.122m72.734 18.088c1.634-.19 1.238-.475 2.24-.463.153.002.791.603-.966.588-.328-.005.912-.322-1.274-.125m-75.097 9.605c.127-.392.88-1.276 1.373-1.865-.029.201-1.022 1.4-1.373 1.864m68.681-32.981c-.706-.203-3.994-.073-3.181.064.12.02 2.72-.073 3.181-.064m-14.045-2.062c-1.383.238 1.504.122 2.401-.065-.411.025-2.298.047-2.401.065m-58.562 11.195a17 17 0 0 1 .995-.74c.836-.43-1.723 1.483-.995.74m1.176.531c-.257.248-1.596 1.038-2.576 1.523-.746.385-1.347.714-1.63.838.19-.19.764-.587 1.527-1.022 1.155-.664 3.009-1.67 2.679-1.339m70.87 14.134q.474.004.946.016 1.284.033 2.51.04c-.152.08-1.517.108-2.511.045-.511-.031-.903-.071-.945-.101m-68.448-17.147c.058-.034.121-.057.177-.089zm45.028 16.34c-.908.033-.704.218-.648.22.686.008 1.676-.257.648-.22m32.278-23.064c-.313-.181-1.83-.042-2.704-.086.254.144 2.001.105 2.704.086m-91.388 49.305c-1.05.717 2.565-2.96 3.313-3.647.186.035-3.093 3.554-3.313 3.647m73.365-51.212c.095.137 2.075-.091 1.653-.146-.272-.037-1.713.059-1.653.146m-68.303 45.797c.277-.372 1.087-1.081.903-.742-.236.436-.974.84-.903.742m25.932-19.376c-.197-.017-2.641.253-1.619.346.702.066.815-.145.977-.153.18-.012 4.199.08.642-.193m-42.67-1.095c-.45 1.14-1.012 2.508-1.35 3.725.015-.522.993-3.31 1.35-3.725m77.322-24.867c.264.005 6.835-.327 3.093-.297-.215-.009-3.845.175-3.093.297m23.861 24.897c-.208.023-.45.043-.736.06q.423-.036.736-.06m-18.242-.212c.365-.075-1.421-.243-1.943-.233-.174.114 1.886.245 1.943.233m-84.178 4.038c-.144.712-.503 1.961-.646 2.82-.093-.157.44-2.546.646-2.82m25.429-25.06c-.177-.364-.217-.585-.235-.703.004.074.029.186.111.204a.14.14 0 0 0-.061.023c-.015 0-.021.29-.141.462-.166.231-.137.091-.067-.147.071-.248.088-.45.09-.534.032.179.094.583.499 1.201.374.61 1.299 1.363 2.107 1.626.515.181.867.204.886.193.034-.02-.266-.051-.848-.29-.624-.242-1.441-.841-1.846-1.463-.426-.62-.499-1.12-.497-1.302l.014.036-.05-.032c-.041.113-.075.324.038.726m3.64 5.348c.718-.217 2.611-1.239 2.08-1.067-.394.1-2.825 1.267-2.08 1.067m-10.149 9.912c-.039.192.096 1.558.185 1.532.018-.636-.052-2.286-.185-1.532m15.671-11.98c.468-.126 1.007-.518.949-.512-.507.047-1.773.64-.949.512m64.267 17.627c-.467-.02-1.613.072-2.463.152-.384.04-.695.088-.838.136-.081-.03-.292-.072-.699-.125h.004c-.539.077-16.709-.996-5.877-.035.342.026-.124-.131 1.263-.044.091.006.131.12.415.137.65.048 4.112.214 4.81.125.005.02.05.041.144.06.186.038.461.046.775.034 1.216-.034 2.89-.42 2.466-.44m-79.805-8.497c-.029.077-.05.227-.051.386-.012.367.004.728.057.793.026-.17.05-.478.068-.784.016-.34.032-.664-.074-.395m59.743-15.685c.769.017 2.679-.256 2.094-.3-.358-.033-2.98.274-2.094.3m-64.504 17.465c-.784.35-1.209.496-1.416.58.608-.238 1.011-.262.89-.239a5 5 0 0 0-.871.288c.195-.037.451-.087.294.04q.561-.316 1.103-.669m104.842 4.349c-.645.119.055-.344.741-.34.216.001-.382.272-.741.34m29.14-6.667c-.567-.158 2.001-.463 1.042-.118-.043.012-1.002.119-1.042.118m-20.038 4.622c-.434.298-.722.415-2.156.72 2.07-.57.13-.22 2.156-.72M122.463 27.368h-.019zm13.814 2.633c.634.027 2.345-.196 1.817-.278-.052-.015-1.586.12-1.817.278m56.419 19.061c.071.028.034.044-.084.058q-.006-.029.084-.058m-65.284-16.157c-.003-.138-2.32.968-2.384 1.036-1.17.846 1.387-.595 2.384-1.036m63.701-8.71c.118-.014-.64-.288-1.098-.172-.354.09.656.218 1.098.171m38.538 18.784c.666-.21 1.554-.478 1.746-.393-.406.093-1.726.488-1.746.393m14.722-3.224c-.347.144-.916.301-1.545.457a9 9 0 0 1-.663.103c-.665.083-1.392.17-1.956.241-.031-.123.992-.282 1.945-.363.132-.008.518-.077.648-.1.662-.142 1.291-.263 1.571-.338m-46.198 8.944c-.061.008-2.075.087-1.795.202.423.192 2.368-.177 1.795-.202m-10.557-24.61c-.556.076.165.225.964.23.328.002.689-.024.939-.095.247-.069-.362-.11-.942-.13a14 14 0 0 0-.961-.006m-46.333 5.52c1.04-.18-1.575-.076-1.931.106.49-.037 1.561-.043 1.931-.106m-25.511 15.617c-.048.4-.052.167-.35-.35-.142-.249-.33-.501-.427-.638-.1-.139-.092-.17.008-.116.211.11.647.559.818.796.192.258.248.355.245.396.001.018-.056.074-.134.025-.077-.04-.158-.134-.16-.113m69.117-20.4c-.472.052 1.282.284 1.516.147.136-.085-1.203-.18-1.516-.147m-70.675 8.302q.242-.117.484-.226c-.118.06-.276.134-.484.226m36.216-4.02c-2.203-.237-1.923.153-2.109.183-.404.05-1.369.01-2.152.12a75 75 0 0 0 2.614-.527c-.613.097-6.897.5-7.07.603-.18.153 1.837-.08 1.892-.074.085.01.435.356.62.352.352.012 5.449-.569 6.205-.657m-37.406 12.479c-.405.183-.585.109-.742.236-.054.042.003.175-.184.316q.462-.262.926-.552m41.436-13.767c.649.047-1.792.427-2.409.543q-.09.014-.105.014c-.126-.007-.072-.05.086-.108.534-.188 1.998-.487 2.428-.448m-25.81 4.675c.109-.061 2.627-.946 2.586-1.01-.721.111-4.011 1.471-2.586 1.01m-16.801 9.784c-.577.286-1.719.608-1.514.752h.002a20 20 0 0 0 1.512-.752m72.997-17.675c1.515.305.797-.113-.545-.185-.397.166.294.136.545.185m4.81.167c.417.055 4.668-.05 4.02-.225-.231-.063-2.677.121-2.789.11-.17-.016.604-.226-.696-.172.076.067-.678.268-.535.287m-3.556.022c1.494.229 1.835-.256.701-.237-.434.008-.918.204-.701.237m-6.136.18c.549.016 1.994.016 2.977-.178q-1.993.05-3.999.144c-.151.1.551.017 1.025.033zm72.74 12.28c-1.009.026 1.256-.39 1.39-.349.309.075-.959.33-1.39.349m-76.894-17.026c-.319-.067-.531-.255-1.245-.193.709.165 1.435.326 2.142.484.566-.283-.535-.216-.897-.291m-2.691-1.232c.101-.003-.425-.495.863-.118.882.262-3.946.203-4.789-.115.964 0 3.051.25 3.926.233m-7.763-2.917c-.073-.032 1.466.244 1.682.284.998.3-1.593.01-1.682-.284m5.324.83c-.833-.154 1.021-.07 1.579.01.051.093-1.459.015-1.579-.01m69.354 15.486c-1.023-.186-1.786.623-.317.271.07-.016.36-.26.317-.27m-73.107-16.459c.747.211-.975 0-1.338-.18-.044-.083 1.198.157 1.338.18m72.314 15.805c-1.347-.029-.76.66-.597.664.499.007 1.843-.316 2.723-.504l-.343.054c.296-.105.531-.192.645-.236q-.365.09-.661.161l.352-.055c-2.573.328-1.532-.055-2.119-.084m-5.772 1.616c-1.119.354 1.825-.197 2.361-.514-.581.13-2.045.41-2.361.514m-6.943 1.665c-.601.163-2.328.632-2.573.826.608-.2 2.358-.628 2.573-.826m-1.424.07c-.944.12-1.019.641-.027.187.039-.018.063-.189.027-.187m-4.915 1.158c-.573-.076-1.1.481-.226.335.262-.048.288-.326.226-.335m17.277-5.056c-.98.094-2.134.659-.097.307q-1.063.27-2.093.572c2.651-.366 2.403-.744 3.178-.86 1.096-.14 1.061.255.86.4.322-.132 1.064-.29 1.989-.414l-.427.067c1.412-.373 3.293-.753 4.618-.994a86 86 0 0 0-4.691.659l.468-.073c-.781.038-1.514.1-2.119.166-.549.06-1.06.248-1.52.317-.737.112-.112-.151-.162-.148zm-24.355 6.375c-1.791.196-.602.399.39.077.042-.016-.345-.083-.39-.078M165.597 14.18c.182.123.439.243.594.326.171.086.291.15.483.207.399.108 1.079.229 3.538.245-2.07.089-.133.19-.54.264-.343.06-1.495-.14-.84.11-.436-.143-1.659-.315-2.551-.528a5.4 5.4 0 0 1-.89-.272c-.12-.056-.112-.063-.12-.076-.001-.012.07-.1.132-.184.067-.082.092-.167.194-.092m60.559 19.688c-.757-.352-.725.577-1.985.478-1.322 1.13 4.172-1.33 5.237-1.007-4.7 1.361-.609.403.692-.045.343-.125.426-.221-.059-.23q-.324 0-.971.07.536-.11.94-.188c2.505-.465.382-.286.881-.517.579-.273 2.769-.68 2.616-.855h-.004a189 189 0 0 0-3.941 1.04c.192.006.312.024.375.047.058.026.061.057.023.09-.279.2-2.057.564-2.796.512q-.512.304-1.008.605m7.57-1.636c-.147.016-2.966.79-2.754.833.365-.049 4.433-1.098 2.754-.833m12.688-2.385c-1.092.155-2.749.369-3.288.65 1.05-.208 2.717-.399 3.288-.65m-51.372 9.622c-1.174.193 2.453.056 1.394-.055zm28.368-4.664c-1.248.183-.536.55.325.146.05-.024-.267-.155-.325-.146m-56.604-20.388c-.005-.09 3.221.389 3.861.41-.394.127-4.081-.238-3.861-.41M248.318 29.1c-2.363-.244-5.123.867-5.433.916-.315.049.134-.254.062-.245-.1.011-1.307.253-2.293.478l.551-.086c-.736.074-1.361.16-1.43.175-.12.027.554.24-.161.425.318-.08.903-.179 1.623-.262l-.51.08c2.212-.56 5.958-1.116 6.23-1.156.262-.055-1.746-.124 1.357-.325zm-6.226 1.009c.646-.035-.536.234-1.379.41l.518-.081c-.289.024-.542.043-.687.048-.713.028-.09-.078.676-.162l-.531.082a28 28 0 0 1 1.403-.297m-5.308.734c-.291.014-2.729.514-2.889.703 1.152-.1 3.521-.76 2.889-.703m-25.235 6.114c-.552.148-1.989.304-2.044.426.495-.086 1.976-.283 2.044-.426m-33.12-22.76c-.747-.1.376-.106 1.272-.077.274.009.53.022.693.038.015.034-.316.049-.695.054a26 26 0 0 1-1.27-.015m44.453 19.562c-.202.035-3.003.898-4.685 1.087-1.824.223-3.052.565-3.442.664.396-.046 1.639-.343 3.456-.53 1.687-.13 4.445-.953 4.613-1.032.082-.038.101-.195.058-.19m15.992-4.109c.722-.283 1.243-.126 1.337-.135.256-.022.587-.055.925-.084l-.638.1c.811-.17 1.669-.33 1.412-.15-.384.06-.88.166-1.384.282l.623-.097c-1.639.169-3.338.515-2.275.084m-27.952 6.62c-2.133.506 2.059-.183 1.505-.27a49 49 0 0 0-1.505.27m12.677-2.779c.31-.166 3.176-1.13 6.066-1.88 1.307-.326 2.456-.598 2.867-.698-.894.464-1.697.528-2.84.801-.153.037-.314.08-.474.124-.418.119-.274.195-.319.207-.704.206-.212-.067-.642.056-.384.094-5.345 1.827-4.658 1.39m15.685-4.022c.157-.058.908-.189 1.827-.297l-.669.105c1.495-.372 3.522-.76 3.653-.762 1.021-.04-1.747.463-3.628.874l.655-.102c-.95.084-1.713.177-1.838.182m-16.353 3.976c.575-.48 4.055-1.366 1.769-.485-.219.083-1.179.242-1.769.485m-11.84 2.489c-.136.037-2.272.36-2.274.438.247.05 3.492-.591 2.274-.438m1.129-.595c-.055.015.536.073-.571.304-.084.012-.333-.131-1.585.192-.252.065-.615.268-.586.271 1.223.178 5.714-1.594 2.742-.767m27.135-6.053c-.29-.051.345-.408.971-.34.266.03-.204.235-.971.34m-35.884 7.477c1.567-.367-3.412.259-3.541.332.114.084 3.348-.305 3.541-.332M180.77 13.016h-.004c1.223.063.463.18.519.186 2.643.25 1.946-.071 2.361-.099.904-.064.739.304 2.25.17-2.496.194-.214.128-.155.26.279.541-3.315-.294-4.539-.213-.175.013 1.097.21.656.25-.526.046-1.434-.045-2.137-.173-1.118-.196-1.783-.467.011-.423.274.006.614.02 1.038.042m60.022 15.856c.06-.02.158-.042.285-.064l-.713.111c1.099-.358 4.897-.913 3.786-.59-.155.035-2.769.589-3.752.745l.694-.108c-.385.012-.549-.008-.3-.094m-106.695.697c-.136.98.102.382.289-.645.199-1.024.165-2.505.051-2.952-.033-.437-.129 2.768-.34 3.597m-22.852-3.756c-1.205 1.104-2.004 2.806-.621 1.27.142-.163.809-1.337.621-1.27m-6.018 36.182c-.974.75-.653.954-.046.299.213-.233.077-.323.046-.3m14.253-18.121c.033-.01.182-.077.355-.156.422-.187.971-.447.918-.483-.22.07-.619.23-.96.381-.367.167-.654.355-.313.258m-14.03 17.799c-.44.58.608-.152 1.002-1.006-.285.358-.956.947-1.002 1.006m114.938-28.406c-.44.25-1.634.476-2.299.547-.198.022-.385.047-.552.071-.044-.044.166-.105.542-.164.471-.091 1.838-.304 2.309-.454M116.587 22.145c-1.082.848 1.457-.605 1.133-.613-.036.007-1.09.575-1.133.613m26.797 15.57c-.875.15 1.923.212 1.147.029a27 27 0 0 0-1.147-.03m11.919-.422c-.621.005-3.354.151-2.286.215.173.013 2.255-.1 2.286-.215m28.419-24.333c-.349-.211 1.699-.133 1.99-.094.118.016-1.528.37-1.99.094M99.889 66.988c.03.004-.034-.03.713-.372.399-.144 1.101-.501 2.654-.41 1.58.047 3.472 1.253 4.078 2.097.684.844.819 1.316.936 1.609.098.284.123.428.136.511.022.166-.002.153-.028.16-.007-.017.043.013-.167-.612-.144-.322-.273-.91-1.272-1.962-.924-1.12-3.516-1.942-4.696-1.692-1.239.148-1.624.422-1.887.53-.246.125-.317.174-.365.194-.081.035-.06-.016-.102-.053m22.16-47.905a10 10 0 0 0-.878.327c-.99.398-2.03 1.047-1.57 1.064 1.689-.942.048-.283 1.598-1.01.211-.1.474-.222.85-.381m-14.062 39.315c-.348.388-.393.873-.345.837.463-.348.762-1.165.345-.837m3.678-7.34c.11.04.95-1.17.772-1.057-.062.028-.866 1.013-.772 1.057m86.662-14.408c-.735-.017 1.448-.402 2.224-.391.349.139-2.167.406-2.224.391m-80.608 9.8c-.11-.171-1.986 2.227-1.11 1.408.207-.198 1.125-1.342 1.11-1.407m29.363-9.229c-1.816.281 5.852.147 3.828-.043-.137-.01-3.663.022-3.828.044m12.371-.53c-.316 0-.206-.608 1.12-.477.174.016-.618.236-.474.261.084.015 2.932-.122 3.062-.147.139-.027-.041-.205.099-.238.16-.036 1.922-.007 2.837-.08 1.724-.14 1.895-.315 2.036-.327.411-.036 1.11.019 1.941-.054.4-.035.828-.074 1.261-.115 6.194-.321 10.776.516 13.848.89-2.889-.305-5.555-.433-8.792-.618.486-.134-.699-.158-1.694-.131-1.004.033-1.68.068.207-.076-.421.015-1.593-.056-3.552.122-4 .415-11.116.99-11.895.99zM106.609 30.9c.236-.537-.486.413-1.134 1.736-.665 1.31-1.131 3.007-1.082 3.299.131-.883 2.078-4.988 2.216-5.035m25.214-11.995c1.394 1.06 3.471 2.86 3.926 6.695.049.477.071 1.017.043 1.62v.012c-.081 1.23-.15-.173-.191.054.061.12-.54 3.744-.266.71.051-1.646-.058-2.214-.01-2.347.01-.063.032-.05.058-.006.078.104.186.453.166-.02a7 7 0 0 0-.12-.868c-.048-.167-.2-1.188-.987-2.694-.698-1.467-2.714-3.604-4.839-4.291-1.197-.427-1.997-.448-1.779-.416.028.008.865.118 1.761.462 1.42.512 2.609 1.544 2.843 1.8.82.868.857 1.109.867 1.167-.007.059-.139-.062-.055.055.325.306 1.782 2.817 1.93 4.83.381 2.389-.263 5.157-.557 5.645-.105.17.83-2.497.4-5.627-.248-2.002-1.318-5.814-5.555-7.543-2.917-1.006-4.342-.371-4.479-.432-.537.079-.396-.304-.899-.218-.085.012-.865.237-1.5.516-.653.279-1.239.593-1.699.85-.43.246-.807.46-.922.51q-.135.056-.213.084c.399-.102-1.679 1.045-1.679.916.014-.068 1.461-.85 1.514-.864q.036-.014.066-.023c-.133.018.449-.336 1.169-.746.79-.42 1.791-1.034 3.664-1.493.913-.225 2.059-.272 2.589-.246.549.034.392-.047-.603-.099a8.6 8.6 0 0 1 3.245.591c1.509.688.433.27-.054.142-.189-.046-.275-.055-.02.052.288.132 1.083.408 2.186 1.222m1.643 16.33q.156-.366.298-.743a16 16 0 0 1-1.405 2.239c-2.362 3.174-5.679 5.025-8.263 6.259-.821.387.21.155-.878.586-.866.337-1.795.497-1.39.277.085-.046 1.794-.631 2.711-1.113 2.699-1.455 1.95-1.358 2.098-1.424.168-.092 2.055-1.155 3.043-2.072a16.7 16.7 0 0 0 2.439-2.693c.908-1.321 1.901-2.639 2.863-5.684-.827 2.931.045 1.589-1.516 4.368m-2.589 2.898c.028-.046.245-.117.554-.193 1.111-.27 2.236-.344 2.742-.414-.091.115-1.31.161-2.729.47-.224.05-.42.096-.567.137m90.671-1.352c.298-.119-.865-.162-1.706-.154-.612.007-1.082.044-.639.108.081.012.336.022.641.03.595.015 1.374.021 1.704.016m-17.275.022c-.511.057 1.549.19 1.545.036-.004-.049-1.479-.044-1.545-.036m-93.935 18.573-.371.971c-.418.524.739-2.37.371-.971m73.286-18.1c1.707-.194-3.455-.048-1.869.054.076.003 1.779-.046 1.869-.053m-7.086.433c.391-.043 2.183-.104 2.206-.163.027-.103-2.028-.023-2.206.163M107.64 57.65c-.294.01 1.347-1.713 1.853-2.396.299-.013-1.347 1.754-1.853 2.396m1.79 11.973c-.23-.475-.331-1.594-2.471-3.28-1.057-.798-2.685-1.321-3.869-1.345a6.8 6.8 0 0 0-2.467.33c-.981.343-1.187.542-1.341.625-.132.085-.12.08-.066.035 2.044-1.666 2.994-2.643 2.946-2.488-.036.101-1.077 1.275-2.834 2.631-.07.056-.092.051.189-.126.36-.097.697-.84 3.696-.85 1.493.026 3.513.97 4.427 1.935.975.958 1.283 1.667 1.496 2.117.367.883.343 1.086.379 1.202.071-.009.096-.005.098-.041a.6.6 0 0 0-.02-.133c-.022-.095-.033-.203-.163-.612m-3.284-10.428c-.125.364-.89 1.171-1.394 1.706.016-.16 1.059-1.274 1.394-1.706m120.181-22.248c-.763.227-3.795.08-3.26-.009.101-.01 3.48-.088 3.26.01M110.326 55.99c.232-.107-.4 1.923-.451 2.12-.339.628.401-1.992.451-2.12m6.719-10.297c.356-.585 1.223-1.668 3.232-3.166l.349-.244a3 3 0 0 1-.313.293c-1.502 1.176-2.675 2.468-3.268 3.117m-5.046 6.007c.031-.05.926-1.166.977-1.218.855-.821-1.678 2.337-.977 1.218m67.1-40.357c.025-.002.366.01.677.022.229.009.44.018.456.02.423.085.004.108-.459.098-.6-.015-1.263-.08-.674-.14"/><path fill="#000" d="M189.893 44.211c-.02 0 .029-.002.021-.002.214 0 .053.004-.021.002m-15.585-.074.159.002c.034-.002-.005-.004.046-.006h.169l-.226-.001c-.025-.001.122-.006.118-.007-.014-.006-.134-.012-.047-.018.156.006.314 0 .246-.002-.015 0-.406 0-.307-.006.062-.004.62 0 .341-.007-.391.005-.363 0-.376-.004-.003 0 .056-.006.039-.008l-.216-.004c-.004 0 .108-.001.102-.002-.025-.005-.034-.01.004-.016.526.003.224-.002.249-.002.143-.002.184.004.273.002l-.049-.01c-.065.003-.442-.003-.271-.004-.464 0 .404-.014.249-.016-.032 0-.262.002-.157-.005h.139c-.008-.001-.453-.003-.207-.004.09 0 .382.003.265-.005-.454.003-.246-.011-.132-.014l-.183.002c.164-.003.01-.003.019-.004.033-.002.189-.005.174-.007-.016-.003-.298-.003-.188-.006l-.187.002.045-.006c.373.005.018-.001.01-.001-.013-.001.139 0 .12-.001-.003 0-.147 0-.163-.002-.033-.003.148-.002.146-.004-.001 0-.131 0-.161-.002-.098-.007.099 0 .117 0 .023 0 .565-.002.373.005.061-.002.3-.003.306-.003l-.037-.004c-.081-.002-.245 0-.274 0-.024 0 .19-.005-.303-.007.454-.002.413.002.483.005.093 0 .183-.003.183-.003-.001-.005-.374-.003-.613-.004-.125 0 .13-.002-.205 0-.036-.005.159-.002.187-.003.042 0-.054-.002-.041-.002h.176c.006 0-.194-.002-.289 0 .028-.003-.142-.003.201-.004-.649-.002.384-.002.42-.002.096-.003-.414-.002-.438-.002-.16-.001.015-.008-.058-.01.367.001.004.006.075.007.237.003.184-.005.645-.002l-.38-.004c.296-.001.426.001.317-.004-.256 0 .041.004-.161.003-.118 0-.144-.004-.206-.004-.075 0 .014.003-.102.003-.249-.001-.011-.011.125-.004-.005-.002.491-.003.336-.005-.1 0-.784.006-.659-.004.234 0 .069.004.087.004h.58c.086-.001-.197-.011.069-.013-.306 0-.055-.008-.148-.009h-.232c-.118 0 .216-.005.224-.007.01-.003-.151-.002-.151-.002l.118-.001c0-.001.022-.007-.001-.008h-.226c-.006 0 .212 0 .118-.004-.114-.005-.272.003-.501.001.326-.003.003-.003.028-.004.009 0 .284-.002.267-.005l.133.005c.049-.001-.011-.005.043-.006.027 0 .253 0 .247-.002-.003 0-.553-.001-.306.003-.196 0-.069-.002-.124-.003-.009 0-.337 0-.133-.001.05 0 1.007.002.314-.005h-.167c-.016 0 .032-.002.015-.002h-.175a10 10 0 0 1 .347 0l.192-.003c-.391.001-.11-.001-.122-.002-.077-.008-.331-.003-.463-.004-.211-.002.458 0 .257-.004-.019 0-.303.004-.142-.004l.033.003c.378 0-.026-.004-.031-.004-.052-.003.084-.001-.111-.005-.017 0 .076-.002.03-.003-.192-.003-.117.005-.27.005-.075 0-.056-.008-.02-.009.157-.001.069.004.265.003.07 0-.073-.013.003-.015.089-.003.602-.004.025-.004.566-.001.18-.002.184-.002.052-.005.058-.005.004-.009-.012 0 .16-.001.131-.002h-.258c-.077-.002.111-.009.213-.01.101 0 .044.004.211.003.017-.002-.025-.005-.007-.008h.127c.001 0-.101-.004-.145-.004-.1 0-.032.012-.237.009-.039-.001.23-.003-.098-.003l.223-.03c.245.005.026.012.049.018.003.001-.029.004.137.003.043-.005-.044-.011.064-.016h.176c.044-.002-.196-.005-.134-.006.015 0 .211.002.335.001.32-.001-.388-.002-.38-.003.007-.001.349-.008.133-.01-.23-.002-.134.005-.322.005-.19-.005.013-.01-.011-.015h-.169c-.036-.002.174-.003.207-.004.036 0 .006-.004.082-.005l.224.001c.085.002-.184.002-.188.002-.01 0 .093.001.087.002l-.114.002h.169c-.004 0-.423.004.005.004.135 0 .308-.022.2-.024l-.154.006c.125-.004-.217-.008.289-.009l.124-.041c.043-.003.368-.002.273-.006l-.31.004c.072-.002.214-.012.147-.013-.009 0-.303 0-.328-.003-.022-.002.198-.002.24-.004.035 0-.023-.002-.01-.002h.167c.073-.002-.306 0 .129-.002h.05c.063-.001.261-.004.359-.001h-.114c.025.015.278.003.076-.002.193-.001.075-.008.113-.008l.343-.001c.028 0-.08-.01.176-.007.053.001-.002.006.005.007.41-.003-.177-.009-.162-.01.064-.002.355.006.402 0 .037-.005-.236 0-.353-.003-.066 0 .236-.006-.154-.006-.042-.002.164 0 .179-.001.013 0-.103-.004-.021-.005h.229c.029 0-.012-.004-.029-.004h-.232c-.05 0-.008-.003-.059-.003-.077 0-.026.003-.225.003a2 2 0 0 0-.242-.007c.046 0 .052.003.036.003-.29 0-.286-.004-.056-.003h-.306c-.029 0-.036-.002-.086-.002h-.179c-.106 0-.082-.003-.054-.004.079 0 .175.003.298.003l.28-.003c.227 0 .063.003.268.003l.13-.002c.208.002.101.007.337.009-.07-.004-.062-.009.47-.009.224 0 .355.002.412.002.204 0-.018-.003-.007-.003h.037q.178.002.259.004l.583-.002c.018 0 .112.003.266.002.155 0 .159-.003.175-.003.093 0 .177.003.232.004l.247-.002.312.002.221-.001c.012 0 .01.004.031.004h.253l.639-.004c.217 0-.281.005.573 0h-.05c.157-.001.398.002.356-.002.273.008.325 0 .69.002.14 0 .197.004.218.004.178 0 .04-.002.127-.002.049 0 .237.003.359.002.063 0 .04-.003.053-.003.115-.002.24 0 .322 0 .055 0 .059-.002.069-.002l.321.002h.181c.157.001-.243.005.318.001.034 0 .02-.001.027-.001.159 0 .173.001.303.002.224 0 .099-.003.256 0 .147-.002.141-.003.1-.006.114.007.694.01.68.002-.009.002.318.002.324.003.003 0-.322.004.408.002.092 0-.024-.002.162-.002-.047.005.119 0 .144 0 .43 0 .078.013.127.015.057.002.396.004.396.005.001.002-.172 0-.235 0s.267.006.249.006h-.287c-.125.001.035.008-.013.01.133 0 .143-.004.356-.002.248.003-.336.003-.362.003l.017.037c.31 0 .076-.008.117-.008.242-.001.238.012.128.014l.201-.004c.357.002-.107.007.051.01h.198c.139 0 .032.002-.154 0 .178.004-.018.003-.033.005l.203.001c.028.001.028.005.154.006.053 0 .612-.002.131-.002.234-.005-.219-.002-.208-.004.003 0 .271 0 .145-.004.484.001.122.006.18.007.121.002.371-.006-.007-.007.378 0 .051 0 .067-.002s.129-.001.13-.002c.003-.003-.264-.002-.024-.004-.744.002-.098-.004.097-.006l.113.009H189l-.016.002h-.112c.243.003-.031.004-.034.005-.031.004-.029.008-.03.012 0 .001.243 0 .053.005-.061.002-.25 0-.222.002.515.002.104.002.104.002 0 .002.127.003.129.003.019.002-.002.006.017.008h.113c-.016 0-.691.006-.471.01l.136-.004c-.063.002.107.01.288.009.11-.002-.325-.005.093-.005-.125.003.062.02-.035.02h-.167c-.013 0 .019.004-.033.004l-.163-.001c-.035 0-.093.005.077.005-.068-.001-.009-.004.135-.003l-.07.002c.209.002.159-.005.161-.006.216.005-.039.012.102.017-.141.002-.216-.003-.334 0-.243.005.196 0 .214.001.143.001-.623.006-.04.006-.088.002-.161 0-.085.003h.121c.338.002-.514.008-.579.008-.174-.001.097-.004.091-.005-.01 0-.601-.001-.072-.006-.397-.001-.268.007-.539.003.045.003-.231.014-.057.016.023 0 .418 0 .217.002-.096.001-.101-.002-.191-.001-.276.002-.099.027-.085.032h-.121c.004 0 .186.004.13.006.227-.003.245.003.22.005-.038.003-.254.003-.3.004-.177.004.336.01-.144.014.476 0-.233.006-.237.008-.003.003.311.006.503.003-.022.004.067.008.096.011h-.123c.002 0 .14 0 .154.002.12.007-.173.003-.259.005l-.08.001c-.027-.004-.081-.008-.085-.01-.304.001.059.01-.023.012h-.172c-.013 0 .049.006.249.005.053 0 .053-.003.035-.006h.233c.093.002-.09.006-.115.008h.115c-.027.002-.371 0-.016.002-.429.003-.064-.004-.342-.004-.214 0-.099.017.238.017h-.132c-.113.001-.077.006-.015.006h.343c.007.001-.25.006-.056.008l.138-.003c.002.007.1.006.198.004h.015l.168-.005c.098 0 .153.011-.151.01-.041-.001.094-.006-.123-.004-.038 0 .024.004 0 .004-.159.001-.37-.006-.596-.005.215.002.102.004.158.006l.192.001c.043.002-.129.001-.125.002.003 0 .369.003-.136.003.372.01.371.003.343-.004.184.002.095.006.138.008.015 0 .184 0 .217.002.07.002-.124.013-.169.016a5 5 0 0 0-.231 0c.013.002.258 0 .284 0 .028 0-.088.007-.056.008a3 3 0 0 0-.291 0h-.159c.075.001-.205.007-.122.008h.175c.066 0-.091.005-.039.005h.236c.014 0-.194.001-.143.003h.173c.07.002-.175 0-.136.003.029.002.269.003.189.006.306-.008.178-.002.271.002.015 0 .279 0 .15.003-.478-.007-.252.002-.257.004h-.179s.118 0 .127.002c.085.007-.048.002-.164.004-.05 0 .117.004.121.005 0 0-.122 0-.117.001.008.002.139.003.149.004.001 0-.193 0-.13.003h.142c.182-.003-.134-.008.049-.01.166-.004.181.005.182.006.001 0-.095-.002-.114 0-.016.001.318.004.245.006l-.305.002c-.012 0-.073-.003-.155-.002l-.068.002h-.821c-.045.002.121.001.11.002-.025.001-.24.006.012.006l.045-.002c.026.004.134.002.181.002.051.001-.171.001-.191.002a1 1 0 0 0 .134.006c-.148-.003.126-.002.131-.002.018 0-.136-.001-.133-.002.024-.005.267 0 .33-.001.021 0-.111-.001-.104-.002h.18c-.033-.002-.276 0-.288 0-.153-.001.037-.005.301-.002.096-.002-.226-.002-.097-.003.254-.002.189.001.231.002.153.003.029.004.071.007.015.002.172.004.18.004.006 0-.538.005.313.005-.083.001-.643.004-.618.005.024.002.325.001.336.001.019 0-.005.002.038.003l.211.001c.117.003-.191.003-.21.003-.231.003.206.002.241.002.032.001-.136.01-.026.012l-.184-.002c-.192.001.121.003-.223.003.555 0 .184.003.198.004h.105c.016.002-.059.006-.011.007.206.004.55-.006.57-.007-.006.002.119.01.385.007.041-.001-.207-.002-.217-.003-.063-.002.159 0 .18 0 .034 0-.181-.002-.155-.003.008 0 .209.001.214-.001.195.001.036.008.082.008.016 0 .433-.001.028.004h.116l.048.01c-.089 0-.268-.003-.23 0h.226c.055.001-.011.021.011.025.007.002.167.005.17.005.016.002-.088.008-.066.01h.173-.174c-.059.002.152.013 0 .016a8 8 0 0 0-.466-.007c-.139 0 .284.003.201.004-.01 0-.247 0-.29.002-.015 0 .17.003-.037.005.099.003-.209.019.047.02.013 0 .101-.002.206 0 .139.001-.33 0-.371.002a.4.4 0 0 0 .071.007c.263.002.37-.004.4-.004.077 0 .124.005.106.005s-.368-.003-.236.001l.125-.001c.081.002-.16.002-.174.002-.047.002.319.004-.133.007h-.272c-.161 0 .271.001-.052.002-.024 0-.217-.002-.217.003l.092-.001c.069 0 .111.005.094.006-.048.002-.27 0-.243.002.304 0 .344.005.082.005.329.001.075.006.067.009-.004.001.139.005.123.005-.021 0-.245 0-.295.002-.015 0 .15.003-.082.006-.045 0-.426.002-.521 0-.163-.001.144-.004-.081-.004-.241 0-.098.004-.129.005-.145.006-.401.003-.478.003-.189 0-.183.003-.2.003-.075.001-.224-.001-.339-.001-.149 0-.419.003-.469.002-.072 0 .153-.004.142-.004-.145-.002-.49.001-.66.002h-.153c-.233.003.485 0 .437.002-.042.002-.269 0-.282 0-.014 0-.026.002-.106.002-.041 0-.482-.005-.68-.005l.131.006c-.258 0-.068-.003-.095-.003h-.579c-.026.001.154.002-.03.004-.237-.007-.382-.002-.473-.002s-.307-.003-.269.001c-.502 0-.158 0-.247-.001-.108-.002-.274.002-.148-.004-.235 0-.219.005-.237.005h-.172c-.455.004-.247.001-.537.002-.026 0-.134.004-.176.002-.077-.006.256-.008-.456-.009-.31.004.15.009.158.01.011.002-.134 0-.175 0-.013 0-.001.002-.013.002-.543 0-.009-.007-.103-.01l-.244.002q-.006 0-.01-.003c-.164.005-.062 0-.502 0-.099 0 .071.002-.204-.001-.064.002-.153.002-.029.004-.177 0-.376-.005-.466-.007-.198.007.448.003.106.009.219 0 .176-.002.212-.002.13.001-.076.003.378.005.075 0 .304 0 .293.002l-.212.001-.16-.001c-.061 0-.024.001-.041.001-.193 0-.074-.001-.134-.001-.131 0-.545.007-.424-.001.218.006.213 0 .129-.002l-.176-.002c-.051-.001.004-.003-.017-.003-.023 0-.295.003-.214-.003-.27.003.018.008-.172.011-.383.006-.466-.004-.503-.005h-.175c-.014 0 .057-.005-.071-.006-.128 0 .006.002-.128.003-.09 0-.25-.007-.311-.003-.043.002.319.007-.07.007l-.096-.01-.445.005c-.047-.004.12-.007-.092-.01-.474.008-.378-.004-.436-.004l-.49.004c-.149-.003-.221-.013-.697-.007a2 2 0 0 0-.177-.004c-.211 0-.074.006-.264.005-.22 0 .078-.002.055-.004-.125-.008-1.222-.006-1.048-.014h-.118l.187-.026c-.335-.004-.539-.013-.502-.017l.214-.006c.059 0 .081.003.192.001.023 0 .097-.008-.091-.007-.021 0 .073.003.029.004-.315.003-.064-.02-.191-.022l-.182.002zm15.054.068c.188.001.047.003.099.005.074.002.799.005.073.003zm.28-.039c-.101.002-.506 0-.338 0 .019-.001.474-.002.338 0m-.192.019c-.006 0 .005-.002.011-.002.163-.001.13.004-.011.002m-.218-.09a87.005 87.005 0 0 0 0 0m.249.078c-.127 0-.065-.002-.035-.003.115 0 .021.002.035.003m-.035-.047c-.1 0-.094.006.037.007-.056-.001.052-.007-.037-.007m-.14-.017c-.017 0 .009.003.097.003.115-.001-.019-.003-.097-.003m.006-.032c-.022 0-.58.001-.213-.003l.22.002q.057 0 .06-.002c.047.002.068.004.035.004-.16.001-.093-.001-.102-.001m-.416-.018c-.091 0-.042-.002-.005-.003h.229c-.015-.002-.26 0-.221-.002s.214 0 .226 0c.017 0-.093-.002.049-.002.106 0 .035.003.057.003.029.001.205 0 .167.002h-.349c-.012 0 .166.004-.152.002zm.47.015h.013zm-.14.126c.095 0 .218.002.093.003-.101 0-.108-.003-.093-.003m-.112-.128c.077-.003.184 0 .252.002-.059 0-.278 0-.252-.002m.129.078h.118zm.105-.007c-.18-.002-.173.002-.044.002.049 0 .051-.002.044-.002m-.089-.051c-.017 0-.561-.003-.153.001q.097-.002.171 0c.137 0 .005-.004.064-.005-.245 0-.024.003-.082.004m-.231-.063c.143 0 .097.002.089.003-.144 0-.098-.002-.089-.003m.02-.306c.133.008-.451.009-.22.002.004 0 .161-.003.22-.002m-.151.068c-.255.001-.296-.001-.19-.003.023 0 .281-.002.332 0-.309 0-.427.002-.142.003m.054.28c-.17-.001-.049-.003-.024-.005.14.001.077.004.024.005m-.027.008c-.101 0-.199-.004.052-.004-.018 0 .012.003-.052.004m.028-.048c-.052 0-.144-.002-.093-.003.108 0 .126.002.093.003m-.133-.268a.966.966 0 0 0 0 0m-.194-.141c.041 0 .331.003.257.004a3 3 0 0 1-.257-.004m.004.12c.211-.003.007 0 .229 0 .008-.002.019-.006-.199-.004-.043 0-.015.002-.03.003m-.074.001c.072 0 .299.002.282 0zm.169-.103c-.196.002-.091-.008-.057-.008l.134-.002c-.013 0 .001.002-.016.002h-.022c.137 0-.002.008-.039.008m-.202.016c-.29-.002.203-.002.219-.002.201.002-.162 0-.179 0-.028 0 .14.003-.04.002m.121-.012c-.006 0 .009-.003.017-.003.165-.001.123.004-.017.003m-.039.1c-.034 0-.163.01.11.009-.032 0 .109-.01-.11-.009m.086.339c.142.002-.334.001-.171 0zm-.004-.286c.156.006-.662.004-.386-.003l.11.001c.122-.008.057 0 .103.002h.174zm-.164.02c-.581.006-.203-.004-.278-.007.24.003.203.006.449.002.047.007-.184.004-.203.004-.022 0 .057.001.032.002m-.004-.013c-.017 0 .101-.002.082-.003.199.001.033.005-.082.003m.139-.13c-.156 0-.27-.001-.212-.003zm-.114.533c-.011.001-.069.004.094.003.014 0-.002-.003-.094-.003m-.065-.437c-.019 0-.032.007.14.004.051 0 .029-.006-.14-.004m.02-.035a.94.94 0 0 0 0 0m-.114.478q-.024.002.088.004c.143-.001-.032-.005-.088-.004m-.197-.172h.165c.002 0-.063-.007.154-.004.037 0-.047.008-.068.01-.232 0-.011-.004-.035-.005zm.306-.377c-.148 0-.245-.007-.067-.007zm-.025.004c-.104.001-.139-.002-.093-.003.1 0 .108.002.093.003m-.521.08c.036 0 .251-.002.293-.001.026 0-.055.002.012.002.022 0 .224-.001.215-.002h-.172c-.003-.002.11-.005.108-.007-.001 0-.113.002-.112 0 0 0 .168-.002.143-.004-.518-.004-.009-.007-.196-.013-.049 0-.18.005-.185.005-.085.004-.094.013-.096.017 0 .002.11.001.114.002zm.484.458c-.203 0-.074.003-.085.004.183 0 .04-.002.085-.004m-.12-.509c.008.001-.053.003.008.003.08 0 .13-.003-.008-.003m-.066.312.011-.001c.163-.002.13.003-.011.001m.039-.037c-.025-.001-.089-.002.076-.003-.025.001.038.003-.076.003m-.005-.051c-.216 0-.076-.004-.057-.004.096 0 .212.004.057.004m-.299-.247c.013-.002-.314-.002-.166-.004.025 0 .705 0 .45.002-.046 0-.207-.001-.284.002m.327.12c-.143-.001-.1-.003-.089-.004.106 0 .079.002.089.003m-.086.426c-.201 0-.052.005.081.004zm.079-.155c-.158-.002-.207.002-.052.004-.011-.001.063-.004.052-.004m-.138-.132.016-.002c.166-.002.123.004-.016.002m-.14.051c-.131 0-.025-.005.105-.006.191 0 .058.007-.105.006m.051-.301a1 1 0 0 1 .09-.005c.109 0-.008.004-.09.005m.075.243h.015zm-.152-.209c-.044.002.157.001.164.001.065 0-.115-.002-.164 0m.136.49c-.181.001-.04.003-.084.005.144 0 .103-.003.084-.004m.018-.384c-.197.002-.426-.005-.299-.006.122 0 .326.006.299.006m-.122.248c-.143 0 .029.003.096.003.043 0-.008-.003-.096-.003m-.208-.314c-.022 0 .124.004.269.003.101-.001-.105-.001-.105-.002 0 0 .252-.006-.164 0m.206.103c-.055-.001.009-.003.005-.004.088 0 .112.004-.005.004m-.036.2c-.058 0-.093.01.085.005.01 0 .089-.006-.085-.005m-.01-.386h-.023zm-.022.024q-.157 0-.076.003c.127 0 .091-.003.076-.003m-.072.158c-.059-.001.004-.003-.003-.004.097 0 .101.003.003.004m-.108.058c.057-.002.031-.004-.087-.004h.057c.02 0-.035-.002.005-.002.239-.005.141.017-.192.004zm-.033.077c-.144 0 .036.004.092.003.039 0 .052-.004-.092-.003m-.085-.036c-.026 0 .074.003.15.003.08-.002-.031-.005-.15-.003m-.303-.277.14.005c-.062.001-.13.024.165.009.009 0-.128 0-.104-.002h.119c.012-.002.082-.006-.008-.008h.059a9 9 0 0 0-.371-.004m.282.272c-.041 0-.002.002.097.002.048 0 0-.003-.097-.002m-.055.11c-.081.002.071.005.152.004a1 1 0 0 0-.152-.003m.108-.094c.117-.006-.01-.001-.154-.002zm.039-.316a5.678 5.678 0 0 1 0 0m-.192-.013c.172 0 .193.001.15.003-.049-.003-.201 0-.15-.003m.133.273h.019zm-.05.094c-.147 0-.136.003.011.002.014 0 .097-.002-.011-.002m-.011-.322h.058zm-.109.31c.109 0 .152-.003.139-.003-.189-.002-.145.002-.139.003m-.034-.361c0-.001 0-.003.134-.003-.021 0-.036.003-.134.003m-.01-.023c.158.002.157.004.131.006-.207 0-.082-.005-.131-.006m-.024.067a1 1 0 0 0 .068.003c.204 0 .007-.003-.068-.003m.146.402c-.095-.001-.388.002-.162.003.116 0 .178-.003.162-.003m-.15-.067c.08.002.223-.002.078-.002zm-.146-.051c-.418.005.344.002.277.001zm.102.272c.058.001.268-.001.13-.002a1 1 0 0 0-.13.002m.169-.344h.004zm-.684.137c.589-.003.135-.003.137-.003.007 0 .166-.002.14-.003q.1 0 .199.004c.043-.001.26-.01.164-.01-.136-.001-.093.002-.105.002h-.41c-.023.001-.031.009-.125.01m.478-.055.159-.001h-.192zm.052.061c-.175.001-.109-.003-.089-.003.118-.001.232.002.089.003m-.026-.036c-.01 0-.064.004.033.003.074 0 .095-.005-.033-.003m-.069-.027c.017-.002.161-.004-.055-.003q.028 0 .055.003m-.181.106c-.343.002.091.001.202 0zm-.255.007c-.062 0 .005.007.187.006.065 0-.098-.004-.086-.004.019 0 .22 0 .18-.001zm.036-.005c-.261.002.22.002.221 0zm.041-.009c-.046.001-.113.003.048.005l.041-.006c-.091 0-.049 0-.089.001m-.722-.47c-.137.001-.189-.003-.155-.003.111 0 .216.002.155.002m-3.212.649c-.054 0-.234 0-.14.001l.397-.003c-.303 0-.197.001-.257.002m-1.107.004c-.007 0-.473 0-.162-.002.21 0 .415.006.208.007-.096-.001.014-.004-.046-.005m-2.015.012c-.037 0-.092-.003-.066-.003.138-.002.265.002.066.003m.089-.009c-.091.002-.149-.001-.097-.002.087 0 .11.002.097.002m-.499-.64a79.502 79.502 0 0 0 0 0m-.06.646c.09-.001.149.002.097.002a.5.5 0 0 1-.097-.002m-.694-.645c-.228.002.536.002.567.001.122 0-.178-.004-.253-.004.115.004-.207.003-.314.004m.459.009c.081.001.237-.003.024-.004.01.001-.048.003-.024.004m-.245.01c-.028 0-.093.003.027.004-.022-.001.096-.004-.027-.004m-.533.01h.284zm-.504-.026c-.081.001.249.003.286 0l.151.003c.185-.004-.273-.004-.254-.005h.523c-.231-.002-.235-.007-.279-.01-.097.003-.265.007-.327.01-.018 0 .086 0 .074.002zm.497.036c-.214.002.249 0 .166 0zm-.387.61c.193-.004.45-.001.06-.009.276.003.199 0 .31.001.088 0 .015.002.192.001-.193.002-.139.008-.171.008-.018 0-.453 0-.391-.001m-.284-.63c-.562 0 .329 0-.136.003.676.002 0-.007.571-.008-.066.01.566-.006-.289 0 .31-.005-.106-.001-.215-.002-.116-.001.01-.004-.199-.004l.044.006c.451-.002.316.002-.052.003zm.423-.011c-.01 0 .053.004.144.004.058 0-.012-.006-.144-.004m-.098-.018c-.001.001-.089.004.081.004.001-.001.089-.003-.081-.004m-.032.076c.139.002.181-.004.015-.002-.008 0-.022.002-.015.002m-.076.58c-.134 0-.04-.005-.041-.006.125 0 .195.006.041.006m-.393-.659c-.482.003.074.007.062.008h-.228c-.012 0 .006.004.02.005h.401c-.168-.002-.063-.01-.096-.011-.026 0-.337.002-.159-.002m-.002.009c.124-.002.139.002.094.003-.103.001-.109-.003-.094-.003m-.114.008c-.028 0-.054.003.085.004.179-.002-.021-.005-.085-.005m.018.037c.018 0-.088.003.032.003-.017 0 .089-.003-.032-.003m-.561.587c-.101.002-.143-.002-.094-.003.08 0 .102.003.094.003m-.234-.605c-.037 0 .055.011.111.013.092-.002.099-.012.054-.013zm-.056-.022c-.177-.001.036-.002.039-.002.027-.001-.013-.004.158-.003-.069.002.156.006-.197.005m.047.04c.066.004.253-.003.068-.002zm-.043-.019c-.143 0-.019-.011-.019-.013.265.002.063.003.077.005h.114c.005.001-.122 0-.124.001-.001 0 .155.008-.048.007m-.127-.022c-.101 0-.145-.007-.118-.007.202-.002.154.006.118.007m-.108.023c-.308-.001-.102-.006.052-.003.014 0-.12.002-.052.003m-.015.018c-.009 0-.07.004.028.004.038 0 .072-.006-.028-.004m-.331-.002c.003 0 .191 0 .167.001-.002 0-.214 0-.136.003h.165c.333-.001-.305-.008-.196-.004m.283-.04h-.221zm-.038.054c-.161-.002-.191.005-.15.005.1 0 .166-.005.15-.005m-.623.572c.037-.002.171 0 .175-.001.197-.004-.107-.003-.142-.003-.078-.002.291-.002.138-.004.226.004.132 0 .263 0 .536 0-.251.005-.139.007.016 0 .187-.002.236 0 .157.001-.67.008-.531 0m.416-.627c-.157 0-.004-.007.125-.005.021 0 .105.006-.125.005m-.232.299c-.136-.002-.297.002-.19.003.052 0 .25-.002.19-.003m-.291-.095a15.616 15.616 0 0 0 0 0m.049.073a.5.5 0 0 0 .097.002c.052 0-.007-.004-.097-.002m-.103-.074c.068.001.341 0 .074-.002zm.051-.174c.155.001.108.004.135.005-.201 0-.099-.004-.135-.005m-.002.096c-.04 0-.028.005.089.003.018 0 .021-.003-.089-.003m0 .498c-.206 0-.157-.003-.121-.003.015 0 .389.002.121.002m-.027-.407c.026.001-.024.004.085.004-.023 0 .13-.004-.085-.004m-.033.092c-.224.002-.202.004.091.004-.019-.003-.263 0-.091-.004m.001-.051c-.12 0-.065.002.012.002.026 0 .086-.003-.012-.003m-.007-.195c-.11.001-.217-.002-.089-.003.184 0 .101.003.089.003m-.154.113c-.178 0-.077.004.071.002.037 0-.011-.002-.071-.002m-.214-.038c.213.003.364-.008.099-.006-.019 0-.117.006-.099.006m.133-.018c-.023 0-.622 0-.391-.002h.224c.021 0 .105-.003.091-.004h-.229l.146-.004c.003-.002-.157-.003-.157-.003l.112-.003c-.001-.006-.137-.015.202-.02-.136.004.009.008.053.013-.334-.002.257.006-.128.002.084.002.15.02.077.02m-.154.212c-.205-.001-.159.005.078.005.033 0-.055-.005-.078-.005m-.499-.026c-.035-.001-.435-.002-.233-.004h.192c.014 0 .213-.003.245 0 .049.002-.298 0-.302.001 0 0 .216.004.264.003h-.021l.206-.001c.015 0-.198-.006-.012-.006.06 0 .198.008.167.008h-.401c-.017 0 .113.004.081.005h-.027q.16.001-.021.002c-.048 0-.02-.002-.012-.002h.012c-.131 0-.125-.007-.32-.005-.106-.002.286 0 .182-.002m-.214-.01h.109c-.089-.003.087-.008.085-.012 0-.001-.223 0-.162-.001.049-.001.256-.003.302-.002.012 0-.123.003-.109.004.041.003.232.002.237.002s-.129.003-.123.004c.015.003.133.004-.021.008-.126-.002-.399-.001-.318-.003m.407-.137c-.12 0-.013-.002-.031-.003.121 0 .014.002.031.003m-.156.357c.198 0 .246-.005.082-.004-.036 0-.081.003-.082.004m-.057-.268.048-.002c.21-.001.089.005-.048.002m-.066.213c.129.002.186-.005.02-.003-.008 0-.026.003-.02.003m-.036-.01c.007 0-.058.002.003.002.097 0 .163-.003-.003-.003m.04-.254c-.223 0-.054-.003-.082-.004.223 0 .054.003.082.004m-.164.023c-.176-.015.3-.012.108.001zm.026-.02c.143.001.1.003.089.004-.099 0-.063-.002-.089-.003m-.049.322c-.18 0 .042-.005.117-.004a.5.5 0 0 1-.117.004m.059-.275c-.216 0-.128-.004-.08-.005.193-.001.032.005.08.005m-.063-.071c-.169-.001-.082-.003-.08-.005.145 0 .083.004.08.005m-.132.01.016-.002c.166-.002.123.004-.016.003m-.157.444.012-.001c.163-.002.13.003-.012.001"/><path stroke="#fff831" stroke-width="3" d="M99.739 132.69c84.586-8.246 118.642-30.185 151.522-105.38"/><path stroke="#fff" d="m253.354 52.354-107 107"/><path stroke="#fff" stroke-width="2" d="M168.5 139.5c12 4.5 7.314 10.971 12 18"/><path fill="#fff" d="m193.736 135.344-.358 2.165h-8.438l.35-2.165zm1.355-.179-.392 2.386q-.443 2.634-1.415 4.338-.971 1.705-2.369 2.531a5.93 5.93 0 0 1-3.068.819q-1.68 0-2.813-.819-1.133-.826-1.56-2.531-.426-1.704.009-4.338l.401-2.386q.426-2.609 1.397-4.287.98-1.679 2.37-2.489 1.397-.81 3.085-.809 1.687 0 2.812.809 1.134.81 1.551 2.489.427 1.678-.008 4.287m-3 2.795.537-3.213q.272-1.654.068-2.761-.196-1.117-.793-1.671-.588-.562-1.508-.562-1.389 0-2.463 1.278-1.065 1.279-1.458 3.716l-.536 3.213q-.418 2.455.23 3.776.656 1.32 2.054 1.321.912 0 1.687-.58.776-.579 1.338-1.713.562-1.142.844-2.804"/></svg>