<svg xmlns="http://www.w3.org/2000/svg" width="300" height="200" fill="none" viewBox="0 0 300 200"><path fill="#000" d="M0 0h300v200H0z"/><path fill="#fff" d="m220 179-10-5.774v11.548zm-70 0v1h61v-2h-61zM245.205 175.455 237.648 190h-3.409l-2.728-14.545h3.182l1.705 11.363h.113l5.455-11.363z"/><path stroke="url(#a)" stroke-linecap="round" stroke-width="8" d="M151 156V93"/><circle cx="150" cy="89" r="88" stroke="#fff" stroke-dasharray="4 4" stroke-width="2"/><circle cx="150" cy="175" r="19" fill="url(#b)"/><path fill="#fff831" d="m131 90-5.774 10h11.548zm0 78 5.773-10h-11.547zm0-69h-1v60h2V99zM119.511 118.625 116.273 138h-3.012l3.239-19.375z"/><path fill="#fff" d="M173.861 95.003q.06-1.534-.912-2.404-.963-.87-2.702-.869-1.21 0-2.216.426-.997.418-1.645 1.15a3.3 3.3 0 0 0-.792 1.671q-.111.69.102 1.21.213.512.656.887t1.014.64q.58.263 1.177.442l1.764.529q.784.23 1.559.588.777.358 1.381.895.606.537.895 1.321.299.783.119 1.875a5.4 5.4 0 0 1-1.142 2.531q-.894 1.108-2.352 1.756t-3.366.647q-1.782 0-3-.588-1.219-.597-1.799-1.645t-.443-2.429h1.636q-.093 1.031.384 1.748.486.715 1.381 1.09.903.367 2.079.367 1.305 0 2.395-.435 1.091-.442 1.798-1.227a3.54 3.54 0 0 0 .887-1.841q.153-.886-.213-1.491-.358-.606-1.117-1.015a9.2 9.2 0 0 0-1.79-.733l-1.994-.613q-1.952-.597-2.906-1.68-.946-1.08-.673-2.76a4.96 4.96 0 0 1 1.167-2.48 6.4 6.4 0 0 1 2.327-1.671 7.5 7.5 0 0 1 3-.597q1.627 0 2.77.605 1.15.605 1.704 1.67.563 1.058.418 2.43zm11.203-.094-.213 1.321h-6.256l.222-1.32zm-3.784-3.136h1.525l-2.13 12.809q-.137.819.068 1.287.204.46.63.657.427.187.938.187.298 0 .511-.034.222-.043.392-.085l.111 1.372a4.5 4.5 0 0 1-.588.153q-.34.077-.818.077a3.3 3.3 0 0 1-1.543-.366 2.44 2.44 0 0 1-1.074-1.091q-.366-.725-.196-1.799zM187.047 108l2.182-13.09h1.474l-.34 2.01h.11q.546-.989 1.628-1.593a4.7 4.7 0 0 1 2.327-.614q.187 0 .418.009.23 0 .383.017l-.264 1.542a13 13 0 0 0-.358-.05 4 4 0 0 0-.554-.035q-1.023 0-1.892.435a4.1 4.1 0 0 0-1.449 1.184 3.9 3.9 0 0 0-.75 1.73L188.564 108zm9.315 0 2.182-13.09h1.526L197.888 108zm3.495-15.367q-.477 0-.81-.323a1.04 1.04 0 0 1-.315-.784q.017-.435.349-.75.34-.324.801-.324.477 0 .81.332a1 1 0 0 1 .315.784q-.008.435-.349.75a1.14 1.14 0 0 1-.801.316m5.635 7.185L204.137 108h-1.517l2.182-13.09h1.474l-.341 2.053h.137a4.53 4.53 0 0 1 1.696-1.61q1.09-.614 2.531-.614 1.313 0 2.216.554.912.545 1.295 1.61.392 1.065.137 2.617l-1.424 8.48h-1.517l1.398-8.386q.264-1.603-.469-2.54-.724-.945-2.241-.946a4.2 4.2 0 0 0-1.918.443 4.1 4.1 0 0 0-1.483 1.278q-.604.827-.801 1.97m15.923 13.364q-1.339 0-2.293-.35-.954-.34-1.551-.937a3.7 3.7 0 0 1-.861-1.338l1.381-.81q.187.495.571.972t1.082.784q.699.315 1.833.315 1.73 0 2.974-.878 1.245-.869 1.551-2.693l.46-2.949h-.136a6 6 0 0 1-.938 1.193 4.9 4.9 0 0 1-1.457.981q-.861.392-2.037.392-1.568 0-2.659-.776t-1.543-2.216q-.452-1.448-.11-3.452.323-1.985 1.244-3.494.929-1.508 2.284-2.352a5.56 5.56 0 0 1 2.983-.844q1.202 0 1.926.426.725.418 1.1 1.04.383.622.554 1.21h.153l.409-2.497h1.483l-2.216 13.432q-.281 1.662-1.159 2.736a5.24 5.24 0 0 1-2.182 1.585q-1.295.52-2.846.52m.92-6.708q1.262 0 2.267-.605 1.014-.613 1.696-1.747.69-1.141.946-2.727.256-1.535-.025-2.719-.273-1.193-1.066-1.875-.784-.69-2.062-.69-1.321 0-2.335.707-1.006.707-1.662 1.91a8.5 8.5 0 0 0-.895 2.667q-.239 1.5.017 2.65.263 1.142 1.04 1.79.775.639 2.079.639"/><defs><linearGradient id="a" x1="155.5" x2="155.5" y1="89" y2="160" gradientUnits="userSpaceOnUse"><stop stop-color="#b2532a"/><stop offset="1" stop-color="#4c3c12"/></linearGradient><linearGradient id="b" x1="150" x2="150" y1="156" y2="194" gradientUnits="userSpaceOnUse"><stop stop-color="#ff8feb"/><stop offset="1" stop-color="#ca2aad"/></linearGradient></defs></svg>