<svg xmlns="http://www.w3.org/2000/svg" width="300" height="200" fill="none" viewBox="0 0 300 200"><g clip-path="url(#a)"><path fill="url(#b)" d="M0 0h300v200H0z"/><ellipse cx="150.5" cy="100" fill="url(#c)" rx="62.5" ry="63"/><path stroke="#fff" stroke-dasharray="5 5" d="M152.841 57.067a41 41 0 0 1 4.654.53l-.084.49q2.3.395 4.506 1.043l.14-.478q2.26.663 4.409 1.57l-.194.46a41 41 0 0 1 4.153 2.039l.243-.433a42 42 0 0 1 3.943 2.526l-.292.404a41 41 0 0 1 3.59 2.918l.334-.37a42 42 0 0 1 3.28 3.341l-.372.33a42 42 0 0 1 2.855 3.64l.409-.286a42 42 0 0 1 2.462 3.982l-.437.24a41 41 0 0 1 1.981 4.18l.46-.187a42 42 0 0 1 1.523 4.426l-.479.136a42 42 0 0 1 1.009 4.516l.489-.082q.381 2.29.512 4.656l-.497.027a43 43 0 0 1 0 4.63l.497.026a43 43 0 0 1-.512 4.656l-.489-.081a42 42 0 0 1-1.009 4.516l.479.135a42 42 0 0 1-1.523 4.426l-.46-.186a41 41 0 0 1-1.981 4.18l.437.239a42 42 0 0 1-2.462 3.982l-.409-.285a41 41 0 0 1-2.855 3.64l.372.329a42 42 0 0 1-3.28 3.34l-.334-.368a41 41 0 0 1-3.59 2.918l.292.404a42 42 0 0 1-3.943 2.525l-.243-.432a40 40 0 0 1-4.153 2.039l.194.458a41 41 0 0 1-4.409 1.571l-.14-.477q-2.206.647-4.506 1.043l.084.489a41 41 0 0 1-4.654.53l-.027-.497a41 41 0 0 1-4.628 0l-.028.497a41 41 0 0 1-4.654-.53l.085-.489a40 40 0 0 1-4.506-1.043l-.141.477a41 41 0 0 1-4.409-1.571l.195-.458a40 40 0 0 1-4.153-2.039l-.244.432a42 42 0 0 1-3.943-2.525l.293-.404a41 41 0 0 1-3.59-2.918l-.335.368a42 42 0 0 1-3.28-3.34l.373-.329a41 41 0 0 1-2.855-3.64l-.41.285a42 42 0 0 1-2.462-3.982l.438-.239a41 41 0 0 1-1.981-4.18l-.461.186a42 42 0 0 1-1.523-4.426l.48-.135a42 42 0 0 1-1.009-4.516l-.49.081a43 43 0 0 1-.512-4.656l.498-.026a43 43 0 0 1 0-4.63l-.498-.027q.13-2.366.512-4.656l.49.082a42 42 0 0 1 1.009-4.516l-.48-.136a42 42 0 0 1 1.523-4.426l.461.187a41 41 0 0 1 1.981-4.18l-.438-.24a42 42 0 0 1 2.462-3.982l.41.286a42 42 0 0 1 2.855-3.64l-.373-.33a42 42 0 0 1 3.28-3.34l.335.369a41 41 0 0 1 3.59-2.918l-.293-.404a42 42 0 0 1 3.943-2.526l.244.433a41 41 0 0 1 4.153-2.04l-.195-.458a41 41 0 0 1 4.409-1.57l.141.477q2.206-.647 4.506-1.043l-.085-.49a41 41 0 0 1 4.654-.53l.028.498a41 41 0 0 1 4.628 0z"/><path fill="#000" d="M32 99a1 1 0 1 0 0 2zm56 1-10-5.773v11.547zm-56 0v1h47v-2H32zM269 101a1 1 0 0 0 0-2zm-56-1 10 5.774V94.227zm56 0v-1h-47v2h47zM151-19a1 1 0 0 0-2 0zm-1 56 5.774-10h-11.548zm0-56h-1v47h2v-47zM58.707 14.293a1 1 0 0 0-1.414 1.414zM103 60l-2.989-11.154-8.165 8.165zM58 15l-.707.707 38.636 38.636.707-.707.707-.707-38.636-38.636zM66.293 188.293a1 1 0 1 0 1.414 1.414zM108 148l-11.154 2.989 8.165 8.165zm-41 41 .707.707 34.636-34.636-.707-.707-.707-.707-34.636 34.636zM236.284 183.698a.999.999 0 1 0 1.432-1.396zM198 143l2.847 11.19 8.268-8.06zm39 40 .716-.698-32.717-33.556-.716.698-.716.698 32.717 33.556zM237.707 15.707a1 1 0 1 0-1.414-1.414zM195 57l11.154-2.989-8.165-8.165zm42-42-.707-.707-35.636 35.636.707.707.707.707 35.636-35.636zM149 219a1 1 0 0 0 2 0zm1-56-5.774 10h11.548zm0 56h1v-47h-2v47z"/></g><defs><linearGradient id="b" x1="150" x2="150" y1="0" y2="200" gradientUnits="userSpaceOnUse"><stop stop-color="#8cfbff"/><stop offset="1" stop-color="#549799"/></linearGradient><linearGradient id="c" x1="150.5" x2="150.5" y1="37" y2="163" gradientUnits="userSpaceOnUse"><stop stop-color="#da3033"/><stop offset="1" stop-color="#741a1b"/></linearGradient><clipPath id="a"><path fill="#fff" d="M0 0h300v200H0z"/></clipPath></defs></svg>