<svg xmlns="http://www.w3.org/2000/svg" width="300" height="200" fill="none" viewBox="0 0 300 200"><path fill="#000" d="M0 0h300v200H0z"/><path fill="url(#a)" d="M128.236 8.75c3.095 0 5.017 3.364 3.447 6.03L110 51.59v93.818l21.683 36.812c1.57 2.666-.352 6.03-3.447 6.03H54.764c-3.095 0-5.017-3.364-3.447-6.03l20.685-35.118L72 147V51q.001-.478.107-.923L51.317 14.78c-1.57-2.666.352-6.03 3.447-6.03z"/><rect width="38" height="176" x="195" y="12" fill="url(#b)" rx="4"/><path fill="#fff" d="M41.227 80.91 36.397 110h-2.655l4.36-26.307h-.17l-7.571 4.531.468-2.755 7.628-4.56zM264.42 105l.341-1.946 11.25-10.682q2.202-2.102 3.594-3.594 1.392-1.505 2.131-2.755a7.7 7.7 0 0 0 .966-2.628q.27-1.662-.284-2.898a4.06 4.06 0 0 0-1.748-1.946q-1.193-.696-2.897-.696-1.79 0-3.282.767a7.06 7.06 0 0 0-2.485 2.117q-.98 1.335-1.279 3.054h-2.542q.398-2.415 1.832-4.276a10.3 10.3 0 0 1 3.58-2.94 10.1 10.1 0 0 1 4.588-1.066q2.442 0 4.147 1.052 1.706 1.036 2.472 2.826.767 1.79.398 4.006a10.4 10.4 0 0 1-1.094 3.125q-.81 1.491-2.486 3.338t-4.531 4.517l-8.537 8.054-.043.185h14.39l-.398 2.386z"/><defs><linearGradient id="a" x1="116.5" x2="60" y1="99" y2="99" gradientUnits="userSpaceOnUse"><stop stop-color="#d9d9d9"/><stop offset="1" stop-color="#737373"/></linearGradient><linearGradient id="b" x1="233" x2="195" y1="100" y2="100" gradientUnits="userSpaceOnUse"><stop stop-color="#d9d9d9"/><stop offset="1" stop-color="#737373"/></linearGradient></defs></svg>