<svg xmlns="http://www.w3.org/2000/svg" width="300" height="200" fill="none" viewBox="0 0 300 200"><path fill="#000" d="M0 0h300v200H0z"/><path fill="#fff" d="m37 9-5.773 10h11.546zm0 163h1V18h-2v154z"/><path fill="#fff" d="m283 171-10-5.774v11.548zm-246 0v1h237v-2H37zM131.574 183.335q.04-1.023-.608-1.602-.642-.58-1.801-.58-.808 0-1.477.285a2.95 2.95 0 0 0-1.097.767q-.426.488-.529 1.113-.074.46.069.807.141.34.437.591t.676.426q.387.176.784.296l1.177.352q.523.153 1.039.392.518.239.921.596.404.359.596.881.199.523.08 1.25a3.6 3.6 0 0 1-.761 1.688q-.597.738-1.569 1.17-.97.432-2.244.432-1.187 0-2-.392-.813-.398-1.199-1.097t-.295-1.619h1.091q-.063.687.255 1.165.324.477.921.727.601.244 1.386.244a4.3 4.3 0 0 0 1.597-.289q.727-.296 1.199-.819.477-.528.59-1.227.103-.59-.142-.994-.238-.404-.744-.676a6 6 0 0 0-1.193-.489l-1.33-.409q-1.3-.397-1.937-1.119-.631-.722-.449-1.841.16-.943.778-1.654a4.25 4.25 0 0 1 1.552-1.113 5 5 0 0 1 2-.398q1.085 0 1.846.403.767.403 1.137 1.114.374.704.278 1.619zm6.988-.062-.142.88h-4.17l.148-.88zm-2.522-2.091h1.017l-1.421 8.54q-.09.544.046.858.136.306.42.437.285.125.625.125.199 0 .341-.023.148-.029.262-.057l.073.915a3 3 0 0 1-.392.103 2.5 2.5 0 0 1-.545.051 2.2 2.2 0 0 1-1.028-.245 1.6 1.6 0 0 1-.716-.727q-.245-.483-.131-1.199zM139.405 192l1.454-8.727h.983l-.227 1.341h.074a2.7 2.7 0 0 1 1.085-1.063 3.1 3.1 0 0 1 1.551-.409q.125 0 .279.006.153 0 .255.011l-.176 1.029q-.068-.012-.238-.035a3 3 0 0 0-.37-.022 2.78 2.78 0 0 0-2.227 1.079 2.6 2.6 0 0 0-.5 1.154l-.932 5.636zm8.133.199q-.789 0-1.392-.307a2 2 0 0 1-.897-.898q-.29-.59-.16-1.432.114-.647.432-1.09.324-.444.818-.728a4.4 4.4 0 0 1 1.137-.454q.642-.165 1.398-.25.738-.091 1.261-.159.522-.069.812-.216a.63.63 0 0 0 .347-.477l.034-.205q.148-.893-.273-1.403-.42-.518-1.409-.518-.942 0-1.636.421-.687.414-1.023.972l-.898-.347a3.5 3.5 0 0 1 1.006-1.142 4 4 0 0 1 1.279-.619 5 5 0 0 1 1.346-.194q.501 0 1.017.131.518.13.926.455.416.318.608.892.2.568.057 1.443l-.989 5.926h-1.011l.233-1.381h-.062q-.24.387-.66.75a3.4 3.4 0 0 1-.994.597 3.5 3.5 0 0 1-1.307.233m.256-.926q.807 0 1.46-.358.66-.358 1.08-.949.426-.596.545-1.313l.21-1.261q-.124.108-.409.193a6 6 0 0 1-.63.154q-.346.061-.699.108l-.614.079a6.5 6.5 0 0 0-1.318.284q-.557.193-.892.534a1.53 1.53 0 0 0-.42.864q-.131.795.346 1.233.483.432 1.341.432m6.247.727 1.455-8.727h1.017L155.058 192zm2.33-10.244a.75.75 0 0 1-.54-.216.703.703 0 0 1 .023-1.023.75.75 0 0 1 .534-.216q.318 0 .54.222a.67.67 0 0 1 .21.522.68.68 0 0 1-.233.5.76.76 0 0 1-.534.211m3.277 4.789-.904 5.455h-1.011l1.455-8.727h.982l-.227 1.369h.091q.41-.67 1.131-1.074.727-.41 1.687-.409.875 0 1.478.369.608.364.863 1.074.262.71.091 1.745l-.949 5.653h-1.011l.932-5.591q.176-1.068-.313-1.693-.483-.631-1.494-.631-.687 0-1.279.296a2.7 2.7 0 0 0-.988.852 3.06 3.06 0 0 0-.534 1.312M14.335 110.426q-1.023-.04-1.602.608-.58.642-.58 1.801 0 .808.284 1.477.279.666.768 1.097.488.426 1.113.529.46.074.807-.069.34-.141.59-.437.252-.296.427-.676a6 6 0 0 0 .296-.784l.352-1.177q.153-.522.392-1.039t.596-.921q.359-.404.881-.596.523-.199 1.25-.08.943.16 1.688.761.738.597 1.17 1.569.432.97.432 2.244 0 1.188-.392 2-.397.813-1.097 1.199-.699.386-1.62.295v-1.091q.69.063 1.166-.255.477-.324.727-.921.244-.601.244-1.386 0-.87-.29-1.597a3.2 3.2 0 0 0-.818-1.199 2.35 2.35 0 0 0-1.227-.59q-.59-.103-.994.142-.405.239-.676.744a6 6 0 0 0-.489 1.193l-.41 1.33q-.396 1.3-1.119 1.937-.72.631-1.84.449a3.3 3.3 0 0 1-1.654-.778 4.25 4.25 0 0 1-1.113-1.552 5 5 0 0 1-.398-2q0-1.085.403-1.846.404-.767 1.114-1.137.705-.374 1.62-.278zm-.062-6.988.88.142v4.17l-.88-.148zm-2.091 2.522v-1.017l8.54 1.421q.546.09.857-.046a.83.83 0 0 0 .438-.42q.125-.285.125-.625a2 2 0 0 0-.023-.341 5 5 0 0 0-.056-.262l.914-.073a3 3 0 0 1 .154.937q0 .557-.245 1.028a1.6 1.6 0 0 1-.727.716q-.482.245-1.199.131zM23 102.595l-8.727-1.454v-.983l1.34.227v-.074a2.7 2.7 0 0 1-1.062-1.085 3.1 3.1 0 0 1-.409-1.551q0-.125.006-.279 0-.153.011-.255l1.028.176-.034.238q-.022.165-.022.37a2.78 2.78 0 0 0 1.08 2.227q.504.387 1.153.5l5.636.932zm.182-8.959q0 1.222-.568 2.017-.574.796-1.586 1.114-1.017.318-2.34.097-1.32-.222-2.341-.875-1.029-.654-1.608-1.614a3.93 3.93 0 0 1-.586-2.085q0-.71.262-1.33a2.6 2.6 0 0 1 .79-1.05q.528-.439 1.335-.609.8-.17 1.898.011l.5.08v6.818l-.892-.142v-5.79q-.841-.141-1.512.08-.67.222-1.062.756-.399.529-.398 1.312 0 .801.449 1.517.45.71 1.17 1.205a3.9 3.9 0 0 0 1.529.63l.67.114q1.108.181 1.858-.045.744-.227 1.125-.824.38-.596.38-1.529 0-.624-.192-1.13a3 3 0 0 0-.517-.881q-.33-.375-.722-.602l.312-.904q.552.29 1.017.819.466.522.75 1.244.279.716.279 1.596m-6.994-12.79.25.97a2 2 0 0 0-.705.273 1.3 1.3 0 0 0-.5.563q-.187.363-.187.954 0 .886.431 1.529.426.642 1.091.75.556.09.904-.233.345-.33.545-1.102l.324-1.273q.273-1.057.852-1.506.58-.454 1.466-.312.738.125 1.307.63.568.5.892 1.285.324.778.324 1.738 0 1.29-.58 2.029-.58.733-1.67.784l-.227-1.017q.773-.045 1.17-.529.398-.489.398-1.375 0-1.01-.46-1.699-.46-.687-1.137-.79-.534-.096-.886.2-.353.29-.523.988l-.34 1.358q-.279 1.096-.87 1.551-.596.45-1.472.301a2.5 2.5 0 0 1-1.267-.602 3.3 3.3 0 0 1-.852-1.222 4.1 4.1 0 0 1-.313-1.613q0-1.205.546-1.835.54-.63 1.489-.796m0-8.204.25.972q-.393.074-.705.272a1.3 1.3 0 0 0-.5.563q-.187.363-.187.954 0 .886.431 1.529.426.642 1.091.75.556.09.904-.233.345-.33.545-1.102l.324-1.273q.273-1.057.852-1.506.58-.454 1.466-.312.738.125 1.307.63.568.5.892 1.285.324.778.324 1.738 0 1.29-.58 2.028-.58.734-1.67.785l-.227-1.017q.773-.046 1.17-.529.398-.489.398-1.375 0-1.01-.46-1.699-.46-.687-1.137-.79-.534-.096-.886.2-.353.288-.523.988l-.34 1.358q-.279 1.097-.87 1.551-.596.45-1.472.301a2.5 2.5 0 0 1-1.267-.602 3.3 3.3 0 0 1-.852-1.222 4.1 4.1 0 0 1-.313-1.613q0-1.205.546-1.835.54-.631 1.489-.796"/><path stroke="#ff3c3c" stroke-width="2" d="M38.5 171s35-91.5 44-102S107 55.5 107 55.5s4 1.5 12 0 77.5-38.5 117.5-34 41 15 45 28"/><circle cx="80" cy="74" r="3" fill="#fff"/><circle cx="37" cy="171" r="3" fill="#fff"/><circle cx="93" cy="61" r="3" fill="#fff"/><circle cx="114" cy="55" r="3" fill="#fff"/><circle cx="236" cy="21" r="3" fill="#fff"/><circle cx="280" cy="49" r="3" fill="#fff"/><path fill="#fff" d="M59.835 74h-1.113l6.164-11.636h1.137L68.323 74H67.21l-1.937-10.256h-.074zm1.546-4.46h5.772l-.159.954h-5.772zM31.313 177.244q-.302 1.802-1.16 3.131-.857 1.33-2.096 2.057a5.2 5.2 0 0 1-2.693.727q-1.496 0-2.523-.744-1.023-.75-1.449-2.103-.426-1.357-.125-3.193.3-1.8 1.16-3.13.857-1.33 2.101-2.057a5.26 5.26 0 0 1 2.705-.727q1.477 0 2.5.744t1.454 2.102q.432 1.353.125 3.193m-1.017-.125q.261-1.557-.069-2.653-.324-1.097-1.113-1.676-.79-.585-1.915-.585-1.165 0-2.188.602-1.022.597-1.744 1.727-.721 1.125-.989 2.71-.255 1.551.069 2.654.323 1.096 1.113 1.682.796.579 1.926.579 1.17 0 2.194-.602 1.021-.602 1.738-1.727.722-1.131.977-2.711M80.818 51l1.932-11.636h3.926q1.137 0 1.83.397.693.398.954 1.086.267.687.114 1.562-.12.728-.449 1.244-.33.512-.801.836-.466.318-1.006.46l-.017.09q.557.04 1.028.398.472.352.705.99.239.635.097 1.522a3.6 3.6 0 0 1-.66 1.574q-.506.687-1.386 1.085-.874.392-2.125.392zm1.222-.955h3.08q1.346 0 2.09-.596.745-.597.904-1.5.108-.665-.125-1.205a1.83 1.83 0 0 0-.762-.863q-.529-.319-1.312-.319H82.79zm.909-5.426h2.96q.687 0 1.25-.284t.932-.784.472-1.142q.159-.926-.347-1.506-.5-.585-1.699-.585h-2.864zM119.244 34h-1.056a2.9 2.9 0 0 0-.239-1.102 2.72 2.72 0 0 0-1.568-1.483 3.4 3.4 0 0 0-1.222-.21q-1.114 0-2.131.585-1.017.579-1.75 1.704t-1 2.75q-.267 1.603.086 2.7.351 1.09 1.153 1.653.807.562 1.892.562.693 0 1.33-.21a4.5 4.5 0 0 0 1.17-.585q.534-.38.938-.892.403-.511.625-1.108h1.068a5.748 5.748 0 0 1-1.96 2.699 5.4 5.4 0 0 1-1.495.806 5.1 5.1 0 0 1-1.727.29q-1.488 0-2.517-.744-1.023-.744-1.455-2.097-.425-1.357-.119-3.199.301-1.807 1.153-3.136.858-1.33 2.103-2.051a5.26 5.26 0 0 1 2.704-.727q.931 0 1.671.29.739.284 1.255.806.523.517.802 1.205a4.1 4.1 0 0 1 .289 1.494M225.256 42h-3.438l1.932-11.636h3.585q1.659 0 2.739.704 1.08.705 1.5 2.017.42 1.307.114 3.125-.302 1.818-1.154 3.114a5.75 5.75 0 0 1-2.193 1.989q-1.335.687-3.085.687m-2.216-.955h2.272q1.489 0 2.603-.602a4.84 4.84 0 0 0 1.812-1.71q.699-1.113.949-2.642.25-1.5-.057-2.568-.3-1.068-1.164-1.637-.858-.567-2.279-.568h-2.528zM268.818 74l1.932-11.636h6.75l-.159.954h-5.688l-.727 4.38h5.33l-.159.955h-5.33l-.727 4.392h5.801l-.159.955z"/></svg>