<svg xmlns="http://www.w3.org/2000/svg" width="300" height="200" fill="none" viewBox="0 0 300 200"><path fill="#000" d="M0 0h300v200H0z"/><path stroke="#fff" d="M41 66.5h211M41 126.5h211M41.5 27v145M252.5 31v145M33.39 35.688l8 10M252.611 45.638l8.06-9.953M252.611 62.638l8.06-9.953M252.611 82.638l8.06-9.953M252.611 99.638l8.06-9.953M252.611 113.638l8.06-9.953M252.611 130.638l8.06-9.953M252.611 150.638l8.06-9.953M252.611 167.638l8.06-9.953M33.39 52.688l8 10M33.39 72.688l8 10M33.39 89.688l8 10M33.39 103.688l8 10M33.39 120.688l8 10M33.39 140.688l8 10M33.39 157.688l4.877 12.498"/><path fill="#fff" d="M47.646 136.146a.5.5 0 0 0 0 .708l3.182 3.182a.5.5 0 0 0 .707-.708l-2.828-2.828 2.828-2.828a.501.501 0 0 0-.707-.708zm196.708.708a.5.5 0 0 0 0-.708l-3.182-3.182a.502.502 0 0 0-.708.708l2.829 2.828-2.829 2.828a.502.502 0 0 0 .708.708zM48 136.5v.5h196v-1H48zM148.864 145.98V163h-2.093v-17.02zM148.247 105.435h-6.992L139.967 109h-2.208l5.796-15.939h2.415L151.743 109h-2.208zm-.598-1.702-2.898-8.096-2.898 8.096z"/><path fill="url(#a)" fill-opacity=".54" d="M42 67h210v58H42z"/><defs><linearGradient id="a" x1="42" x2="252" y1="96" y2="96" gradientUnits="userSpaceOnUse"><stop stop-color="#d9d9d9"/><stop offset="1" stop-color="#737373"/></linearGradient></defs></svg>