<svg xmlns="http://www.w3.org/2000/svg" width="300" height="200" fill="none" viewBox="0 0 300 200"><path fill="#000" d="M0 0h300v200H0z"/><path fill="#fff" d="m37 9-5.773 10h11.546zm0 163h1V18h-2v154z"/><path fill="#fff" d="m258 171-10-5.774v11.548zm-221 0v1h212v-2H37zM131.574 183.335q.04-1.023-.608-1.602-.642-.58-1.801-.58-.808 0-1.477.285a2.95 2.95 0 0 0-1.097.767q-.426.488-.529 1.113-.074.46.069.807.141.34.437.591t.676.426q.387.176.784.296l1.177.352q.523.153 1.039.392.518.239.921.596.404.359.596.881.199.523.08 1.25a3.6 3.6 0 0 1-.761 1.688q-.597.738-1.569 1.17-.97.432-2.244.432-1.187 0-2-.392-.813-.398-1.199-1.097t-.295-1.619h1.091q-.063.687.255 1.165.324.477.921.727.601.244 1.386.244a4.3 4.3 0 0 0 1.597-.289q.727-.296 1.199-.819.477-.528.59-1.227.103-.59-.142-.994-.238-.404-.744-.676a6 6 0 0 0-1.193-.489l-1.33-.409q-1.3-.397-1.937-1.119-.631-.722-.449-1.841.16-.943.778-1.654a4.25 4.25 0 0 1 1.552-1.113 5 5 0 0 1 2-.398q1.085 0 1.846.403.767.403 1.137 1.114.374.704.278 1.619zm6.988-.062-.142.88h-4.17l.148-.88zm-2.522-2.091h1.017l-1.421 8.54q-.09.544.046.858.136.306.42.437.285.125.625.125.199 0 .341-.023.148-.029.262-.057l.073.915a3 3 0 0 1-.392.103 2.5 2.5 0 0 1-.545.051 2.2 2.2 0 0 1-1.028-.245 1.6 1.6 0 0 1-.716-.727q-.245-.483-.131-1.199zM139.405 192l1.454-8.727h.983l-.227 1.341h.074a2.7 2.7 0 0 1 1.085-1.063 3.1 3.1 0 0 1 1.551-.409q.125 0 .279.006.153 0 .255.011l-.176 1.029q-.068-.012-.238-.035a3 3 0 0 0-.37-.022 2.78 2.78 0 0 0-2.227 1.079 2.6 2.6 0 0 0-.5 1.154l-.932 5.636zm8.133.199q-.789 0-1.392-.307a2 2 0 0 1-.897-.898q-.29-.59-.16-1.432.114-.647.432-1.09.324-.444.818-.728a4.4 4.4 0 0 1 1.137-.454q.642-.165 1.398-.25.738-.091 1.261-.159.522-.069.812-.216a.63.63 0 0 0 .347-.477l.034-.205q.148-.893-.273-1.403-.42-.518-1.409-.518-.942 0-1.636.421-.687.414-1.023.972l-.898-.347a3.5 3.5 0 0 1 1.006-1.142 4 4 0 0 1 1.279-.619 5 5 0 0 1 1.346-.194q.501 0 1.017.131.518.13.926.455.416.318.608.892.2.568.057 1.443l-.989 5.926h-1.011l.233-1.381h-.062q-.24.387-.66.75a3.4 3.4 0 0 1-.994.597 3.5 3.5 0 0 1-1.307.233m.256-.926q.807 0 1.46-.358.66-.358 1.08-.949.426-.596.545-1.313l.21-1.261q-.124.108-.409.193a6 6 0 0 1-.63.154q-.346.061-.699.108l-.614.079a6.5 6.5 0 0 0-1.318.284q-.557.193-.892.534a1.53 1.53 0 0 0-.42.864q-.131.795.346 1.233.483.432 1.341.432m6.247.727 1.455-8.727h1.017L155.058 192zm2.33-10.244a.75.75 0 0 1-.54-.216.703.703 0 0 1 .023-1.023.75.75 0 0 1 .534-.216q.318 0 .54.222a.67.67 0 0 1 .21.522.68.68 0 0 1-.233.5.76.76 0 0 1-.534.211m3.277 4.789-.904 5.455h-1.011l1.455-8.727h.982l-.227 1.369h.091q.41-.67 1.131-1.074.727-.41 1.687-.409.875 0 1.478.369.608.364.863 1.074.262.71.091 1.745l-.949 5.653h-1.011l.932-5.591q.176-1.068-.313-1.693-.483-.631-1.494-.631-.687 0-1.279.296a2.7 2.7 0 0 0-.988.852 3.06 3.06 0 0 0-.534 1.312M14.335 110.426q-1.023-.04-1.602.608-.58.642-.58 1.801 0 .808.284 1.477.279.666.768 1.097.488.426 1.113.529.46.074.807-.069.34-.141.59-.437.252-.296.427-.676a6 6 0 0 0 .296-.784l.352-1.177q.153-.522.392-1.039t.596-.921q.359-.404.881-.596.523-.199 1.25-.08.943.16 1.688.761.738.597 1.17 1.569.432.97.432 2.244 0 1.188-.392 2-.397.813-1.097 1.199-.699.386-1.62.295v-1.091q.69.063 1.166-.255.477-.324.727-.921.244-.601.244-1.386 0-.87-.29-1.597a3.2 3.2 0 0 0-.818-1.199 2.35 2.35 0 0 0-1.227-.59q-.59-.103-.994.142-.405.239-.676.744a6 6 0 0 0-.489 1.193l-.41 1.33q-.396 1.3-1.119 1.937-.72.631-1.84.449a3.3 3.3 0 0 1-1.654-.778 4.25 4.25 0 0 1-1.113-1.552 5 5 0 0 1-.398-2q0-1.085.403-1.846.404-.767 1.114-1.137.705-.374 1.62-.278zm-.062-6.988.88.142v4.17l-.88-.148zm-2.091 2.522v-1.017l8.54 1.421q.546.09.857-.046a.83.83 0 0 0 .438-.42q.125-.285.125-.625a2 2 0 0 0-.023-.341 5 5 0 0 0-.056-.262l.914-.073a3 3 0 0 1 .154.937q0 .557-.245 1.028a1.6 1.6 0 0 1-.727.716q-.482.245-1.199.131zM23 102.595l-8.727-1.454v-.983l1.34.227v-.074a2.7 2.7 0 0 1-1.062-1.085 3.1 3.1 0 0 1-.409-1.551q0-.125.006-.279 0-.153.011-.255l1.028.176-.034.238q-.022.165-.022.37a2.78 2.78 0 0 0 1.08 2.227q.504.387 1.153.5l5.636.932zm.182-8.959q0 1.222-.568 2.017-.574.796-1.586 1.114-1.017.318-2.34.097-1.32-.222-2.341-.875-1.029-.654-1.608-1.614a3.93 3.93 0 0 1-.586-2.085q0-.71.262-1.33a2.6 2.6 0 0 1 .79-1.05q.528-.439 1.335-.609.8-.17 1.898.011l.5.08v6.818l-.892-.142v-5.79q-.841-.141-1.512.08-.67.222-1.062.756-.399.529-.398 1.312 0 .801.449 1.517.45.71 1.17 1.205a3.9 3.9 0 0 0 1.529.63l.67.114q1.108.181 1.858-.045.744-.227 1.125-.824.38-.596.38-1.529 0-.624-.192-1.13a3 3 0 0 0-.517-.881q-.33-.375-.722-.602l.312-.904q.552.29 1.017.819.466.522.75 1.244.279.716.279 1.596m-6.994-12.79.25.97a2 2 0 0 0-.705.273 1.3 1.3 0 0 0-.5.563q-.187.363-.187.954 0 .886.431 1.529.426.642 1.091.75.556.09.904-.233.345-.33.545-1.102l.324-1.273q.273-1.057.852-1.506.58-.454 1.466-.312.738.125 1.307.63.568.5.892 1.285.324.778.324 1.738 0 1.29-.58 2.029-.58.733-1.67.784l-.227-1.017q.773-.045 1.17-.529.398-.489.398-1.375 0-1.01-.46-1.699-.46-.687-1.137-.79-.534-.096-.886.2-.353.29-.523.988l-.34 1.358q-.279 1.096-.87 1.551-.596.45-1.472.301a2.5 2.5 0 0 1-1.267-.602 3.3 3.3 0 0 1-.852-1.222 4.1 4.1 0 0 1-.313-1.613q0-1.205.546-1.835.54-.63 1.489-.796m0-8.204.25.972q-.393.074-.705.272a1.3 1.3 0 0 0-.5.563q-.187.363-.187.954 0 .886.431 1.529.426.642 1.091.75.556.09.904-.233.345-.33.545-1.102l.324-1.273q.273-1.057.852-1.506.58-.454 1.466-.312.738.125 1.307.63.568.5.892 1.285.324.778.324 1.738 0 1.29-.58 2.028-.58.734-1.67.785l-.227-1.017q.773-.046 1.17-.529.398-.489.398-1.375 0-1.01-.46-1.699-.46-.687-1.137-.79-.534-.096-.886.2-.353.288-.523.988l-.34 1.358q-.279 1.097-.87 1.551-.596.45-1.472.301a2.5 2.5 0 0 1-1.267-.602 3.3 3.3 0 0 1-.852-1.222 4.1 4.1 0 0 1-.313-1.613q0-1.205.546-1.835.54-.631 1.489-.796"/><path stroke="#ff3c3c" stroke-width="2" d="M38 170.5c21 0 166.5-13.5 199-140"/></svg>