<svg xmlns="http://www.w3.org/2000/svg" width="300" height="200" fill="none" viewBox="0 0 300 200"><path fill="#000" d="M0 0h300v200H0z"/><path fill="url(#a)" d="M7 26h27v147H7z"/><path fill="url(#b)" d="M34 75h177v40H34z"/><path stroke="url(#c)" stroke-dasharray="5 5" d="M34.5 75.5h209v39h-209z"/><path fill="#f8ff35" d="m255.636 131 3.864-23.273h13.466l-.318 1.909h-11.341l-1.455 8.762h10.284l-.318 1.909h-10.284L257.761 131zM291 93l-10-5.773v11.546zm-47 0v1h38v-2h-38z"/><defs><linearGradient id="a" x1="34" x2="7" y1="99.5" y2="99.5" gradientUnits="userSpaceOnUse"><stop stop-color="#9c5c02"/><stop offset="1"/></linearGradient><linearGradient id="b" x1="34" x2="211" y1="95" y2="95" gradientUnits="userSpaceOnUse"><stop stop-color="#d9d9d9"/><stop offset="1" stop-color="#737373"/></linearGradient><linearGradient id="c" x1="34" x2="244" y1="95" y2="95" gradientUnits="userSpaceOnUse"><stop stop-color="#cecece"/><stop offset="1" stop-color="#eeeaea"/></linearGradient></defs></svg>