<svg xmlns="http://www.w3.org/2000/svg" width="300" height="200" fill="none" viewBox="0 0 300 200"><path fill="#000" d="M0 0h300v200H0z"/><path fill="url(#a)" d="M17 194h27v265H17z" transform="rotate(-90 17 194)"/><path fill="url(#b)" d="M32 51h168v116H32z"/><path stroke="#fff" stroke-dasharray="5 5" d="M99.5 52.185C78.333 88.623 35.5 162.5 33.5 166.5h167L260 52.185z"/><path fill="#f8ff35" d="m226.636 44 3.864-23.273h13.466l-.318 1.91h-11.341l-1.455 8.76h10.284l-.318 1.91h-10.284L228.761 44zM284 52l-10-5.773v11.547zm-84 0v1h75v-2h-75z"/><defs><linearGradient id="a" x1="44" x2="17" y1="326.5" y2="326.5" gradientUnits="userSpaceOnUse"><stop stop-color="#9c5c02"/><stop offset="1"/></linearGradient><linearGradient id="b" x1="116" x2="116" y1="51" y2="167" gradientUnits="userSpaceOnUse"><stop stop-color="#d9d9d9"/><stop offset="1" stop-color="#737373"/></linearGradient></defs></svg>