<svg xmlns="http://www.w3.org/2000/svg" width="300" height="200" fill="none" viewBox="0 0 300 200"><g clip-path="url(#a)"><path fill="#000" d="M0 0h300v200H0z"/><path fill="#fff" d="m178.852 48.5 11.373 19.698 6.477-11.218.289-.5h33.447v43.34h55.444v2h-55.444v40.514h-32.292l-7.055 12.22-.866 1.5-.867-1.5-11.374-19.7-11.373 19.7-.865 1.5-.866-1.5-11.374-19.7-11.373 19.7-.866 1.5-.866-1.5-11.374-19.7-5.661 9.807-.289.5H70.89v-41.928H17v-2h53.89V59.307h51.033l6.239-10.807.865-1.5.867 1.5 11.373 19.7 11.374-19.7.866-1.5.865 1.5 11.373 19.7 11.374-19.7.866-1.5zm-36.719 22.2-.866 1.5-.866-1.5-11.374-19.701-5.661 9.808-.289.5H72.89v81.854h49.033l6.239-10.807.865-1.5.867 1.5 11.373 19.7 11.374-19.7.866-1.5.865 1.5 11.373 19.7 11.374-19.7.866-1.5.867 1.5 11.373 19.699 6.477-11.219.289-.5h31.447V58.48h-30.292l-7.055 12.22-.866 1.5-.867-1.5L177.984 51l-11.373 19.7-.865 1.5-.866-1.5-11.374-19.701z"/><path fill="#ffee2d" d="m136.841 32 4.347-26.182h8.45q2.787 0 4.487.997 1.713.998 2.365 2.774.665 1.765.294 4.066-.384 2.276-1.636 4.027-1.24 1.751-3.273 2.748-2.032.985-4.794.985h-7.185l.371-2.186h7.121q2.058 0 3.528-.678t2.352-1.93q.883-1.253 1.164-2.966.28-1.726-.192-3.004-.46-1.279-1.713-1.982-1.24-.703-3.311-.703h-5.996L139.232 32zm13.5-11.812L154.828 32h-2.748l-4.411-11.812zM160.869 36.5l2.25-13.551h-.128l-4.36 2.595.371-2.122 4.372-2.62h2.148L162.914 36.5zM132.841 191l4.347-26.182h8.45q2.787 0 4.487.997 1.713.998 2.365 2.774.665 1.765.294 4.066-.384 2.275-1.636 4.027-1.24 1.751-3.273 2.748-2.032.985-4.794.985h-7.185l.371-2.186h7.121q2.058 0 3.528-.678t2.352-1.93q.883-1.253 1.164-2.966.28-1.726-.192-3.004-.46-1.279-1.713-1.982-1.24-.703-3.311-.703h-5.996L135.232 191zm13.5-11.812L150.828 191h-2.748l-4.411-11.812zm6.897 16.312.23-1.534 6.801-5.51q1.214-.972 1.982-1.7.78-.73 1.189-1.355.409-.64.511-1.343.204-1.227-.614-1.994-.805-.767-2.25-.767-1.47 0-2.582.831-1.1.83-1.304 2.122h-2.071q.333-2.007 2.033-3.324 1.713-1.329 4.116-1.329 1.598 0 2.698.6 1.112.601 1.61 1.637.5 1.023.294 2.301a5.1 5.1 0 0 1-.652 1.79q-.485.831-1.483 1.802-.996.959-2.659 2.289l-4.512 3.643v.09h8.348l-.282 1.751z"/><path fill="#88fff9" d="m33.394 147 3.272-19.636h2.289L35.682 147zm5.24-23.05q-.714 0-1.214-.486a1.56 1.56 0 0 1-.473-1.176q.026-.651.525-1.125.51-.486 1.201-.485.716 0 1.215.498.498.486.473 1.176-.013.652-.524 1.125a1.7 1.7 0 0 1-1.202.473M83.394 41l3.272-19.636h2.288L85.682 41zm5.24-23.05q-.715 0-1.213-.485a1.56 1.56 0 0 1-.474-1.177 1.6 1.6 0 0 1 .525-1.125q.51-.485 1.201-.485.716 0 1.215.498.498.486.473 1.176-.013.652-.524 1.125-.512.473-1.202.473M93.49 45.5l2.25-13.551h-.128l-4.36 2.595.371-2.122 4.372-2.62h2.148L95.535 45.5zM83.394 186l3.272-19.636h2.288L85.682 186zm5.24-23.05q-.715 0-1.213-.486a1.56 1.56 0 0 1-.474-1.176q.025-.651.525-1.125.51-.486 1.201-.485.716 0 1.215.498.498.486.473 1.176-.013.653-.524 1.125a1.7 1.7 0 0 1-1.202.473m1.225 27.55.23-1.534 6.801-5.51q1.215-.972 1.982-1.7.78-.73 1.189-1.355.409-.64.511-1.343.204-1.227-.614-1.994-.806-.767-2.25-.767-1.47 0-2.582.831-1.1.83-1.304 2.122h-2.07q.33-2.007 2.032-3.324 1.713-1.329 4.116-1.329 1.599 0 2.698.6 1.112.601 1.61 1.637.5 1.023.294 2.301a5.1 5.1 0 0 1-.652 1.79q-.485.831-1.482 1.802-.998.959-2.66 2.289l-4.512 3.643v.09h8.348l-.282 1.751z"/><path fill="#fff" d="m52 102-15-8.66v17.32zm-24 0v1.5h10.5v-3H28zM101 60l-15-8.66v17.32zm-24 0v1.5h10.5v-3H77zM101 144l-15-8.66v17.32zm-24 0v1.5h10.5v-3H77z"/></g><defs><clipPath id="a"><path fill="#fff" d="M0 0h300v200H0z"/></clipPath></defs></svg>