<svg xmlns="http://www.w3.org/2000/svg" width="300" height="200" fill="none" viewBox="0 0 300 200"><path fill="#000" d="M0 0h300v200H0z"/><path stroke="#fff" stroke-width="2" d="M159.5 65h-33.826l-7.794 13.5L104.89 56 91.9 78.5 78.908 56l-12.99 22.5L52.929 56 46 68H24M217.5 140h-33.826l-7.794 13.5-12.99-22.5-12.991 22.5-12.99-22.5-12.99 22.5-12.991-22.5L104 143H82"/><path stroke="#fff" stroke-width="2" d="M275.5 62h-33.826l-7.794 13.5L220.89 53l-12.991 22.5-12.99-22.5-12.99 22.5L168.928 53 162 65h-22"/><path fill="#ffee2d" d="m70.84 35 4.347-26.182h8.45q2.788 0 4.488.997 1.713.998 2.365 2.774.665 1.765.294 4.066-.384 2.276-1.636 4.027-1.24 1.751-3.273 2.748-2.032.985-4.794.985h-7.185l.371-2.186h7.12q2.06 0 3.53-.678t2.352-1.93q.88-1.253 1.163-2.966.28-1.726-.192-3.004-.46-1.279-1.713-1.982-1.24-.703-3.311-.703H77.22L73.231 35zm13.5-11.812L88.829 35H86.08l-4.41-11.812zM94.87 39.5l2.25-13.551h-.128l-4.36 2.595.371-2.122 4.372-2.62h2.148L96.914 39.5z"/><path fill="#ff5858" d="m134.841 189 4.347-26.182h8.45q2.787 0 4.487.997 1.713.998 2.365 2.774.665 1.765.294 4.066-.384 2.275-1.636 4.027-1.24 1.751-3.273 2.748-2.032.985-4.794.985h-7.185l.371-2.186h7.121q2.058 0 3.528-.678t2.352-1.93q.883-1.253 1.164-2.966.28-1.726-.192-3.004-.46-1.279-1.713-1.982-1.24-.703-3.311-.703h-5.996L137.232 189zm13.5-11.812L152.828 189h-2.748l-4.411-11.812zm12.266 16.568q-1.892 0-3.119-.87-1.214-.856-1.7-2.377-.474-1.522-.141-3.503t1.33-3.503q.997-1.534 2.454-2.391a6.1 6.1 0 0 1 3.183-.869q1.637 0 2.813.793 1.188.779 1.713 2.224.524 1.431.179 3.401l-.141.767h-10.662l.205-1.394h8.706q.192-1.15-.128-2.084-.32-.945-1.061-1.495-.742-.563-1.815-.563-1.062 0-2.046.601a5.4 5.4 0 0 0-1.662 1.585 5.4 5.4 0 0 0-.895 2.199l-.179 1.176q-.345 2.11.499 3.388t2.748 1.278q.845 0 1.547-.281a4.5 4.5 0 0 0 1.24-.703q.537-.435.87-.946l1.841.281q-.602 1.24-2.084 2.263t-3.695 1.023m18.793 4.653h-2.097l1.253-7.53h-.089a6 6 0 0 1-1.049 1.381 5 5 0 0 1-1.521 1.074q-.87.422-1.969.422-1.533 0-2.582-.857-1.035-.844-1.445-2.365-.396-1.521-.064-3.528.358-2.11 1.266-3.618.92-1.521 2.224-2.327a5.2 5.2 0 0 1 2.826-.818q1.073 0 1.802.396.743.383 1.176 1.049.435.651.601 1.431h.128l.448-2.71h2.058zm-.166-11.442q.37-2.198-.371-3.605-.741-1.406-2.455-1.406-1.176 0-2.083.665-.909.651-1.522 1.802-.614 1.138-.869 2.621-.217 1.38.038 2.506.256 1.125.959 1.789.716.678 1.867.678 1.15 0 2.058-.652.908-.639 1.508-1.777.613-1.137.87-2.621"/><path fill="#ffee2d" d="m192.841 35 4.347-26.182h8.45q2.787 0 4.487.997 1.713.998 2.365 2.774.665 1.765.294 4.066-.384 2.276-1.636 4.027-1.24 1.751-3.273 2.748-2.032.985-4.794.985h-7.185l.371-2.186h7.121q2.058 0 3.528-.678t2.352-1.93q.883-1.253 1.164-2.966.28-1.726-.192-3.004-.46-1.279-1.713-1.982-1.24-.703-3.311-.703h-5.996L195.232 35zm13.5-11.812L210.828 35h-2.748l-4.411-11.812zm6.897 16.312.23-1.534 6.801-5.51q1.215-.972 1.982-1.7.78-.73 1.189-1.355a3.4 3.4 0 0 0 .511-1.343q.204-1.227-.614-1.994-.805-.767-2.25-.767-1.47 0-2.582.83-1.1.832-1.304 2.123h-2.071q.333-2.007 2.033-3.324 1.713-1.33 4.116-1.33 1.598 0 2.698.601 1.112.602 1.61 1.637.5 1.023.294 2.3a5.1 5.1 0 0 1-.652 1.79q-.485.832-1.483 1.803-.996.96-2.659 2.289l-4.512 3.643v.09h8.348l-.282 1.751z"/><path fill="#88fff9" d="m145 111 5.774-10h-11.548zm0-29h-1v20h2V82z"/></svg>