<svg xmlns="http://www.w3.org/2000/svg" width="300" height="200" fill="none" viewBox="0 0 300 200"><path fill="#000" d="M0 0h300v200H0z"/><path stroke="#fff" stroke-width="3" d="M9 98.5h285"/><circle cx="150" cy="100" r="83" fill="url(#a)"/><circle cx="150.5" cy="99.5" r="85" stroke="url(#b)" stroke-width="13"/><path fill="#000" d="m122 38-.224 23.093 20.111-11.353zm35 62 1.742-.983-26.152-46.325-1.741.983-1.742.983 26.151 46.325z"/><path stroke="#000" stroke-width="3" d="M72 98.5h33M197 98.5h33M183.939 68.274l23.335-23.335M150.5 54V21M92.061 44.939l23.334 23.335"/><path fill="#fff" d="m39 98-15-8.66v17.32zm-21 0v1.5h7.5v-3H18z"/><path fill="#ffee2d" d="m26.239 77 2.909-17.455h2.034L28.272 77zm4.659-20.489q-.636 0-1.08-.431a1.39 1.39 0 0 1-.42-1.046q.022-.58.466-1a1.5 1.5 0 0 1 1.068-.432q.636 0 1.08.444.443.431.42 1.045-.012.58-.466 1-.455.42-1.068.42"/><defs><linearGradient id="a" x1="238.5" x2="67" y1="96.5" y2="100" gradientUnits="userSpaceOnUse"><stop stop-color="#ededed"/><stop offset=".72" stop-color="#a6a6a6"/><stop offset="1" stop-color="#737373"/></linearGradient><linearGradient id="b" x1="59" x2="185" y1="97.5" y2="166" gradientUnits="userSpaceOnUse"><stop stop-color="#974848"/><stop offset="1" stop-color="#101f69"/></linearGradient></defs></svg>