<svg xmlns="http://www.w3.org/2000/svg" width="300" height="200" fill="none" viewBox="0 0 300 200"><path fill="#000" d="M0 0h300v200H0z"/><path stroke="url(#a)" stroke-width="13" d="M20 148V63h44.542m62.914 0h41.201m64.029 0H275v85"/><path stroke="#fff" stroke-width="3" d="M60.121 62.733h72.456"/><path fill="url(#b)" d="M73 47h45v31H73z"/><path fill="#000" d="m82.92 71 2.608-15.71h5.308q1.842 0 2.915.622 1.082.622 1.465 1.71.392 1.09.161 2.486a5.9 5.9 0 0 1-.981 2.455q-.745 1.073-2.025 1.687-1.274.614-3.1.614h-4.295l.307-1.719h4.234q1.258 0 2.086-.368.829-.368 1.289-1.05.46-.684.614-1.619.153-.951-.085-1.65-.23-.705-.943-1.088-.705-.392-1.98-.392h-3.344L84.824 71zm8.56-7.057L94.18 71h-2.208l-2.639-7.057zM97.386 71l2.608-15.71h5.492q1.641 0 2.615.569.975.56 1.335 1.51.36.945.161 2.095-.168 1.012-.636 1.672-.46.66-1.105 1.043a5.1 5.1 0 0 1-1.327.568l-.031.153q.706.046 1.358.506t1.005 1.32.153 2.101a4.9 4.9 0 0 1-.897 2.125q-.699.943-1.948 1.496-1.251.552-3.107.552zm2.178-1.687h3.774q1.865 0 2.769-.722.913-.727 1.097-1.764a2.6 2.6 0 0 0-.176-1.472 2.3 2.3 0 0 0-.975-1.09q-.675-.414-1.702-.414h-3.866zm1.197-7.119h3.528q.86 0 1.611-.337a3.4 3.4 0 0 0 1.258-.951q.506-.614.629-1.442.184-1.035-.414-1.757-.599-.729-2.163-.729h-3.59z"/><path stroke="url(#c)" stroke-width="4" d="M19 141h256"/><path fill="#ffee2d" d="m200.352 19.546 3.273 7.443 5.75-7.443h2.364l-7.091 8.76L208.807 37h-2.33l-3.295-7.193L197.489 37h-2.387l7.023-8.739-4.091-8.715zM86.636 37 90.5 13.727h7.511q2.477 0 3.989.887 1.523.885 2.102 2.465.59 1.569.262 3.614-.341 2.023-1.455 3.58-1.102 1.557-2.909 2.443-1.806.875-4.261.875h-6.387l.33-1.943h6.33q1.829 0 3.136-.602 1.307-.603 2.091-1.716.783-1.114 1.034-2.637.25-1.534-.171-2.67-.409-1.137-1.522-1.762-1.102-.624-2.944-.625h-5.33L88.762 37zm12-10.5 3.989 10.5h-2.443l-3.92-10.5z"/><path fill="#88fff9" d="M69.102 166.727 65.24 190h-2.023l3.863-23.273zM165.375 175.182a26.7 26.7 0 0 1 1.946-6.52 28.4 28.4 0 0 1 3.462-5.753h1.553a21 21 0 0 0-1.707 2.56 30 30 0 0 0-1.505 3.049 35 35 0 0 0-1.199 3.318 27 27 0 0 0-.786 3.346 25.4 25.4 0 0 0-.335 4.468q.029 2.253.402 4.276.384 2.023 1.065 3.529h-1.554a20.5 20.5 0 0 1-1.553-5.763q-.365-3.067.211-6.51m16.264-9.818L178.379 185h-1.793l2.943-17.757h-.115l-5.11 3.058.316-1.86 5.149-3.077zm8.754 19.904q-2.071 0-3.337-1.188-1.266-1.199-1.659-3.452-.393-2.263.125-5.446.518-3.165 1.668-5.417 1.15-2.263 2.81-3.462a6.2 6.2 0 0 1 3.729-1.208q2.052 0 3.327 1.208 1.276 1.199 1.688 3.462.422 2.252-.106 5.417-.537 3.174-1.687 5.436-1.15 2.253-2.829 3.452a6.24 6.24 0 0 1-3.729 1.198m.239-1.61q2.263 0 3.922-2.206 1.668-2.205 2.339-6.27.441-2.656.183-4.564-.25-1.908-1.161-2.924-.91-1.017-2.416-1.017-2.253 0-3.912 2.225-1.658 2.214-2.33 6.28-.441 2.656-.191 4.554.249 1.899 1.15 2.915.901 1.007 2.416 1.007m16.319 1.61q-2.07 0-3.336-1.188-1.266-1.199-1.659-3.452-.394-2.263.125-5.446.518-3.165 1.668-5.417 1.15-2.263 2.809-3.462a6.2 6.2 0 0 1 3.73-1.208q2.052 0 3.327 1.208 1.275 1.199 1.687 3.462.423 2.252-.105 5.417-.536 3.174-1.688 5.436-1.15 2.253-2.828 3.452a6.24 6.24 0 0 1-3.73 1.198m.24-1.61q2.263 0 3.921-2.206 1.67-2.205 2.34-6.27.441-2.656.182-4.564-.25-1.908-1.16-2.924-.911-1.017-2.416-1.017-2.253 0-3.912 2.225-1.66 2.214-2.33 6.28-.441 2.656-.192 4.554.25 1.899 1.151 2.915.901 1.007 2.416 1.007m19.818-7.882-.268 1.611h-8.169l.268-1.611zm7.719-10.412L231.468 185h-1.707l3.26-19.636zm6.779 11.352a26.4 26.4 0 0 1-1.956 6.52 28 28 0 0 1-3.452 5.753h-1.553a21 21 0 0 0 1.706-2.56 28 28 0 0 0 1.496-3.049q.69-1.62 1.199-3.318.518-1.697.795-3.346a25.5 25.5 0 0 0 .336-4.468 24.7 24.7 0 0 0-.412-4.276q-.375-2.023-1.055-3.529h1.553a20.2 20.2 0 0 1 1.544 5.763q.374 3.067-.201 6.51"/><path fill="#fff" d="m120.5 141 10.812-4.055-8.918-7.336zM147 64l-.986.168v.001l.002.01.006.034.023.138.089.54a497.554 497.554 0 0 1 1.423 9.329c.858 6.006 1.887 13.955 2.572 21.743.687 7.805 1.022 15.383.516 20.676-.256 2.676-.716 4.618-1.352 5.717-.31.536-.604.77-.839.861-.212.081-.529.105-1.04-.127L147 124l-.414.91c.864.393 1.75.495 2.586.173.812-.312 1.41-.961 1.852-1.725.867-1.498 1.352-3.814 1.612-6.528.525-5.489.173-13.223-.515-21.043-.69-7.837-1.723-15.825-2.584-21.85a510 510 0 0 0-1.429-9.37l-.09-.545-.03-.176-.001-.01-.001-.002zm0 60 .414-.91c-3.838-1.745-8.03-.527-11.786 1.683-3.782 2.226-7.361 5.591-10.145 8.598l.734.679.734.679c2.732-2.951 6.156-6.152 9.691-8.232 3.562-2.096 7.003-2.924 9.944-1.587z"/><circle cx="146.5" cy="105.5" r="20.5" fill="url(#d)"/><path fill="#000" d="M153.432 101.227a6.6 6.6 0 0 0-.441-1.84 4.6 4.6 0 0 0-.969-1.506 4.3 4.3 0 0 0-1.543-1.007q-.911-.364-2.148-.364-1.831 0-3.548.968-1.706.969-2.962 2.848-1.247 1.87-1.697 4.583-.441 2.656.086 4.535t1.87 2.877q1.341.987 3.346.987 1.802 0 3.356-.805a7.4 7.4 0 0 0 2.617-2.311q1.065-1.496 1.381-3.547l.537.182h-6.29l.297-1.611h7.45l-.297 1.611q-.403 2.522-1.716 4.353a9.05 9.05 0 0 1-3.26 2.828q-1.947.988-4.238.988-2.57 0-4.296-1.237-1.716-1.247-2.406-3.509-.691-2.263-.173-5.341.364-2.31 1.285-4.171.92-1.86 2.263-3.173a9.8 9.8 0 0 1 3.01-2.033 8.9 8.9 0 0 1 3.529-.71q1.61 0 2.867.509a6.2 6.2 0 0 1 2.128 1.4 5.9 5.9 0 0 1 1.323 2.042q.46 1.15.48 2.454z"/><path stroke="#fff" stroke-width="3" d="M238.5 62.4h-15.083l-4.185 5.6-6.976-12-6.976 12-6.975-12-6.976 12-6.975-12-3.721 6.4H164"/><path fill="#97fcff" d="m120 155 10 5.774v-11.548zm149 0-10-5.774v11.548zm-140 0v1h131v-2H129zM22 155l10 5.774v-11.548zm91 0-10-5.773v11.547zm-82 0v1h73v-2H31z"/><defs><linearGradient id="a" x1="20" x2="280.22" y1="65.472" y2="121.12" gradientUnits="userSpaceOnUse"><stop stop-color="#be8304"/><stop offset="1" stop-color="#583d02"/></linearGradient><linearGradient id="b" x1="95.5" x2="95.5" y1="47" y2="78" gradientUnits="userSpaceOnUse"><stop stop-color="#d9d9d9"/><stop offset="1" stop-color="#737373"/></linearGradient><linearGradient id="c" x1="275" x2="19" y1="143.5" y2="143.5" gradientUnits="userSpaceOnUse"><stop stop-color="#ff662f"/><stop offset="1" stop-color="#993d1c"/></linearGradient><linearGradient id="d" x1="146.5" x2="146.5" y1="85" y2="126" gradientUnits="userSpaceOnUse"><stop stop-color="#f57404"/><stop offset="1" stop-color="#8f4402"/></linearGradient></defs></svg>