<svg xmlns="http://www.w3.org/2000/svg" width="300" height="200" fill="none" viewBox="0 0 300 200"><path fill="#000" d="M0 0h300v200H0z"/><g opacity=".67"><path fill="url(#a)" d="M100.656 22.002h101.6S214 21.132 214 55.08s-11.744 33.948-11.744 33.948h-101.6z"/><ellipse cx="100.383" cy="55.08" fill="url(#b)" rx="13.383" ry="33.078"/></g><g opacity=".67"><path fill="url(#c)" d="M31.187 134h245.09s11.223-.26 11.223 20-11.223 20-11.223 20H31.187z"/><ellipse cx="31" cy="153.5" fill="url(#d)" rx="9" ry="19.5"/></g><path fill="#fff" d="m150 125 5.774-10h-11.548zm0-30h-1v21h2V95z"/><defs><linearGradient id="a" x1="151.456" x2="151.456" y1="22.002" y2="89.028" gradientUnits="userSpaceOnUse"><stop stop-color="#f57404"/><stop offset="1" stop-color="#602e02"/></linearGradient><linearGradient id="b" x1="98.471" x2="119.502" y1="28.966" y2="45.126" gradientUnits="userSpaceOnUse"><stop stop-color="#f6a45b"/><stop offset="1" stop-color="#df6902"/></linearGradient><linearGradient id="c" x1="153.732" x2="153.732" y1="134" y2="174" gradientUnits="userSpaceOnUse"><stop stop-color="#f57404"/><stop offset="1" stop-color="#602e02"/></linearGradient><linearGradient id="d" x1="29.714" x2="42.435" y1="138.105" y2="149.256" gradientUnits="userSpaceOnUse"><stop stop-color="#f6a45b"/><stop offset="1" stop-color="#df6902"/></linearGradient></defs></svg>