<svg xmlns="http://www.w3.org/2000/svg" width="300" height="200" fill="none" viewBox="0 0 300 200"><path fill="#000" d="M0 0h300v200H0z"/><g opacity=".67"><path fill="url(#a)" d="M57.097 20 261.5 56.996s7.5 3.138 7.5 26.5c0 23.361-7.5 31-7.5 31l-204.403 38.5z"/><ellipse cx="56.555" cy="85.634" fill="url(#b)" rx="26.555" ry="65.634"/></g><path fill="#ffee2d" d="M112.841 168.364 102.396 188h-2.429l-3.899-19.636h2.365l3.068 16.632h.167l8.603-16.632zm10.103 24.136h-2.02l.434-2.621h-.128a6.2 6.2 0 0 1-1.125 1.458q-.665.651-1.521 1.035a4.6 4.6 0 0 1-1.892.384q-1.547 0-2.582-.844-1.036-.844-1.445-2.365t-.064-3.541q.333-2.059 1.24-3.58.92-1.521 2.225-2.352a5.2 5.2 0 0 1 2.838-.831q1.099 0 1.841.409.741.396 1.163 1.061.422.652.575 1.406h.09l1.214-7.057h2.059zm-.946-6.533q.37-2.198-.384-3.605-.742-1.406-2.455-1.406-1.764 0-2.927 1.445-1.151 1.431-1.534 3.669-.217 1.368.038 2.48.256 1.125.959 1.789.716.678 1.866.678 1.164 0 2.059-.652.908-.639 1.508-1.777.614-1.137.87-2.621m8.578 6.533 2.25-13.551h-.128l-4.36 2.595.371-2.122 4.372-2.621h2.148l-2.608 15.699zM241.841 146.364 231.396 166h-2.429l-3.899-19.636h2.365l3.068 16.632h.167l8.603-16.632zm10.103 24.136h-2.02l.434-2.621h-.128a6.2 6.2 0 0 1-1.125 1.458q-.665.651-1.521 1.035a4.6 4.6 0 0 1-1.892.384q-1.547 0-2.582-.844-1.036-.844-1.445-2.365t-.064-3.541q.333-2.059 1.24-3.58.92-1.521 2.225-2.352a5.2 5.2 0 0 1 2.838-.831q1.099 0 1.841.409.741.396 1.163 1.061.422.652.575 1.406h.09l1.214-7.057h2.059zm-.946-6.533q.37-2.198-.384-3.605-.742-1.406-2.455-1.406-1.764 0-2.927 1.445-1.151 1.431-1.534 3.669-.217 1.368.038 2.48.256 1.125.959 1.789.715.678 1.866.678 1.164 0 2.059-.652.908-.639 1.508-1.777.613-1.137.87-2.621m4.947 6.533.23-1.534 6.801-5.51q1.215-.972 1.982-1.7.78-.73 1.189-1.355.408-.64.511-1.343.205-1.227-.614-1.994-.805-.767-2.25-.767-1.47 0-2.582.831-1.1.83-1.304 2.122h-2.071q.332-2.007 2.033-3.324 1.713-1.329 4.116-1.329 1.598 0 2.698.6 1.112.601 1.61 1.637.5 1.023.294 2.301a5.1 5.1 0 0 1-.652 1.79q-.485.831-1.483 1.802-.996.959-2.659 2.289l-4.512 3.643v.09h8.348l-.282 1.751zM150 82l-10-5.773v11.546zm-44 0v1h35v-2h-35zM289 85l-10-5.773v11.546zm-44 0v1h35v-2h-35z"/><path stroke="#ffee2d" stroke-dasharray="5 5" d="M107.5 8v153M245.5 44v89"/><path fill="#fff" d="m69 82-10-5.773v11.546zM7 82v1h53v-2H7z"/><defs><linearGradient id="a" x1="157.897" x2="157.897" y1="20" y2="152.996" gradientUnits="userSpaceOnUse"><stop stop-color="#f57404"/><stop offset="1" stop-color="#602e02"/></linearGradient><linearGradient id="b" x1="52.761" x2="94.492" y1="33.818" y2="65.884" gradientUnits="userSpaceOnUse"><stop stop-color="#f6a45b"/><stop offset="1" stop-color="#df6902"/></linearGradient></defs></svg>