<svg xmlns="http://www.w3.org/2000/svg" width="300" height="200" fill="none" viewBox="0 0 300 200"><g clip-path="url(#a)"><path fill="#000" d="M0 0h300v200H0z"/><path stroke="#fff" stroke-width="2" d="M25.5 98.5H64m0 0V43h32M64 98.5V159h37m138-60.5V43h-21m21 55.5V159h-46m46-60.5h46M110.5 43H143M97 15v56M110 30v25"/><path stroke="#fff" stroke-width="2" d="M235 43.067h-25.463L203.67 51l-9.779-17-9.779 17-9.778-17-9.779 17-9.779-17-5.215 9.067H133M203 159.067h-25.463L171.67 167l-9.779-17-9.779 17-9.778-17-9.779 17-9.779-17-5.215 9.067H101"/><path fill="#ffee2d" d="M92.534 76.727 96.41 97.24h.216l10.659-20.512h2.227L97.181 100H94.91l-4.602-23.273zM110.807 104l2-12.046h-.114l-3.875 2.307.33-1.886 3.886-2.33h1.909L112.625 104zM160.636 84l3.864-23.273h7.511q2.477 0 3.989.887 1.523.886 2.102 2.465.59 1.569.262 3.614-.341 2.023-1.455 3.58-1.102 1.557-2.909 2.443-1.807.875-4.261.875h-6.387l.33-1.943h6.329q1.83 0 3.137-.602 1.306-.603 2.091-1.717.783-1.113 1.034-2.636.25-1.534-.171-2.67-.409-1.137-1.522-1.762-1.102-.625-2.944-.625h-5.329L162.761 84zm12-10.5 3.989 10.5h-2.443l-3.921-10.5zm9.358 14.5 2-12.046h-.113l-3.875 2.307.329-1.886 3.887-2.33h1.909L183.812 88z"/><path fill="#88fff9" d="m211.239 84 2.909-17.454h2.034L213.273 84zm4.659-20.489a1.5 1.5 0 0 1-1.08-.431 1.38 1.38 0 0 1-.42-1.046q.022-.58.466-1a1.5 1.5 0 0 1 1.068-.432q.636 0 1.079.444.444.431.421 1.045-.012.58-.466 1t-1.068.42M220.213 88l2-12.046h-.114l-3.875 2.307.33-1.886 3.886-2.33h1.909L222.031 88zM207.239 142l2.909-17.455h2.034L209.273 142zm4.659-20.489q-.637 0-1.08-.431a1.38 1.38 0 0 1-.42-1.046q.022-.58.466-1a1.5 1.5 0 0 1 1.068-.432q.636 0 1.079.443.444.432.421 1.046-.012.58-.466 1t-1.068.42M212.986 146l.204-1.364 6.046-4.897a28 28 0 0 0 1.761-1.512q.693-.648 1.057-1.204.363-.569.455-1.193.181-1.092-.546-1.773-.716-.682-2-.682-1.306 0-2.295.739-.978.738-1.159 1.886h-1.841q.296-1.784 1.806-2.955 1.523-1.18 3.66-1.181 1.42 0 2.397.534.989.534 1.432 1.454.444.909.261 2.046a4.5 4.5 0 0 1-.579 1.591q-.432.738-1.318 1.602-.886.852-2.364 2.034l-4.011 3.239v.079h7.42l-.25 1.557z"/><path fill="#ffee2d" d="m134.636 196 3.864-23.273h7.511q2.477 0 3.989.887 1.523.886 2.102 2.466.59 1.568.262 3.613-.341 2.023-1.455 3.58-1.102 1.557-2.909 2.443-1.807.875-4.261.875h-6.387l.33-1.943h6.329q1.83 0 3.137-.603 1.306-.602 2.091-1.715.783-1.114 1.034-2.637.25-1.535-.171-2.67-.409-1.137-1.522-1.762-1.102-.624-2.944-.625h-5.329L136.761 196zm12-10.5 3.989 10.5h-2.443l-3.921-10.5zm6.131 14.5.205-1.364 6.045-4.897q1.08-.864 1.761-1.512.694-.648 1.057-1.204a3 3 0 0 0 .455-1.193q.181-1.092-.546-1.773-.716-.682-2-.682-1.306 0-2.295.739-.978.738-1.159 1.886h-1.841q.295-1.784 1.807-2.955 1.523-1.18 3.659-1.181 1.42 0 2.397.534.99.534 1.432 1.454.444.909.262 2.046a4.5 4.5 0 0 1-.58 1.591q-.432.738-1.318 1.602-.887.852-2.364 2.034l-4.011 3.239v.079h7.42l-.25 1.557z"/><path fill="#fff" d="m196 159 15 8.66v-17.32zm21 0v-1.5h-7.5v3h7.5zM217 43l15 8.66V34.34zm21 0v-1.5h-7.5v3h7.5z"/></g><defs><clipPath id="a"><path fill="#fff" d="M0 0h300v200H0z"/></clipPath></defs></svg>