<svg xmlns="http://www.w3.org/2000/svg" width="300" height="200" fill="none" viewBox="0 0 300 200"><path fill="#000" d="M0 0h300v200H0z"/><path fill="url(#a)" d="M57 62h186s21.5-1 21.5 38-21.5 39-21.5 39H57z"/><ellipse cx="56.5" cy="100" fill="url(#b)" rx="24.5" ry="38"/><path fill="#fff" d="m64 46 10 5.773V40.227zm182 0-10-5.773v11.547zM73 46v1h164v-2H73zM153.99 10.818 149.643 37h-2.275l4.346-26.182zM46.88 109h-2.506l13.87-26.182h2.557L65.98 109h-2.506l-4.36-23.075h-.166zm3.476-10.035h12.99l-.359 2.147H50zM147.956 94.68l.089-.358q.46-2.685 1.803-4.806t3.388-3.337q2.058-1.215 4.64-1.215.486.052.87.307.396.256.856.588a6.4 6.4 0 0 0 1.164.614q1.533.588 2.48 1.79.958 1.189 1.291 2.863.333 1.663.013 3.682l-.051.307a12 12 0 0 1-1.765 4.615 10.5 10.5 0 0 1-3.413 3.375q-2.058 1.266-4.615 1.266t-4.232-1.266q-1.662-1.266-2.326-3.452-.653-2.198-.192-4.973m2.71-.306-.077.332q-.357 2.109-.012 3.822.358 1.7 1.444 2.698 1.1.997 2.966.997 1.88 0 3.311-1.01 1.432-1.023 2.365-2.736.934-1.725 1.279-3.835l.076-.332q.32-2.007-.038-3.631-.345-1.636-1.432-2.595-1.086-.972-2.991-.972-1.892 0-3.324.972-1.42.971-2.327 2.62t-1.24 3.67m17.054-9.41-.345 2.148h-9.857l.358-2.147z"/><defs><linearGradient id="a" x1="150" x2="150" y1="62" y2="139" gradientUnits="userSpaceOnUse"><stop stop-color="#d56604"/><stop offset="1" stop-color="#6f3502"/></linearGradient><linearGradient id="b" x1="53" x2="77.5" y1="70" y2="100" gradientUnits="userSpaceOnUse"><stop stop-color="#d56604"/><stop offset="1" stop-color="#6f3502"/></linearGradient></defs></svg>