<svg xmlns="http://www.w3.org/2000/svg" width="300" height="200" fill="none" viewBox="0 0 300 200"><path fill="#000" d="M0 0h300v200H0z"/><path stroke="#fff" stroke-width="2" d="M38 33.5 137.593 91m0 0L38 148.5M137.593 91V5m0 86L262.5 144"/><path fill="#fff" d="M100 69 88.616 48.907l-11.71 19.905zM83 59l-1.014 1.724 1.485.874 1.014-1.724L85.5 58.15l-1.485-.874zM135 29l-9.547 20h23.094L139 29zM76.247 127.404l-23.038-1.611 10.124 20.757z"/><path fill="#ffee2d" d="m54.394 82 3.272-19.636h2.289L56.682 82zm5.24-23.05q-.714 0-1.214-.486a1.56 1.56 0 0 1-.473-1.176 1.6 1.6 0 0 1 .525-1.125q.51-.485 1.201-.485.716 0 1.215.498.498.486.473 1.176-.013.652-.524 1.125-.512.474-1.202.473M64.49 86.5l2.25-13.551h-.128l-4.36 2.595.371-2.122 4.372-2.62h2.148L66.535 86.5zM156.393 55l3.273-19.636h2.289L158.682 55zm5.242-23.05q-.716 0-1.215-.485a1.56 1.56 0 0 1-.473-1.177q.026-.652.525-1.125a1.69 1.69 0 0 1 1.201-.485q.716 0 1.215.498a1.5 1.5 0 0 1 .473 1.176q-.013.652-.524 1.125a1.71 1.71 0 0 1-1.202.473m1.224 27.55.23-1.534 6.801-5.51q1.214-.972 1.982-1.7.78-.73 1.189-1.355a3.4 3.4 0 0 0 .511-1.343q.204-1.227-.614-1.994-.804-.767-2.25-.767-1.47 0-2.582.83-1.1.832-1.304 2.123h-2.071q.333-2.007 2.033-3.324 1.713-1.33 4.116-1.33 1.599 0 2.698.601 1.112.602 1.61 1.637.5 1.023.294 2.3a5.1 5.1 0 0 1-.652 1.79q-.485.832-1.482 1.803-.998.96-2.66 2.289l-4.512 3.643v.09h8.348l-.282 1.751zM200.393 161l3.273-19.636h2.289L202.682 161zm5.242-23.05q-.715 0-1.215-.486a1.56 1.56 0 0 1-.473-1.176 1.6 1.6 0 0 1 .525-1.125 1.69 1.69 0 0 1 1.201-.485q.716 0 1.215.498a1.5 1.5 0 0 1 .473 1.176q-.013.653-.524 1.125a1.7 1.7 0 0 1-1.202.473m7.002 27.755q-1.713 0-2.965-.576-1.24-.563-1.854-1.572-.602-.997-.396-2.301h2.109q-.18 1.189.729 1.917.907.742 2.454.742 1.701 0 2.94-.844 1.24-.843 1.445-2.033.218-1.29-.78-2.032-.997-.755-2.889-.755h-.997l.23-1.61h.959q1.687 0 2.851-.793 1.175-.805 1.355-1.918.204-1.15-.473-1.892-.665-.741-2.237-.741-1.419 0-2.634.741-1.215.742-1.432 1.969h-2.032a4.64 4.64 0 0 1 1.125-2.314 5.96 5.96 0 0 1 2.186-1.547 7.2 7.2 0 0 1 2.812-.549q1.623 0 2.749.562 1.137.563 1.649 1.56.524.984.319 2.237-.23 1.393-1.24 2.224-.996.831-2.582 1.151v.089q1.7.294 2.57 1.343t.639 2.531a4.4 4.4 0 0 1-1.138 2.301q-.92.998-2.339 1.547-1.42.563-3.133.563M81.394 165l3.272-19.636h2.288L83.682 165zm5.24-23.05q-.715 0-1.213-.486a1.56 1.56 0 0 1-.474-1.176q.025-.651.525-1.125.51-.486 1.201-.485.716 0 1.215.498.498.486.473 1.176-.013.653-.524 1.125a1.7 1.7 0 0 1-1.202.473m1.302 24.38.243-1.637 9.498-10.892h1.38l-.357 2.493h-.959l-7.261 8.233v.077h10.138l-.269 1.726zm7.657 3.17.627-3.682.128-.716 1.892-11.301h2.007L97.639 169.5z"/><path fill="#fff" d="m211 123 13.834 18.492 9.097-21.227z"/></svg>