<svg xmlns="http://www.w3.org/2000/svg" width="300" height="200" fill="none" viewBox="0 0 300 200"><path fill="#000" d="M0 0h300v200H0z"/><rect width="263" height="174" x="19" y="11" fill="#ffb310" fill-opacity=".33" rx="8"/><path stroke="#fff" stroke-width="3" d="M51 82.1V42h178v40.1m-178 0v28.1h58.692l6.304-11.2 11.822 21 11.821-21 11.821 21 11.821-21 11.822 21 7.092-9.8H229V82.1m-178 0H8m221 0h66"/><path fill="#ffbc2b" d="M95.41 178h-1.88l10.403-19.636h1.918L109.734 178h-1.879l-3.27-17.306h-.124zm2.607-7.527h9.742l-.269 1.611h-9.741zM112.745 178l2.454-14.727h1.659l-.384 2.263h.154a4.66 4.66 0 0 1 1.783-1.793q1.141-.663 2.589-.662 1.515 0 2.378.719.863.71 1.15 1.956h.125a5.1 5.1 0 0 1 1.946-1.946q1.256-.729 2.867-.729 2.043 0 3.021 1.294t.565 3.759L131.403 178h-1.707l1.65-9.866q.278-1.745-.451-2.618t-2.186-.872q-1.687 0-2.79 1.035-1.094 1.026-1.352 2.627L122.946 178h-1.745l1.678-10.02q.24-1.495-.431-2.416-.662-.92-2.177-.92-1.026 0-1.927.508a4.55 4.55 0 0 0-1.515 1.39 4.9 4.9 0 0 0-.805 2.023L114.451 178zm23.176 0 2.455-14.727h1.659l-.384 2.263h.154a4.65 4.65 0 0 1 1.783-1.793q1.141-.663 2.589-.662 1.514 0 2.378.719.862.71 1.15 1.956h.125a5.1 5.1 0 0 1 1.946-1.946q1.257-.729 2.867-.729 2.042 0 3.02 1.294t.566 3.759L154.58 178h-1.707l1.649-9.866q.278-1.745-.45-2.618-.73-.872-2.186-.872-1.687 0-2.791 1.035-1.093 1.026-1.351 2.627L146.123 178h-1.745l1.678-10.02q.24-1.495-.431-2.416-.662-.92-2.177-.92-1.026 0-1.927.508-.893.498-1.515 1.39a4.9 4.9 0 0 0-.805 2.023L137.628 178zm29.093.307q-2.061 0-3.404-.959-1.342-.969-1.879-2.675-.537-1.716-.163-3.95.373-2.225 1.477-3.951 1.102-1.735 2.723-2.713a6.64 6.64 0 0 1 3.518-.988q1.199 0 2.244.441a4.4 4.4 0 0 1 1.774 1.333q.738.893 1.026 2.253.287 1.352-.019 3.203l-.135.844h-11.505l.239-1.506h9.771q.24-1.419-.135-2.55-.373-1.131-1.275-1.793-.891-.671-2.215-.671-1.351 0-2.56.757a6.9 6.9 0 0 0-2.032 1.975 6.5 6.5 0 0 0-1.065 2.579l-.191 1.132q-.307 1.869.076 3.135.383 1.256 1.391 1.899 1.006.642 2.579.642 1.054 0 1.908-.326a4.9 4.9 0 0 0 1.486-.873q.633-.555 1.016-1.217l1.525.527q-.489.93-1.381 1.716a6.9 6.9 0 0 1-2.1 1.266q-1.208.47-2.694.47m18.028-15.034-.24 1.486h-7.037l.249-1.486zm-4.257-3.529h1.716l-2.397 14.411q-.154.92.077 1.448.23.518.709.738.48.211 1.055.211.336 0 .575-.038.25-.048.441-.096l.125 1.544a5 5 0 0 1-.662.172 4.2 4.2 0 0 1-.92.087 3.7 3.7 0 0 1-1.735-.413 2.74 2.74 0 0 1-1.209-1.227q-.412-.815-.22-2.023zm11.436 18.563q-2.061 0-3.404-.959-1.342-.969-1.879-2.675-.537-1.716-.163-3.95.374-2.225 1.477-3.951 1.102-1.735 2.723-2.713a6.64 6.64 0 0 1 3.518-.988q1.199 0 2.244.441a4.4 4.4 0 0 1 1.774 1.333q.738.893 1.026 2.253.287 1.352-.019 3.203l-.135.844h-11.505l.239-1.506h9.771q.24-1.419-.135-2.55-.373-1.131-1.275-1.793-.892-.671-2.215-.671-1.351 0-2.56.757a6.9 6.9 0 0 0-2.032 1.975 6.5 6.5 0 0 0-1.065 2.579l-.191 1.132q-.307 1.869.076 3.135.383 1.256 1.391 1.899 1.006.642 2.579.642 1.055 0 1.908-.326a4.9 4.9 0 0 0 1.486-.873q.633-.555 1.016-1.217l1.525.527q-.489.93-1.381 1.716a6.9 6.9 0 0 1-2.1 1.266q-1.208.47-2.694.47m9.773-.307 2.454-14.727h1.659l-.384 2.263h.125q.614-1.113 1.831-1.793a5.25 5.25 0 0 1 2.618-.691q.211 0 .47.01.258 0 .431.019l-.297 1.735a16 16 0 0 0-.403-.057 4.5 4.5 0 0 0-.623-.038 4.7 4.7 0 0 0-2.128.489 4.6 4.6 0 0 0-1.63 1.332 4.4 4.4 0 0 0-.844 1.947L201.7 178z"/><circle cx="146.5" cy="44.5" r="30.5" fill="url(#a)"/><path fill="#000" d="M154.364 41a7.8 7.8 0 0 0-.523-2.182 5.4 5.4 0 0 0-1.148-1.784q-.738-.762-1.829-1.193-1.08-.432-2.546-.432-2.17 0-4.204 1.148-2.023 1.148-3.512 3.375-1.477 2.216-2.011 5.432-.523 3.147.102 5.375.625 2.226 2.216 3.409 1.591 1.17 3.966 1.17 2.136 0 3.977-.954 1.842-.966 3.103-2.739 1.26-1.772 1.636-4.205l.636.216h-7.454l.352-1.909h8.83l-.353 1.91q-.477 2.989-2.034 5.158t-3.863 3.353q-2.308 1.17-5.023 1.17-3.045 0-5.091-1.466-2.034-1.477-2.852-4.159t-.205-6.33q.432-2.738 1.523-4.943t2.682-3.76a11.6 11.6 0 0 1 3.568-2.41q1.977-.84 4.182-.84 1.909 0 3.397.601 1.49.603 2.523 1.66a7 7 0 0 1 1.568 2.42q.546 1.364.568 2.909z"/><path fill="#ffee2d" d="m137.636 151 3.864-23.273h7.511q2.477 0 3.989.887 1.523.886 2.102 2.466.59 1.568.262 3.613-.341 2.023-1.455 3.58-1.102 1.557-2.909 2.443-1.807.875-4.261.875h-6.387l.33-1.943h6.329q1.83 0 3.137-.603 1.306-.602 2.091-1.715.783-1.114 1.034-2.637.25-1.535-.171-2.67-.409-1.137-1.522-1.762-1.102-.624-2.944-.625h-5.329L139.761 151zm12-10.5 3.989 10.5h-2.443l-3.921-10.5z"/><defs><linearGradient id="a" x1="146.5" x2="146.5" y1="14" y2="75" gradientUnits="userSpaceOnUse"><stop stop-color="#f57404"/><stop offset="1" stop-color="#8f4402"/></linearGradient></defs></svg>