<svg xmlns="http://www.w3.org/2000/svg" width="300" height="200" fill="none" viewBox="0 0 300 200"><path fill="#000" d="M0 0h300v200H0z"/><path stroke="#fff" stroke-width="3" d="M278.5 100.933h-82.573L186.47 114l-15.762-28-15.761 28-15.762-28-15.762 28-15.761-28-8.407 14.933H35"/><path fill="#ffee2d" d="m136.841 158 4.347-26.182h8.45q2.787 0 4.487.997 1.713.998 2.365 2.774.665 1.765.294 4.066-.384 2.275-1.636 4.027-1.24 1.751-3.273 2.748-2.032.985-4.794.985h-7.185l.371-2.186h7.121q2.058 0 3.528-.678t2.352-1.93q.883-1.253 1.164-2.966.28-1.726-.192-3.004-.46-1.279-1.713-1.982-1.24-.703-3.311-.703h-5.996L139.232 158zm13.5-11.812L154.828 158h-2.748l-4.411-11.812z"/><path fill="#88fff9" d="m48.394 81 3.272-19.636h2.289L50.682 81zm5.24-23.05q-.714 0-1.214-.486a1.56 1.56 0 0 1-.473-1.176 1.6 1.6 0 0 1 .525-1.125q.51-.485 1.201-.485.716 0 1.215.498.498.486.473 1.176-.013.652-.524 1.125-.512.474-1.202.473"/><path fill="#fff" d="m77 101-15-8.66v17.32zm-37 0v1.5h23.5v-3H40z"/><path stroke="url(#a)" stroke-linecap="round" stroke-width="4" d="M185.081 73.569c0-2.619.306-6.967.541-8.83.328-2.597 3.012-5.885 5.032-7.366 1.605-1.176 3.718-1.318 7.355-2.71 3.38-1.295 5.664-1.863 8.222-4.182 2.043-1.852 2.409-4.806 2.49-7.517-.23-1.316-.388-2.87-.542-4.572-.153-.78-.46-1.395-1.241-2.957"/><path stroke="url(#b)" stroke-linecap="round" stroke-width="4" d="M108.152 71.047c-2.139-1.509-5.515-4.266-6.902-5.532-1.933-1.764-3.073-5.853-3.119-8.358-.036-1.989 1.066-3.798 2.025-7.572.89-3.508 1.743-5.702 1.323-9.129-.336-2.737-2.54-4.739-4.708-6.368-1.208-.57-2.568-1.337-4.047-2.193-.727-.324-1.406-.427-3.133-.69"/><path stroke="url(#c)" stroke-linecap="round" stroke-width="4" d="M147.567 66.819c-1.275-2.287-3.124-6.235-3.826-7.976-.978-2.428-.235-6.606.809-8.884.829-1.809 2.606-2.962 5.104-5.949 2.322-2.776 4.041-4.385 5.146-7.655.883-2.612-.236-5.37-1.485-7.779-.842-1.037-1.736-2.317-2.699-3.729-.514-.608-1.081-.994-2.524-1.979"/><defs><linearGradient id="a" x1="187" x2="209" y1="72.5" y2="35" gradientUnits="userSpaceOnUse"><stop stop-color="#ffb922"/><stop offset=".659" stop-color="#aa1f21"/><stop offset="1" stop-color="#ff2b2b"/></linearGradient><linearGradient id="b" x1="108.386" x2="90.424" y1="68.863" y2="29.27" gradientUnits="userSpaceOnUse"><stop stop-color="#ffb922"/><stop offset=".659" stop-color="#aa1f21"/><stop offset="1" stop-color="#ff2b2b"/></linearGradient><linearGradient id="c" x1="148.723" x2="149.681" y1="64.951" y2="21.485" gradientUnits="userSpaceOnUse"><stop stop-color="#ffb922"/><stop offset=".659" stop-color="#aa1f21"/><stop offset="1" stop-color="#ff2b2b"/></linearGradient></defs></svg>