<svg xmlns="http://www.w3.org/2000/svg" width="300" height="200" fill="none" viewBox="0 0 300 200"><g clip-path="url(#a)"><path fill="#000" d="M0 0h300v200H0z"/><path stroke="#fff" stroke-width="2" d="M147.535 159H33V62h24.142m106.675 97H266V62h-18.528m-87.585 0h-30.88M148.535 130.268V192M163.133 146.803v27.559"/><path stroke="#fff" stroke-width="2" d="M159 62.133h-28.708L123.677 71l-11.025-19-11.025 19-11.025-19-11.025 19-11.025-19-5.88 10.133H44"/><path stroke="#fff" stroke-width="2" d="M262 62.133h-28.458L226.984 71l-10.929-19-10.929 19-10.929-19-10.93 19-10.929-19-5.829 10.133H148"/><path fill="#ffee2d" d="M82.636 103 86.5 79.727h7.511q2.477 0 3.989.887 1.523.885 2.102 2.465.59 1.569.262 3.614-.342 2.023-1.455 3.58Q97.806 91.83 96 92.716q-1.806.875-4.261.875h-6.387l.33-1.943h6.33q1.829 0 3.136-.602 1.306-.603 2.09-1.717.784-1.113 1.035-2.636.25-1.534-.17-2.67-.41-1.137-1.523-1.762-1.102-.624-2.944-.625h-5.33L84.762 103zm12-10.5 3.989 10.5h-2.443l-3.92-10.5zm9.358 14.5 2-12.046h-.113l-3.875 2.307.329-1.886 3.887-2.33h1.909L105.812 107zM122.534 170.727l3.875 20.512h.216l10.659-20.512h2.227L127.182 194h-2.273l-4.602-23.273z"/><path fill="#88fff9" d="M90.534 5.727 94.41 26.24h.216l10.659-20.512h2.227L95.181 29H92.91L88.307 5.727zM108.807 33l2-12.045h-.114l-3.875 2.306.33-1.886 3.886-2.33h1.909L110.625 33zM194.534 5.727l3.875 20.512h.216l10.659-20.512h2.227L199.182 29h-2.273l-4.602-23.273zM209.58 33l.204-1.364 6.046-4.897a28 28 0 0 0 1.761-1.512q.693-.647 1.057-1.204.363-.57.454-1.194.182-1.09-.545-1.772-.716-.682-2-.682-1.307 0-2.296.739-.977.738-1.159 1.886h-1.841q.296-1.785 1.807-2.954 1.523-1.182 3.659-1.182 1.42 0 2.398.534.988.534 1.432 1.454.442.909.261 2.046a4.5 4.5 0 0 1-.579 1.59q-.432.74-1.319 1.603-.885.852-2.363 2.034l-4.012 3.239v.08h7.421l-.25 1.556z"/><path fill="#ffee2d" d="m191.636 103 3.864-23.273h7.511q2.477 0 3.989.887 1.523.885 2.102 2.465.59 1.569.262 3.614-.341 2.023-1.455 3.58-1.102 1.557-2.909 2.443-1.807.875-4.261.875h-6.387l.33-1.943h6.329q1.83 0 3.137-.602 1.306-.603 2.091-1.717.783-1.113 1.034-2.636.25-1.534-.171-2.67-.409-1.137-1.522-1.762-1.102-.624-2.944-.625h-5.329L193.761 103zm12-10.5 3.989 10.5h-2.443l-3.921-10.5zm6.131 14.5.205-1.364 6.045-4.897q1.08-.864 1.761-1.512.694-.647 1.057-1.204.364-.57.455-1.194.181-1.09-.546-1.772-.716-.682-2-.682-1.306 0-2.295.739-.978.738-1.159 1.886h-1.841q.295-1.785 1.807-2.954 1.523-1.182 3.659-1.182 1.42 0 2.397.534.99.534 1.432 1.454.444.909.262 2.046a4.5 4.5 0 0 1-.58 1.59q-.432.74-1.318 1.603-.887.852-2.364 2.034l-4.011 3.239v.079h7.42l-.25 1.557z"/><path fill="#88fff9" d="m60 38 10 5.773V32.227zm74 0-10-5.773v11.547zm-65 0v1h56v-2H69zM164 38l10 5.773V32.227zm74 0-10-5.773v11.547zm-65 0v1h56v-2h-56z"/></g><defs><clipPath id="a"><path fill="#fff" d="M0 0h300v200H0z"/></clipPath></defs></svg>