<svg xmlns="http://www.w3.org/2000/svg" width="300" height="200" fill="none" viewBox="0 0 300 200"><g clip-path="url(#a)"><path fill="#000" d="M0 0h300v200H0z"/><path fill="#fff" d="m90.306 50.5 9.03 15.643 5.073-8.786.289-.5h27.35v35.047h29.475v2h-29.475v32.763h-26.195l-5.65 9.785-.866 1.5-.865-1.5-9.032-15.643-9.032 15.643-.866 1.5-.865-1.5-9.033-15.643-9.03 15.643-.867 1.5-.865-1.5-9.032-15.643-4.413 7.643-.289.5H26.81V95.048H0v-2h26.81V59.143h17.184l4.99-8.643.866-1.5.866 1.5 9.031 15.643L68.78 50.5l.865-1.5.867 1.5 9.031 15.643L88.574 50.5l.865-1.5zm-9.898 18.143-.866 1.5-.865-1.5-9.033-15.644-9.03 15.644-.867 1.5-.865-1.5-9.032-15.644-4.413 7.644-.289.5H28.81v65.809h15.184l4.99-8.642.866-1.5.866 1.5 9.031 15.642 9.032-15.642.865-1.5.867 1.5 9.031 15.642 9.032-15.642.865-1.5.867 1.5 9.03 15.642 5.073-8.785.289-.5h25.35v-65.81h-24.195l-5.65 9.786-.866 1.5-.865-1.5-9.032-15.644z"/><path fill="#ffee2d" d="m67.84 40 4.347-26.182h8.45q2.788 0 4.488.997 1.713.998 2.365 2.775.665 1.763.294 4.065-.384 2.276-1.636 4.027-1.24 1.751-3.273 2.748-2.032.985-4.794.985h-7.185l.371-2.186h7.12q2.06 0 3.53-.678t2.352-1.93q.88-1.253 1.163-2.966.28-1.725-.192-3.004-.46-1.279-1.713-1.982-1.24-.703-3.311-.703H74.22L70.231 40zm13.5-11.812L85.829 40H83.08l-4.41-11.812zM91.87 44.5l2.25-13.551h-.128l-4.36 2.595.371-2.122 4.372-2.62h2.148L93.914 44.5zM65.84 173l4.347-26.182h8.45q2.788 0 4.488.997 1.713.998 2.365 2.774.665 1.765.294 4.066-.384 2.275-1.636 4.027-1.24 1.751-3.273 2.748-2.032.985-4.794.985h-7.185l.371-2.186h7.12q2.06 0 3.53-.678t2.352-1.93q.88-1.253 1.163-2.966.28-1.726-.192-3.004-.46-1.279-1.713-1.982-1.24-.703-3.311-.703H72.22L68.231 173zm13.5-11.812L83.829 173H81.08l-4.41-11.812zm6.898 16.312.23-1.534 6.801-5.51q1.215-.972 1.982-1.7.78-.73 1.189-1.355.409-.64.511-1.343.204-1.227-.614-1.994-.805-.767-2.25-.767-1.47 0-2.582.831-1.1.83-1.304 2.122H88.13q.333-2.007 2.033-3.324 1.713-1.329 4.116-1.329 1.599 0 2.698.6 1.112.601 1.61 1.637.499 1.023.294 2.301a5.1 5.1 0 0 1-.652 1.79q-.485.831-1.483 1.802-.996.959-2.659 2.289l-4.512 3.643v.09h8.348l-.282 1.751z"/><path fill="#88fff9" d="m197 93-10-5.773v11.546zm-29 0v1h20v-2h-20z"/><path stroke="#fff" stroke-width="2" d="M310 89.2h-26.461l-6.098 10.8-10.162-18-10.162 18-10.162-18-10.163 18-10.162-18-5.42 9.6H204"/><path fill="#ff8080" d="m235.636 147 3.864-23.273h7.511q2.477 0 3.989.887 1.523.887 2.102 2.466.59 1.568.262 3.613-.341 2.023-1.455 3.58-1.102 1.557-2.909 2.443-1.807.875-4.261.875h-6.387l.33-1.943h6.329q1.83 0 3.137-.603 1.306-.602 2.091-1.715.783-1.114 1.034-2.637.25-1.535-.171-2.67-.409-1.137-1.522-1.762-1.102-.624-2.944-.625h-5.329L237.761 147zm12-10.5 3.989 10.5h-2.443l-3.921-10.5zm10.904 14.727q-1.682 0-2.773-.772-1.08-.762-1.511-2.114-.421-1.352-.125-3.114t1.181-3.113q.887-1.364 2.182-2.125a5.4 5.4 0 0 1 2.83-.773q1.455 0 2.5.704 1.056.694 1.523 1.978.465 1.273.159 3.022l-.125.682h-9.478l.182-1.238h7.739q.171-1.023-.114-1.853a2.67 2.67 0 0 0-.943-1.329q-.659-.5-1.614-.5-.942 0-1.818.534a4.8 4.8 0 0 0-1.477 1.409 4.8 4.8 0 0 0-.796 1.955l-.159 1.045q-.306 1.875.444 3.011t2.443 1.137q.75 0 1.375-.25a4 4 0 0 0 1.102-.625q.477-.387.773-.841l1.636.25q-.534 1.102-1.852 2.011t-3.284.909m16.704 4.137h-1.863l1.113-6.694h-.079a5.4 5.4 0 0 1-.932 1.228q-.569.591-1.352.954-.773.375-1.75.375-1.364 0-2.296-.761-.92-.75-1.284-2.102-.353-1.352-.057-3.137.318-1.875 1.125-3.216.819-1.352 1.978-2.068a4.63 4.63 0 0 1 2.511-.727q.954 0 1.602.352.66.34 1.046.932.385.58.534 1.273h.113l.398-2.409h1.83zm-.147-10.171q.328-1.954-.33-3.204-.659-1.25-2.182-1.25-1.045 0-1.852.591-.807.579-1.352 1.602-.546 1.011-.773 2.329-.193 1.228.034 2.228.228 1 .852 1.591.638.602 1.659.602 1.023 0 1.83-.58.807-.568 1.341-1.579.546-1.012.773-2.33"/></g><defs><clipPath id="a"><path fill="#fff" d="M0 0h300v200H0z"/></clipPath></defs></svg>