<svg xmlns="http://www.w3.org/2000/svg" width="300" height="200" fill="none" viewBox="0 0 300 200"><path fill="#000" d="M0 0h300v200H0z"/><path stroke="#fff" stroke-width="2" d="m62.323 101.546 24.57-24.565-2.307-8.237 15.449 4.325-4.326-15.445 15.448 4.325-4.326-15.444 15.448 4.325-1.277-7.949L146.889 17m.186 167-25.887-25.881-7.951 1.277 4.327-15.445-15.449 4.326 4.326-15.445-15.448 4.325 4.326-15.445-8.239 2.307-24.57-24.565H17m214.625 2.092-24.571-24.565 2.308-8.237-15.449 4.325 4.327-15.445-15.449 4.325 4.326-15.444-15.448 4.325 1.277-7.949L147.059 17m-.186 167 25.887-25.881 7.951 1.277-4.326-15.445 15.448 4.326-4.326-15.445 15.448 4.325-4.326-15.445 8.239 2.307 24.571-24.565H284M146.703 17.5v64.17l5.866 4.241L140 92.981l12.569 7.069L140 107.119l12.569 7.069L140 121.257l6.703 3.771V183"/><path fill="#ffee2d" d="m76.33 46 3.139-18.91h6.103q2.013 0 3.24.721 1.238.72 1.709 2.004.48 1.274.212 2.936-.277 1.643-1.182 2.908-.896 1.265-2.364 1.985-1.467.711-3.462.711h-5.189l.268-1.579h5.143q1.486 0 2.548-.49a4.16 4.16 0 0 0 1.699-1.393q.637-.906.84-2.142.203-1.246-.138-2.17-.332-.924-1.238-1.431-.895-.508-2.391-.508h-4.33L78.057 46zm9.75-8.531L89.32 46h-1.985l-3.185-8.531zm7.603 11.781 1.625-9.787h-.092l-3.149 1.874.268-1.532 3.158-1.893h1.55L95.16 49.25zM76.33 169l3.139-18.909h6.103q2.013 0 3.24.72 1.238.72 1.709 2.004.48 1.274.212 2.936-.277 1.643-1.182 2.908-.896 1.265-2.364 1.985-1.467.711-3.462.711h-5.189l.268-1.579h5.143q1.486 0 2.548-.489a4.16 4.16 0 0 0 1.699-1.394q.637-.905.84-2.142.203-1.247-.138-2.17-.332-.924-1.238-1.431-.895-.508-2.391-.508h-4.33L78.057 169zm9.75-8.531L89.32 169h-1.985l-3.185-8.531zm4.98 11.781.167-1.108 4.912-3.979a23 23 0 0 0 1.431-1.228q.563-.526.859-.979.295-.462.369-.969.147-.887-.443-1.441-.582-.554-1.625-.554-1.062 0-1.865.6-.795.6-.942 1.533h-1.496q.24-1.45 1.468-2.401 1.238-.96 2.973-.96 1.155 0 1.948.434.804.434 1.164 1.182.36.738.212 1.662-.11.683-.47 1.293-.352.6-1.072 1.301-.72.693-1.92 1.653l-3.26 2.631v.065h6.03l-.204 1.265zM200.33 46l3.139-18.91h6.103q2.013 0 3.24.721 1.238.72 1.709 2.004.48 1.274.212 2.936-.278 1.643-1.182 2.908-.896 1.265-2.363 1.985-1.468.711-3.463.711h-5.189l.268-1.579h5.143q1.486 0 2.548-.49a4.16 4.16 0 0 0 1.699-1.393q.638-.906.84-2.142.203-1.246-.138-2.17-.332-.924-1.238-1.431-.895-.508-2.391-.508h-4.33L202.056 46zm9.75-8.531L213.32 46h-1.985l-3.185-8.531zm9.154 11.929q-1.237 0-2.142-.416-.895-.406-1.339-1.135-.434-.72-.286-1.662h1.523q-.129.858.527 1.385.656.535 1.772.535 1.228 0 2.124-.61.896-.608 1.043-1.467.157-.933-.563-1.468-.72-.545-2.087-.545h-.72l.166-1.163h.693q1.219 0 2.059-.573.849-.582.979-1.385.147-.831-.342-1.366-.48-.536-1.616-.536-1.024 0-1.902.536-.877.535-1.034 1.422h-1.468q.175-.96.813-1.672.637-.72 1.578-1.117a5.2 5.2 0 0 1 2.032-.397q1.172 0 1.985.406.822.407 1.191 1.127.378.71.231 1.616-.167 1.005-.896 1.606-.72.6-1.865.831v.065q1.228.212 1.856.97.627.756.461 1.827a3.17 3.17 0 0 1-.821 1.662q-.665.72-1.69 1.117-1.024.407-2.262.407M200.33 169l3.139-18.909h6.103q2.013 0 3.24.72 1.238.72 1.709 2.004.48 1.274.212 2.936-.278 1.643-1.182 2.908-.896 1.265-2.363 1.985-1.468.711-3.463.711h-5.189l.268-1.579h5.143q1.486 0 2.548-.489a4.16 4.16 0 0 0 1.699-1.394q.638-.905.84-2.142.203-1.247-.138-2.17-.332-.924-1.238-1.431-.895-.508-2.391-.508h-4.33L202.056 169zm9.75-8.531 3.24 8.531h-1.985l-3.185-8.531zm5.036 9.491.176-1.182 6.86-7.866h.997l-.259 1.8h-.692l-5.245 5.946v.056h7.322l-.194 1.246zm5.531 2.29.452-2.659.092-.517 1.367-8.162h1.449l-1.883 11.338zM160.33 111l3.139-18.91h6.103q2.013 0 3.24.721 1.238.72 1.709 2.004.48 1.275.212 2.936-.278 1.643-1.182 2.908-.896 1.265-2.363 1.985-1.468.711-3.463.711h-5.189l.268-1.579h5.143q1.486 0 2.548-.489a4.16 4.16 0 0 0 1.699-1.394q.638-.904.84-2.142.203-1.247-.138-2.17-.332-.924-1.238-1.431-.895-.508-2.391-.508h-4.33L162.056 111zm9.75-8.531 3.24 8.531h-1.985l-3.185-8.531zm8.868 11.929q-1.136 0-1.948-.416-.813-.415-1.201-1.145-.387-.72-.258-1.652h1.496q-.13.932.48 1.458.618.536 1.588.536 1.227 0 2.133-.739a3 3 0 0 0 1.098-1.874q.184-1.108-.489-1.81-.665-.711-1.856-.711-.59 0-1.228.231a3.5 3.5 0 0 0-1.071.61l-1.413-.259 1.607-5.715h6.639l-.194 1.265h-5.346l-1.117 3.656h.073a3.5 3.5 0 0 1 1.155-.674 4.1 4.1 0 0 1 1.44-.258q1.118 0 1.911.47.804.462 1.163 1.302.37.84.185 1.958a4.1 4.1 0 0 1-.849 1.92 4.66 4.66 0 0 1-1.718 1.348q-1.034.5-2.28.499"/></svg>