<svg xmlns="http://www.w3.org/2000/svg" width="300" height="200" fill="none" viewBox="0 0 300 200"><path fill="#000" d="M0 0h300v200H0z"/><path stroke="#fff" stroke-width="2" d="M160 28v61.732M174.598 44.535v27.559M174 57h21.968l5.062-7 8.436 15 8.437-15 8.437 15 8.436-15 8.437 15 4.499-8H262"/><path fill="#ffee2d" d="m110.33 37 3.139-18.91h6.103q2.013 0 3.24.721 1.238.72 1.709 2.004.48 1.274.212 2.936-.277 1.643-1.182 2.908-.896 1.265-2.363 1.985-1.468.711-3.463.711h-5.189l.268-1.579h5.143q1.486 0 2.548-.49a4.16 4.16 0 0 0 1.699-1.393q.637-.905.84-2.142.203-1.247-.138-2.17-.332-.924-1.238-1.431-.896-.508-2.391-.508h-4.33L112.056 37zm9.75-8.531L123.32 37h-1.985l-3.185-8.531zm7.603 11.781 1.625-9.787h-.092l-3.149 1.874.268-1.532 3.158-1.893h1.551L129.16 40.25zM221.33 39l3.139-18.91h6.103q2.013 0 3.24.721 1.238.72 1.709 2.004.48 1.274.212 2.936-.278 1.643-1.182 2.908-.896 1.265-2.363 1.985-1.468.711-3.463.711h-5.189l.268-1.579h5.143q1.486 0 2.548-.49a4.16 4.16 0 0 0 1.699-1.393q.638-.905.84-2.142.203-1.247-.138-2.17-.332-.924-1.238-1.431-.895-.508-2.391-.508h-4.33L223.056 39zm9.75-8.531L234.32 39h-1.985l-3.185-8.531zm4.981 11.781.166-1.108 4.912-3.98a23 23 0 0 0 1.431-1.227q.563-.526.859-.979a2.4 2.4 0 0 0 .369-.97q.148-.885-.443-1.44-.582-.554-1.625-.554-1.062 0-1.865.6-.795.6-.942 1.533h-1.496q.24-1.45 1.468-2.4 1.237-.96 2.973-.96 1.155 0 1.948.433.804.434 1.164 1.182.36.738.212 1.662a3.7 3.7 0 0 1-.471 1.292q-.351.6-1.071 1.302a29 29 0 0 1-1.92 1.653l-3.259 2.631v.065h6.029l-.203 1.265z"/><path fill="#88fff9" d="m62.496 7.09 3.149 16.666h.175l8.66-16.665h1.81L66.274 26h-1.847l-3.74-18.91zm14.847 22.16 1.625-9.787h-.092l-3.149 1.874.268-1.532 3.158-1.893h1.55L78.82 29.25zM170.496 7.09l3.149 16.666h.175l8.661-16.665h1.809L174.273 26h-1.847l-3.739-18.91zm12.225 22.16.166-1.108 4.912-3.98a23 23 0 0 0 1.431-1.227q.564-.526.859-.979a2.4 2.4 0 0 0 .369-.97q.148-.885-.443-1.44-.582-.554-1.625-.554-1.062 0-1.865.6-.793.6-.942 1.533h-1.496q.24-1.45 1.468-2.4 1.238-.96 2.973-.96 1.155 0 1.949.433.803.434 1.163 1.182.36.738.212 1.662a3.7 3.7 0 0 1-.471 1.292q-.351.6-1.071 1.302a29 29 0 0 1-1.92 1.653l-3.259 2.631v.065h6.029l-.203 1.265z"/><path stroke="#fff" stroke-width="2" d="M57 26v61.732M71.598 42.535v27.559M71 55h21.968l5.062-7 8.436 15 8.437-15 8.437 15 8.436-15 8.437 15 4.499-8H159M56 56H32"/><path fill="#ffee2d" d="m175.33 149 3.139-18.909h6.103q2.013 0 3.24.72 1.238.72 1.709 2.004.48 1.274.212 2.936-.278 1.643-1.182 2.908-.896 1.265-2.363 1.985-1.468.711-3.463.711h-5.189l.268-1.579h5.143q1.486 0 2.548-.489a4.16 4.16 0 0 0 1.699-1.394q.638-.905.84-2.142.203-1.247-.138-2.17-.332-.924-1.238-1.431-.895-.508-2.391-.508h-4.33L177.056 149zm9.75-8.531 3.24 8.531h-1.985l-3.185-8.531zm8.859 11.966q-1.367 0-2.253-.628-.877-.619-1.228-1.718-.342-1.098-.102-2.529.24-1.432.96-2.53.72-1.108 1.773-1.727a4.4 4.4 0 0 1 2.299-.628q1.182 0 2.031.573.859.563 1.238 1.606.378 1.035.129 2.456l-.102.554h-7.7l.148-1.006h6.287q.14-.831-.092-1.505a2.16 2.16 0 0 0-.766-1.08q-.536-.407-1.311-.407-.767 0-1.478.434a3.95 3.95 0 0 0-1.2 1.145 3.9 3.9 0 0 0-.646 1.588l-.129.85q-.25 1.523.36 2.447.61.923 1.985.923.609 0 1.117-.203.507-.195.895-.508.388-.314.628-.683l1.33.203q-.434.896-1.505 1.634t-2.668.739m13.572 3.36h-1.514l.905-5.438h-.065a4.4 4.4 0 0 1-.757.997q-.462.48-1.099.776a3.2 3.2 0 0 1-1.422.305q-1.107 0-1.865-.619-.747-.61-1.043-1.708-.286-1.1-.046-2.548.258-1.524.914-2.613.665-1.1 1.606-1.681a3.77 3.77 0 0 1 2.041-.591q.776 0 1.302.287.535.276.849.757.314.47.434 1.034h.092l.324-1.958h1.486zm-.12-8.263q.267-1.588-.268-2.604-.536-1.015-1.773-1.015-.849 0-1.504.48-.657.471-1.099 1.302-.444.82-.628 1.892-.157.997.028 1.81t.692 1.293q.517.489 1.348.489t1.487-.471q.656-.461 1.089-1.283.444-.822.628-1.893"/><path fill="#88fff9" d="m125.496 121.091 3.149 16.665h.175l8.661-16.665h1.809L129.273 140h-1.847l-3.739-18.909zm16.103 22.344q-1.367 0-2.253-.628-.877-.619-1.228-1.718-.342-1.098-.102-2.529.24-1.432.961-2.53.72-1.108 1.772-1.727a4.4 4.4 0 0 1 2.299-.628q1.182 0 2.032.573.858.563 1.237 1.606.378 1.035.129 2.456l-.102.554h-7.7l.148-1.006h6.288q.138-.831-.093-1.505a2.16 2.16 0 0 0-.766-1.08q-.536-.407-1.311-.407-.767 0-1.477.434a3.95 3.95 0 0 0-1.201 1.145 3.9 3.9 0 0 0-.646 1.588l-.129.85q-.25 1.523.36 2.447.61.923 1.985.923.609 0 1.117-.203.508-.195.896-.508.387-.314.627-.683l1.33.203q-.434.896-1.505 1.634t-2.668.739m13.572 3.36h-1.514l.905-5.438h-.065a4.4 4.4 0 0 1-.757.997q-.462.48-1.099.776a3.2 3.2 0 0 1-1.422.305q-1.107 0-1.865-.619-.747-.61-1.043-1.708-.286-1.1-.046-2.548.258-1.524.914-2.613.665-1.1 1.607-1.681a3.77 3.77 0 0 1 2.04-.591q.775 0 1.302.287.535.276.849.757.315.47.434 1.034h.093l.323-1.958h1.486zm-.12-8.263q.268-1.588-.268-2.604-.536-1.015-1.772-1.015a2.48 2.48 0 0 0-1.505.48q-.656.471-1.099 1.302a6.2 6.2 0 0 0-.628 1.892q-.157.997.028 1.81t.692 1.293q.517.489 1.348.489t1.487-.471q.656-.461 1.089-1.283.444-.822.628-1.893"/><path stroke="#fff" stroke-width="2" d="M116 138v61.732M130.598 154.535v27.559M130 167h21.968l5.062-7 8.436 15 8.437-15 8.437 15 8.436-15 8.437 15 4.499-8H218M115 168H91"/><path fill="#ff6668" d="m135 110 5.774-10h-11.548zm0-28h-1v19h2V82z"/></svg>