<svg xmlns="http://www.w3.org/2000/svg" width="300" height="200" fill="none" viewBox="0 0 300 200"><path fill="#000" d="M0 0h300v200H0z"/><rect width="263" height="174" x="19" y="11" fill="#ffb310" fill-opacity=".33" rx="8"/><path stroke="#fff" stroke-width="3" d="M298 98.933H176.927L167.47 112l-15.762-28-15.761 28-15.762-28-15.762 28-15.761-28-8.407 14.933H2"/><path fill="#ffbc2b" d="m93.67 152.364 3.269 17.306h.182l8.994-17.306h1.879L97.591 172h-1.918l-3.883-19.636zm18.495 19.943q-1.937 0-3.26-.978-1.323-.988-1.87-2.733-.546-1.744-.182-4.027.364-2.225 1.448-3.912 1.092-1.697 2.684-2.636a6.64 6.64 0 0 1 3.462-.95q1.946 0 3.26.988 1.323.987 1.869 2.733.556 1.744.192 4.036-.365 2.215-1.457 3.902-1.093 1.679-2.685 2.628a6.6 6.6 0 0 1-3.461.949m.019-1.563q1.572 0 2.8-.834 1.236-.844 2.042-2.244a9.2 9.2 0 0 0 1.083-3.097q.26-1.61-.057-2.962t-1.218-2.167-2.397-.815q-1.563 0-2.8.853-1.236.844-2.042 2.263a9 9 0 0 0-1.074 3.087q-.269 1.62.039 2.963.316 1.342 1.217 2.148.912.804 2.407.805m15.108-18.38L124.032 172h-1.706l3.26-19.636zm9.512 4.909-.24 1.486h-7.038l.25-1.486zm-4.257-3.529h1.716l-2.397 14.411q-.153.92.077 1.448.23.518.709.738.48.211 1.055.211.335 0 .575-.038a8 8 0 0 0 .441-.096l.125 1.544a5 5 0 0 1-.662.172 4.2 4.2 0 0 1-.92.087 3.7 3.7 0 0 1-1.736-.413 2.74 2.74 0 0 1-1.208-1.227q-.412-.815-.22-2.023zM138.225 172l2.455-14.727h1.658l-.383 2.263h.153a4.66 4.66 0 0 1 1.784-1.793q1.14-.663 2.588-.662 1.515 0 2.378.719.863.71 1.151 1.956h.125a5.1 5.1 0 0 1 1.946-1.946q1.256-.729 2.867-.729 2.042 0 3.02 1.294t.566 3.759L156.884 172h-1.707l1.649-9.866q.278-1.745-.451-2.618-.728-.872-2.186-.872-1.687 0-2.79 1.035-1.093 1.026-1.352 2.627l-1.62 9.694h-1.745l1.678-10.02q.24-1.495-.432-2.416-.661-.92-2.176-.92-1.026 0-1.927.508-.893.498-1.515 1.39a4.9 4.9 0 0 0-.806 2.023L139.932 172zm29.093.307q-2.062 0-3.404-.959-1.342-.969-1.879-2.675-.537-1.716-.163-3.95.374-2.225 1.476-3.951 1.103-1.735 2.723-2.713a6.64 6.64 0 0 1 3.519-.988q1.198 0 2.244.441a4.43 4.43 0 0 1 1.774 1.333q.738.893 1.025 2.253.288 1.352-.019 3.203l-.134.844h-11.506l.24-1.506h9.77q.24-1.419-.134-2.55t-1.275-1.793q-.892-.671-2.215-.671-1.352 0-2.56.757a6.95 6.95 0 0 0-2.033 1.975 6.55 6.55 0 0 0-1.064 2.579l-.192 1.132q-.306 1.869.077 3.135.384 1.256 1.39 1.899 1.007.642 2.579.642 1.056 0 1.908-.326a5 5 0 0 0 1.487-.873q.632-.555 1.016-1.217l1.524.527q-.489.93-1.38 1.716a6.9 6.9 0 0 1-2.1 1.266q-1.207.47-2.694.47m18.028-15.034-.24 1.486h-7.038l.25-1.486zm-4.257-3.529h1.716l-2.397 14.411q-.154.92.077 1.448.23.518.709.738.48.211 1.055.211.335 0 .575-.038a8 8 0 0 0 .441-.096l.125 1.544a5 5 0 0 1-.662.172 4.2 4.2 0 0 1-.92.087 3.7 3.7 0 0 1-1.736-.413 2.74 2.74 0 0 1-1.208-1.227q-.412-.815-.22-2.023zm11.436 18.563q-2.062 0-3.404-.959-1.342-.969-1.879-2.675-.537-1.716-.163-3.95.374-2.225 1.476-3.951 1.103-1.735 2.723-2.713a6.65 6.65 0 0 1 3.519-.988q1.198 0 2.244.441a4.43 4.43 0 0 1 1.774 1.333q.738.893 1.025 2.253.288 1.352-.019 3.203l-.134.844h-11.506l.24-1.506h9.77q.24-1.419-.134-2.55t-1.275-1.793q-.892-.671-2.215-.671-1.352 0-2.56.757a6.95 6.95 0 0 0-2.033 1.975 6.55 6.55 0 0 0-1.064 2.579l-.192 1.132q-.306 1.869.077 3.135.384 1.256 1.39 1.899 1.007.642 2.579.642 1.056 0 1.908-.326a5 5 0 0 0 1.487-.873q.632-.555 1.016-1.217l1.524.527q-.489.93-1.38 1.716a6.9 6.9 0 0 1-2.1 1.266q-1.207.47-2.694.47m9.772-.307 2.455-14.727h1.659l-.384 2.263h.125q.613-1.113 1.831-1.793a5.25 5.25 0 0 1 2.618-.691q.21 0 .469.01.26 0 .432.019l-.297 1.735a16 16 0 0 0-.403-.057 4.5 4.5 0 0 0-.623-.038q-1.15 0-2.129.489a4.64 4.64 0 0 0-1.63 1.332 4.4 4.4 0 0 0-.843 1.947L204.004 172z"/><circle cx="229.5" cy="99.5" r="30.5" fill="url(#a)"/><path fill="#000" d="M237.364 96a7.8 7.8 0 0 0-.523-2.182 5.4 5.4 0 0 0-1.148-1.784q-.738-.761-1.829-1.193-1.08-.432-2.546-.432-2.17 0-4.204 1.148-2.023 1.147-3.512 3.375-1.477 2.216-2.011 5.432-.523 3.147.102 5.375.625 2.226 2.216 3.409 1.591 1.17 3.966 1.17 2.136 0 3.977-.954 1.842-.966 3.103-2.739 1.26-1.773 1.636-4.205l.636.216h-7.454l.352-1.909h8.83l-.353 1.909q-.477 2.989-2.034 5.159t-3.863 3.353q-2.308 1.17-5.023 1.17-3.045 0-5.091-1.466-2.034-1.477-2.852-4.159t-.205-6.329q.432-2.74 1.523-4.943 1.09-2.205 2.682-3.762a11.6 11.6 0 0 1 3.568-2.409q1.977-.84 4.182-.84 1.909 0 3.397.601 1.49.603 2.523 1.66a7 7 0 0 1 1.568 2.42q.546 1.364.568 2.909z"/><path fill="#ffee2d" d="m113.045 65 4.83-29.09h9.389q3.097 0 4.986 1.107 1.904 1.108 2.628 3.082.738 1.96.327 4.518-.427 2.528-1.819 4.474-1.377 1.945-3.636 3.054-2.259 1.094-5.327 1.094h-7.983l.412-2.43h7.912q2.287 0 3.921-.752 1.634-.753 2.613-2.145.981-1.392 1.293-3.295.312-1.919-.213-3.339-.512-1.42-1.904-2.201-1.377-.782-3.679-.782h-6.661L115.702 65zm15-13.125L133.031 65h-3.054l-4.9-13.125z"/><defs><linearGradient id="a" x1="229.5" x2="229.5" y1="69" y2="130" gradientUnits="userSpaceOnUse"><stop stop-color="#f57404"/><stop offset="1" stop-color="#8f4402"/></linearGradient></defs></svg>