<svg xmlns="http://www.w3.org/2000/svg" width="300" height="200" fill="none" viewBox="0 0 300 200"><path fill="#000" d="M0 0h300v200H0z"/><path fill="#ffee2d" d="m88.33 49 3.139-18.91h6.103q2.013 0 3.24.721 1.238.72 1.709 2.004.48 1.275.212 2.936-.277 1.643-1.182 2.908-.895 1.265-2.364 1.985-1.467.711-3.462.711h-5.189l.268-1.579h5.143q1.486 0 2.548-.49a4.16 4.16 0 0 0 1.699-1.393q.637-.906.84-2.142.203-1.246-.138-2.17-.332-.924-1.238-1.431-.895-.508-2.391-.508h-4.33L90.057 49zm9.75-8.531L101.32 49h-1.985l-3.185-8.531zm7.603 11.781 1.625-9.787h-.092l-3.149 1.874.268-1.532 3.158-1.893h1.551L107.16 52.25z"/><path fill="#88fff9" d="m41.496 13.09 3.149 16.666h.175l8.66-16.665h1.81L45.274 32h-1.847l-3.74-18.91zm14.847 22.16 1.625-9.787h-.092l-3.149 1.874.268-1.532 3.158-1.893h1.55L57.82 35.25z"/><path fill="#ffee2d" d="m88.33 175 3.139-18.909h6.103q2.013 0 3.24.72 1.238.72 1.709 2.004.48 1.274.212 2.936-.277 1.643-1.182 2.908-.895 1.265-2.364 1.985-1.467.711-3.462.711h-5.189l.268-1.579h5.143q1.486 0 2.548-.489a4.16 4.16 0 0 0 1.699-1.394q.637-.905.84-2.142.203-1.247-.138-2.17-.332-.924-1.238-1.431-.895-.508-2.391-.508h-4.33L90.057 175zm9.75-8.531 3.24 8.531h-1.985l-3.185-8.531zm4.981 11.781.166-1.108 4.912-3.979a23 23 0 0 0 1.431-1.228q.563-.526.859-.979.296-.462.369-.969.147-.887-.443-1.441-.582-.554-1.625-.554-1.062 0-1.865.6-.795.6-.942 1.533h-1.496q.24-1.45 1.468-2.401 1.237-.96 2.973-.96 1.155 0 1.948.434.804.434 1.164 1.182.36.738.212 1.662a3.7 3.7 0 0 1-.471 1.293q-.351.6-1.071 1.301-.72.693-1.92 1.653l-3.259 2.631v.065h6.029l-.203 1.265z"/><path fill="#88fff9" d="m42.496 174.091 3.149 16.665h.175l8.66-16.665h1.81L46.274 193h-1.847l-3.74-18.909zm12.225 22.159.166-1.108 4.912-3.979a23 23 0 0 0 1.431-1.228q.564-.526.859-.979.295-.462.37-.969.147-.887-.444-1.441-.582-.554-1.625-.554-1.062 0-1.865.6-.794.6-.942 1.533h-1.496q.24-1.45 1.468-2.401 1.238-.96 2.973-.96 1.155 0 1.949.434.803.434 1.163 1.182.36.738.212 1.662-.11.682-.47 1.293-.35.6-1.072 1.301-.72.693-1.92 1.653l-3.26 2.631v.065h6.03l-.203 1.265z"/><path stroke="#fff" stroke-width="2" d="M43.063 40v52.013m12.299-38.081v23.22m-.504-12.718h18.509l4.264-5.898 7.108 12.638 7.108-12.638 7.108 12.638 7.108-12.638 7.108 12.638 3.791-6.74H129v37.494M42.22 65.277H22v37.493M41.378 121v41m12.299-32v19.5m-.504-10.079h18.509l4.264-5.898 7.108 12.639 7.108-12.639 7.108 12.639 7.108-12.639 7.108 12.639 3.791-6.741H129v-37.493m-88.465 38.336H22V102.77m107-.842h17m-124 .842H5.5"/><path fill="#ffee2d" d="m253.33 84 3.139-18.91h6.103q2.013 0 3.24.721 1.238.72 1.709 2.004.48 1.275.212 2.936-.277 1.643-1.182 2.908-.896 1.265-2.363 1.985-1.468.711-3.463.711h-5.189l.268-1.579h5.143q1.486 0 2.548-.49a4.16 4.16 0 0 0 1.699-1.393q.637-.904.84-2.142.203-1.247-.138-2.17-.332-.924-1.238-1.431-.895-.508-2.391-.508h-4.33L255.056 84zm9.75-8.531L266.32 84h-1.985l-3.185-8.531zm8.859 11.966q-1.367 0-2.253-.628-.877-.619-1.228-1.718-.342-1.098-.102-2.53.24-1.43.96-2.53.72-1.107 1.773-1.726a4.4 4.4 0 0 1 2.299-.628q1.182 0 2.031.573.859.562 1.238 1.606.378 1.034.129 2.456l-.102.554h-7.7l.148-1.006h6.287q.14-.831-.092-1.505a2.17 2.17 0 0 0-.766-1.08q-.536-.406-1.311-.406-.767 0-1.478.433a3.9 3.9 0 0 0-1.2 1.145 3.9 3.9 0 0 0-.646 1.588l-.129.85q-.25 1.523.36 2.447.61.923 1.985.923.609 0 1.117-.203.508-.195.895-.508.388-.314.628-.683l1.33.203q-.434.896-1.505 1.634-1.071.739-2.668.739m13.572 3.36h-1.514l.905-5.438h-.065q-.286.526-.757.997a3.6 3.6 0 0 1-1.099.776 3.2 3.2 0 0 1-1.422.305q-1.107 0-1.865-.619-.747-.61-1.043-1.708-.286-1.1-.046-2.548.258-1.524.914-2.613.665-1.1 1.606-1.68a3.77 3.77 0 0 1 2.041-.592q.776 0 1.302.287.536.276.849.757.314.47.434 1.034h.092l.324-1.957h1.486zm-.12-8.263q.267-1.588-.268-2.604-.535-1.015-1.773-1.015-.849 0-1.504.48-.657.471-1.099 1.302-.444.82-.628 1.892-.157.997.028 1.81t.692 1.293q.517.489 1.348.489t1.487-.47q.656-.463 1.089-1.284.444-.822.628-1.893"/><path fill="#88fff9" d="m206.496 50.09 3.149 16.666h.175l8.661-16.665h1.809L210.273 69h-1.847l-3.739-18.91zm16.103 22.345q-1.367 0-2.253-.628-.877-.619-1.228-1.718-.342-1.098-.102-2.53.24-1.43.961-2.53.72-1.107 1.772-1.726a4.4 4.4 0 0 1 2.299-.628q1.182 0 2.032.573.858.562 1.237 1.606.378 1.034.129 2.456l-.102.554h-7.7l.148-1.006h6.288q.138-.831-.093-1.505a2.17 2.17 0 0 0-.766-1.08q-.536-.406-1.311-.406-.767 0-1.477.433a3.9 3.9 0 0 0-1.201 1.145 3.9 3.9 0 0 0-.646 1.588l-.129.85q-.25 1.523.36 2.447.61.923 1.985.923.609 0 1.117-.203.508-.195.896-.508.387-.314.627-.683l1.33.203q-.434.896-1.505 1.634-1.07.739-2.668.739m13.572 3.36h-1.514l.905-5.438h-.065q-.286.526-.757.997a3.6 3.6 0 0 1-1.099.776 3.2 3.2 0 0 1-1.422.305q-1.107 0-1.865-.619-.747-.61-1.043-1.708-.286-1.1-.046-2.548.258-1.524.914-2.613.665-1.1 1.607-1.68a3.77 3.77 0 0 1 2.04-.592q.775 0 1.302.287.535.276.849.757.315.47.434 1.034h.093l.323-1.958h1.486zm-.12-8.263q.268-1.588-.268-2.604-.536-1.015-1.772-1.015a2.48 2.48 0 0 0-1.505.48q-.656.471-1.099 1.302a6.2 6.2 0 0 0-.628 1.892q-.157.997.028 1.81t.692 1.293q.517.489 1.348.489t1.487-.47q.656-.463 1.089-1.284.444-.822.628-1.893"/><path stroke="#fff" stroke-width="2" d="M209.11 76.272V128M221.342 90.128v23.093M220.679 100.573h18.408l4.242-5.866 7.069 12.569 7.069-12.569 7.069 12.569 7.07-12.569 7.069 12.569 3.77-6.703h11.972M208.11 101.573H188"/><path fill="#ff6668" d="m177 101-10-5.773v11.547zm-24 0v1h15v-2h-15z"/></svg>