<svg xmlns="http://www.w3.org/2000/svg" width="300" height="200" fill="none" viewBox="0 0 300 200"><path fill="#000" d="M0 0h300v200H0z"/><path fill="#fff" d="m290 97-5-2.887v5.774zM11 97v.5h274.5v-1H11z"/><path fill="#fff" d="m150 23-2.887 5h5.774zm0 149h.5V27.5h-1V172zm94.008-81.416V91h-2.976v-.416l.816-.096a1 1 0 0 0 .24-.048q.096-.032.192-.176.112-.144.304-.464l2.544-4.128-2.464-4.352a4 4 0 0 0-.272-.448q-.08-.144-.176-.176a.6.6 0 0 0-.24-.064l-.816-.08v-.432h3.888v.432l-.832.08q-.24.032-.256.128 0 .096.256.56l1.872 3.312 2.048-3.312q.288-.465.288-.56t-.256-.128l-.816-.08v-.432h2.976v.432l-.816.08a.7.7 0 0 0-.256.064q-.08.032-.176.176a10 10 0 0 0-.304.448l-2.384 3.856 2.624 4.624.256.464a.7.7 0 0 0 .176.176q.096.032.256.048l.832.096V91h-3.888v-.416l.832-.096q.256-.032.256-.112.016-.096-.256-.576l-2.048-3.6-2.208 3.6q-.288.464-.288.56t.256.128z"/><path fill="#8af3ff" d="M195.152 116.112q-1.248 0-1.472-1.152-.56.64-1.232.928a3.5 3.5 0 0 1-1.328.272q-1.12 0-1.648-.624t-.528-1.504q0-.944.64-1.488.656-.56 2.256-.56h1.808v-1.296q0-1.28-.448-1.76-.432-.496-1.184-.496-.48 0-.864.192t-.56.704q-.16.496-.032 1.456l-1.264-.192q-.08-.752.192-1.344.288-.608.928-.96.656-.368 1.632-.368 1.168 0 1.792.4.624.384.864 1.008.256.624.256 1.36v3.6q0 .816.176 1.024.192.208.416.208a.8.8 0 0 0 .304-.064q.16-.08.352-.24l.288.4q-.24.208-.576.352a1.9 1.9 0 0 1-.768.144m-3.584-.624q.449 0 .96-.24.528-.257 1.12-1.008v-1.744h-1.632q-.896 0-1.312.368-.4.352-.4 1.104 0 .72.304 1.12.32.4.96.4M261.12 29.32h-.94v-.44q0-.9.26-1.44.28-.56.68-.96l.8-.84q.4-.44.66-1.06.28-.64.28-1.68 0-1.54-.56-2.3t-1.6-.76q-1.32 0-1.84 1-.52.98-.32 2.82l-1.64-.32q-.18-1.08.16-2.02.36-.94 1.28-1.52.92-.6 2.38-.6 1.42 0 2.3.5t1.28 1.3q.4.78.4 1.68 0 .92-.3 1.54-.28.6-.72 1.04-.44.42-.94.76-.48.34-.9.72-.4.36-.64.86-.22.5-.14 1.26zm-.5 3.88q-.5 0-.82-.32-.3-.32-.3-.82t.3-.8q.32-.32.82-.32t.82.32q.32.3.32.8t-.32.82-.82.32m-221.5-3.88h-.94v-.44q0-.9.26-1.44.28-.56.68-.96l.8-.84q.4-.44.66-1.06.28-.64.28-1.68 0-1.54-.56-2.3t-1.6-.76q-1.32 0-1.84 1-.52.98-.32 2.82l-1.64-.32q-.18-1.08.16-2.02.36-.94 1.28-1.52.92-.6 2.38-.6 1.42 0 2.3.5T42.3 21q.4.78.4 1.68 0 .92-.3 1.54-.28.6-.72 1.04-.44.42-.94.76-.48.34-.9.72-.4.36-.64.86-.22.5-.14 1.26zm-.5 3.88q-.5 0-.82-.32-.3-.32-.3-.82t.3-.8q.32-.32.82-.32t.82.32q.32.3.32.8t-.32.82-.82.32m89.716 35.392v-.432h2.544v5.072q.464-.689 1.056-.992a2.65 2.65 0 0 1 1.28-.32q1.376 0 2.128 1.04.768 1.04.768 2.912v.32q0 1.824-.88 2.896-.864 1.072-2.432 1.072-1.248 0-2.048-.816a2 2 0 0 0-.416.32 7 7 0 0 0-.384.416h-.384V69.456q0-.56-.048-.656t-.304-.128zm4.672 3.904q-.496 0-1.04.32-.528.32-1.088 1.296v4.576q.689.945 1.824.944 1.04 0 1.504-.784.464-.8.464-2.176v-1.28q0-1.504-.432-2.192-.432-.704-1.232-.704"/><path fill="#fff" d="M142.472 105.952v1.2q0 2.336-1.072 3.68-1.073 1.328-3.072 1.328-2.016 0-3.088-1.328-1.056-1.344-1.056-3.68v-1.2q0-2.32 1.056-3.648 1.072-1.344 3.088-1.344 2 0 3.072 1.344 1.072 1.328 1.072 3.648m-1.52-.8q0-2-.672-2.832-.656-.848-1.952-.848t-1.968.848q-.656.833-.656 2.832v2.8q0 2 .656 2.848.672.848 1.968.848t1.952-.848q.672-.848.672-2.848zm25.688-76.568V29h-3.856v-.416l.88-.096q.256-.032.304-.128t.048-.656V24.36l-2.576-5.04a3 3 0 0 0-.256-.448q-.08-.144-.176-.176a.6.6 0 0 0-.256-.064l-.816-.08v-.432h3.872v.432l-.816.08q-.24.032-.256.128 0 .095.224.56l2.176 4.368 2.224-4.368q.24-.465.224-.56t-.256-.128l-.816-.08v-.432h2.96v.432l-.832.08a.7.7 0 0 0-.256.064q-.08.032-.176.176a6 6 0 0 0-.24.448l-2.56 5.008v3.376q0 .56.048.656t.304.128z"/><path stroke="#f8ff32" stroke-width="2" d="M150 47c23.599 0 44.915 5.73 60.298 14.942C225.701 71.166 235 83.77 235 97.5s-9.299 26.334-24.702 35.558C194.915 142.269 173.599 148 150 148s-44.915-5.731-60.298-14.942C74.3 123.834 65 111.231 65 97.5s9.3-26.334 24.702-35.558C105.085 52.731 126.401 47 150 47Z"/><path fill="#8af3ff" d="m154 103 5 2.887v-5.774zm78 0-5-2.887v5.774zm-73.5 0v.5h69v-1h-69zM143 95l2.887-5h-5.774zm0-43-2.887 5h5.774zm0 38.5h.5v-34h-1v34z"/><path stroke="#8af3ff" stroke-linecap="round" stroke-width="2" d="M275 11v176M25 15v176"/></svg>