<svg xmlns="http://www.w3.org/2000/svg" width="300" height="200" fill="none" viewBox="0 0 300 200"><path fill="#000" d="M0 0h300v200H0z"/><path fill="#fff" d="m294 100-5-2.887v5.774zm-284 0v.5h279.5v-1H10z"/><path fill="#fff" d="m150 9-2.887 5h5.774zm0 185h.5V13.5h-1V194zM288.008 124.584V125h-2.976v-.416l.816-.096a1 1 0 0 0 .24-.048q.096-.032.192-.176.112-.144.304-.464l2.544-4.128-2.464-4.352a4 4 0 0 0-.272-.448q-.08-.144-.176-.176a.6.6 0 0 0-.24-.064l-.816-.08v-.432h3.888v.432l-.832.08q-.24.032-.256.128 0 .096.256.56l1.872 3.312 2.048-3.312q.288-.464.288-.56t-.256-.128l-.816-.08v-.432h2.976v.432l-.816.08a.8.8 0 0 0-.256.064q-.08.032-.176.176a10 10 0 0 0-.304.448l-2.384 3.856 2.624 4.624.256.464a.7.7 0 0 0 .176.176q.096.032.256.048l.832.096V125h-3.888v-.416l.832-.096q.256-.032.256-.112.016-.096-.256-.576l-2.048-3.6-2.208 3.6q-.288.464-.288.56t.256.128zM164.64 16.584V17h-3.856v-.416l.88-.096q.256-.032.304-.128t.048-.656V12.36l-2.576-5.04a3 3 0 0 0-.256-.448q-.08-.144-.176-.176a.6.6 0 0 0-.256-.064l-.816-.08V6.12h3.872v.432l-.816.08q-.24.032-.256.128 0 .096.224.56l2.176 4.368 2.224-4.368q.24-.464.224-.56t-.256-.128l-.816-.08V6.12h2.96v.432l-.832.08a.7.7 0 0 0-.256.064q-.08.032-.176.176a6 6 0 0 0-.24.448l-2.56 5.008v3.376q0 .56.048.656t.304.128z"/><path stroke="#f8ff32" stroke-width="2" d="M150 21c37.13 0 70.697 8.976 94.947 23.437C269.219 58.909 284 78.763 284 100.5s-14.781 41.591-39.053 56.063C220.697 171.024 187.13 180 150 180s-70.697-8.976-94.947-23.437C30.78 142.091 16 122.237 16 100.5s14.781-41.59 39.053-56.063C79.303 29.977 112.87 21 150 21Z"/><path stroke="#8af3ff" stroke-width="3" d="M104.5 74.5c12.342 0 23.443 2.972 31.408 7.698C143.905 86.944 148.5 93.286 148.5 100s-4.595 13.056-12.592 17.802c-7.965 4.726-19.066 7.698-31.408 7.698s-23.443-2.972-31.408-7.698C65.095 113.056 60.5 106.714 60.5 100s4.595-13.056 12.592-17.802C81.057 77.472 92.158 74.5 104.5 74.5ZM195.5 74.5c12.342 0 23.443 2.972 31.408 7.698C234.905 86.944 239.5 93.286 239.5 100s-4.595 13.056-12.592 17.802c-7.965 4.726-19.066 7.698-31.408 7.698s-23.443-2.972-31.408-7.698C156.095 113.056 151.5 106.714 151.5 100s4.595-13.056 12.592-17.802c7.965-4.726 19.066-7.698 31.408-7.698Z"/><circle cx="240" cy="99" r="4" fill="#8af3ff"/><circle cx="59" cy="99" r="4" fill="#8af3ff"/><path fill="#8af3ff" d="M255.4 122.56q1.34 0 2.16-.66.84-.66.84-1.94 0-1.02-.62-1.7-.62-.7-2.16-1.12l-1.38-.4q-1.52-.42-2.32-1.42t-.8-2.44q0-.96.44-1.8.46-.84 1.38-1.36.94-.52 2.38-.52 1.6 0 2.58.6.98.58 1.36 1.52t.18 2.02l-1.68.36q.26-1.86-.38-2.86-.62-1-2.16-1-1.22 0-1.92.66-.7.64-.7 1.88 0 .98.56 1.68.56.68 1.98 1.08l1.38.4q3.34.92 3.34 3.9 0 1.06-.5 1.92-.48.84-1.48 1.34-.98.5-2.48.5-1.04 0-2-.32a3.7 3.7 0 0 1-1.62-1.1q-.66-.78-.88-2.16l1.2-.4q.1 1.32.58 2.04t1.2 1.02q.72.28 1.52.28M46.4 125.56q1.34 0 2.16-.66.84-.66.84-1.94 0-1.02-.62-1.7-.62-.7-2.16-1.12l-1.38-.4q-1.52-.42-2.32-1.42t-.8-2.44q0-.96.44-1.8.46-.84 1.38-1.36.94-.52 2.38-.52 1.6 0 2.58.6.98.58 1.36 1.52t.18 2.02l-1.68.36q.26-1.86-.38-2.86-.62-1-2.16-1-1.22 0-1.92.66-.7.64-.7 1.88 0 .98.56 1.68.56.68 1.98 1.08l1.38.4q3.34.92 3.34 3.9 0 1.06-.5 1.92-.48.84-1.48 1.34-.98.5-2.48.5-1.04 0-2-.32a3.7 3.7 0 0 1-1.62-1.1q-.66-.78-.88-2.16l1.2-.4q.1 1.32.58 2.04t1.2 1.02q.72.28 1.52.28m6.137-3.44 1.32-.82h1v5.86q0 .34.04.4t.18.08l.56.06v.4h-2.92v-.4l.76-.06q.16-.02.18-.08.04-.06.04-.4v-5.22l-.92.58z"/></svg>