<svg width="300" height="200" viewBox="0 0 300 200" fill="none" xmlns="http://www.w3.org/2000/svg">
<rect width="300" height="200" fill="black"/>
<line x1="76.8659" y1="186.155" x2="52.1552" y2="17.1341" stroke="#8AF3FF" stroke-width="2" stroke-linecap="round"/>
<path d="M290 97L285 94.1133L285 99.8868L290 97ZM11 97L11 97.5L285.5 97.5L285.5 97L285.5 96.5L11 96.5L11 97Z" fill="white"/>
<path d="M150 23L147.113 28L152.887 28L150 23ZM150 172L150.5 172L150.5 27.5L150 27.5L149.5 27.5L149.5 172L150 172Z" fill="white"/>
<path d="M244.008 90.584V91H241.032V90.584L241.848 90.488C241.955 90.4773 242.035 90.4613 242.088 90.44C242.152 90.4187 242.216 90.36 242.28 90.264C242.355 90.168 242.456 90.0133 242.584 89.8L245.128 85.672L242.664 81.32C242.547 81.1067 242.456 80.9573 242.392 80.872C242.339 80.776 242.28 80.7173 242.216 80.696C242.163 80.664 242.083 80.6427 241.976 80.632L241.16 80.552V80.12H245.048V80.552L244.216 80.632C244.056 80.6533 243.971 80.696 243.96 80.76C243.96 80.824 244.045 81.0107 244.216 81.32L246.088 84.632L248.136 81.32C248.328 81.0107 248.424 80.824 248.424 80.76C248.424 80.696 248.339 80.6533 248.168 80.632L247.352 80.552V80.12H250.328V80.552L249.512 80.632C249.405 80.6427 249.32 80.664 249.256 80.696C249.203 80.7173 249.144 80.776 249.08 80.872C249.016 80.9573 248.915 81.1067 248.776 81.32L246.392 85.176L249.016 89.8C249.133 90.0133 249.219 90.168 249.272 90.264C249.336 90.3493 249.395 90.408 249.448 90.44C249.512 90.4613 249.597 90.4773 249.704 90.488L250.536 90.584V91H246.648V90.584L247.48 90.488C247.651 90.4667 247.736 90.4293 247.736 90.376C247.747 90.312 247.661 90.12 247.48 89.8L245.432 86.2L243.224 89.8C243.032 90.1093 242.936 90.296 242.936 90.36C242.936 90.424 243.021 90.4667 243.192 90.488L244.008 90.584Z" fill="white"/>
<path d="M171.12 77.32H170.18V76.88C170.18 76.28 170.267 75.8 170.44 75.44C170.627 75.0667 170.853 74.7467 171.12 74.48C171.387 74.2 171.653 73.92 171.92 73.64C172.187 73.3467 172.407 72.9933 172.58 72.58C172.767 72.1533 172.86 71.5933 172.86 70.9C172.86 69.8733 172.673 69.1067 172.3 68.6C171.927 68.0933 171.393 67.84 170.7 67.84C169.82 67.84 169.207 68.1733 168.86 68.84C168.513 69.4933 168.407 70.4333 168.54 71.66L166.9 71.34C166.78 70.62 166.833 69.9467 167.06 69.32C167.3 68.6933 167.727 68.1867 168.34 67.8C168.953 67.4 169.747 67.2 170.72 67.2C171.667 67.2 172.433 67.3667 173.02 67.7C173.607 68.0333 174.033 68.4667 174.3 69C174.567 69.52 174.7 70.08 174.7 70.68C174.7 71.2933 174.6 71.8067 174.4 72.22C174.213 72.62 173.973 72.9667 173.68 73.26C173.387 73.54 173.073 73.7933 172.74 74.02C172.42 74.2467 172.12 74.4867 171.84 74.74C171.573 74.98 171.36 75.2667 171.2 75.6C171.053 75.9333 171.007 76.3533 171.06 76.86L171.12 77.32ZM170.62 81.2C170.287 81.2 170.013 81.0933 169.8 80.88C169.6 80.6667 169.5 80.3933 169.5 80.06C169.5 79.7267 169.6 79.46 169.8 79.26C170.013 79.0467 170.287 78.94 170.62 78.94C170.953 78.94 171.227 79.0467 171.44 79.26C171.653 79.46 171.76 79.7267 171.76 80.06C171.76 80.3933 171.653 80.6667 171.44 80.88C171.227 81.0933 170.953 81.2 170.62 81.2Z" fill="#FF4D4D"/>
<path d="M142.472 105.952V107.152C142.472 108.709 142.115 109.936 141.4 110.832C140.685 111.717 139.661 112.16 138.328 112.16C136.984 112.16 135.955 111.717 135.24 110.832C134.536 109.936 134.184 108.709 134.184 107.152V105.952C134.184 104.405 134.536 103.189 135.24 102.304C135.955 101.408 136.984 100.96 138.328 100.96C139.661 100.96 140.685 101.408 141.4 102.304C142.115 103.189 142.472 104.405 142.472 105.952ZM140.952 105.152C140.952 103.819 140.728 102.875 140.28 102.32C139.843 101.755 139.192 101.472 138.328 101.472C137.464 101.472 136.808 101.755 136.36 102.32C135.923 102.875 135.704 103.819 135.704 105.152V107.952C135.704 109.285 135.923 110.235 136.36 110.8C136.808 111.365 137.464 111.648 138.328 111.648C139.192 111.648 139.843 111.365 140.28 110.8C140.728 110.235 140.952 109.285 140.952 107.952V105.152Z" fill="white"/>
<path d="M166.64 28.584V29H162.784V28.584L163.664 28.488C163.835 28.4667 163.936 28.424 163.968 28.36C164 28.296 164.016 28.0773 164.016 27.704V24.36L161.44 19.32C161.333 19.1067 161.248 18.9573 161.184 18.872C161.131 18.776 161.072 18.7173 161.008 18.696C160.955 18.664 160.869 18.6427 160.752 18.632L159.936 18.552V18.12H163.808V18.552L162.992 18.632C162.832 18.6533 162.747 18.696 162.736 18.76C162.736 18.824 162.811 19.0107 162.96 19.32L165.136 23.688L167.36 19.32C167.52 19.0107 167.595 18.824 167.584 18.76C167.573 18.696 167.488 18.6533 167.328 18.632L166.512 18.552V18.12H169.472V18.552L168.64 18.632C168.533 18.6427 168.448 18.664 168.384 18.696C168.331 18.7173 168.272 18.776 168.208 18.872C168.155 18.9573 168.075 19.1067 167.968 19.32L165.408 24.328V27.704C165.408 28.0773 165.424 28.296 165.456 28.36C165.488 28.424 165.589 28.4667 165.76 28.488L166.64 28.584Z" fill="white"/>
<path d="M150 47C173.599 47 194.915 52.7305 210.298 61.9424C225.701 71.1663 235 83.769 235 97.5C235 111.231 225.701 123.834 210.298 133.058C194.915 142.269 173.599 148 150 148C126.401 148 105.085 142.269 89.7021 133.058C74.2993 123.834 65 111.231 65 97.5C65 83.769 74.2993 71.1663 89.7021 61.9424C105.085 52.7305 126.401 47 150 47Z" stroke="#F8FF32" stroke-width="2"/>
<line x1="260.791" y1="67.7344" x2="53.7344" y2="17.2086" stroke="#8AF3FF" stroke-width="2" stroke-linecap="round"/>
<circle cx="185" cy="49" r="3" fill="#8AF3FF"/>
<circle cx="53" cy="16" r="3" fill="#8AF3FF"/>
<circle cx="64" cy="101" r="3" fill="#8AF3FF"/>
<path d="M9.136 24.52V23.928C9.136 22.5947 9.42933 21.3573 10.016 20.216C10.6133 19.0747 11.504 18.0027 12.688 17L13.056 17.384C12.1387 18.248 11.488 19.2453 11.104 20.376C10.7307 21.5067 10.544 22.6907 10.544 23.928V24.52C10.544 25.7467 10.7307 26.9307 11.104 28.072C11.488 29.2027 12.1387 30.2 13.056 31.064L12.688 31.448C11.504 30.4453 10.6133 29.3733 10.016 28.232C9.42933 27.08 9.136 25.8427 9.136 24.52ZM16.559 28.584V29H13.519V28.584L14.335 28.488C14.4523 28.4773 14.5377 28.4613 14.591 28.44C14.655 28.408 14.7243 28.3493 14.799 28.264C14.8737 28.168 14.9803 28.0133 15.119 27.8L16.959 25.144L15.183 22.28C15.055 22.0667 14.9537 21.9173 14.879 21.832C14.815 21.736 14.751 21.6773 14.687 21.656C14.6337 21.624 14.5537 21.6027 14.447 21.592L13.615 21.512V21.08H17.375V21.512L16.559 21.592C16.3883 21.6133 16.303 21.656 16.303 21.72C16.303 21.7733 16.4043 21.96 16.607 22.28L17.839 24.264L19.199 22.28C19.4123 21.9707 19.5137 21.784 19.503 21.72C19.503 21.656 19.423 21.6133 19.263 21.592L18.447 21.512V21.08H21.487V21.512L20.671 21.592C20.5643 21.6027 20.479 21.624 20.415 21.656C20.351 21.6773 20.2817 21.736 20.207 21.832C20.143 21.9173 20.0363 22.0667 19.887 22.28L18.159 24.776L20.031 27.8C20.159 28.0133 20.255 28.168 20.319 28.264C20.3937 28.3493 20.4577 28.408 20.511 28.44C20.575 28.4613 20.6603 28.4773 20.767 28.488L21.599 28.584V29H17.839V28.584L18.655 28.488C18.8257 28.4667 18.911 28.4293 18.911 28.376C18.911 28.3227 18.8097 28.1307 18.607 27.8L17.279 25.656L15.807 27.8C15.5937 28.12 15.487 28.312 15.487 28.376C15.4977 28.4293 15.583 28.4667 15.743 28.488L16.559 28.584ZM22.214 25.896L23.27 25.24H24.07V29.928C24.07 30.1093 24.0807 30.216 24.102 30.248C24.1233 30.28 24.1713 30.3013 24.246 30.312L24.694 30.36V30.68H22.358V30.36L22.966 30.312C23.0513 30.3013 23.0993 30.28 23.11 30.248C23.1313 30.216 23.142 30.1093 23.142 29.928V25.752L22.406 26.216L22.214 25.896ZM28.1471 28.472C28.1471 28.952 27.9871 29.512 27.6671 30.152C27.3578 30.792 26.9258 31.4373 26.3711 32.088L26.0191 31.8C26.4565 31.2667 26.7711 30.776 26.9631 30.328C27.1551 29.8907 27.2618 29.5013 27.2831 29.16H27.2671C27.0111 29.16 26.8031 29.08 26.6431 28.92C26.4831 28.76 26.4031 28.552 26.4031 28.296C26.4031 28.04 26.4831 27.832 26.6431 27.672C26.8031 27.512 27.0111 27.432 27.2671 27.432C27.5231 27.432 27.7311 27.5227 27.8911 27.704C28.0618 27.8747 28.1471 28.1307 28.1471 28.472ZM32.7456 29.8C32.511 30.4507 32.255 30.9787 31.9776 31.384C31.7003 31.8 31.3696 32.0987 30.9856 32.28C30.6016 32.472 30.1216 32.568 29.5456 32.568V31.288C30.3136 31.288 30.895 31.1653 31.2896 30.92C31.6843 30.6853 31.999 30.2427 32.2336 29.592L32.4416 29H31.9776L29.6256 22.28C29.519 21.9707 29.439 21.7893 29.3856 21.736C29.3323 21.672 29.2203 21.6293 29.0496 21.608L28.2336 21.512V21.08H31.8816V21.512L31.0656 21.608C30.9163 21.6187 30.831 21.656 30.8096 21.72C30.7883 21.784 30.831 21.9707 30.9376 22.28L32.8576 27.816L34.7936 22.264C34.8896 21.9547 34.927 21.7733 34.9056 21.72C34.895 21.6667 34.8096 21.6293 34.6496 21.608L33.8176 21.512V21.08H36.7456V21.512L35.9296 21.608C35.7696 21.6293 35.663 21.6667 35.6096 21.72C35.5563 21.7733 35.4763 21.9547 35.3696 22.264L32.7456 29.8ZM37.1828 25.896L38.2388 25.24H39.0388V29.928C39.0388 30.1093 39.0494 30.216 39.0707 30.248C39.0921 30.28 39.1401 30.3013 39.2148 30.312L39.6628 30.36V30.68H37.3268V30.36L37.9348 30.312C38.0201 30.3013 38.0681 30.28 38.0788 30.248C38.1001 30.216 38.1108 30.1093 38.1108 29.928V25.752L37.3748 26.216L37.1828 25.896ZM44.4119 23.928V24.52C44.4119 25.8427 44.1132 27.08 43.5159 28.232C42.9292 29.3733 42.0439 30.4453 40.8599 31.448L40.4919 31.064C41.4092 30.2 42.0545 29.2027 42.4279 28.072C42.8012 26.9307 42.9879 25.7467 42.9879 24.52V23.928C42.9879 22.6907 42.8012 21.5067 42.4279 20.376C42.0545 19.2453 41.4092 18.248 40.4919 17.384L40.8599 17C42.0439 18.0027 42.9292 19.0747 43.5159 20.216C44.1132 21.3573 44.4119 22.5947 44.4119 23.928Z" fill="#8AF3FF"/>
<line x1="184.471" y1="50.3115" x2="66.3115" y2="100.529" stroke="#FF4D4D" stroke-width="2" stroke-linecap="round"/>
</svg>
