<svg xmlns="http://www.w3.org/2000/svg" width="300" height="200" fill="none" viewBox="0 0 300 200"><path fill="#000" d="M0 0h300v200H0z"/><path fill="#fff" d="m261 97-5-2.887v5.774zM40 97v.5h216.5v-1H40z"/><path fill="#fff" d="m150 23-2.887 5h5.774zm0 149h.5V27.5h-1V172zm108.008-83.416V89h-2.976v-.416l.816-.096a1 1 0 0 0 .24-.048q.096-.032.192-.176.112-.144.304-.464l2.544-4.128-2.464-4.352a4 4 0 0 0-.272-.448q-.08-.144-.176-.176a.6.6 0 0 0-.24-.064l-.816-.08v-.432h3.888v.432l-.832.08q-.24.032-.256.128 0 .096.256.56l1.872 3.312 2.048-3.312q.288-.465.288-.56t-.256-.128l-.816-.08v-.432h2.976v.432l-.816.08a.7.7 0 0 0-.256.064q-.08.032-.176.176a10 10 0 0 0-.304.448l-2.384 3.856 2.624 4.624.256.464a.7.7 0 0 0 .176.176q.096.032.256.048l.832.096V89h-3.888v-.416l.832-.096q.256-.032.256-.112.016-.096-.256-.576l-2.048-3.6-2.208 3.6q-.288.464-.288.56t.256.128zm-91.368-60V29h-3.856v-.416l.88-.096q.256-.032.304-.128t.048-.656V24.36l-2.576-5.04a3 3 0 0 0-.256-.448q-.08-.144-.176-.176a.6.6 0 0 0-.256-.064l-.816-.08v-.432h3.872v.432l-.816.08q-.24.032-.256.128 0 .095.224.56l2.176 4.368 2.224-4.368q.24-.465.224-.56t-.256-.128l-.816-.08v-.432h2.96v.432l-.832.08a.7.7 0 0 0-.256.064q-.08.032-.176.176a6 6 0 0 0-.24.448l-2.56 5.008v3.376q0 .56.048.656t.304.128z"/><path stroke="#f8ff32" stroke-width="2" d="M150 47c23.599 0 44.915 5.73 60.298 14.942C225.701 71.166 235 83.77 235 97.5s-9.299 26.334-24.702 35.558C194.915 142.269 173.599 148 150 148s-44.915-5.731-60.298-14.942C74.3 123.834 65 111.231 65 97.5s9.3-26.334 24.702-35.558C105.085 52.731 126.401 47 150 47Z"/><circle cx="224" cy="50" r="3" fill="#ff4d4d"/><path fill="#ff4d4d" d="M226.768 31.552v-.432h4.544q1.584 0 2.416.8.832.784.832 2.096v.464q0 1.313-.832 2.112t-2.416.8h-1.92v3.312q0 .56.048.672.048.096.304.112l1.2.096V42h-4.176v-.416l.88-.096q.256-.032.304-.128t.048-.656v-8.288q0-.56-.048-.656t-.304-.128zm4.544.08h-1.92v5.248h1.92q1.776 0 1.776-2.176v-.912q0-2.16-1.776-2.16m5.824 25.888v-.592q0-2 .88-3.712.896-1.711 2.672-3.216l.368.384q-1.376 1.296-1.952 2.992a11.3 11.3 0 0 0-.56 3.552v.592q0 1.84.56 3.552.576 1.696 1.952 2.992l-.368.384q-1.776-1.505-2.672-3.216a8.06 8.06 0 0 1-.88-3.712m7.423 4.064V62h-3.04v-.416l.816-.096a1 1 0 0 0 .256-.048.7.7 0 0 0 .208-.176q.112-.144.32-.464l1.84-2.656-1.776-2.864a3.4 3.4 0 0 0-.304-.448q-.096-.144-.192-.176a.6.6 0 0 0-.24-.064l-.832-.08v-.432h3.76v.432l-.816.08q-.256.032-.256.128 0 .08.304.56l1.232 1.984 1.36-1.984q.32-.465.304-.56 0-.096-.24-.128l-.816-.08v-.432h3.04v.432l-.816.08a.7.7 0 0 0-.256.064.5.5 0 0 0-.208.176 19 19 0 0 0-.32.448l-1.728 2.496 1.872 3.024q.192.32.288.464a1 1 0 0 0 .192.176q.096.031.256.048l.832.096V62h-3.76v-.416l.816-.096q.256-.032.256-.112t-.304-.576l-1.328-2.144-1.472 2.144q-.32.48-.32.576.016.08.256.112zm5.655-2.688 1.056-.656h.8v4.688q0 .272.032.32.031.048.144.064l.448.048v.32h-2.336v-.32l.608-.048q.127-.015.144-.064.032-.048.032-.32v-4.176l-.736.464zm5.933 2.576q0 .72-.48 1.68-.463.96-1.296 1.936l-.352-.288q.656-.8.944-1.472.288-.656.32-1.168h-.016a.84.84 0 0 1-.624-.24.84.84 0 0 1-.24-.624q0-.384.24-.624t.624-.24.624.272q.256.256.256.768m4.599 1.328q-.352.976-.768 1.584-.417.624-.992.896-.576.288-1.44.288v-1.28q1.152 0 1.744-.368.591-.352.944-1.328l.208-.592h-.464l-2.352-6.72q-.16-.464-.24-.544-.081-.096-.336-.128l-.816-.096v-.432h3.648v.432l-.816.096q-.225.015-.256.112-.033.096.128.56l1.92 5.536 1.936-5.552q.144-.464.112-.544-.016-.08-.256-.112l-.832-.096v-.432h2.928v.432l-.816.096q-.24.032-.32.112t-.24.544zm4.437-3.904 1.056-.656h.8v4.688q0 .272.032.32.031.048.144.064l.448.048v.32h-2.336v-.32l.608-.048q.127-.015.144-.064.032-.048.032-.32v-4.176l-.736.464zm7.229-1.968v.592a7.95 7.95 0 0 1-.896 3.712q-.88 1.712-2.656 3.216l-.368-.384q1.376-1.296 1.936-2.992.56-1.712.56-3.552v-.592q0-1.856-.56-3.552t-1.936-2.992l.368-.384q1.776 1.505 2.656 3.216a7.9 7.9 0 0 1 .896 3.712"/></svg>