<svg width="300" height="200" viewBox="0 0 300 200" fill="none" xmlns="http://www.w3.org/2000/svg">
<rect width="300" height="200" fill="black"/>
<path d="M286 101L281 98.1133L281 103.887L286 101ZM13 101L13 101.5L281.5 101.5L281.5 101L281.5 100.5L13 100.5L13 101Z" fill="white"/>
<path d="M149 8L146.113 13L151.887 13L149 8ZM149 195L149.5 195L149.5 12.5L149 12.5L148.5 12.5L148.5 195L149 195Z" fill="white"/>
<path d="M281.008 123.584V124H278.032V123.584L278.848 123.488C278.955 123.477 279.035 123.461 279.088 123.44C279.152 123.419 279.216 123.36 279.28 123.264C279.355 123.168 279.456 123.013 279.584 122.8L282.128 118.672L279.664 114.32C279.547 114.107 279.456 113.957 279.392 113.872C279.339 113.776 279.28 113.717 279.216 113.696C279.163 113.664 279.083 113.643 278.976 113.632L278.16 113.552V113.12H282.048V113.552L281.216 113.632C281.056 113.653 280.971 113.696 280.96 113.76C280.96 113.824 281.045 114.011 281.216 114.32L283.088 117.632L285.136 114.32C285.328 114.011 285.424 113.824 285.424 113.76C285.424 113.696 285.339 113.653 285.168 113.632L284.352 113.552V113.12H287.328V113.552L286.512 113.632C286.405 113.643 286.32 113.664 286.256 113.696C286.203 113.717 286.144 113.776 286.08 113.872C286.016 113.957 285.915 114.107 285.776 114.32L283.392 118.176L286.016 122.8C286.133 123.013 286.219 123.168 286.272 123.264C286.336 123.349 286.395 123.408 286.448 123.44C286.512 123.461 286.597 123.477 286.704 123.488L287.536 123.584V124H283.648V123.584L284.48 123.488C284.651 123.467 284.736 123.429 284.736 123.376C284.747 123.312 284.661 123.12 284.48 122.8L282.432 119.2L280.224 122.8C280.032 123.109 279.936 123.296 279.936 123.36C279.936 123.424 280.021 123.467 280.192 123.488L281.008 123.584Z" fill="white"/>
<path d="M168.64 18.584V19H164.784V18.584L165.664 18.488C165.835 18.4667 165.936 18.424 165.968 18.36C166 18.296 166.016 18.0773 166.016 17.704V14.36L163.44 9.32C163.333 9.10667 163.248 8.95733 163.184 8.872C163.131 8.776 163.072 8.71733 163.008 8.696C162.955 8.664 162.869 8.64267 162.752 8.632L161.936 8.552V8.12H165.808V8.552L164.992 8.632C164.832 8.65333 164.747 8.696 164.736 8.76C164.736 8.824 164.811 9.01067 164.96 9.32L167.136 13.688L169.36 9.32C169.52 9.01067 169.595 8.824 169.584 8.76C169.573 8.696 169.488 8.65333 169.328 8.632L168.512 8.552V8.12H171.472V8.552L170.64 8.632C170.533 8.64267 170.448 8.664 170.384 8.696C170.331 8.71733 170.272 8.776 170.208 8.872C170.155 8.95733 170.075 9.10667 169.968 9.32L167.408 14.328V17.704C167.408 18.0773 167.424 18.296 167.456 18.36C167.488 18.424 167.589 18.4667 167.76 18.488L168.64 18.584Z" fill="white"/>
<path d="M149 32C181.437 32 210.754 39.8012 231.929 52.3623C253.125 64.9363 266 82.165 266 101C266 119.835 253.125 137.064 231.929 149.638C210.754 162.199 181.437 170 149 170C116.563 170 87.2457 162.199 66.0713 149.638C44.8752 137.064 32 119.835 32 101C32 82.165 44.8752 64.9363 66.0713 52.3623C87.2457 39.8012 116.563 32 149 32Z" stroke="#F8FF32" stroke-width="2"/>
<path d="M170.022 101C181.379 101 208.444 100.462 213.314 85.9231C216.305 76.9962 209.526 66 192.751 66C181.394 66 150 75.1538 150 94.5385" stroke="#8AF3FF" stroke-width="3" stroke-linecap="round"/>
<path d="M169.022 101C180.379 101 207.444 101.538 212.314 116.077C215.305 125.004 208.526 136 191.751 136C180.394 136 149 126.846 149 107.462" stroke="#8AF3FF" stroke-width="3" stroke-linecap="round"/>
<path d="M128.978 101C117.621 101 90.5561 100.462 85.6858 85.9231C82.6953 76.9962 89.4738 66 106.249 66C117.606 66 149 75.1538 149 94.5385" stroke="#8AF3FF" stroke-width="3" stroke-linecap="round"/>
<path d="M129.978 101C118.621 101 91.5561 101.538 86.6858 116.077C83.6953 125.004 90.4738 136 107.249 136C118.606 136 150 126.846 150 107.462" stroke="#8AF3FF" stroke-width="3" stroke-linecap="round"/>
<ellipse cx="150" cy="101.5" rx="4" ry="3.5" fill="#8AF3FF"/>
</svg>
