<svg xmlns="http://www.w3.org/2000/svg" width="300" height="200" fill="none" viewBox="0 0 300 200"><path fill="#000" d="M0 0h300v200H0z"/><path fill="#fff" d="m261 97-5-2.887v5.774zM40 97v.5h216.5v-1H40z"/><path fill="#fff" d="m150 23-2.887 5h5.774zm0 149h.5V27.5h-1V172zm108.008-83.416V89h-2.976v-.416l.816-.096a1 1 0 0 0 .24-.048q.096-.032.192-.176.112-.144.304-.464l2.544-4.128-2.464-4.352a4 4 0 0 0-.272-.448q-.08-.144-.176-.176a.6.6 0 0 0-.24-.064l-.816-.08v-.432h3.888v.432l-.832.08q-.24.032-.256.128 0 .096.256.56l1.872 3.312 2.048-3.312q.288-.465.288-.56t-.256-.128l-.816-.08v-.432h2.976v.432l-.816.08a.7.7 0 0 0-.256.064q-.08.032-.176.176a10 10 0 0 0-.304.448l-2.384 3.856 2.624 4.624.256.464a.7.7 0 0 0 .176.176q.096.032.256.048l.832.096V89h-3.888v-.416l.832-.096q.256-.032.256-.112.016-.096-.256-.576l-2.048-3.6-2.208 3.6q-.288.464-.288.56t.256.128zm-91.368-60V29h-3.856v-.416l.88-.096q.256-.032.304-.128t.048-.656V24.36l-2.576-5.04a3 3 0 0 0-.256-.448q-.08-.144-.176-.176a.6.6 0 0 0-.256-.064l-.816-.08v-.432h3.872v.432l-.816.08q-.24.032-.256.128 0 .095.224.56l2.176 4.368 2.224-4.368q.24-.465.224-.56t-.256-.128l-.816-.08v-.432h2.96v.432l-.832.08a.7.7 0 0 0-.256.064q-.08.032-.176.176a6 6 0 0 0-.24.448l-2.56 5.008v3.376q0 .56.048.656t.304.128z"/><path stroke="#f8ff32" stroke-width="2" d="M150 47c23.599 0 44.915 5.73 60.298 14.942C225.701 71.166 235 83.77 235 97.5s-9.299 26.334-24.702 35.558C194.915 142.269 173.599 148 150 148s-44.915-5.731-60.298-14.942C74.3 123.834 65 111.231 65 97.5s9.3-26.334 24.702-35.558C105.085 52.731 126.401 47 150 47Z"/><circle cx="192" cy="97" r="3" fill="#8af3ff"/><circle cx="113" cy="97" r="3" fill="#8af3ff"/><path fill="#8af3ff" d="M191.32 115.648q1.072 0 1.728-.528.672-.528.672-1.552 0-.816-.496-1.36-.497-.56-1.728-.896l-1.104-.32q-1.216-.336-1.856-1.136t-.64-1.952q0-.768.352-1.44.368-.672 1.104-1.088.752-.416 1.904-.416 1.28 0 2.064.48.784.464 1.088 1.216a2.84 2.84 0 0 1 .144 1.616l-1.344.288q.208-1.488-.304-2.288-.496-.8-1.728-.8-.976 0-1.536.528-.56.512-.56 1.504 0 .784.448 1.344.448.544 1.584.864l1.104.32q2.672.737 2.672 3.12 0 .848-.4 1.536-.384.672-1.184 1.072-.784.4-1.984.4a5 5 0 0 1-1.6-.256 2.97 2.97 0 0 1-1.296-.88q-.528-.624-.704-1.728l.96-.32q.08 1.056.464 1.632t.96.816a3.3 3.3 0 0 0 1.216.224m-81 0q1.073 0 1.728-.528.672-.528.672-1.552 0-.816-.496-1.36-.497-.56-1.728-.896l-1.104-.32q-1.216-.336-1.856-1.136t-.64-1.952q0-.768.352-1.44.368-.672 1.104-1.088.752-.416 1.904-.416 1.28 0 2.064.48.784.464 1.088 1.216a2.84 2.84 0 0 1 .144 1.616l-1.344.288q.208-1.488-.304-2.288-.496-.8-1.728-.8-.976 0-1.536.528-.56.512-.56 1.504 0 .784.448 1.344.448.544 1.584.864l1.104.32q2.672.737 2.672 3.12 0 .848-.4 1.536-.384.672-1.184 1.072-.784.4-1.984.4a5 5 0 0 1-1.6-.256 2.97 2.97 0 0 1-1.296-.88q-.528-.624-.704-1.728l.96-.32q.08 1.056.464 1.632t.96.816a3.3 3.3 0 0 0 1.216.224m4.91-2.752 1.056-.656h.8v4.688q0 .272.032.32.031.048.144.064l.448.048v.32h-2.336v-.32l.608-.048q.127-.016.144-.064.032-.048.032-.32v-4.176l-.736.464zM113 89l5 2.887v-5.774zm79 0-5-2.887v5.774zm-74.5 0v.5h70v-1h-70zm47.62-9.68h-.94v-.44q0-.9.26-1.44.28-.56.68-.96l.8-.84q.4-.44.66-1.06.28-.64.28-1.68 0-1.54-.56-2.3t-1.6-.76q-1.32 0-1.84 1-.52.98-.32 2.82l-1.64-.32q-.18-1.08.16-2.02.36-.94 1.28-1.52.92-.6 2.38-.6 1.42 0 2.3.5t1.28 1.3q.4.78.4 1.68 0 .92-.3 1.54-.28.6-.72 1.04-.44.42-.94.76-.48.34-.9.72-.4.36-.64.86-.22.5-.14 1.26zm-.5 3.88q-.5 0-.82-.32-.3-.32-.3-.82t.3-.8q.32-.32.82-.32t.82.32q.32.3.32.8t-.32.82-.82.32"/></svg>