<svg xmlns="http://www.w3.org/2000/svg" width="300" height="200" fill="none" viewBox="0 0 300 200"><path fill="#000" d="M0 0h300v200H0z"/><path stroke="#ff4d4d" stroke-linecap="round" stroke-width="2" d="m172.826 38.404-116.422 90.77"/><path fill="#fff" d="m276 100-5-2.887v5.774zm-252 0v.5h247.5v-1H24z"/><path fill="#fff" d="m150 14-2.887 5h5.774zm0 173h.5V18.5h-1V187zM272.008 122.584V123h-2.976v-.416l.816-.096a1 1 0 0 0 .24-.048q.096-.032.192-.176.112-.144.304-.464l2.544-4.128-2.464-4.352a4 4 0 0 0-.272-.448q-.08-.144-.176-.176a.6.6 0 0 0-.24-.064l-.816-.08v-.432h3.888v.432l-.832.08q-.24.032-.256.128 0 .096.256.56l1.872 3.312 2.048-3.312q.288-.464.288-.56t-.256-.128l-.816-.08v-.432h2.976v.432l-.816.08a.8.8 0 0 0-.256.064q-.08.032-.176.176a10 10 0 0 0-.304.448l-2.384 3.856 2.624 4.624.256.464a.7.7 0 0 0 .176.176q.096.032.256.048l.832.096V123h-3.888v-.416l.832-.096q.256-.032.256-.112.016-.096-.256-.576l-2.048-3.6-2.208 3.6q-.288.464-.288.56t.256.128zM165.64 18.584V19h-3.856v-.416l.88-.096q.256-.032.304-.128t.048-.656V14.36l-2.576-5.04a3 3 0 0 0-.256-.448q-.08-.144-.176-.176a.6.6 0 0 0-.256-.064l-.816-.08V8.12h3.872v.432l-.816.08q-.24.032-.256.128 0 .096.224.56l2.176 4.368 2.224-4.368q.24-.464.224-.56t-.256-.128l-.816-.08V8.12h2.96v.432l-.832.08a.7.7 0 0 0-.256.064q-.08.032-.176.176a6 6 0 0 0-.24.448l-2.56 5.008v3.376q0 .56.048.656t.304.128z"/><path stroke="#f8ff32" stroke-width="2" d="M150 36c29.95 0 57.017 7.241 76.562 18.897C246.129 66.564 258 82.543 258 100s-11.871 33.436-31.438 45.104C207.017 156.759 179.95 164 150 164s-57.017-7.241-76.562-18.896C53.87 133.436 42 117.457 42 100s11.871-33.436 31.438-45.103C92.983 43.24 120.05 36 150 36Z"/><path stroke="#8af3ff" stroke-linecap="round" stroke-width="2" d="M215.803 49.401 83.4 149.197M214.594 152.151 87.151 49.406"/><path fill="#8af3ff" d="M63.96 31.94v-.54h5.68q2.44 0 3.74 1.58t1.3 4.46v1.5q0 2.9-1.3 4.48T69.64 45h-5.68v-.52l1.1-.12q.32-.04.38-.16t.06-.82V33.02q0-.7-.06-.82t-.38-.16zm5.64.1h-2.36v12.32h2.36q1.08 0 1.78-.4t1.04-1.36q.36-.98.36-2.66v-3.5q0-1.66-.36-2.62-.34-.96-1.04-1.36-.7-.42-1.78-.42m7.144 9.08 1.32-.82h1v5.86q0 .34.04.4t.18.08l.56.06v.4h-2.92v-.4l.76-.06q.16-.02.18-.08.04-.06.04-.4v-5.22l-.92.58zM219.96 31.94v-.54h5.68q2.44 0 3.74 1.58t1.3 4.46v1.5q0 2.9-1.3 4.48T225.64 45h-5.68v-.52l1.1-.12q.32-.04.38-.16t.06-.82V33.02q0-.7-.06-.82t-.38-.16zm5.64.1h-2.36v12.32h2.36q1.08 0 1.78-.4t1.04-1.36q.36-.98.36-2.66v-3.5q0-1.66-.36-2.62-.34-.96-1.04-1.36-.7-.42-1.78-.42m11.084 13.08h.42v1.98h-4.34v-.54q0-.74.2-1.18t.58-.76q.4-.32.94-.64.52-.3.96-.68.44-.4.44-1.2 0-1.44-.98-1.44-1.16 0-.98 1.8l-1.18-.16a1.72 1.72 0 0 1 .4-1.46q.54-.64 1.76-.64t1.72.58q.52.58.52 1.34t-.4 1.2q-.4.42-.98.68-.58.24-1.12.52-1.14.58-1.26 1.7h2.6q.34 0 .42-.04.1-.04.12-.22z"/><path fill="#ff4d4d" d="M160.68 73.2q-2.54 0-3.88-1.7-1.32-1.7-1.32-4.56v-1.5q0-1.88.56-3.28.58-1.4 1.7-2.18t2.74-.78q1.5 0 2.48.6.98.58 1.42 1.54.44.94.28 2.06l-1.72.42q.22-1.92-.44-2.94-.66-1.04-2.02-1.04-1.52 0-2.32 1.08-.78 1.08-.78 3.52v3.5q0 2.46.84 3.54t2.5 1.08q.66 0 1.26-.22.6-.24 1.02-.8t.52-1.56l1.24.32q-.44 1.6-1.56 2.26-1.1.64-2.52.64M42.76 147.48v.52h-3.8v-.52l1.08-.12q.22-.02.32-.06a.5.5 0 0 0 .18-.24 4.5 4.5 0 0 0 .24-.68l3.86-11.98h1.26l3.9 11.98q.14.48.22.68.1.18.2.24.1.04.3.06l1.1.12v.52h-4.86v-.52l1.1-.12q.32-.04.34-.16.04-.14-.18-.82l-.82-2.56h-4.88l-.82 2.56q-.22.68-.2.82.04.12.36.16zm-.24-4.3H47l-2.24-6.96zM106.22 82.48V83h-4.82v-.52l1.1-.12q.32-.04.38-.16.06-.14.06-.82V70.54L98.78 81.4h-1.36l-4.18-10.86v10.84q0 .68.06.82.06.12.38.16l1.1.12V83h-3.82v-.52l1.1-.12q.32-.04.38-.16.06-.14.06-.82V71.02q0-.68-.06-.8-.06-.14-.38-.18l-1.1-.1v-.54h3.66l4.02 10.5 4.02-10.5h3.56v.54l-1.1.1q-.32.04-.38.18-.06.12-.06.8v10.36q0 .68.06.82.06.12.38.16zM173.96 17.94v-.54h5.44q1.96 0 2.94.92.98.9.98 2.32v.54q0 1.04-.62 1.78T180.96 24q1.4.24 2.18 1.06t.78 2.06v.54q0 1.46-1.02 2.4-1 .94-3 .94h-5.94v-.52l1.1-.12q.32-.04.38-.16t.06-.82V19.02q0-.7-.06-.82t-.38-.16zm5.44.1h-2.16v5.72h2.16q2.08 0 2.08-2.42v-.82q0-2.48-2.08-2.48m.5 6.36h-2.66v5.96h2.66q2.18 0 2.18-2.58v-.82q0-1.24-.56-1.9-.54-.66-1.62-.66"/><circle cx="55" cy="131" r="3" fill="#ff4d4d"/><circle cx="122" cy="78" r="3" fill="#ff4d4d"/><circle cx="173" cy="38" r="3" fill="#ff4d4d"/></svg>