<svg xmlns="http://www.w3.org/2000/svg" width="300" height="200" fill="none" viewBox="0 0 300 200"><path fill="#000" d="M0 0h300v200H0z"/><path stroke="#8af3ff" stroke-width="2" d="m153.882 25.529 43.717 81.925M71.876 60.517l25.849 46.925"/><path fill="#fff" d="m273 109-5-2.887v5.774zm-252 0v.5h247.5v-1H21z"/><path fill="#fff" d="m146 16-2.887 5h5.774zm0 173h.5V20.5h-1V189zM269.008 127.584V128h-2.976v-.416l.816-.096a1 1 0 0 0 .24-.048q.096-.032.192-.176.112-.144.304-.464l2.544-4.128-2.464-4.352a4 4 0 0 0-.272-.448q-.08-.144-.176-.176a.6.6 0 0 0-.24-.064l-.816-.08v-.432h3.888v.432l-.832.08q-.24.032-.256.128 0 .096.256.56l1.872 3.312 2.048-3.312q.288-.464.288-.56t-.256-.128l-.816-.08v-.432h2.976v.432l-.816.08a.8.8 0 0 0-.256.064q-.08.032-.176.176a10 10 0 0 0-.304.448l-2.384 3.856 2.624 4.624.256.464a.7.7 0 0 0 .176.176q.096.032.256.048l.832.096V128h-3.888v-.416l.832-.096q.256-.032.256-.112.016-.096-.256-.576l-2.048-3.6-2.208 3.6q-.288.464-.288.56t.256.128zM138.64 15.584V16h-3.856v-.416l.88-.096q.256-.032.304-.128t.048-.656V11.36l-2.576-5.04a3 3 0 0 0-.256-.448q-.08-.144-.176-.176a.6.6 0 0 0-.256-.064l-.816-.08V5.12h3.872v.432l-.816.08q-.24.032-.256.128 0 .096.224.56l2.176 4.368 2.224-4.368q.24-.464.224-.56t-.256-.128l-.816-.08V5.12h2.96v.432l-.832.08a.7.7 0 0 0-.256.064q-.08.032-.176.176a6 6 0 0 0-.24.448l-2.56 5.008v3.376q0 .56.048.656t.304.128z"/><path stroke="#f8ff32" stroke-width="2" d="M146 46c29.95 0 57.017 7.241 76.562 18.897C242.129 76.564 254 92.543 254 110s-11.871 33.436-31.438 45.104C203.017 166.759 175.95 174 146 174s-57.017-7.241-76.562-18.896C49.87 143.436 38 127.457 38 110s11.871-33.436 31.438-45.103C88.983 53.24 116.05 46 146 46Z"/><path stroke="#ff4d4d" stroke-linecap="round" stroke-width="2" d="M9.501 89.677 189.677 8.499"/><circle cx="197" cy="108" r="4" fill="#8af3ff"/><circle cx="97" cy="108" r="4" fill="#8af3ff"/><path fill="#8af3ff" d="M207.32 103.648q1.072 0 1.728-.528.672-.528.672-1.552 0-.816-.496-1.36-.497-.56-1.728-.896l-1.104-.32q-1.216-.336-1.856-1.136t-.64-1.952q0-.768.352-1.44.368-.672 1.104-1.088.752-.416 1.904-.416 1.28 0 2.064.48.784.465 1.088 1.216a2.84 2.84 0 0 1 .144 1.616l-1.344.288q.208-1.488-.304-2.288-.496-.8-1.728-.8-.976 0-1.536.528-.56.512-.56 1.504 0 .784.448 1.344.448.544 1.584.864l1.104.32q2.672.735 2.672 3.12 0 .848-.4 1.536-.384.672-1.184 1.072-.784.4-1.984.4a5 5 0 0 1-1.6-.256 2.97 2.97 0 0 1-1.296-.88q-.528-.624-.704-1.728l.96-.32q.08 1.056.464 1.632t.96.816a3.3 3.3 0 0 0 1.216.224M105.32 102.648q1.073 0 1.728-.528.672-.528.672-1.552 0-.816-.496-1.36-.497-.56-1.728-.896l-1.104-.32q-1.216-.336-1.856-1.136t-.64-1.952q0-.768.352-1.44.368-.672 1.104-1.088.752-.416 1.904-.416 1.28 0 2.064.48.784.465 1.088 1.216a2.84 2.84 0 0 1 .144 1.616l-1.344.288q.208-1.488-.304-2.288-.496-.8-1.728-.8-.976 0-1.536.528-.56.512-.56 1.504 0 .784.448 1.344.448.544 1.584.864l1.104.32q2.672.735 2.672 3.12 0 .848-.4 1.536-.384.672-1.184 1.072-.784.4-1.984.4a5 5 0 0 1-1.6-.256 2.97 2.97 0 0 1-1.296-.88q-.528-.624-.704-1.728l.96-.32q.08 1.056.464 1.632t.96.816a3.3 3.3 0 0 0 1.216.224m7.108-9.68q0 .624-.4 1.472a7.7 7.7 0 0 1-1.056 1.648l-.336-.304q.512-.656.736-1.168.223-.528.24-.976h-.032a.83.83 0 0 1-.592-.224.84.84 0 0 1-.24-.624q0-.368.24-.592.24-.24.592-.24.368 0 .608.256.24.255.24.752M74.976 57.584V58H71.12v-.416l.88-.096q.256-.032.304-.128.048-.112.048-.656v-8.672l-3.328 8.688h-1.088l-3.344-8.688v8.672q0 .544.048.656.048.096.304.128l.88.096V58h-3.056v-.416l.88-.096q.255-.032.304-.128.048-.112.048-.656v-8.288q0-.544-.048-.64-.048-.113-.304-.144l-.88-.08v-.432h2.928l3.216 8.4 3.216-8.4h2.848v.432l-.88.08q-.256.032-.304.144-.048.096-.048.64v8.288q0 .544.048.656.048.096.304.128zm3.718-9.616q0 .624-.4 1.472a7.7 7.7 0 0 1-1.056 1.648l-.336-.304q.511-.656.736-1.168.223-.528.24-.976h-.032a.84.84 0 0 1-.592-.224.84.84 0 0 1-.24-.624q0-.368.24-.592.24-.24.592-.24.368 0 .608.256.24.255.24.752M178.976 35.584V36h-3.856v-.416l.88-.096q.256-.032.304-.128.048-.112.048-.656v-8.672l-3.328 8.688h-1.088l-3.344-8.688v8.672q0 .544.048.656.048.096.304.128l.88.096V36h-3.056v-.416l.88-.096q.256-.032.304-.128.048-.112.048-.656v-8.288q0-.544-.048-.64-.048-.112-.304-.144l-.88-.08v-.432h2.928l3.216 8.4 3.216-8.4h2.848v.432l-.88.08q-.256.032-.304.144-.048.096-.048.64v8.288q0 .544.048.656.048.096.304.128z"/><path fill="#8af3ff" fill-opacity=".59" d="M201.152 129.112q-1.248 0-1.472-1.152-.56.64-1.232.928a3.5 3.5 0 0 1-1.328.272q-1.12 0-1.648-.624t-.528-1.504q0-.944.64-1.488.656-.56 2.256-.56h1.808v-1.296q0-1.28-.448-1.76-.432-.496-1.184-.496-.48 0-.864.192t-.56.704q-.16.496-.032 1.456l-1.264-.192q-.08-.752.192-1.344.288-.608.928-.96.656-.368 1.632-.368 1.168 0 1.792.4.624.384.864 1.008.256.624.256 1.36v3.6q0 .816.176 1.024.192.208.416.208a.8.8 0 0 0 .304-.064q.16-.08.352-.24l.288.4q-.24.208-.576.352a1.9 1.9 0 0 1-.768.144m-3.584-.624q.449 0 .96-.24.528-.257 1.12-1.008v-1.744h-1.632q-.896 0-1.312.368-.4.352-.4 1.104 0 .72.304 1.12.32.4.96.4M123.336 76.592v-.432h2.544v5.072q.464-.689 1.056-.992a2.65 2.65 0 0 1 1.28-.32q1.376 0 2.128 1.04.768 1.04.768 2.912v.32q0 1.824-.88 2.896-.864 1.072-2.432 1.072-1.248 0-2.048-.816a2 2 0 0 0-.416.32 7 7 0 0 0-.384.416h-.384V77.456q0-.56-.048-.656t-.304-.128zm4.672 3.904q-.496 0-1.04.32-.528.32-1.088 1.296v4.576q.688.945 1.824.944 1.04 0 1.504-.784.464-.8.464-2.176v-1.28q0-1.504-.432-2.192-.432-.704-1.232-.704"/><path fill="#8af3ff" fill-opacity=".51" d="m150 115 5 2.887v-5.774zm101 0-5-2.887v5.774zm-96.5 0v.5h92v-1h-92z"/><path fill="#8af3ff" fill-opacity=".57" d="m138 106 2.887-5h-5.774zm0-54-2.887 5h5.774zm0 49.5h.5v-45h-1v45z"/></svg>