<svg xmlns="http://www.w3.org/2000/svg" width="300" height="200" fill="none" viewBox="0 0 300 200"><path fill="#000" d="M0 0h300v200H0z"/><path stroke="#ff4d4d" stroke-linecap="round" stroke-width="2" d="m184.471 50.312-118.16 50.217"/><path stroke="#8af3ff" stroke-linecap="round" stroke-width="2" d="M76.866 186.155 52.155 17.134"/><path stroke="#8af3ff" stroke-dasharray="4 4" stroke-linecap="round" stroke-width="2" d="m2.636 33.737 98.101-32.373"/><path fill="#fff" d="m290 97-5-2.887v5.774zM11 97v.5h274.5v-1H11z"/><path fill="#fff" d="m150 23-2.887 5h5.774zm0 149h.5V27.5h-1V172zM244.008 90.584V91h-2.976v-.416l.816-.096a1 1 0 0 0 .24-.048q.096-.032.192-.176.112-.144.304-.464l2.544-4.128-2.464-4.352a4 4 0 0 0-.272-.448q-.08-.144-.176-.176a.6.6 0 0 0-.24-.064l-.816-.08v-.432h3.888v.432l-.832.08q-.24.032-.256.128 0 .096.256.56l1.872 3.312 2.048-3.312q.288-.465.288-.56t-.256-.128l-.816-.08v-.432h2.976v.432l-.816.08a.7.7 0 0 0-.256.064q-.08.032-.176.176a10 10 0 0 0-.304.448l-2.384 3.856 2.624 4.624.256.464a.7.7 0 0 0 .176.176q.096.032.256.048l.832.096V91h-3.888v-.416l.832-.096q.256-.032.256-.112.016-.096-.256-.576l-2.048-3.6-2.208 3.6q-.288.464-.288.56t.256.128z"/><path fill="#8af3ff" d="M97.768 61.552v-.432h4.544q1.584 0 2.416.8.832.784.832 2.096v.464q0 1.312-.832 2.112t-2.416.8h-1.92v3.312q0 .56.048.672.048.096.304.112l1.2.096V72h-4.176v-.416l.88-.096q.256-.032.304-.128t.048-.656v-8.288q0-.56-.048-.656t-.304-.128zm4.544.08h-1.92v5.248h1.92q1.776 0 1.776-2.176v-.912q0-2.16-1.776-2.16m11.546 6.24v.32q0 1.807-.912 2.896-.897 1.072-2.56 1.072-1.648 0-2.56-1.072-.897-1.087-.896-2.896v-.32q0-1.793.896-2.864.895-1.088 2.56-1.088 1.663 0 2.56 1.088.912 1.073.912 2.864m-1.44-.32q0-1.665-.528-2.384-.513-.736-1.504-.736-.976 0-1.504.736-.513.72-.512 2.384v.96q0 1.68.512 2.416.528.72 1.504.72.991 0 1.504-.72.528-.736.528-2.416zm2.874-6.96v-.432h2.544v10.544q0 .56.048.656t.304.128l.88.096V72h-3.776v-.416l.88-.096q.256-.032.304-.128t.048-.656v-9.248q0-.56-.048-.656t-.304-.128zm11.615 9.584q-.288 1.087-1.088 1.536a3.45 3.45 0 0 1-1.744.448q-1.776 0-2.656-1.072-.88-1.087-.88-2.896v-.32q0-1.793.848-2.864.849-1.088 2.464-1.088.864 0 1.568.352.72.352 1.136 1.04.432.689.432 1.712 0 .48-.096 1.008h-4.912v.48q0 1.68.512 2.416.529.72 1.696.72.736 0 1.216-.384.497-.384.656-1.328zm-3.056-5.744q-.943 0-1.408.72t-.464 2.368h3.6v-.048a5 5 0 0 0 .064-.768q0-1.2-.496-1.728-.495-.544-1.296-.544M11.768 36.552v-.432h4.544q1.584 0 2.416.8.832.784.832 2.096v.464q0 1.313-.832 2.112t-2.416.8h-1.92v3.312q0 .56.048.672.048.096.304.112l1.2.096V47h-4.176v-.416l.88-.096q.256-.032.304-.128t.048-.656v-8.288q0-.56-.048-.656t-.304-.128zm4.544.08h-1.92v5.248h1.92q1.776 0 1.776-2.176v-.912q0-2.16-1.776-2.16m11.546 6.24v.32q0 1.807-.913 2.896-.895 1.072-2.56 1.072-1.648 0-2.56-1.072-.895-1.087-.895-2.896v-.32q0-1.793.896-2.864.895-1.088 2.56-1.088 1.663 0 2.56 1.088.911 1.073.912 2.864m-1.44-.32q0-1.665-.528-2.384-.512-.736-1.505-.736-.975 0-1.504.736-.511.72-.512 2.384v.96q0 1.68.512 2.416.528.72 1.505.72.99 0 1.504-.72.527-.736.527-2.416zm2.874-6.96v-.432h2.544v10.544q0 .56.048.656t.304.128l.88.096V47h-3.776v-.416l.88-.096q.256-.032.304-.128t.048-.656v-9.248q0-.56-.048-.656-.049-.096-.304-.128zm11.391 11.52q-1.248 0-1.472-1.152-.56.64-1.232.928-.672.272-1.328.272-1.12 0-1.648-.624t-.528-1.504q0-.944.64-1.488.657-.56 2.256-.56h1.808v-1.296q0-1.28-.448-1.76-.431-.495-1.184-.496-.48 0-.864.192-.383.192-.56.704-.16.495-.032 1.456l-1.264-.192q-.08-.752.192-1.344.289-.607.928-.96.657-.368 1.632-.368 1.168 0 1.792.4.624.384.864 1.008.256.624.256 1.36v3.6q0 .816.176 1.024.192.208.416.208a.8.8 0 0 0 .304-.064 2 2 0 0 0 .352-.24l.288.4q-.24.208-.576.352-.32.144-.768.144m-3.584-.624q.448 0 .96-.24.529-.256 1.12-1.008v-1.744h-1.632q-.895 0-1.312.368-.4.353-.4 1.104 0 .72.304 1.12.321.4.96.4m5.633-6.976v-.432h2.464v1.28q.56-.752 1.12-1.088.576-.352 1.168-.352.511 0 .96.304t.752.976l-1.04.624q-.24-.576-.544-.8a1.1 1.1 0 0 0-.672-.224q-.4 0-.8.256-.384.255-.864.96v4.688q0 .56.048.672.048.096.304.112l1.2.096V47h-4.096v-.416l.88-.096q.256-.032.304-.128t.048-.656v-5.328q0-.56-.048-.656t-.304-.128z"/><path fill="#fff" d="M142.472 105.952v1.2q0 2.336-1.072 3.68-1.073 1.328-3.072 1.328-2.016 0-3.088-1.328-1.056-1.344-1.056-3.68v-1.2q0-2.32 1.056-3.648 1.072-1.344 3.088-1.344 2 0 3.072 1.344 1.072 1.328 1.072 3.648m-1.52-.8q0-2-.672-2.832-.656-.848-1.952-.848t-1.968.848q-.656.833-.656 2.832v2.8q0 2 .656 2.848.672.848 1.968.848t1.952-.848q.672-.848.672-2.848zM166.64 28.584V29h-3.856v-.416l.88-.096q.256-.032.304-.128t.048-.656V24.36l-2.576-5.04a3 3 0 0 0-.256-.448q-.08-.144-.176-.176a.6.6 0 0 0-.256-.064l-.816-.08v-.432h3.872v.432l-.816.08q-.24.032-.256.128 0 .095.224.56l2.176 4.368 2.224-4.368q.24-.465.224-.56t-.256-.128l-.816-.08v-.432h2.96v.432l-.832.08a.7.7 0 0 0-.256.064q-.08.032-.176.176a6 6 0 0 0-.24.448l-2.56 5.008v3.376q0 .56.048.656t.304.128z"/><path stroke="#f8ff32" stroke-width="2" d="M150 47c23.599 0 44.915 5.73 60.298 14.942C225.701 71.166 235 83.77 235 97.5s-9.299 26.334-24.702 35.558C194.915 142.269 173.599 148 150 148s-44.915-5.731-60.298-14.942C74.3 123.834 65 111.231 65 97.5s9.3-26.334 24.702-35.558C105.085 52.731 126.401 47 150 47Z"/><path stroke="#8af3ff" stroke-linecap="round" stroke-width="2" d="M260.791 67.734 53.734 17.209"/><circle cx="185" cy="49" r="3" fill="#8af3ff"/><circle cx="64" cy="101" r="3" fill="#8af3ff"/><path fill="#8af3ff" d="M113.136 87.52v-.592q0-2 .88-3.712.896-1.712 2.672-3.216l.368.384q-1.376 1.296-1.952 2.992a11.3 11.3 0 0 0-.56 3.552v.592q0 1.84.56 3.552.576 1.695 1.952 2.992l-.368.384q-1.776-1.504-2.672-3.216a8.06 8.06 0 0 1-.88-3.712m7.423 4.064V92h-3.04v-.416l.816-.096a1 1 0 0 0 .256-.048.7.7 0 0 0 .208-.176q.112-.144.32-.464l1.84-2.656-1.776-2.864a3.4 3.4 0 0 0-.304-.448q-.096-.144-.192-.176a.6.6 0 0 0-.24-.064l-.832-.08v-.432h3.76v.432l-.816.08q-.256.032-.256.128 0 .08.304.56l1.232 1.984 1.36-1.984q.32-.464.304-.56 0-.096-.24-.128l-.816-.08v-.432h3.04v.432l-.816.08a.7.7 0 0 0-.256.064.5.5 0 0 0-.208.176 19 19 0 0 0-.32.448l-1.728 2.496 1.872 3.024q.192.32.288.464a1 1 0 0 0 .192.176q.096.032.256.048l.832.096V92h-3.76v-.416l.816-.096q.256-.032.256-.112t-.304-.576l-1.328-2.144-1.472 2.144q-.32.48-.32.576.016.08.256.112zm5.655-2.688 1.056-.656h.8v4.688q0 .272.032.32.031.048.144.064l.448.048v.32h-2.336v-.32l.608-.048q.127-.016.144-.064.032-.048.032-.32v-4.176l-.736.464zm5.933 2.576q0 .72-.48 1.68-.464.96-1.296 1.936l-.352-.288q.656-.8.944-1.472.288-.656.32-1.168h-.016a.84.84 0 0 1-.624-.24.84.84 0 0 1-.24-.624q0-.384.24-.624t.624-.24.624.272q.256.256.256.768m4.599 1.328q-.352.976-.768 1.584-.416.624-.992.896-.576.288-1.44.288v-1.28q1.152 0 1.744-.368.591-.352.944-1.328l.208-.592h-.464l-2.352-6.72q-.16-.464-.24-.544-.081-.096-.336-.128l-.816-.096v-.432h3.648v.432l-.816.096q-.225.016-.256.112-.033.095.128.56l1.92 5.536 1.936-5.552q.144-.464.112-.544-.016-.08-.256-.112l-.832-.096v-.432h2.928v.432l-.816.096q-.24.032-.32.112t-.24.544zm4.437-3.904 1.056-.656h.8v4.688q0 .272.032.32.031.048.144.064l.448.048v.32h-2.336v-.32l.608-.048q.128-.016.144-.064.032-.048.032-.32v-4.176l-.736.464zm7.229-1.968v.592a7.95 7.95 0 0 1-.896 3.712q-.88 1.712-2.656 3.216l-.368-.384q1.376-1.296 1.936-2.992.56-1.712.56-3.552v-.592q0-1.856-.56-3.552t-1.936-2.992l.368-.384q1.776 1.505 2.656 3.216a7.9 7.9 0 0 1 .896 3.712"/><circle cx="128" cy="74" r="3" fill="#8af3ff"/></svg>