<svg xmlns="http://www.w3.org/2000/svg" width="300" height="200" fill="none" viewBox="0 0 300 200"><path fill="#000" d="M0 0h300v200H0z"/><path fill="#fff" d="m276 100-5-2.887v5.774zm-252 0v.5h247.5v-1H24z"/><path fill="#fff" d="m150 14-2.887 5h5.774zm0 173h.5V18.5h-1V187zM272.008 122.584V123h-2.976v-.416l.816-.096a1 1 0 0 0 .24-.048q.096-.032.192-.176.112-.144.304-.464l2.544-4.128-2.464-4.352a4 4 0 0 0-.272-.448q-.08-.144-.176-.176a.6.6 0 0 0-.24-.064l-.816-.08v-.432h3.888v.432l-.832.08q-.24.032-.256.128 0 .096.256.56l1.872 3.312 2.048-3.312q.288-.464.288-.56t-.256-.128l-.816-.08v-.432h2.976v.432l-.816.08a.8.8 0 0 0-.256.064q-.08.032-.176.176a10 10 0 0 0-.304.448l-2.384 3.856 2.624 4.624.256.464a.7.7 0 0 0 .176.176q.096.032.256.048l.832.096V123h-3.888v-.416l.832-.096q.256-.032.256-.112.016-.096-.256-.576l-2.048-3.6-2.208 3.6q-.288.464-.288.56t.256.128zM165.64 18.584V19h-3.856v-.416l.88-.096q.256-.032.304-.128t.048-.656V14.36l-2.576-5.04a3 3 0 0 0-.256-.448q-.08-.144-.176-.176a.6.6 0 0 0-.256-.064l-.816-.08V8.12h3.872v.432l-.816.08q-.24.032-.256.128 0 .096.224.56l2.176 4.368 2.224-4.368q.24-.464.224-.56t-.256-.128l-.816-.08V8.12h2.96v.432l-.832.08a.7.7 0 0 0-.256.064q-.08.032-.176.176a6 6 0 0 0-.24.448l-2.56 5.008v3.376q0 .56.048.656t.304.128z"/><path stroke="#f8ff32" stroke-width="2" d="M150 36c29.95 0 57.017 7.241 76.562 18.897C246.129 66.564 258 82.543 258 100s-11.871 33.436-31.438 45.104C207.017 156.759 179.95 164 150 164s-57.017-7.241-76.562-18.896C53.87 133.436 42 117.457 42 100s11.871-33.436 31.438-45.103C92.983 43.24 120.05 36 150 36Z"/><circle cx="88" cy="125" r="5" fill="#8af3ff"/><path fill="#8af3ff" d="M99.42 137.4v-.74q0-2.5 1.1-4.64 1.12-2.14 3.34-4.02l.46.48q-1.72 1.62-2.44 3.74a14 14 0 0 0-.7 4.44v.74q0 2.3.7 4.44.72 2.12 2.44 3.74l-.46.48q-2.22-1.88-3.34-4.02a10.1 10.1 0 0 1-1.1-4.64m9.279 5.08v.52h-3.8v-.52l1.02-.12q.22-.02.32-.06a.9.9 0 0 0 .26-.22q.14-.18.4-.58l2.3-3.32-2.22-3.58a4 4 0 0 0-.38-.56q-.12-.18-.24-.22a.7.7 0 0 0-.3-.08l-1.04-.1v-.54h4.7v.54l-1.02.1q-.32.04-.32.16 0 .1.38.7l1.54 2.48 1.7-2.48q.4-.58.38-.7 0-.12-.3-.16l-1.02-.1v-.54h3.8v.54l-1.02.1a.9.9 0 0 0-.32.08q-.12.04-.26.22-.12.16-.4.56l-2.16 3.12 2.34 3.78q.24.4.36.58.14.16.24.22.12.04.32.06l1.04.12v.52h-4.7v-.52l1.02-.12q.32-.04.32-.14t-.38-.72l-1.66-2.68-1.84 2.68q-.4.6-.4.72.02.1.32.14zm7.069-3.36 1.32-.82h1v5.86q0 .34.039.4.04.06.181.08l.56.06v.4h-2.92v-.4l.76-.06q.159-.02.18-.08.04-.06.04-.4v-5.22l-.92.58zm7.416 3.22q0 .9-.6 2.1-.58 1.2-1.62 2.42l-.44-.36q.82-1 1.18-1.84.36-.82.4-1.46h-.02q-.48 0-.78-.3t-.3-.78.3-.78.78-.3.78.34q.32.32.32.96m5.748 1.66q-.44 1.22-.96 1.98-.52.78-1.24 1.12-.72.36-1.8.36v-1.6q1.44 0 2.18-.46.74-.44 1.18-1.66l.26-.74h-.58l-2.94-8.4q-.2-.58-.3-.68-.1-.12-.42-.16l-1.02-.12v-.54h4.56v.54l-1.02.12q-.28.02-.32.14t.16.7l2.4 6.92 2.42-6.94q.18-.58.14-.68-.02-.1-.32-.14l-1.04-.12v-.54h3.66v.54l-1.02.12q-.3.04-.4.14t-.3.68zm5.546-4.88 1.32-.82h1v5.86q0 .34.04.4t.18.08l.56.06v.4h-2.92v-.4l.76-.06q.16-.02.18-.08.04-.06.04-.4v-5.22l-.92.58zm9.037-2.46v.74a9.9 9.9 0 0 1-1.12 4.64q-1.1 2.14-3.32 4.02l-.46-.48q1.72-1.62 2.42-3.74.7-2.14.7-4.44v-.74q0-2.32-.7-4.44t-2.42-3.74l.46-.48q2.22 1.88 3.32 4.02 1.12 2.14 1.12 4.64"/></svg>