<svg xmlns="http://www.w3.org/2000/svg" width="300" height="200" fill="none" viewBox="0 0 300 200"><path fill="#000" d="M0 0h300v200H0z"/><path fill="#fff" d="m290 97-5-2.887v5.774zM11 97v.5h274.5v-1H11z"/><path fill="#fff" d="m150 23-2.887 5h5.774zm0 149h.5V27.5h-1V172zM244.008 90.584V91h-2.976v-.416l.816-.096a1 1 0 0 0 .24-.048q.096-.032.192-.176.112-.144.304-.464l2.544-4.128-2.464-4.352a4 4 0 0 0-.272-.448q-.08-.144-.176-.176a.6.6 0 0 0-.24-.064l-.816-.08v-.432h3.888v.432l-.832.08q-.24.032-.256.128 0 .096.256.56l1.872 3.312 2.048-3.312q.288-.465.288-.56t-.256-.128l-.816-.08v-.432h2.976v.432l-.816.08a.7.7 0 0 0-.256.064q-.08.032-.176.176a10 10 0 0 0-.304.448l-2.384 3.856 2.624 4.624.256.464a.7.7 0 0 0 .176.176q.096.032.256.048l.832.096V91h-3.888v-.416l.832-.096q.256-.032.256-.112.016-.096-.256-.576l-2.048-3.6-2.208 3.6q-.288.464-.288.56t.256.128zM142.472 105.952v1.2q0 2.336-1.072 3.68-1.073 1.328-3.072 1.328-2.016 0-3.088-1.328-1.056-1.344-1.056-3.68v-1.2q0-2.32 1.056-3.648 1.072-1.344 3.088-1.344 2 0 3.072 1.344 1.072 1.328 1.072 3.648m-1.52-.8q0-2-.672-2.832-.656-.848-1.952-.848t-1.968.848q-.656.833-.656 2.832v2.8q0 2 .656 2.848.672.848 1.968.848t1.952-.848q.672-.848.672-2.848zM166.64 28.584V29h-3.856v-.416l.88-.096q.256-.032.304-.128t.048-.656V24.36l-2.576-5.04a3 3 0 0 0-.256-.448q-.08-.144-.176-.176a.6.6 0 0 0-.256-.064l-.816-.08v-.432h3.872v.432l-.816.08q-.24.032-.256.128 0 .095.224.56l2.176 4.368 2.224-4.368q.24-.465.224-.56t-.256-.128l-.816-.08v-.432h2.96v.432l-.832.08a.7.7 0 0 0-.256.064q-.08.032-.176.176a6 6 0 0 0-.24.448l-2.56 5.008v3.376q0 .56.048.656t.304.128z"/><path stroke="#f8ff32" stroke-width="2" d="M150 47c23.599 0 44.915 5.73 60.298 14.942C225.701 71.166 235 83.77 235 97.5s-9.299 26.334-24.702 35.558C194.915 142.269 173.599 148 150 148s-44.915-5.731-60.298-14.942C74.3 123.834 65 111.231 65 97.5s9.3-26.334 24.702-35.558C105.085 52.731 126.401 47 150 47Z"/><path stroke="#8af3ff" stroke-linecap="round" stroke-width="2" d="M99.883 50.409 62.409 82.117"/><path stroke="#ff4d4d" stroke-linecap="round" stroke-width="2" d="M141.591 139.873 36.873 14.409"/><circle cx="80.5" cy="66.5" r="4.5" fill="#ff4d4d"/><path fill="#ff4d4d" d="M29.136 63.52v-.592a8 8 0 0 1 .88-3.712q.896-1.711 2.672-3.216l.368.384q-1.376 1.296-1.952 2.992a11.3 11.3 0 0 0-.56 3.552v.592q0 1.84.56 3.552.576 1.695 1.952 2.992l-.368.384q-1.776-1.504-2.672-3.216a8.06 8.06 0 0 1-.88-3.712m7.423 4.064V68h-3.04v-.416l.816-.096a1 1 0 0 0 .256-.048.7.7 0 0 0 .208-.176q.112-.144.32-.464l1.84-2.656-1.776-2.864a3.4 3.4 0 0 0-.304-.448q-.096-.144-.192-.176a.6.6 0 0 0-.24-.064l-.832-.08v-.432h3.76v.432l-.816.08q-.255.032-.256.128 0 .08.304.56l1.232 1.984 1.36-1.984q.32-.465.304-.56 0-.096-.24-.128l-.816-.08v-.432h3.04v.432l-.816.08a.8.8 0 0 0-.256.064.5.5 0 0 0-.208.176q-.096.128-.32.448l-1.728 2.496 1.872 3.024q.192.32.288.464a.9.9 0 0 0 .192.176q.096.031.256.048l.832.096V68h-3.76v-.416l.816-.096q.255-.032.256-.112 0-.08-.304-.576l-1.328-2.144-1.472 2.144q-.32.48-.32.576.015.08.256.112zm5.655-2.688 1.056-.656h.8v4.688q0 .272.032.32t.144.064l.448.048v.32h-2.336v-.32l.608-.048q.128-.016.144-.064.032-.048.032-.32v-4.176l-.736.464zm5.933 2.576q0 .72-.48 1.68-.464.96-1.296 1.936l-.352-.288q.657-.8.944-1.472.288-.656.32-1.168h-.016a.84.84 0 0 1-.624-.24.84.84 0 0 1-.24-.624q0-.384.24-.624t.624-.24.624.272q.256.256.256.768m4.599 1.328q-.352.976-.768 1.584-.416.624-.992.896-.576.288-1.44.288v-1.28q1.152 0 1.744-.368.591-.352.944-1.328l.208-.592h-.464l-2.352-6.72q-.16-.464-.24-.544-.081-.096-.336-.128l-.816-.096v-.432h3.648v.432l-.816.096q-.225.015-.256.112-.033.096.128.56l1.92 5.536 1.936-5.552q.144-.464.112-.544-.016-.08-.256-.112l-.832-.096v-.432h2.928v.432l-.816.096q-.24.032-.32.112t-.24.544zm4.437-3.904 1.056-.656h.8v4.688q0 .272.032.32t.144.064l.448.048v.32h-2.336v-.32l.608-.048q.128-.016.144-.064.032-.048.032-.32v-4.176l-.736.464zm7.229-1.968v.592q0 1.984-.896 3.712-.88 1.712-2.656 3.216l-.368-.384q1.376-1.296 1.936-2.992.56-1.712.56-3.552v-.592q0-1.856-.56-3.552t-1.936-2.992L60.86 56q1.776 1.505 2.656 3.216a7.9 7.9 0 0 1 .896 3.712"/><path stroke="#fff" stroke-width="2" d="m88 74.5 9-7.5-6-8"/><path fill="#8af3ff" d="M196.152 115.112q-1.248 0-1.472-1.152-.56.64-1.232.928a3.5 3.5 0 0 1-1.328.272q-1.12 0-1.648-.624t-.528-1.504q0-.944.64-1.488.656-.56 2.256-.56h1.808v-1.296q0-1.28-.448-1.76-.432-.496-1.184-.496-.48 0-.864.192t-.56.704q-.16.496-.032 1.456l-1.264-.192q-.08-.752.192-1.344.288-.608.928-.96.656-.368 1.632-.368 1.168 0 1.792.4.624.384.864 1.008.256.624.256 1.36v3.6q0 .816.176 1.024.192.208.416.208a.8.8 0 0 0 .304-.064q.16-.08.352-.24l.288.4q-.24.208-.576.352a1.9 1.9 0 0 1-.768.144m-3.584-.624q.449 0 .96-.24.528-.257 1.12-1.008v-1.744h-1.632q-.896 0-1.312.368-.4.352-.4 1.104 0 .72.304 1.12.32.4.96.4M129.336 67.592v-.432h2.544v5.072q.464-.689 1.056-.992a2.65 2.65 0 0 1 1.28-.32q1.376 0 2.128 1.04.768 1.04.768 2.912v.32q0 1.824-.88 2.896-.864 1.072-2.432 1.072-1.248 0-2.048-.816a2 2 0 0 0-.416.32 7 7 0 0 0-.384.416h-.384V68.456q0-.56-.048-.656t-.304-.128zm4.672 3.904q-.496 0-1.04.32-.528.32-1.088 1.296v4.576q.689.945 1.824.944 1.04 0 1.504-.784.464-.8.464-2.176v-1.28q0-1.504-.432-2.192-.432-.704-1.232-.704M155 102l5 2.887v-5.774zm78 0-5-2.887v5.774zm-73.5 0v.5h69v-1h-69zM144 94l2.887-5h-5.774zm0-43-2.887 5h5.774zm0 38.5h.5v-34h-1v34z"/></svg>