<svg width="300" height="200" viewBox="0 0 300 200" fill="none" xmlns="http://www.w3.org/2000/svg">
<rect width="300" height="200" fill="black"/>
<path d="M290 97L285 94.1133L285 99.8868L290 97ZM11 97L11 97.5L285.5 97.5L285.5 97L285.5 96.5L11 96.5L11 97Z" fill="white"/>
<path d="M150 23L147.113 28L152.887 28L150 23ZM150 172L150.5 172L150.5 27.5L150 27.5L149.5 27.5L149.5 172L150 172Z" fill="white"/>
<path d="M244.008 90.584V91H241.032V90.584L241.848 90.488C241.955 90.4773 242.035 90.4613 242.088 90.44C242.152 90.4187 242.216 90.36 242.28 90.264C242.355 90.168 242.456 90.0133 242.584 89.8L245.128 85.672L242.664 81.32C242.547 81.1067 242.456 80.9573 242.392 80.872C242.339 80.776 242.28 80.7173 242.216 80.696C242.163 80.664 242.083 80.6427 241.976 80.632L241.16 80.552V80.12H245.048V80.552L244.216 80.632C244.056 80.6533 243.971 80.696 243.96 80.76C243.96 80.824 244.045 81.0107 244.216 81.32L246.088 84.632L248.136 81.32C248.328 81.0107 248.424 80.824 248.424 80.76C248.424 80.696 248.339 80.6533 248.168 80.632L247.352 80.552V80.12H250.328V80.552L249.512 80.632C249.405 80.6427 249.32 80.664 249.256 80.696C249.203 80.7173 249.144 80.776 249.08 80.872C249.016 80.9573 248.915 81.1067 248.776 81.32L246.392 85.176L249.016 89.8C249.133 90.0133 249.219 90.168 249.272 90.264C249.336 90.3493 249.395 90.408 249.448 90.44C249.512 90.4613 249.597 90.4773 249.704 90.488L250.536 90.584V91H246.648V90.584L247.48 90.488C247.651 90.4667 247.736 90.4293 247.736 90.376C247.747 90.312 247.661 90.12 247.48 89.8L245.432 86.2L243.224 89.8C243.032 90.1093 242.936 90.296 242.936 90.36C242.936 90.424 243.021 90.4667 243.192 90.488L244.008 90.584Z" fill="white"/>
<path d="M142.472 105.952V107.152C142.472 108.709 142.115 109.936 141.4 110.832C140.685 111.717 139.661 112.16 138.328 112.16C136.984 112.16 135.955 111.717 135.24 110.832C134.536 109.936 134.184 108.709 134.184 107.152V105.952C134.184 104.405 134.536 103.189 135.24 102.304C135.955 101.408 136.984 100.96 138.328 100.96C139.661 100.96 140.685 101.408 141.4 102.304C142.115 103.189 142.472 104.405 142.472 105.952ZM140.952 105.152C140.952 103.819 140.728 102.875 140.28 102.32C139.843 101.755 139.192 101.472 138.328 101.472C137.464 101.472 136.808 101.755 136.36 102.32C135.923 102.875 135.704 103.819 135.704 105.152V107.952C135.704 109.285 135.923 110.235 136.36 110.8C136.808 111.365 137.464 111.648 138.328 111.648C139.192 111.648 139.843 111.365 140.28 110.8C140.728 110.235 140.952 109.285 140.952 107.952V105.152Z" fill="white"/>
<path d="M112.344 82.584V83H108.568V82.584L109.448 82.488C109.619 82.4667 109.72 82.424 109.752 82.36C109.784 82.296 109.8 82.0773 109.8 81.704V77.72C109.8 76.9307 109.677 76.376 109.432 76.056C109.197 75.7253 108.851 75.56 108.392 75.56C108.061 75.56 107.688 75.6667 107.272 75.88C106.867 76.0933 106.477 76.504 106.104 77.112V81.704C106.104 82.0773 106.12 82.296 106.152 82.36C106.184 82.424 106.285 82.4667 106.456 82.488L107.336 82.584V83H103.56V82.584L104.44 82.488C104.611 82.4667 104.712 82.424 104.744 82.36C104.776 82.296 104.792 82.0773 104.792 81.704V76.376C104.792 76.0027 104.776 75.784 104.744 75.72C104.712 75.656 104.611 75.6133 104.44 75.592L103.56 75.512V75.08H106.024V76.376C106.397 75.8747 106.819 75.5067 107.288 75.272C107.768 75.0373 108.243 74.92 108.712 74.92C109.864 74.92 110.605 75.448 110.936 76.504C111.331 75.9493 111.768 75.5493 112.248 75.304C112.739 75.048 113.229 74.92 113.72 74.92C114.477 74.92 115.064 75.1653 115.48 75.656C115.907 76.136 116.12 76.8187 116.12 77.704V81.704C116.12 82.0773 116.136 82.296 116.168 82.36C116.2 82.424 116.301 82.4667 116.472 82.488L117.352 82.584V83H113.576V82.584L114.456 82.488C114.627 82.4667 114.728 82.424 114.76 82.36C114.792 82.296 114.808 82.0773 114.808 81.704V77.72C114.808 76.9307 114.685 76.376 114.44 76.056C114.205 75.7253 113.859 75.56 113.4 75.56C113.069 75.56 112.691 75.672 112.264 75.896C111.848 76.1093 111.453 76.5307 111.08 77.16C111.091 77.2453 111.096 77.336 111.096 77.432C111.107 77.5173 111.112 77.608 111.112 77.704V81.704C111.112 82.0773 111.128 82.296 111.16 82.36C111.192 82.424 111.293 82.4667 111.464 82.488L112.344 82.584Z" fill="#FF4D4D"/>
<path d="M250.344 139.584V140H246.568V139.584L247.448 139.488C247.619 139.467 247.72 139.424 247.752 139.36C247.784 139.296 247.8 139.077 247.8 138.704V134.72C247.8 133.931 247.677 133.376 247.432 133.056C247.197 132.725 246.851 132.56 246.392 132.56C246.061 132.56 245.688 132.667 245.272 132.88C244.867 133.093 244.477 133.504 244.104 134.112V138.704C244.104 139.077 244.12 139.296 244.152 139.36C244.184 139.424 244.285 139.467 244.456 139.488L245.336 139.584V140H241.56V139.584L242.44 139.488C242.611 139.467 242.712 139.424 242.744 139.36C242.776 139.296 242.792 139.077 242.792 138.704V133.376C242.792 133.003 242.776 132.784 242.744 132.72C242.712 132.656 242.611 132.613 242.44 132.592L241.56 132.512V132.08H244.024V133.376C244.397 132.875 244.819 132.507 245.288 132.272C245.768 132.037 246.243 131.92 246.712 131.92C247.864 131.92 248.605 132.448 248.936 133.504C249.331 132.949 249.768 132.549 250.248 132.304C250.739 132.048 251.229 131.92 251.72 131.92C252.477 131.92 253.064 132.165 253.48 132.656C253.907 133.136 254.12 133.819 254.12 134.704V138.704C254.12 139.077 254.136 139.296 254.168 139.36C254.2 139.424 254.301 139.467 254.472 139.488L255.352 139.584V140H251.576V139.584L252.456 139.488C252.627 139.467 252.728 139.424 252.76 139.36C252.792 139.296 252.808 139.077 252.808 138.704V134.72C252.808 133.931 252.685 133.376 252.44 133.056C252.205 132.725 251.859 132.56 251.4 132.56C251.069 132.56 250.691 132.672 250.264 132.896C249.848 133.109 249.453 133.531 249.08 134.16C249.091 134.245 249.096 134.336 249.096 134.432C249.107 134.517 249.112 134.608 249.112 134.704V138.704C249.112 139.077 249.128 139.296 249.16 139.36C249.192 139.424 249.293 139.467 249.464 139.488L250.344 139.584Z" fill="#FF4D4D"/>
<path d="M166.64 28.584V29H162.784V28.584L163.664 28.488C163.835 28.4667 163.936 28.424 163.968 28.36C164 28.296 164.016 28.0773 164.016 27.704V24.36L161.44 19.32C161.333 19.1067 161.248 18.9573 161.184 18.872C161.131 18.776 161.072 18.7173 161.008 18.696C160.955 18.664 160.869 18.6427 160.752 18.632L159.936 18.552V18.12H163.808V18.552L162.992 18.632C162.832 18.6533 162.747 18.696 162.736 18.76C162.736 18.824 162.811 19.0107 162.96 19.32L165.136 23.688L167.36 19.32C167.52 19.0107 167.595 18.824 167.584 18.76C167.573 18.696 167.488 18.6533 167.328 18.632L166.512 18.552V18.12H169.472V18.552L168.64 18.632C168.533 18.6427 168.448 18.664 168.384 18.696C168.331 18.7173 168.272 18.776 168.208 18.872C168.155 18.9573 168.075 19.1067 167.968 19.32L165.408 24.328V27.704C165.408 28.0773 165.424 28.296 165.456 28.36C165.488 28.424 165.589 28.4667 165.76 28.488L166.64 28.584Z" fill="white"/>
<path d="M150 47C173.599 47 194.915 52.7305 210.298 61.9424C225.701 71.1663 235 83.769 235 97.5C235 111.231 225.701 123.834 210.298 133.058C194.915 142.269 173.599 148 150 148C126.401 148 105.085 142.269 89.7021 133.058C74.2993 123.834 65 111.231 65 97.5C65 83.769 74.2993 71.1663 89.7021 61.9424C105.085 52.7305 126.401 47 150 47Z" stroke="#F8FF32" stroke-width="2"/>
<line x1="97.5879" y1="86.9226" x2="29.9223" y2="11.4121" stroke="#FF4D4D" stroke-width="2" stroke-linecap="round"/>
<line x1="267.588" y1="181.923" x2="199.922" y2="106.412" stroke="#FF4D4D" stroke-width="2" stroke-linecap="round"/>
<path d="M81.12 52.32H80.18V51.88C80.18 51.28 80.2667 50.8 80.44 50.44C80.6267 50.0667 80.8533 49.7467 81.12 49.48C81.3867 49.2 81.6533 48.92 81.92 48.64C82.1867 48.3467 82.4067 47.9933 82.58 47.58C82.7667 47.1533 82.86 46.5933 82.86 45.9C82.86 44.8733 82.6733 44.1067 82.3 43.6C81.9267 43.0933 81.3933 42.84 80.7 42.84C79.82 42.84 79.2067 43.1733 78.86 43.84C78.5133 44.4933 78.4067 45.4333 78.54 46.66L76.9 46.34C76.78 45.62 76.8333 44.9467 77.06 44.32C77.3 43.6933 77.7267 43.1867 78.34 42.8C78.9533 42.4 79.7467 42.2 80.72 42.2C81.6667 42.2 82.4333 42.3667 83.02 42.7C83.6067 43.0333 84.0333 43.4667 84.3 44C84.5667 44.52 84.7 45.08 84.7 45.68C84.7 46.2933 84.6 46.8067 84.4 47.22C84.2133 47.62 83.9733 47.9667 83.68 48.26C83.3867 48.54 83.0733 48.7933 82.74 49.02C82.42 49.2467 82.12 49.4867 81.84 49.74C81.5733 49.98 81.36 50.2667 81.2 50.6C81.0533 50.9333 81.0067 51.3533 81.06 51.86L81.12 52.32ZM80.62 56.2C80.2867 56.2 80.0133 56.0933 79.8 55.88C79.6 55.6667 79.5 55.3933 79.5 55.06C79.5 54.7267 79.6 54.46 79.8 54.26C80.0133 54.0467 80.2867 53.94 80.62 53.94C80.9533 53.94 81.2267 54.0467 81.44 54.26C81.6533 54.46 81.76 54.7267 81.76 55.06C81.76 55.3933 81.6533 55.6667 81.44 55.88C81.2267 56.0933 80.9533 56.2 80.62 56.2Z" fill="#FF4D4D"/>
<path d="M197.12 130.32H196.18V129.88C196.18 129.28 196.267 128.8 196.44 128.44C196.627 128.067 196.853 127.747 197.12 127.48C197.387 127.2 197.653 126.92 197.92 126.64C198.187 126.347 198.407 125.993 198.58 125.58C198.767 125.153 198.86 124.593 198.86 123.9C198.86 122.873 198.673 122.107 198.3 121.6C197.927 121.093 197.393 120.84 196.7 120.84C195.82 120.84 195.207 121.173 194.86 121.84C194.513 122.493 194.407 123.433 194.54 124.66L192.9 124.34C192.78 123.62 192.833 122.947 193.06 122.32C193.3 121.693 193.727 121.187 194.34 120.8C194.953 120.4 195.747 120.2 196.72 120.2C197.667 120.2 198.433 120.367 199.02 120.7C199.607 121.033 200.033 121.467 200.3 122C200.567 122.52 200.7 123.08 200.7 123.68C200.7 124.293 200.6 124.807 200.4 125.22C200.213 125.62 199.973 125.967 199.68 126.26C199.387 126.54 199.073 126.793 198.74 127.02C198.42 127.247 198.12 127.487 197.84 127.74C197.573 127.98 197.36 128.267 197.2 128.6C197.053 128.933 197.007 129.353 197.06 129.86L197.12 130.32ZM196.62 134.2C196.287 134.2 196.013 134.093 195.8 133.88C195.6 133.667 195.5 133.393 195.5 133.06C195.5 132.727 195.6 132.46 195.8 132.26C196.013 132.047 196.287 131.94 196.62 131.94C196.953 131.94 197.227 132.047 197.44 132.26C197.653 132.46 197.76 132.727 197.76 133.06C197.76 133.393 197.653 133.667 197.44 133.88C197.227 134.093 196.953 134.2 196.62 134.2Z" fill="#FF4D4D"/>
<circle cx="219.5" cy="128.5" r="4.5" fill="#FF4D4D"/>
<circle cx="80.5" cy="66.5" r="4.5" fill="#FF4D4D"/>
</svg>
