<svg xmlns="http://www.w3.org/2000/svg" width="300" height="200" fill="none" viewBox="0 0 300 200"><path fill="#000" d="M0 0h300v200H0z"/><path fill="#fff" d="m276 100-5-2.887v5.774zm-252 0v.5h247.5v-1H24z"/><path fill="#fff" d="m150 14-2.887 5h5.774zm0 173h.5V18.5h-1V187zM272.008 122.584V123h-2.976v-.416l.816-.096a1 1 0 0 0 .24-.048q.096-.032.192-.176.112-.144.304-.464l2.544-4.128-2.464-4.352a4 4 0 0 0-.272-.448q-.08-.144-.176-.176a.6.6 0 0 0-.24-.064l-.816-.08v-.432h3.888v.432l-.832.08q-.24.032-.256.128 0 .096.256.56l1.872 3.312 2.048-3.312q.288-.464.288-.56t-.256-.128l-.816-.08v-.432h2.976v.432l-.816.08a.8.8 0 0 0-.256.064q-.08.032-.176.176a10 10 0 0 0-.304.448l-2.384 3.856 2.624 4.624.256.464a.7.7 0 0 0 .176.176q.096.032.256.048l.832.096V123h-3.888v-.416l.832-.096q.256-.032.256-.112.016-.096-.256-.576l-2.048-3.6-2.208 3.6q-.288.464-.288.56t.256.128zM165.64 18.584V19h-3.856v-.416l.88-.096q.256-.032.304-.128t.048-.656V14.36l-2.576-5.04a3 3 0 0 0-.256-.448q-.08-.144-.176-.176a.6.6 0 0 0-.256-.064l-.816-.08V8.12h3.872v.432l-.816.08q-.24.032-.256.128 0 .096.224.56l2.176 4.368 2.224-4.368q.24-.464.224-.56t-.256-.128l-.816-.08V8.12h2.96v.432l-.832.08a.7.7 0 0 0-.256.064q-.08.032-.176.176a6 6 0 0 0-.24.448l-2.56 5.008v3.376q0 .56.048.656t.304.128z"/><path stroke="#f8ff32" stroke-width="2" d="M150 36c29.95 0 57.017 7.241 76.562 18.897C246.129 66.564 258 82.543 258 100s-11.871 33.436-31.438 45.104C207.017 156.759 179.95 164 150 164s-57.017-7.241-76.562-18.896C53.87 133.436 42 117.457 42 100s11.871-33.436 31.438-45.103C92.983 43.24 120.05 36 150 36Z"/><path stroke="#ff4d4d" stroke-linecap="round" stroke-width="2" d="m216.346 49.371-41.975 70.283M174.355 120.406l20.051 37.239M172.906 121.411l-46.495 40.683M171.679 119.494l-36.185-81.173"/><circle cx="216" cy="50" r="3" fill="#8af3ff"/><path fill="#8af3ff" d="M217.136 38.52v-.592q0-2 .88-3.712.896-1.711 2.672-3.216l.368.384q-1.376 1.296-1.952 2.992a11.3 11.3 0 0 0-.56 3.552v.592q0 1.84.56 3.552.576 1.696 1.952 2.992l-.368.384q-1.776-1.505-2.672-3.216a8.06 8.06 0 0 1-.88-3.712m7.423 4.064V43h-3.04v-.416l.816-.096a1 1 0 0 0 .256-.048.7.7 0 0 0 .208-.176q.112-.144.32-.464l1.84-2.656-1.776-2.864a3.4 3.4 0 0 0-.304-.448q-.096-.144-.192-.176a.6.6 0 0 0-.24-.064l-.832-.08v-.432h3.76v.432l-.816.08q-.256.032-.256.128 0 .08.304.56l1.232 1.984 1.36-1.984q.32-.465.304-.56 0-.096-.24-.128l-.816-.08v-.432h3.04v.432l-.816.08a.7.7 0 0 0-.256.064.5.5 0 0 0-.208.176 19 19 0 0 0-.32.448l-1.728 2.496 1.872 3.024q.192.32.288.464a1 1 0 0 0 .192.176q.096.031.256.048l.832.096V43h-3.76v-.416l.816-.096q.256-.032.256-.112t-.304-.576l-1.328-2.144-1.472 2.144q-.32.48-.32.576.016.08.256.112zm5.655-2.688 1.056-.656h.8v4.688q0 .272.032.32.031.048.144.064l.448.048v.32h-2.336v-.32l.608-.048q.127-.015.144-.064.032-.048.032-.32v-4.176l-.736.464zm5.933 2.576q0 .72-.48 1.68-.463.96-1.296 1.936l-.352-.288q.656-.8.944-1.472.288-.656.32-1.168h-.016a.84.84 0 0 1-.624-.24.84.84 0 0 1-.24-.624q0-.384.24-.624t.624-.24.624.272q.256.256.256.768m4.599 1.328q-.352.976-.768 1.584-.416.624-.992.896-.576.288-1.44.288v-1.28q1.152 0 1.744-.368.591-.352.944-1.328l.208-.592h-.464l-2.352-6.72q-.16-.464-.24-.544-.081-.096-.336-.128l-.816-.096v-.432h3.648v.432l-.816.096q-.225.015-.256.112-.033.096.128.56l1.92 5.536 1.936-5.552q.144-.464.112-.544-.016-.08-.256-.112l-.832-.096v-.432h2.928v.432l-.816.096q-.24.032-.32.112t-.24.544zm4.437-3.904 1.056-.656h.8v4.688q0 .272.032.32.031.048.144.064l.448.048v.32h-2.336v-.32l.608-.048q.128-.015.144-.064.032-.048.032-.32v-4.176l-.736.464zm7.229-1.968v.592a7.95 7.95 0 0 1-.896 3.712q-.88 1.712-2.656 3.216l-.368-.384q1.376-1.296 1.936-2.992.56-1.712.56-3.552v-.592q0-1.856-.56-3.552t-1.936-2.992l.368-.384q1.776 1.505 2.656 3.216a7.9 7.9 0 0 1 .896 3.712"/><circle cx="136" cy="37" r="3" fill="#8af3ff"/><path fill="#8af3ff" d="M107.136 22.52v-.592q0-2 .88-3.712.896-1.712 2.672-3.216l.368.384q-1.376 1.296-1.952 2.992a11.3 11.3 0 0 0-.56 3.552v.592q0 1.84.56 3.552.576 1.695 1.952 2.992l-.368.384q-1.776-1.505-2.672-3.216a8.06 8.06 0 0 1-.88-3.712m7.423 4.064V27h-3.04v-.416l.816-.096a1 1 0 0 0 .256-.048.7.7 0 0 0 .208-.176q.112-.143.32-.464l1.84-2.656-1.776-2.864a3.4 3.4 0 0 0-.304-.448q-.096-.144-.192-.176a.6.6 0 0 0-.24-.064l-.832-.08v-.432h3.76v.432l-.816.08q-.256.032-.256.128 0 .08.304.56l1.232 1.984 1.36-1.984q.32-.464.304-.56 0-.096-.24-.128l-.816-.08v-.432h3.04v.432l-.816.08a.7.7 0 0 0-.256.064.5.5 0 0 0-.208.176 19 19 0 0 0-.32.448l-1.728 2.496 1.872 3.024q.192.32.288.464a1 1 0 0 0 .192.176q.096.032.256.048l.832.096V27h-3.76v-.416l.816-.096q.256-.032.256-.112t-.304-.576l-1.328-2.144-1.472 2.144q-.32.48-.32.576.016.08.256.112zm7.047-.528h-.288v-.336h.288q.608 0 .848-.32.256-.336.256-.848 0-1.056-.8-1.056-.944 0-.8 1.44l-.944-.128a1.33 1.33 0 0 1 .304-1.136q.432-.512 1.44-.512.977 0 1.392.416.416.416.416.976 0 1.024-1.088 1.328 1.184.32 1.184 1.44 0 .576-.448 1.008t-1.44.432q-.608 0-1.088-.256-.48-.24-.672-.912l.528-.16q.08.576.416.784.352.208.736.208.944 0 .944-1.104 0-.56-.272-.912-.256-.352-.912-.352m5.744.416q0 .72-.48 1.68-.464.96-1.296 1.936l-.352-.288q.657-.8.944-1.472.288-.656.32-1.168h-.016a.84.84 0 0 1-.624-.24.84.84 0 0 1-.24-.624q0-.384.24-.624t.624-.24.624.272q.256.256.256.768m4.599 1.328q-.353.976-.768 1.584-.417.624-.992.896-.576.288-1.44.288v-1.28q1.152 0 1.744-.368.591-.352.944-1.328l.208-.592h-.464l-2.352-6.72q-.16-.464-.24-.544-.081-.096-.336-.128l-.816-.096v-.432h3.648v.432l-.816.096q-.225.015-.256.112-.033.096.128.56l1.92 5.536 1.936-5.552q.144-.464.112-.544-.016-.08-.256-.112l-.832-.096v-.432h2.928v.432l-.816.096q-.24.032-.32.112t-.24.544zm5.829-1.744h-.288v-.336h.288q.608 0 .848-.32.256-.336.256-.848 0-1.056-.8-1.056-.944 0-.8 1.44l-.944-.128a1.33 1.33 0 0 1 .304-1.136q.432-.512 1.44-.512.977 0 1.392.416.416.416.416.976 0 1.024-1.088 1.328 1.184.32 1.184 1.44 0 .576-.448 1.008-.449.432-1.44.432-.608 0-1.088-.256-.48-.24-.672-.912l.528-.16q.08.576.416.784.352.208.736.208.944 0 .944-1.104 0-.56-.272-.912-.257-.352-.912-.352m7.04-4.128v.592a7.95 7.95 0 0 1-.896 3.712q-.88 1.712-2.656 3.216l-.368-.384q1.376-1.296 1.936-2.992.56-1.712.56-3.552v-.592q0-1.855-.56-3.552-.56-1.695-1.936-2.992l.368-.384q1.776 1.505 2.656 3.216a7.9 7.9 0 0 1 .896 3.712"/><circle cx="196" cy="159" r="3" fill="#8af3ff"/><circle cx="173" cy="120" r="3" fill="#8af3ff"/><path fill="#8af3ff" d="M203.136 173.52v-.592q0-2 .88-3.712.896-1.712 2.672-3.216l.368.384q-1.376 1.296-1.952 2.992a11.3 11.3 0 0 0-.56 3.552v.592q0 1.84.56 3.552.576 1.696 1.952 2.992l-.368.384q-1.776-1.504-2.672-3.216a8.06 8.06 0 0 1-.88-3.712m7.423 4.064V178h-3.04v-.416l.816-.096q.176-.016.256-.048a.7.7 0 0 0 .208-.176 8 8 0 0 0 .32-.464l1.84-2.656-1.776-2.864a3.4 3.4 0 0 0-.304-.448q-.096-.144-.192-.176a.6.6 0 0 0-.24-.064l-.832-.08v-.432h3.76v.432l-.816.08q-.256.032-.256.128 0 .08.304.56l1.232 1.984 1.36-1.984q.32-.464.304-.56 0-.096-.24-.128l-.816-.08v-.432h3.04v.432l-.816.08a.8.8 0 0 0-.256.064.5.5 0 0 0-.208.176 19 19 0 0 0-.32.448l-1.728 2.496 1.872 3.024q.192.32.288.464a1 1 0 0 0 .192.176q.096.031.256.048l.832.096V178h-3.76v-.416l.816-.096q.256-.032.256-.112t-.304-.576l-1.328-2.144-1.472 2.144q-.32.48-.32.576.016.08.256.112zm8.807.512h.336v1.584h-3.472v-.432q0-.592.16-.944t.464-.608q.32-.256.752-.512.415-.24.768-.544.352-.32.352-.96 0-1.152-.784-1.152-.928 0-.784 1.44l-.944-.128a1.37 1.37 0 0 1 .32-1.168q.432-.512 1.408-.512t1.376.464q.416.464.416 1.072 0 .607-.32.96a2.5 2.5 0 0 1-.784.544q-.464.192-.896.416-.912.464-1.008 1.36h2.08q.271 0 .336-.032.08-.032.096-.176zm3.969-.624q0 .72-.48 1.68-.465.96-1.296 1.936l-.352-.288q.656-.8.944-1.472.287-.656.32-1.168h-.016a.84.84 0 0 1-.624-.24.84.84 0 0 1-.24-.624q0-.384.24-.624t.624-.24.624.272q.255.257.256.768m4.598 1.328q-.353.976-.768 1.584-.416.624-.992.896-.576.288-1.44.288v-1.28q1.152 0 1.744-.368.592-.352.944-1.328l.208-.592h-.464l-2.352-6.72q-.16-.464-.24-.544-.08-.096-.336-.128l-.816-.096v-.432h3.648v.432l-.816.096q-.224.016-.256.112t.128.56l1.92 5.536 1.936-5.552q.144-.464.112-.544-.016-.08-.256-.112l-.832-.096v-.432h2.928v.432l-.816.096q-.24.032-.32.112t-.24.544zm7.589-.704h.336v1.584h-3.472v-.432q0-.592.16-.944t.464-.608q.32-.256.752-.512a5 5 0 0 0 .768-.544q.352-.32.352-.96 0-1.152-.784-1.152-.928 0-.784 1.44l-.944-.128a1.38 1.38 0 0 1 .32-1.168q.433-.512 1.408-.512.977 0 1.376.464.416.464.416 1.072 0 .607-.32.96a2.5 2.5 0 0 1-.784.544q-.464.192-.896.416-.912.464-1.008 1.36h2.08q.273 0 .336-.032.081-.032.096-.176zm5.265-5.168v.592a7.95 7.95 0 0 1-.896 3.712q-.88 1.712-2.656 3.216l-.368-.384q1.376-1.296 1.936-2.992.56-1.712.56-3.552v-.592q0-1.856-.56-3.552t-1.936-2.992l.368-.384q1.776 1.504 2.656 3.216a7.9 7.9 0 0 1 .896 3.712"/><circle cx="126" cy="163" r="3" fill="#8af3ff"/><path fill="#8af3ff" d="M102.136 177.52v-.592q0-2 .88-3.712.896-1.712 2.672-3.216l.368.384q-1.376 1.296-1.952 2.992a11.3 11.3 0 0 0-.56 3.552v.592q0 1.84.56 3.552.576 1.696 1.952 2.992l-.368.384q-1.776-1.504-2.672-3.216a8.06 8.06 0 0 1-.88-3.712m7.423 4.064V182h-3.04v-.416l.816-.096q.176-.016.256-.048a.7.7 0 0 0 .208-.176 8 8 0 0 0 .32-.464l1.84-2.656-1.776-2.864a3.4 3.4 0 0 0-.304-.448q-.096-.144-.192-.176a.6.6 0 0 0-.24-.064l-.832-.08v-.432h3.76v.432l-.816.08q-.256.032-.256.128 0 .08.304.56l1.232 1.984 1.36-1.984q.32-.464.304-.56 0-.096-.24-.128l-.816-.08v-.432h3.04v.432l-.816.08a.8.8 0 0 0-.256.064.5.5 0 0 0-.208.176 19 19 0 0 0-.32.448l-1.728 2.496 1.872 3.024q.192.32.288.464a1 1 0 0 0 .192.176q.096.031.256.048l.832.096V182h-3.76v-.416l.816-.096q.256-.032.256-.112t-.304-.576l-1.328-2.144-1.472 2.144q-.32.48-.32.576.016.08.256.112zm7.639 1.36v-.624h-2.368v-.336q.544-.592.896-1.12.368-.544.608-1.168.24-.64.384-1.456h1.088a5 5 0 0 1-.992 2 33 33 0 0 1-1.568 1.744h1.952v-1.232l.928-.096v1.328h.624v.336h-.624v.624q0 .272.032.32t.144.08l.448.048v.288h-2.24v-.288l.512-.048q.128-.016.144-.08.032-.048.032-.32m4.73-1.472q0 .72-.48 1.68-.463.96-1.296 1.936l-.352-.288q.656-.8.944-1.472.288-.656.32-1.168h-.016a.84.84 0 0 1-.624-.24.84.84 0 0 1-.24-.624q0-.384.24-.624t.624-.24.624.272q.256.257.256.768m4.599 1.328q-.353.976-.768 1.584-.416.624-.992.896-.576.288-1.44.288v-1.28q1.152 0 1.744-.368.592-.352.944-1.328l.208-.592h-.464l-2.352-6.72q-.16-.464-.24-.544-.08-.096-.336-.128l-.816-.096v-.432h3.648v.432l-.816.096q-.224.016-.256.112t.128.56l1.92 5.536 1.936-5.552q.144-.464.112-.544-.016-.08-.256-.112l-.832-.096v-.432h2.928v.432l-.816.096q-.24.032-.32.112t-.24.544zm6.421.144v-.624h-2.368v-.336q.544-.592.896-1.12.368-.544.608-1.168.24-.64.384-1.456h1.088a5 5 0 0 1-.992 2 33 33 0 0 1-1.568 1.744h1.952v-1.232l.928-.096v1.328h.624v.336h-.624v.624q0 .272.032.32.031.048.144.08l.448.048v.288h-2.24v-.288l.512-.048q.128-.016.144-.08.032-.048.032-.32m6.026-6.016v.592q0 1.984-.896 3.712-.88 1.712-2.656 3.216l-.368-.384q1.377-1.296 1.936-2.992a11.3 11.3 0 0 0 .56-3.552v-.592q0-1.856-.56-3.552t-1.936-2.992l.368-.384q1.776 1.504 2.656 3.216a7.9 7.9 0 0 1 .896 3.712"/></svg>