<svg xmlns="http://www.w3.org/2000/svg" width="300" height="200" fill="none" viewBox="0 0 300 200"><path fill="#000" d="M0 0h300v200H0z"/><path stroke="#fff" stroke-linecap="round" stroke-width="2" d="M105 76.094s.727 3.203 6.544 3.843 5.816-3.843 5.816-3.843m0-8.969s2.181 3.844 8.725 1.922S128.993 62 128.993 62"/><path stroke="#8af3ff" stroke-width="2" d="m110.054 47.683 87.226 59.415M110.469 48.718l-12.642 59.415"/><path fill="#fff" d="m273 109-5-2.887v5.774zm-252 0v.5h247.5v-1H21z"/><path fill="#fff" d="m146 16-2.887 5h5.774zm0 173h.5V20.5h-1V189zM269.008 127.584V128h-2.976v-.416l.816-.096a1 1 0 0 0 .24-.048q.096-.032.192-.176.112-.144.304-.464l2.544-4.128-2.464-4.352a4 4 0 0 0-.272-.448q-.08-.144-.176-.176a.6.6 0 0 0-.24-.064l-.816-.08v-.432h3.888v.432l-.832.08q-.24.032-.256.128 0 .096.256.56l1.872 3.312 2.048-3.312q.288-.464.288-.56t-.256-.128l-.816-.08v-.432h2.976v.432l-.816.08a.8.8 0 0 0-.256.064q-.08.032-.176.176a10 10 0 0 0-.304.448l-2.384 3.856 2.624 4.624.256.464a.7.7 0 0 0 .176.176q.096.032.256.048l.832.096V128h-3.888v-.416l.832-.096q.256-.032.256-.112.016-.096-.256-.576l-2.048-3.6-2.208 3.6q-.288.464-.288.56t.256.128zM165.64 18.584V19h-3.856v-.416l.88-.096q.256-.032.304-.128t.048-.656V14.36l-2.576-5.04a3 3 0 0 0-.256-.448q-.08-.144-.176-.176a.6.6 0 0 0-.256-.064l-.816-.08V8.12h3.872v.432l-.816.08q-.24.032-.256.128 0 .096.224.56l2.176 4.368 2.224-4.368q.24-.464.224-.56t-.256-.128l-.816-.08V8.12h2.96v.432l-.832.08a.7.7 0 0 0-.256.064q-.08.032-.176.176a6 6 0 0 0-.24.448l-2.56 5.008v3.376q0 .56.048.656t.304.128z"/><path stroke="#f8ff32" stroke-width="2" d="M146 46c29.95 0 57.017 7.241 76.562 18.897C242.129 76.564 254 92.543 254 110s-11.871 33.436-31.438 45.104C203.017 166.759 175.95 174 146 174s-57.017-7.241-76.562-18.896C49.87 143.436 38 127.457 38 110s11.871-33.436 31.438-45.103C88.983 53.24 116.05 46 146 46Z"/><path stroke="#ff4d4d" stroke-linecap="round" stroke-width="2" d="M144.914 164.126 104.272 22.509"/><circle cx="197" cy="108" r="4" fill="#8af3ff"/><circle cx="97" cy="108" r="4" fill="#8af3ff"/><path fill="#8af3ff" d="M195.32 127.648q1.072 0 1.728-.528.672-.528.672-1.552 0-.816-.496-1.36-.497-.56-1.728-.896l-1.104-.32q-1.216-.336-1.856-1.136t-.64-1.952q0-.768.352-1.44.368-.672 1.104-1.088.752-.416 1.904-.416 1.28 0 2.064.48.784.464 1.088 1.216a2.84 2.84 0 0 1 .144 1.616l-1.344.288q.208-1.488-.304-2.288-.496-.8-1.728-.8-.976 0-1.536.528-.56.512-.56 1.504 0 .784.448 1.344.448.544 1.584.864l1.104.32q2.672.737 2.672 3.12 0 .848-.4 1.536-.384.672-1.184 1.072-.784.4-1.984.4a5 5 0 0 1-1.6-.256 2.97 2.97 0 0 1-1.296-.88q-.528-.624-.704-1.728l.96-.32q.08 1.056.464 1.632t.96.816a3.3 3.3 0 0 0 1.216.224"/><path fill="#ff4d4d" d="M84.376 21.552v-.432h3.056v.432l-.88.08q-.255.032-.304.144-.048.096-.048.64V32h-.784l-5.824-9.824v8.528q0 .544.048.656.048.096.304.128l.88.096V32h-3.056v-.416l.88-.096q.256-.032.304-.128.048-.112.048-.656v-8.288q0-.544-.048-.64-.048-.112-.304-.144l-.88-.08v-.432h2.768l5.072 8.576v-7.28q0-.544-.048-.64-.048-.112-.304-.144z"/><path fill="#8af3ff" d="M92.32 127.648q1.072 0 1.728-.528.672-.528.672-1.552 0-.816-.496-1.36-.496-.56-1.728-.896l-1.104-.32q-1.216-.336-1.856-1.136t-.64-1.952q0-.768.352-1.44.368-.672 1.104-1.088.752-.416 1.904-.416 1.28 0 2.064.48.784.464 1.088 1.216t.144 1.616l-1.344.288q.208-1.488-.304-2.288-.496-.8-1.728-.8-.976 0-1.536.528-.56.512-.56 1.504 0 .784.448 1.344.448.544 1.584.864l1.104.32q2.672.737 2.672 3.12 0 .848-.4 1.536-.383.672-1.184 1.072-.784.4-1.984.4a5 5 0 0 1-1.6-.256 2.97 2.97 0 0 1-1.296-.88q-.528-.624-.704-1.728l.96-.32q.08 1.056.464 1.632t.96.816q.577.224 1.216.224m4.91-2.752 1.056-.656h.8v4.688q0 .272.032.32t.144.064l.448.048v.32h-2.336v-.32l.608-.048q.127-.016.144-.064.032-.048.032-.32v-4.176l-.736.464z"/><path fill="#fff" d="M112.736 101.16q-1.312 0-2.176-.736-.848-.751-1.264-2.128-.416-1.392-.416-3.328 0-1.952.384-3.344t1.232-2.128q.864-.735 2.24-.736 1.328 0 2.192.736.864.72 1.28 2.112.432 1.392.432 3.36 0 1.936-.4 3.328-.384 1.376-1.248 2.128-.847.736-2.256.736m0-1.168q.832 0 1.36-.48.544-.48.816-1.504t.304-2.672h-4.912q.032 1.632.272 2.656.256 1.025.784 1.52.528.48 1.376.48m-2.432-5.744h4.896q-.048-1.455-.32-2.4-.272-.96-.8-1.424-.528-.48-1.344-.48t-1.344.48q-.511.464-.768 1.424-.256.945-.32 2.4m7.66 3.648 1.056-.656h.8v4.688q0 .272.032.32t.144.064l.448.048v.32h-2.336v-.32l.608-.048q.127-.016.144-.064.032-.048.032-.32v-4.176l-.736.464zM131.736 88.16q-1.312 0-2.176-.736-.848-.751-1.264-2.128-.416-1.392-.416-3.328 0-1.952.384-3.344t1.232-2.128q.864-.736 2.24-.736 1.328 0 2.192.736.864.72 1.28 2.112.432 1.392.432 3.36 0 1.936-.4 3.328-.384 1.376-1.248 2.128-.847.736-2.256.736m0-1.168q.832 0 1.36-.48.544-.48.816-1.504t.304-2.672h-4.912q.032 1.632.272 2.656.256 1.025.784 1.52.528.48 1.376.48m-2.432-5.744h4.896q-.048-1.455-.32-2.4-.272-.96-.8-1.424-.528-.48-1.344-.48t-1.344.48q-.512.465-.768 1.424-.256.945-.32 2.4m10.812 6.848h.336v1.584h-3.472v-.432q0-.593.16-.944.16-.352.464-.608.32-.255.752-.512.415-.24.768-.544.352-.32.352-.96 0-1.152-.784-1.152-.928 0-.784 1.44l-.944-.128a1.37 1.37 0 0 1 .32-1.168q.432-.512 1.408-.512t1.376.464q.416.465.416 1.072t-.32.96a2.5 2.5 0 0 1-.784.544q-.464.192-.896.416-.912.465-1.008 1.36h2.08q.272 0 .336-.032.08-.032.096-.176z"/></svg>