<svg xmlns="http://www.w3.org/2000/svg" width="300" height="200" fill="none" viewBox="0 0 300 200"><path fill="#000" d="M0 0h300v200H0z"/><path stroke="#f15a5a" stroke-width="2" d="M190 18v154"/><path stroke="#f15a5a" stroke-dasharray="4 4" stroke-width="2" d="m189.897 18.443-39 79M189.118 172.471l-40-75"/><path fill="#fff" d="m261 97-5-2.887v5.774zM40 97v.5h216.5v-1H40z"/><path fill="#fff" d="m150 0-2.887 5h5.774zm0 192h.5V4.5h-1V192zM268.008 112.584V113h-2.976v-.416l.816-.096a1 1 0 0 0 .24-.048q.096-.032.192-.176.112-.144.304-.464l2.544-4.128-2.464-4.352a4 4 0 0 0-.272-.448q-.08-.144-.176-.176a.6.6 0 0 0-.24-.064l-.816-.08v-.432h3.888v.432l-.832.08q-.24.032-.256.128 0 .096.256.56l1.872 3.312 2.048-3.312q.288-.464.288-.56t-.256-.128l-.816-.08v-.432h2.976v.432l-.816.08a.8.8 0 0 0-.256.064q-.08.032-.176.176a10 10 0 0 0-.304.448l-2.384 3.856 2.624 4.624.256.464a.7.7 0 0 0 .176.176q.096.032.256.048l.832.096V113h-3.888v-.416l.832-.096q.256-.032.256-.112.016-.096-.256-.576l-2.048-3.6-2.208 3.6q-.288.464-.288.56t.256.128zM142.472 105.952v1.2q0 2.336-1.072 3.68-1.073 1.328-3.072 1.328-2.016 0-3.088-1.328-1.056-1.344-1.056-3.68v-1.2q0-2.32 1.056-3.648 1.072-1.344 3.088-1.344 2 0 3.072 1.344 1.072 1.328 1.072 3.648m-1.52-.8q0-2-.672-2.832-.656-.848-1.952-.848t-1.968.848q-.656.833-.656 2.832v2.8q0 2 .656 2.848.672.848 1.968.848t1.952-.848q.672-.848.672-2.848z"/><path fill="#8af3ff" d="M194.065 108.8v-.555a7.5 7.5 0 0 1 .825-3.48q.84-1.605 2.505-3.015l.345.36q-1.29 1.215-1.83 2.805-.525 1.59-.525 3.33v.555q0 1.725.525 3.33.54 1.59 1.83 2.805l-.345.36q-1.665-1.41-2.505-3.015a7.56 7.56 0 0 1-.825-3.48m10.049 4.305q-1.17 0-1.38-1.08-.525.6-1.155.87a3.3 3.3 0 0 1-1.245.255q-1.05 0-1.545-.585t-.495-1.41q0-.885.6-1.395.615-.525 2.115-.525h1.695v-1.215q0-1.2-.42-1.65-.405-.465-1.11-.465-.45 0-.81.18t-.525.66q-.15.465-.03 1.365l-1.185-.18q-.075-.705.18-1.26.27-.57.87-.9.615-.345 1.53-.345 1.095 0 1.68.375.585.36.81.945.24.585.24 1.275v3.375q0 .765.165.96.18.195.39.195.135 0 .285-.06.15-.075.33-.225l.27.375q-.225.195-.54.33-.3.135-.72.135m-3.36-.585q.42 0 .9-.225.495-.24 1.05-.945v-1.635h-1.53q-.84 0-1.23.345-.375.33-.375 1.035 0 .675.285 1.05.3.375.9.375m11.671-1.23q-.27 1.02-1.02 1.44-.735.42-1.635.42-1.665 0-2.49-1.005-.825-1.02-.825-2.715v-.3q0-1.68.795-2.685.795-1.02 2.31-1.02.81 0 1.47.33.675.33 1.065.975.405.645.405 1.605 0 .45-.09.945h-4.605v.45q0 1.575.48 2.265.495.675 1.59.675.69 0 1.14-.36.465-.36.615-1.245zm-2.865-5.385q-.885 0-1.32.675t-.435 2.22h3.375v-.045q.03-.195.045-.375.015-.195.015-.345 0-1.125-.465-1.62-.465-.51-1.215-.51m6.473 6.6q0 .675-.45 1.575-.435.9-1.215 1.815l-.33-.27q.615-.75.885-1.38.27-.615.3-1.095h-.015a.8.8 0 0 1-.585-.225.8.8 0 0 1-.225-.585q0-.36.225-.585a.8.8 0 0 1 .585-.225q.36 0 .585.255.24.24.24.72m8.504-5.085v.945q0 1.44-.405 2.52t-1.185 1.68q-.78.585-1.89.585-1.125 0-1.905-.585-.765-.6-1.17-1.68t-.405-2.52v-.945q0-1.44.405-2.505.405-1.08 1.17-1.665.78-.6 1.905-.6 1.11 0 1.89.6.78.585 1.185 1.665.405 1.065.405 2.505m-1.455-1.05q0-1.74-.525-2.49t-1.5-.75-1.5.75-.525 2.49v3.045q0 1.755.525 2.505t1.5.75 1.5-.75.525-2.505zm6.046 1.875v.555q0 1.86-.84 3.48-.825 1.605-2.49 3.015l-.345-.36q1.29-1.215 1.815-2.805.525-1.605.525-3.33v-.555q0-1.74-.525-3.33t-1.815-2.805l.345-.36q1.665 1.41 2.49 3.015.84 1.605.84 3.48"/><circle cx="190" cy="98" r="3" fill="#8af3ff"/><path fill="#fff" d="M162.64 15.584V16h-3.856v-.416l.88-.096q.256-.032.304-.128t.048-.656V11.36l-2.576-5.04a3 3 0 0 0-.256-.448q-.08-.144-.176-.176a.6.6 0 0 0-.256-.064l-.816-.08V5.12h3.872v.432l-.816.08q-.24.032-.256.128 0 .096.224.56l2.176 4.368 2.224-4.368q.24-.464.224-.56t-.256-.128l-.816-.08V5.12h2.96v.432l-.832.08a.7.7 0 0 0-.256.064q-.08.032-.176.176a6 6 0 0 0-.24.448l-2.56 5.008v3.376q0 .56.048.656t.304.128z"/><path stroke="#f8ff32" stroke-width="2" d="M150 47c23.599 0 44.915 5.73 60.298 14.942C225.701 71.166 235 83.77 235 97.5s-9.299 26.334-24.702 35.558C194.915 142.269 173.599 148 150 148s-44.915-5.731-60.298-14.942C74.3 123.834 65 111.231 65 97.5s9.3-26.334 24.702-35.558C105.085 52.731 126.401 47 150 47Z"/><path fill="#f15a5a" d="M167.12 90.32h-.94v-.44q0-.9.26-1.44.28-.56.68-.96l.8-.84q.4-.44.66-1.06.28-.64.28-1.68 0-1.54-.56-2.3t-1.6-.76q-1.32 0-1.84 1-.52.98-.32 2.82l-1.64-.32q-.18-1.08.16-2.02.36-.94 1.28-1.52.92-.6 2.38-.6 1.42 0 2.3.5t1.28 1.3q.4.78.4 1.68 0 .92-.3 1.54-.28.6-.72 1.04-.44.42-.94.76-.48.34-.9.72-.4.36-.64.86-.22.5-.14 1.26zm-.5 3.88q-.5 0-.82-.32-.3-.32-.3-.82t.3-.8q.32-.32.82-.32t.82.32q.32.3.32.8t-.32.82-.82.32M167.12 112.32h-.94v-.44q0-.9.26-1.44.28-.56.68-.96l.8-.84q.4-.44.66-1.06.28-.64.28-1.68 0-1.54-.56-2.3t-1.6-.76q-1.32 0-1.84 1-.52.98-.32 2.82l-1.64-.32q-.18-1.08.16-2.02.36-.94 1.28-1.52.92-.6 2.38-.6 1.42 0 2.3.5t1.28 1.3q.4.78.4 1.68 0 .92-.3 1.54-.28.6-.72 1.04-.44.42-.94.76-.48.34-.9.72-.4.36-.64.86-.22.5-.14 1.26zm-.5 3.88q-.5 0-.82-.32-.3-.32-.3-.82t.3-.8q.32-.32.82-.32t.82.32q.32.3.32.8t-.32.82-.82.32"/><circle cx="150" cy="95" r="87" stroke="#ff4d4d" stroke-dasharray="7 7" stroke-width="2" opacity=".5"/></svg>