<svg xmlns="http://www.w3.org/2000/svg" width="300" height="200" fill="none" viewBox="0 0 300 200"><path fill="#000" d="M0 0h300v200H0z"/><path fill="#fff" d="m290 97-5-2.887v5.774zM11 97v.5h274.5v-1H11z"/><path fill="#fff" d="m150 23-2.887 5h5.774zm0 149h.5V27.5h-1V172zm94.008-81.416V91h-2.976v-.416l.816-.096a1 1 0 0 0 .24-.048q.096-.032.192-.176.112-.144.304-.464l2.544-4.128-2.464-4.352a4 4 0 0 0-.272-.448q-.08-.144-.176-.176a.6.6 0 0 0-.24-.064l-.816-.08v-.432h3.888v.432l-.832.08q-.24.032-.256.128 0 .096.256.56l1.872 3.312 2.048-3.312q.288-.465.288-.56t-.256-.128l-.816-.08v-.432h2.976v.432l-.816.08a.7.7 0 0 0-.256.064q-.08.032-.176.176a10 10 0 0 0-.304.448l-2.384 3.856 2.624 4.624.256.464a.7.7 0 0 0 .176.176q.096.032.256.048l.832.096V91h-3.888v-.416l.832-.096q.256-.032.256-.112.016-.096-.256-.576l-2.048-3.6-2.208 3.6q-.288.464-.288.56t.256.128zm-101.536 15.368v1.2q0 2.336-1.072 3.68-1.073 1.328-3.072 1.328-2.016 0-3.088-1.328-1.056-1.344-1.056-3.68v-1.2q0-2.32 1.056-3.648 1.072-1.344 3.088-1.344 2 0 3.072 1.344 1.072 1.328 1.072 3.648m-1.52-.8q0-2-.672-2.832-.656-.848-1.952-.848t-1.968.848q-.656.833-.656 2.832v2.8q0 2 .656 2.848.672.848 1.968.848t1.952-.848q.672-.848.672-2.848zm25.688-76.568V29h-3.856v-.416l.88-.096q.256-.032.304-.128t.048-.656V24.36l-2.576-5.04a3 3 0 0 0-.256-.448q-.08-.144-.176-.176a.6.6 0 0 0-.256-.064l-.816-.08v-.432h3.872v.432l-.816.08q-.24.032-.256.128 0 .095.224.56l2.176 4.368 2.224-4.368q.24-.465.224-.56t-.256-.128l-.816-.08v-.432h2.96v.432l-.832.08a.7.7 0 0 0-.256.064q-.08.032-.176.176a6 6 0 0 0-.24.448l-2.56 5.008v3.376q0 .56.048.656t.304.128z"/><path stroke="#f8ff32" stroke-width="2" d="M150 47c23.599 0 44.915 5.73 60.298 14.942C225.701 71.166 235 83.77 235 97.5s-9.299 26.334-24.702 35.558C194.915 142.269 173.599 148 150 148s-44.915-5.731-60.298-14.942C74.3 123.834 65 111.231 65 97.5s9.3-26.334 24.702-35.558C105.085 52.731 126.401 47 150 47Z"/><path stroke="#8af3ff" stroke-linecap="round" stroke-width="2" d="M150.868 7.408 24.408 112.132"/><path fill="#8af3ff" d="M34.12 128.32h-.94v-.44q0-.9.26-1.44.28-.56.68-.96l.8-.84q.4-.44.66-1.06.28-.64.28-1.68 0-1.54-.56-2.3t-1.6-.76q-1.32 0-1.84 1-.52.98-.32 2.82l-1.64-.32q-.18-1.08.16-2.02.36-.94 1.28-1.52.92-.6 2.38-.6 1.42 0 2.3.5t1.28 1.3q.4.78.4 1.68 0 .92-.3 1.54-.28.6-.72 1.04-.44.42-.94.76-.48.34-.9.72a2.7 2.7 0 0 0-.64.86q-.22.5-.14 1.26zm-.5 3.88q-.5 0-.82-.32-.3-.32-.3-.82t.3-.8q.32-.32.82-.32t.82.32q.32.3.32.8t-.32.82-.82.32"/><circle cx="81" cy="67" r="3" fill="#8af3ff"/><path fill="#8af3ff" d="M90.768 69.552v-.432h4.544q1.584 0 2.416.8.832.784.832 2.096v.464q0 1.312-.832 2.112t-2.416.8h-1.92v3.312q0 .56.048.672.048.096.304.112l1.2.096V80h-4.176v-.416l.88-.096q.256-.032.304-.128t.048-.656v-8.288q0-.56-.048-.656t-.304-.128zm4.544.08h-1.92v5.248h1.92q1.776 0 1.776-2.176v-.912q0-2.16-1.776-2.16M5.994 44.08v-.518a7 7 0 0 1 .77-3.248q.784-1.498 2.338-2.814l.322.336Q8.22 38.97 7.716 40.454a9.9 9.9 0 0 0-.49 3.108v.518q0 1.61.49 3.108.504 1.484 1.708 2.618l-.322.336q-1.554-1.315-2.338-2.814a7.06 7.06 0 0 1-.77-3.248m9.38 4.018q-1.093 0-1.289-1.008a3 3 0 0 1-1.078.812 3.1 3.1 0 0 1-1.162.238q-.98 0-1.442-.546t-.462-1.316q0-.826.56-1.302.574-.49 1.974-.49h1.582v-1.134q0-1.12-.392-1.54-.378-.434-1.036-.434-.42 0-.756.168t-.49.616q-.14.434-.028 1.274l-1.106-.168q-.069-.658.168-1.176.252-.532.812-.84.575-.322 1.428-.322 1.023 0 1.568.35.546.336.756.882.225.545.224 1.19v3.15q0 .714.154.896.169.182.364.182a.7.7 0 0 0 .266-.056q.14-.07.308-.21l.252.35q-.21.182-.504.308-.279.126-.672.126m-3.137-.546q.393 0 .84-.21.462-.224.98-.882v-1.526H12.63q-.783 0-1.148.322-.35.307-.35.966 0 .63.266.98.28.35.84.35m8.205-6.174q-.77 0-1.204.644-.42.63-.42 2.086v.84q0 1.47.42 2.114.434.63 1.4.63.657 0 1.064-.336.405-.336.546-1.162l.742.21q-.252.953-.924 1.344a2.9 2.9 0 0 1-1.498.392q-1.512 0-2.268-.938-.742-.953-.742-2.534v-.28q0-1.567.742-2.506.741-.952 2.142-.952.896 0 1.484.35.602.35.854.952.252.588.14 1.302l-1.106.168q.153-1.12-.21-1.722-.35-.602-1.162-.602m10.191 3.01v.28q0 1.583-.798 2.534-.785.938-2.24.938-1.442 0-2.24-.938-.784-.953-.784-2.534v-.28q0-1.567.784-2.506.785-.952 2.24-.952t2.24.952q.798.937.798 2.506m-1.26-.28q0-1.456-.462-2.086-.448-.645-1.316-.644-.854 0-1.316.644-.448.63-.448 2.086v.84q0 1.47.448 2.114.462.63 1.316.63.869 0 1.316-.63.462-.645.462-2.114zm5.567 1.064-.854-.21q-1.75-.448-1.75-2.016 0-.518.238-.98a1.76 1.76 0 0 1 .756-.742q.532-.294 1.358-.294.923 0 1.484.308.56.307.784.798.224.49.14 1.064l-1.092.196q.168-.91-.196-1.414-.35-.504-1.162-.504-.63 0-1.008.322-.378.308-.378.91 0 .448.28.798.28.336.938.504l.882.21q.924.224 1.428.714.518.49.518 1.288 0 .896-.658 1.456-.644.56-1.848.56-.574 0-1.12-.168a2.6 2.6 0 0 1-.938-.56 2.3 2.3 0 0 1-.574-1.008l.784-.28q.154.882.672 1.232t1.19.35q.392 0 .742-.126a1.3 1.3 0 0 0 .588-.392q.224-.28.224-.714 0-.448-.308-.77t-1.12-.532m7.331 2.968q-1.148 0-1.904-.644-.742-.659-1.106-1.862-.364-1.218-.364-2.912 0-1.708.336-2.926t1.078-1.862q.756-.644 1.96-.644 1.162 0 1.918.644.756.63 1.12 1.848.378 1.218.378 2.94 0 1.694-.35 2.912-.336 1.204-1.092 1.862-.742.645-1.974.644m0-1.022q.728 0 1.19-.42.476-.42.714-1.316t.266-2.338h-4.298q.028 1.428.238 2.324.224.895.686 1.33.462.42 1.204.42m-2.128-5.026h4.284q-.042-1.275-.28-2.1-.238-.84-.7-1.246-.462-.42-1.176-.42t-1.176.42q-.449.406-.672 1.246-.225.825-.28 2.1m6.703 3.192.924-.574h.7v4.102q0 .238.028.28.027.042.126.056l.392.042v.28h-2.044v-.28l.532-.042q.111-.014.126-.056.027-.042.027-.28v-3.654l-.643.406zm5.19 2.254q0 .63-.42 1.47a8 8 0 0 1-1.133 1.694l-.308-.252q.574-.7.826-1.288.252-.574.28-1.022h-.014a.74.74 0 0 1-.546-.21.74.74 0 0 1-.21-.546q0-.336.21-.546t.546-.21.546.238q.224.224.224.672m4.5-9.52v-.378h2.226v4.438q.406-.601.924-.868.519-.28 1.12-.28 1.205 0 1.862.91.672.91.672 2.548v.28q0 1.596-.77 2.534-.756.938-2.128.938-1.092 0-1.792-.714-.196.112-.364.28a7 7 0 0 0-.336.364h-.336v-9.296q0-.49-.042-.574t-.266-.112zm4.088 3.416q-.435 0-.91.28-.462.28-.952 1.134v4.004q.602.825 1.596.826.91 0 1.316-.686.406-.7.406-1.904v-1.12q0-1.316-.378-1.918-.378-.615-1.078-.616m7.088 3.738-.854-.21q-1.75-.448-1.75-2.016 0-.518.238-.98a1.76 1.76 0 0 1 .756-.742q.531-.294 1.358-.294.923 0 1.484.308.56.307.784.798.224.49.14 1.064l-1.092.196q.168-.91-.196-1.414-.35-.504-1.162-.504-.63 0-1.008.322-.378.308-.378.91 0 .448.28.798.28.336.938.504l.882.21q.924.224 1.428.714.518.49.518 1.288 0 .896-.658 1.456-.645.56-1.848.56-.574 0-1.12-.168a2.6 2.6 0 0 1-.938-.56 2.3 2.3 0 0 1-.574-1.008l.784-.28q.153.882.672 1.232.518.35 1.19.35.39 0 .742-.126a1.3 1.3 0 0 0 .588-.392q.224-.28.224-.714 0-.448-.308-.77-.31-.322-1.12-.532m5.314-5.67a.8.8 0 0 1-.56-.21.8.8 0 0 1-.21-.574q0-.336.21-.546.225-.21.56-.21t.546.21q.225.21.224.546a.78.78 0 0 1-.224.574.74.74 0 0 1-.546.21m-1.638 1.946v-.378h2.226v5.796q0 .49.042.574t.266.112l.77.084V48H71.39v-.364l.77-.084q.225-.028.266-.112t.042-.574v-4.662q0-.49-.042-.574-.041-.084-.266-.112zm12.01 6.188V48h-3.304v-.364l.77-.084q.225-.028.266-.112t.042-.574V43.38q0-1.035-.336-1.456-.336-.434-.966-.434-.462 0-1.022.28t-1.05 1.092v4.004q0 .49.042.574t.266.112l.77.084V48h-3.304v-.364l.77-.084q.225-.028.266-.112t.042-.574v-4.662q0-.49-.042-.574t-.266-.112l-.77-.07v-.378h2.156v1.134q.504-.672 1.134-.966.645-.308 1.288-.308 1.036 0 1.596.644.574.63.574 1.792v3.5q0 .49.042.574t.266.112zm4.469.504q-1.148 0-1.904-.644-.743-.659-1.106-1.862-.364-1.218-.364-2.912 0-1.708.336-2.926t1.078-1.862q.756-.644 1.96-.644 1.162 0 1.918.644.756.63 1.12 1.848.378 1.218.378 2.94 0 1.694-.35 2.912-.336 1.204-1.092 1.862-.743.645-1.974.644m0-1.022q.728 0 1.19-.42.475-.42.714-1.316.237-.896.266-2.338h-4.298q.027 1.428.238 2.324.224.895.686 1.33.462.42 1.204.42m-2.128-5.026h4.284q-.043-1.275-.28-2.1-.238-.84-.7-1.246-.462-.42-1.176-.42t-1.176.42q-.449.406-.672 1.246-.225.825-.28 2.1m6.702 3.192.924-.574h.7v4.102q0 .238.028.28t.126.056l.392.042v.28h-2.044v-.28l.532-.042q.113-.014.126-.056.028-.042.028-.28v-3.654l-.644.406zm6.326-1.722v.518q0 1.736-.784 3.248-.77 1.499-2.324 2.814l-.322-.336q1.203-1.134 1.694-2.618.49-1.499.49-3.108v-.518a9.9 9.9 0 0 0-.49-3.108q-.49-1.485-1.694-2.618l.322-.336q1.553 1.316 2.324 2.814.784 1.498.784 3.248"/></svg>