<svg xmlns="http://www.w3.org/2000/svg" width="300" height="200" fill="none" viewBox="0 0 300 200"><path fill="#000" d="M0 0h300v200H0z"/><path fill="#fff" d="m290 97-5-2.887v5.774zM11 97v.5h274.5v-1H11z"/><path fill="#fff" d="m150 23-2.887 5h5.774zm0 149h.5V27.5h-1V172zM244.008 90.584V91h-2.976v-.416l.816-.096a1 1 0 0 0 .24-.048q.096-.032.192-.176.112-.144.304-.464l2.544-4.128-2.464-4.352a4 4 0 0 0-.272-.448q-.08-.144-.176-.176a.6.6 0 0 0-.24-.064l-.816-.08v-.432h3.888v.432l-.832.08q-.24.032-.256.128 0 .096.256.56l1.872 3.312 2.048-3.312q.288-.465.288-.56t-.256-.128l-.816-.08v-.432h2.976v.432l-.816.08a.7.7 0 0 0-.256.064q-.08.032-.176.176a10 10 0 0 0-.304.448l-2.384 3.856 2.624 4.624.256.464a.7.7 0 0 0 .176.176q.096.032.256.048l.832.096V91h-3.888v-.416l.832-.096q.256-.032.256-.112.016-.096-.256-.576l-2.048-3.6-2.208 3.6q-.288.464-.288.56t.256.128zM142.472 105.952v1.2q0 2.336-1.072 3.68-1.073 1.328-3.072 1.328-2.016 0-3.088-1.328-1.056-1.344-1.056-3.68v-1.2q0-2.32 1.056-3.648 1.072-1.344 3.088-1.344 2 0 3.072 1.344 1.072 1.328 1.072 3.648m-1.52-.8q0-2-.672-2.832-.656-.848-1.952-.848t-1.968.848q-.656.833-.656 2.832v2.8q0 2 .656 2.848.672.848 1.968.848t1.952-.848q.672-.848.672-2.848z"/><path fill="#8af3ff" d="M104.344 34.584V35h-3.776v-.416l.88-.096q.256-.032.304-.128t.048-.656V29.72q0-1.185-.368-1.664-.352-.495-1.04-.496-.496 0-1.12.32-.608.32-1.168 1.232v4.592q0 .56.048.656t.304.128l.88.096V35H95.56v-.416l.88-.096q.256-.032.304-.128t.048-.656v-5.328q0-.56-.048-.656t-.304-.128l-.88-.08v-.432h2.464v1.296q.56-.752 1.264-1.104.72-.352 1.424-.352 1.728 0 2.224 1.584.592-.832 1.312-1.2a3.16 3.16 0 0 1 1.472-.384q1.136 0 1.76.736.64.72.64 2.048v4q0 .56.048.656t.304.128l.88.096V35h-3.776v-.416l.88-.096q.256-.032.304-.128t.048-.656V29.72q0-1.185-.368-1.664-.352-.495-1.04-.496-.496 0-1.136.336-.624.32-1.184 1.264.016.128.016.272.016.128.016.272v4q0 .56.048.656t.304.128zM260.344 117.584V118h-3.776v-.416l.88-.096q.256-.032.304-.128t.048-.656v-3.984q0-1.184-.368-1.664-.352-.496-1.04-.496-.496 0-1.12.32-.608.32-1.168 1.232v4.592q0 .56.048.656t.304.128l.88.096V118h-3.776v-.416l.88-.096q.256-.032.304-.128t.048-.656v-5.328q0-.56-.048-.656t-.304-.128l-.88-.08v-.432h2.464v1.296q.56-.751 1.264-1.104a3.2 3.2 0 0 1 1.424-.352q1.728 0 2.224 1.584.592-.832 1.312-1.2a3.16 3.16 0 0 1 1.472-.384q1.136 0 1.76.736.64.72.64 2.048v4q0 .56.048.656t.304.128l.88.096V118h-3.776v-.416l.88-.096q.256-.032.304-.128t.048-.656v-3.984q0-1.184-.368-1.664-.352-.496-1.04-.496-.496 0-1.136.336-.624.32-1.184 1.264.016.128.016.272.016.128.016.272v4q0 .56.048.656t.304.128z"/><path fill="#fff" d="M166.64 28.584V29h-3.856v-.416l.88-.096q.256-.032.304-.128t.048-.656V24.36l-2.576-5.04a3 3 0 0 0-.256-.448q-.08-.144-.176-.176a.6.6 0 0 0-.256-.064l-.816-.08v-.432h3.872v.432l-.816.08q-.24.032-.256.128 0 .095.224.56l2.176 4.368 2.224-4.368q.24-.465.224-.56t-.256-.128l-.816-.08v-.432h2.96v.432l-.832.08a.7.7 0 0 0-.256.064q-.08.032-.176.176a6 6 0 0 0-.24.448l-2.56 5.008v3.376q0 .56.048.656t.304.128z"/><path stroke="#f8ff32" stroke-width="2" d="M150 47c23.599 0 44.915 5.73 60.298 14.942C225.701 71.166 235 83.77 235 97.5s-9.299 26.334-24.702 35.558C194.915 142.269 173.599 148 150 148s-44.915-5.731-60.298-14.942C74.3 123.834 65 111.231 65 97.5s9.3-26.334 24.702-35.558C105.085 52.731 126.401 47 150 47Z"/><path stroke="#8af3ff" stroke-linecap="round" stroke-width="2" d="M150.868 7.408 24.408 112.132M265.868 90.408l-126.46 104.724"/><path fill="#8af3ff" d="M72.12 58.32h-.94v-.44q0-.9.26-1.44.28-.56.68-.96l.8-.84q.4-.44.66-1.06.28-.64.28-1.68 0-1.54-.56-2.3t-1.6-.76q-1.32 0-1.84 1-.52.98-.32 2.82l-1.64-.32q-.18-1.08.16-2.02.36-.94 1.28-1.52.92-.6 2.38-.6 1.42 0 2.3.5T75.3 50q.4.78.4 1.68 0 .92-.3 1.54-.28.6-.72 1.04-.44.42-.94.76-.48.34-.9.72-.4.36-.64.86-.22.5-.14 1.26zm-.5 3.88q-.5 0-.82-.32-.3-.32-.3-.82t.3-.8q.32-.32.82-.32t.82.32q.32.3.32.8t-.32.82-.82.32M228.12 145.32h-.94v-.44q0-.9.26-1.44.28-.56.68-.96l.8-.84q.4-.44.66-1.06.28-.64.28-1.68 0-1.54-.56-2.3t-1.6-.76q-1.32 0-1.84 1-.52.98-.32 2.82l-1.64-.32q-.18-1.08.16-2.02.36-.94 1.28-1.52.92-.6 2.38-.6 1.42 0 2.3.5t1.28 1.3q.4.78.4 1.68 0 .92-.3 1.54-.28.6-.72 1.04-.44.42-.94.76-.48.34-.9.72-.4.36-.64.86-.22.5-.14 1.26zm-.5 3.88q-.5 0-.82-.32-.3-.32-.3-.82t.3-.8q.32-.32.82-.32t.82.32q.32.3.32.8t-.32.82-.82.32"/><circle cx="219.5" cy="128.5" r="4.5" fill="#8af3ff"/><circle cx="80.5" cy="66.5" r="4.5" fill="#8af3ff"/></svg>