<svg xmlns="http://www.w3.org/2000/svg" width="300" height="200" fill="none" viewBox="0 0 300 200"><path fill="#000" d="M0 0h300v200H0z"/><path stroke="#8af3ff" stroke-width="2" d="M203 35v62m-.234-61.357-52 62"/><path fill="#fff" d="m261 97-5-2.887v5.774zM40 97v.5h216.5v-1H40z"/><path fill="#fff" d="m150 4-2.887 5h5.774zm0 193h.5V8.5h-1V197z"/><path stroke="#f8ff32" stroke-width="2" d="M150 47c23.599 0 44.915 5.73 60.298 14.942C225.701 71.166 235 83.77 235 97.5s-9.299 26.334-24.702 35.558C194.915 142.269 173.599 148 150 148s-44.915-5.731-60.298-14.942C74.3 123.834 65 111.231 65 97.5s9.3-26.334 24.702-35.558C105.085 52.731 126.401 47 150 47Z"/><circle cx="203" cy="59" r="3" fill="#ff4d4d"/><path fill="#fff" d="M209.768 67.552v-.432h4.544q1.584 0 2.416.8.832.784.832 2.096v.464q0 1.312-.832 2.112t-2.416.8h-1.92v3.312q0 .56.048.672.048.096.304.112l1.2.096V78h-4.176v-.416l.88-.096q.256-.032.304-.128t.048-.656v-8.288q0-.56-.048-.656t-.304-.128zm4.544.08h-1.92v5.248h1.92q1.776 0 1.776-2.176v-.912q0-2.16-1.776-2.16m.696-36.064.224 1.424q-1.248 0-2.224-.624-.976-.607-1.568-2.208h-.096q-2.032 0-3.104-1.328-1.056-1.344-1.056-3.68v-1.2q0-2.32 1.056-3.648 1.072-1.344 3.104-1.344 2 0 3.072 1.344 1.088 1.328 1.088 3.648v1.2q0 2.128-.912 3.44-.896 1.296-2.576 1.52.368.848 1.072 1.152.703.304 1.92.304m-1.024-8.416q0-2-.672-2.832-.672-.848-1.968-.848-1.312 0-1.984.848-.656.832-.656 2.832v2.8q0 2 .656 2.848.672.848 1.984.848 1.296 0 1.968-.848t.672-2.848zm-75.64 90.008q-2.032 0-3.104-1.36-1.056-1.36-1.056-3.648v-1.2q0-1.504.448-2.624.464-1.12 1.36-1.744t2.192-.624q1.2 0 1.984.48.784.464 1.136 1.232.352.752.224 1.648l-1.376.336q.176-1.536-.352-2.352-.528-.832-1.616-.832-1.216 0-1.856.864-.624.864-.624 2.816v2.8q0 1.968.672 2.832t2 .864q.528 0 1.008-.176.48-.192.816-.64.336-.449.416-1.248l.992.256q-.353 1.28-1.248 1.808-.88.512-2.016.512m63.664-.576V113h-3.04v-.416l.864-.096q.176-.016.256-.048a.4.4 0 0 0 .144-.192 4 4 0 0 0 .192-.544l3.088-9.584h1.008l3.12 9.584q.112.384.176.544.08.144.16.192a1 1 0 0 0 .24.048l.88.096V113h-3.888v-.416l.88-.096q.256-.032.272-.128.031-.112-.144-.656l-.656-2.048h-3.904l-.656 2.048q-.176.544-.16.656.031.096.288.128zm-.192-3.44h3.584l-1.792-5.568zm-68.048-78.592v-.432h4.352q1.567 0 2.352.736.784.72.784 1.856v.432q0 .833-.496 1.424-.496.592-1.392.832 1.12.191 1.744.848.624.656.624 1.648v.432q0 1.169-.816 1.92-.8.752-2.4.752h-4.752v-.416l.88-.096q.256-.032.304-.128t.048-.656v-8.288q0-.56-.048-.656t-.304-.128zm4.352.08h-1.728v4.576h1.728q1.664 0 1.664-1.936v-.656q0-1.984-1.664-1.984m.4 5.088h-2.128v4.768h2.128q1.744 0 1.744-2.064v-.656q0-.992-.448-1.52-.432-.528-1.296-.528"/><circle cx="150" cy="100" r="85" stroke="#ff4d4d" stroke-dasharray="4 4" stroke-width="2"/></svg>