<svg xmlns="http://www.w3.org/2000/svg" width="300" height="200" fill="none" viewBox="0 0 300 200"><path fill="#000" d="M0 0h300v200H0z"/><path fill="#fff" d="m276 100-5-2.887v5.774zm-252 0v.5h247.5v-1H24z"/><path fill="#fff" d="m150 14-2.887 5h5.774zm0 173h.5V18.5h-1V187zM272.008 122.584V123h-2.976v-.416l.816-.096a1 1 0 0 0 .24-.048q.096-.032.192-.176.112-.144.304-.464l2.544-4.128-2.464-4.352a4 4 0 0 0-.272-.448q-.08-.144-.176-.176a.6.6 0 0 0-.24-.064l-.816-.08v-.432h3.888v.432l-.832.08q-.24.032-.256.128 0 .096.256.56l1.872 3.312 2.048-3.312q.288-.464.288-.56t-.256-.128l-.816-.08v-.432h2.976v.432l-.816.08a.8.8 0 0 0-.256.064q-.08.032-.176.176a10 10 0 0 0-.304.448l-2.384 3.856 2.624 4.624.256.464a.7.7 0 0 0 .176.176q.096.032.256.048l.832.096V123h-3.888v-.416l.832-.096q.256-.032.256-.112.016-.096-.256-.576l-2.048-3.6-2.208 3.6q-.288.464-.288.56t.256.128zM165.64 18.584V19h-3.856v-.416l.88-.096q.256-.032.304-.128t.048-.656V14.36l-2.576-5.04a3 3 0 0 0-.256-.448q-.08-.144-.176-.176a.6.6 0 0 0-.256-.064l-.816-.08V8.12h3.872v.432l-.816.08q-.24.032-.256.128 0 .096.224.56l2.176 4.368 2.224-4.368q.24-.464.224-.56t-.256-.128l-.816-.08V8.12h2.96v.432l-.832.08a.7.7 0 0 0-.256.064q-.08.032-.176.176a6 6 0 0 0-.24.448l-2.56 5.008v3.376q0 .56.048.656t.304.128z"/><path stroke="#f8ff32" stroke-width="2" d="M150 36c29.95 0 57.017 7.241 76.562 18.897C246.129 66.564 258 82.543 258 100s-11.871 33.436-31.438 45.104C207.017 156.759 179.95 164 150 164s-57.017-7.241-76.562-18.896C53.87 133.436 42 117.457 42 100s11.871-33.436 31.438-45.103C92.983 43.24 120.05 36 150 36Z"/><path stroke="#8af3ff" stroke-linecap="round" stroke-width="3" d="M169 99.5c10.493 0 35.5-.5 40-14 2.763-8.29-3.5-18.5-19-18.5-10.493 0-39.5 8.5-39.5 26.5M168.5 100c10.493 0 35.5.5 40 14 2.763 8.289-3.5 18.5-19 18.5-10.493 0-39.5-8.5-39.5-26.5M131.634 99.5c-10.494 0-35.5-.5-40-14-2.763-8.29 3.5-18.5 19-18.5 10.493 0 39.5 8.5 39.5 26.5"/><path stroke="#8af3ff" stroke-linecap="round" stroke-width="3" d="M132.134 100c-10.494 0-35.5.5-40 14-2.763 8.289 3.5 18.5 19 18.5 10.493 0 39.5-8.5 39.5-26.5"/></svg>