<svg xmlns="http://www.w3.org/2000/svg" width="300" height="200" fill="none" viewBox="0 0 300 200"><path fill="#000" d="M0 0h300v200H0z"/><path stroke="url(#a)" stroke-width="17" d="M258 15s22.5 37.5 22.5 88-22.5 86-22.5 86"/><path stroke="#fff" stroke-width="3" d="M252 21s19.5 42.5 19.5 80.5S252 182 252 182"/><path stroke="#fff" stroke-width="2" d="M24 99h248"/><circle cx="43.5" cy="99.5" r="4.5" fill="#ff2c30"/><circle cx="136.5" cy="99.5" r="4.5" fill="#ffff24"/><circle cx="219.5" cy="99.5" r="4.5" fill="#4fff2c"/><path fill="#4fff2c" d="m141 86 10 5.773V80.227zm79 0-10-5.773v11.546zm-70 0v1h61v-2h-61z"/><path fill="#ff2c30" d="m39 85 9.942 5.873.115-11.546zm98 .98-9.942-5.873-.115 11.546zm-89-.89-.01 1 80.001.8.01-1 .01-1-80.001-.8z"/><path fill="#ffff24" d="m130.636 152 3.864-23.273h13.466l-.318 1.909h-11.341l-1.455 8.762h10.284l-.318 1.909h-10.284L132.761 152z"/><path fill="#ff4013" d="M58.625 140.489q-.602 3.602-2.318 6.261t-4.193 4.114a10.46 10.46 0 0 1-5.387 1.454q-2.988 0-5.045-1.488-2.046-1.5-2.898-4.205-.852-2.716-.25-6.386.602-3.603 2.318-6.262t4.205-4.113a10.53 10.53 0 0 1 5.409-1.455q2.954 0 5 1.489 2.045 1.488 2.909 4.204.864 2.704.25 6.387m-2.034-.25q.522-3.114-.136-5.307-.648-2.193-2.228-3.352-1.58-1.171-3.83-1.171a8.5 8.5 0 0 0-4.374 1.205q-2.046 1.193-3.489 3.454-1.443 2.25-1.977 5.421-.512 3.102.136 5.306.648 2.194 2.227 3.364 1.591 1.16 3.853 1.159a8.5 8.5 0 0 0 4.386-1.204q2.046-1.205 3.477-3.455 1.443-2.26 1.955-5.42M83.466 67.364q-2.148 0-3.58-1.137-1.43-1.136-2-3.17-.567-2.034-.125-4.739.455-2.693 1.694-4.716 1.25-2.034 3.056-3.159a7.34 7.34 0 0 1 3.966-1.136q1.603 0 2.557.568.966.556 1.466 1.386t.716 1.614h.182l1.523-9.148h2.033L91.092 67h-1.966l.546-3.239h-.25a10 10 0 0 1-1.285 1.637q-.783.83-1.931 1.398t-2.74.568m.443-1.853a5.34 5.34 0 0 0 3.057-.92q1.376-.932 2.295-2.557.933-1.635 1.273-3.75.352-2.091-.011-3.693-.364-1.614-1.41-2.523-1.045-.92-2.76-.92-1.74 0-3.092.954-1.352.944-2.238 2.557-.876 1.614-1.216 3.625-.33 2.034 0 3.67t1.34 2.603q1.023.954 2.762.954M98.432 71l2-12.045h-.114l-3.875 2.306.33-1.886 3.886-2.33h1.909L100.25 71z"/><path fill="#4fff2c" d="M173.466 67.364q-2.148 0-3.58-1.137-1.431-1.136-2-3.17-.567-2.034-.125-4.739.455-2.693 1.694-4.716 1.25-2.034 3.056-3.159a7.34 7.34 0 0 1 3.966-1.136q1.602 0 2.557.568.966.556 1.466 1.386t.716 1.614h.182l1.522-9.148h2.035L181.091 67h-1.966l.545-3.239h-.25q-.487.795-1.284 1.637-.783.83-1.931 1.398t-2.739.568m.443-1.853a5.34 5.34 0 0 0 3.057-.92q1.375-.932 2.295-2.557.933-1.635 1.273-3.75.352-2.091-.011-3.693-.364-1.614-1.409-2.523-1.046-.92-2.762-.92-1.738 0-3.091.954-1.352.944-2.238 2.557-.876 1.614-1.216 3.625-.33 2.034 0 3.67t1.341 2.603q1.023.954 2.761.954M185.205 71l.204-1.364 6.046-4.897a28 28 0 0 0 1.761-1.512q.693-.647 1.057-1.204.363-.57.454-1.194.182-1.09-.545-1.772-.716-.682-2-.682-1.307 0-2.296.739-.977.738-1.159 1.886h-1.841q.296-1.784 1.807-2.955 1.523-1.18 3.659-1.181 1.42 0 2.398.534.988.534 1.432 1.454.442.909.261 2.046a4.5 4.5 0 0 1-.579 1.59q-.432.74-1.319 1.603-.885.852-2.363 2.034l-4.012 3.239v.08h7.421l-.25 1.556zM218.625 128.727 214.761 152h-2.125l3.864-23.273z"/><defs><linearGradient id="a" x1="247.5" x2="247.5" y1="15" y2="189" gradientUnits="userSpaceOnUse"><stop stop-color="#22e6ed"/><stop offset="1" stop-color="#a8fcff"/></linearGradient></defs></svg>