<svg xmlns="http://www.w3.org/2000/svg" width="300" height="200" fill="none" viewBox="0 0 300 200"><g clip-path="url(#a)"><path fill="#000" d="M0 0h300v200H0z"/><path fill="url(#b)" d="M0 50h300v50H0z"/><path fill="url(#c)" d="M0 100h302v50H0z"/><path fill="url(#d)" d="M0 150h300v50H0z"/><path fill="#ffff24" d="m34.077 40.59 3.375-20.317h1.716l-1.515 9.099q-.2 1.227.182 2.167.393.93 1.256 1.467.863.527 2.11.527 1.255 0 2.291-.537a4.93 4.93 0 0 0 2.618-3.624l1.515-9.1h1.716L46.886 35H45.17l.384-2.234h-.096a5.35 5.35 0 0 1-1.985 1.793 5.4 5.4 0 0 1-2.54.633q-1.325 0-2.33-.662-.998-.66-1.391-1.86h-.096l-1.323 7.92zm18.56-2.215 1.687-10.163h-.096l-3.27 1.946.279-1.592 3.28-1.965h1.61L54.17 38.375zM79.11 13.655l-.26 1.61h-9.664l.259-1.61zm1.074-.26-.336 2.005q-.498 3.01-1.534 4.976-1.026 1.965-2.493 2.934-1.467.959-3.289.959-1.821 0-2.991-.969-1.17-.968-1.563-2.934-.393-1.965.106-4.966l.335-2.004q.508-2.992 1.534-4.929 1.026-1.946 2.493-2.886 1.467-.948 3.289-.949 1.83 0 3 .95 1.17.94 1.554 2.885.393 1.937-.105 4.929m-2.129 2.292.441-2.57q.374-2.271.134-3.816-.23-1.543-1.026-2.32-.795-.786-2.061-.786-1.928 0-3.365 1.774-1.43 1.764-1.995 5.148l-.431 2.57q-.576 3.405.268 5.216.844 1.803 2.742 1.803 1.285 0 2.35-.815 1.064-.816 1.812-2.388.757-1.572 1.131-3.816m4.84 11.688 1.687-10.163h-.096l-3.27 1.946.279-1.592 3.279-1.965h1.61L84.43 27.375z"/><path fill="#000" d="m109.11 77.655-.259 1.61h-9.665l.259-1.61zm1.074-.26-.336 2.005q-.498 3.01-1.534 4.976-1.026 1.965-2.493 2.934-1.467.959-3.289.959-1.821 0-2.991-.969-1.17-.968-1.563-2.934t.106-4.966l.335-2.004q.508-2.993 1.534-4.929 1.026-1.946 2.493-2.886 1.467-.95 3.289-.949 1.831 0 3.001.95 1.17.94 1.553 2.885.393 1.936-.105 4.929m-2.129 2.292.441-2.57q.374-2.271.134-3.815-.23-1.545-1.026-2.32-.795-.787-2.061-.787-1.928 0-3.365 1.774-1.43 1.764-1.995 5.149l-.431 2.57q-.576 3.403.268 5.215.845 1.803 2.742 1.803 1.285 0 2.35-.815 1.064-.816 1.812-2.388.757-1.572 1.131-3.816m2.117 11.688.172-1.15 5.101-4.133q.911-.728 1.486-1.275.585-.547.892-1.017.306-.48.383-1.006.154-.92-.46-1.496-.604-.576-1.687-.575-1.103 0-1.937.623-.825.623-.978 1.591h-1.553q.249-1.505 1.524-2.492 1.285-.998 3.088-.998 1.198 0 2.023.451.834.45 1.208 1.227.373.768.22 1.726-.114.709-.489 1.343-.364.623-1.112 1.352a30 30 0 0 1-1.994 1.716l-3.385 2.732v.067h6.261l-.211 1.314zM180.11 127.654l-.259 1.611h-9.665l.259-1.611zm1.074-.258-.336 2.004q-.499 3.01-1.534 4.976-1.026 1.965-2.493 2.934-1.467.958-3.289.958-1.821 0-2.991-.968-1.17-.969-1.563-2.934t.105-4.966l.336-2.004q.508-2.992 1.534-4.929 1.026-1.945 2.493-2.886 1.467-.949 3.289-.949 1.831 0 3.001.949 1.17.94 1.553 2.886.393 1.937-.105 4.929m-2.129 2.291.441-2.569q.374-2.272.134-3.817-.23-1.543-1.026-2.32-.795-.786-2.061-.786-1.928 0-3.365 1.774-1.43 1.764-1.995 5.149l-.431 2.569q-.575 3.404.268 5.216.845 1.803 2.742 1.803 1.285 0 2.35-.815 1.064-.816 1.812-2.388.758-1.572 1.131-3.816m6.45 11.841q-1.284 0-2.224-.431-.93-.422-1.39-1.179-.451-.748-.298-1.726h1.583q-.135.892.546 1.438.681.556 1.841.556 1.275 0 2.205-.633t1.084-1.524q.162-.969-.585-1.525-.748-.565-2.167-.565h-.748l.173-1.209h.719q1.265 0 2.138-.594.882-.604 1.016-1.438.153-.862-.355-1.419-.498-.556-1.677-.556-1.064 0-1.976.556-.91.557-1.074 1.476h-1.524a3.5 3.5 0 0 1 .844-1.735 4.5 4.5 0 0 1 1.639-1.16 5.4 5.4 0 0 1 2.11-.413q1.217 0 2.061.422.853.422 1.237 1.17.393.738.24 1.678-.173 1.046-.93 1.668-.749.624-1.937.863v.067q1.275.22 1.927 1.007t.479 1.899a3.3 3.3 0 0 1-.853 1.725q-.69.749-1.755 1.161-1.064.421-2.349.421M234.11 168.654l-.259 1.611h-9.665l.259-1.611zm1.074-.258-.336 2.004q-.499 3.01-1.534 4.976-1.026 1.965-2.493 2.934-1.467.958-3.289.958-1.821 0-2.991-.968-1.17-.969-1.563-2.934t.105-4.966l.336-2.004q.508-2.992 1.534-4.929 1.026-1.946 2.493-2.886 1.467-.948 3.289-.949 1.831 0 3.001.949 1.17.94 1.553 2.886.393 1.937-.105 4.929m-2.129 2.291.441-2.569q.374-2.272.134-3.817-.23-1.543-1.026-2.32-.795-.786-2.061-.786-1.928 0-3.365 1.774-1.43 1.764-1.995 5.149l-.431 2.569q-.575 3.404.268 5.216.845 1.803 2.742 1.803 1.285 0 2.35-.815 1.064-.816 1.812-2.388.758-1.572 1.131-3.816m2.174 9.31.182-1.227 7.124-8.169h1.036l-.269 1.87h-.719l-5.446 6.174v.058h7.604l-.202 1.294zm5.743 2.378.47-2.761.096-.537 1.419-8.476h1.505l-1.956 11.774zM34.077 86.59l3.375-20.317h1.716l-1.515 9.099q-.2 1.227.182 2.167.393.93 1.256 1.467.863.527 2.11.527 1.255 0 2.291-.537a4.93 4.93 0 0 0 2.618-3.624l1.515-9.1h1.716L46.886 81H45.17l.384-2.234h-.096a5.35 5.35 0 0 1-1.985 1.793 5.4 5.4 0 0 1-2.54.633q-1.325 0-2.33-.662-.998-.66-1.391-1.86h-.096l-1.323 7.92zm15.837-2.215.172-1.15 5.101-4.133q.912-.728 1.486-1.275.585-.547.892-1.017.307-.48.384-1.006.153-.92-.46-1.496-.605-.576-1.688-.575-1.102 0-1.937.623-.825.623-.978 1.591h-1.553q.249-1.505 1.524-2.492 1.285-.998 3.088-.998 1.198 0 2.023.451.834.45 1.208 1.227.375.768.22 1.726a3.8 3.8 0 0 1-.489 1.343q-.363.623-1.112 1.352a30 30 0 0 1-1.994 1.716l-3.385 2.732v.067h6.261l-.21 1.314zM31.077 143.59l3.375-20.317h1.716l-1.515 9.099q-.2 1.227.182 2.167.393.93 1.256 1.467.863.527 2.11.527 1.255 0 2.291-.537a4.93 4.93 0 0 0 2.618-3.624l1.515-9.099h1.716L43.886 138H42.17l.384-2.234h-.096a5.35 5.35 0 0 1-1.985 1.793 5.4 5.4 0 0 1-2.54.633q-1.325 0-2.33-.662-.998-.662-1.391-1.86h-.096l-1.323 7.92zm20.17-2.062q-1.284 0-2.224-.431-.93-.422-1.39-1.179-.45-.748-.297-1.726h1.582q-.135.892.546 1.438.681.556 1.841.556 1.275 0 2.205-.633t1.084-1.524q.162-.969-.585-1.525-.747-.565-2.167-.565h-.748l.173-1.209h.719q1.266 0 2.138-.594.882-.604 1.016-1.438.154-.862-.354-1.419-.5-.556-1.678-.556a3.7 3.7 0 0 0-1.975.556q-.912.557-1.074 1.476h-1.525a3.5 3.5 0 0 1 .844-1.735 4.5 4.5 0 0 1 1.64-1.16 5.4 5.4 0 0 1 2.109-.413q1.218 0 2.061.422.854.422 1.237 1.17.393.738.24 1.678-.172 1.046-.93 1.668-.748.624-1.937.863v.067q1.276.22 1.927 1.007.653.786.48 1.899a3.3 3.3 0 0 1-.854 1.725q-.69.749-1.754 1.161-1.065.421-2.35.421M31.077 193.59l3.375-20.317h1.716l-1.515 9.099q-.2 1.227.182 2.167.393.93 1.256 1.467.863.527 2.11.527 1.255 0 2.291-.537a4.93 4.93 0 0 0 2.618-3.624l1.515-9.099h1.716L43.886 188H42.17l.384-2.234h-.096a5.35 5.35 0 0 1-1.985 1.793 5.4 5.4 0 0 1-2.54.633q-1.325 0-2.33-.662-.998-.661-1.391-1.86h-.096l-1.323 7.92zm15.894-4.593.183-1.227 7.123-8.169h1.036l-.269 1.87h-.719l-5.446 6.174v.058h7.604l-.202 1.294zm5.744 2.378.47-2.761.095-.537 1.42-8.476h1.505l-1.956 11.774z"/><g filter="url(#e)"><path fill="#ff2c30" d="m91.83 50.422-3.11-11.12-8.076 8.252zM26-14l-.7.715 59.398 58.127.699-.715.7-.714-59.398-58.128z"/></g><path fill="#fff" d="M92.5 9a.5.5 0 0 0-1 0h1m-.5 91h.5v-2.528h-1V100zm0-7.583h.5V87.36h-1v5.056zm0-10.111h.5V77.25h-1v5.056zm0-10.112h.5V67.14h-1v5.055zm0-10.11h.5v-5.056h-1v5.055zm0-10.112h.5v-5.055h-1v5.055zm0-10.11h.5v-5.056h-1v5.055zm0-10.112h.5v-5.056h-1v5.056zm0-10.111h.5v-5.056h-1v5.056zm0-10.111h.5V9h-1v2.528zM162.5 50a.5.5 0 0 0-1 0h1m-.5 100h.5v-2.5h-1v2.5zm0-7.5h.5v-5h-1v5zm0-10h.5v-5h-1v5zm0-10h.5v-5h-1v5zm0-10h.5v-5h-1v5zm0-10h.5v-5h-1v5zm0-10h.5v-5h-1v5zm0-10h.5v-5h-1v5zm0-10h.5v-5h-1v5zm0-10h.5v-5h-1v5zm0-10h.5V50h-1v2.5z"/><g filter="url(#f)"><path fill="#ff2c30" d="m162 100-4.782-10.51-6.711 9.396zM92 50l-.581.814 62.676 44.769.581-.814.582-.814-62.677-44.769z"/></g><g filter="url(#g)"><path fill="#ff2c30" d="m241 150-5.362-10.226-6.175 9.757zm-79-50-.535.845 71.395 45.187.535-.845.535-.845-71.395-45.187z"/></g><g filter="url(#h)"><path fill="#ff2c30" d="m268 200 .329-11.542-10.161 5.486zm-27-50-.88.475 22.724 42.081.88-.475.88-.475-22.724-42.081z"/></g></g><defs><filter id="e" width="566.528" height="565.137" x="-224.699" y="-264.715" color-interpolation-filters="sRGB" filterUnits="userSpaceOnUse"><feFlood flood-opacity="0" result="BackgroundImageFix"/><feColorMatrix in="SourceAlpha" result="hardAlpha" values="0 0 0 0 0 0 0 0 0 0 0 0 0 0 0 0 0 0 127 0"/><feOffset/><feGaussianBlur stdDeviation="5.526"/><feColorMatrix values="0 0 0 0 1 0 0 0 0 0.25098 0 0 0 0 0.0745098 0 0 0 1 0"/><feBlend in2="BackgroundImageFix" result="effect1_dropShadow_260_549"/><feColorMatrix in="SourceAlpha" result="hardAlpha" values="0 0 0 0 0 0 0 0 0 0 0 0 0 0 0 0 0 0 127 0"/><feOffset/><feGaussianBlur stdDeviation="11.053"/><feColorMatrix values="0 0 0 0 1 0 0 0 0 0.25098 0 0 0 0 0.0745098 0 0 0 1 0"/><feBlend in2="effect1_dropShadow_260_549" result="effect2_dropShadow_260_549"/><feColorMatrix in="SourceAlpha" result="hardAlpha" values="0 0 0 0 0 0 0 0 0 0 0 0 0 0 0 0 0 0 127 0"/><feOffset/><feGaussianBlur stdDeviation="38.685"/><feColorMatrix values="0 0 0 0 1 0 0 0 0 0.25098 0 0 0 0 0.0745098 0 0 0 1 0"/><feBlend in2="effect2_dropShadow_260_549" result="effect3_dropShadow_260_549"/><feColorMatrix in="SourceAlpha" result="hardAlpha" values="0 0 0 0 0 0 0 0 0 0 0 0 0 0 0 0 0 0 127 0"/><feOffset/><feGaussianBlur stdDeviation="77.37"/><feColorMatrix values="0 0 0 0 1 0 0 0 0 0.25098 0 0 0 0 0.0745098 0 0 0 1 0"/><feBlend in2="effect3_dropShadow_260_549" result="effect4_dropShadow_260_549"/><feColorMatrix in="SourceAlpha" result="hardAlpha" values="0 0 0 0 0 0 0 0 0 0 0 0 0 0 0 0 0 0 127 0"/><feOffset/><feGaussianBlur stdDeviation="125"/><feColorMatrix values="0 0 0 0 1 0 0 0 0 0.25098 0 0 0 0 0.0745098 0 0 0 1 0"/><feBlend in2="effect4_dropShadow_260_549" result="effect5_dropShadow_260_549"/><feColorMatrix in="SourceAlpha" result="hardAlpha" values="0 0 0 0 0 0 0 0 0 0 0 0 0 0 0 0 0 0 127 0"/><feOffset/><feGaussianBlur stdDeviation="125"/><feColorMatrix values="0 0 0 0 1 0 0 0 0 0.25098 0 0 0 0 0.0745098 0 0 0 1 0"/><feBlend in2="effect5_dropShadow_260_549" result="effect6_dropShadow_260_549"/><feBlend in="SourceGraphic" in2="effect6_dropShadow_260_549" result="shape"/></filter><filter id="f" width="570.581" height="550.814" x="-158.581" y="-200.814" color-interpolation-filters="sRGB" filterUnits="userSpaceOnUse"><feFlood flood-opacity="0" result="BackgroundImageFix"/><feColorMatrix in="SourceAlpha" result="hardAlpha" values="0 0 0 0 0 0 0 0 0 0 0 0 0 0 0 0 0 0 127 0"/><feOffset/><feGaussianBlur stdDeviation="5.526"/><feColorMatrix values="0 0 0 0 1 0 0 0 0 0.25098 0 0 0 0 0.0745098 0 0 0 1 0"/><feBlend in2="BackgroundImageFix" result="effect1_dropShadow_260_549"/><feColorMatrix in="SourceAlpha" result="hardAlpha" values="0 0 0 0 0 0 0 0 0 0 0 0 0 0 0 0 0 0 127 0"/><feOffset/><feGaussianBlur stdDeviation="11.053"/><feColorMatrix values="0 0 0 0 1 0 0 0 0 0.25098 0 0 0 0 0.0745098 0 0 0 1 0"/><feBlend in2="effect1_dropShadow_260_549" result="effect2_dropShadow_260_549"/><feColorMatrix in="SourceAlpha" result="hardAlpha" values="0 0 0 0 0 0 0 0 0 0 0 0 0 0 0 0 0 0 127 0"/><feOffset/><feGaussianBlur stdDeviation="38.685"/><feColorMatrix values="0 0 0 0 1 0 0 0 0 0.25098 0 0 0 0 0.0745098 0 0 0 1 0"/><feBlend in2="effect2_dropShadow_260_549" result="effect3_dropShadow_260_549"/><feColorMatrix in="SourceAlpha" result="hardAlpha" values="0 0 0 0 0 0 0 0 0 0 0 0 0 0 0 0 0 0 127 0"/><feOffset/><feGaussianBlur stdDeviation="77.37"/><feColorMatrix values="0 0 0 0 1 0 0 0 0 0.25098 0 0 0 0 0.0745098 0 0 0 1 0"/><feBlend in2="effect3_dropShadow_260_549" result="effect4_dropShadow_260_549"/><feColorMatrix in="SourceAlpha" result="hardAlpha" values="0 0 0 0 0 0 0 0 0 0 0 0 0 0 0 0 0 0 127 0"/><feOffset/><feGaussianBlur stdDeviation="125"/><feColorMatrix values="0 0 0 0 1 0 0 0 0 0.25098 0 0 0 0 0.0745098 0 0 0 1 0"/><feBlend in2="effect4_dropShadow_260_549" result="effect5_dropShadow_260_549"/><feColorMatrix in="SourceAlpha" result="hardAlpha" values="0 0 0 0 0 0 0 0 0 0 0 0 0 0 0 0 0 0 127 0"/><feOffset/><feGaussianBlur stdDeviation="125"/><feColorMatrix values="0 0 0 0 1 0 0 0 0 0.25098 0 0 0 0 0.0745098 0 0 0 1 0"/><feBlend in2="effect5_dropShadow_260_549" result="effect6_dropShadow_260_549"/><feBlend in="SourceGraphic" in2="effect6_dropShadow_260_549" result="shape"/></filter><filter id="g" width="579.535" height="550.845" x="-88.535" y="-150.845" color-interpolation-filters="sRGB" filterUnits="userSpaceOnUse"><feFlood flood-opacity="0" result="BackgroundImageFix"/><feColorMatrix in="SourceAlpha" result="hardAlpha" values="0 0 0 0 0 0 0 0 0 0 0 0 0 0 0 0 0 0 127 0"/><feOffset/><feGaussianBlur stdDeviation="5.526"/><feColorMatrix values="0 0 0 0 1 0 0 0 0 0.25098 0 0 0 0 0.0745098 0 0 0 1 0"/><feBlend in2="BackgroundImageFix" result="effect1_dropShadow_260_549"/><feColorMatrix in="SourceAlpha" result="hardAlpha" values="0 0 0 0 0 0 0 0 0 0 0 0 0 0 0 0 0 0 127 0"/><feOffset/><feGaussianBlur stdDeviation="11.053"/><feColorMatrix values="0 0 0 0 1 0 0 0 0 0.25098 0 0 0 0 0.0745098 0 0 0 1 0"/><feBlend in2="effect1_dropShadow_260_549" result="effect2_dropShadow_260_549"/><feColorMatrix in="SourceAlpha" result="hardAlpha" values="0 0 0 0 0 0 0 0 0 0 0 0 0 0 0 0 0 0 127 0"/><feOffset/><feGaussianBlur stdDeviation="38.685"/><feColorMatrix values="0 0 0 0 1 0 0 0 0 0.25098 0 0 0 0 0.0745098 0 0 0 1 0"/><feBlend in2="effect2_dropShadow_260_549" result="effect3_dropShadow_260_549"/><feColorMatrix in="SourceAlpha" result="hardAlpha" values="0 0 0 0 0 0 0 0 0 0 0 0 0 0 0 0 0 0 127 0"/><feOffset/><feGaussianBlur stdDeviation="77.37"/><feColorMatrix values="0 0 0 0 1 0 0 0 0 0.25098 0 0 0 0 0.0745098 0 0 0 1 0"/><feBlend in2="effect3_dropShadow_260_549" result="effect4_dropShadow_260_549"/><feColorMatrix in="SourceAlpha" result="hardAlpha" values="0 0 0 0 0 0 0 0 0 0 0 0 0 0 0 0 0 0 127 0"/><feOffset/><feGaussianBlur stdDeviation="125"/><feColorMatrix values="0 0 0 0 1 0 0 0 0 0.25098 0 0 0 0 0.0745098 0 0 0 1 0"/><feBlend in2="effect4_dropShadow_260_549" result="effect5_dropShadow_260_549"/><feColorMatrix in="SourceAlpha" result="hardAlpha" values="0 0 0 0 0 0 0 0 0 0 0 0 0 0 0 0 0 0 127 0"/><feOffset/><feGaussianBlur stdDeviation="125"/><feColorMatrix values="0 0 0 0 1 0 0 0 0 0.25098 0 0 0 0 0.0745098 0 0 0 1 0"/><feBlend in2="effect5_dropShadow_260_549" result="effect6_dropShadow_260_549"/><feBlend in="SourceGraphic" in2="effect6_dropShadow_260_549" result="shape"/></filter><filter id="h" width="528.208" height="550.475" x="-9.88" y="-100.475" color-interpolation-filters="sRGB" filterUnits="userSpaceOnUse"><feFlood flood-opacity="0" result="BackgroundImageFix"/><feColorMatrix in="SourceAlpha" result="hardAlpha" values="0 0 0 0 0 0 0 0 0 0 0 0 0 0 0 0 0 0 127 0"/><feOffset/><feGaussianBlur stdDeviation="5.526"/><feColorMatrix values="0 0 0 0 1 0 0 0 0 0.25098 0 0 0 0 0.0745098 0 0 0 1 0"/><feBlend in2="BackgroundImageFix" result="effect1_dropShadow_260_549"/><feColorMatrix in="SourceAlpha" result="hardAlpha" values="0 0 0 0 0 0 0 0 0 0 0 0 0 0 0 0 0 0 127 0"/><feOffset/><feGaussianBlur stdDeviation="11.053"/><feColorMatrix values="0 0 0 0 1 0 0 0 0 0.25098 0 0 0 0 0.0745098 0 0 0 1 0"/><feBlend in2="effect1_dropShadow_260_549" result="effect2_dropShadow_260_549"/><feColorMatrix in="SourceAlpha" result="hardAlpha" values="0 0 0 0 0 0 0 0 0 0 0 0 0 0 0 0 0 0 127 0"/><feOffset/><feGaussianBlur stdDeviation="38.685"/><feColorMatrix values="0 0 0 0 1 0 0 0 0 0.25098 0 0 0 0 0.0745098 0 0 0 1 0"/><feBlend in2="effect2_dropShadow_260_549" result="effect3_dropShadow_260_549"/><feColorMatrix in="SourceAlpha" result="hardAlpha" values="0 0 0 0 0 0 0 0 0 0 0 0 0 0 0 0 0 0 127 0"/><feOffset/><feGaussianBlur stdDeviation="77.37"/><feColorMatrix values="0 0 0 0 1 0 0 0 0 0.25098 0 0 0 0 0.0745098 0 0 0 1 0"/><feBlend in2="effect3_dropShadow_260_549" result="effect4_dropShadow_260_549"/><feColorMatrix in="SourceAlpha" result="hardAlpha" values="0 0 0 0 0 0 0 0 0 0 0 0 0 0 0 0 0 0 127 0"/><feOffset/><feGaussianBlur stdDeviation="125"/><feColorMatrix values="0 0 0 0 1 0 0 0 0 0.25098 0 0 0 0 0.0745098 0 0 0 1 0"/><feBlend in2="effect4_dropShadow_260_549" result="effect5_dropShadow_260_549"/><feColorMatrix in="SourceAlpha" result="hardAlpha" values="0 0 0 0 0 0 0 0 0 0 0 0 0 0 0 0 0 0 127 0"/><feOffset/><feGaussianBlur stdDeviation="125"/><feColorMatrix values="0 0 0 0 1 0 0 0 0 0.25098 0 0 0 0 0.0745098 0 0 0 1 0"/><feBlend in2="effect5_dropShadow_260_549" result="effect6_dropShadow_260_549"/><feBlend in="SourceGraphic" in2="effect6_dropShadow_260_549" result="shape"/></filter><linearGradient id="b" x1="0" x2="300" y1="75" y2="75" gradientUnits="userSpaceOnUse"><stop stop-color="#4ad6db"/><stop offset=".202" stop-color="#bed0d0"/><stop offset=".543" stop-color="#4ad6db"/><stop offset="1" stop-color="#b7cdce"/></linearGradient><linearGradient id="c" x1="0" x2="302" y1="125" y2="125" gradientUnits="userSpaceOnUse"><stop stop-color="#4a67da"/><stop offset=".202" stop-color="#bed0d0"/><stop offset=".543" stop-color="#4a67da"/><stop offset="1" stop-color="#b7cdce"/></linearGradient><linearGradient id="d" x1="0" x2="300" y1="175" y2="175" gradientUnits="userSpaceOnUse"><stop stop-color="#d86253"/><stop offset=".202" stop-color="#bed0d0"/><stop offset=".543" stop-color="#d86253"/><stop offset="1" stop-color="#b7cdce"/></linearGradient><clipPath id="a"><path fill="#fff" d="M0 0h300v200H0z"/></clipPath></defs></svg>