<svg xmlns="http://www.w3.org/2000/svg" width="300" height="200" fill="none" viewBox="0 0 300 200"><path fill="#000" d="M0 0h300v200H0z"/><path fill="url(#a)" d="M0 51h300v108H0z"/><path fill="#000" d="m33 82.546-.284 1.76h-8.341l.296-1.76zm-5.046-4.182h2.035l-2.841 17.08q-.182 1.09.09 1.715.274.614.841.875.57.25 1.25.25.399 0 .682-.045.296-.057.523-.114l.148 1.83q-.33.113-.784.204a5 5 0 0 1-1.091.102 4.4 4.4 0 0 1-2.057-.488 3.24 3.24 0 0 1-1.432-1.455q-.489-.966-.261-2.397z"/><path fill="#ff2c30" d="M97.83 50.422 92.8 40.028l-6.487 9.552zM28 3l-.562.827 62.384 42.366.562-.827.562-.827L28.562 2.173zM206 192l-4.296-10.718-7.134 9.08zm-42-33-.618.786 34.923 27.44.618-.786.618-.787-34.923-27.439zM250.655 153.2a.999.999 0 1 0 1.124-1.654l-.562.827zM99 49l-.562.827 2.114 1.436.562-.827.562-.828-2.114-1.435zm6.342 4.307-.561.828 4.228 2.871.562-.827.561-.828-4.228-2.871zm8.457 5.743-.562.827 4.228 2.872.562-.827.562-.828-4.228-2.871zm8.456 5.743-.561.827 4.228 2.872.562-.827.561-.828-4.228-2.871zm8.457 5.743-.562.827 4.228 2.872.562-.828.562-.827-4.228-2.871zm8.456 5.743-.561.827 4.228 2.872.562-.828.561-.827-4.228-2.871zm8.457 5.743-.562.827 4.228 2.872.562-.828.562-.827-4.228-2.871zm8.456 5.743-.561.827 4.228 2.872.562-.828.561-.827-4.228-2.871zm8.457 5.743-.562.827 4.228 2.872.562-.828.562-.827-4.228-2.871zm8.456 5.743-.561.827 4.228 2.872.562-.828.561-.827-4.228-2.871zm8.457 5.743-.562.827 4.228 2.872.562-.828.562-.827-4.228-2.871zm8.456 5.743-.561.827 4.228 2.871.562-.827.561-.827-4.228-2.872zm8.457 5.743-.562.827 4.228 2.871.562-.827.562-.827-4.228-2.872zm8.456 5.743-.561.827 4.228 2.871.562-.827.561-.827-4.228-2.872zm8.457 5.743-.562.827 4.228 2.871.562-.827.562-.827-4.228-2.872zm8.456 5.743-.561.827 4.228 2.871.562-.827.561-.827-4.228-2.872zm8.457 5.742-.562.828 4.228 2.871.562-.827.562-.827-4.228-2.872zm8.456 5.743-.561.828 4.228 2.871.562-.827.561-.827-4.228-2.872zm8.457 5.743-.562.828 2.114 1.435.562-.827.562-.827-2.114-1.436zm1.552 2.263a.999.999 0 1 0 1.124-1.654l-.562.827zM99 49l-.562.827 2.114 1.436.562-.827.562-.828-2.114-1.435zm6.342 4.307-.561.828 4.228 2.871.562-.827.561-.828-4.228-2.871zm8.457 5.743-.562.827 4.228 2.872.562-.827.562-.828-4.228-2.871zm8.456 5.743-.561.827 4.228 2.872.562-.827.561-.828-4.228-2.871zm8.457 5.743-.562.827 4.228 2.872.562-.828.562-.827-4.228-2.871zm8.456 5.743-.561.827 4.228 2.872.562-.828.561-.827-4.228-2.871zm8.457 5.743-.562.827 4.228 2.872.562-.828.562-.827-4.228-2.871zm8.456 5.743-.561.827 4.228 2.872.562-.828.561-.827-4.228-2.871zm8.457 5.743-.562.827 4.228 2.872.562-.828.562-.827-4.228-2.871zm8.456 5.743-.561.827 4.228 2.872.562-.828.561-.827-4.228-2.871zm8.457 5.743-.562.827 4.228 2.872.562-.828.562-.827-4.228-2.871zm8.456 5.743-.561.827 4.228 2.871.562-.827.561-.827-4.228-2.872zm8.457 5.743-.562.827 4.228 2.871.562-.827.562-.827-4.228-2.872zm8.456 5.743-.561.827 4.228 2.871.562-.827.561-.827-4.228-2.872zm8.457 5.743-.562.827 4.228 2.871.562-.827.562-.827-4.228-2.872zm8.456 5.743-.561.827 4.228 2.871.562-.827.561-.827-4.228-2.872zm8.457 5.742-.562.828 4.228 2.871.562-.827.562-.827-4.228-2.872zm8.456 5.743-.561.828 4.228 2.871.562-.827.561-.827-4.228-2.872zm8.457 5.743-.562.828 2.114 1.435.562-.827.562-.827-2.114-1.436z"/><path fill="#ff2c30" d="m164 161-.103-11.547-9.948 5.863zM98 49l-.862.508 61.431 104.246.862-.508.861-.508-61.43-104.246z"/><path fill="#fff" d="M98.5 3a.5.5 0 0 0-1 0h1M98 51h.5v-2.4h-1V51zm0-7.2h.5V39h-1v4.8zm0-9.6h.5v-4.8h-1v4.8zm0-9.6h.5v-4.8h-1v4.8zm0-9.6h.5v-4.8h-1V15zm0-9.6h.5V3h-1v2.4z"/><path fill="#000" d="M98.49 49.989a.5.5 0 0 0-.999.023l.5-.012zM100 137l.5-.012-.056-2.416-.5.011-.5.012.056 2.417zm-.167-7.25.499-.012-.111-4.833-.5.012-.5.011.112 4.834zm-.224-9.667.5-.011-.111-4.834-.5.012-.5.012.111 4.833zm-.223-9.666.5-.012-.112-4.833-.5.011-.5.012.112 4.833zm-.223-9.667.5-.012-.112-4.833-.5.012-.5.011.112 4.834zm-.223-9.667.5-.011-.112-4.834-.5.012-.5.012.112 4.833zm-.224-9.666.5-.012-.111-4.833-.5.011-.5.012.111 4.833zm-.223-9.667.5-.011-.112-4.834-.5.012-.5.011.112 4.834zm-.223-9.667.5-.011-.112-4.834-.5.012-.5.012.112 4.833zm-.223-9.666.5-.012-.056-2.416-.5.011-.5.012.056 2.416zM11 51 5.227 61h11.546zm0 86 5.773-10H5.226zm0-77h-1v68h2V60zM164 159l10.93-3.724-8.69-7.604zm35-40-10.93 3.724 8.69 7.604zm-29.073 33.227.752.658 23.147-26.453-.753-.659-.752-.658-23.147 26.453zM169.121 133.163l.099-.616q.279-1.561.776-2.536a5.5 5.5 0 0 1 1.272-1.64 11.4 11.4 0 0 1 1.83-1.293 10 10 0 0 0 1.382-.974q.607-.507.984-1.134.388-.626.508-1.452.168-1.083-.189-1.879a2.63 2.63 0 0 0-1.124-1.243q-.756-.447-1.8-.447-1.014 0-1.958.447-.945.438-1.631 1.283t-.935 2.048h-1.879q.318-1.64 1.283-2.843a6.65 6.65 0 0 1 2.356-1.87 6.9 6.9 0 0 1 2.973-.656q1.661 0 2.794.686a3.9 3.9 0 0 1 1.641 1.879q.507 1.184.268 2.675-.168 1.074-.626 1.899a5.8 5.8 0 0 1-1.203 1.482q-.746.666-1.79 1.272-.984.578-1.611 1.164a4.4 4.4 0 0 0-.974 1.322q-.348.736-.537 1.81l-.11.616zm.179 5.986a1.35 1.35 0 0 1-1.005-.417 1.42 1.42 0 0 1-.397-1.015q0-.596.437-1.004a1.45 1.45 0 0 1 1.024-.408q.586 0 1.005.418t.397.994a1.4 1.4 0 0 1-.218.726 1.6 1.6 0 0 1-.527.517 1.4 1.4 0 0 1-.716.189"/><path fill="#fff" d="m83.239 31 2.909-17.454h2.034L85.272 31zm4.659-20.489q-.636 0-1.08-.431a1.39 1.39 0 0 1-.42-1.046q.022-.58.466-1a1.5 1.5 0 0 1 1.068-.432q.636 0 1.08.443.443.432.42 1.046-.012.58-.466 1-.455.42-1.068.42"/><path fill="#000" d="m103.216 97 2.909-17.454h1.966l-.455 2.681h.148q.727-1.318 2.171-2.125a6.2 6.2 0 0 1 3.102-.818q.25 0 .557.011.306 0 .511.023l-.352 2.057q-.136-.023-.478-.068a5.4 5.4 0 0 0-.738-.046q-1.364 0-2.523.58a5.5 5.5 0 0 0-1.932 1.58 5.24 5.24 0 0 0-1 2.306L105.239 97z"/><defs><linearGradient id="a" x1="0" x2="300" y1="105" y2="105" gradientUnits="userSpaceOnUse"><stop stop-color="#4ad6db"/><stop offset=".202" stop-color="#bed0d0"/><stop offset=".543" stop-color="#4ad6db"/><stop offset="1" stop-color="#b7cdce"/></linearGradient></defs></svg>