<svg xmlns="http://www.w3.org/2000/svg" width="300" height="200" fill="none" viewBox="0 0 300 200"><path fill="#000" d="M0 0h300v200H0z"/><path stroke="#fff" stroke-width="2" d="M6 99h288"/><circle cx="17.5" cy="99.5" r="4.5" fill="#ff2c30"/><circle cx="269.5" cy="99.5" r="4.5" fill="#4fff2c"/><path fill="#ff2c30" d="m102 55-11.526-.692 5.164 10.328zm-12 6 .447.894 3.95-1.975-.447-.894-.447-.895-3.95 1.976zM28.625 74.489q-.602 3.602-2.318 6.261t-4.193 4.114a10.45 10.45 0 0 1-5.387 1.454q-2.988 0-5.045-1.489-2.046-1.5-2.898-4.204-.852-2.716-.25-6.386.603-3.603 2.318-6.262 1.716-2.66 4.205-4.113a10.53 10.53 0 0 1 5.409-1.455q2.954 0 5 1.489t2.909 4.204q.865 2.704.25 6.387m-2.034-.25q.522-3.114-.137-5.307-.647-2.193-2.227-3.353-1.58-1.17-3.83-1.17a8.5 8.5 0 0 0-4.374 1.205q-2.046 1.193-3.489 3.454-1.443 2.25-1.977 5.42-.512 3.103.136 5.308.648 2.193 2.228 3.363 1.59 1.16 3.852 1.16 2.34 0 4.386-1.205t3.477-3.455q1.444-2.261 1.955-5.42M82.41 139.33l1.806-10.785h2.023L83.329 146h-2.022l.477-2.898h-.148q-.818 1.34-2.318 2.239-1.489.886-3.409.886-1.67 0-2.852-.727-1.17-.738-1.67-2.159t-.16-3.489l1.898-11.307h2.023l-1.864 11.182q-.33 2.046.66 3.296 1 1.238 2.885 1.238 1.182 0 2.364-.568a5.9 5.9 0 0 0 2.068-1.659q.887-1.102 1.148-2.704"/><path fill="#4fff2c" d="M276.625 62.727 272.761 86h-2.125l3.864-23.273zM233.636 132.545 224.352 150h-2.159l-3.466-17.455h2.103l2.727 14.785h.148l7.647-14.785zM213.031 67.946l-5.819-9.974-5.728 10.026zm-11.566-7.76a1 1 0 0 0-.992 1.736l.496-.868zm3.752 3.295.496-.868-4.248-2.427-.496.868-.496.868 4.248 2.428z"/><path fill="url(#a)" d="M170 100.288c0-39.072-17.595-74.46-19.145-77.5C148.102 28.327 132 62.334 132 99.711c0 39.072 17.595 74.461 19.145 77.501 2.753-5.541 18.855-39.548 18.855-76.925" opacity=".84"/><path stroke="#ff2c30" stroke-width="2" d="m14.553 99.106 136-68"/><path stroke="#4fff2c" stroke-width="2" d="m269.504 99.868-119-68"/><path fill="#ff2c30" d="m19 115 10 5.774v-11.548zm113 0-10-5.774v11.548zm-104 0v1h95v-2H28z"/><path fill="#4fff2c" d="m173 115 10 5.774v-11.548zm96 0-10-5.774v11.548zm-87 0v1h78v-2h-78z"/><defs><linearGradient id="a" x1="151" x2="151" y1="22" y2="178" gradientUnits="userSpaceOnUse"><stop offset=".01" stop-color="#36b5b9"/><stop offset=".308" stop-color="#8af5f9"/><stop offset=".673" stop-color="#309ea2"/><stop offset=".952" stop-color="#84f3f6"/></linearGradient></defs></svg>