<svg xmlns="http://www.w3.org/2000/svg" width="300" height="200" fill="none" viewBox="0 0 300 200"><g clip-path="url(#a)"><path fill="#000" d="M0 0h300v200H0z"/><path stroke="#fff" stroke-width="2" d="M-22 103h344"/><path fill="url(#b)" d="M28 27.5V184l238.711-25.31a2 2 0 0 0 1.789-1.989V49.5z" opacity=".69"/><path fill="#ffff24" d="m120.54 130.273-.249 1.486h-7.23l.24-1.486zM113.109 145l2.81-16.885q.192-1.188.872-2.003a4.5 4.5 0 0 1 1.649-1.237 4.8 4.8 0 0 1 1.966-.422q.671 0 1.093.115.422.105.662.211l-.729 1.496a27 27 0 0 0-.46-.135 2.5 2.5 0 0 0-.681-.076q-1.113 0-1.822.623t-.911 1.783L114.816 145zm10.933 3.567q-1.295 0-2.195-.652-.892-.642-1.276-1.793-.383-1.15-.134-2.666.249-1.496.988-2.627a5.5 5.5 0 0 1 1.841-1.764 4.75 4.75 0 0 1 2.406-.633q1.351 0 2.244.671.901.661 1.265 1.812.375 1.141.144 2.56-.24 1.506-.987 2.647a5.4 5.4 0 0 1-1.851 1.793 4.7 4.7 0 0 1-2.445.652m.144-1.256q.91 0 1.649-.518.748-.518 1.247-1.4a5.7 5.7 0 0 0 .671-1.956q.163-1.035-.039-1.889-.201-.863-.747-1.371-.547-.508-1.439-.508-.872 0-1.61.518-.73.509-1.237 1.38a5.6 5.6 0 0 0-.672 1.937q-.182 1.094.02 1.947.2.863.748 1.361.546.5 1.409.499M236.54 134.273l-.249 1.486h-7.23l.24-1.486zM229.109 149l2.81-16.885q.191-1.188.872-2.003a4.5 4.5 0 0 1 1.649-1.237 4.8 4.8 0 0 1 1.966-.422q.671 0 1.093.115.422.105.662.211l-.729 1.496a27 27 0 0 0-.46-.135 2.5 2.5 0 0 0-.681-.076q-1.113 0-1.822.623t-.911 1.783L230.816 149zm11.029 3.567q-1.42 0-2.339-.652-.912-.642-1.276-1.784-.354-1.14-.105-2.627t.997-2.627q.748-1.15 1.841-1.793a4.6 4.6 0 0 1 2.387-.652q1.228 0 2.11.595.89.585 1.285 1.668.393 1.074.134 2.55l-.106.576h-7.996l.153-1.045h6.53q.144-.864-.096-1.563a2.25 2.25 0 0 0-.796-1.122q-.557-.422-1.361-.422-.796 0-1.535.451-.728.44-1.246 1.189a4.05 4.05 0 0 0-.671 1.649l-.134.882q-.26 1.582.374 2.541.632.958 2.061.958.633 0 1.16-.21.528-.202.93-.528.403-.326.652-.709l1.381.211q-.451.93-1.563 1.697t-2.771.767"/><path fill="url(#c)" d="M48 105.295c0-40.073-17.595-76.37-19.145-79.488C26.102 31.49 10 66.37 10 104.705c0 40.073 17.595 76.369 19.145 79.488C31.898 178.51 48 143.631 48 105.295" opacity=".84"/><path fill="url(#d)" d="M255 104.705c0-27.801 12.039-52.982 13.099-55.145C269.983 53.502 281 77.7 281 104.295c0 27.801-12.039 52.982-13.099 55.145C266.017 155.497 255 131.3 255 104.705" opacity=".84"/><path fill="#ffff24" d="m29 114 10.033 5.715-.067-11.547zm176-1.023-10.034-5.716.068 11.547zm-167 .971.006 1 158-.919-.006-1-.006-1-158 .919zM211.995 113.5l10 5.774v-11.548zm51.01 0-10-5.774v11.548zm-42.01 0v1h33.01v-2h-33.01z"/></g><defs><linearGradient id="b" x1="167" x2="167" y1="24" y2="184" gradientUnits="userSpaceOnUse"><stop stop-color="#d9d9d9"/><stop offset="1" stop-color="#737373"/></linearGradient><linearGradient id="c" x1="29" x2="29" y1="25" y2="185" gradientUnits="userSpaceOnUse"><stop offset=".01" stop-color="#49ebf0"/><stop offset=".308" stop-color="#8af5f9"/><stop offset=".673" stop-color="#49ebf0"/><stop offset=".952" stop-color="#84f3f6"/></linearGradient><linearGradient id="d" x1="268" x2="268" y1="49" y2="160" gradientUnits="userSpaceOnUse"><stop offset=".01" stop-color="#49ebf0"/><stop offset=".308" stop-color="#8af5f9"/><stop offset=".673" stop-color="#49ebf0"/><stop offset=".952" stop-color="#84f3f6"/></linearGradient><clipPath id="a"><path fill="#fff" d="M0 0h300v200H0z"/></clipPath></defs></svg>