<svg xmlns="http://www.w3.org/2000/svg" width="300" height="200" fill="none" viewBox="0 0 300 200"><path fill="#000" d="M0 0h300v200H0z"/><path fill="url(#a)" d="m149.5 14 81 170.25H74z" opacity=".8"/><path fill="#ff2c30" d="m62.825 99-11.25-2.597 3.375 11.042zM242.392 125.235l-5.421-10.195-6.119 9.792z"/><path fill="#fff" d="M172.67 38h-2.227l12.33-23.273h2.272L189.648 38h-2.228l-3.875-20.511h-.147zm3.091-8.92h11.546l-.318 1.909h-11.546z"/><path fill="#ffff24" d="m116.216 121 2.909-17.455h1.966l-.455 2.682h.148q.727-1.318 2.171-2.125a6.23 6.23 0 0 1 3.102-.818q.25 0 .557.011.306 0 .511.023l-.352 2.057q-.136-.023-.478-.068a5.5 5.5 0 0 0-.738-.046q-1.364 0-2.523.58a5.5 5.5 0 0 0-1.932 1.579 5.24 5.24 0 0 0-1 2.307L118.239 121zm13.028 4 2-12.045h-.113l-3.875 2.306.329-1.886 3.887-2.33h1.909L131.062 125zM163.216 134l2.909-17.455h1.966l-.455 2.682h.148q.727-1.318 2.171-2.125a6.23 6.23 0 0 1 3.102-.818q.25 0 .557.011.306 0 .511.023l-.352 2.057q-.136-.023-.478-.068a5.5 5.5 0 0 0-.738-.046q-1.364 0-2.523.58a5.5 5.5 0 0 0-1.932 1.579 5.24 5.24 0 0 0-1 2.307L165.239 134zm9.801 4 .205-1.364 6.045-4.897q1.08-.864 1.761-1.512.694-.648 1.057-1.204a3 3 0 0 0 .455-1.193q.181-1.092-.546-1.773-.716-.682-2-.682-1.306 0-2.295.739-.978.738-1.159 1.886h-1.841q.295-1.784 1.807-2.955 1.523-1.18 3.659-1.181 1.42 0 2.397.534.99.534 1.432 1.454.444.909.262 2.046a4.5 4.5 0 0 1-.58 1.591q-.432.738-1.318 1.602-.887.852-2.364 2.034l-4.011 3.239v.079h7.42l-.25 1.557z"/><path stroke="#000" stroke-width="2" d="M139 35c1.495.234-.452 5.039 10.774 5C161 39.96 158.11 35.086 161 35"/><path stroke="#ffff24" stroke-width="2" d="M137.3 82c-.275.745 3.423 1.998.183 6.81-3.24 4.813-5.599 1.449-6.483 2.654M176.576 93c-.107.65-2.6-.14-2.477 4.714.122 4.855 2.607 3.552 2.678 4.801"/><path stroke="#ff2c30" stroke-width="2" d="m21.5 114 100.204-35.894c.193-.07.402-.077.599-.024l66.083 17.887q.114.03.217.087L284 148"/><path stroke="#fff" stroke-dasharray="5 5" d="m105.394 58.692 32 41M168.764 106.559l41-22"/><defs><linearGradient id="a" x1="149.5" x2="147.5" y1="14" y2="221.5" gradientUnits="userSpaceOnUse"><stop stop-color="#aafcff"/><stop offset=".341" stop-color="#41c1c5"/><stop offset=".654" stop-color="#aafcff"/><stop offset="1" stop-color="#49ebf0"/></linearGradient></defs></svg>