<svg xmlns="http://www.w3.org/2000/svg" width="300" height="200" fill="none" viewBox="0 0 300 200"><path fill="#000" d="M0 0h300v200H0z"/><path fill="url(#a)" d="M2 81h298v105H2z"/><path fill="#ffff24" d="m59.09 62.625 4-24.08h2.035L63.33 49.33q-.24 1.454.215 2.568a3.7 3.7 0 0 0 1.49 1.738q1.02.625 2.5.625 1.488 0 2.715-.636a5.86 5.86 0 0 0 3.102-4.295l1.796-10.785h2.034L74.272 56H72.24l.454-2.648h-.114a6.34 6.34 0 0 1-2.352 2.125q-1.431.75-3.011.75-1.568 0-2.761-.784-1.182-.784-1.648-2.204h-.114l-1.568 9.386zM81.089 60l2-12.045h-.114L79.1 50.26l.33-1.886 3.886-2.33h1.91L82.905 60z"/><path fill="#000" d="m59.09 132.625 4-24.08h2.035L63.33 119.33q-.24 1.454.215 2.568.466 1.102 1.49 1.738 1.02.625 2.5.625 1.488 0 2.715-.636a5.85 5.85 0 0 0 3.102-4.295l1.796-10.785h2.034L74.272 126H72.24l.454-2.648h-.114a6.34 6.34 0 0 1-2.352 2.125q-1.431.75-3.011.75-1.568 0-2.761-.784-1.182-.784-1.648-2.204h-.114l-1.568 9.386zM77.86 130l.205-1.364 6.046-4.897q1.08-.864 1.761-1.512.693-.648 1.057-1.204.364-.569.454-1.193.183-1.092-.545-1.773-.716-.682-2-.682-1.306 0-2.295.739-.977.738-1.16 1.886h-1.84q.296-1.784 1.806-2.955 1.523-1.18 3.66-1.181 1.42 0 2.397.534.99.534 1.432 1.454.444.909.261 2.046a4.5 4.5 0 0 1-.58 1.591q-.43.738-1.317 1.602-.887.852-2.364 2.034l-4.011 3.239v.079h7.42l-.25 1.557z"/><path fill="#fff" d="m149.829 81.422-3.109-11.12-8.076 8.252zM84 17l-.7.715 59.398 58.127.699-.715.699-.714-59.397-58.128z"/><path fill="#fff" d="m192 183 1.531-11.445-10.677 4.396zM150 81l-.925.38 38.574 93.679.924-.381.925-.381-38.573-93.678z"/><path stroke="#fff" stroke-width="2" d="M129 62.585s4.721-5.801 9-6.5c3.553-.58 9 2 9 2M148 109.389s6.056 2.658 8.762 1.455c2.248-.999 3.575-5.279 3.575-5.279"/><path fill="#fff" d="m130.239 51 2.909-17.455h2.034L132.273 51zm4.659-20.489a1.5 1.5 0 0 1-1.08-.431 1.38 1.38 0 0 1-.42-1.046q.022-.58.466-1a1.5 1.5 0 0 1 1.068-.432q.636 0 1.079.444.444.431.421 1.045-.012.58-.466 1t-1.068.42M152.216 143l2.909-17.455h1.966l-.455 2.682h.148q.727-1.318 2.171-2.125a6.23 6.23 0 0 1 3.102-.818q.25 0 .557.011.306 0 .511.023l-.352 2.057q-.136-.023-.478-.068a5.5 5.5 0 0 0-.738-.046q-1.364 0-2.523.58a5.5 5.5 0 0 0-1.932 1.579 5.24 5.24 0 0 0-1 2.307L154.239 143zM148 9l-2.887 5h5.774zm0 151h.5v-2.517h-1V160zm0-7.55h.5v-5.033h-1v5.033zm0-10.067h.5v-5.033h-1v5.033zm0-10.066h.5v-5.034h-1v5.034zm0-10.067h.5v-5.033h-1v5.033zm0-10.067h.5v-5.033h-1v5.033zm0-10.066h.5v-5.034h-1v5.034zm0-10.067h.5v-5.033h-1v5.033zm0-10.067h.5V76.95h-1v5.033zm0-10.066h.5v-5.034h-1v5.034zm0-10.067h.5v-5.033h-1v5.033zm0-10.067h.5V46.75h-1v5.033zm0-10.066h.5v-5.034h-1v5.034zm0-10.067h.5v-5.033h-1v5.033zm0-10.067h.5V16.55h-1v5.033z"/><defs><linearGradient id="a" x1="2" x2="300" y1="133.5" y2="133.5" gradientUnits="userSpaceOnUse"><stop stop-color="#2e8a8e"/><stop offset=".202" stop-color="#bed0d0"/><stop offset=".543" stop-color="#2e8386"/><stop offset="1" stop-color="#b7cdce"/></linearGradient></defs></svg>