<svg xmlns="http://www.w3.org/2000/svg" width="300" height="200" fill="none" viewBox="0 0 300 200"><path fill="#000" d="M0 0h300v200H0z"/><path stroke="#fff" stroke-width="2" d="M6 99h288"/><path fill="url(#a)" d="M145 100.288c0-39.072-17.595-74.46-19.145-77.5C123.102 28.327 107 62.334 107 99.711c0 39.072 17.595 74.461 19.145 77.501 2.753-5.541 18.855-39.548 18.855-76.925" opacity=".84"/><path fill="url(#b)" d="M183 100.288c0-39.072-17.595-74.46-19.145-77.5C161.102 28.327 145 62.334 145 99.711c0 39.072 17.595 74.461 19.145 77.501 2.753-5.541 18.855-39.548 18.855-76.925" opacity=".84"/><path fill="#ffff24" d="m85.54 28.273-.25 1.486h-7.229l.24-1.486zM78.11 43l2.809-16.885q.19-1.188.872-2.003a4.5 4.5 0 0 1 1.65-1.237 4.8 4.8 0 0 1 1.965-.422q.671 0 1.093.115.422.105.662.21l-.73 1.497-.46-.135a2.5 2.5 0 0 0-.68-.076q-1.113 0-1.822.623t-.91 1.783L79.815 43zm9.724 3.375 1.688-10.163h-.096l-3.27 1.946.278-1.592 3.28-1.965h1.61l-1.956 11.774zM196.54 28.273l-.249 1.486h-7.23l.24-1.486zM189.109 43l2.81-16.885q.191-1.188.872-2.003a4.5 4.5 0 0 1 1.649-1.237 4.8 4.8 0 0 1 1.966-.422q.671 0 1.093.115.422.105.662.21l-.729 1.497-.46-.135a2.5 2.5 0 0 0-.681-.076q-1.113 0-1.822.623t-.911 1.783L190.816 43zm7.002 3.375.173-1.15 5.1-4.133q.912-.728 1.487-1.275.585-.547.891-1.017a2.5 2.5 0 0 0 .384-1.006q.153-.92-.46-1.496-.605-.576-1.688-.575-1.103 0-1.937.623-.823.623-.978 1.592h-1.553q.249-1.506 1.525-2.493 1.284-.998 3.087-.998 1.198 0 2.023.451.834.45 1.208 1.227.374.768.221 1.726-.116.709-.489 1.343-.364.623-1.113 1.351a30 30 0 0 1-1.994 1.717l-3.384 2.732v.067h6.261l-.211 1.314z"/><defs><linearGradient id="a" x1="126" x2="126" y1="22" y2="178" gradientUnits="userSpaceOnUse"><stop offset=".01" stop-color="#49ebf0"/><stop offset=".308" stop-color="#8af5f9"/><stop offset=".673" stop-color="#49ebf0"/><stop offset=".952" stop-color="#84f3f6"/></linearGradient><linearGradient id="b" x1="164" x2="164" y1="22" y2="178" gradientUnits="userSpaceOnUse"><stop offset=".01" stop-color="#49ebf0"/><stop offset=".308" stop-color="#8af5f9"/><stop offset=".673" stop-color="#49ebf0"/><stop offset=".952" stop-color="#84f3f6"/></linearGradient></defs></svg>