<svg xmlns="http://www.w3.org/2000/svg" width="300" height="200" fill="none" viewBox="0 0 300 200"><g clip-path="url(#a)"><path fill="#000" d="M0 0h300v200H0z"/><path stroke="#fff" stroke-width="2" d="M6 99h288"/><path fill="url(#b)" d="M95 100.207c0-28.052-12.965-53.459-14.107-55.642C78.865 48.543 67 72.958 67 99.793c0 28.052 12.965 53.459 14.107 55.642C83.135 151.457 95 127.042 95 100.207" opacity=".84"/><path fill="url(#c)" d="M202 100.207c0-28.052-12.965-53.459-14.107-55.642C185.865 48.543 174 72.958 174 99.793c0 28.052 12.965 53.459 14.107 55.642 2.028-3.978 13.893-28.393 13.893-55.228" opacity=".84"/><path fill="#ffff24" d="M81 33a1 1 0 1 0 0 2v-2m107 1-10-5.773v11.546zM81 34v1h98v-2H81z"/><path fill="#4fff2c" d="m8 170 10 5.774v-11.548zm272 0-10-5.774v11.547zm-263 0v1h254v-2H17z"/><path fill="#ffff24" d="m127.352 4.545 3.273 7.444 5.75-7.444h2.364l-7.091 8.762L135.807 22h-2.33l-3.295-7.193L124.489 22h-2.387l7.023-8.739-4.091-8.716z"/><path fill="#4fff2c" d="M135.511 162h-6.875l3.864-23.273h7.17q3.319 0 5.478 1.409t3 4.034q.84 2.614.227 6.25-.602 3.637-2.307 6.228-1.704 2.59-4.386 3.977-2.67 1.375-6.171 1.375m-4.431-1.909h4.545q2.977 0 5.205-1.205 2.227-1.204 3.625-3.42 1.397-2.227 1.897-5.284.5-3-.113-5.137-.602-2.136-2.33-3.272-1.716-1.137-4.557-1.137h-5.057z"/><path fill="#fff" d="M7 66 1.227 76h11.547zm0 33h1V75H6v24zM14.14 41.805q-.375 2.252-1.448 3.914t-2.621 2.57a6.53 6.53 0 0 1-3.366.91q-1.869 0-3.154-.93-1.278-.937-1.81-2.628-.534-1.697-.157-3.992.376-2.25 1.449-3.913t2.628-2.571a6.6 6.6 0 0 1 3.38-.91q1.847 0 3.125.931 1.278.93 1.818 2.628.54 1.69.157 3.991m-1.27-.156q.326-1.946-.086-3.317-.405-1.37-1.392-2.095-.987-.732-2.393-.731a5.3 5.3 0 0 0-2.735.752q-1.278.746-2.18 2.16-.902 1.406-1.236 3.387-.32 1.94.085 3.317.405 1.371 1.392 2.102.995.725 2.408.725 1.463 0 2.741-.753t2.174-2.16q.901-1.412 1.221-3.387M16.16 49l2.414-14.545h1.271l-.937 5.717h.114q.291-.49.774-1.009.49-.518 1.207-.866.717-.355 1.719-.355 1.342 0 2.237.71.902.704 1.257 1.974.356 1.265.078 2.948-.284 1.69-1.058 2.962-.774 1.271-1.903 1.981a4.54 4.54 0 0 1-2.465.71q-.994 0-1.605-.355A2.6 2.6 0 0 1 18.34 48a4.4 4.4 0 0 1-.455-1.023h-.156L17.389 49zm2.159-5.447q-.213 1.32 0 2.343.22 1.016.859 1.598.646.576 1.704.576a3.3 3.3 0 0 0 1.94-.597q.858-.604 1.42-1.626.568-1.023.781-2.294.206-1.257-.007-2.266-.212-1.008-.86-1.598-.645-.597-1.74-.597-1.065 0-1.917.576-.845.568-1.406 1.576-.561 1.002-.774 2.309m11.676-5.462h1.271l-1.982 11.967q-.156.93-.617 1.605-.462.682-1.18 1.052-.717.376-1.64.376h-.142a2 2 0 0 1-.15-.007l.207-1.186h.27q.78 0 1.306-.483t.682-1.357zm1.058-1.875a.93.93 0 0 1-.675-.27.85.85 0 0 1-.263-.66.85.85 0 0 1 .292-.626.95.95 0 0 1 .667-.262q.398 0 .668.277.276.27.27.653a.87.87 0 0 1-.299.625.93.93 0 0 1-.66.263m6.12 13.011q-1.527 0-2.521-.71-.995-.717-1.392-1.982-.398-1.27-.12-2.926.276-1.648 1.093-2.926.817-1.285 2.017-2.01a4.9 4.9 0 0 1 2.606-.731 4.2 4.2 0 0 1 1.663.327q.773.319 1.313.987.547.66.76 1.669.214 1-.014 2.372l-.1.625h-8.522l.177-1.115h7.238q.177-1.05-.1-1.89a2.6 2.6 0 0 0-.944-1.328q-.66-.497-1.64-.497-1.002 0-1.897.561a5.15 5.15 0 0 0-1.506 1.464 4.8 4.8 0 0 0-.788 1.91l-.142.838q-.228 1.385.056 2.322.285.93 1.03 1.407.746.476 1.91.476.783 0 1.414-.242a3.7 3.7 0 0 0 1.101-.646 3.6 3.6 0 0 0 .753-.902l1.13.39q-.363.69-1.024 1.272-.653.582-1.555.937-.895.348-1.996.348m11.472 0q-1.478 0-2.436-.731-.959-.732-1.342-2.003-.377-1.278-.107-2.898.27-1.647 1.087-2.919.816-1.278 2.017-2.003a5 5 0 0 1 2.635-.731q1.101 0 1.917.426.818.42 1.265 1.186.447.76.426 1.776h-1.279a2.36 2.36 0 0 0-.688-1.591q-.633-.647-1.79-.647-1.06 0-1.96.569-.902.56-1.527 1.57-.619 1-.831 2.322-.228 1.328.042 2.35.27 1.017.966 1.591.703.576 1.776.576.731 0 1.377-.27.647-.277 1.144-.781a3.5 3.5 0 0 0 .76-1.2h1.278a4.8 4.8 0 0 1-1.008 1.76 4.9 4.9 0 0 1-1.634 1.208q-.951.44-2.088.44M61.66 38.091l-.177 1.1H56.27l.184-1.1zm-3.153-2.614h1.271l-1.776 10.675q-.113.681.057 1.072.172.384.526.547.355.157.781.157.249 0 .426-.029.184-.035.327-.07l.092 1.143q-.205.071-.49.127-.284.064-.682.064-.696 0-1.285-.305a2.03 2.03 0 0 1-.895-.91q-.306-.603-.163-1.498zM238.717 14.169q.05-1.278-.76-2.003-.802-.724-2.251-.724a4.7 4.7 0 0 0-1.847.355 3.7 3.7 0 0 0-1.37.959 2.76 2.76 0 0 0-.661 1.392q-.092.575.085 1.008.178.426.547.739.37.312.845.533.483.22.981.369l1.47.44q.653.192 1.299.49.647.3 1.151.746.504.447.746 1.1.248.654.099 1.563a4.5 4.5 0 0 1-.952 2.11q-.745.923-1.96 1.463t-2.805.54q-1.485 0-2.5-.49-1.016-.498-1.499-1.371-.483-.874-.369-2.024h1.364q-.079.86.319 1.456.405.596 1.151.909.752.305 1.733.305 1.086 0 1.995-.362a4 4 0 0 0 1.499-1.023q.597-.66.739-1.534.128-.739-.178-1.243-.298-.504-.93-.845a7.6 7.6 0 0 0-1.492-.61l-1.662-.512q-1.626-.498-2.422-1.4-.787-.901-.561-2.3a4.13 4.13 0 0 1 .973-2.067 5.3 5.3 0 0 1 1.939-1.392 6.3 6.3 0 0 1 2.5-.497q1.357 0 2.308.504.96.504 1.421 1.392.468.88.348 2.024zm6.854 11.058q-1.478 0-2.436-.731-.959-.732-1.342-2.003-.377-1.278-.107-2.898.27-1.647 1.087-2.919.817-1.278 2.017-2.003a5 5 0 0 1 2.635-.731q1.101 0 1.917.426.817.42 1.265 1.186.447.76.426 1.775h-1.279a2.36 2.36 0 0 0-.689-1.59q-.632-.647-1.789-.647-1.059 0-1.961.569-.901.56-1.527 1.57-.618 1-.831 2.322-.227 1.328.043 2.35.27 1.017.966 1.591.704.576 1.775.576.732 0 1.378-.27a3.6 3.6 0 0 0 1.144-.782q.497-.51.76-1.2h1.278a4.8 4.8 0 0 1-1.008 1.761 4.908 4.908 0 0 1-3.722 1.648m6.9-.227 1.818-10.91h1.229l-.284 1.677h.092q.454-.825 1.357-1.328a3.9 3.9 0 0 1 1.938-.511q.158 0 .348.007.192 0 .32.014l-.22 1.285a11 11 0 0 0-.298-.042 3.4 3.4 0 0 0-.462-.029 3.48 3.48 0 0 0-2.784 1.35q-.483.632-.625 1.441L253.735 25zm11.198.227q-1.527 0-2.521-.71-.995-.717-1.392-1.982-.397-1.27-.121-2.926.278-1.647 1.094-2.926.817-1.285 2.017-2.01a4.9 4.9 0 0 1 2.607-.731q.887 0 1.662.326.774.32 1.313.988.547.66.76 1.669.214 1-.014 2.372l-.099.625h-8.523l.178-1.115h7.237q.177-1.05-.1-1.89a2.6 2.6 0 0 0-.944-1.328q-.66-.497-1.641-.497-1.001 0-1.896.561a5.15 5.15 0 0 0-1.506 1.463 4.8 4.8 0 0 0-.788 1.911l-.142.838q-.228 1.385.057 2.323.284.93 1.029 1.406.746.476 1.911.476.782 0 1.413-.242a3.7 3.7 0 0 0 1.101-.646q.47-.412.753-.902l1.129.39q-.362.69-1.022 1.272-.654.582-1.556.937-.894.348-1.996.348m11.621 0q-1.527 0-2.521-.71-.995-.717-1.392-1.982-.397-1.27-.121-2.926.278-1.647 1.094-2.926.817-1.285 2.017-2.01a4.9 4.9 0 0 1 2.607-.731 4.2 4.2 0 0 1 1.662.326q.774.32 1.314.988.546.66.76 1.669.213 1-.015 2.372l-.099.625h-8.523l.178-1.115h7.237q.177-1.05-.1-1.89a2.6 2.6 0 0 0-.944-1.328q-.66-.497-1.641-.497-1 0-1.896.561a5.15 5.15 0 0 0-1.506 1.463 4.8 4.8 0 0 0-.788 1.911l-.142.838q-.228 1.385.057 2.323.283.93 1.03 1.406.746.476 1.91.476.781 0 1.413-.242a3.7 3.7 0 0 0 1.101-.646q.47-.412.753-.902l1.129.39q-.362.69-1.022 1.272-.654.582-1.556.937-.895.348-1.996.348m9.633-7.045L283.794 25h-1.265l1.819-10.91h1.228l-.284 1.713h.114a3.8 3.8 0 0 1 1.413-1.343q.909-.51 2.11-.511 1.093 0 1.846.462.76.454 1.08 1.342.327.888.113 2.18L290.782 25h-1.264l1.165-6.989q.22-1.335-.391-2.116-.603-.788-1.868-.788-.859 0-1.598.369a3.4 3.4 0 0 0-1.235 1.065q-.505.69-.668 1.64"/><rect width="13" height="148" x="281" y="30" fill="url(#d)" rx="4"/></g><defs><linearGradient id="b" x1="81" x2="81" y1="44" y2="156" gradientUnits="userSpaceOnUse"><stop offset=".01" stop-color="#49ebf0"/><stop offset=".308" stop-color="#8af5f9"/><stop offset=".673" stop-color="#49ebf0"/><stop offset=".952" stop-color="#84f3f6"/></linearGradient><linearGradient id="c" x1="188" x2="188" y1="44" y2="156" gradientUnits="userSpaceOnUse"><stop offset=".01" stop-color="#49ebf0"/><stop offset=".308" stop-color="#8af5f9"/><stop offset=".673" stop-color="#49ebf0"/><stop offset=".952" stop-color="#84f3f6"/></linearGradient><linearGradient id="d" x1="287.5" x2="287.5" y1="30" y2="178" gradientUnits="userSpaceOnUse"><stop stop-color="#d9d9d9"/><stop offset="1" stop-color="#737373"/></linearGradient><clipPath id="a"><path fill="#fff" d="M0 0h300v200H0z"/></clipPath></defs></svg>