<svg xmlns="http://www.w3.org/2000/svg" width="300" height="200" fill="none" viewBox="0 0 300 200"><g clip-path="url(#a)"><path fill="#000" d="M0 0h300v200H0z"/><path fill="#fff" d="m148 9-2.887 5h5.774zm0 122h.5v-2.542h-1V131zm0-7.625h.5v-5.083h-1v5.083zm0-10.167h.5v-5.083h-1v5.083zm0-10.166h.5v-5.084h-1v5.084zm0-10.167h.5v-5.083h-1v5.083zm0-10.167h.5v-5.083h-1v5.083zm0-10.166h.5v-5.084h-1v5.084zm0-10.167h.5v-5.083h-1v5.083zm0-10.167h.5v-5.083h-1v5.083zm0-10.166h.5v-5.084h-1v5.084zm0-10.167h.5v-5.083h-1v5.083zm0-10.167h.5v-5.083h-1v5.083z"/><path stroke="#fff" stroke-width="2" d="M41 124.378h217"/><path fill="url(#b)" d="M41 125.378h217V141H41z"/><path fill="#ffff24" d="m59.239 27 2.909-17.455h2.034L61.272 27zm4.659-20.489q-.637 0-1.08-.431a1.39 1.39 0 0 1-.42-1.046q.022-.58.466-1a1.5 1.5 0 0 1 1.068-.432q.636 0 1.08.443.443.432.42 1.046-.012.58-.466 1-.455.42-1.068.42M232.216 24l2.909-17.455h1.966l-.455 2.682h.148q.727-1.318 2.171-2.125a6.2 6.2 0 0 1 3.102-.818q.25 0 .557.011.306 0 .511.023l-.352 2.057q-.136-.023-.478-.068a5.4 5.4 0 0 0-.738-.046q-1.364 0-2.523.58a5.5 5.5 0 0 0-1.932 1.58 5.24 5.24 0 0 0-1 2.306L234.239 24zM159.045 13.09 157.239 24h-2.023l2.909-17.455h1.966l-.455 2.74h.182q.818-1.341 2.262-2.149 1.453-.818 3.375-.818 1.75 0 2.954.739 1.216.727 1.727 2.148.523 1.42.182 3.488L168.42 24h-2.022l1.863-11.182q.353-2.136-.625-3.386-.966-1.262-2.988-1.262-1.375 0-2.557.591a5.46 5.46 0 0 0-1.977 1.705q-.807 1.103-1.069 2.625"/><path fill="#fff" d="m147.61 124.556-3.255-11.506-7.523 8.761zM44.78 20.133l-.651.759 96.514 98.01.652-.759.651-.759-96.514-98.01z"/><path fill="#fff" d="m250.506 20.956-10.78 2.737 7.517 8.766zM147.61 125.3l.651.759 96.577-97.936-.651-.76-.651-.758-96.577 97.935z"/><path stroke="#ff2c30" stroke-dasharray="5 5" stroke-width="2" d="m146.707 123.293 75 75"/><path stroke="#fff" stroke-width="2" d="M130 105.5s4.721-5.801 9-6.5c3.553-.58 9 2 9 2"/><path stroke="#ff2c30" stroke-width="2" d="M168.443 105.692S180.906 116.641 181 126c.078 7.772-10.605 19.162-10.605 19.162"/><path stroke="#fff" stroke-width="2" d="M148 100.546s7.104-2.341 11.084-.623c3.306 1.427 6.503 6.536 6.503 6.536"/><path fill="#fff" d="m139.352 81.739-.307 1.909h-11.454l.307-1.91zm1.273-.307-.398 2.375q-.591 3.568-1.818 5.897-1.216 2.33-2.954 3.478-1.74 1.136-3.898 1.136-2.16 0-3.546-1.147-1.386-1.149-1.852-3.478t.125-5.886l.398-2.375q.602-3.545 1.818-5.841 1.216-2.307 2.955-3.42 1.738-1.126 3.897-1.126 2.17 0 3.557 1.126 1.386 1.113 1.841 3.42.466 2.295-.125 5.84m-2.523 2.716.523-3.046q.442-2.693.159-4.523-.273-1.83-1.216-2.75-.943-.93-2.443-.931-2.284 0-3.989 2.102-1.692 2.091-2.363 6.102l-.512 3.046q-.681 4.035.319 6.182 1 2.136 3.25 2.136 1.522 0 2.784-.966t2.147-2.83q.898-1.864 1.341-4.522M170.352 81.739l-.307 1.909h-11.454l.307-1.91zm1.273-.307-.398 2.375q-.591 3.568-1.818 5.897-1.216 2.33-2.954 3.478-1.74 1.136-3.898 1.136-2.16 0-3.546-1.147-1.386-1.149-1.852-3.478t.125-5.886l.398-2.375q.602-3.545 1.818-5.841 1.216-2.307 2.955-3.42 1.738-1.126 3.897-1.126 2.17 0 3.557 1.126 1.386 1.113 1.841 3.42.466 2.295-.125 5.84m-2.523 2.716.523-3.046q.442-2.693.159-4.523-.273-1.83-1.216-2.75-.943-.93-2.443-.931-2.284 0-3.989 2.102-1.692 2.091-2.363 6.102l-.512 3.046q-.681 4.035.319 6.182 1 2.136 3.25 2.136 1.522 0 2.784-.966t2.147-2.83q.898-1.864 1.341-4.522"/><path fill="#ff2c30" d="M192.477 113.966q.33-1.966 2.034-3.125 1.705-1.17 4.409-1.171 1.194 0 2.171.216a9 9 0 0 1 1.898.637l-.341 2.045q-.728-.352-1.796-.636a8.3 8.3 0 0 0-2.238-.296q-1.603 0-2.591.648-.989.636-1.171 1.693a2.2 2.2 0 0 0 .125 1.193q.239.569.989 1.148.761.569 2.227 1.148 3.125 1.239 4.341 3.364 1.216 2.113.705 5.102l-.057.307q-.41 2.34-1.591 4.17-1.182 1.818-2.977 2.864-1.796 1.045-4.057 1.045-2.273 0-3.739-1.045-1.466-1.046-2.045-2.875-.58-1.83-.193-4.171l.045-.318q.33-1.897 1.273-3.432a9.2 9.2 0 0 1 2.318-2.568 8 8 0 0 1 3-1.409l.023-.08q-1.569-.647-2.296-1.772-.715-1.137-.466-2.682m-1.511 11.943-.046.261q-.261 1.773.057 3.194.318 1.408 1.284 2.227.966.818 2.603.818 1.625 0 2.852-.818 1.239-.818 2.034-2.216.796-1.398 1.102-3.136l.046-.307q.25-1.42-.103-2.693a5 5 0 0 0-1.272-2.239q-.921-.966-2.421-1.42-1.716.102-3 .965a6.6 6.6 0 0 0-2.079 2.262q-.796 1.386-1.057 3.102"/></g><defs><linearGradient id="b" x1="41" x2="258" y1="133.189" y2="133.189" gradientUnits="userSpaceOnUse"><stop stop-color="#49e0e5"/><stop offset=".399" stop-color="#cde3e4"/><stop offset=".75" stop-color="#49e0e5"/><stop offset="1" stop-color="#cde3e4"/></linearGradient><clipPath id="a"><path fill="#fff" d="M0 0h300v200H0z"/></clipPath></defs></svg>