<svg xmlns="http://www.w3.org/2000/svg" width="300" height="200" fill="none" viewBox="0 0 300 200"><path fill="#000" d="M0 0h300v200H0z"/><path fill="url(#a)" d="m149.5 14 81 170.25H74z" opacity=".8"/><path fill="#ff2c30" d="m62.825 99-11.25-2.597 3.375 11.042zM242.392 125.235l-5.421-10.195-6.119 9.792z"/><path fill="#fff" d="M172.67 38h-2.227l12.33-23.273h2.272L189.648 38h-2.228l-3.875-20.511h-.147zm3.091-8.92h11.546l-.318 1.909h-11.546z"/><path fill="#ffff24" d="m77.239 76 2.909-17.455h2.034L79.272 76zm4.659-20.489q-.636 0-1.08-.431a1.39 1.39 0 0 1-.42-1.046q.022-.58.466-1a1.5 1.5 0 0 1 1.068-.432q.636 0 1.08.444.443.431.42 1.045-.012.58-.466 1-.455.42-1.068.42M86.213 80l2-12.046H88.1l-3.875 2.307.33-1.886 3.886-2.33h1.91L88.03 80zM223.239 99l2.909-17.454h2.034L225.273 99zm4.659-20.489a1.5 1.5 0 0 1-1.08-.431 1.38 1.38 0 0 1-.42-1.046q.022-.58.466-1a1.5 1.5 0 0 1 1.068-.432q.636 0 1.079.444.444.431.421 1.045-.012.58-.466 1t-1.068.42M228.986 103l.204-1.364 6.046-4.897a28 28 0 0 0 1.761-1.512q.693-.647 1.057-1.204a3 3 0 0 0 .455-1.194q.181-1.09-.546-1.772-.716-.682-2-.682-1.306 0-2.295.739-.978.738-1.159 1.886h-1.841q.296-1.785 1.806-2.954 1.523-1.182 3.66-1.182 1.42 0 2.397.534.989.534 1.432 1.454.444.909.261 2.046-.136.84-.579 1.59-.432.74-1.318 1.603-.886.852-2.364 2.034l-4.011 3.239v.079h7.42l-.25 1.557z"/><path stroke="#000" stroke-width="2" d="M139 35c1.495.234-.452 5.039 10.774 5C161 39.96 158.11 35.086 161 35"/><path stroke="#ffff24" stroke-width="2" d="M109.789 69.57c-.565.962-4.68-1.895-7.216 5.893s2.755 7.318 2.174 9.347M203.339 88c.211 1.095 5.044-.223 4.833 7.965-.212 8.188-5.041 5.977-5.172 8.083"/><path stroke="#ff2c30" stroke-width="2" d="m21.5 114 100.204-35.894c.193-.07.402-.077.599-.024l66.083 17.887q.114.03.217.087L284 148"/><path stroke="#fff" stroke-dasharray="5 5" d="m102.291 64.593 35 25M168.764 106.559l41-22"/><defs><linearGradient id="a" x1="149.5" x2="147.5" y1="14" y2="221.5" gradientUnits="userSpaceOnUse"><stop stop-color="#aafcff"/><stop offset=".341" stop-color="#41c1c5"/><stop offset=".654" stop-color="#aafcff"/><stop offset="1" stop-color="#49ebf0"/></linearGradient></defs></svg>