<svg xmlns="http://www.w3.org/2000/svg" width="300" height="200" fill="none" viewBox="0 0 300 200"><path fill="#000" d="M0 0h300v200H0z"/><path fill="url(#a)" d="m154.298 62.017-47.673 3.973c-1.13.094-1.255 1.699-.154 1.968l57.254 13.975q.272.066.468.262c29.894 30.213 88.748 89.136 95.284 93.543.317.214.629.044.797-.299l32.721-66.907a1 1 0 0 0-.587-1.389l-137.716-45.08a1 1 0 0 0-.394-.046" opacity=".8"/><path fill="#fff" d="m42.28 94.868-11.405-1.806 4.139 10.78z"/><path stroke="#fff" stroke-width="2" d="m106.402 66.916-98 43"/><path fill="url(#b)" d="m130 11 81 170.25H54.5z" opacity=".72"/><path stroke="#fff" stroke-dasharray="5 5" d="m105.825 66.532 150-56"/><path stroke="#ff2c30" stroke-width="2" d="M156.259 47.934c.506 1.05 4.904-1.573 6.931 6.755s-3.33 7.384-2.884 9.547"/><path stroke="#8a2be2" stroke-dasharray="4 4" stroke-width="2" d="M198.732 33.09s18.785-2.73 17.554 39.32c-1.231 42.051-20.963 41.168-20.963 41.168"/><path stroke="#ffff24" stroke-dasharray="4 4" stroke-width="2" d="M245.409 15.094s18.79-2.928 17.493 41.718-21.03 43.74-21.03 43.74"/><path fill="#ff2c30" d="M176.477 45.966q.33-1.965 2.034-3.125 1.705-1.17 4.409-1.17 1.194 0 2.171.215a9.2 9.2 0 0 1 1.898.637l-.341 2.045q-.728-.352-1.796-.636a8.3 8.3 0 0 0-2.238-.296q-1.603 0-2.591.648-.989.636-1.171 1.693a2.2 2.2 0 0 0 .125 1.194q.239.567.989 1.147.761.569 2.227 1.148 3.125 1.239 4.341 3.364 1.216 2.114.705 5.102l-.057.307q-.41 2.34-1.591 4.17-1.182 1.818-2.977 2.864-1.796 1.045-4.057 1.045-2.273 0-3.739-1.045-1.466-1.046-2.045-2.875-.58-1.83-.193-4.17l.045-.319q.33-1.898 1.273-3.432a9.2 9.2 0 0 1 2.318-2.568 8 8 0 0 1 3-1.409l.023-.08q-1.569-.647-2.296-1.772-.715-1.137-.466-2.682m-1.511 11.943-.046.261q-.261 1.773.057 3.194.318 1.408 1.284 2.227.966.818 2.603.818 1.625 0 2.852-.818 1.239-.818 2.034-2.216.796-1.398 1.102-3.136l.046-.307q.25-1.42-.103-2.693A5 5 0 0 0 183.523 53q-.921-.966-2.421-1.42-1.716.102-3 .965a6.6 6.6 0 0 0-2.079 2.262q-.796 1.386-1.057 3.102M187.651 70l1.954-11.636h1.773l-.318 1.92h.091a3.64 3.64 0 0 1 1.488-1.534q.955-.523 1.955-.523.455 0 .818.091.363.08.625.227l-.841 1.546a2 2 0 0 0-.466-.148 2.6 2.6 0 0 0-.625-.068q-1.238 0-2.204.818-.966.807-1.182 2.091L189.491 70z"/><path fill="#8a2be2" d="M226.477 43.966q.33-1.965 2.034-3.125 1.705-1.17 4.409-1.17 1.194 0 2.171.215a9.2 9.2 0 0 1 1.898.637l-.341 2.045q-.728-.352-1.796-.636a8.3 8.3 0 0 0-2.238-.296q-1.603 0-2.591.648-.989.636-1.171 1.693a2.2 2.2 0 0 0 .125 1.194q.239.567.989 1.147.761.569 2.227 1.148 3.125 1.239 4.341 3.364 1.216 2.114.705 5.102l-.057.307q-.41 2.34-1.591 4.17-1.182 1.818-2.977 2.864-1.796 1.045-4.057 1.045-2.273 0-3.739-1.045-1.466-1.046-2.045-2.875-.58-1.83-.193-4.17l.045-.319q.33-1.898 1.273-3.432a9.2 9.2 0 0 1 2.318-2.568 8 8 0 0 1 3-1.409l.023-.08q-1.569-.647-2.296-1.772-.715-1.137-.466-2.682m-1.511 11.943-.046.261q-.261 1.773.057 3.194.318 1.408 1.284 2.227.966.818 2.603.818 1.625 0 2.852-.818 1.239-.818 2.034-2.216.796-1.398 1.102-3.136l.046-.307q.25-1.42-.103-2.693A5 5 0 0 0 233.523 51q-.921-.966-2.421-1.42-1.716.102-3 .965a6.6 6.6 0 0 0-2.079 2.262q-.796 1.386-1.057 3.102m24.048.455L242.957 68h-2.102l-2.204-11.636h1.943L242.185 66h.079l4.773-9.636z"/><path fill="#ffff24" d="M273.477 41.966q.33-1.965 2.034-3.125 1.705-1.17 4.409-1.17 1.194 0 2.171.215a9.2 9.2 0 0 1 1.898.637l-.341 2.045q-.728-.352-1.796-.636a8.3 8.3 0 0 0-2.238-.296q-1.603 0-2.591.648-.989.636-1.171 1.693a2.2 2.2 0 0 0 .125 1.194q.239.567.989 1.147.761.569 2.227 1.148 3.125 1.239 4.341 3.364 1.216 2.114.705 5.102l-.057.307q-.41 2.34-1.591 4.17-1.182 1.818-2.977 2.864-1.796 1.045-4.057 1.045-2.273 0-3.739-1.045-1.466-1.046-2.045-2.875-.58-1.83-.193-4.17l.045-.319q.33-1.898 1.273-3.432a9.2 9.2 0 0 1 2.318-2.568 8 8 0 0 1 3-1.409l.023-.08q-1.569-.647-2.296-1.772-.715-1.137-.466-2.682m-1.511 11.943-.046.261q-.261 1.773.057 3.194.318 1.408 1.284 2.227.966.818 2.603.818 1.625 0 2.852-.818 1.239-.818 2.034-2.216.796-1.398 1.102-3.136l.046-.307q.25-1.42-.103-2.693A5 5 0 0 0 280.523 49q-.921-.966-2.421-1.42-1.716.102-3 .965a6.6 6.6 0 0 0-2.079 2.262q-.796 1.386-1.057 3.102m13.116 16.648q-.466 0-.886-.091a3 3 0 0 1-.648-.205l.682-1.488q.954.374 1.671.08.715-.285 1.318-1.364l.682-1.25-2.25-11.875h1.943l1.557 9.727h.079l4.807-9.727h2l-7.046 13.488q-.658 1.251-1.636 1.977-.966.728-2.273.728"/><defs><linearGradient id="a" x1="294" x2="264.5" y1="108" y2="165.5" gradientUnits="userSpaceOnUse"><stop stop-color="red"/><stop offset=".163" stop-color="orange"/><stop offset=".352" stop-color="#ff0"/><stop offset=".51" stop-color="#0f0"/><stop offset=".688" stop-color="#00f"/><stop offset=".841" stop-color="indigo"/><stop offset="1" stop-color="#8a2be2"/></linearGradient><linearGradient id="b" x1="130" x2="128" y1="11" y2="218.5" gradientUnits="userSpaceOnUse"><stop stop-color="#aafcff"/><stop offset=".341" stop-color="#54eff4"/><stop offset=".654" stop-color="#aafcff"/><stop offset="1" stop-color="#49ebf0"/></linearGradient></defs></svg>