<svg xmlns="http://www.w3.org/2000/svg" width="300" height="200" fill="none" viewBox="0 0 300 200"><g clip-path="url(#a)"><path fill="#000" d="M0 0h300v200H0z"/><path stroke="#ff2c30" stroke-width="2" d="M18 57h120.88q.12 0 .237.029l22.237 5.435q.147.036.275.113L263.5 123.5"/><path fill="url(#b)" d="m149.5 14 41.136 170.25h-82.272z" opacity=".8"/><path fill="#ff2c30" d="m67 57-10-5.773v11.547zM219.128 97.488l-4.697-10.549-6.787 9.342z"/><path fill="#000" d="m140.091 165.625 4-24.08h2.034l-1.795 10.785q-.24 1.453.215 2.568a3.7 3.7 0 0 0 1.489 1.738q1.023.625 2.5.625 1.49 0 2.716-.636a5.851 5.851 0 0 0 3.102-4.295l1.796-10.785h2.034L155.273 159h-2.034l.454-2.648h-.113a6.35 6.35 0 0 1-2.353 2.125 6.4 6.4 0 0 1-3.011.75q-1.569 0-2.761-.784-1.183-.784-1.648-2.204h-.114l-1.568 9.386z"/><path fill="#fff" d="M161.67 38h-2.227l12.33-23.273h2.272L178.648 38h-2.228l-3.875-20.511h-.147zm3.091-8.92h11.546l-.318 1.909h-11.546zM185.641 25.727a19.7 19.7 0 0 1 1.441-4.83 21 21 0 0 1 2.564-4.26h1.151a15.6 15.6 0 0 0-1.264 1.896 22 22 0 0 0-1.115 2.258q-.505 1.2-.888 2.458a20 20 0 0 0-.583 2.478 19 19 0 0 0-.248 3.31 19 19 0 0 0 .298 3.168q.284 1.499.789 2.613h-1.151a15.2 15.2 0 0 1-1.151-4.268q-.27-2.273.157-4.823m7.892-7.273 2.422 12.82h.135l6.662-12.82h1.392L196.438 33h-1.421l-2.876-14.545zm13.793 14.773q-1.527 0-2.522-.71-.995-.717-1.392-1.982-.398-1.27-.12-2.926.276-1.648 1.093-2.926.817-1.285 2.017-2.01a4.9 4.9 0 0 1 2.607-.731 4.2 4.2 0 0 1 1.662.326q.774.32 1.314.988.546.66.76 1.669.213 1-.015 2.372l-.099.625h-8.523l.178-1.115h7.237q.177-1.05-.099-1.89a2.62 2.62 0 0 0-.945-1.328q-.66-.497-1.641-.497-1 0-1.896.561a5.15 5.15 0 0 0-1.506 1.463 4.8 4.8 0 0 0-.788 1.911l-.142.838q-.227 1.385.057 2.323.284.93 1.03 1.406t1.91.476q.781 0 1.414-.242a3.7 3.7 0 0 0 1.1-.646q.47-.412.753-.902l1.13.39a4.5 4.5 0 0 1-1.023 1.272q-.654.582-1.556.937-.894.348-1.995.348m7.239-.227 1.818-10.91h1.229l-.285 1.677h.093q.455-.825 1.356-1.328a3.9 3.9 0 0 1 1.939-.511q.156 0 .348.007.192 0 .32.014l-.22 1.285q-.086-.014-.299-.042a3.4 3.4 0 0 0-.461-.029 3.48 3.48 0 0 0-2.784 1.35 3.26 3.26 0 0 0-.625 1.441L215.829 33zm7.693 4.09a3.2 3.2 0 0 1-.696-.07 2.4 2.4 0 0 1-.49-.156l.533-1.115q.596.206 1.094.127.504-.07.958-.482.455-.413.895-1.23l.597-1.107-2.159-10.966h1.314l1.704 9.261h.092l4.78-9.261h1.428l-6.712 12.62q-.433.818-.959 1.343-.517.525-1.122.781-.595.255-1.257.256m26.287-14.921q.05-1.278-.759-2.003-.803-.724-2.252-.724a4.7 4.7 0 0 0-1.846.355 3.7 3.7 0 0 0-1.371.959 2.76 2.76 0 0 0-.661 1.392q-.092.575.085 1.008.178.426.547.739.37.312.846.533.482.22.98.369l1.47.44q.653.192 1.3.49.645.3 1.15.746.504.447.746 1.1.249.654.099 1.563a4.5 4.5 0 0 1-.951 2.11q-.747.923-1.961 1.463t-2.805.54q-1.485 0-2.5-.49-1.016-.498-1.499-1.371-.483-.874-.369-2.024h1.364q-.078.86.319 1.456.405.596 1.151.909.752.305 1.733.305 1.086 0 1.996-.362a4 4 0 0 0 1.498-1.023q.597-.66.739-1.534.128-.738-.178-1.243-.298-.504-.93-.845a7.6 7.6 0 0 0-1.492-.61l-1.662-.512q-1.626-.498-2.421-1.4-.789-.901-.562-2.3a4.13 4.13 0 0 1 .973-2.067 5.3 5.3 0 0 1 1.939-1.392 6.3 6.3 0 0 1 2.5-.497q1.357 0 2.309.504.958.504 1.42 1.392.47.88.348 2.024zM251.166 33l1.818-10.91h1.229l-.284 1.677h.114a3.45 3.45 0 0 1 1.321-1.328q.845-.49 1.917-.49 1.122 0 1.762.532.639.526.852 1.45h.092a3.77 3.77 0 0 1 1.442-1.442q.93-.54 2.124-.54 1.512 0 2.237.959.724.959.419 2.784L264.987 33h-1.264l1.222-7.308q.206-1.293-.334-1.94-.54-.645-1.62-.645-1.25 0-2.066.767-.81.76-1.002 1.946l-1.2 7.18h-1.293l1.243-7.422q.178-1.107-.319-1.79-.49-.681-1.613-.681a2.86 2.86 0 0 0-1.427.376 3.4 3.4 0 0 0-1.122 1.03 3.65 3.65 0 0 0-.597 1.498L252.43 33zm20.187.249q-.988 0-1.74-.384a2.53 2.53 0 0 1-1.123-1.122q-.361-.739-.198-1.79.141-.81.539-1.363.405-.555 1.023-.91.618-.361 1.421-.568a13 13 0 0 1 1.747-.312q.923-.114 1.576-.2.654-.084 1.016-.269a.78.78 0 0 0 .433-.597l.043-.255q.184-1.115-.341-1.755-.526-.646-1.761-.646-1.179 0-2.046.526-.86.518-1.278 1.214l-1.122-.433q.51-.896 1.257-1.428a4.9 4.9 0 0 1 1.598-.774 6.2 6.2 0 0 1 1.683-.241q.625 0 1.271.163.647.163 1.158.568.519.398.76 1.115.249.71.071 1.804L276.104 33h-1.264l.291-1.726h-.078a4.1 4.1 0 0 1-.824.938q-.519.454-1.243.745a4.4 4.4 0 0 1-1.633.292m.319-1.158q1.009 0 1.826-.448a3.9 3.9 0 0 0 1.349-1.186 3.9 3.9 0 0 0 .682-1.64l.263-1.577q-.157.135-.512.242a8 8 0 0 1-.788.191q-.433.078-.874.135l-.767.1a8 8 0 0 0-1.648.355q-.695.24-1.115.667-.418.42-.525 1.08-.164.995.433 1.541.604.54 1.676.54m11.474-13.637L280.731 33h-1.264l2.415-14.545zm4.609 0L285.341 33h-1.265l2.415-14.545zm5.022 8.41a19.5 19.5 0 0 1-1.449 4.83 20.8 20.8 0 0 1-2.557 4.26h-1.151q.661-.837 1.265-1.896t1.108-2.258q.51-1.2.887-2.458.384-1.257.59-2.478.27-1.64.248-3.31a18.3 18.3 0 0 0-.305-3.168q-.277-1.498-.781-2.613h1.15q.874 1.995 1.144 4.268.276 2.273-.149 4.823"/><path stroke="#000" stroke-width="2" d="M143.5 38c.849.212-.257 4.57 6.122 4.535S154.358 38.078 156 38"/></g><defs><linearGradient id="b" x1="149.5" x2="149.5" y1="14" y2="241" gradientUnits="userSpaceOnUse"><stop offset=".01" stop-color="#49ebf0"/><stop offset=".308" stop-color="#aafcff"/><stop offset=".673" stop-color="#49ebf0"/><stop offset=".952" stop-color="#aafcff"/></linearGradient><clipPath id="a"><path fill="#fff" d="M0 0h300v200H0z"/></clipPath></defs></svg>