<svg xmlns="http://www.w3.org/2000/svg" width="300" height="200" fill="none" viewBox="0 0 300 200"><g clip-path="url(#a)"><path fill="#000" d="M0 0h300v200H0z"/><path fill="#fff" d="M43.784 104.384q-1.664 0-2.816-1.152t-1.152-2.816q0-1.665 1.152-2.816 1.152-1.152 2.816-1.152 1.6 0 2.688 1.152 1.152 1.152 1.152 2.816t-1.152 2.816q-1.088 1.152-2.688 1.152M40.576 89.224q-3.104 0-5.664-1.44a10.9 10.9 0 0 1-4.064-4.064q-1.472-2.624-1.472-5.888t1.472-5.856q1.504-2.625 4.064-4.064 2.56-1.472 5.664-1.472 3.136 0 5.696 1.472 2.56 1.44 4.032 4.032t1.472 5.888-1.472 5.888a10.7 10.7 0 0 1-4.032 4.064q-2.56 1.44-5.696 1.44m0-2.528q2.336 0 4.192-1.088 1.888-1.088 2.944-3.104 1.088-2.016 1.088-4.672 0-2.689-1.088-4.672-1.056-2.016-2.912-3.104t-4.224-1.088q-2.369 0-4.224 1.088-1.856 1.088-2.944 3.104-1.056 1.984-1.056 4.672 0 2.656 1.056 4.672 1.088 2.016 2.944 3.104 1.889 1.088 4.224 1.088M68.992 132.312l5.44-14.848h3.104L70.656 135h-3.392l-6.88-17.536h3.136zm15.013 9.861q-1.479 0-2.688-.672a4.9 4.9 0 0 1-1.882-1.901q-.672-1.248-.672-2.88 0-1.612.691-2.842a4.8 4.8 0 0 1 1.92-1.9q1.21-.672 2.708-.672 1.497 0 2.707.672a4.7 4.7 0 0 1 1.9 1.881q.71 1.229.71 2.861t-.729 2.88a4.95 4.95 0 0 1-1.939 1.901q-1.23.672-2.726.672m0-1.536q.94 0 1.766-.442.825-.441 1.325-1.325.518-.882.518-2.15t-.499-2.15q-.5-.883-1.305-1.306a3.6 3.6 0 0 0-1.748-.442q-.96 0-1.766.442-.787.423-1.267 1.306-.48.882-.48 2.15 0 1.287.46 2.17.48.882 1.268 1.324.787.423 1.728.423"/><path stroke="#fff" d="M9 100h256"/><path stroke="url(#b)" stroke-width="15" d="M220.644 191.094a96.99 96.99 0 0 0 52.426-87.962 97.006 97.006 0 0 0-55.657-85.954"/><path stroke="url(#c)" stroke-width="2" d="M216.689 183.874a88.94 88.94 0 0 0 48.067-80.65 88.94 88.94 0 0 0-51.03-78.809"/><path fill="#fff" d="m101 100-10-5.773v11.547zm-54 0v1h45v-2H47z"/></g><defs><linearGradient id="b" x1="192.08" x2="263.725" y1="30.279" y2="168.815" gradientUnits="userSpaceOnUse"><stop stop-color="#c8fcfe"/><stop offset=".5" stop-color="#22e6ed"/><stop offset=".75" stop-color="#c6f6f8"/><stop offset="1" stop-color="#34dce2"/></linearGradient><linearGradient id="c" x1="190.499" x2="256.188" y1="36.427" y2="163.447" gradientUnits="userSpaceOnUse"><stop offset=".75" stop-color="#fff"/></linearGradient><clipPath id="a"><path fill="#fff" d="M0 0h300v200H0z"/></clipPath></defs></svg>