<svg xmlns="http://www.w3.org/2000/svg" width="300" height="200" fill="none" viewBox="0 0 300 200"><path fill="#000" d="M0 0h300v200H0z"/><path fill="url(#a)" d="M2 81h298v105H2z"/><path fill="#ffff24" d="m59.09 62.625 4-24.08h2.035L63.33 49.33q-.24 1.454.215 2.568a3.7 3.7 0 0 0 1.49 1.738q1.02.625 2.5.625 1.488 0 2.715-.636a5.86 5.86 0 0 0 3.102-4.295l1.796-10.785h2.034L74.272 56H72.24l.454-2.648h-.114a6.34 6.34 0 0 1-2.352 2.125q-1.431.75-3.011.75-1.568 0-2.761-.784-1.182-.784-1.648-2.204h-.114l-1.568 9.386zM81.089 60l2-12.045h-.114L79.1 50.26l.33-1.886 3.886-2.33h1.91L82.905 60z"/><path fill="#000" d="m59.09 132.625 4-24.08h2.035L63.33 119.33q-.24 1.454.215 2.568.466 1.102 1.49 1.738 1.02.625 2.5.625 1.488 0 2.715-.636a5.85 5.85 0 0 0 3.102-4.295l1.796-10.785h2.034L74.272 126H72.24l.454-2.648h-.114a6.34 6.34 0 0 1-2.352 2.125q-1.431.75-3.011.75-1.568 0-2.761-.784-1.182-.784-1.648-2.204h-.114l-1.568 9.386zM77.86 130l.205-1.364 6.046-4.897q1.08-.864 1.761-1.512.693-.648 1.057-1.204.364-.569.454-1.193.183-1.092-.545-1.773-.716-.682-2-.682-1.306 0-2.295.739-.977.738-1.16 1.886h-1.84q.296-1.784 1.806-2.955 1.523-1.18 3.66-1.181 1.42 0 2.397.534.99.534 1.432 1.454.444.909.261 2.046a4.5 4.5 0 0 1-.58 1.591q-.43.738-1.317 1.602-.887.852-2.364 2.034l-4.011 3.239v.079h7.42l-.25 1.557z"/><path fill="#fff" d="m149.829 81.422-3.109-11.12-8.076 8.252zM84 17l-.7.715 59.398 58.127.699-.715.699-.714-59.397-58.128z"/><path fill="#fff" d="m192 183 1.531-11.445-10.677 4.396zM150 81l-.925.38 38.574 93.679.924-.381.925-.381-38.573-93.678zM107.659 31l2.909-17.454h4.114L111.773 31zm5.568-19.954q-.988 0-1.636-.66a1.92 1.92 0 0 1-.568-1.58q.08-.92.829-1.579a2.58 2.58 0 0 1 1.739-.659q.989 0 1.625.66.648.658.568 1.579-.068.92-.829 1.58-.75.659-1.728.659M192.659 152l2.909-17.455h3.989l-.489 2.91h.182q.716-1.512 2.023-2.33a5.2 5.2 0 0 1 2.818-.83q.353 0 .761.035.41.022.705.079l-.637 3.784q-.261-.09-.818-.159a7.5 7.5 0 0 0-1.079-.079q-1.125 0-2.091.488a4.64 4.64 0 0 0-1.614 1.33 4.4 4.4 0 0 0-.852 1.966L196.773 152z"/><path fill="#8fff78" d="M165.477 23.773 163.795 34h-4.125l2.91-17.454h3.943l-.5 2.965h.216a6.1 6.1 0 0 1 2.295-2.33q1.478-.863 3.443-.863 1.785 0 3 .773 1.216.762 1.728 2.238.51 1.467.159 3.557L175 34h-4.114l1.739-10.477q.295-1.74-.443-2.727-.727-1-2.341-1-1.08 0-1.989.477a4.2 4.2 0 0 0-1.534 1.352q-.613.886-.841 2.148"/><path fill="#6bff6b" d="m148 9-5.774 10h11.547zm0 151h1v-2.517h-2V160zm0-7.55h1v-5.033h-2v5.033zm0-10.067h1v-5.033h-2v5.033zm0-10.066h1v-5.034h-2v5.034zm0-10.067h1v-5.033h-2v5.033zm0-10.067h1v-5.033h-2v5.033zm0-10.066h1v-5.034h-2v5.034zm0-10.067h1v-5.033h-2v5.033zm0-10.067h1V76.95h-2v5.033zm0-10.066h1v-5.034h-2v5.034zm0-10.067h1v-5.033h-2v5.033zm0-10.067h1V46.75h-2v5.033zm0-10.066h1v-5.034h-2v5.034zm0-10.067h1v-5.033h-2v5.033zm0-10.067h1V16.55h-2v5.033z"/><defs><linearGradient id="a" x1="2" x2="300" y1="133.5" y2="133.5" gradientUnits="userSpaceOnUse"><stop stop-color="#2e8a8e"/><stop offset=".202" stop-color="#bed0d0"/><stop offset=".543" stop-color="#2e8386"/><stop offset="1" stop-color="#b7cdce"/></linearGradient></defs></svg>