<svg xmlns="http://www.w3.org/2000/svg" width="300" height="200" fill="none" viewBox="0 0 300 200"><path fill="#000" d="M0 0h300v200H0z"/><path stroke="url(#a)" stroke-width="17" d="M258 15s22.5 37.5 22.5 88-22.5 86-22.5 86"/><path stroke="#fff" stroke-width="3" d="M252 21s19.5 42.5 19.5 80.5S252 182 252 182"/><path stroke="#fff" stroke-width="2" d="M24 99h248"/><path stroke="#ff2c30" stroke-width="2" d="M34 39h224"/><path stroke="#4fff2c" stroke-width="2" d="m129.438 125.173 128-87"/><path stroke="#ff2c30" stroke-width="2" d="M34 164h224"/><path stroke="#4fff2c" stroke-width="2" d="m130.592 70.194 128 94"/><path fill="#ff2c30" d="m112 39-10-5.773v11.547zm-18 0v1h9v-2h-9z"/><path fill="#4fff2c" d="m200 77 11.523-.743-6.405-9.608zm12-8-.555-.832-4.511 3.008.554.832.555.832 4.512-3.008zM200 121l4.406 10.673 7.04-9.152zm13 10 .61-.793-5.867-4.512-.609.792-.61.793 5.866 4.513z"/><path fill="#ff2c30" d="m112 164-10-5.774v11.548zm-18 0v1h9v-2h-9z"/><circle cx="168.5" cy="98.5" r="3.5" fill="#ffff24"/><path fill="#ffff24" d="m174.72 121.364-.332 1.981h-9.639l.319-1.981zM164.812 141l3.746-22.513q.256-1.585 1.164-2.672a6 6 0 0 1 2.198-1.649 6.45 6.45 0 0 1 2.621-.562q.895 0 1.458.153.563.141.882.281l-.972 1.995q-.255-.077-.614-.179-.345-.102-.907-.103-1.484 0-2.429.831-.947.831-1.215 2.378L167.088 141z"/><defs><linearGradient id="a" x1="247.5" x2="247.5" y1="15" y2="189" gradientUnits="userSpaceOnUse"><stop stop-color="#22e6ed"/><stop offset="1" stop-color="#a8fcff"/></linearGradient></defs></svg>