<svg xmlns="http://www.w3.org/2000/svg" width="300" height="200" fill="none" viewBox="0 0 300 200"><path fill="#000" d="M0 0h300v200H0z"/><path stroke="url(#a)" stroke-width="17" d="M258 15s22.5 37.5 22.5 88-22.5 86-22.5 86"/><path stroke="#fff" stroke-width="3" d="M252 21s19.5 42.5 19.5 80.5S252 182 252 182"/><path stroke="#fff" stroke-width="2" d="M24 99h248"/><circle cx="34.5" cy="99.5" r="4.5" fill="#ff2c30"/><circle cx="213.5" cy="99.5" r="4.5" fill="#4fff2c"/><circle cx="136.5" cy="99.5" r="4.5" fill="#ffff24"/><path stroke="#ff2c30" stroke-width="2" d="m33.706 99.044 221-68"/><path stroke="#4fff2c" stroke-width="2" d="m213.144 99.484 41-68"/><path fill="#ff2c30" d="m141 66-11.201-2.804 3.172 11.103zm-21 6 .275.962 12.346-3.528-.275-.962-.274-.961-12.347 3.528zM43.625 133.489q-.602 3.602-2.318 6.261t-4.193 4.114a10.46 10.46 0 0 1-5.387 1.454q-2.988 0-5.045-1.488-2.046-1.5-2.898-4.205-.852-2.716-.25-6.386.603-3.603 2.318-6.262t4.205-4.113a10.53 10.53 0 0 1 5.409-1.455q2.954 0 5 1.489t2.909 4.204q.864 2.704.25 6.387m-2.034-.25q.522-3.114-.136-5.307-.648-2.193-2.228-3.352-1.58-1.171-3.83-1.171a8.5 8.5 0 0 0-4.374 1.205q-2.046 1.193-3.489 3.454-1.443 2.25-1.977 5.421-.512 3.102.136 5.306.648 2.194 2.227 3.364 1.591 1.16 3.853 1.159a8.5 8.5 0 0 0 4.386-1.204q2.046-1.205 3.477-3.455 1.443-2.26 1.955-5.42"/><path fill="#4fff2c" d="M213.625 121.727 209.761 145h-2.125l3.864-23.273z"/><path fill="#ffff24" d="m126.636 145 3.864-23.273h13.466l-.318 1.909h-11.341l-1.455 8.762h10.284l-.318 1.909h-10.284L128.761 145z"/><path fill="#4fff2c" d="m230 71 10.264-5.29-9.713-6.244zm9-14-.841-.54-4.133 6.429.841.54.841.541 4.133-6.43z"/><defs><linearGradient id="a" x1="247.5" x2="247.5" y1="15" y2="189" gradientUnits="userSpaceOnUse"><stop stop-color="#22e6ed"/><stop offset="1" stop-color="#a8fcff"/></linearGradient></defs></svg>