<svg xmlns="http://www.w3.org/2000/svg" width="300" height="200" fill="none" viewBox="0 0 300 200"><path fill="#000" d="M0 0h300v200H0z"/><path stroke="#fff" stroke-width="2" d="M6 99h288"/><path fill="url(#a)" d="M145 100.288c0-39.072-17.595-74.46-19.145-77.5C123.102 28.327 107 62.334 107 99.711c0 39.072 17.595 74.461 19.145 77.501 2.753-5.541 18.855-39.548 18.855-76.925" opacity=".84"/><path fill="url(#b)" d="M183 100.288c0-39.072-17.595-74.46-19.145-77.5C161.102 28.327 145 62.334 145 99.711c0 39.072 17.595 74.461 19.145 77.501 2.753-5.541 18.855-39.548 18.855-76.925" opacity=".84"/><path fill="#ffff24" d="m77.38 43 3.26-19.636h6.338q2.091 0 3.366.795 1.275.796 1.754 2.167.49 1.371.202 3.097a7.5 7.5 0 0 1-1.228 3.088 6.7 6.7 0 0 1-2.483 2.176q-1.534.806-3.605.806h-4.986l.269-1.611h4.938q1.543 0 2.655-.575a4.75 4.75 0 0 0 1.793-1.592 5.8 5.8 0 0 0 .882-2.292q.211-1.295-.134-2.3a2.85 2.85 0 0 0-1.265-1.573q-.921-.576-2.474-.576h-4.497L79.174 43zm17.863 3.375 1.688-10.163h-.096l-3.27 1.946.278-1.592 3.28-1.965h1.61l-1.956 11.774zM188.381 43l3.26-19.636h6.337q2.091 0 3.366.795 1.275.796 1.754 2.167.489 1.371.202 3.097a7.5 7.5 0 0 1-1.228 3.088q-.94 1.371-2.483 2.176-1.534.806-3.605.806h-4.986l.269-1.611h4.938q1.543 0 2.655-.575a4.75 4.75 0 0 0 1.793-1.592 5.8 5.8 0 0 0 .883-2.292q.21-1.295-.135-2.3a2.84 2.84 0 0 0-1.265-1.573q-.921-.576-2.474-.576h-4.497L190.174 43zm15.139 3.375.173-1.15 5.101-4.133q.91-.728 1.486-1.275.585-.547.892-1.017.306-.48.383-1.006.153-.92-.46-1.496-.604-.576-1.688-.575-1.102 0-1.936.623-.825.623-.978 1.592h-1.554q.25-1.506 1.525-2.493 1.284-.998 3.087-.998 1.199 0 2.023.451.834.45 1.208 1.227.374.768.221 1.726-.115.709-.489 1.343-.365.623-1.112 1.351a30 30 0 0 1-1.995 1.717l-3.384 2.732v.067h6.261l-.211 1.314z"/><defs><linearGradient id="a" x1="126" x2="126" y1="22" y2="178" gradientUnits="userSpaceOnUse"><stop offset=".01" stop-color="#49ebf0"/><stop offset=".308" stop-color="#8af5f9"/><stop offset=".673" stop-color="#49ebf0"/><stop offset=".952" stop-color="#84f3f6"/></linearGradient><linearGradient id="b" x1="164" x2="164" y1="22" y2="178" gradientUnits="userSpaceOnUse"><stop offset=".01" stop-color="#49ebf0"/><stop offset=".308" stop-color="#8af5f9"/><stop offset=".673" stop-color="#49ebf0"/><stop offset=".952" stop-color="#84f3f6"/></linearGradient></defs></svg>