<svg xmlns="http://www.w3.org/2000/svg" width="300" height="200" fill="none" viewBox="0 0 300 200"><path fill="#000" d="M0 0h300v200H0z"/><path stroke="#fff" stroke-width="2" d="M6 99h288"/><path fill="url(#a)" d="M145 100.288c0-39.072-17.595-74.46-19.145-77.5C123.102 28.327 107 62.334 107 99.711c0 39.072 17.595 74.461 19.145 77.501 2.753-5.541 18.855-39.548 18.855-76.925" opacity=".84"/><path fill="url(#b)" d="M183 100.288c0-39.072-17.595-74.46-19.145-77.5C161.102 28.327 145 62.334 145 99.711c0 39.072 17.595 74.461 19.145 77.501 2.753-5.541 18.855-39.548 18.855-76.925" opacity=".84"/><path fill="#ffff24" d="m77.026 43 2.455-14.727h1.658l-.383 2.262h.153a4.67 4.67 0 0 1 1.783-1.793q1.141-.66 2.59-.661 1.515 0 2.377.72.863.708 1.15 1.955h.125a5.1 5.1 0 0 1 1.947-1.946q1.256-.729 2.867-.729 2.042 0 3.02 1.294.977 1.294.566 3.759L95.684 43h-1.706l1.649-9.866q.278-1.745-.45-2.618-.73-.872-2.187-.872-1.687 0-2.79 1.035-1.094 1.026-1.352 2.628L87.228 43h-1.745l1.677-10.02q.24-1.495-.431-2.416-.661-.92-2.176-.92-1.026 0-1.928.508-.892.498-1.515 1.39a4.9 4.9 0 0 0-.805 2.023L78.733 43zm24.519 3.375 1.688-10.163h-.096l-3.27 1.946.278-1.592 3.279-1.965h1.611l-1.956 11.774zM188.026 43l2.454-14.727h1.659l-.383 2.262h.153a4.67 4.67 0 0 1 1.783-1.793q1.142-.66 2.589-.661 1.515 0 2.378.72.863.708 1.151 1.955h.124a5.1 5.1 0 0 1 1.947-1.946q1.256-.729 2.867-.729 2.042 0 3.02 1.294t.565 3.759L206.684 43h-1.706l1.649-9.866q.278-1.745-.451-2.618-.728-.872-2.186-.872-1.687 0-2.79 1.035-1.093 1.026-1.352 2.628L198.228 43h-1.745l1.678-10.02q.238-1.495-.432-2.416-.661-.92-2.176-.92-1.026 0-1.928.508a4.55 4.55 0 0 0-1.515 1.39 4.9 4.9 0 0 0-.805 2.023L189.733 43zm21.796 3.375.173-1.15 5.1-4.133q.912-.728 1.487-1.275.585-.547.891-1.017a2.5 2.5 0 0 0 .384-1.006q.153-.92-.46-1.496-.605-.576-1.688-.575-1.103 0-1.937.623-.823.623-.978 1.592h-1.553q.249-1.506 1.525-2.493 1.284-.998 3.087-.998 1.198 0 2.023.451.834.45 1.208 1.227.374.768.221 1.726-.116.709-.489 1.343-.364.623-1.113 1.351a30 30 0 0 1-1.994 1.717l-3.385 2.732v.067h6.261l-.21 1.314z"/><defs><linearGradient id="a" x1="126" x2="126" y1="22" y2="178" gradientUnits="userSpaceOnUse"><stop offset=".01" stop-color="#49ebf0"/><stop offset=".308" stop-color="#8af5f9"/><stop offset=".673" stop-color="#49ebf0"/><stop offset=".952" stop-color="#84f3f6"/></linearGradient><linearGradient id="b" x1="164" x2="164" y1="22" y2="178" gradientUnits="userSpaceOnUse"><stop offset=".01" stop-color="#49ebf0"/><stop offset=".308" stop-color="#8af5f9"/><stop offset=".673" stop-color="#49ebf0"/><stop offset=".952" stop-color="#84f3f6"/></linearGradient></defs></svg>