<svg xmlns="http://www.w3.org/2000/svg" width="300" height="200" fill="none" viewBox="0 0 300 200"><path fill="#000" d="M0 0h300v200H0z"/><path fill="url(#a)" d="M145 7h84s-23.673 29.033-23.673 92.5S229 192 229 192h-84s24.436-25.657 24.436-92.5S145 7 145 7" opacity=".93"/><path fill="url(#b)" d="M155 100.354c0-48.088-26.856-91.643-29.221-95.385C121.577 11.789 97 53.643 97 99.646c0 48.088 26.856 91.643 29.221 95.385 4.202-6.819 28.779-48.674 28.779-94.677" opacity=".84"/><path stroke="#fff" stroke-width="2" d="M30 82h68M205.462 119.113 266.612 151"/><path fill="url(#c)" d="m169.169 101.771-70.31-19.347c-.969-.266-1.682.901-1.002 1.641l64.176 69.838a1 1 0 0 0 1.729-.556l6.134-50.491a1 1 0 0 0-.727-1.085" opacity=".8"/><path fill="url(#d)" d="m171.228 102.089 33.886 16.247a1 1 0 0 1 .217 1.662l-41.313 35.279c-.702.599-1.771.01-1.639-.903l7.427-51.526a1 1 0 0 1 1.422-.759" opacity=".62"/><path fill="#fff" d="m63.062 82-10-5.773v11.546zM243.832 139.392l-6.557-9.504-4.953 10.431z"/><path fill="#49ebf0" d="m75.307 23.546-.296 1.76h-8.568l.284-1.76zM66.5 41l3.33-20.011q.227-1.41 1.034-2.375a5.4 5.4 0 0 1 1.954-1.466 5.7 5.7 0 0 1 2.33-.5q.795 0 1.295.136.5.125.784.25l-.863 1.773-.546-.16a3 3 0 0 0-.807-.09q-1.317 0-2.159.739-.84.738-1.08 2.113L68.523 41zm11.526 4 2-12.045h-.114l-3.875 2.306.33-1.886 3.886-2.33h1.909L79.844 45zM58.17 161.545h2.296q-1.273 1.66-2.057 3.091a17 17 0 0 0-1.239 2.807 19 19 0 0 0-.681 2.818q-.557 3.364.238 5.262.795 1.886 2.648 1.886 1.635 0 2.864-1.477 1.238-1.49 1.681-4.171l.819-4.909h1.659l-.762 4.603q-.42 2.522-1.352 4.284-.92 1.749-2.284 2.67-1.352.909-3.09.909-1.899 0-3.07-1.102-1.158-1.103-1.545-3.159-.375-2.057.091-4.921.41-2.432 1.341-4.568a18.4 18.4 0 0 1 2.444-4.023m14.932 0h2.296q.874 1.887 1.102 4.023.239 2.136-.17 4.568-.478 2.864-1.546 4.921-1.057 2.057-2.59 3.159a5.74 5.74 0 0 1-3.433 1.102q-1.738 0-2.795-.909-1.057-.921-1.41-2.67-.34-1.763.08-4.284l.762-4.603h1.67l-.807 4.909q-.454 2.682.285 4.171.75 1.477 2.386 1.477 1.238 0 2.295-.852 1.056-.853 1.819-2.455.772-1.602 1.136-3.841.238-1.454.25-2.818a12.5 12.5 0 0 0-.307-2.807q-.307-1.43-1.023-3.091M80.463 183l2-12.045h-.114l-3.875 2.306.33-1.886 3.886-2.33h1.91L82.28 183z"/><path fill="#6584ff" d="M251.17 161.545h2.296q-1.273 1.66-2.057 3.091a17 17 0 0 0-1.239 2.807 19 19 0 0 0-.681 2.818q-.558 3.364.238 5.262.796 1.886 2.648 1.886 1.636 0 2.864-1.477 1.238-1.49 1.681-4.171l.819-4.909h1.659l-.762 4.603q-.42 2.522-1.352 4.284-.92 1.749-2.284 2.67-1.353.909-3.091.909-1.898 0-3.068-1.102-1.16-1.103-1.546-3.159-.374-2.057.091-4.921a19.5 19.5 0 0 1 1.341-4.568 18.4 18.4 0 0 1 2.443-4.023m14.932 0h2.296q.874 1.887 1.102 4.023.238 2.136-.17 4.568-.478 2.864-1.546 4.921-1.056 2.057-2.591 3.159a5.74 5.74 0 0 1-3.432 1.102q-1.739 0-2.795-.909-1.057-.921-1.409-2.67-.34-1.763.079-4.284l.762-4.603h1.67l-.807 4.909q-.454 2.682.284 4.171.75 1.477 2.387 1.477 1.239 0 2.295-.852 1.057-.853 1.818-2.455.773-1.602 1.137-3.841.238-1.454.25-2.818a12.5 12.5 0 0 0-.307-2.807q-.307-1.43-1.023-3.091M270.236 183l.204-1.364 6.046-4.897a28 28 0 0 0 1.761-1.512q.693-.648 1.057-1.204.363-.569.455-1.193.182-1.092-.546-1.773-.716-.682-2-.682-1.306 0-2.295.739-.978.738-1.159 1.886h-1.841q.295-1.784 1.806-2.955 1.523-1.18 3.66-1.181 1.42 0 2.397.534.989.534 1.432 1.454.444.909.261 2.046a4.5 4.5 0 0 1-.579 1.591q-.432.738-1.318 1.602-.887.852-2.364 2.034l-4.011 3.239v.079h7.42l-.25 1.557zM257.307 23.546l-.296 1.76h-8.568l.284-1.76zM248.5 41l3.33-20.011q.227-1.41 1.034-2.375a5.4 5.4 0 0 1 1.954-1.466 5.7 5.7 0 0 1 2.33-.5q.795 0 1.295.136.5.125.784.25l-.863 1.773-.546-.16a3 3 0 0 0-.807-.09q-1.317 0-2.159.739-.84.738-1.079 2.113L250.523 41zm8.298 4 .205-1.364 6.045-4.897a28 28 0 0 0 1.762-1.512q.693-.647 1.056-1.204.364-.57.455-1.194.181-1.09-.545-1.772-.717-.682-2-.682-1.308 0-2.296.739-.977.737-1.159 1.886h-1.841q.295-1.784 1.807-2.955 1.523-1.18 3.659-1.181 1.42 0 2.398.534.988.534 1.432 1.454.443.909.261 2.046a4.5 4.5 0 0 1-.58 1.59q-.431.74-1.318 1.603-.887.852-2.363 2.034l-4.012 3.239v.08h7.421l-.25 1.556z"/><defs><linearGradient id="a" x1="187" x2="187" y1="7" y2="192" gradientUnits="userSpaceOnUse"><stop stop-color="#849ef6"/><stop offset=".317" stop-color="#aac2e0"/><stop offset=".75" stop-color="#849ef6"/><stop offset="1" stop-color="#aac2e0"/></linearGradient><linearGradient id="b" x1="126" x2="126" y1="4" y2="196" gradientUnits="userSpaceOnUse"><stop offset=".01" stop-color="#49ebf0"/><stop offset=".308" stop-color="#8af5f9"/><stop offset=".673" stop-color="#49ebf0"/><stop offset=".952" stop-color="#84f3f6"/></linearGradient><linearGradient id="c" x1="170" x2="143.922" y1="102" y2="136.942" gradientUnits="userSpaceOnUse"><stop stop-color="red"/><stop offset=".163" stop-color="orange"/><stop offset=".352" stop-color="#ff0"/><stop offset=".51" stop-color="#0f0"/><stop offset=".688" stop-color="#00f"/><stop offset=".841" stop-color="indigo"/><stop offset="1" stop-color="#8a2be2"/></linearGradient><linearGradient id="d" x1="171.5" x2="162" y1="102" y2="154.5" gradientUnits="userSpaceOnUse"><stop stop-color="red"/><stop offset=".163" stop-color="orange"/><stop offset=".352" stop-color="#ff0"/><stop offset=".51" stop-color="#0f0"/><stop offset=".688" stop-color="#00f"/><stop offset=".841" stop-color="indigo"/><stop offset="1" stop-color="#8a2be2"/></linearGradient></defs></svg>