<svg xmlns="http://www.w3.org/2000/svg" width="300" height="200" fill="none" viewBox="0 0 300 200"><path fill="#000" d="M0 0h300v200H0z"/><path fill="#ff2c30" d="m62.825 104-11.25-2.598 3.375 11.043zM242.563 109.892l-7.266-8.973-4.138 10.78z"/><path fill="#fff" d="M172.67 38h-2.227l12.33-23.273h2.272L189.648 38h-2.228l-3.875-20.511h-.147zm3.091-8.92h11.546l-.318 1.909h-11.546z"/><path stroke="#000" stroke-width="2" d="M139 35c1.495.234-.452 5.039 10.774 5C161 39.96 158.11 35.086 161 35"/><path stroke="#ffff24" stroke-width="2" d="M195.139 66.634s7.696-1.26 8.905 13.451-6.42 15.369-6.42 15.369"/><path stroke="#ff2c30" stroke-width="2" d="m21.5 114 93.885-22.472a1 1 0 0 1 .233-.028h70.227a1 1 0 0 1 .303.047L282 122"/><path stroke="#fff" stroke-dasharray="5 5" d="m115.847 91.524 146-47"/><path fill="url(#a)" d="m149.5 14 81 170.25H74z" opacity=".8"/><path fill="#000" d="m140.091 165.625 4-24.08h2.034l-1.795 10.785q-.24 1.453.215 2.568a3.7 3.7 0 0 0 1.489 1.738q1.023.625 2.5.625 1.49 0 2.716-.636a5.851 5.851 0 0 0 3.102-4.295l1.796-10.785h2.034L155.273 159h-2.034l.454-2.648h-.113a6.35 6.35 0 0 1-2.353 2.125 6.4 6.4 0 0 1-3.011.75q-1.569 0-2.761-.784-1.183-.784-1.648-2.204h-.114l-1.568 9.386z"/><path stroke="#000" stroke-width="2" d="M139 35c1.495.234-.452 5.039 10.774 5C161 39.96 158.11 35.086 161 35"/><path fill="#ffff24" d="M221.477 68.966q.33-1.965 2.034-3.125 1.705-1.17 4.409-1.17 1.194 0 2.171.215a9.2 9.2 0 0 1 1.898.637l-.341 2.045q-.728-.353-1.796-.636a8.3 8.3 0 0 0-2.238-.296q-1.603 0-2.591.648-.989.637-1.171 1.693a2.2 2.2 0 0 0 .125 1.194q.239.567.989 1.147.761.568 2.227 1.148 3.125 1.239 4.341 3.364 1.216 2.114.705 5.102l-.057.307q-.41 2.34-1.591 4.17-1.182 1.818-2.977 2.864-1.796 1.045-4.057 1.045-2.273 0-3.739-1.045-1.466-1.046-2.045-2.875-.58-1.83-.193-4.17l.045-.319q.33-1.898 1.273-3.432a9.2 9.2 0 0 1 2.318-2.568 8 8 0 0 1 3-1.409l.023-.08q-1.569-.647-2.296-1.772-.715-1.137-.466-2.682m-1.511 11.943-.046.261q-.261 1.773.057 3.194.318 1.408 1.284 2.227.966.818 2.603.818 1.625 0 2.852-.818 1.239-.818 2.034-2.216.796-1.398 1.102-3.136l.046-.307q.25-1.42-.103-2.693A5 5 0 0 0 228.523 76q-.921-.966-2.421-1.42-1.716.102-3 .966a6.6 6.6 0 0 0-2.079 2.26q-.796 1.388-1.057 3.103M232.651 93l1.954-11.636h1.773l-.341 1.897h.114a3.85 3.85 0 0 1 1.42-1.477q.92-.557 2.08-.557 1.238 0 1.954.614.716.613.841 1.648h.114a3.86 3.86 0 0 1 1.511-1.648q1.011-.614 2.284-.614 1.682 0 2.443 1.069.773 1.068.466 2.886L247.946 93h-1.852l1.261-7.546q.194-1.192-.273-1.908-.454-.728-1.659-.728-1.227 0-2 .773t-.977 1.943L241.185 93h-1.773l1.239-7.58q.193-1.17-.285-1.886-.465-.716-1.602-.716-1.091 0-1.954.75-.853.75-1.069 2.034L234.491 93z"/><defs><linearGradient id="a" x1="149.5" x2="147.5" y1="14" y2="221.5" gradientUnits="userSpaceOnUse"><stop stop-color="#aafcff"/><stop offset=".341" stop-color="#41c1c5"/><stop offset=".654" stop-color="#aafcff"/><stop offset="1" stop-color="#49ebf0"/></linearGradient></defs></svg>