<svg xmlns="http://www.w3.org/2000/svg" width="300" height="200" fill="none" viewBox="0 0 300 200"><g clip-path="url(#a)"><path fill="#000" d="M0 0h300v200H0z"/><path fill="url(#b)" d="M0 74h300v126H0z"/><path fill="#000" d="M128.625 182.489q-.603 3.602-2.318 6.261t-4.193 4.114a10.46 10.46 0 0 1-5.387 1.454q-2.988 0-5.045-1.488-2.046-1.5-2.898-4.205-.852-2.716-.25-6.386.603-3.603 2.318-6.262t4.205-4.113a10.53 10.53 0 0 1 5.409-1.455q2.954 0 5 1.489 2.046 1.488 2.909 4.204.864 2.704.25 6.387m-2.034-.25q.522-3.114-.136-5.307-.648-2.193-2.228-3.352-1.58-1.171-3.829-1.171a8.5 8.5 0 0 0-4.375 1.205q-2.046 1.193-3.489 3.454-1.443 2.25-1.977 5.421-.512 3.102.136 5.306.648 2.194 2.227 3.364 1.591 1.16 3.853 1.159a8.5 8.5 0 0 0 4.386-1.204q2.046-1.205 3.477-3.455 1.443-2.26 1.955-5.42M252.466 142.364q-2.148 0-3.58-1.137-1.431-1.136-2-3.17-.567-2.034-.125-4.739.455-2.692 1.694-4.716 1.25-2.034 3.056-3.159a7.34 7.34 0 0 1 3.966-1.136q1.603 0 2.557.568.966.556 1.466 1.386t.716 1.614h.182l1.522-9.148h2.035L260.091 142h-1.966l.545-3.239h-.25a10 10 0 0 1-1.284 1.637q-.783.83-1.931 1.397-1.148.569-2.739.569m.443-1.853q1.693 0 3.057-.92 1.375-.932 2.295-2.557.933-1.637 1.273-3.75.352-2.091-.011-3.693-.364-1.614-1.409-2.523-1.046-.92-2.762-.92-1.738 0-3.091.954-1.352.943-2.238 2.557-.876 1.614-1.216 3.625-.33 2.034 0 3.671.33 1.636 1.341 2.602 1.023.954 2.761.954M184.466 107.364q-2.148 0-3.58-1.137-1.431-1.136-2-3.17-.567-2.034-.125-4.739.455-2.692 1.694-4.716 1.25-2.034 3.056-3.159a7.34 7.34 0 0 1 3.966-1.136q1.602 0 2.557.568.966.556 1.466 1.386t.716 1.614h.182l1.522-9.148h2.035L192.091 107h-1.966l.545-3.239h-.25a10 10 0 0 1-1.284 1.637q-.783.83-1.931 1.397-1.148.569-2.739.569m.443-1.853q1.693 0 3.057-.92 1.375-.932 2.295-2.557.933-1.636 1.273-3.75.352-2.091-.011-3.693-.364-1.614-1.409-2.523-1.046-.92-2.762-.92-1.738 0-3.091.954-1.352.944-2.238 2.557-.876 1.614-1.216 3.625-.33 2.034 0 3.671.33 1.635 1.341 2.602 1.023.954 2.761.954m14.364 5.716q-.989 0-1.773-.386a2.54 2.54 0 0 1-1.159-1.148q-.387-.75-.205-1.886a3.5 3.5 0 0 1 .512-1.387 3.4 3.4 0 0 1 1.011-1q.636-.42 1.511-.681.876-.263 1.966-.375a34 34 0 0 0 1.614-.194q.693-.102 1.091-.306.398-.216.42-.637l.034-.318q.137-1.045-.386-1.648-.522-.613-1.682-.613-1.09 0-1.909.488-.807.489-1.182 1.216l-1.693-.261a4.56 4.56 0 0 1 2-2.136 6.1 6.1 0 0 1 2.955-.74q1.193 0 2.113.41.933.41 1.387 1.239.465.83.261 2.091L204.818 111h-1.773l.341-1.92h-.079a4.7 4.7 0 0 1-1.716 1.568 4.75 4.75 0 0 1-2.318.579m.625-1.363q.931 0 1.738-.444a4.1 4.1 0 0 0 1.375-1.204q.558-.761.716-1.727l.262-1.534a3 3 0 0 1-.796.318q-.454.113-.966.193l-1 .136q-1.511.193-2.329.739t-.966 1.386q-.148.91.363 1.523.511.614 1.603.614m7.514 5.5 2.682-16h1.807l-.398 2.409h.125q.353-.67.92-1.25a4.5 4.5 0 0 1 1.341-.944 3.9 3.9 0 0 1 1.705-.363q1.477 0 2.386.795.92.784 1.25 2.137.33 1.341.046 3-.308 1.875-1.137 3.238-.818 1.364-1.988 2.103a4.7 4.7 0 0 1-2.546.738q-.966 0-1.614-.375a2.8 2.8 0 0 1-1.022-.954 4 4 0 0 1-.512-1.228h-.091l-1.125 6.694zm3.534-10.273q-.33 2.046.273 3.318.602 1.273 2.147 1.273.99 0 1.819-.58.84-.568 1.409-1.568.579-1 .784-2.295.33-1.955-.296-3.228-.613-1.272-2.17-1.272-.989 0-1.818.568-.819.568-1.387 1.545-.557.978-.761 2.239m9.403 10.273 2.682-16h1.807l-.398 2.409h.125a5.3 5.3 0 0 1 .921-1.25 4.5 4.5 0 0 1 1.341-.944 3.9 3.9 0 0 1 1.704-.363q1.478 0 2.387.795.92.784 1.25 2.137.329 1.341.045 3-.306 1.875-1.136 3.238-.819 1.364-1.989 2.103a4.7 4.7 0 0 1-2.545.738q-.966 0-1.614-.375a2.8 2.8 0 0 1-1.023-.954 4 4 0 0 1-.511-1.228h-.091l-1.125 6.694zm3.535-10.273q-.33 2.046.272 3.318t2.148 1.273q.989 0 1.818-.58.841-.568 1.409-1.568.58-1 .784-2.295.33-1.955-.295-3.228-.614-1.272-2.171-1.272-.988 0-1.818.568-.817.568-1.386 1.545-.557.978-.761 2.239"/><path fill="#1d1d1d" d="M150.5 45a.5.5 0 0 0-1 0h1m-.5 151h.5v-2.517h-1V196zm0-7.55h.5v-5.033h-1v5.033zm0-10.067h.5v-5.033h-1v5.033zm0-10.066h.5v-5.034h-1v5.034zm0-10.067h.5v-5.033h-1v5.033zm0-10.067h.5v-5.033h-1v5.033zm0-10.066h.5v-5.034h-1v5.034zm0-10.067h.5v-5.033h-1v5.033zm0-10.067h.5v-5.033h-1v5.033zm0-10.066h.5v-5.034h-1v5.034zm0-10.067h.5v-5.033h-1v5.033zm0-10.067h.5V82.75h-1v5.033zm0-10.066h.5v-5.034h-1v5.034zm0-10.067h.5v-5.033h-1v5.033zm0-10.067h.5V52.55h-1v5.033zm0-10.066h.5V45h-1v2.517z"/><circle cx="150" cy="194" r="6" fill="#000"/><path fill="#000" d="m65 74 1.055 11.499 9.43-6.663zm85.186 120.58.816-.577L71.01 80.773l-.817.578-.817.577 79.993 113.229z"/><path fill="#fff" d="M64.553 72.894a1 1 0 1 0 .894-1.788L65 72zM17 48l6.362 9.636 5.164-10.328zm48 24 .447-.894-39.95-19.975-.447.894-.447.894 39.95 19.975z"/><path stroke="#620000" stroke-dasharray="5 5" stroke-width="2" d="m149.549 115.892-85-43"/><path fill="#000" d="m41.077 152.59 3.375-20.317h1.716l-1.515 9.099q-.2 1.227.182 2.167.393.93 1.256 1.467.863.527 2.11.527 1.255 0 2.291-.537a4.93 4.93 0 0 0 2.618-3.624l1.515-9.099h1.716L53.886 147H52.17l.384-2.234h-.096a5.35 5.35 0 0 1-1.985 1.793 5.4 5.4 0 0 1-2.54.633q-1.325 0-2.33-.662-.998-.662-1.391-1.86h-.096l-1.323 7.92zM276 75l-5.774 10h11.548zm0 125 5.774-10h-11.547zm0-116h-1v107h2V84zM162 75l-5.774 10h11.548zm0 42 5.774-10h-11.548zm0-33h-1v24h2V84z"/></g><defs><linearGradient id="b" x1="0" x2="300" y1="137" y2="137" gradientUnits="userSpaceOnUse"><stop stop-color="#4ad6db"/><stop offset=".202" stop-color="#bed0d0"/><stop offset=".543" stop-color="#4ad6db"/><stop offset="1" stop-color="#b7cdce"/></linearGradient><clipPath id="a"><path fill="#fff" d="M0 0h300v200H0z"/></clipPath></defs></svg>