<svg xmlns="http://www.w3.org/2000/svg" width="300" height="200" fill="none" viewBox="0 0 300 200"><path fill="#000" d="M0 0h300v200H0z"/><path fill="url(#a)" d="M0 75h300v125H0z"/><path stroke="#fff" stroke-dasharray="5 5" d="M150.5 28v101"/><path fill="#fff" d="m150 75-16.977 3.43 11.459 12.988zm-85 75 .992 1.125 74.878-66.068-.993-1.125-.992-1.125-74.877 66.068zM263.358 75l-15-8.66v17.32zM150 75v1.5h99.858v-3H150z"/><path stroke="#000" stroke-width="2" d="M149.857 102.347s-6.105 2.953-11.48.846c-5.376-2.107-7.798-9.77-7.798-9.77"/><path fill="#000" d="m132.352 121.739-.307 1.909h-11.454l.307-1.909zm1.273-.307-.398 2.375q-.591 3.568-1.818 5.898-1.216 2.33-2.954 3.477-1.74 1.136-3.898 1.136-2.16 0-3.546-1.148t-1.852-3.477q-.466-2.33.125-5.886l.398-2.375q.602-3.546 1.818-5.841 1.216-2.307 2.955-3.421 1.739-1.125 3.897-1.125 2.17 0 3.557 1.125 1.386 1.114 1.841 3.421.466 2.295-.125 5.841m-2.523 2.716.523-3.046q.442-2.693.159-4.522-.273-1.83-1.216-2.75-.943-.932-2.443-.932-2.284 0-3.989 2.102-1.692 2.091-2.363 6.102l-.512 3.046q-.681 4.034.319 6.182 1 2.136 3.25 2.136 1.522 0 2.784-.966t2.147-2.83q.898-1.863 1.341-4.522m7.157 14.079q-1.626 0-2.682-.784-1.057-.785-1.478-2.136-.42-1.352-.125-3.08.285-1.773 1.182-3.125.898-1.363 2.216-2.125a5.7 5.7 0 0 1 2.887-.761q1.897 0 3 1.091t.988 2.863h-1.761q0-1.09-.648-1.772t-1.773-.682q-1.022 0-1.909.557-.875.556-1.488 1.579-.602 1.012-.83 2.375-.227 1.319.034 2.33t.932 1.579q.682.58 1.716.58 1.125 0 2.034-.693a3.64 3.64 0 0 0 1.284-1.796h1.75q-.489 1.808-1.943 2.898-1.443 1.102-3.386 1.102"/><path fill="#fff" d="m21.077 59.59 3.375-20.317h1.716l-1.515 9.099q-.2 1.227.182 2.167.393.93 1.256 1.467.863.527 2.11.527 1.255 0 2.291-.537a4.93 4.93 0 0 0 2.618-3.624l1.515-9.1h1.716L33.886 54H32.17l.384-2.234h-.096a5.35 5.35 0 0 1-1.985 1.793 5.4 5.4 0 0 1-2.54.633q-1.325 0-2.33-.662-.998-.66-1.391-1.86h-.096l-1.323 7.92zm18.56-2.215 1.687-10.163h-.096l-3.27 1.946.279-1.592 3.28-1.965h1.61L41.17 57.375z"/><path fill="#000" d="m21.077 118.59 3.375-20.317h1.716l-1.515 9.099q-.2 1.227.182 2.167.393.93 1.256 1.467.863.527 2.11.527 1.255 0 2.291-.537a4.93 4.93 0 0 0 2.618-3.624l1.515-9.1h1.716L33.886 113H32.17l.384-2.234h-.096a5.35 5.35 0 0 1-1.985 1.793 5.4 5.4 0 0 1-2.54.633q-1.325 0-2.33-.662-.998-.662-1.391-1.86h-.096l-1.323 7.92zm15.837-2.215.172-1.151 5.101-4.132a24 24 0 0 0 1.486-1.275q.585-.547.892-1.017.307-.479.384-1.006.153-.921-.46-1.496-.605-.576-1.688-.575-1.102 0-1.937.623-.825.623-.978 1.592h-1.553q.249-1.506 1.524-2.493 1.285-.998 3.088-.998 1.198 0 2.023.451.834.451 1.208 1.227.375.768.22 1.726-.115.71-.489 1.343-.363.623-1.112 1.351a30 30 0 0 1-1.994 1.717l-3.385 2.732v.067h6.261l-.21 1.314z"/><defs><linearGradient id="a" x1="150" x2="150" y1="75" y2="200" gradientUnits="userSpaceOnUse"><stop stop-color="#4ad6db"/><stop offset="1" stop-color="#007d83"/></linearGradient></defs></svg>