<svg xmlns="http://www.w3.org/2000/svg" width="300" height="200" fill="none" viewBox="0 0 300 200"><g clip-path="url(#a)"><path fill="#000" d="M0 0h300v200H0z"/><path fill="url(#b)" d="M0 81h300v105H0z"/><path fill="#ffff24" d="m59.09 62.625 4-24.08h2.035L63.33 49.33q-.24 1.454.215 2.568a3.7 3.7 0 0 0 1.49 1.738q1.02.625 2.5.625 1.488 0 2.715-.636a5.86 5.86 0 0 0 3.102-4.295l1.796-10.785h2.034L74.272 56H72.24l.454-2.648h-.114a6.34 6.34 0 0 1-2.352 2.125q-1.431.75-3.011.75-1.568 0-2.761-.784-1.182-.784-1.648-2.204h-.114l-1.568 9.386zM81.089 60l2-12.045h-.114L79.1 50.26l.33-1.886 3.886-2.33h1.91L82.905 60zM137.636 27.546 128.352 45h-2.159l-3.466-17.454h2.103l2.727 14.784h.148l7.647-14.784zM140.276 49l2-12.045h-.114l-3.875 2.306.329-1.886 3.887-2.33h1.909L142.094 49z"/><path fill="#000" d="m59.09 132.625 4-24.08h2.035L63.33 119.33q-.24 1.454.215 2.568.466 1.102 1.49 1.738 1.02.625 2.5.625 1.488 0 2.715-.636a5.85 5.85 0 0 0 3.102-4.295l1.796-10.785h2.034L74.272 126H72.24l.454-2.648h-.114a6.34 6.34 0 0 1-2.352 2.125q-1.431.75-3.011.75-1.568 0-2.761-.784-1.182-.784-1.648-2.204h-.114l-1.568 9.386zM77.86 130l.205-1.364 6.046-4.897q1.08-.864 1.761-1.512.693-.648 1.057-1.204.364-.569.454-1.193.183-1.092-.545-1.773-.716-.682-2-.682-1.306 0-2.295.739-.977.738-1.16 1.886h-1.84q.296-1.784 1.806-2.955 1.523-1.18 3.66-1.181 1.42 0 2.397.534.99.534 1.432 1.454.444.909.261 2.046a4.5 4.5 0 0 1-.58 1.591q-.43.738-1.317 1.602-.887.852-2.364 2.034l-4.011 3.239v.079h7.42l-.25 1.557zM203.636 111.545 194.352 129h-2.159l-3.466-17.455h2.103l2.727 14.785h.148l7.647-14.785zM203.048 133l.205-1.364 6.045-4.897q1.08-.864 1.762-1.512.693-.648 1.056-1.204a3 3 0 0 0 .455-1.193q.181-1.092-.545-1.773-.717-.682-2-.682-1.308 0-2.296.739-.977.738-1.159 1.886h-1.841q.295-1.784 1.807-2.955 1.523-1.18 3.659-1.181 1.42 0 2.398.534.988.534 1.432 1.454.442.909.261 2.046a4.5 4.5 0 0 1-.58 1.591q-.431.738-1.318 1.602-.887.852-2.363 2.034l-4.012 3.239v.079h7.421l-.25 1.557z"/><g filter="url(#c)"><path fill="#ff2c30" d="m149.829 81.422-3.109-11.12-8.076 8.252zM84 17l-.7.715 59.398 58.127.699-.715.699-.714-59.397-58.128z"/></g><g filter="url(#d)"><path fill="#ff2c30" d="m195 182 1.015-11.502-10.469 4.871zM148 81l-.907.422 43.203 92.84.907-.422.907-.422-43.203-92.84z"/></g><path fill="#fff" d="m148 9-2.887 5h5.774zm0 151h.5v-2.517h-1V160zm0-7.55h.5v-5.033h-1v5.033zm0-10.067h.5v-5.033h-1v5.033zm0-10.066h.5v-5.034h-1v5.034zm0-10.067h.5v-5.033h-1v5.033zm0-10.067h.5v-5.033h-1v5.033zm0-10.066h.5v-5.034h-1v5.034zm0-10.067h.5v-5.033h-1v5.033zm0-10.067h.5V76.95h-1v5.033zm0-10.066h.5v-5.034h-1v5.034zm0-10.067h.5v-5.033h-1v5.033zm0-10.067h.5V46.75h-1v5.033zm0-10.066h.5v-5.034h-1v5.034zm0-10.067h.5v-5.033h-1v5.033zm0-10.067h.5V16.55h-1v5.033z"/></g><defs><filter id="c" width="566.528" height="565.137" x="-166.699" y="-233.715" color-interpolation-filters="sRGB" filterUnits="userSpaceOnUse"><feFlood flood-opacity="0" result="BackgroundImageFix"/><feColorMatrix in="SourceAlpha" result="hardAlpha" values="0 0 0 0 0 0 0 0 0 0 0 0 0 0 0 0 0 0 127 0"/><feOffset/><feGaussianBlur stdDeviation="5.526"/><feColorMatrix values="0 0 0 0 1 0 0 0 0 0.25098 0 0 0 0 0.0745098 0 0 0 1 0"/><feBlend in2="BackgroundImageFix" result="effect1_dropShadow_613_6"/><feColorMatrix in="SourceAlpha" result="hardAlpha" values="0 0 0 0 0 0 0 0 0 0 0 0 0 0 0 0 0 0 127 0"/><feOffset/><feGaussianBlur stdDeviation="11.053"/><feColorMatrix values="0 0 0 0 1 0 0 0 0 0.25098 0 0 0 0 0.0745098 0 0 0 1 0"/><feBlend in2="effect1_dropShadow_613_6" result="effect2_dropShadow_613_6"/><feColorMatrix in="SourceAlpha" result="hardAlpha" values="0 0 0 0 0 0 0 0 0 0 0 0 0 0 0 0 0 0 127 0"/><feOffset/><feGaussianBlur stdDeviation="38.685"/><feColorMatrix values="0 0 0 0 1 0 0 0 0 0.25098 0 0 0 0 0.0745098 0 0 0 1 0"/><feBlend in2="effect2_dropShadow_613_6" result="effect3_dropShadow_613_6"/><feColorMatrix in="SourceAlpha" result="hardAlpha" values="0 0 0 0 0 0 0 0 0 0 0 0 0 0 0 0 0 0 127 0"/><feOffset/><feGaussianBlur stdDeviation="77.37"/><feColorMatrix values="0 0 0 0 1 0 0 0 0 0.25098 0 0 0 0 0.0745098 0 0 0 1 0"/><feBlend in2="effect3_dropShadow_613_6" result="effect4_dropShadow_613_6"/><feColorMatrix in="SourceAlpha" result="hardAlpha" values="0 0 0 0 0 0 0 0 0 0 0 0 0 0 0 0 0 0 127 0"/><feOffset/><feGaussianBlur stdDeviation="125"/><feColorMatrix values="0 0 0 0 1 0 0 0 0 0.25098 0 0 0 0 0.0745098 0 0 0 1 0"/><feBlend in2="effect4_dropShadow_613_6" result="effect5_dropShadow_613_6"/><feColorMatrix in="SourceAlpha" result="hardAlpha" values="0 0 0 0 0 0 0 0 0 0 0 0 0 0 0 0 0 0 127 0"/><feOffset/><feGaussianBlur stdDeviation="125"/><feColorMatrix values="0 0 0 0 1 0 0 0 0 0.25098 0 0 0 0 0.0745098 0 0 0 1 0"/><feBlend in2="effect5_dropShadow_613_6" result="effect6_dropShadow_613_6"/><feBlend in="SourceGraphic" in2="effect6_dropShadow_613_6" result="shape"/></filter><filter id="d" width="548.922" height="601.422" x="-102.906" y="-169.422" color-interpolation-filters="sRGB" filterUnits="userSpaceOnUse"><feFlood flood-opacity="0" result="BackgroundImageFix"/><feColorMatrix in="SourceAlpha" result="hardAlpha" values="0 0 0 0 0 0 0 0 0 0 0 0 0 0 0 0 0 0 127 0"/><feOffset/><feGaussianBlur stdDeviation="5.526"/><feColorMatrix values="0 0 0 0 1 0 0 0 0 0.25098 0 0 0 0 0.0745098 0 0 0 1 0"/><feBlend in2="BackgroundImageFix" result="effect1_dropShadow_613_6"/><feColorMatrix in="SourceAlpha" result="hardAlpha" values="0 0 0 0 0 0 0 0 0 0 0 0 0 0 0 0 0 0 127 0"/><feOffset/><feGaussianBlur stdDeviation="11.053"/><feColorMatrix values="0 0 0 0 1 0 0 0 0 0.25098 0 0 0 0 0.0745098 0 0 0 1 0"/><feBlend in2="effect1_dropShadow_613_6" result="effect2_dropShadow_613_6"/><feColorMatrix in="SourceAlpha" result="hardAlpha" values="0 0 0 0 0 0 0 0 0 0 0 0 0 0 0 0 0 0 127 0"/><feOffset/><feGaussianBlur stdDeviation="38.685"/><feColorMatrix values="0 0 0 0 1 0 0 0 0 0.25098 0 0 0 0 0.0745098 0 0 0 1 0"/><feBlend in2="effect2_dropShadow_613_6" result="effect3_dropShadow_613_6"/><feColorMatrix in="SourceAlpha" result="hardAlpha" values="0 0 0 0 0 0 0 0 0 0 0 0 0 0 0 0 0 0 127 0"/><feOffset/><feGaussianBlur stdDeviation="77.37"/><feColorMatrix values="0 0 0 0 1 0 0 0 0 0.25098 0 0 0 0 0.0745098 0 0 0 1 0"/><feBlend in2="effect3_dropShadow_613_6" result="effect4_dropShadow_613_6"/><feColorMatrix in="SourceAlpha" result="hardAlpha" values="0 0 0 0 0 0 0 0 0 0 0 0 0 0 0 0 0 0 127 0"/><feOffset/><feGaussianBlur stdDeviation="125"/><feColorMatrix values="0 0 0 0 1 0 0 0 0 0.25098 0 0 0 0 0.0745098 0 0 0 1 0"/><feBlend in2="effect4_dropShadow_613_6" result="effect5_dropShadow_613_6"/><feColorMatrix in="SourceAlpha" result="hardAlpha" values="0 0 0 0 0 0 0 0 0 0 0 0 0 0 0 0 0 0 127 0"/><feOffset/><feGaussianBlur stdDeviation="125"/><feColorMatrix values="0 0 0 0 1 0 0 0 0 0.25098 0 0 0 0 0.0745098 0 0 0 1 0"/><feBlend in2="effect5_dropShadow_613_6" result="effect6_dropShadow_613_6"/><feBlend in="SourceGraphic" in2="effect6_dropShadow_613_6" result="shape"/></filter><linearGradient id="b" x1="0" x2="300" y1="133.5" y2="133.5" gradientUnits="userSpaceOnUse"><stop stop-color="#4ad6db"/><stop offset=".202" stop-color="#bed0d0"/><stop offset=".543" stop-color="#4ad6db"/><stop offset="1" stop-color="#b7cdce"/></linearGradient><clipPath id="a"><path fill="#fff" d="M0 0h300v200H0z"/></clipPath></defs></svg>