<svg xmlns="http://www.w3.org/2000/svg" width="300" height="200" fill="none" viewBox="0 0 300 200"><path fill="#000" d="M0 0h300v200H0z"/><path fill="url(#a)" d="M137 13h70v174.764h-70z"/><path fill="#ff4013" d="m137 51.5-.156-.988-.109.018-.103.04zm69.5-11 .156.988.093-.015.089-.032zm83.5-30-11.363-2.052 3.904 10.867zM14.5 100l.368.93 122.5-48.5-.368-.93-.368-.93-122.5 48.5zM137 51.5l.156.988 69.5-11-.156-.988-.156-.988-69.5 11zm69.5-11 .338.941 75.03-26.957-.338-.94-.338-.942-75.03 26.957z"/><path stroke="#fff" d="M4 99.5h290"/><circle cx="16.5" cy="99.5" r="5.5" fill="#ff4013"/><circle cx="85.5" cy="99.5" r="5.5" fill="#4fff2c"/><path stroke="#fff" stroke-dasharray="5 5" stroke-width="2" d="m208.424 40.906-124 58"/><path fill="#fff" d="M16.969 122.366q-.451 2.703-1.739 4.696-1.287 1.994-3.145 3.086a7.84 7.84 0 0 1-4.04 1.091q-2.24 0-3.784-1.117-1.533-1.125-2.173-3.153-.64-2.037-.187-4.79.45-2.702 1.738-4.696 1.288-1.995 3.154-3.085a7.9 7.9 0 0 1 4.056-1.091q2.217 0 3.75 1.116 1.534 1.117 2.182 3.154.648 2.029.188 4.789m-1.526-.187q.392-2.336-.102-3.98-.486-1.645-1.67-2.514-1.185-.879-2.873-.878a6.36 6.36 0 0 0-3.281.903q-1.535.895-2.616 2.591-1.083 1.688-1.483 4.065-.384 2.327.102 3.981.486 1.644 1.67 2.522 1.194.87 2.89.87 1.755 0 3.29-.904 1.533-.903 2.607-2.591 1.082-1.695 1.466-4.065M96.719 113.545 93.82 131h-1.594l2.898-17.455z"/><path fill="#000" d="m175.25 168.909-.213 1.321h-6.256l.222-1.321zm-3.784-3.136h1.525l-2.13 12.809q-.136.819.068 1.287.204.46.631.657a2.3 2.3 0 0 0 .937.187q.298 0 .512-.034.22-.042.392-.085l.11 1.372a4.4 4.4 0 0 1-.588.153q-.34.077-.818.077a3.3 3.3 0 0 1-1.543-.366 2.44 2.44 0 0 1-1.073-1.091q-.367-.725-.196-1.799zM164.068 135.969l3-18.06h1.526l-1.347 8.088q-.178 1.09.162 1.926.35.827 1.117 1.304.766.47 1.875.469 1.116 0 2.037-.477a4.38 4.38 0 0 0 2.326-3.222l1.347-8.088h1.525L175.455 131h-1.526l.341-1.986h-.085a4.76 4.76 0 0 1-1.765 1.594 4.8 4.8 0 0 1-2.258.562q-1.176 0-2.071-.588-.887-.588-1.236-1.653h-.085l-1.176 7.04z"/><path fill="#8af5f9" d="m49.39 131.997.084-.528q.24-1.338.665-2.174a4.8 4.8 0 0 1 1.091-1.406q.657-.579 1.568-1.108a8.7 8.7 0 0 0 1.185-.835q.52-.435.844-.972.332-.537.434-1.244.145-.928-.162-1.611a2.25 2.25 0 0 0-.963-1.065q-.647-.384-1.542-.384-.87 0-1.68.384a3.9 3.9 0 0 0-1.397 1.099q-.588.725-.801 1.756h-1.61q.27-1.406 1.099-2.437a5.7 5.7 0 0 1 2.02-1.603 5.9 5.9 0 0 1 2.548-.562q1.423 0 2.395.588a3.34 3.34 0 0 1 1.406 1.611q.434 1.014.23 2.292a4.9 4.9 0 0 1-.537 1.628 5 5 0 0 1-1.031 1.27 9.3 9.3 0 0 1-1.534 1.091 7.7 7.7 0 0 0-1.381.997 3.8 3.8 0 0 0-.835 1.134q-.299.63-.46 1.551l-.094.528zm.153 5.131q-.511 0-.861-.358a1.22 1.22 0 0 1-.341-.869q0-.512.375-.861.374-.35.878-.35.503 0 .86.358.36.358.341.853a1.2 1.2 0 0 1-.187.622 1.35 1.35 0 0 1-.452.443 1.2 1.2 0 0 1-.613.162"/><path fill="#a8fcff" d="m22 111 10 5.774v-11.548zm58 0-10-5.774v11.547zm-49 0v1h40v-2H31z"/><path fill="#000" d="m137 157 10 5.774v-11.548zm70 0-10-5.774v11.547zm-61 0v1h52v-2h-52z"/><defs><linearGradient id="a" x1="137" x2="207" y1="100.382" y2="100.382" gradientUnits="userSpaceOnUse"><stop stop-color="#4ad6db"/><stop offset=".202" stop-color="#bed0d0"/><stop offset=".543" stop-color="#4ad6db"/><stop offset="1" stop-color="#b7cdce"/></linearGradient></defs></svg>