<svg xmlns="http://www.w3.org/2000/svg" width="300" height="200" fill="none" viewBox="0 0 300 200"><g clip-path="url(#a)"><path fill="#000" d="M0 0h300v200H0z"/><path fill="url(#b)" d="M-9 84.019h349v120.745H-9z"/><path fill="#ff2c30" d="m137.829 83.373-6.067-9.825-5.475 10.167zM61 42l-.474.88 68.905 37.106.474-.88.474-.88L61.474 41.12z"/><path fill="#ff2c30" d="M267.545 151.89a.998.998 0 1 0 .91-1.78L268 151zM133 82l-.455.89 2.25 1.15.455-.89.455-.89-2.25-1.15zm6.75 3.45-.455.89 4.5 2.3.455-.89.455-.89-4.5-2.3zm9 4.6-.455.89 4.5 2.3.455-.89.455-.89-4.5-2.3zm9 4.6-.455.89 4.5 2.3.455-.89.455-.89-4.5-2.3zm9 4.6-.455.89 4.5 2.3.455-.89.455-.89-4.5-2.3zm9 4.6-.455.89 4.5 2.3.455-.89.455-.89-4.5-2.3zm9 4.6-.455.89 4.5 2.3.455-.89.455-.89-4.5-2.3zm9 4.6-.455.89 4.5 2.3.455-.89.455-.89-4.5-2.3zm9 4.6-.455.89 4.5 2.3.455-.89.455-.89-4.5-2.3zm9 4.6-.455.89 4.5 2.3.455-.89.455-.89-4.5-2.3zm9 4.6-.455.89 4.5 2.3.455-.89.455-.89-4.5-2.3zm9 4.6-.455.89 4.5 2.3.455-.89.455-.89-4.5-2.3zm9 4.6-.455.89 4.5 2.3.455-.89.455-.89-4.5-2.3zm9 4.6-.455.89 4.5 2.3.455-.89.455-.89-4.5-2.3zm9 4.6-.455.89 4.5 2.3.455-.89.455-.89-4.5-2.3zm9 4.6-.455.89 2.25 1.15.455-.89.455-.89-2.25-1.15zm1.795 2.04a.998.998 0 1 0 .91-1.78L268 151zM133 82l-.455.89 2.25 1.15.455-.89.455-.89-2.25-1.15zm6.75 3.45-.455.89 4.5 2.3.455-.89.455-.89-4.5-2.3zm9 4.6-.455.89 4.5 2.3.455-.89.455-.89-4.5-2.3zm9 4.6-.455.89 4.5 2.3.455-.89.455-.89-4.5-2.3zm9 4.6-.455.89 4.5 2.3.455-.89.455-.89-4.5-2.3zm9 4.6-.455.89 4.5 2.3.455-.89.455-.89-4.5-2.3zm9 4.6-.455.89 4.5 2.3.455-.89.455-.89-4.5-2.3zm9 4.6-.455.89 4.5 2.3.455-.89.455-.89-4.5-2.3zm9 4.6-.455.89 4.5 2.3.455-.89.455-.89-4.5-2.3zm9 4.6-.455.89 4.5 2.3.455-.89.455-.89-4.5-2.3zm9 4.6-.455.89 4.5 2.3.455-.89.455-.89-4.5-2.3zm9 4.6-.455.89 4.5 2.3.455-.89.455-.89-4.5-2.3zm9 4.6-.455.89 4.5 2.3.455-.89.455-.89-4.5-2.3zm9 4.6-.455.89 4.5 2.3.455-.89.455-.89-4.5-2.3zm9 4.6-.455.89 4.5 2.3.455-.89.455-.89-4.5-2.3zm9 4.6-.455.89 2.25 1.15.455-.89.455-.89-2.25-1.15z"/><path fill="#ff2c30" d="m208 187-.743-11.523-9.608 6.405zM138 82l-.832.555 65.008 97.511.832-.554.832-.555-65.008-97.512z"/><path fill="#fff" d="M138.5 30a.5.5 0 0 0-1 0h1m-.5 54h.5v-2.7h-1V84zm0-8.1h.5v-5.4h-1v5.4zm0-10.8h.5v-5.4h-1v5.4zm0-10.8h.5v-5.4h-1v5.4zm0-10.8h.5v-5.4h-1v5.4zm0-10.8h.5V30h-1v2.7z"/><path fill="#000" d="M138.491 82.888a.497.497 0 0 0-.51-.487.503.503 0 0 0-.49.513l.5-.013zm1.509 97.28.5-.013-.05-2.432-.5.013-.5.013.05 2.432zm-.151-7.295.5-.013-.1-4.864-.5.013-.5.013.1 4.864zm-.201-9.727.5-.013-.1-4.863-.5.013-.5.013.101 4.863zm-.2-9.727.499-.013-.1-4.863-.5.013-.5.013.101 4.863zm-.201-9.726.499-.013-.1-4.864-.5.013-.5.013.101 4.863zm-.201-9.727.5-.013-.101-4.863-.5.013-.5.012.101 4.864zm-.201-9.727.5-.013-.101-4.863-.5.013-.5.013.101 4.863zm-.201-9.727.5-.012-.101-4.864-.5.013-.499.013.1 4.863zm-.201-9.726.5-.013-.101-4.864-.499.013-.5.013.1 4.864zm-.201-9.727.5-.013-.101-4.863-.499.013-.5.013.1 4.863zm-.201-9.727.5-.012-.05-2.432-.5.013-.5.013.05 2.431z"/><path fill="#fff" d="m121.239 57 2.909-17.455h2.034L123.273 57zm4.659-20.489a1.5 1.5 0 0 1-1.08-.431 1.38 1.38 0 0 1-.42-1.046q.022-.58.466-1a1.5 1.5 0 0 1 1.068-.432q.636 0 1.079.444.444.431.421 1.045-.012.58-.466 1-.455.42-1.068.42"/><path stroke="#fff" stroke-width="2" d="M119.5 72.5s1.5-6.613 6.5-9.5 12.5 0 12.5 0"/><path stroke="#000" stroke-width="2" d="M157 109.217s-1.5 6.613-6.5 9.5-12.5 0-12.5 0"/><path stroke="#ff2c30" stroke-width="2" d="M178.092 105s1.539 6.604-1.698 11.385-11.245 5.459-11.245 5.459"/><path fill="#000" d="m148.216 141 2.909-17.455h1.966l-.455 2.682h.148q.727-1.318 2.171-2.125a6.23 6.23 0 0 1 3.102-.818q.25 0 .557.011.306 0 .511.023l-.352 2.057q-.136-.023-.478-.068a5.5 5.5 0 0 0-.738-.046q-1.364 0-2.523.58a5.5 5.5 0 0 0-1.932 1.579 5.24 5.24 0 0 0-1 2.307L150.239 141z"/><path fill="#ff2c30" d="M187.477 123.966q.33-1.966 2.034-3.125 1.705-1.17 4.409-1.171 1.194 0 2.171.216a9 9 0 0 1 1.898.637l-.341 2.045q-.728-.352-1.796-.636a8.3 8.3 0 0 0-2.238-.296q-1.603 0-2.591.648-.989.636-1.171 1.693a2.2 2.2 0 0 0 .125 1.193q.239.569.989 1.148.761.569 2.227 1.148 3.125 1.239 4.341 3.364 1.216 2.113.705 5.102l-.057.307q-.41 2.34-1.591 4.17-1.182 1.818-2.977 2.864-1.796 1.045-4.057 1.045-2.273 0-3.739-1.045-1.466-1.046-2.045-2.875-.58-1.83-.193-4.171l.045-.318q.33-1.897 1.273-3.432a9.2 9.2 0 0 1 2.318-2.568 8 8 0 0 1 3-1.409l.023-.08q-1.569-.647-2.296-1.772-.715-1.137-.466-2.682m-1.511 11.943-.046.261q-.261 1.773.057 3.194.318 1.408 1.284 2.227.966.818 2.603.818 1.625 0 2.852-.818 1.239-.818 2.034-2.216.796-1.398 1.102-3.136l.046-.307q.25-1.42-.103-2.693a5 5 0 0 0-1.272-2.239q-.921-.966-2.421-1.42-1.716.102-3 .965a6.6 6.6 0 0 0-2.079 2.262q-.796 1.386-1.057 3.102"/></g><defs><linearGradient id="b" x1="-9" x2="340" y1="144.391" y2="144.391" gradientUnits="userSpaceOnUse"><stop stop-color="#4ad6db"/><stop offset=".202" stop-color="#bed0d0"/><stop offset=".543" stop-color="#4ad6db"/><stop offset="1" stop-color="#b7cdce"/></linearGradient><clipPath id="a"><path fill="#fff" d="M0 0h300v200H0z"/></clipPath></defs></svg>