<svg xmlns="http://www.w3.org/2000/svg" width="300" height="200" fill="none" viewBox="0 0 300 200"><g clip-path="url(#a)"><path fill="#000" d="M0 0h300v200H0z"/><path stroke="#fff" stroke-width="2" d="M62 154h176"/><path fill="url(#b)" d="M62 155h176v17H62z"/><path stroke="#fff" stroke-width="2" d="M162.708 10.326 61.744 154.487"/><path fill="url(#c)" d="M161.888 9.752h176v17h-176z" transform="rotate(125.006 161.888 9.752)"/><path fill="#fff" d="m109.352 131.739-.307 1.909H97.591l.307-1.909zm1.273-.307-.398 2.375q-.591 3.569-1.818 5.898-1.216 2.33-2.954 3.477-1.74 1.136-3.898 1.136-2.16 0-3.546-1.148t-1.852-3.477q-.466-2.33.125-5.886l.398-2.375q.601-3.546 1.818-5.841 1.215-2.307 2.955-3.421 1.739-1.125 3.897-1.125 2.17 0 3.557 1.125 1.386 1.114 1.841 3.421.466 2.295-.125 5.841m-2.523 2.716.523-3.046q.442-2.693.159-4.522-.273-1.83-1.216-2.75-.943-.932-2.443-.932-2.284 0-3.989 2.102-1.692 2.091-2.363 6.102l-.512 3.046q-.681 4.034.319 6.182 1 2.136 3.25 2.136 1.522 0 2.784-.966t2.147-2.83q.899-1.863 1.341-4.522"/><path fill="#ffff24" d="M164.784 113.384q-1.664 0-2.816-1.152t-1.152-2.816 1.152-2.816 2.816-1.152q1.6 0 2.688 1.152 1.152 1.152 1.152 2.816t-1.152 2.816q-1.088 1.152-2.688 1.152M198.453 96.05q-.678 4.052-2.608 7.044t-4.717 4.628a11.77 11.77 0 0 1-6.06 1.636q-3.362 0-5.676-1.675-2.301-1.687-3.26-4.73-.959-3.056-.281-7.184.678-4.053 2.608-7.045t4.73-4.627 6.085-1.637q3.324 0 5.625 1.675 2.301 1.674 3.273 4.73.972 3.043.281 7.185m-2.288-.281q.588-3.504-.154-5.97-.728-2.469-2.505-3.772-1.777-1.317-4.309-1.317-2.62 0-4.921 1.355-2.302 1.342-3.925 3.887-1.624 2.53-2.225 6.098-.575 3.489.154 5.97.729 2.467 2.506 3.784 1.79 1.304 4.333 1.304a9.57 9.57 0 0 0 4.935-1.355q2.301-1.355 3.912-3.887 1.623-2.544 2.199-6.097"/><path stroke="#f9f9f9" stroke-width="2" d="M81.796 153.661c.224-11.87-7.104-12.823-10.796-11.815"/></g><defs><linearGradient id="b" x1="62" x2="238" y1="163.5" y2="163.5" gradientUnits="userSpaceOnUse"><stop stop-color="#49e0e5"/><stop offset=".399" stop-color="#cde3e4"/><stop offset=".75" stop-color="#49e0e5"/><stop offset="1" stop-color="#cde3e4"/></linearGradient><linearGradient id="c" x1="161.888" x2="337.888" y1="18.252" y2="18.252" gradientUnits="userSpaceOnUse"><stop stop-color="#49e0e5"/><stop offset=".399" stop-color="#cde3e4"/><stop offset=".75" stop-color="#49e0e5"/><stop offset="1" stop-color="#cde3e4"/></linearGradient><clipPath id="a"><path fill="#fff" d="M0 0h300v200H0z"/></clipPath></defs></svg>