<svg xmlns="http://www.w3.org/2000/svg" width="300" height="200" fill="none" viewBox="0 0 300 200"><path fill="#000" d="M0 0h300v200H0z"/><path fill="#fff" d="m147 21-2.887 5h5.774zm0 149h.5v-2.483h-1V170zm0-7.45h.5v-4.967h-1v4.967zm0-9.933h.5v-4.967h-1v4.967zm0-9.934h.5v-4.966h-1v4.966zm0-9.933h.5v-4.967h-1v4.967zm0-9.933h.5v-4.967h-1v4.967zm0-9.934h.5v-4.966h-1v4.966zm0-9.933h.5v-4.967h-1v4.967zm0-9.933h.5V88.05h-1v4.967zm0-9.934h.5v-4.966h-1v4.966zm0-9.933h.5v-4.967h-1v4.967zm0-9.933h.5V58.25h-1v4.967zm0-9.934h.5v-4.966h-1v4.966zm0-9.933h.5v-4.967h-1v4.967zm0-9.933h.5V28.45h-1v4.967z"/><path stroke="#fff" stroke-width="2" d="M6 162h287"/><path fill="url(#a)" d="M6 163h287v19H6z"/><path fill="#fff" d="M161.256 14.608q2.4 0 3.888 1.464 1.488 1.44 1.488 4.176V28h-2.16v-7.44q0-1.968-.984-3-.984-1.056-2.688-1.056-1.728 0-2.76 1.08-1.008 1.08-1.008 3.144V28h-2.184V14.848h2.184v1.872a4.35 4.35 0 0 1 1.752-1.56 5.55 5.55 0 0 1 2.472-.552M210.032 81.984a4.2 4.2 0 0 1 1.632-1.752q1.08-.624 2.616-.624v2.256h-.576q-3.672 0-3.672 3.984V93h-2.184V79.848h2.184zM100.968 80.616a1.92 1.92 0 0 1-1.408-.576 1.92 1.92 0 0 1-.576-1.408q0-.832.576-1.408a1.92 1.92 0 0 1 1.408-.576q.8 0 1.344.576.576.576.576 1.408t-.576 1.408a1.78 1.78 0 0 1-1.344.576m1.408 2.848V101h-2.912V83.464zM147 162l-3.368-11.045-7.881 8.44zM11 35l-.682.73L139.74 156.589l.682-.731.683-.73L11.683 34.269z"/><path fill="#fff" d="m283.089 36-11.251 2.597 7.875 8.445zM147 162.905l.682.731L277.189 42.869l-.682-.731-.682-.731-129.507 120.766z"/><defs><linearGradient id="a" x1="6" x2="293" y1="172.5" y2="172.5" gradientUnits="userSpaceOnUse"><stop stop-color="#49e0e5"/><stop offset=".399" stop-color="#cde3e4"/><stop offset=".75" stop-color="#49e0e5"/><stop offset="1" stop-color="#cde3e4"/></linearGradient></defs></svg>