<svg xmlns="http://www.w3.org/2000/svg" width="300" height="200" fill="none" viewBox="0 0 300 200"><path fill="#000" d="M0 0h300v200H0z"/><path stroke="#fff" stroke-width="2" d="M6 99h288"/><path fill="url(#a)" d="M191 100.653c0-47.346-37.736-89.564-40.661-92.765C146.743 14.376 125 55.471 125 100.653c0 48.322 24.871 91.971 25.813 93.606C156.047 188.224 191 146.22 191 100.653" opacity=".84"/><path fill="#fff" d="m46.077 165.59 3.375-20.317h1.716l-1.515 9.099q-.2 1.227.182 2.167.393.93 1.256 1.467.863.527 2.11.527 1.255 0 2.291-.537a4.93 4.93 0 0 0 2.618-3.624l1.515-9.099h1.716L58.886 160H57.17l.384-2.234h-.096a5.35 5.35 0 0 1-1.985 1.793 5.4 5.4 0 0 1-2.54.633q-1.325 0-2.33-.662-.998-.662-1.391-1.86h-.096l-1.323 7.92zm18.56-2.215 1.687-10.163h-.096l-3.27 1.946.279-1.592 3.28-1.965h1.61l-1.956 11.774z"/><path fill="#ffff24" d="m65.38 50 3.26-19.636h6.338q2.091 0 3.366.747 1.284.75 1.774 2.081.498 1.323.22 3.05-.287 1.706-1.227 3.02-.93 1.313-2.455 2.06-1.525.74-3.595.74h-5.389l.278-1.64h5.34q1.545 0 2.647-.509a4.3 4.3 0 0 0 1.764-1.447q.661-.94.873-2.225.21-1.294-.144-2.253-.345-.96-1.285-1.486-.93-.528-2.483-.528h-4.497L67.174 50zm10.126-8.86L78.87 50H76.81l-3.308-8.86zm5.172 12.235.173-1.15 5.1-4.133a24 24 0 0 0 1.487-1.275q.585-.547.892-1.017.306-.48.383-1.006.155-.92-.46-1.496-.604-.576-1.687-.575-1.104 0-1.937.623-.825.623-.978 1.592h-1.553q.249-1.506 1.524-2.493 1.285-.998 3.087-.998 1.2 0 2.023.451.835.45 1.209 1.227.373.768.22 1.726-.115.709-.489 1.343-.365.623-1.112 1.351a30 30 0 0 1-1.995 1.717l-3.384 2.732v.067h6.26l-.21 1.314zM224.381 74l3.26-19.636h6.337q2.091 0 3.366.748 1.284.748 1.774 2.08.498 1.323.22 3.05-.288 1.706-1.227 3.02-.93 1.313-2.455 2.06-1.524.74-3.595.74h-5.389l.278-1.64h5.341q1.543 0 2.646-.509a4.3 4.3 0 0 0 1.764-1.447q.661-.94.873-2.225.21-1.294-.144-2.253-.345-.96-1.285-1.486-.93-.528-2.483-.528h-4.497L226.174 74zm10.125-8.86 3.365 8.86h-2.061l-3.308-8.86zm7.895 12.235 1.688-10.163h-.096l-3.269 1.946.278-1.592 3.279-1.965h1.611l-1.956 11.774z"/><path fill="#000" d="m144.077 165.59 3.375-20.317h1.716l-1.515 9.099q-.2 1.227.182 2.167.393.93 1.256 1.467.864.527 2.11.527a4.9 4.9 0 0 0 4.017-2.013q.69-.94.892-2.148l1.515-9.099h1.716L156.886 160h-1.716l.384-2.234h-.096a5.35 5.35 0 0 1-1.985 1.793 5.4 5.4 0 0 1-2.541.633q-1.323 0-2.33-.662-.996-.662-1.39-1.86h-.096l-1.323 7.92zm15.837-2.215.172-1.151 5.101-4.132a24 24 0 0 0 1.486-1.275q.585-.547.892-1.017.307-.479.384-1.006.153-.921-.461-1.496-.603-.575-1.687-.575-1.103 0-1.937.623-.825.623-.978 1.592h-1.553q.249-1.506 1.524-2.493 1.285-.998 3.088-.998 1.198 0 2.023.451.834.451 1.208 1.227.374.768.22 1.726a3.8 3.8 0 0 1-.489 1.343q-.363.623-1.112 1.351a30 30 0 0 1-1.994 1.717l-3.385 2.732v.067h6.261l-.211 1.314z"/><path stroke="#ffff24" stroke-dasharray="5 5" stroke-width="2" d="m14.563 99.101 148-72M285.787 98.977l-156-34"/><defs><linearGradient id="a" x1="150.5" x2="150.5" y1="7" y2="195" gradientUnits="userSpaceOnUse"><stop offset=".01" stop-color="#36b5b9"/><stop offset=".308" stop-color="#8af5f9"/><stop offset=".673" stop-color="#309ea2"/><stop offset=".952" stop-color="#84f3f6"/></linearGradient></defs></svg>