<svg xmlns="http://www.w3.org/2000/svg" width="300" height="200" fill="none" viewBox="0 0 300 200"><g clip-path="url(#a)"><path fill="#000" d="M0 0h300v200H0z"/><path stroke="#fff" stroke-width="2" d="M24 99h248"/><path stroke="#ff2c30" stroke-width="2" d="M34 39h97"/><path stroke="#4fff2c" stroke-width="2" d="m258.562 125.173-128-87"/><path stroke="#ff2c30" stroke-width="2" d="M34 164h96"/><path stroke="#4fff2c" stroke-width="2" d="m257.408 70.194-128 94"/><path fill="#ff2c30" d="m112 39-10-5.773v11.547zm-18 0v1h9v-2h-9z"/><path fill="#4fff2c" d="m188 77-11.523-.743 6.405-9.608zm-12-8 .555-.832 4.511 3.008-.554.832-.555.832-4.512-3.008zM188 121l-4.406 10.673-7.04-9.152zm-13 10-.61-.793 5.867-4.512.609.792.61.793-5.866 4.513z"/><path fill="#ff2c30" d="m112 164-10-5.774v11.548zm-18 0v1h9v-2h-9z"/><circle cx="218.5" cy="98.5" r="3.5" fill="#ffff24"/><path fill="#ffff24" d="m193.72 148.364-.332 1.981h-9.639l.319-1.981zM183.812 168l3.746-22.513q.256-1.585 1.164-2.672a6 6 0 0 1 2.198-1.649 6.45 6.45 0 0 1 2.621-.562q.895 0 1.458.153.563.141.882.281l-.972 1.995q-.255-.077-.614-.179-.345-.102-.907-.103-1.484 0-2.429.831-.947.831-1.215 2.378L186.088 168z"/><path fill="url(#b)" d="M150 99.288c0-39.072-17.595-74.46-19.145-77.5C128.102 27.327 112 61.334 112 98.711c0 39.072 17.595 74.461 19.145 77.501C133.898 170.672 150 136.665 150 99.288" opacity=".84"/></g><defs><linearGradient id="b" x1="131" x2="131" y1="21" y2="177" gradientUnits="userSpaceOnUse"><stop offset=".01" stop-color="#36b5b9"/><stop offset=".308" stop-color="#8af5f9"/><stop offset=".673" stop-color="#309ea2"/><stop offset=".952" stop-color="#84f3f6"/></linearGradient><clipPath id="a"><path fill="#fff" d="M0 0h300v200H0z"/></clipPath></defs></svg>