<svg xmlns="http://www.w3.org/2000/svg" width="300" height="200" fill="none" viewBox="0 0 300 200"><path fill="#000" d="M0 0h300v200H0z"/><path fill="url(#a)" d="M137 0h163v197H137s-24-47-24-98.5S137 0 137 0"/><path fill="#ff4013" d="m128 23-11.518.813 6.463 9.569zM14 100l.56.829 106.542-71.963-.56-.828-.56-.83L13.44 99.172z"/><path fill="#106100" d="m170 99 .216-11.545-10.106 5.585zm-42-76-.875.484 37.647 68.123.875-.484.875-.484-37.647-68.123z"/><path stroke="#fff" d="M0 99.5h300"/><circle cx="15" cy="99" r="5" fill="#ff4013"/><circle cx="170" cy="100" r="5" fill="#106100"/><path stroke="#000" stroke-dasharray="5 5" stroke-width="2" d="m128.433 22.099 158 76"/><path fill="#000" d="m207.381 49 3.26-19.636h6.337q2.091 0 3.366.747 1.284.75 1.774 2.081.498 1.323.22 3.05-.288 1.706-1.227 3.02-.93 1.313-2.455 2.06-1.524.74-3.595.74h-5.389l.278-1.64h5.341q1.543 0 2.646-.509a4.3 4.3 0 0 0 1.764-1.447q.661-.94.873-2.225.21-1.294-.144-2.253-.345-.96-1.285-1.486-.93-.528-2.483-.528h-4.497L209.174 49zm10.125-8.86 3.365 8.86h-2.061l-3.308-8.86z"/><path fill="#ff4013" d="m71.314 131.372 1.524-9.099h1.707L72.091 137h-1.707l.403-2.445h-.125q-.69 1.131-1.956 1.889-1.255.747-2.877.748-1.41 0-2.406-.614-.987-.623-1.41-1.822-.42-1.198-.134-2.943l1.602-9.54h1.706l-1.572 9.434q-.278 1.727.556 2.781.843 1.045 2.435 1.045.998 0 1.995-.479a5 5 0 0 0 1.745-1.4q.746-.93.968-2.282"/><path fill="#106100" d="M151.881 122.273 144.047 137h-1.822l-2.924-14.727h1.774l2.301 12.474h.125l6.452-12.474z"/><path fill="#ff4013" d="m19 111 10 5.774v-11.548zm90 0-10-5.774v11.548zm-81 0v1h72v-2H28z"/><path fill="#106100" d="m120 111 10 5.774v-11.548zm50 0-10-5.774v11.548zm-41 0v1h32v-2h-32z"/><path fill="#fff" d="m58.077 180.59 3.375-20.317h1.716l-1.515 9.099q-.2 1.227.182 2.167.393.93 1.256 1.467.863.527 2.11.527 1.255 0 2.291-.537a4.93 4.93 0 0 0 2.618-3.624l1.515-9.099h1.716L70.886 175H69.17l.384-2.234h-.096a5.35 5.35 0 0 1-1.985 1.793 5.4 5.4 0 0 1-2.54.633q-1.325 0-2.33-.662-.998-.661-1.391-1.86h-.096l-1.323 7.92zm18.56-2.215 1.687-10.163h-.096l-3.27 1.946.279-1.592 3.28-1.965h1.61l-1.956 11.774z"/><path fill="#000" d="m161.077 180.59 3.375-20.317h1.716l-1.515 9.099q-.2 1.227.182 2.167.393.93 1.256 1.467.864.527 2.11.527a4.9 4.9 0 0 0 4.017-2.013q.69-.94.892-2.148l1.515-9.099h1.716L173.886 175h-1.716l.384-2.234h-.096a5.35 5.35 0 0 1-1.985 1.793 5.4 5.4 0 0 1-2.541.633q-1.323 0-2.33-.662-.996-.661-1.39-1.86h-.096l-1.323 7.92zm15.837-2.215.172-1.151 5.101-4.132a24 24 0 0 0 1.486-1.275q.585-.547.892-1.017.307-.479.384-1.006.153-.921-.461-1.496-.603-.575-1.687-.575-1.103 0-1.937.623-.825.623-.978 1.592h-1.553q.249-1.506 1.524-2.493 1.285-.998 3.088-.998 1.198 0 2.023.451.834.451 1.208 1.227.374.768.22 1.726a3.8 3.8 0 0 1-.489 1.343q-.363.623-1.112 1.351a30 30 0 0 1-1.994 1.717l-3.385 2.732v.067h6.261l-.211 1.314z"/><defs><linearGradient id="a" x1="137" x2="300" y1="98.5" y2="98.5" gradientUnits="userSpaceOnUse"><stop stop-color="#4ad6db"/><stop offset=".202" stop-color="#bed0d0"/><stop offset=".543" stop-color="#4ad6db"/><stop offset="1" stop-color="#b7cdce"/></linearGradient></defs></svg>