<svg xmlns="http://www.w3.org/2000/svg" width="300" height="201" fill="none" viewBox="0 0 300 201"><path fill="#000" d="M0 0h300v201H0z"/><path fill="#fff" d="m264 160-5-2.887v5.774zm-231 0v.5h226.5v-1H33zM263.76 185.98v.52h-3.72v-.52l1.02-.12q.2-.02.3-.06.12-.04.24-.22.14-.18.38-.58l3.18-5.16-3.08-5.44a5 5 0 0 0-.34-.56q-.1-.18-.22-.22a.7.7 0 0 0-.3-.08l-1.02-.1v-.54h4.86v.54l-1.04.1q-.3.04-.32.16 0 .12.32.7l2.34 4.14 2.56-4.14q.36-.58.36-.7t-.32-.16l-1.02-.1v-.54h3.72v.54l-1.02.1a.9.9 0 0 0-.32.08q-.1.04-.22.22-.12.16-.38.56l-2.98 4.82 3.28 5.78.32.58q.12.16.22.22.12.04.32.06l1.04.12v.52h-4.86v-.52l1.04-.12q.32-.04.32-.14.02-.12-.32-.72l-2.56-4.5-2.76 4.5q-.36.58-.36.7t.32.16z"/><path fill="#ff7979" d="M71.56 172.74v-.54h3.18v10.24l3.78-3.84q.58-.58.62-.7t-.3-.16l-1.02-.1v-.54h3.86v.54l-1.02.1a.9.9 0 0 0-.3.08q-.12.04-.32.22-.18.16-.58.56l-2.2 2.22 2.94 4.68q.26.4.38.58.14.16.26.22.12.04.32.06l1.04.12v.52h-3.02l-3.04-5.04-1.4 1.42v2q0 .7.06.82t.38.16l1.1.12v.52h-4.72v-.52l1.1-.12q.32-.04.38-.16t.06-.82v-11.56q0-.7-.06-.82t-.38-.16zm11.25 10.38 1.32-.82h1v5.86q0 .34.04.4t.18.08l.56.06v.4h-2.92v-.4l.76-.06q.16-.02.18-.08.04-.06.04-.4v-5.22l-.92.58z"/><path stroke="#ffec3d" stroke-width="2" d="M71 14s41 168 105.5 168S282 14 282 14"/><path stroke="#fff" stroke-width="3" d="M70.5 155v10"/><path fill="#ff7979" d="M179.56 131.74v-.54h3.18v10.24l3.78-3.84q.58-.58.62-.7t-.3-.16l-1.02-.1v-.54h3.86v.54l-1.02.1a.9.9 0 0 0-.3.08q-.12.04-.32.22-.18.16-.58.56l-2.2 2.22 2.94 4.68q.26.4.38.58a.9.9 0 0 0 .26.22q.12.04.32.06l1.04.12v.52h-3.02l-3.04-5.04-1.4 1.42v2q0 .7.06.82t.38.16l1.1.12v.52h-4.72v-.52l1.1-.12q.32-.04.38-.16t.06-.82v-11.56q0-.7-.06-.82t-.38-.16zm15.19 14.38h.42v1.98h-4.34v-.54q0-.74.2-1.18t.58-.76q.4-.32.94-.64.52-.3.96-.68.44-.4.44-1.2 0-1.44-.98-1.44-1.16 0-.98 1.8l-1.18-.16a1.72 1.72 0 0 1 .4-1.46q.54-.64 1.76-.64t1.72.58q.52.58.52 1.34t-.4 1.2a3.1 3.1 0 0 1-.98.68q-.58.24-1.12.52-1.14.58-1.26 1.7h2.6q.34 0 .42-.04.1-.04.12-.22z"/><path stroke="#fff" stroke-width="3" d="M178.5 155v10"/></svg>