<svg xmlns="http://www.w3.org/2000/svg" width="300" height="201" fill="none" viewBox="0 0 300 201"><path fill="#000" d="M0 0h300v201H0z"/><path fill="#fff" d="m257 14-5-2.887v5.774zM26 14v.5h226.5v-1H26zM256.76 39.98v.52h-3.72v-.52l1.02-.12q.2-.02.3-.06.12-.04.24-.22.14-.18.38-.58l3.18-5.16-3.08-5.44a5 5 0 0 0-.34-.56q-.1-.18-.22-.22a.75.75 0 0 0-.3-.08l-1.02-.1v-.54h4.86v.54l-1.04.1q-.3.04-.32.16 0 .12.32.7l2.34 4.14 2.56-4.14q.36-.58.36-.7t-.32-.16l-1.02-.1v-.54h3.72v.54l-1.02.1a1 1 0 0 0-.32.08q-.1.04-.22.22-.12.16-.38.56l-2.98 4.82 3.28 5.78.32.58q.12.16.22.22.12.04.32.06l1.04.12v.52h-4.86v-.52l1.04-.12q.32-.04.32-.14.02-.12-.32-.72l-2.56-4.5-2.76 4.5q-.36.58-.36.7t.32.16z"/><path stroke="#ffec3d" stroke-width="2" d="M43 191S84 15 148.5 15 254 191 254 191"/></svg>