<svg xmlns="http://www.w3.org/2000/svg" width="300" height="200" fill="none" viewBox="0 0 300 200"><g clip-path="url(#a)"><path fill="#000" d="M0 0h300v200H0z"/><path fill="#fff" d="m133.16 45-4.95-7.71-4.92 7.71h-.66l5.22-8.25-5.13-7.95h.69l4.86 7.53 4.83-7.53h.63l-5.13 8.07 5.25 8.13zM134.16 112l-4.95-7.71-4.92 7.71h-.66l5.22-8.25-5.13-7.95h.69l4.86 7.53 4.83-7.53h.63l-5.13 8.07 5.25 8.13zM133.16 179l-4.95-7.71-4.92 7.71h-.66l5.22-8.25-5.13-7.95h.69l4.86 7.53 4.83-7.53h.63l-5.13 8.07 5.25 8.13zM208.16 45l-4.95-7.71-4.92 7.71h-.66l5.22-8.25-5.13-7.95h.69l4.86 7.53 4.83-7.53h.63l-5.13 8.07 5.25 8.13zM210.16 178l-4.95-7.71-4.92 7.71h-.66l5.22-8.25-5.13-7.95h.69l4.86 7.53 4.83-7.53h.63l-5.13 8.07 5.25 8.13zM211.16 114l-4.95-7.71-4.92 7.71h-.66l5.22-8.25-5.13-7.95h.69l4.86 7.53 4.83-7.53h.63l-5.13 8.07 5.25 8.13zM284.16 45l-4.95-7.71-4.92 7.71h-.66l5.22-8.25-5.13-7.95h.69l4.86 7.53 4.83-7.53h.63l-5.13 8.07 5.25 8.13zM286.16 178l-4.95-7.71-4.92 7.71h-.66l5.22-8.25-5.13-7.95h.69l4.86 7.53 4.83-7.53h.63l-5.13 8.07 5.25 8.13zM287.16 114l-4.95-7.71-4.92 7.71h-.66l5.22-8.25-5.13-7.95h.69l4.86 7.53 4.83-7.53h.63l-5.13 8.07 5.25 8.13zM254.78 19.23q1.14.18 2.07.93.96.75 1.5 1.86.57 1.11.57 2.37 0 1.59-.81 2.88-.81 1.26-2.37 2.01-1.53.72-3.63.72h-7.8V9.09h7.5q2.13 0 3.63.72 1.5.69 2.25 1.89t.75 2.7q0 1.86-1.02 3.09-.99 1.2-2.64 1.74m-7.74-1.11h4.59q1.92 0 2.97-.9t1.05-2.49-1.05-2.49-3.03-.9h-4.53zm4.83 9.63q2.04 0 3.18-.96t1.14-2.67q0-1.74-1.2-2.73-1.2-1.02-3.21-1.02h-4.74v7.38zM243.43 121.48l5.1-13.92h2.91L244.99 124h-3.18l-6.45-16.44h2.94zM163.04 127.8V150h-2.73v-22.2z"/><path stroke="url(#b)" stroke-width="4" d="M188.982 100.314 37.665 187.677 38.83 14.969z"/><path stroke="#fff" d="M109.5 1v200"/><path fill="#fff" d="m113 155 5 2.887v-5.774zm84 0-5-2.887v5.774zm-79.5 0v.5h75v-1h-75zM77.04 160.8V183h-2.73v-22.2zM36 190l5 2.887v-5.774zm73 0-5-2.887v5.774zm-68.5 0v.5h64v-1h-64zM270 100l-10-5.773v11.547zm-50 0v1h41v-2h-41z"/></g><defs><linearGradient id="b" x1="36.853" x2="140.146" y1="11.546" y2="190.454" gradientUnits="userSpaceOnUse"><stop stop-color="#df9046"/><stop offset="1" stop-color="#794e26"/></linearGradient><clipPath id="a"><path fill="#fff" d="M0 0h300v200H0z"/></clipPath></defs></svg>