<svg xmlns="http://www.w3.org/2000/svg" width="300" height="200" fill="none" viewBox="0 0 300 200"><path fill="#000" d="M0 0h300v200H0z"/><path fill="#fff" d="M217.913 120.053c-.132-16.043-2.111-30.642-5.285-41.863-3.174 11.221-5.151 25.82-5.283 41.863l-.007 1.717c0 6.446.698 12.246 1.808 16.405.557 2.086 1.203 3.703 1.879 4.774.708 1.121 1.275 1.386 1.604 1.386s.896-.265 1.603-1.386c.676-1.071 1.322-2.688 1.879-4.774 1.11-4.159 1.809-9.96 1.809-16.405zM89.603 78.19c-3.287 11.62-5.29 26.863-5.29 43.58 0 6.446.699 12.247 1.81 16.406.556 2.086 1.202 3.703 1.878 4.774.707 1.121 1.275 1.386 1.603 1.386.33 0 .896-.265 1.603-1.386.676-1.071 1.323-2.688 1.88-4.774 1.11-4.159 1.808-9.96 1.808-16.406 0-16.717-2.004-31.96-5.291-43.58m30.757.001c-3.174 11.222-5.152 25.82-5.284 41.862l-.007 1.717c0 6.445.699 12.246 1.809 16.405.557 2.086 1.203 3.703 1.879 4.774.707 1.121 1.275 1.386 1.603 1.386s.896-.265 1.604-1.386c.676-1.071 1.322-2.688 1.879-4.774 1.11-4.159 1.808-9.96 1.808-16.405l-.006-1.717c-.132-16.042-2.111-30.64-5.285-41.862m30.756 0c-3.174 11.222-5.151 25.82-5.283 41.862l-.008 1.717c0 6.445.699 12.246 1.809 16.405.557 2.086 1.203 3.703 1.879 4.774.707 1.121 1.274 1.386 1.603 1.386s.896-.265 1.604-1.386c.676-1.071 1.322-2.688 1.879-4.774 1.11-4.159 1.808-9.96 1.808-16.405l-.007-1.717c-.132-16.042-2.11-30.64-5.284-41.862m30.756-.002c-3.174 11.222-5.151 25.821-5.283 41.864l-.007 1.717c0 6.445.699 12.246 1.809 16.405.557 2.086 1.202 3.703 1.879 4.774.707 1.121 1.274 1.386 1.603 1.386s.896-.265 1.604-1.386c.676-1.071 1.322-2.688 1.878-4.774 1.111-4.159 1.809-9.96 1.809-16.405h-.001c0-16.717-2.004-31.96-5.291-43.58m38.039 44.805c-.082 6.085-.773 11.599-1.867 15.696-.581 2.178-1.292 4.013-2.121 5.327-.798 1.263-1.886 2.318-3.294 2.318s-2.496-1.054-3.294-2.318c-.829-1.314-1.54-3.149-2.121-5.327-1.094-4.097-1.786-9.61-1.868-15.696l-.008-1.224c0-18.269 2.371-34.87 6.24-47.036-1.933-5.923-4.207-10.649-6.685-13.878-2.508-3.268-5.1-4.856-7.642-4.856s-5.134 1.587-7.642 4.855c-2.478 3.23-4.754 7.957-6.687 13.881 3.869 12.165 6.241 28.766 6.241 47.034h.001c0 6.568-.709 12.55-1.876 16.92-.581 2.178-1.292 4.013-2.121 5.327-.798 1.263-1.886 2.318-3.294 2.318s-2.496-1.054-3.294-2.318c-.829-1.314-1.54-3.149-2.121-5.327-1.094-4.097-1.786-9.61-1.868-15.696l-.008-1.224c0-18.268 2.371-34.869 6.24-47.034-1.933-5.924-4.208-10.65-6.686-13.88-2.508-3.269-5.099-4.856-7.642-4.856-2.542 0-5.134 1.588-7.641 4.855-2.479 3.23-4.754 7.956-6.687 13.88 3.869 12.165 6.241 28.766 6.241 47.035l-.008 1.224c-.082 6.086-.774 11.599-1.868 15.696-.581 2.178-1.292 4.013-2.121 5.327-.798 1.264-1.885 2.318-3.294 2.318-1.408 0-2.496-1.055-3.294-2.318-.829-1.314-1.539-3.149-2.121-5.327-1.094-4.097-1.785-9.611-1.867-15.696l-.009-1.224c0-18.268 2.371-34.87 6.24-47.035-1.933-5.924-4.207-10.65-6.685-13.88-2.508-3.267-5.099-4.855-7.642-4.855-2.542 0-5.134 1.587-7.641 4.855-2.478 3.23-4.754 7.956-6.687 13.88 3.869 12.165 6.241 28.766 6.241 47.035l-.007 1.224c-.083 6.086-.775 11.599-1.869 15.696-.581 2.178-1.292 4.013-2.121 5.327-.797 1.264-1.885 2.318-3.294 2.318-1.408 0-2.496-1.055-3.294-2.318-.829-1.314-1.539-3.149-2.121-5.327-1.093-4.097-1.785-9.611-1.867-15.696l-.009-1.224c0-18.269 2.371-34.87 6.241-47.036-1.934-5.923-4.208-10.649-6.686-13.878-2.507-3.268-5.099-4.856-7.642-4.856-2.542 0-5.134 1.587-7.641 4.855-2.478 3.23-4.754 7.956-6.687 13.88 3.87 12.165 6.242 28.766 6.242 47.035 0 6.568-.71 12.551-1.877 16.921-.582 2.178-1.291 4.013-2.12 5.327-.798 1.263-1.886 2.318-3.294 2.318s-2.498-1.055-3.295-2.318c-.83-1.314-1.54-3.149-2.12-5.327-1.167-4.37-1.876-10.353-1.876-16.921 0-18.269 2.37-34.87 6.24-47.036-1.933-5.923-4.209-10.649-6.687-13.878C79.36 57.588 76.77 56 74.227 56c-2.543 0-5.135 1.587-7.642 4.855-2.496 3.254-4.787 8.026-6.73 14.01-3.88 11.959-6.297 28.542-6.297 46.905v1H15v-2h36.562c.086-18.118 2.501-34.535 6.391-46.522 1.98-6.098 4.357-11.105 7.045-14.61C67.675 56.15 70.785 54 74.227 54c3.44 0 6.55 2.15 9.227 5.639 2.295 2.99 4.363 7.078 6.15 12.004 1.788-4.926 3.856-9.013 6.15-12.004 2.678-3.49 5.787-5.639 9.228-5.639 3.442 0 6.551 2.15 9.228 5.639 2.295 2.991 4.363 7.079 6.15 12.005 1.788-4.926 3.856-9.014 6.151-12.005 2.677-3.49 5.786-5.639 9.227-5.639s6.55 2.15 9.228 5.639c2.295 2.991 4.363 7.079 6.15 12.005 1.788-4.926 3.855-9.014 6.151-12.005 2.677-3.49 5.786-5.639 9.227-5.639s6.55 2.15 9.228 5.639c2.295 2.991 4.362 7.08 6.15 12.005 1.788-4.926 3.856-9.014 6.151-12.005 2.678-3.49 5.787-5.639 9.228-5.639s6.55 2.15 9.228 5.639c2.294 2.99 4.361 7.078 6.149 12.004 1.788-4.926 3.856-9.013 6.151-12.004 2.678-3.49 5.787-5.639 9.228-5.639s6.55 2.15 9.227 5.639c2.689 3.504 5.067 8.511 7.046 14.609 3.89 11.987 6.306 28.404 6.392 46.522h40.327v2h-42.323v-1c0-18.363-2.417-34.946-6.298-46.905-1.942-5.984-4.233-10.756-6.73-14.01-2.507-3.267-5.099-4.855-7.641-4.855-2.543 0-5.134 1.587-7.642 4.855-2.478 3.23-4.753 7.956-6.686 13.88 3.869 12.165 6.241 28.766 6.241 47.035zM147.676 172.727 145.643 185h-2.275l3.273-19.636h2.211l-.511 3.081h.204q.921-1.509 2.544-2.417 1.637-.92 3.797-.92 1.97 0 3.324.831 1.368.818 1.943 2.416.588 1.598.205 3.925L158.223 185h-2.276l2.097-12.58q.396-2.403-.703-3.809-1.087-1.419-3.362-1.419-1.547 0-2.877.665a6.14 6.14 0 0 0-2.224 1.917q-.908 1.24-1.202 2.953"/></svg>