<svg xmlns="http://www.w3.org/2000/svg" width="300" height="200" fill="none" viewBox="0 0 300 200"><path fill="#000" d="M0 0h300v200H0z"/><path fill="#fff" d="M133.419 57.867c-.068-3.164-.498-6.084-1.179-8.54-.681 2.456-1.11 5.376-1.178 8.54l-.009.895c0 1.649.235 3.1.585 4.102.176.506.364.845.522 1.037q.047.056.08.086a1 1 0 0 0 .081-.086c.159-.192.346-.53.523-1.037.35-1.003.585-2.453.585-4.102zm-33.272-8.54c-.68 2.456-1.11 5.375-1.178 8.54l-.01.895c0 1.649.235 3.1.585 4.102.177.506.364.845.522 1.037q.048.056.08.086a1 1 0 0 0 .082-.086c.158-.192.345-.53.522-1.037.35-1.003.585-2.453.585-4.102h.001c0-3.509-.444-6.75-1.189-9.436m10.698 0c-.681 2.456-1.111 5.376-1.179 8.54l-.009.895c0 1.649.235 3.1.585 4.102.177.506.364.845.523 1.037a1 1 0 0 0 .08.086q.032-.03.081-.086c.158-.192.346-.53.522-1.037.35-1.003.585-2.453.585-4.102l-.01-.895c-.068-3.164-.497-6.084-1.178-8.54m10.698 0c-.681 2.456-1.111 5.375-1.179 8.54l-.01.895c.001 1.649.235 3.1.585 4.102.177.506.364.845.523 1.037a1 1 0 0 0 .08.086 1 1 0 0 0 .081-.086c.159-.192.346-.53.523-1.037.349-1.003.584-2.453.584-4.102h.001c0-3.509-.443-6.75-1.188-9.436m-32.094 0c-.744 2.686-1.187 5.927-1.187 9.435l.01.608c.05 1.397.268 2.618.575 3.495.176.506.364.844.522 1.036a1 1 0 0 0 .08.085q.034-.029.081-.085c.159-.192.346-.53.523-1.036.35-1.003.585-2.454.585-4.103 0-3.509-.444-6.749-1.189-9.435m45.967 10.108c-.055 1.553-.297 2.98-.684 4.088-.219.628-.503 1.209-.868 1.65-.337.41-.836.804-1.49.852l-.133.005c-.72 0-1.263-.42-1.623-.856-.365-.443-.65-1.022-.869-1.65-.387-1.108-.63-2.536-.685-4.09l-.011-.672c0-4.785.786-9.18 2.102-12.497-.616-1.374-1.312-2.439-2.036-3.16-.777-.775-1.528-1.105-2.227-1.105s-1.451.33-2.228 1.105c-.724.722-1.42 1.787-2.036 3.16 1.316 3.318 2.103 7.712 2.103 12.497h-.001c0 1.812-.254 3.496-.696 4.761-.219.628-.503 1.209-.868 1.65-.337.41-.836.805-1.49.852l-.133.005c-.72 0-1.264-.42-1.623-.856-.365-.443-.65-1.022-.869-1.65-.387-1.108-.63-2.536-.685-4.09l-.012-.672c.001-4.785.787-9.179 2.103-12.496-.616-1.374-1.311-2.44-2.035-3.161-.777-.775-1.529-1.105-2.228-1.105s-1.45.33-2.227 1.105c-.725.722-1.421 1.786-2.037 3.16 1.316 3.318 2.103 7.712 2.103 12.497l-.012.673c-.054 1.553-.298 2.98-.684 4.088-.219.628-.503 1.209-.868 1.65-.337.41-.836.804-1.49.852l-.133.005c-.72 0-1.264-.42-1.623-.856-.365-.443-.65-1.022-.869-1.65-.387-1.108-.63-2.536-.685-4.09l-.012-.672c0-4.785.786-9.18 2.103-12.497-.617-1.374-1.312-2.439-2.036-3.16-.777-.775-1.529-1.105-2.228-1.105s-1.45.33-2.227 1.105c-.725.722-1.42 1.787-2.037 3.16 1.317 3.318 2.104 7.712 2.104 12.497h-.001c0 1.812-.255 3.496-.696 4.761-.22.629-.504 1.209-.868 1.65-.338.41-.836.805-1.491.852l-.133.005c-.72 0-1.263-.42-1.623-.856-.365-.443-.65-1.022-.869-1.65-.386-1.108-.63-2.536-.684-4.09l-.012-.672c0-4.785.786-9.179 2.102-12.496-.616-1.374-1.31-2.44-2.035-3.161C96.25 42.33 95.498 42 94.8 42c-.7 0-1.45.33-2.228 1.105-.724.722-1.42 1.786-2.037 3.16 1.316 3.318 2.104 7.712 2.104 12.497 0 1.812-.256 3.497-.698 4.762-.219.629-.503 1.209-.868 1.65-.36.436-.903.856-1.623.856s-1.263-.42-1.623-.855c-.365-.442-.649-1.022-.868-1.65-.387-1.108-.63-2.536-.685-4.09l-.011-.673c0-4.785.785-9.179 2.101-12.496-.616-1.374-1.31-2.44-2.035-3.161C85.551 42.33 84.8 42 84.101 42c-.7 0-1.45.33-2.228 1.105-.78.778-1.53 1.954-2.182 3.488-1.3 3.063-2.127 7.365-2.127 12.169v1H39V143h222V58.762h2V145H37V57.762h38.575c.106-4.614.943-8.81 2.276-11.95.713-1.681 1.588-3.105 2.61-4.124C81.487 40.664 82.718 40 84.1 40c1.382 0 2.613.664 3.64 1.688.626.624 1.196 1.4 1.708 2.295.513-.894 1.084-1.671 1.71-2.295C92.186 40.664 93.416 40 94.8 40c1.382 0 2.613.664 3.64 1.688.626.624 1.196 1.401 1.708 2.295.513-.894 1.083-1.671 1.709-2.295 1.027-1.024 2.258-1.688 3.64-1.688s2.613.664 3.64 1.688c.626.624 1.196 1.4 1.709 2.295.512-.894 1.083-1.671 1.71-2.295 1.026-1.024 2.257-1.688 3.639-1.688 1.383 0 2.614.664 3.64 1.688.626.624 1.197 1.401 1.709 2.295.512-.894 1.083-1.671 1.709-2.295 1.026-1.024 2.257-1.688 3.64-1.688 1.382 0 2.613.664 3.639 1.688.627.624 1.197 1.4 1.709 2.295.513-.894 1.084-1.671 1.71-2.295 1.027-1.024 2.258-1.688 3.64-1.688s2.613.665 3.639 1.688c1.023 1.018 1.898 2.443 2.611 4.124 1.332 3.14 2.169 7.336 2.275 11.95H159.5v2h-15.373v-1c0-4.804-.828-9.106-2.128-12.17-.651-1.533-1.401-2.709-2.182-3.487-.776-.775-1.528-1.105-2.227-1.105s-1.451.33-2.228 1.105c-.724.722-1.42 1.787-2.037 3.16 1.316 3.318 2.104 7.712 2.104 12.497z"/><path stroke="#fff" stroke-width="2" d="M262.5 58.933h-34.928l-4 6.067-6.668-13-6.667 13-6.667-13-6.667 13-6.667-13-3.556 6.933H159.5"/><path fill="#fff" d="m102.432 29 3.38-20.364h1.86L104.57 27.33h9.704l-.278 1.67zM196.432 31l3.38-20.364h6.573q2.167 0 3.49.776 1.332.775 1.839 2.158.517 1.371.229 3.162-.298 1.77-1.273 3.132-.964 1.362-2.545 2.137-1.581.765-3.729.766h-5.588l.289-1.7h5.538q1.6 0 2.744-.527a4.5 4.5 0 0 0 1.83-1.502q.686-.974.905-2.306.218-1.343-.15-2.337-.357-.995-1.332-1.541-.964-.547-2.575-.547h-4.664L198.291 31zm10.5-9.187 3.49 9.187h-2.138l-3.43-9.187zM152.842 169.636l3.391 17.948h.189l9.327-17.948h1.948L156.909 190h-1.989l-4.027-20.364z"/><path stroke="#fff" stroke-width="2" d="M143 119v52M152 133v24"/><path fill="#000" d="M144 135h7v17h-7zM84 143h23v4H84z"/><path stroke="#fff" stroke-width="2" d="m107.524 143.879-24-13"/><path fill="#fff" d="M108.148 105.67q.079-2.045-1.216-3.204-1.284-1.16-3.602-1.159-1.614 0-2.955.568-1.329.557-2.193 1.534a4.4 4.4 0 0 0-1.057 2.227q-.148.921.136 1.614.285.682.875 1.182t1.353.852q.773.353 1.568.591l2.352.705q1.045.306 2.08.784a7.5 7.5 0 0 1 1.841 1.193 4.3 4.3 0 0 1 1.193 1.761q.397 1.045.159 2.5a7.2 7.2 0 0 1-1.523 3.375q-1.193 1.477-3.136 2.341t-4.489.864q-2.375 0-4-.784-1.625-.796-2.398-2.194t-.59-3.238h2.181q-.125 1.374.512 2.329.647.956 1.84 1.455 1.206.489 2.773.489 1.739 0 3.193-.58 1.455-.59 2.398-1.636a4.7 4.7 0 0 0 1.182-2.455q.204-1.182-.284-1.989-.477-.806-1.489-1.352-1-.557-2.386-.977l-2.66-.818q-2.602-.796-3.874-2.239-1.261-1.443-.898-3.682a6.6 6.6 0 0 1 1.557-3.307q1.25-1.431 3.102-2.227t4-.795q2.17 0 3.693.807 1.535.806 2.273 2.227.75 1.409.557 3.238z"/></svg>