<svg xmlns="http://www.w3.org/2000/svg" width="300" height="200" fill="none" viewBox="0 0 300 200"><path fill="#000" d="M0 0h300v200H0z"/><circle cx="150" cy="100" r="75" stroke="url(#a)" stroke-width="4"/><path fill="#fff" d="m63.16 43-4.95-7.71L53.29 43h-.66l5.22-8.25-5.13-7.95h.69l4.86 7.53 4.83-7.53h.63l-5.13 8.07L63.85 43zM64.16 110l-4.95-7.71-4.92 7.71h-.66l5.22-8.25-5.13-7.95h.69l4.86 7.53 4.83-7.53h.63l-5.13 8.07 5.25 8.13zM63.16 177l-4.95-7.71-4.92 7.71h-.66l5.22-8.25-5.13-7.95h.69l4.86 7.53 4.83-7.53h.63l-5.13 8.07 5.25 8.13zM150.16 44l-4.95-7.71-4.92 7.71h-.66l5.22-8.25-5.13-7.95h.69l4.86 7.53 4.83-7.53h.63l-5.13 8.07 5.25 8.13zM152.16 177l-4.95-7.71-4.92 7.71h-.66l5.22-8.25-5.13-7.95h.69l4.86 7.53 4.83-7.53h.63l-5.13 8.07 5.25 8.13zM154.16 110l-4.95-7.71-4.92 7.71h-.66l5.22-8.25-5.13-7.95h.69l4.86 7.53 4.83-7.53h.63l-5.13 8.07 5.25 8.13zM245.16 44l-4.95-7.71-4.92 7.71h-.66l5.22-8.25-5.13-7.95h.69l4.86 7.53 4.83-7.53h.63l-5.13 8.07 5.25 8.13zM245.16 110l-4.95-7.71-4.92 7.71h-.66l5.22-8.25-5.13-7.95h.69l4.86 7.53 4.83-7.53h.63l-5.13 8.07 5.25 8.13zM246.16 177l-4.95-7.71-4.92 7.71h-.66l5.22-8.25-5.13-7.95h.69l4.86 7.53 4.83-7.53h.63l-5.13 8.07 5.25 8.13zM250.43 129.48l5.1-13.92h2.91L251.99 132h-3.18l-6.45-16.44h2.94zM154.32 77l-4.98-8.55h-3.3V77h-2.73V56.09h6.75q2.37 0 3.99.81 1.65.81 2.46 2.19t.81 3.15q0 2.16-1.26 3.81-1.23 1.65-3.72 2.19l5.25 8.76zm-8.28-10.74h4.02q2.22 0 3.33-1.08 1.11-1.11 1.11-2.94 0-1.86-1.11-2.88-1.08-1.02-3.33-1.02h-4.02zM266.78 27.23q1.14.18 2.07.93.96.75 1.5 1.86.57 1.11.57 2.37 0 1.59-.81 2.88-.81 1.26-2.37 2.01-1.53.72-3.63.72h-7.8V17.09h7.5q2.13 0 3.63.72 1.5.69 2.25 1.89t.75 2.7q0 1.86-1.02 3.09-.99 1.2-2.64 1.74m-7.74-1.11h4.59q1.92 0 2.97-.9t1.05-2.49-1.05-2.49-3.03-.9h-4.53zm4.83 9.63q2.04 0 3.18-.96t1.14-2.67q0-1.74-1.2-2.73-1.2-1.02-3.21-1.02h-4.74v7.38z"/><path fill="#fff" d="m273 100-10-5.773v11.547zm-68 0v1h59v-2h-59zM195 47l-.378-.327-1.608 1.861.379.327.378.327 1.607-1.861zm-4.821 5.583-.379-.327-3.214 3.722.378.327.379.327 3.214-3.722zm-6.429 7.444-.378-.326-3.215 3.722.379.326.378.327 3.214-3.722zm-6.429 7.445-.378-.327-3.214 3.722.378.327.379.326 3.214-3.722zm-6.428 7.444-.379-.327-3.214 3.722.379.327.378.327 3.214-3.722zm-6.429 7.444-.378-.327-3.214 3.722.378.327.378.327 3.215-3.722zm-6.428 7.444-.379-.327-3.214 3.723.378.326.379.327 3.214-3.722zm-6.429 7.445-.378-.327-1.607 1.86.378.328.378.326 1.608-1.86z"/><defs><linearGradient id="a" x1="150" x2="150" y1="23" y2="177" gradientUnits="userSpaceOnUse"><stop stop-color="#df9046"/><stop offset="1" stop-color="#794e26"/></linearGradient></defs></svg>