<svg xmlns="http://www.w3.org/2000/svg" width="300" height="200" fill="none" viewBox="0 0 300 200"><path fill="#000" d="M0 0h300v200H0z"/><path fill="#f0ff20" d="M196.603 94.453c-.001-7.353-1.086-14.075-2.874-19.335-1.79 5.26-2.875 11.982-2.875 19.335 0 2.984.423 5.643 1.079 7.521.329.943.698 1.635 1.058 2.072.366.443.621.509.738.509s.371-.066.737-.509c.36-.437.729-1.129 1.058-2.072.656-1.878 1.08-4.537 1.08-7.52zm-78.651-19.335c-1.789 5.26-2.875 11.982-2.875 19.335 0 2.984.424 5.643 1.079 7.521.329.943.699 1.635 1.059 2.072.366.443.62.509.737.509s.372-.066.737-.509c.361-.437.73-1.129 1.059-2.072.655-1.878 1.079-4.537 1.079-7.52 0-7.354-1.086-14.076-2.875-19.336m18.944 0c-1.789 5.26-2.874 11.982-2.875 19.335 0 2.984.424 5.643 1.08 7.521.329.943.698 1.635 1.058 2.072.366.443.621.509.737.509.118 0 .372-.066.738-.509.36-.437.729-1.129 1.058-2.072.656-1.878 1.079-4.537 1.079-7.52-.001-7.354-1.086-14.076-2.875-19.336m18.945 0c-1.789 5.26-2.876 11.982-2.876 19.335 0 2.984.424 5.643 1.079 7.521.329.943.698 1.635 1.059 2.072.365.443.62.509.737.509s.372-.066.737-.509c.36-.437.729-1.129 1.059-2.072.655-1.878 1.079-4.537 1.079-7.52l-.005-.803c-.076-7.04-1.146-13.465-2.869-18.533m18.943 0c-1.789 5.26-2.875 11.982-2.875 19.335 0 2.984.424 5.643 1.079 7.521.33.943.699 1.635 1.059 2.072.366.443.62.509.737.509s.372-.066.737-.509c.361-.437.73-1.129 1.059-2.072.655-1.878 1.079-4.537 1.079-7.52h-.001c0-7.354-1.085-14.076-2.874-19.336m23.82 19.335c0 3.147-.445 6.039-1.192 8.18-.372 1.065-.838 1.999-1.404 2.685-.561.681-1.327 1.237-2.279 1.237-.954 0-1.718-.556-2.28-1.237-.567-.686-1.033-1.62-1.405-2.685-.747-2.141-1.19-5.033-1.19-8.18 0-8.548 1.428-16.353 3.789-22.15-1.148-2.63-2.476-4.706-3.898-6.123-1.472-1.467-2.988-2.18-4.489-2.18s-3.017.713-4.489 2.18c-1.423 1.417-2.751 3.493-3.898 6.123 2.361 5.797 3.789 13.602 3.789 22.15h.001c0 3.147-.444 6.039-1.191 8.18-.372 1.065-.838 1.999-1.405 2.685-.561.681-1.326 1.237-2.279 1.237s-1.718-.556-2.279-1.237c-.567-.686-1.034-1.62-1.405-2.685-.747-2.141-1.191-5.033-1.191-8.18 0-8.548 1.429-16.353 3.789-22.15-1.147-2.63-2.475-4.706-3.897-6.123-1.472-1.467-2.989-2.18-4.489-2.18s-3.018.713-4.49 2.18c-1.422 1.417-2.75 3.493-3.897 6.123 2.36 5.797 3.79 13.602 3.79 22.15l-.005.587c-.052 2.919-.486 5.586-1.187 7.593-.371 1.065-.837 1.999-1.404 2.685-.561.681-1.326 1.237-2.279 1.237s-1.718-.557-2.279-1.237c-.567-.686-1.034-1.62-1.406-2.685-.747-2.141-1.19-5.033-1.19-8.18 0-8.548 1.428-16.354 3.789-22.151-1.147-2.629-2.475-4.705-3.897-6.122-1.471-1.467-2.988-2.18-4.489-2.18s-3.017.713-4.489 2.18c-1.422 1.417-2.75 3.494-3.898 6.124 2.361 5.797 3.79 13.602 3.79 22.15 0 3.146-.444 6.038-1.191 8.179-.372 1.065-.838 1.999-1.404 2.685-.562.681-1.327 1.237-2.28 1.237s-1.717-.556-2.279-1.237c-.567-.686-1.033-1.62-1.405-2.685-.747-2.141-1.191-5.033-1.191-8.18.001-8.548 1.429-16.353 3.79-22.15-1.148-2.63-2.476-4.706-3.898-6.123-1.472-1.467-2.988-2.18-4.489-2.18s-3.018.713-4.489 2.18c-1.423 1.417-2.751 3.493-3.898 6.123 2.361 5.797 3.79 13.602 3.79 22.15 0 3.147-.443 6.039-1.19 8.18-.372 1.065-.839 1.999-1.406 2.685-.561.681-1.326 1.237-2.279 1.237s-1.718-.556-2.279-1.237c-.567-.686-1.034-1.62-1.405-2.685-.747-2.141-1.191-5.033-1.191-8.18 0-8.548 1.429-16.353 3.789-22.15-1.147-2.63-2.474-4.706-3.896-6.123-1.472-1.467-2.989-2.18-4.49-2.18-1.5 0-3.017.713-4.489 2.18-1.476 1.471-2.852 3.651-4.028 6.423-2.351 5.541-3.83 13.266-3.83 21.85v1H72v-2h22.14c.11-8.392 1.597-16.01 3.982-21.63 1.239-2.92 2.74-5.347 4.457-7.06 1.722-1.715 3.717-2.763 5.901-2.763 2.185 0 4.18 1.048 5.901 2.764 1.327 1.322 2.524 3.072 3.571 5.145 1.047-2.073 2.244-3.823 3.57-5.145 1.722-1.716 3.717-2.764 5.902-2.764s4.18 1.048 5.901 2.764c1.327 1.322 2.523 3.073 3.571 5.146 1.047-2.073 2.244-3.824 3.571-5.146 1.721-1.716 3.717-2.764 5.901-2.764 2.185 0 4.18 1.048 5.902 2.764 1.326 1.322 2.523 3.072 3.57 5.145 1.047-2.073 2.244-3.823 3.57-5.145 1.721-1.716 3.717-2.764 5.902-2.764s4.179 1.048 5.901 2.764c1.327 1.322 2.523 3.073 3.57 5.146 1.048-2.073 2.245-3.824 3.571-5.146 1.722-1.716 3.718-2.764 5.902-2.764s4.18 1.048 5.901 2.764c1.327 1.322 2.523 3.073 3.571 5.146 1.047-2.073 2.244-3.824 3.571-5.146C199.02 63.048 201.016 62 203.2 62c2.185 0 4.18 1.048 5.902 2.764 1.717 1.712 3.218 4.139 4.457 7.058 2.384 5.62 3.871 13.239 3.981 21.631H242v2h-26.453v-1c0-8.584-1.478-16.309-3.829-21.85-1.177-2.772-2.552-4.952-4.029-6.423-1.471-1.467-2.988-2.18-4.489-2.18s-3.017.713-4.489 2.18c-1.422 1.417-2.75 3.494-3.898 6.124 2.361 5.797 3.79 13.602 3.791 22.15M147.841 155l4.347-26.182h2.39l-3.989 24.034h12.478l-.358 2.148z"/><path fill="#fff" d="m68.394 79 3.272-19.636h2.288L70.682 79zm5.24-23.05q-.715 0-1.213-.486a1.56 1.56 0 0 1-.474-1.176 1.6 1.6 0 0 1 .525-1.125q.51-.485 1.201-.485.716 0 1.215.498.498.486.473 1.176-.013.652-.524 1.125-.512.474-1.202.473M87 94l-10-5.773v11.546zm-13 0v1h4v-2h-4z"/></svg>