<svg xmlns="http://www.w3.org/2000/svg" width="300" height="200" fill="none" viewBox="0 0 300 200"><path fill="#000" d="M0 0h300v200H0z"/><circle cx="150" cy="100" r="75" stroke="url(#a)" stroke-width="4"/><path fill="#fff" d="m75 92-8.66 15h17.32zM45.161 111l2.727-16.364h1.907L47.069 111zm4.368-19.208q-.597 0-1.012-.405a1.3 1.3 0 0 1-.394-.98q.021-.543.437-.937.426-.405 1.001-.405.597 0 1.012.415.415.405.394.98a1.27 1.27 0 0 1-.436.938 1.43 1.43 0 0 1-1.002.394"/><path fill="#f0ff20" d="m243.841 113 4.347-26.182h2.39l-3.989 24.034h12.478l-.358 2.148z"/><defs><linearGradient id="a" x1="150" x2="150" y1="23" y2="177" gradientUnits="userSpaceOnUse"><stop stop-color="#df9046"/><stop offset="1" stop-color="#794e26"/></linearGradient></defs></svg>