<svg xmlns="http://www.w3.org/2000/svg" width="300" height="200" fill="none" viewBox="0 0 300 200"><g clip-path="url(#a)"><path fill="#000" d="M0 0h300v200H0z"/><path fill="#fff" d="M100.024 108.551c1.514 0 2.88.697 4.038 1.803 1.154 1.104 2.153 2.657 2.972 4.507 1.555 3.512 2.526 8.241 2.623 13.445h15.787v1.721H107.87v-.86c0-5.368-.964-10.188-2.489-13.633-.763-1.724-1.649-3.064-2.587-3.96-.934-.892-1.869-1.3-2.77-1.301-.9 0-1.835.409-2.77 1.301-.887.849-1.726 2.097-2.461 3.691 1.536 3.664 2.462 8.558 2.462 13.902l-.003.371c-.034 1.852-.32 3.554-.79 4.843-.249.683-.566 1.297-.962 1.758-.391.454-.956.861-1.682.861-.725 0-1.289-.407-1.68-.861-.397-.461-.713-1.075-.962-1.758-.47-1.289-.757-2.991-.791-4.843l-.003-.371c0-5.344.925-10.238 2.462-13.902-.735-1.594-1.573-2.842-2.461-3.691-.934-.892-1.87-1.301-2.77-1.301-.9.001-1.836.409-2.77 1.301-.888.849-1.727 2.097-2.462 3.692 1.536 3.664 2.462 8.557 2.462 13.901l-.003.371c-.034 1.852-.32 3.554-.79 4.843-.249.683-.566 1.297-.962 1.758-.392.454-.956.861-1.682.861-.725 0-1.289-.407-1.68-.861-.397-.461-.714-1.075-.962-1.758-.47-1.289-.756-2.991-.79-4.843l-.004-.371c0-5.345.925-10.239 2.462-13.903-.735-1.594-1.573-2.841-2.461-3.69-.934-.892-1.87-1.301-2.77-1.301-.9.001-1.836.409-2.77 1.301-.887.849-1.727 2.097-2.462 3.691 1.536 3.664 2.464 8.558 2.464 13.902 0 1.995-.294 3.839-.794 5.214-.25.683-.567 1.297-.963 1.758-.392.454-.955.861-1.68.861-.727 0-1.29-.407-1.681-.861-.397-.461-.715-1.075-.963-1.758-.47-1.289-.757-2.991-.79-4.843l-.004-.371c0-5.345.926-10.239 2.462-13.903-.734-1.594-1.573-2.841-2.46-3.69-.934-.892-1.87-1.3-2.77-1.301s-1.835.409-2.77 1.301c-.888.849-1.727 2.097-2.461 3.692 1.536 3.664 2.462 8.557 2.462 13.901l-.004.371c-.034 1.852-.32 3.554-.79 4.843-.248.683-.565 1.297-.961 1.758-.392.454-.956.861-1.682.861s-1.29-.407-1.68-.861c-.397-.461-.715-1.075-.964-1.758-.469-1.289-.756-2.991-.79-4.843l-.002-.371c0-5.345.925-10.239 2.461-13.903-.734-1.594-1.574-2.841-2.462-3.69-.934-.892-1.869-1.301-2.77-1.301-.9.001-1.835.409-2.769 1.301-.888.849-1.727 2.097-2.461 3.692 1.536 3.664 2.462 8.557 2.462 13.901 0 1.995-.293 3.839-.794 5.214-.248.683-.565 1.297-.962 1.758-.391.455-.955.861-1.681.861s-1.29-.407-1.68-.861c-.397-.461-.714-1.075-.963-1.758-.5-1.375-.794-3.219-.794-5.214 0-5.344.926-10.238 2.462-13.902-.735-1.594-1.573-2.842-2.46-3.691-.935-.892-1.87-1.3-2.77-1.301s-1.836.409-2.77 1.301c-.937.896-1.824 2.236-2.587 3.96-1.525 3.445-2.489 8.265-2.489 13.633v.86H14.066v-1.721h14.268c.097-5.204 1.068-9.933 2.623-13.445.82-1.85 1.817-3.403 2.972-4.507 1.158-1.106 2.524-1.803 4.038-1.803s2.88.697 4.038 1.803c.8.765 1.524 1.747 2.167 2.893.643-1.146 1.367-2.128 2.168-2.893 1.158-1.106 2.524-1.803 4.038-1.803s2.879.697 4.037 1.803c.8.765 1.526 1.746 2.169 2.892.643-1.146 1.368-2.127 2.168-2.892 1.158-1.106 2.524-1.803 4.038-1.803s2.88.697 4.037 1.803c.8.765 1.526 1.746 2.168 2.892.643-1.146 1.368-2.127 2.168-2.892 1.158-1.106 2.523-1.803 4.037-1.803s2.88.697 4.038 1.803c.8.765 1.526 1.746 2.168 2.892.643-1.146 1.369-2.127 2.17-2.892 1.157-1.106 2.522-1.803 4.036-1.803s2.88.697 4.038 1.803c.8.765 1.525 1.746 2.167 2.892.643-1.146 1.37-2.127 2.17-2.892 1.157-1.106 2.523-1.803 4.037-1.803m-55.852 9.23c-1.024 3.166-1.64 7.101-1.64 11.386 0 1.855.275 3.498.694 4.646.21.578.44.984.651 1.229.103.12.186.182.238.212q.038.02.05.022l.006.001v.001l.003-.001.007-.001a.2.2 0 0 0 .049-.022 1 1 0 0 0 .238-.212c.21-.245.44-.651.651-1.229.418-1.148.694-2.791.694-4.646 0-4.285-.617-8.22-1.641-11.386m12.412-.001c-.944 2.918-1.541 6.49-1.629 10.387l-.012 1c0 1.855.276 3.498.694 4.646.21.578.44.985.651 1.23a1 1 0 0 0 .238.211.2.2 0 0 0 .056.024h.004l.007-.002a.2.2 0 0 0 .049-.022 1 1 0 0 0 .237-.211c.21-.245.442-.652.652-1.23.418-1.148.693-2.791.693-4.646l-.01-1c-.088-3.897-.686-7.469-1.63-10.387m12.411 0c-.944 2.918-1.541 6.49-1.629 10.387l-.011 1c0 1.855.275 3.498.693 4.646.21.578.44.985.651 1.23.103.12.186.181.239.211q.036.02.048.022l.007.002h.003l.008-.002a.2.2 0 0 0 .049-.022 1 1 0 0 0 .237-.211c.21-.245.442-.652.652-1.23.419-1.148.693-2.791.693-4.646 0-4.285-.616-8.221-1.64-11.387m12.411 0c-.944 2.918-1.541 6.49-1.629 10.387l-.01 1c0 1.855.274 3.498.692 4.646.21.578.441.985.652 1.23.103.12.186.181.239.211a.2.2 0 0 0 .054.024h.004l.007-.002a.2.2 0 0 0 .05-.022 1 1 0 0 0 .237-.211c.211-.245.441-.652.651-1.23.419-1.148.694-2.791.694-4.646l-.01-1c-.088-3.897-.687-7.469-1.63-10.387m12.412 0c-.944 2.918-1.542 6.49-1.63 10.387l-.01 1c0 1.855.275 3.498.693 4.646.21.578.44.985.651 1.23.104.12.187.181.24.211a.2.2 0 0 0 .054.024h.004l.007-.002a.2.2 0 0 0 .049-.022 1 1 0 0 0 .238-.211c.211-.245.441-.652.652-1.23.418-1.148.693-2.791.693-4.646l-.012-1c-.087-3.897-.685-7.469-1.629-10.387M100.024 50c1.514 0 2.88.697 4.038 1.804 1.154 1.103 2.153 2.656 2.972 4.506 1.555 3.512 2.526 8.241 2.623 13.445h15.787v1.722H107.87v-.862c0-5.367-.964-10.187-2.489-13.632-.763-1.724-1.649-3.064-2.587-3.96-.934-.893-1.869-1.301-2.77-1.301-.9 0-1.835.408-2.77 1.3-.887.849-1.726 2.098-2.461 3.692 1.536 3.664 2.462 8.557 2.462 13.901l-.003.372c-.034 1.852-.32 3.554-.79 4.843-.249.683-.566 1.297-.962 1.758-.391.455-.956.861-1.682.861-.725 0-1.289-.406-1.68-.861-.397-.46-.713-1.075-.962-1.758-.47-1.289-.757-2.99-.791-4.843l-.003-.372c0-5.344.925-10.237 2.462-13.901-.735-1.594-1.573-2.843-2.461-3.691-.934-.893-1.87-1.301-2.77-1.301s-1.836.408-2.77 1.3c-.888.85-1.727 2.098-2.462 3.692 1.536 3.664 2.462 8.557 2.462 13.901l-.003.372c-.034 1.852-.32 3.554-.79 4.843-.249.683-.566 1.298-.962 1.758-.392.455-.956.861-1.682.861-.725 0-1.289-.406-1.68-.861-.397-.46-.713-1.075-.962-1.758-.47-1.289-.756-2.99-.79-4.843l-.004-.372c0-5.344.925-10.238 2.462-13.902-.735-1.594-1.573-2.842-2.461-3.69-.934-.893-1.87-1.301-2.77-1.301s-1.836.409-2.77 1.3c-.887.849-1.727 2.098-2.462 3.692 1.536 3.664 2.464 8.557 2.464 13.901 0 1.996-.294 3.84-.794 5.215-.25.683-.567 1.297-.963 1.758-.392.454-.955.861-1.68.861-.727 0-1.29-.406-1.681-.861-.397-.46-.715-1.075-.963-1.758-.47-1.289-.756-2.99-.79-4.843l-.004-.372c0-5.344.926-10.237 2.462-13.902-.734-1.593-1.573-2.842-2.46-3.69-.934-.893-1.87-1.301-2.77-1.301s-1.836.408-2.77 1.3c-.888.849-1.727 2.098-2.461 3.692 1.536 3.664 2.462 8.557 2.462 13.901l-.004.372c-.034 1.852-.32 3.554-.79 4.843-.248.683-.565 1.297-.961 1.758-.392.455-.956.861-1.682.861s-1.29-.406-1.68-.861c-.397-.46-.715-1.075-.964-1.758-.469-1.289-.756-2.99-.79-4.843l-.002-.372c0-5.344.925-10.237 2.461-13.902-.734-1.594-1.574-2.842-2.462-3.69-.933-.893-1.869-1.301-2.77-1.301-.9 0-1.835.408-2.769 1.3-.888.85-1.727 2.098-2.461 3.692 1.536 3.664 2.462 8.557 2.462 13.901 0 1.996-.293 3.84-.794 5.215-.248.683-.565 1.297-.962 1.758-.391.455-.955.861-1.681.861s-1.29-.406-1.68-.861c-.397-.46-.714-1.075-.963-1.758-.5-1.375-.794-3.22-.794-5.215 0-5.344.926-10.237 2.462-13.901-.735-1.594-1.573-2.843-2.46-3.691-.935-.893-1.87-1.301-2.77-1.301s-1.836.408-2.77 1.3c-.937.897-1.823 2.237-2.587 3.961-1.525 3.445-2.489 8.264-2.489 13.632v.862H14.066v-1.722h14.268c.097-5.204 1.068-9.932 2.623-13.444.82-1.85 1.817-3.404 2.972-4.507C35.087 50.697 36.453 50 37.967 50s2.88.697 4.038 1.804c.8.764 1.524 1.746 2.167 2.892.643-1.146 1.368-2.127 2.168-2.892C47.498 50.697 48.864 50 50.378 50s2.879.697 4.037 1.804c.8.764 1.526 1.745 2.169 2.891.643-1.146 1.368-2.127 2.168-2.891C59.91 50.697 61.276 50 62.79 50s2.88.697 4.037 1.804c.8.764 1.526 1.745 2.168 2.891.643-1.146 1.368-2.127 2.168-2.891C72.321 50.697 73.686 50 75.2 50s2.88.697 4.038 1.804c.8.764 1.526 1.745 2.168 2.891.643-1.146 1.369-2.127 2.17-2.891C84.732 50.697 86.097 50 87.611 50s2.88.697 4.038 1.804c.8.764 1.525 1.745 2.167 2.891.643-1.146 1.37-2.127 2.17-2.891C97.143 50.697 98.51 50 100.023 50m-55.852 9.23c-1.024 3.166-1.64 7.1-1.64 11.385 0 1.855.275 3.498.694 4.647.21.578.44.984.651 1.23.103.12.186.182.238.211q.038.02.05.023h.016a.3.3 0 0 0 .049-.023 1 1 0 0 0 .238-.212c.21-.245.44-.651.651-1.23.418-1.148.694-2.79.694-4.646 0-4.285-.617-8.219-1.641-11.384m12.412 0c-.944 2.917-1.541 6.489-1.629 10.385l-.012 1c0 1.855.276 3.498.694 4.647.21.578.44.985.651 1.23a1 1 0 0 0 .238.211q.038.02.05.023h.017a.3.3 0 0 0 .049-.023 1 1 0 0 0 .237-.21c.21-.246.442-.653.652-1.231.418-1.149.693-2.792.693-4.647l-.01-1c-.088-3.896-.686-7.468-1.63-10.385m12.411 0c-.944 2.917-1.541 6.489-1.629 10.385l-.011 1c0 1.855.275 3.498.693 4.647.21.578.44.985.651 1.23.103.12.186.181.239.211a.3.3 0 0 0 .055.024h.003l.008-.001a.3.3 0 0 0 .049-.023 1 1 0 0 0 .237-.21c.211-.246.442-.653.652-1.231.419-1.149.693-2.792.693-4.647 0-4.285-.616-8.22-1.64-11.385m12.411 0c-.944 2.917-1.541 6.489-1.629 10.385l-.01 1c0 1.855.274 3.498.692 4.647.21.578.441.985.652 1.23.103.12.186.182.239.211q.036.02.047.023h.018a.3.3 0 0 0 .05-.023 1 1 0 0 0 .237-.21c.211-.246.441-.653.651-1.231.419-1.149.694-2.792.694-4.647l-.01-1c-.088-3.897-.687-7.468-1.63-10.385m12.412 0c-.943 2.917-1.542 6.489-1.63 10.385l-.01 1c0 1.855.275 3.498.693 4.647.21.578.44.985.651 1.23.104.12.187.182.24.211q.036.02.048.023h.017a.3.3 0 0 0 .049-.023 1 1 0 0 0 .238-.21c.211-.246.441-.653.652-1.231.418-1.149.693-2.792.693-4.647l-.012-1c-.087-3.896-.685-7.468-1.629-10.385"/><path fill="#f0ff20" d="M272.604 96.781c-.098-4.526-.763-8.673-1.814-12.062-1.051 3.389-1.717 7.536-1.814 12.062l-.012 1.161c0 2.155.306 4.063.771 5.397.235.671.491 1.144.726 1.429.115.139.207.21.266.245a.2.2 0 0 0 .053.025l.008.002h.004l.008-.002a.2.2 0 0 0 .054-.025c.059-.035.151-.107.265-.245.235-.285.491-.758.726-1.429.465-1.334.771-3.242.771-5.397zM215.518 84.72c-1.14 3.676-1.827 8.246-1.827 13.222 0 2.155.307 4.063.773 5.397.234.671.491 1.143.725 1.428.115.139.207.211.265.246a.2.2 0 0 0 .055.025l.008.001.001.001.002-.001.007-.001a.2.2 0 0 0 .055-.025 1.1 1.1 0 0 0 .265-.246c.235-.285.491-.757.725-1.428.466-1.334.773-3.242.773-5.397 0-4.976-.688-9.546-1.827-13.222m13.818-.001c-1.051 3.389-1.716 7.536-1.814 12.062l-.012 1.161c0 2.155.306 4.063.771 5.397.235.671.491 1.144.726 1.429.115.139.207.21.265.245a.3.3 0 0 0 .054.025l.008.002h.004l.008-.002a.2.2 0 0 0 .054-.025 1.1 1.1 0 0 0 .265-.245c.235-.285.491-.758.726-1.429.465-1.334.771-3.242.771-5.397l-.012-1.16c-.097-4.527-.764-8.674-1.814-12.063m13.818 0c-1.05 3.389-1.717 7.536-1.814 12.062l-.013 1.161c0 2.155.306 4.063.772 5.397.234.671.49 1.144.725 1.429.115.139.207.21.266.245a.2.2 0 0 0 .061.027h.004l.008-.002a.3.3 0 0 0 .055-.025c.058-.035.15-.107.264-.245.235-.285.492-.758.726-1.429.466-1.334.771-3.242.771-5.397h.001c0-4.976-.686-9.546-1.826-13.223m13.818 0c-1.051 3.389-1.716 7.537-1.814 12.062l-.012 1.161c0 2.155.305 4.063.771 5.397.234.671.491 1.144.726 1.429.114.139.207.21.265.245a.2.2 0 0 0 .054.025l.008.002h.004l.007-.002a.2.2 0 0 0 .055-.025 1.1 1.1 0 0 0 .265-.245c.235-.285.491-.758.725-1.429.466-1.334.772-3.242.772-5.397l-.012-1.16c-.097-4.527-.764-8.674-1.814-12.063m17.64 13.655c-.037 2.151-.356 4.127-.879 5.624-.277.794-.63 1.507-1.071 2.042-.436.528-1.064 1-1.872 1s-1.435-.472-1.871-1c-.441-.535-.794-1.248-1.071-2.042-.523-1.497-.842-3.473-.88-5.624l-.004-.432c0-6.206 1.031-11.89 2.741-16.145-.818-1.851-1.752-3.3-2.74-4.286-1.04-1.037-2.082-1.511-3.084-1.511s-2.043.474-3.083 1.51c-.989.986-1.923 2.436-2.741 4.288 1.71 4.256 2.741 9.938 2.741 16.144l-.004.432c-.038 2.151-.356 4.127-.879 5.624-.277.794-.63 1.507-1.071 2.042-.436.528-1.064 1-1.872 1s-1.436-.472-1.871-1c-.442-.535-.795-1.248-1.072-2.042-.522-1.497-.842-3.473-.88-5.624l-.003-.432c0-6.207 1.03-11.89 2.741-16.146-.818-1.85-1.752-3.3-2.741-4.285-1.039-1.037-2.081-1.511-3.084-1.511-1.002 0-2.043.475-3.083 1.51-.988.986-1.923 2.436-2.741 4.287 1.711 4.256 2.742 9.939 2.742 16.145h-.001c0 2.318-.325 4.459-.882 6.056-.277.793-.63 1.507-1.072 2.042-.436.528-1.064 1-1.872 1s-1.435-.472-1.871-1c-.441-.535-.794-1.248-1.071-2.042-.523-1.497-.842-3.473-.88-5.624l-.004-.432c0-6.207 1.031-11.89 2.741-16.146-.818-1.85-1.75-3.3-2.739-4.285-1.04-1.037-2.081-1.51-3.084-1.511-1.002 0-2.043.475-3.083 1.51-.989.986-1.923 2.436-2.741 4.288 1.71 4.256 2.741 9.938 2.741 16.144l-.004.432c-.038 2.151-.356 4.127-.879 5.624-.277.794-.63 1.507-1.071 2.042-.436.528-1.064 1-1.872 1s-1.435-.472-1.871-1c-.441-.535-.794-1.248-1.071-2.042-.523-1.497-.842-3.473-.88-5.624l-.004-.432c0-6.207 1.03-11.89 2.741-16.146-.818-1.85-1.752-3.3-2.74-4.285-1.04-1.037-2.082-1.511-3.084-1.511s-2.043.475-3.083 1.51c-.989.986-1.923 2.436-2.741 4.288 1.71 4.256 2.742 9.938 2.742 16.144 0 2.318-.327 4.459-.884 6.056-.277.794-.63 1.507-1.071 2.042-.436.528-1.064 1-1.872 1s-1.436-.472-1.872-1c-.441-.535-.794-1.248-1.071-2.042-.557-1.597-.884-3.738-.884-6.056 0-6.206 1.031-11.89 2.742-16.145-.818-1.851-1.752-3.3-2.741-4.286-1.039-1.037-2.08-1.51-3.083-1.511-1.002 0-2.044.474-3.084 1.51-1.044 1.041-2.03 2.598-2.879 4.6-1.698 4.001-2.772 9.598-2.772 15.832v1H182v-2h15.885c.108-6.043 1.189-11.534 2.92-15.613.912-2.15 2.023-3.953 3.308-5.234 1.29-1.285 2.81-2.095 4.496-2.095s3.206.81 4.495 2.095c.892.888 1.698 2.028 2.414 3.36.715-1.332 1.523-2.472 2.414-3.36 1.289-1.285 2.809-2.095 4.495-2.095s3.206.81 4.495 2.095c.891.888 1.698 2.027 2.414 3.358.715-1.331 1.523-2.47 2.414-3.358 1.289-1.285 2.809-2.095 4.495-2.095s3.206.81 4.495 2.095c.891.888 1.698 2.027 2.413 3.358.716-1.331 1.523-2.47 2.414-3.358 1.29-1.285 2.81-2.095 4.495-2.095s3.206.81 4.496 2.095c.891.888 1.698 2.027 2.414 3.358.715-1.331 1.523-2.47 2.414-3.358 1.289-1.285 2.809-2.095 4.495-2.095s3.206.81 4.495 2.095c.891.888 1.698 2.027 2.413 3.358.716-1.331 1.524-2.47 2.415-3.358 1.289-1.285 2.809-2.095 4.495-2.095s3.206.81 4.495 2.095c1.286 1.28 2.398 3.085 3.31 5.234 1.731 4.079 2.812 9.57 2.92 15.613H306v2h-19.565v-1c0-6.234-1.074-11.83-2.772-15.832-.85-2.002-1.836-3.559-2.88-4.6-1.04-1.036-2.081-1.51-3.084-1.51-1.002 0-2.043.475-3.083 1.51-.988.986-1.923 2.436-2.741 4.287 1.711 4.256 2.741 9.939 2.741 16.145z"/><path fill="#fff" d="m59.84 35 4.347-26.182h2.391L62.59 32.852h12.478L74.709 35zm21.568 4.5 2.25-13.551h-.128l-4.36 2.595.371-2.122 4.372-2.62h2.148L83.453 39.5zM63.84 178l4.347-26.182h2.391l-3.989 24.034h12.478L78.709 178zm17.937 4.5.23-1.534 6.801-5.51q1.215-.972 1.982-1.7.78-.73 1.189-1.355.409-.64.511-1.343.204-1.227-.614-1.994-.806-.767-2.25-.767-1.47 0-2.582.831-1.1.83-1.304 2.122H83.67q.333-2.007 2.033-3.324 1.713-1.329 4.116-1.329 1.599 0 2.698.6 1.112.601 1.61 1.637.499 1.023.294 2.301a5.1 5.1 0 0 1-.651 1.79q-.486.831-1.484 1.802-.996.959-2.659 2.289l-4.512 3.643v.09h8.348l-.282 1.751z"/><path fill="#f0ff20" d="m227.841 146 4.347-26.182h2.39l-3.989 24.034h12.478l-.358 2.148zm23.305 4.756q-1.892 0-3.119-.87-1.214-.856-1.7-2.377-.474-1.522-.141-3.503t1.33-3.503q.997-1.534 2.454-2.391a6.1 6.1 0 0 1 3.183-.869q1.637 0 2.813.793 1.19.779 1.713 2.224.524 1.431.179 3.401l-.141.767h-10.662l.205-1.394h8.706q.192-1.15-.128-2.084-.32-.945-1.061-1.495-.741-.563-1.815-.563-1.062 0-2.046.601a5.4 5.4 0 0 0-1.662 1.585 5.4 5.4 0 0 0-.895 2.199l-.179 1.176q-.345 2.11.499 3.388t2.749 1.278q.844 0 1.546-.281a4.5 4.5 0 0 0 1.24-.703q.537-.435.87-.946l1.841.281q-.601 1.24-2.084 2.263t-3.695 1.023m18.793 4.653h-2.097l1.253-7.53h-.089a6 6 0 0 1-1.049 1.381 5 5 0 0 1-1.521 1.074q-.869.422-1.969.422-1.533 0-2.582-.857-1.035-.844-1.445-2.365-.396-1.521-.064-3.528.358-2.11 1.266-3.618.92-1.521 2.224-2.327a5.23 5.23 0 0 1 2.826-.818q1.074 0 1.802.396.742.383 1.176 1.049.435.651.601 1.431h.128l.448-2.71h2.058zm-.166-11.442q.37-2.198-.371-3.605-.742-1.406-2.455-1.406-1.176 0-2.083.665-.908.651-1.522 1.802-.614 1.138-.869 2.621-.217 1.38.038 2.506.256 1.125.959 1.789.716.678 1.867.678 1.15 0 2.058-.652.908-.639 1.508-1.777.613-1.137.87-2.621"/><path stroke="#fff" stroke-width="2" d="M15 71v28.5m0 28.5V99.5m0 0H-3M124 71v28.5m0 28.5V99.5m0 0h18"/><path fill="#ff5067" d="m172 100-10-5.773v11.547zm-18 0v1h9v-2h-9z"/></g><defs><clipPath id="a"><path fill="#fff" d="M0 0h300v200H0z"/></clipPath></defs></svg>