<svg xmlns="http://www.w3.org/2000/svg" width="300" height="200" fill="none" viewBox="0 0 300 200"><path fill="#000" d="M0 0h300v200H0z"/><path fill="#fff" d="M168.419 61.867c-.068-3.164-.498-6.084-1.179-8.54-.681 2.456-1.11 5.376-1.178 8.54l-.009.895c0 1.649.235 3.1.585 4.102.176.506.364.845.522 1.037q.047.056.08.086a1 1 0 0 0 .081-.086c.159-.192.346-.53.523-1.037.35-1.003.585-2.453.585-4.102zm-33.272-8.54c-.681 2.456-1.11 5.375-1.178 8.54l-.01.895c0 1.649.235 3.1.585 4.102.177.506.364.845.522 1.037q.048.056.08.086a1 1 0 0 0 .082-.086c.158-.192.345-.53.522-1.037.35-1.003.585-2.453.585-4.102h.001c0-3.509-.444-6.75-1.189-9.436m10.698 0c-.681 2.456-1.111 5.376-1.179 8.54l-.009.895c0 1.649.235 3.1.585 4.102.177.506.364.845.523 1.037a1 1 0 0 0 .08.086q.032-.03.081-.086c.158-.192.346-.53.522-1.037.35-1.003.585-2.453.585-4.102l-.01-.895c-.068-3.164-.497-6.084-1.178-8.54m10.698 0c-.681 2.456-1.111 5.375-1.179 8.54l-.01.895c.001 1.649.235 3.1.585 4.102.177.506.364.845.523 1.037a1 1 0 0 0 .08.086 1 1 0 0 0 .081-.086c.159-.192.346-.53.523-1.037.349-1.003.584-2.453.584-4.102h.001c0-3.509-.443-6.75-1.188-9.436m-32.094 0c-.744 2.686-1.187 5.927-1.187 9.435l.01.608c.05 1.397.268 2.618.575 3.495.176.506.364.844.522 1.036q.048.056.08.085a1 1 0 0 0 .081-.085c.159-.192.346-.53.523-1.036.35-1.003.585-2.454.585-4.103 0-3.509-.444-6.749-1.189-9.435m45.967 10.108c-.055 1.553-.297 2.98-.684 4.088-.219.628-.503 1.209-.868 1.65-.337.41-.836.804-1.49.852l-.133.005c-.72 0-1.263-.42-1.623-.856-.365-.443-.65-1.022-.869-1.65-.387-1.108-.63-2.536-.685-4.09l-.011-.672c0-4.785.786-9.18 2.102-12.497-.616-1.374-1.312-2.439-2.036-3.16-.777-.775-1.528-1.105-2.227-1.105s-1.451.33-2.228 1.105c-.724.722-1.42 1.787-2.036 3.16 1.316 3.318 2.103 7.712 2.103 12.497h-.001c0 1.812-.254 3.496-.696 4.761-.219.629-.503 1.209-.868 1.65-.337.41-.836.805-1.49.852l-.133.005c-.72 0-1.264-.42-1.623-.856-.365-.443-.65-1.022-.869-1.65-.387-1.108-.63-2.536-.685-4.09l-.012-.672c.001-4.785.787-9.179 2.103-12.496-.616-1.374-1.311-2.44-2.035-3.161-.777-.775-1.529-1.105-2.228-1.105s-1.45.33-2.227 1.105c-.725.722-1.421 1.786-2.037 3.16 1.316 3.318 2.103 7.712 2.103 12.497l-.012.673c-.054 1.553-.298 2.98-.684 4.088-.219.628-.503 1.209-.868 1.65-.337.41-.836.804-1.49.852l-.133.005c-.72 0-1.264-.42-1.623-.856-.365-.443-.65-1.022-.869-1.65-.387-1.108-.63-2.536-.685-4.09l-.012-.672c0-4.785.786-9.18 2.103-12.497-.617-1.374-1.312-2.439-2.036-3.16-.777-.775-1.529-1.105-2.228-1.105s-1.45.33-2.227 1.105c-.725.722-1.42 1.787-2.037 3.16 1.317 3.318 2.104 7.712 2.104 12.497h-.001c0 1.812-.255 3.496-.696 4.761-.22.629-.504 1.209-.868 1.65-.338.41-.836.805-1.491.852l-.133.005c-.72 0-1.263-.42-1.623-.856-.364-.443-.649-1.022-.869-1.65-.386-1.108-.63-2.536-.684-4.09l-.012-.672c0-4.785.786-9.179 2.103-12.496-.617-1.374-1.311-2.44-2.036-3.161-.777-.775-1.528-1.105-2.227-1.105s-1.451.33-2.228 1.105c-.724.722-1.42 1.786-2.037 3.16 1.316 3.318 2.104 7.712 2.104 12.497 0 1.812-.256 3.497-.698 4.762-.219.629-.503 1.209-.868 1.65-.359.436-.903.856-1.623.856s-1.263-.42-1.623-.855c-.365-.442-.649-1.022-.868-1.65-.387-1.108-.63-2.536-.685-4.09l-.011-.673c0-4.785.785-9.179 2.101-12.496-.616-1.374-1.311-2.44-2.035-3.161-.777-.775-1.528-1.105-2.227-1.105s-1.451.33-2.228 1.105c-.781.778-1.531 1.954-2.182 3.488-1.299 3.063-2.128 7.365-2.128 12.169v1H74V144h29v2H72V61.762h38.575c.106-4.614.943-8.81 2.276-11.95.713-1.681 1.588-3.105 2.61-4.124 1.026-1.024 2.257-1.688 3.64-1.688 1.382 0 2.613.664 3.639 1.688.627.624 1.197 1.4 1.709 2.295.513-.894 1.084-1.671 1.71-2.295 1.027-1.024 2.257-1.688 3.64-1.688 1.382 0 2.613.664 3.639 1.688.627.624 1.197 1.401 1.709 2.295.513-.894 1.083-1.671 1.709-2.295 1.027-1.024 2.258-1.688 3.64-1.688s2.613.664 3.64 1.688c.626.624 1.196 1.4 1.709 2.295.512-.894 1.083-1.671 1.71-2.295 1.026-1.024 2.257-1.688 3.639-1.688 1.383 0 2.614.664 3.64 1.688.626.624 1.197 1.401 1.709 2.295.512-.894 1.083-1.671 1.709-2.295 1.026-1.024 2.257-1.688 3.64-1.688 1.382 0 2.613.664 3.639 1.688.627.624 1.197 1.4 1.709 2.295.513-.894 1.084-1.671 1.71-2.295 1.027-1.024 2.258-1.688 3.64-1.688s2.613.665 3.639 1.688c1.023 1.018 1.898 2.443 2.611 4.124 1.332 3.14 2.169 7.336 2.275 11.95h39.886V146h-20v-2h18V63.762h-39.874v-1c0-4.804-.828-9.106-2.128-12.17-.651-1.533-1.401-2.709-2.182-3.487-.776-.775-1.528-1.105-2.227-1.105s-1.451.33-2.228 1.105c-.724.722-1.42 1.787-2.037 3.16 1.316 3.318 2.104 7.712 2.104 12.497z"/><path stroke="#fff" stroke-width="2" d="M202 144.933h-34.928l-4 6.067-6.668-13-6.667 13-6.667-13-6.667 13-6.667-13-3.556 6.933H99"/><path fill="#fff" d="m143.432 29 3.38-20.364h1.86L145.57 27.33h9.704l-.278 1.67z"/><path fill="#f0ff20" d="m83.084 46 2.545-15.273h1.78L84.864 46zm4.076-17.928q-.556 0-.944-.377a1.21 1.21 0 0 1-.368-.915q.02-.507.408-.875.397-.378.934-.378.557 0 .945.388.387.378.368.915-.01.507-.408.875a1.33 1.33 0 0 1-.934.367M92.19 49.7q-1.344 0-2.278-.676-.924-.666-1.322-1.86-.398-1.192-.14-2.764.259-1.551 1.025-2.724.775-1.173 1.909-1.83a4.9 4.9 0 0 1 2.496-.656q1.401 0 2.326.696.934.686 1.313 1.88.387 1.182.149 2.654-.249 1.561-1.024 2.744a5.6 5.6 0 0 1-1.92 1.86 4.9 4.9 0 0 1-2.535.676m.148-1.303q.945 0 1.71-.537.777-.537 1.293-1.451a5.9 5.9 0 0 0 .696-2.029q.17-1.074-.04-1.959-.208-.894-.775-1.421t-1.491-.527q-.905 0-1.671.536-.755.528-1.283 1.432a5.8 5.8 0 0 0-.696 2.009q-.189 1.133.02 2.018.21.896.776 1.412.567.517 1.461.517"/><path fill="#fff" d="m133.432 191 3.38-20.364h6.573q2.167 0 3.49.776 1.332.775 1.839 2.158.517 1.371.229 3.162-.298 1.768-1.273 3.132-.964 1.362-2.545 2.137-1.581.766-3.729.766h-5.588l.289-1.7h5.538q1.6 0 2.744-.527a4.5 4.5 0 0 0 1.83-1.502q.686-.974.905-2.306.218-1.343-.15-2.337-.357-.995-1.332-1.541-.964-.547-2.575-.547h-4.664L135.291 191zm10.5-9.188 3.49 9.188h-2.138l-3.43-9.188z"/><path fill="#f0ff20" d="m96 63-10-5.773v11.547zm-14 0v1h5v-2h-5z"/></svg>