<svg xmlns="http://www.w3.org/2000/svg" width="300" height="200" fill="none" viewBox="0 0 300 200"><g clip-path="url(#a)"><path fill="#000" d="M0 0h300v200H0z"/><path fill="#fff" d="m161.16 44-4.95-7.71-4.92 7.71h-.66l5.22-8.25-5.13-7.95h.69l4.86 7.53 4.83-7.53h.63l-5.13 8.07 5.25 8.13zM162.16 111l-4.95-7.71-4.92 7.71h-.66l5.22-8.25-5.13-7.95h.69l4.86 7.53 4.83-7.53h.63l-5.13 8.07 5.25 8.13zM161.16 178l-4.95-7.71-4.92 7.71h-.66l5.22-8.25-5.13-7.95h.69l4.86 7.53 4.83-7.53h.63l-5.13 8.07 5.25 8.13zM222.16 45l-4.95-7.71-4.92 7.71h-.66l5.22-8.25-5.13-7.95h.69l4.86 7.53 4.83-7.53h.63l-5.13 8.07 5.25 8.13zM224.16 178l-4.95-7.71-4.92 7.71h-.66l5.22-8.25-5.13-7.95h.69l4.86 7.53 4.83-7.53h.63l-5.13 8.07 5.25 8.13zM284.16 45l-4.95-7.71-4.92 7.71h-.66l5.22-8.25-5.13-7.95h.69l4.86 7.53 4.83-7.53h.63l-5.13 8.07 5.25 8.13zM286.16 178l-4.95-7.71-4.92 7.71h-.66l5.22-8.25-5.13-7.95h.69l4.86 7.53 4.83-7.53h.63l-5.13 8.07 5.25 8.13zM287.16 114l-4.95-7.71-4.92 7.71h-.66l5.22-8.25-5.13-7.95h.69l4.86 7.53 4.83-7.53h.63l-5.13 8.07 5.25 8.13zM254.78 19.23q1.14.18 2.07.93.96.75 1.5 1.86.57 1.11.57 2.37 0 1.59-.81 2.88-.81 1.26-2.37 2.01-1.53.72-3.63.72h-7.8V9.09h7.5q2.13 0 3.63.72 1.5.69 2.25 1.89t.75 2.7q0 1.86-1.02 3.09-.99 1.2-2.64 1.74m-7.74-1.11h4.59q1.92 0 2.97-.9t1.05-2.49-1.05-2.49-3.03-.9h-4.53zm4.83 9.63q2.04 0 3.18-.96t1.14-2.67q0-1.74-1.2-2.73-1.2-1.02-3.21-1.02h-4.74v7.38zM99.32 146l-4.98-8.55h-3.3V146h-2.73v-20.91h6.75q2.37 0 3.99.81 1.65.81 2.46 2.19t.81 3.15q0 2.16-1.26 3.81-1.23 1.65-3.72 2.19l5.25 8.76zm-8.28-10.74h4.02q2.22 0 3.33-1.08 1.11-1.11 1.11-2.94 0-1.86-1.11-2.88-1.08-1.02-3.33-1.02h-4.02zM214.43 121.48l5.1-13.92h2.91L215.99 124h-3.18l-6.45-16.44h2.94z"/><path stroke="#fff" d="M140.5 1v200"/><path fill="#fff" d="m140 36-.761-.649-1.625 1.907.761.648.761.649 1.625-1.906zm-4.875 5.719-.761-.649-3.25 3.813.761.648.761.649 3.25-3.812zm-6.5 7.625-.761-.649-3.25 3.813.761.648.761.649 3.25-3.812zm-6.5 7.625-.761-.649-3.25 3.813.761.648.761.649 3.25-3.812zm-6.5 7.625-.761-.649-3.25 3.812.761.65.761.648 3.25-3.812zm-6.5 7.625-.761-.649-3.25 3.813.761.648.761.649 3.25-3.812zm-6.5 7.625-.761-.649-3.25 3.813.761.648.761.649 3.25-3.812zm-6.5 7.625-.761-.649-3.25 3.813.761.648.761.649 3.25-3.812zm-6.5 7.625-.761-.649-1.625 1.906L88 97l.761.649 1.625-1.906zM139.635 156.568l.743-.67-1.676-1.861-.743.669-.743.669 1.676 1.862zm-5.028-5.585.743-.669-3.352-3.723-.744.669-.743.669 3.352 3.723zm-6.705-7.446.743-.669-3.352-3.723-.743.669-.743.669 3.352 3.723zm-6.704-7.446.743-.669-3.352-3.723-.743.669-.743.669 3.352 3.723zm-6.704-7.446.743-.669-3.353-3.723-.743.669-.743.669 3.352 3.723zm-6.705-7.446.743-.669-3.352-3.723-.743.669-.743.669 3.352 3.723zm-6.704-7.446.743-.669-3.352-3.723-.743.669-.743.67 3.352 3.722zm-6.705-7.446.744-.669-3.353-3.723-.743.669-.743.67 3.352 3.723zm-6.704-7.445.743-.67-1.676-1.861L86 97l-.743.67 1.676 1.86zM242 100l-10-5.773v11.547zm-50 0v1h41v-2h-41z"/><circle cx="91.5" cy="96.5" r="80.5" stroke="url(#b)" stroke-width="4"/><path fill="#fff" d="M129.67 72.557v1.875h-8.318v-1.875zm1.228-.205v2.08q0 2.676-.665 4.406-.665 1.731-1.875 2.565-1.21.836-2.847.836-1.636 0-2.863-.836-1.227-.835-1.909-2.565t-.682-4.406v-2.08q0-2.659.673-4.355.674-1.696 1.892-2.505 1.219-.81 2.855-.81 1.654 0 2.872.81 1.22.81 1.884 2.505.665 1.695.665 4.355m-2.046 2.455v-2.83q0-1.756-.426-2.983t-1.185-1.866a2.65 2.65 0 0 0-1.764-.64q-1.483 0-2.446 1.433-.963 1.422-.963 4.056v2.83q0 2.633.98 4.133.981 1.492 2.463 1.492 1.006 0 1.756-.674.75-.672 1.168-1.934t.417-3.017"/><path stroke="#f9f9f9" stroke-width="2" d="M126.329 50.787c3.956 11.194 11.152 9.515 14.256 7.276"/></g><defs><linearGradient id="b" x1="91.5" x2="91.5" y1="14" y2="179" gradientUnits="userSpaceOnUse"><stop stop-color="#df9046"/><stop offset="1" stop-color="#794e26"/></linearGradient><clipPath id="a"><path fill="#fff" d="M0 0h300v200H0z"/></clipPath></defs></svg>