<svg xmlns="http://www.w3.org/2000/svg" width="300" height="200" fill="none" viewBox="0 0 300 200"><path fill="#000" d="M0 0h300v200H0z"/><path fill="#fff" d="m63.16 43-4.95-7.71L53.29 43h-.66l5.22-8.25-5.13-7.95h.69l4.86 7.53 4.83-7.53h.63l-5.13 8.07L63.85 43zM64.16 110l-4.95-7.71-4.92 7.71h-.66l5.22-8.25-5.13-7.95h.69l4.86 7.53 4.83-7.53h.63l-5.13 8.07 5.25 8.13zM63.16 177l-4.95-7.71-4.92 7.71h-.66l5.22-8.25-5.13-7.95h.69l4.86 7.53 4.83-7.53h.63l-5.13 8.07 5.25 8.13zM150.16 44l-4.95-7.71-4.92 7.71h-.66l5.22-8.25-5.13-7.95h.69l4.86 7.53 4.83-7.53h.63l-5.13 8.07 5.25 8.13zM152.16 177l-4.95-7.71-4.92 7.71h-.66l5.22-8.25-5.13-7.95h.69l4.86 7.53 4.83-7.53h.63l-5.13 8.07 5.25 8.13zM245.16 44l-4.95-7.71-4.92 7.71h-.66l5.22-8.25-5.13-7.95h.69l4.86 7.53 4.83-7.53h.63l-5.13 8.07 5.25 8.13zM245.16 110l-4.95-7.71-4.92 7.71h-.66l5.22-8.25-5.13-7.95h.69l4.86 7.53 4.83-7.53h.63l-5.13 8.07 5.25 8.13zM246.16 177l-4.95-7.71-4.92 7.71h-.66l5.22-8.25-5.13-7.95h.69l4.86 7.53 4.83-7.53h.63l-5.13 8.07 5.25 8.13zM158.43 136.48l5.1-13.92h2.91L159.99 139h-3.18l-6.45-16.44h2.94zM91.04 87.8V110h-2.73V87.8zM266.78 27.23q1.14.18 2.07.93.96.75 1.5 1.86.57 1.11.57 2.37 0 1.59-.81 2.88-.81 1.26-2.37 2.01-1.53.72-3.63.72h-7.8V17.09h7.5q2.13 0 3.63.72 1.5.69 2.25 1.89t.75 2.7q0 1.86-1.02 3.09-.99 1.2-2.64 1.74m-7.74-1.11h4.59q1.92 0 2.97-.9t1.05-2.49-1.05-2.49-3.03-.9h-4.53zm4.83 9.63q2.04 0 3.18-.96t1.14-2.67q0-1.74-1.2-2.73-1.2-1.02-3.21-1.02h-4.74v7.38z"/><path stroke="url(#a)" stroke-linecap="round" stroke-width="9" d="M123.329 184.359v-157"/><path fill="#fff" d="m195 103-10-5.773v11.547zm-68 0v1h59v-2h-59zM111 189l2.887-5h-5.774zm0-165-2.887 5h5.774zm0 160.5h.5v-156h-1v156z"/><defs><linearGradient id="a" x1="128.329" x2="128.329" y1="184.359" y2="27.359" gradientUnits="userSpaceOnUse"><stop stop-color="#df9046"/><stop offset="1" stop-color="#794e26"/></linearGradient></defs></svg>