<svg xmlns="http://www.w3.org/2000/svg" width="300" height="200" fill="none" viewBox="0 0 300 200"><path fill="#000" d="M0 0h300v200H0z"/><path fill="#fff" d="M197.036 83c1.941 0 3.704.931 5.214 2.436 1.506 1.502 2.817 3.624 3.896 6.167 2.066 4.868 3.354 11.446 3.463 18.691h63.355v2h-65.346v-1c0-7.436-1.28-14.12-3.312-18.91-1.017-2.395-2.202-4.27-3.467-5.53-1.261-1.257-2.545-1.854-3.803-1.854-1.257 0-2.542.597-3.803 1.853-1.209 1.206-2.346 2.973-3.332 5.22 2.044 5.044 3.279 11.815 3.279 19.221h-2c0-6.197-.891-11.873-2.364-16.363-1.472 4.49-2.362 10.166-2.362 16.363h-2c0-7.406 1.233-14.177 3.276-19.222-.985-2.246-2.12-4.013-3.33-5.219-1.26-1.256-2.545-1.853-3.802-1.853s-2.542.597-3.803 1.853c-1.209 1.206-2.346 2.973-3.332 5.22 2.044 5.044 3.277 11.815 3.277 19.221h-2c0-6.197-.89-11.873-2.362-16.363-1.473 4.49-2.362 10.166-2.362 16.363h-2c0-7.406 1.232-14.177 3.276-19.222-.986-2.246-2.122-4.013-3.331-5.219C166.7 85.598 165.416 85 164.158 85c-1.257 0-2.542.597-3.803 1.853-1.209 1.206-2.346 2.973-3.332 5.22 2.044 5.044 3.279 11.815 3.279 19.221h-2c0-6.198-.891-11.873-2.364-16.364-1.472 4.49-2.362 10.166-2.362 16.364h-2c0-7.406 1.233-14.177 3.277-19.222-.986-2.246-2.121-4.013-3.331-5.219-1.26-1.256-2.545-1.853-3.802-1.853s-2.542.597-3.803 1.853c-1.209 1.206-2.346 2.973-3.332 5.22 2.044 5.044 3.277 11.815 3.277 19.221h-2c0-6.197-.889-11.873-2.362-16.363-1.473 4.49-2.362 10.166-2.362 16.363h-2c0-7.406 1.232-14.177 3.276-19.222-.986-2.246-2.122-4.013-3.331-5.219-1.261-1.256-2.545-1.853-3.803-1.853-1.257 0-2.542.597-3.802 1.853-1.21 1.206-2.346 2.972-3.332 5.218 2.045 5.045 3.278 11.816 3.278 19.223 0 2.742-.387 5.267-1.041 7.142-.326.932-.737 1.758-1.242 2.371-.5.606-1.198 1.121-2.08 1.121s-1.581-.515-2.081-1.121c-.505-.613-.915-1.439-1.241-2.371-.654-1.875-1.041-4.4-1.041-7.142 0-7.406 1.233-14.177 3.277-19.222-.986-2.246-2.122-4.013-3.331-5.219-1.261-1.256-2.545-1.853-3.802-1.853s-2.542.597-3.803 1.853c-1.265 1.261-2.45 3.136-3.467 5.532-2.032 4.788-3.312 11.473-3.312 18.909v1H44v-2h58.268c.109-7.245 1.398-13.823 3.463-18.69 1.08-2.543 2.39-4.666 3.896-6.168 1.51-1.505 3.274-2.436 5.215-2.436s3.703.931 5.214 2.436c1.113 1.11 2.119 2.56 3.005 4.268.885-1.708 1.892-3.157 3.005-4.267C127.577 83.93 129.34 83 131.28 83s3.704.931 5.214 2.436c1.114 1.11 2.12 2.56 3.005 4.268.885-1.708 1.893-3.157 3.007-4.267 1.51-1.506 3.273-2.437 5.214-2.437 1.94 0 3.703.931 5.214 2.436 1.113 1.11 2.119 2.56 3.004 4.268.886-1.708 1.893-3.157 3.006-4.267 1.511-1.506 3.273-2.437 5.214-2.437s3.704.931 5.214 2.436c1.114 1.11 2.12 2.56 3.005 4.268.885-1.708 1.893-3.157 3.007-4.267 1.51-1.506 3.273-2.437 5.214-2.437 1.94 0 3.703.931 5.214 2.436 1.113 1.11 2.119 2.56 3.004 4.268.886-1.708 1.893-3.157 3.006-4.267 1.511-1.506 3.273-2.437 5.214-2.437m-59.898 28.295c0 2.578.366 4.87.928 6.481.283.811.598 1.396.897 1.758.304.368.49.394.537.394s.234-.026.538-.394c.299-.362.613-.947.896-1.758.562-1.611.928-3.903.928-6.481h2c0 2.741-.385 5.266-1.04 7.141-.325.932-.736 1.759-1.242 2.372-.5.605-1.198 1.12-2.08 1.12s-1.58-.515-2.08-1.12c-.506-.613-.916-1.44-1.241-2.372-.655-1.875-1.041-4.4-1.041-7.141zm16.438 0c0 2.578.366 4.87.929 6.481.283.811.597 1.396.896 1.758.304.368.491.394.537.394s.234-.025.539-.394c.299-.362.612-.947.895-1.758.563-1.611.929-3.903.929-6.481h2c0 2.741-.386 5.266-1.04 7.141-.326.932-.737 1.759-1.242 2.372-.5.605-1.198 1.12-2.081 1.12-.882 0-1.58-.515-2.08-1.12-.505-.613-.915-1.44-1.241-2.372-.654-1.875-1.041-4.4-1.041-7.141zm16.44 0c0 2.578.366 4.87.928 6.481.283.811.598 1.396.897 1.758.304.368.49.394.537.394s.234-.026.538-.394c.299-.362.613-.947.896-1.758.562-1.611.928-3.903.928-6.481h2c0 2.741-.386 5.266-1.04 7.141-.325.932-.737 1.759-1.242 2.372-.5.605-1.198 1.12-2.08 1.12s-1.58-.515-2.08-1.12c-.506-.613-.916-1.44-1.241-2.372-.655-1.875-1.041-4.4-1.041-7.141zm16.438 0c0 2.578.366 4.87.929 6.481.283.811.597 1.396.896 1.758.304.368.491.394.537.394s.234-.025.538-.394c.299-.362.613-.947.896-1.758.563-1.611.929-3.903.929-6.481h2c0 2.741-.386 5.266-1.04 7.141-.326.932-.737 1.759-1.243 2.372-.5.605-1.197 1.12-2.08 1.12-.882 0-1.58-.515-2.08-1.12-.505-.613-.915-1.44-1.241-2.372-.654-1.875-1.041-4.4-1.041-7.141zm-63.393-16.364c-1.473 4.49-2.363 10.166-2.363 16.363 0 2.578.366 4.871.929 6.482.283.811.597 1.396.896 1.758.304.368.491.394.538.394.046 0 .233-.025.538-.394.299-.362.612-.947.895-1.758.563-1.611.93-3.904.93-6.482 0-6.197-.891-11.873-2.363-16.363M143.432 71l3.38-20.364h1.86L145.57 69.33h9.704L154.996 71z"/><path fill="#fff" d="m85 111-10-5.774v11.548zm-25 0v1h16v-2H60zM70.084 96l2.545-15.273h1.78L71.864 96zm4.076-17.928q-.556 0-.944-.377a1.21 1.21 0 0 1-.368-.915q.02-.507.408-.875.397-.378.934-.378.557 0 .945.388.387.378.368.914-.01.508-.408.876a1.33 1.33 0 0 1-.934.367"/><circle cx="247" cy="111" r="4" fill="#f0ff20"/><circle cx="247" cy="111" r="4" fill="#f0ff20"/><circle cx="247" cy="111" r="4" fill="#f0ff20"/><circle cx="60" cy="111" r="4" fill="#f0ff20"/><circle cx="60" cy="111" r="4" fill="#f0ff20"/><circle cx="60" cy="111" r="4" fill="#f0ff20"/><path fill="#fff" d="M57.29 145.348q-1.383 0-2.436-.537a3.53 3.53 0 0 1-1.571-1.571q-.507-1.034-.279-2.506.2-1.133.756-1.909a4.6 4.6 0 0 1 1.432-1.272 7.7 7.7 0 0 1 1.988-.796q1.125-.288 2.446-.437a282 282 0 0 0 2.208-.279q.915-.119 1.422-.378.507-.258.606-.835l.06-.358q.258-1.561-.477-2.456-.736-.905-2.466-.905-1.65 0-2.864.736-1.203.726-1.79 1.7l-1.57-.606q.714-1.253 1.76-1.999a6.9 6.9 0 0 1 2.236-1.083 8.6 8.6 0 0 1 2.357-.339q.875 0 1.78.229a4.3 4.3 0 0 1 1.62.796q.727.556 1.064 1.561.35.994.1 2.525L63.942 145h-1.77l.408-2.416h-.11q-.417.676-1.153 1.312a6 6 0 0 1-1.74 1.044q-1.014.408-2.287.408m.447-1.621q1.412 0 2.556-.626a5.5 5.5 0 0 0 1.889-1.661 5.44 5.44 0 0 0 .954-2.297l.368-2.207q-.218.19-.716.338-.486.15-1.103.269-.607.11-1.223.189l-1.074.139q-1.322.16-2.307.497-.975.338-1.561.935-.587.586-.736 1.511-.228 1.392.607 2.158.845.755 2.346.755M240.432 145l3.38-20.364h1.78l-1.312 8.005h.159a8.4 8.4 0 0 1 1.084-1.412 5.7 5.7 0 0 1 1.69-1.213q1.005-.498 2.406-.498 1.88 0 3.132.995 1.263.984 1.76 2.764.498 1.77.11 4.126-.397 2.367-1.482 4.147t-2.665 2.774a6.36 6.36 0 0 1-3.45.994q-1.392 0-2.247-.497-.844-.497-1.293-1.223a6.2 6.2 0 0 1-.636-1.432h-.219l-.477 2.834zm3.023-7.626q-.299 1.849 0 3.281.307 1.422 1.203 2.237.904.805 2.386.805 1.521 0 2.715-.835 1.203-.844 1.988-2.277.795-1.431 1.094-3.211.288-1.76-.01-3.172-.299-1.412-1.203-2.238-.904-.835-2.436-.835a4.7 4.7 0 0 0-2.685.806q-1.183.795-1.969 2.207-.785 1.402-1.083 3.232"/></svg>