<svg xmlns="http://www.w3.org/2000/svg" width="300" height="200" fill="none" viewBox="0 0 300 200"><path fill="#000" d="M0 0h300v200H0z"/><path fill="#fff" d="M117.604 76.781c-.098-4.526-.763-8.673-1.814-12.062-1.051 3.389-1.717 7.536-1.814 12.062l-.012 1.161c0 2.155.306 4.063.771 5.397.235.671.491 1.144.726 1.429.115.139.207.21.266.245a.3.3 0 0 0 .061.027h.004l.008-.002a.3.3 0 0 0 .054-.025c.059-.035.151-.107.265-.245.235-.285.491-.758.726-1.43.465-1.333.771-3.241.771-5.396zM60.518 64.72c-1.14 3.676-1.827 8.246-1.827 13.222 0 2.155.307 4.063.773 5.397.234.671.49 1.143.726 1.428.114.139.206.211.264.246a.3.3 0 0 0 .055.025l.008.001v.001h.002l.008-.002a.3.3 0 0 0 .055-.025c.059-.035.15-.107.265-.246.234-.285.49-.757.725-1.428.466-1.334.773-3.242.773-5.397 0-4.976-.687-9.546-1.827-13.222m13.818-.001c-1.05 3.389-1.716 7.536-1.814 12.062l-.012 1.161c0 2.155.306 4.063.771 5.397.235.671.491 1.144.726 1.429.115.139.207.21.265.245a.3.3 0 0 0 .062.027h.004l.008-.002a.3.3 0 0 0 .054-.025c.059-.035.15-.107.265-.245.235-.285.491-.758.726-1.43.465-1.333.771-3.241.771-5.396l-.012-1.16c-.097-4.527-.764-8.674-1.814-12.063m13.818 0c-1.05 3.389-1.717 7.536-1.814 12.062l-.013 1.161c0 2.155.306 4.063.772 5.397.234.671.49 1.144.725 1.429.115.139.207.21.266.245a.3.3 0 0 0 .061.027h.004l.008-.002a.3.3 0 0 0 .055-.025c.058-.035.15-.107.264-.245.235-.285.492-.758.726-1.43.466-1.333.772-3.241.772-5.396 0-4.976-.686-9.546-1.826-13.223m13.818 0c-1.051 3.389-1.716 7.537-1.814 12.062l-.012 1.161c0 2.155.305 4.063.771 5.397.234.671.491 1.144.726 1.429.114.139.207.21.265.245a.3.3 0 0 0 .054.025l.008.002h.004l.007-.002a.2.2 0 0 0 .055-.025c.059-.035.15-.107.265-.245.235-.285.491-.758.725-1.43.466-1.333.772-3.241.772-5.396l-.012-1.16c-.097-4.527-.764-8.674-1.814-12.063m17.64 13.655c-.037 2.15-.356 4.127-.879 5.624-.277.794-.63 1.507-1.071 2.042-.436.528-1.064 1-1.872 1s-1.435-.472-1.871-1c-.441-.535-.794-1.248-1.071-2.042-.523-1.497-.842-3.473-.88-5.624l-.004-.432c0-6.206 1.031-11.89 2.741-16.145-.818-1.851-1.752-3.3-2.74-4.286-1.04-1.037-2.082-1.511-3.084-1.511s-2.043.474-3.083 1.51c-.989.986-1.923 2.436-2.741 4.288 1.71 4.256 2.741 9.938 2.741 16.144l-.004.432c-.038 2.15-.356 4.127-.879 5.624-.277.793-.63 1.507-1.071 2.042-.436.528-1.064 1-1.872 1s-1.436-.472-1.871-1c-.442-.535-.795-1.248-1.072-2.042-.522-1.497-.842-3.473-.88-5.624l-.004-.432c0-6.207 1.031-11.89 2.742-16.146-.818-1.85-1.752-3.3-2.74-4.285C97.107 56.474 96.065 56 95.062 56c-1.002 0-2.043.475-3.082 1.51-.99.986-1.924 2.436-2.742 4.287 1.71 4.256 2.743 9.939 2.743 16.145h-.001c0 2.318-.326 4.46-.883 6.056-.277.793-.63 1.507-1.072 2.042-.436.528-1.064 1-1.872 1s-1.435-.472-1.87-1c-.442-.535-.795-1.248-1.072-2.042-.523-1.497-.842-3.473-.88-5.624l-.004-.432c0-6.207 1.03-11.89 2.741-16.146-.818-1.85-1.75-3.3-2.739-4.285C83.29 56.474 82.248 56 81.245 56c-1.002 0-2.043.474-3.083 1.51-.989.986-1.923 2.436-2.741 4.288 1.71 4.256 2.741 9.938 2.741 16.144l-.004.432c-.038 2.15-.356 4.127-.879 5.624-.277.793-.63 1.507-1.071 2.042-.436.528-1.064 1-1.872 1s-1.435-.472-1.871-1c-.441-.535-.794-1.248-1.071-2.042-.523-1.497-.843-3.473-.88-5.624l-.004-.432c0-6.207 1.03-11.89 2.741-16.146-.818-1.85-1.752-3.3-2.74-4.285C69.47 56.474 68.429 56 67.427 56s-2.044.474-3.083 1.51c-.99.986-1.923 2.436-2.741 4.288 1.71 4.256 2.742 9.938 2.742 16.144 0 2.318-.327 4.46-.884 6.056-.277.794-.63 1.507-1.071 2.042-.436.528-1.064 1-1.872 1-.809 0-1.436-.472-1.871-1-.442-.535-.795-1.248-1.072-2.042-.557-1.597-.884-3.738-.884-6.056 0-6.206 1.031-11.89 2.742-16.145-.819-1.851-1.752-3.3-2.74-4.286-1.04-1.037-2.081-1.51-3.084-1.511-1.002 0-2.044.474-3.084 1.51-1.044 1.041-2.03 2.598-2.88 4.6-1.697 4.001-2.771 9.598-2.771 15.832v1H27v-2h15.885c.108-6.043 1.189-11.534 2.92-15.613.912-2.15 2.023-3.953 3.308-5.234C50.403 54.81 51.923 54 53.61 54s3.206.81 4.496 2.095c.89.888 1.697 2.028 2.413 3.36.715-1.332 1.523-2.472 2.414-3.36C64.22 54.81 65.74 54 67.427 54s3.205.81 4.495 2.095c.89.888 1.698 2.027 2.414 3.358.716-1.331 1.523-2.47 2.414-3.358C78.04 54.81 79.56 54 81.245 54s3.206.81 4.495 2.095c.891.888 1.698 2.027 2.413 3.358.716-1.331 1.523-2.47 2.414-3.358C91.857 54.81 93.377 54 95.063 54c1.685 0 3.205.81 4.495 2.095.891.888 1.698 2.027 2.414 3.358.715-1.331 1.523-2.47 2.414-3.358 1.289-1.285 2.809-2.095 4.495-2.095s3.206.81 4.495 2.095c.891.888 1.698 2.027 2.413 3.358.716-1.331 1.524-2.47 2.415-3.358 1.289-1.285 2.809-2.095 4.495-2.095s3.206.81 4.495 2.095c1.286 1.28 2.398 3.085 3.31 5.234 1.731 4.079 2.812 9.57 2.92 15.613H151v2h-19.565v-1c0-6.234-1.074-11.83-2.772-15.832-.85-2.002-1.836-3.559-2.88-4.6-1.04-1.036-2.081-1.51-3.084-1.51-1.002 0-2.043.474-3.083 1.51-.988.986-1.923 2.436-2.741 4.287 1.711 4.256 2.741 9.939 2.741 16.145z"/><path fill="#fff" d="M239.604 76.781c-.098-4.526-.763-8.673-1.814-12.062-1.051 3.389-1.717 7.536-1.814 12.062l-.012 1.161c0 2.155.306 4.063.771 5.397.235.671.491 1.144.726 1.429.115.139.207.21.266.245a.3.3 0 0 0 .061.027h.004l.008-.002a.3.3 0 0 0 .054-.025c.059-.035.151-.107.265-.245.235-.285.491-.758.726-1.43.465-1.333.771-3.241.771-5.396zM182.518 64.72c-1.14 3.676-1.827 8.246-1.827 13.222 0 2.155.307 4.063.773 5.397.234.671.491 1.143.725 1.428.115.139.207.211.265.246a.2.2 0 0 0 .055.025l.008.001.001.001h.002l.007-.002a.2.2 0 0 0 .055-.025 1.1 1.1 0 0 0 .265-.246c.235-.285.491-.757.725-1.428.466-1.334.773-3.242.773-5.397 0-4.976-.688-9.546-1.827-13.222m13.818-.001c-1.051 3.389-1.716 7.536-1.814 12.062l-.012 1.161c0 2.155.306 4.063.771 5.397.235.671.491 1.144.726 1.429.115.139.207.21.265.245a.3.3 0 0 0 .062.027h.004l.008-.002a.3.3 0 0 0 .054-.025 1.1 1.1 0 0 0 .265-.245c.235-.285.491-.758.726-1.43.465-1.333.771-3.241.771-5.396l-.012-1.16c-.097-4.527-.764-8.674-1.814-12.063m13.818 0c-1.05 3.389-1.717 7.536-1.814 12.062l-.013 1.161c0 2.155.306 4.063.772 5.397.234.671.49 1.144.725 1.429.115.139.207.21.266.245a.3.3 0 0 0 .061.027h.004l.008-.002a.3.3 0 0 0 .055-.025c.058-.035.15-.107.264-.245.235-.285.492-.758.726-1.43.466-1.333.771-3.241.771-5.396h.001c0-4.976-.686-9.546-1.826-13.223m13.818 0c-1.051 3.389-1.716 7.537-1.814 12.062l-.012 1.161c0 2.155.305 4.063.771 5.397.234.671.491 1.144.726 1.429.114.139.207.21.265.245a.3.3 0 0 0 .054.025l.008.002h.004l.007-.002a.2.2 0 0 0 .055-.025c.059-.035.15-.107.265-.245.235-.285.491-.758.725-1.43.466-1.333.772-3.241.772-5.396l-.012-1.16c-.097-4.527-.764-8.674-1.814-12.063m17.64 13.655c-.037 2.15-.356 4.127-.879 5.624-.277.794-.63 1.507-1.071 2.042-.436.528-1.064 1-1.872 1s-1.435-.472-1.871-1c-.441-.535-.794-1.248-1.071-2.042-.523-1.497-.842-3.473-.88-5.624l-.004-.432c0-6.206 1.031-11.89 2.741-16.145-.818-1.851-1.752-3.3-2.74-4.286-1.04-1.037-2.082-1.511-3.084-1.511s-2.043.474-3.083 1.51c-.989.986-1.923 2.436-2.741 4.288 1.71 4.256 2.741 9.938 2.741 16.144l-.004.432c-.038 2.15-.356 4.127-.879 5.624-.277.793-.63 1.507-1.071 2.042-.436.528-1.064 1-1.872 1s-1.436-.472-1.871-1c-.442-.535-.795-1.248-1.072-2.042-.522-1.497-.842-3.473-.88-5.624l-.003-.432c0-6.207 1.03-11.89 2.741-16.146-.818-1.85-1.752-3.3-2.741-4.285-1.039-1.037-2.081-1.511-3.084-1.511-1.002 0-2.043.475-3.083 1.51-.988.986-1.923 2.436-2.741 4.287 1.711 4.256 2.742 9.939 2.742 16.145h-.001c0 2.318-.325 4.46-.882 6.056-.277.793-.63 1.507-1.072 2.042-.436.528-1.064 1-1.872 1s-1.435-.472-1.871-1c-.441-.535-.794-1.248-1.071-2.042-.523-1.497-.842-3.473-.88-5.624l-.004-.432c0-6.207 1.031-11.89 2.741-16.146-.818-1.85-1.75-3.3-2.739-4.285-1.04-1.037-2.081-1.51-3.084-1.511-1.002 0-2.043.474-3.083 1.51-.989.986-1.923 2.436-2.741 4.288 1.71 4.256 2.741 9.938 2.741 16.144l-.004.432c-.038 2.15-.356 4.127-.879 5.624-.277.793-.63 1.507-1.071 2.042-.436.528-1.064 1-1.872 1s-1.435-.472-1.871-1c-.441-.535-.794-1.248-1.071-2.042-.523-1.497-.842-3.473-.88-5.624l-.004-.432c0-6.207 1.03-11.89 2.741-16.146-.818-1.85-1.752-3.3-2.74-4.285-1.04-1.037-2.082-1.511-3.084-1.511s-2.043.474-3.083 1.51c-.989.986-1.923 2.436-2.741 4.288 1.71 4.256 2.742 9.938 2.742 16.144 0 2.318-.327 4.46-.884 6.056-.277.794-.63 1.507-1.071 2.042-.436.528-1.064 1-1.872 1s-1.436-.472-1.872-1c-.441-.535-.794-1.248-1.071-2.042-.557-1.597-.884-3.738-.884-6.056 0-6.206 1.031-11.89 2.742-16.145-.818-1.851-1.752-3.3-2.741-4.286-1.039-1.037-2.08-1.51-3.083-1.511-1.002 0-2.044.474-3.084 1.51-1.044 1.041-2.03 2.598-2.879 4.6-1.698 4.001-2.772 9.598-2.772 15.832v1H149v-2h15.885c.108-6.043 1.189-11.534 2.92-15.613.912-2.15 2.023-3.953 3.308-5.234 1.29-1.285 2.81-2.095 4.496-2.095s3.206.81 4.495 2.095c.892.888 1.698 2.028 2.414 3.36.715-1.332 1.523-2.472 2.414-3.36 1.289-1.285 2.809-2.095 4.495-2.095s3.206.81 4.495 2.095c.891.888 1.698 2.027 2.414 3.358.715-1.331 1.523-2.47 2.414-3.358 1.289-1.285 2.809-2.095 4.495-2.095s3.206.81 4.495 2.095c.891.888 1.698 2.027 2.413 3.358.716-1.331 1.523-2.47 2.414-3.358 1.29-1.285 2.81-2.095 4.495-2.095s3.206.81 4.496 2.095c.891.888 1.698 2.027 2.414 3.358.715-1.331 1.523-2.47 2.414-3.358 1.289-1.285 2.809-2.095 4.495-2.095s3.206.81 4.495 2.095c.891.888 1.698 2.027 2.413 3.358.716-1.331 1.524-2.47 2.415-3.358 1.289-1.285 2.809-2.095 4.495-2.095s3.206.81 4.495 2.095c1.286 1.28 2.398 3.085 3.31 5.234 1.731 4.079 2.812 9.57 2.92 15.613H273v2h-19.565v-1c0-6.234-1.074-11.83-2.772-15.832-.85-2.002-1.836-3.559-2.88-4.6-1.04-1.036-2.081-1.51-3.084-1.51-1.002 0-2.043.474-3.083 1.51-.988.986-1.923 2.436-2.741 4.287 1.711 4.256 2.741 9.939 2.741 16.145z"/><path fill="#f0ff20" d="M178.604 139.781c-.098-4.526-.763-8.673-1.814-12.062-1.051 3.389-1.717 7.536-1.814 12.062l-.012 1.161c0 2.155.306 4.063.771 5.397.235.671.491 1.144.726 1.429.115.139.207.21.266.245a.2.2 0 0 0 .053.025l.008.002h.004l.008-.002a.2.2 0 0 0 .054-.025c.059-.035.151-.107.265-.245.235-.285.491-.758.726-1.429.465-1.334.771-3.242.771-5.397zm-57.086-12.061c-1.14 3.676-1.827 8.246-1.827 13.222 0 2.155.307 4.063.773 5.397.234.671.491 1.143.725 1.428.115.139.207.211.265.246a.2.2 0 0 0 .055.025l.008.001.001.001.002-.001.007-.001a.2.2 0 0 0 .055-.025 1.1 1.1 0 0 0 .265-.246c.235-.285.491-.757.725-1.428.466-1.334.773-3.242.773-5.397 0-4.976-.688-9.546-1.827-13.222m13.818-.001c-1.051 3.389-1.716 7.536-1.814 12.062l-.012 1.161c0 2.155.306 4.063.771 5.397.235.671.491 1.144.726 1.429.115.139.207.21.265.245a.3.3 0 0 0 .054.025l.008.002h.004l.008-.002a.2.2 0 0 0 .054-.025 1.1 1.1 0 0 0 .265-.245c.235-.285.491-.758.726-1.429.465-1.334.771-3.242.771-5.397l-.012-1.161c-.097-4.526-.764-8.673-1.814-12.062m13.818 0c-1.05 3.389-1.717 7.536-1.814 12.062l-.013 1.161c0 2.155.306 4.063.772 5.397.234.671.49 1.144.725 1.429.115.139.207.21.266.245a.2.2 0 0 0 .054.025l.007.002h.004l.008-.002a.3.3 0 0 0 .055-.025c.058-.035.15-.107.264-.245.235-.285.492-.758.726-1.429.466-1.334.771-3.242.771-5.397h.001c0-4.976-.686-9.546-1.826-13.223m13.818 0c-1.051 3.389-1.716 7.536-1.814 12.062l-.012 1.161c0 2.155.305 4.063.771 5.397.234.671.491 1.144.726 1.429.114.139.207.21.265.245a.2.2 0 0 0 .054.025l.008.002h.004l.007-.002a.2.2 0 0 0 .055-.025 1.1 1.1 0 0 0 .265-.245c.235-.285.491-.758.725-1.429.466-1.334.772-3.242.772-5.397l-.012-1.161c-.097-4.526-.764-8.673-1.814-12.062m17.64 13.655c-.037 2.151-.356 4.127-.879 5.624-.277.794-.63 1.507-1.071 2.042-.436.528-1.064 1-1.872 1s-1.435-.472-1.871-1c-.441-.535-.794-1.248-1.071-2.042-.523-1.497-.842-3.473-.88-5.624l-.004-.432c0-6.206 1.031-11.889 2.741-16.145-.818-1.851-1.752-3.301-2.74-4.286-1.04-1.037-2.082-1.511-3.084-1.511s-2.043.474-3.083 1.511c-.989.985-1.923 2.435-2.741 4.287 1.71 4.256 2.741 9.938 2.741 16.144l-.004.432c-.038 2.151-.356 4.127-.879 5.624-.277.794-.63 1.507-1.071 2.042-.436.528-1.064 1-1.872 1s-1.436-.472-1.871-1c-.442-.535-.795-1.248-1.072-2.042-.522-1.497-.842-3.473-.88-5.624l-.003-.432c0-6.207 1.03-11.89 2.741-16.146-.818-1.851-1.752-3.3-2.741-4.285-1.039-1.037-2.081-1.511-3.084-1.511-1.002 0-2.043.475-3.083 1.511-.988.985-1.923 2.435-2.741 4.286 1.711 4.256 2.742 9.939 2.742 16.145h-.001c0 2.318-.325 4.459-.882 6.056-.277.793-.63 1.507-1.072 2.042-.436.528-1.064 1-1.872 1s-1.435-.472-1.871-1c-.441-.535-.794-1.248-1.071-2.042-.523-1.497-.842-3.473-.88-5.624l-.004-.432c0-6.207 1.031-11.89 2.741-16.146-.818-1.851-1.75-3.3-2.739-4.285-1.04-1.037-2.081-1.511-3.084-1.511-1.002 0-2.043.474-3.083 1.511-.989.985-1.923 2.435-2.741 4.287 1.71 4.256 2.741 9.938 2.741 16.144l-.004.432c-.038 2.151-.356 4.127-.879 5.624-.277.794-.63 1.507-1.071 2.042-.436.528-1.064 1-1.872 1s-1.435-.472-1.871-1c-.441-.535-.794-1.248-1.071-2.042-.523-1.497-.842-3.473-.88-5.624l-.004-.432c0-6.207 1.03-11.89 2.741-16.146-.818-1.851-1.752-3.3-2.74-4.285-1.04-1.037-2.082-1.511-3.084-1.511s-2.043.475-3.083 1.511c-.989.985-1.923 2.435-2.741 4.287 1.71 4.256 2.742 9.938 2.742 16.144 0 2.318-.327 4.459-.884 6.056-.277.794-.63 1.507-1.071 2.042-.436.528-1.064 1-1.872 1s-1.436-.472-1.872-1c-.441-.535-.794-1.248-1.071-2.042-.557-1.597-.884-3.738-.884-6.056 0-6.206 1.031-11.889 2.742-16.145-.818-1.851-1.752-3.301-2.741-4.286-1.039-1.037-2.08-1.511-3.083-1.511-1.002 0-2.044.474-3.084 1.511-1.044 1.04-2.03 2.597-2.879 4.599-1.698 4.001-2.772 9.598-2.772 15.832v1H88v-2h15.885c.108-6.043 1.189-11.534 2.92-15.613.912-2.149 2.023-3.953 3.308-5.234 1.29-1.286 2.81-2.095 4.496-2.095s3.206.81 4.495 2.095c.892.888 1.698 2.028 2.414 3.359.715-1.331 1.523-2.471 2.414-3.359 1.289-1.285 2.809-2.095 4.495-2.095s3.206.81 4.495 2.095c.891.888 1.698 2.027 2.414 3.358.715-1.331 1.523-2.47 2.414-3.358 1.289-1.285 2.809-2.095 4.495-2.095s3.206.81 4.495 2.095c.891.888 1.698 2.027 2.413 3.358.716-1.331 1.523-2.47 2.414-3.358 1.29-1.285 2.81-2.095 4.495-2.095s3.206.81 4.496 2.095c.891.888 1.698 2.027 2.414 3.358.715-1.331 1.523-2.47 2.414-3.358 1.289-1.285 2.809-2.095 4.495-2.095s3.206.81 4.495 2.095c.891.888 1.698 2.027 2.413 3.358.716-1.331 1.524-2.47 2.415-3.358 1.289-1.285 2.809-2.095 4.495-2.095s3.206.81 4.495 2.095c1.286 1.281 2.398 3.085 3.31 5.234 1.731 4.079 2.812 9.57 2.92 15.613H212v2h-19.565v-1c0-6.234-1.074-11.831-2.772-15.832-.85-2.002-1.836-3.559-2.88-4.599-1.04-1.037-2.081-1.511-3.084-1.511-1.002 0-2.043.475-3.083 1.511-.988.985-1.923 2.435-2.741 4.286 1.711 4.256 2.741 9.939 2.741 16.145z"/><path fill="#fff" d="m82.84 35 4.347-26.182h2.391L85.59 32.852h12.478L97.709 35zm21.568 4.5 2.25-13.551h-.128l-4.36 2.595.371-2.122 4.372-2.62h2.148L106.453 39.5zM200.841 35l4.347-26.182h2.39l-3.989 24.034h12.478L215.709 35zm17.936 4.5.23-1.534 6.801-5.51q1.215-.972 1.982-1.7.78-.73 1.189-1.355a3.4 3.4 0 0 0 .511-1.343q.204-1.227-.614-1.994-.805-.767-2.25-.767-1.47 0-2.582.83-1.1.832-1.304 2.123h-2.071q.333-2.007 2.033-3.324 1.713-1.33 4.116-1.33 1.599 0 2.698.601 1.112.602 1.61 1.637.5 1.023.294 2.3a5.1 5.1 0 0 1-.652 1.79q-.485.832-1.482 1.803-.998.96-2.66 2.289l-4.512 3.643v.09h8.348l-.282 1.751z"/><path fill="#f0ff20" d="m134.841 188 4.347-26.182h2.39l-3.989 24.034h12.478l-.358 2.148zm23.305 4.756q-1.892 0-3.119-.87-1.214-.856-1.7-2.377-.474-1.522-.141-3.503t1.33-3.503q.997-1.534 2.454-2.391a6.1 6.1 0 0 1 3.183-.869q1.637 0 2.813.793 1.19.779 1.713 2.224.524 1.431.179 3.401l-.141.767h-10.662l.205-1.394h8.706q.192-1.15-.128-2.084-.32-.945-1.061-1.495-.741-.563-1.815-.563-1.062 0-2.046.601a5.4 5.4 0 0 0-1.662 1.585 5.4 5.4 0 0 0-.895 2.199l-.179 1.176q-.345 2.11.499 3.388t2.749 1.278q.844 0 1.546-.281a4.5 4.5 0 0 0 1.24-.703q.537-.435.87-.946l1.841.281q-.601 1.24-2.084 2.263t-3.695 1.023m18.793 4.653h-2.097l1.253-7.53h-.089a6 6 0 0 1-1.049 1.381 5 5 0 0 1-1.521 1.074q-.869.422-1.969.422-1.533 0-2.582-.857-1.035-.844-1.445-2.365-.396-1.521-.064-3.528.359-2.11 1.266-3.618.92-1.521 2.224-2.327a5.23 5.23 0 0 1 2.826-.818q1.074 0 1.802.396.743.383 1.176 1.049.435.651.601 1.431h.128l.448-2.71h2.058zm-.166-11.442q.37-2.198-.371-3.605-.741-1.406-2.455-1.406-1.176 0-2.083.665-.908.651-1.522 1.802-.614 1.138-.869 2.621-.217 1.38.038 2.506.256 1.125.959 1.789.716.678 1.867.678 1.15 0 2.058-.652.908-.639 1.508-1.777.613-1.137.87-2.621"/></svg>