<svg xmlns="http://www.w3.org/2000/svg" width="300" height="200" fill="none" viewBox="0 0 300 200"><path fill="#000" d="M0 0h300v200H0z"/><path fill="#fff" d="m63.16 43-4.95-7.71L53.29 43h-.66l5.22-8.25-5.13-7.95h.69l4.86 7.53 4.83-7.53h.63l-5.13 8.07L63.85 43zM64.16 110l-4.95-7.71-4.92 7.71h-.66l5.22-8.25-5.13-7.95h.69l4.86 7.53 4.83-7.53h.63l-5.13 8.07 5.25 8.13zM63.16 177l-4.95-7.71-4.92 7.71h-.66l5.22-8.25-5.13-7.95h.69l4.86 7.53 4.83-7.53h.63l-5.13 8.07 5.25 8.13zM150.16 44l-4.95-7.71-4.92 7.71h-.66l5.22-8.25-5.13-7.95h.69l4.86 7.53 4.83-7.53h.63l-5.13 8.07 5.25 8.13zM152.16 177l-4.95-7.71-4.92 7.71h-.66l5.22-8.25-5.13-7.95h.69l4.86 7.53 4.83-7.53h.63l-5.13 8.07 5.25 8.13zM245.16 44l-4.95-7.71-4.92 7.71h-.66l5.22-8.25-5.13-7.95h.69l4.86 7.53 4.83-7.53h.63l-5.13 8.07 5.25 8.13zM245.16 110l-4.95-7.71-4.92 7.71h-.66l5.22-8.25-5.13-7.95h.69l4.86 7.53 4.83-7.53h.63l-5.13 8.07 5.25 8.13zM246.16 177l-4.95-7.71-4.92 7.71h-.66l5.22-8.25-5.13-7.95h.69l4.86 7.53 4.83-7.53h.63l-5.13 8.07 5.25 8.13zM143.43 146.48l5.1-13.92h2.91L144.99 149h-3.18l-6.45-16.44h2.94zM101.04 74.8V97h-2.73V74.8zM266.78 27.23q1.14.18 2.07.93.96.75 1.5 1.86.57 1.11.57 2.37 0 1.59-.81 2.88-.81 1.26-2.37 2.01-1.53.72-3.63.72h-7.8V17.09h7.5q2.13 0 3.63.72 1.5.69 2.25 1.89t.75 2.7q0 1.86-1.02 3.09-.99 1.2-2.64 1.74m-7.74-1.11h4.59q1.92 0 2.97-.9t1.05-2.49-1.05-2.49-3.03-.9h-4.53zm4.83 9.63q2.04 0 3.18-.96t1.14-2.67q0-1.74-1.2-2.73-1.2-1.02-3.21-1.02h-4.74v7.38z"/><path stroke="url(#a)" stroke-linecap="round" stroke-width="9" d="M171.659 44 75 167.718"/><path fill="#fff" d="m184 124-10-5.774v11.548zm-68 0v1h59v-2h-59zM154.721 43.451l-5.353 2.163 4.549 3.555zm-86.809 111.11 5.353-2.163-4.55-3.554zM151.95 46.997l-.394-.307-81.267 104.017.394.308.394.308 81.267-104.018zM154.67 104.557v1.875h-8.318v-1.875zm1.228-.205v2.08q0 2.676-.665 4.406t-1.875 2.565-2.847.836q-1.636 0-2.863-.836-1.228-.835-1.909-2.565-.682-1.73-.682-4.406v-2.08q0-2.658.673-4.355.674-1.696 1.892-2.505 1.219-.81 2.855-.81 1.654 0 2.872.81 1.22.81 1.884 2.505.665 1.697.665 4.355m-2.046 2.455v-2.83q0-1.756-.426-2.983t-1.185-1.866a2.65 2.65 0 0 0-1.764-.64q-1.482 0-2.446 1.433-.963 1.423-.963 4.056v2.83q0 2.633.98 4.133.981 1.492 2.463 1.492 1.006 0 1.756-.673.75-.674 1.168-1.935t.417-3.017"/><path stroke="#f9f9f9" stroke-width="2" d="M135.556 124.356c5.495-13.022-.748-19.189-4.556-20.645"/><defs><linearGradient id="a" x1="167.719" x2="71.06" y1="40.922" y2="164.639" gradientUnits="userSpaceOnUse"><stop stop-color="#df9046"/><stop offset="1" stop-color="#794e26"/></linearGradient></defs></svg>