<svg xmlns="http://www.w3.org/2000/svg" width="300" height="200" fill="none" viewBox="0 0 300 200"><path fill="#000" d="M0 0h300v200H0z"/><path stroke="url(#a)" stroke-width="4" d="M103 25c12.017 0 23.222 7.988 31.527 21.595C142.811 60.167 148 79.043 148 100s-5.189 39.833-13.473 53.405C126.222 167.012 115.017 175 103 175s-23.222-7.988-31.527-21.595C63.189 139.833 58 120.957 58 100s5.189-39.833 13.473-53.405C79.778 32.988 90.983 25 103 25Z"/><path fill="#fff" d="m58 92-8.66 15h17.32zM28.161 111l2.727-16.364h1.907L30.068 111zm4.368-19.208q-.597 0-1.012-.405a1.3 1.3 0 0 1-.394-.98q.021-.543.437-.937.426-.405 1.001-.405.597 0 1.012.415.415.405.394.98a1.27 1.27 0 0 1-.436.938 1.43 1.43 0 0 1-1.002.394M94.566 72h-2.088l11.559-21.818h2.131L110.482 72h-2.088l-3.633-19.23h-.138zm2.898-8.363h10.824l-.299 1.79H97.165zM222.534 72l3.622-21.818h7.362q2.13 0 3.43.746 1.3.745 1.79 2.034.501 1.29.213 2.93-.224 1.364-.842 2.333a5.5 5.5 0 0 1-1.502 1.566 6 6 0 0 1-1.885.863l-.032.17q1.043.075 1.928.746.884.66 1.321 1.854.448 1.193.181 2.855a6.8 6.8 0 0 1-1.236 2.951q-.948 1.29-2.599 2.035-1.64.735-3.985.735zm2.291-1.79h5.774q2.525 0 3.92-1.118 1.396-1.12 1.694-2.813.203-1.246-.234-2.258a3.43 3.43 0 0 0-1.428-1.62q-.99-.596-2.461-.596h-5.859zm1.704-10.174h5.551q1.288 0 2.343-.532a4.9 4.9 0 0 0 1.747-1.47 4.8 4.8 0 0 0 .885-2.142q.298-1.737-.65-2.823-.937-1.098-3.186-1.097h-5.369z"/><path stroke="url(#b)" stroke-width="4" d="M231 25c12.017 0 23.222 7.988 31.527 21.595C270.811 60.167 276 79.043 276 100s-5.189 39.833-13.473 53.405C254.222 167.012 243.017 175 231 175s-23.222-7.988-31.527-21.595C191.189 139.833 186 120.957 186 100s5.189-39.833 13.473-53.405C207.778 32.988 218.983 25 231 25Z"/><path fill="#f0ff20" d="M156.188 163.818h2.761l5.727 22.807h.243l13.257-22.807h2.762L176.591 190h-2.25l3.528-21.132h-.204L165.303 190h-2.174l-5.305-21.132h-.205L154.091 190h-2.25z"/><defs><linearGradient id="a" x1="103" x2="103" y1="23" y2="177" gradientUnits="userSpaceOnUse"><stop stop-color="#df9046"/><stop offset="1" stop-color="#794e26"/></linearGradient><linearGradient id="b" x1="231" x2="231" y1="23" y2="177" gradientUnits="userSpaceOnUse"><stop stop-color="#c9440b"/><stop offset="1" stop-color="#794e26"/></linearGradient></defs></svg>