<svg xmlns="http://www.w3.org/2000/svg" width="300" height="200" fill="none" viewBox="0 0 300 200"><path fill="#000" d="M0 0h300v200H0z"/><path fill="#fff" d="m210 49-15-8.66v17.32zM88 49v1.5h108.5v-3H88zM210 86l-15-8.66v17.32zM88 86v1.5h108.5v-3H88zM211 123l-15-8.66v17.32zm-122 0v1.5h108.5v-3H89zM211 160l-15-8.66v17.32zm-122 0v1.5h108.5v-3H89zM43.84 105l4.347-26.182h8.834q2.557 0 4.117.895t2.148 2.442q.6 1.547.255 3.516-.268 1.636-1.01 2.8a6.55 6.55 0 0 1-1.802 1.878 7.3 7.3 0 0 1-2.263 1.036l-.038.204q1.252.09 2.314.895 1.06.793 1.585 2.225.537 1.431.217 3.426a8.15 8.15 0 0 1-1.483 3.541q-1.137 1.547-3.12 2.442-1.968.882-4.78.882zm2.75-2.148h6.929q3.03 0 4.704-1.342 1.675-1.342 2.033-3.375.243-1.495-.282-2.71-.523-1.228-1.713-1.944-1.189-.715-2.953-.715h-7.031zm2.045-12.208h6.66q1.548 0 2.813-.64a5.84 5.84 0 0 0 2.097-1.764 5.8 5.8 0 0 0 1.06-2.57q.36-2.083-.78-3.387-1.124-1.317-3.822-1.317H50.22z"/></svg>