<svg xmlns="http://www.w3.org/2000/svg" width="300" height="200" fill="none" viewBox="0 0 300 200"><path fill="#000" d="M0 0h300v200H0z"/><path fill="#fff" d="M104.604 99.781c-.098-4.526-.763-8.673-1.814-12.062-1.051 3.389-1.717 7.536-1.814 12.062l-.012 1.161c0 2.155.306 4.063.771 5.397.235.671.491 1.144.726 1.429.115.139.207.21.266.245a.2.2 0 0 0 .053.025l.008.002h.004l.008-.002a.2.2 0 0 0 .054-.025c.059-.035.151-.107.265-.245.235-.285.491-.758.726-1.429.465-1.334.771-3.242.771-5.397zM47.518 87.72c-1.14 3.676-1.827 8.246-1.827 13.222 0 2.155.307 4.063.773 5.397.234.671.49 1.143.726 1.428.114.139.206.211.264.246a.2.2 0 0 0 .055.025l.008.001v.001l.002-.001.008-.001a.2.2 0 0 0 .055-.025 1.1 1.1 0 0 0 .265-.246c.234-.285.49-.757.725-1.428.466-1.334.773-3.242.773-5.397 0-4.976-.687-9.546-1.827-13.222m13.818-.001c-1.05 3.389-1.716 7.536-1.813 12.062l-.013 1.161c0 2.155.306 4.063.771 5.397.235.671.491 1.144.726 1.429.115.139.207.21.266.245a.2.2 0 0 0 .053.025l.008.002h.004l.008-.002a.2.2 0 0 0 .054-.025c.059-.035.15-.107.265-.245.235-.285.491-.758.726-1.429.465-1.334.771-3.242.771-5.397l-.012-1.16c-.097-4.527-.764-8.674-1.814-12.063m13.818 0c-1.05 3.389-1.717 7.536-1.814 12.062l-.013 1.161c0 2.155.306 4.063.772 5.397.234.671.49 1.144.725 1.429.115.139.207.21.266.245a.2.2 0 0 0 .054.025l.007.002h.004l.008-.002a.2.2 0 0 0 .055-.025c.058-.035.15-.107.264-.245.235-.285.492-.758.726-1.429.466-1.334.772-3.242.772-5.397 0-4.976-.686-9.546-1.826-13.223m13.818 0c-1.051 3.389-1.716 7.537-1.814 12.062l-.013 1.161c0 2.155.306 4.063.772 5.397.234.671.49 1.144.726 1.429.114.139.207.21.265.245a.2.2 0 0 0 .054.025l.008.002h.004l.007-.002a.2.2 0 0 0 .055-.025c.059-.035.15-.107.265-.245.235-.285.491-.758.725-1.429.466-1.334.772-3.242.772-5.397l-.012-1.16c-.097-4.527-.764-8.674-1.814-12.063m17.64 13.655c-.037 2.151-.356 4.127-.879 5.624-.277.794-.63 1.507-1.071 2.042-.436.528-1.064 1-1.872 1s-1.435-.472-1.871-1c-.441-.535-.794-1.248-1.071-2.042-.523-1.497-.842-3.473-.88-5.624l-.004-.432c0-6.206 1.03-11.89 2.741-16.145-.818-1.851-1.751-3.3-2.74-4.286C97.925 79.474 96.883 79 95.88 79s-2.043.474-3.083 1.51c-.989.986-1.923 2.436-2.741 4.288 1.71 4.256 2.74 9.938 2.74 16.144l-.003.432c-.038 2.151-.356 4.127-.879 5.624-.277.794-.63 1.507-1.071 2.042-.436.528-1.064 1-1.872 1s-1.435-.472-1.871-1c-.442-.535-.795-1.248-1.072-2.042-.522-1.497-.842-3.473-.88-5.624l-.004-.432c0-6.207 1.031-11.89 2.742-16.146-.818-1.85-1.752-3.3-2.74-4.285C84.107 79.474 83.065 79 82.062 79c-1.002 0-2.043.475-3.082 1.51-.99.986-1.924 2.436-2.742 4.287 1.71 4.256 2.743 9.939 2.743 16.145h-.001c0 2.318-.326 4.459-.883 6.056-.277.793-.63 1.507-1.072 2.042-.436.528-1.064 1-1.872 1s-1.435-.472-1.87-1c-.442-.535-.795-1.248-1.072-2.042-.523-1.497-.842-3.473-.88-5.624l-.004-.432c0-6.207 1.03-11.89 2.741-16.146-.818-1.85-1.75-3.3-2.739-4.285C70.29 79.474 69.248 79 68.245 79c-1.002 0-2.043.475-3.083 1.51-.989.986-1.923 2.436-2.741 4.288 1.71 4.256 2.741 9.938 2.741 16.144l-.004.432c-.038 2.151-.356 4.127-.879 5.624-.277.794-.63 1.507-1.071 2.042-.436.528-1.064 1-1.872 1s-1.435-.472-1.871-1c-.441-.535-.794-1.248-1.071-2.042-.523-1.497-.843-3.473-.88-5.624l-.004-.432c0-6.207 1.03-11.89 2.741-16.146-.818-1.85-1.752-3.3-2.74-4.285C56.47 79.474 55.429 79 54.427 79s-2.044.475-3.083 1.51c-.99.986-1.923 2.436-2.742 4.288 1.71 4.256 2.743 9.938 2.743 16.144 0 2.318-.327 4.459-.884 6.056-.277.794-.63 1.507-1.071 2.042-.436.528-1.064 1-1.872 1-.809 0-1.436-.472-1.871-1-.442-.535-.795-1.248-1.072-2.042-.557-1.597-.884-3.738-.884-6.056 0-6.206 1.031-11.89 2.742-16.145-.819-1.851-1.752-3.3-2.74-4.286-1.04-1.037-2.081-1.51-3.084-1.511-1.002 0-2.044.474-3.084 1.51-1.044 1.041-2.03 2.598-2.88 4.6-1.697 4.001-2.771 9.598-2.771 15.832v1H14v-2h15.885c.108-6.043 1.189-11.534 2.92-15.613.912-2.15 2.023-3.953 3.308-5.234C37.403 77.81 38.923 77 40.61 77s3.206.81 4.496 2.095c.89.888 1.697 2.028 2.413 3.36.715-1.332 1.523-2.472 2.414-3.36C51.22 77.81 52.74 77 54.427 77s3.206.81 4.495 2.095c.89.888 1.698 2.027 2.414 3.358.715-1.331 1.523-2.47 2.414-3.358C65.04 77.81 66.56 77 68.245 77s3.206.81 4.495 2.095c.891.888 1.698 2.027 2.413 3.358.716-1.331 1.523-2.47 2.414-3.358C78.857 77.81 80.377 77 82.063 77c1.685 0 3.205.81 4.495 2.095.89.888 1.698 2.027 2.414 3.358.715-1.331 1.523-2.47 2.414-3.358C92.676 77.81 94.195 77 95.88 77s3.206.81 4.495 2.095c.891.888 1.698 2.027 2.413 3.358.716-1.331 1.524-2.47 2.415-3.358 1.289-1.285 2.809-2.095 4.495-2.095s3.206.81 4.495 2.095c1.286 1.28 2.398 3.085 3.31 5.234 1.731 4.079 2.812 9.57 2.92 15.613H138v2h-19.565v-1c0-6.234-1.074-11.83-2.772-15.832-.85-2.002-1.836-3.559-2.88-4.6-1.04-1.036-2.081-1.51-3.084-1.51-1.002 0-2.043.475-3.083 1.51-.988.986-1.923 2.436-2.741 4.287 1.711 4.256 2.741 9.939 2.741 16.145zM249.604 99.781c-.098-4.526-.763-8.673-1.814-12.062-1.051 3.389-1.717 7.536-1.814 12.062l-.012 1.161c0 2.155.306 4.063.771 5.397.235.671.491 1.144.726 1.429.115.139.207.21.266.245a.2.2 0 0 0 .053.025l.008.002h.004l.008-.002a.2.2 0 0 0 .054-.025c.059-.035.151-.107.265-.245.235-.285.491-.758.726-1.429.465-1.334.771-3.242.771-5.397zM192.518 87.72c-1.14 3.676-1.827 8.246-1.827 13.222 0 2.155.307 4.063.773 5.397.234.671.491 1.143.725 1.428.115.139.207.211.265.246a.2.2 0 0 0 .055.025l.008.001.001.001.002-.001.007-.001a.2.2 0 0 0 .055-.025 1.1 1.1 0 0 0 .265-.246c.235-.285.491-.757.725-1.428.466-1.334.773-3.242.773-5.397 0-4.976-.688-9.546-1.827-13.222m13.818-.001c-1.051 3.389-1.716 7.536-1.814 12.062l-.012 1.161c0 2.155.306 4.063.771 5.397.235.671.491 1.144.726 1.429.115.139.207.21.265.245a.3.3 0 0 0 .054.025l.008.002h.004l.008-.002a.2.2 0 0 0 .054-.025 1.1 1.1 0 0 0 .265-.245c.235-.285.491-.758.726-1.429.465-1.334.771-3.242.771-5.397l-.012-1.16c-.097-4.527-.764-8.674-1.814-12.063m13.818 0c-1.05 3.389-1.717 7.536-1.814 12.062l-.013 1.161c0 2.155.306 4.063.772 5.397.234.671.49 1.144.725 1.429.115.139.207.21.266.245a.2.2 0 0 0 .061.027h.004l.008-.002a.3.3 0 0 0 .055-.025c.058-.035.15-.107.264-.245.235-.285.492-.758.726-1.429.466-1.334.771-3.242.771-5.397h.001c0-4.976-.686-9.546-1.826-13.223m13.818 0c-1.051 3.389-1.716 7.537-1.814 12.062l-.012 1.161c0 2.155.305 4.063.771 5.397.234.671.491 1.144.726 1.429.114.139.207.21.265.245a.2.2 0 0 0 .054.025l.008.002h.004l.007-.002a.2.2 0 0 0 .055-.025 1.1 1.1 0 0 0 .265-.245c.235-.285.491-.758.725-1.429.466-1.334.772-3.242.772-5.397l-.012-1.16c-.097-4.527-.764-8.674-1.814-12.063m17.64 13.655c-.037 2.151-.356 4.127-.879 5.624-.277.794-.63 1.507-1.071 2.042-.436.528-1.064 1-1.872 1s-1.435-.472-1.871-1c-.441-.535-.794-1.248-1.071-2.042-.523-1.497-.842-3.473-.88-5.624l-.004-.432c0-6.206 1.031-11.89 2.741-16.145-.818-1.851-1.752-3.3-2.74-4.286-1.04-1.037-2.082-1.511-3.084-1.511s-2.043.474-3.083 1.51c-.989.986-1.923 2.436-2.741 4.288 1.71 4.256 2.741 9.938 2.741 16.144l-.004.432c-.038 2.151-.356 4.127-.879 5.624-.277.794-.63 1.507-1.071 2.042-.436.528-1.064 1-1.872 1s-1.436-.472-1.871-1c-.442-.535-.795-1.248-1.072-2.042-.522-1.497-.842-3.473-.88-5.624l-.003-.432c0-6.207 1.03-11.89 2.741-16.146-.818-1.85-1.752-3.3-2.741-4.285-1.039-1.037-2.081-1.511-3.084-1.511-1.002 0-2.043.475-3.083 1.51-.988.986-1.923 2.436-2.741 4.287 1.711 4.256 2.742 9.939 2.742 16.145h-.001c0 2.318-.325 4.459-.882 6.056-.277.793-.63 1.507-1.072 2.042-.436.528-1.064 1-1.872 1s-1.435-.472-1.871-1c-.441-.535-.794-1.248-1.071-2.042-.523-1.497-.842-3.473-.88-5.624l-.004-.432c0-6.207 1.031-11.89 2.741-16.146-.818-1.85-1.75-3.3-2.739-4.285-1.04-1.037-2.081-1.51-3.084-1.511-1.002 0-2.043.475-3.083 1.51-.989.986-1.923 2.436-2.741 4.288 1.71 4.256 2.741 9.938 2.741 16.144l-.004.432c-.038 2.151-.356 4.127-.879 5.624-.277.794-.63 1.507-1.071 2.042-.436.528-1.064 1-1.872 1s-1.435-.472-1.871-1c-.441-.535-.794-1.248-1.071-2.042-.523-1.497-.842-3.473-.88-5.624l-.004-.432c0-6.207 1.03-11.89 2.741-16.146-.818-1.85-1.752-3.3-2.74-4.285-1.04-1.037-2.082-1.511-3.084-1.511s-2.043.475-3.083 1.51c-.989.986-1.923 2.436-2.741 4.288 1.71 4.256 2.742 9.938 2.742 16.144 0 2.318-.327 4.459-.884 6.056-.277.794-.63 1.507-1.071 2.042-.436.528-1.064 1-1.872 1s-1.436-.472-1.872-1c-.441-.535-.794-1.248-1.071-2.042-.557-1.597-.884-3.738-.884-6.056 0-6.206 1.031-11.89 2.742-16.145-.818-1.851-1.752-3.3-2.741-4.286-1.039-1.037-2.08-1.51-3.083-1.511-1.002 0-2.044.474-3.084 1.51-1.044 1.041-2.03 2.598-2.879 4.6-1.698 4.001-2.772 9.598-2.772 15.832v1H159v-2h15.885c.108-6.043 1.189-11.534 2.92-15.613.912-2.15 2.023-3.953 3.308-5.234 1.29-1.285 2.81-2.095 4.496-2.095s3.206.81 4.495 2.095c.892.888 1.698 2.028 2.414 3.36.715-1.332 1.523-2.472 2.414-3.36 1.289-1.285 2.809-2.095 4.495-2.095s3.206.81 4.495 2.095c.891.888 1.698 2.027 2.414 3.358.715-1.331 1.523-2.47 2.414-3.358 1.289-1.285 2.809-2.095 4.495-2.095s3.206.81 4.495 2.095c.891.888 1.698 2.027 2.413 3.358.716-1.331 1.523-2.47 2.414-3.358 1.29-1.285 2.81-2.095 4.495-2.095s3.206.81 4.496 2.095c.891.888 1.698 2.027 2.414 3.358.715-1.331 1.523-2.47 2.414-3.358 1.289-1.285 2.809-2.095 4.495-2.095s3.206.81 4.495 2.095c.891.888 1.698 2.027 2.413 3.358.716-1.331 1.524-2.47 2.415-3.358 1.289-1.285 2.809-2.095 4.495-2.095s3.206.81 4.495 2.095c1.286 1.28 2.398 3.085 3.31 5.234 1.731 4.079 2.812 9.57 2.92 15.613H283v2h-19.565v-1c0-6.234-1.074-11.83-2.772-15.832-.85-2.002-1.836-3.559-2.88-4.6-1.04-1.036-2.081-1.51-3.084-1.51-1.002 0-2.043.475-3.083 1.51-.988.986-1.923 2.436-2.741 4.287 1.711 4.256 2.741 9.939 2.741 16.145zM61.84 54l4.347-26.182h2.391L64.59 51.852h12.478L76.709 54zm21.568 4.5 2.25-13.551h-.128l-4.36 2.595.371-2.122 4.372-2.62h2.148L85.453 58.5zM208.841 54l4.347-26.182h2.39l-3.989 24.034h12.478L223.709 54zm17.936 4.5.23-1.534 6.801-5.51q1.215-.972 1.982-1.7.78-.73 1.189-1.355a3.4 3.4 0 0 0 .511-1.343q.204-1.227-.614-1.994-.805-.767-2.25-.767-1.47 0-2.582.83-1.1.832-1.304 2.123h-2.071q.333-2.007 2.033-3.324 1.713-1.33 4.116-1.33 1.599 0 2.698.601 1.112.602 1.61 1.637.5 1.023.294 2.3a5.1 5.1 0 0 1-.652 1.79q-.485.832-1.482 1.803-.998.96-2.66 2.289l-4.512 3.643v.09h8.348l-.282 1.751z"/><path fill="#f0ff20" d="M135.188 138.818h2.761l5.727 22.807h.243l13.257-22.807h2.762L155.591 165h-2.25l3.528-21.132h-.204L144.303 165h-2.174l-5.305-21.132h-.205L133.091 165h-2.25z"/><path stroke="#fff" stroke-width="2" d="M137 101h24"/><path fill="#f97e7e" d="m142 94-5-2.887v5.774zM10 94v.5h127.5v-1H10zM142 79.5l-5.597-1.418 1.571 5.556zm-132 0-.16.473.017.007.249.08q.262.085.782.241c.694.207 1.732.502 3.113.855 2.763.707 6.901 1.647 12.415 2.587C37.443 85.623 53.971 87.5 76 87.5v-1c-21.971 0-38.443-1.873-49.416-3.743-5.486-.935-9.598-1.87-12.335-2.57a81 81 0 0 1-3.075-.844 42 42 0 0 1-.999-.312l-.01-.003-.003-.001zM76 87v.5c32.774 0 53.372-4.156 61.794-6.292l-.123-.484-.123-.485C129.204 82.355 108.689 86.5 76 86.5zM142 109l-5.597 1.418 1.571-5.556zm-132 0-.16-.473v-.001l.004-.001.013-.004.05-.017q.067-.023.199-.064.262-.085.782-.241a82 82 0 0 1 3.113-.855c2.763-.707 6.901-1.647 12.415-2.587C37.443 102.877 53.971 101 76 101v1c-21.971 0-38.443 1.873-49.416 3.743-5.486.935-9.598 1.87-12.335 2.57a80 80 0 0 0-3.075.844q-.51.153-.764.235l-.189.061-.046.016-.01.003-.003.001zm66-7.5v-.5c32.774 0 53.372 4.156 61.794 6.292l-.123.484-.123.485C129.204 106.145 108.689 102 76 102zM142 60.5l-5.724.757 3.517 4.578zm-132 0-.336.37.001.002.004.003.014.012a9 9 0 0 0 .25.218c.177.15.439.369.787.646a53 53 0 0 0 3.123 2.287c2.772 1.89 6.922 4.404 12.45 6.917C37.352 75.982 53.922 81 76 81v-1c-21.922 0-38.352-4.982-49.293-9.955-5.472-2.487-9.572-4.973-12.3-6.833a52 52 0 0 1-3.065-2.244 30 30 0 0 1-.947-.786l-.045-.04-.011-.01-.002-.002zm66 20v.5c33.89 0 54.798-11.823 62.716-17.348l-.286-.41-.286-.41C130.356 68.265 109.644 80 76 80zM142 128.5l-5.724-.757 3.517-4.578zm-132 0-.336-.371.001-.001.004-.003.014-.012.051-.046q.067-.059.2-.172c.176-.15.438-.369.786-.646a53 53 0 0 1 3.123-2.287c2.772-1.89 6.922-4.404 12.45-6.917C37.352 113.018 53.922 108 76 108v1c-21.922 0-38.352 4.982-49.293 9.955-5.472 2.487-9.572 4.973-12.3 6.833a52 52 0 0 0-3.065 2.244c-.339.27-.592.481-.76.624q-.126.107-.187.162l-.045.04-.011.01-.002.002zm66-20v-.5c33.89 0 54.798 11.823 62.716 17.348l-.286.41-.286.41C130.356 120.735 109.644 109 76 109zM159 95.5l5-2.887v5.774zm132 0v.5H163.5v-1H291zM159 81l5.597-1.418-1.571 5.556zm132 0 .161.473h-.001l-.004.002-.013.005-.051.016-.198.065q-.262.084-.782.24c-.694.207-1.732.502-3.113.855-2.763.707-6.901 1.647-12.415 2.587C263.557 87.123 247.029 89 225 89v-1c21.971 0 38.443-1.873 49.416-3.743 5.486-.935 9.598-1.87 12.335-2.57a81 81 0 0 0 3.075-.844q.51-.153.764-.235l.189-.061.046-.016.011-.003.002-.001h.001zm-66 7.5v.5c-32.774 0-53.372-4.156-61.794-6.292l.123-.484.123-.485C171.796 83.855 192.311 88 225 88zM159 110.5l5.597 1.418-1.571-5.556zm132 0 .161-.473-.001-.001-.004-.001-.013-.004-.051-.017-.198-.064a38 38 0 0 0-.782-.241 82 82 0 0 0-3.113-.855c-2.763-.707-6.901-1.647-12.415-2.587-11.027-1.88-27.555-3.757-49.584-3.757v1c21.971 0 38.443 1.873 49.416 3.743 5.486.935 9.598 1.87 12.335 2.57a80 80 0 0 1 3.075.844q.51.153.764.235l.189.061.046.016.011.003.002.001h.001zm-66-7.5v-.5c-32.774 0-53.372 4.156-61.794 6.292l.123.484.123.485c8.344-2.116 28.859-6.261 61.548-6.261zM159 62l5.724.757-3.517 4.578zm132 0 .336.37-.001.002-.004.003-.014.012-.051.046-.199.172c-.177.15-.439.369-.787.646a53 53 0 0 1-3.123 2.287c-2.772 1.89-6.922 4.404-12.45 6.917C263.648 77.482 247.078 82.5 225 82.5v-1c21.922 0 38.352-4.982 49.293-9.955 5.472-2.487 9.572-4.973 12.3-6.833a52 52 0 0 0 3.064-2.244 29 29 0 0 0 .993-.826l.011-.01.002-.002h.001zm-66 20v.5c-33.89 0-54.798-11.823-62.716-17.348l.286-.41.286-.41C170.644 69.765 191.356 81.5 225 81.5zM159 130l5.724-.757-3.517-4.578zm132 0 .336-.371-.001-.001-.004-.003-.014-.012-.051-.046-.199-.172c-.177-.15-.439-.369-.787-.646a54 54 0 0 0-3.123-2.287c-2.772-1.89-6.922-4.404-12.45-6.917C263.648 114.518 247.078 109.5 225 109.5v1c21.922 0 38.352 4.982 49.293 9.955 5.472 2.487 9.572 4.973 12.3 6.833a51 51 0 0 1 3.064 2.244c.34.27.593.481.761.624q.126.107.187.162l.045.04.011.01.002.002h.001zm-66-20v-.5c-33.89 0-54.798 11.823-62.716 17.348l.286.41.286.41c7.788-5.433 28.5-17.168 62.144-17.168z"/></svg>