<svg xmlns="http://www.w3.org/2000/svg" width="300" height="200" fill="none" viewBox="0 0 300 200"><path fill="#000" d="M0 0h300v200H0z"/><path fill="#fff" d="m63.16 43-4.95-7.71L53.29 43h-.66l5.22-8.25-5.13-7.95h.69l4.86 7.53 4.83-7.53h.63l-5.13 8.07L63.85 43zM64.16 110l-4.95-7.71-4.92 7.71h-.66l5.22-8.25-5.13-7.95h.69l4.86 7.53 4.83-7.53h.63l-5.13 8.07 5.25 8.13zM63.16 177l-4.95-7.71-4.92 7.71h-.66l5.22-8.25-5.13-7.95h.69l4.86 7.53 4.83-7.53h.63l-5.13 8.07 5.25 8.13zM150.16 44l-4.95-7.71-4.92 7.71h-.66l5.22-8.25-5.13-7.95h.69l4.86 7.53 4.83-7.53h.63l-5.13 8.07 5.25 8.13zM152.16 177l-4.95-7.71-4.92 7.71h-.66l5.22-8.25-5.13-7.95h.69l4.86 7.53 4.83-7.53h.63l-5.13 8.07 5.25 8.13zM245.16 44l-4.95-7.71-4.92 7.71h-.66l5.22-8.25-5.13-7.95h.69l4.86 7.53 4.83-7.53h.63l-5.13 8.07 5.25 8.13zM245.16 110l-4.95-7.71-4.92 7.71h-.66l5.22-8.25-5.13-7.95h.69l4.86 7.53 4.83-7.53h.63l-5.13 8.07 5.25 8.13zM246.16 177l-4.95-7.71-4.92 7.71h-.66l5.22-8.25-5.13-7.95h.69l4.86 7.53 4.83-7.53h.63l-5.13 8.07 5.25 8.13zM178.21 115.56 173.08 132h-2.82l-3.96-13.05-3.96 13.05h-2.82l-5.16-16.44h2.79l3.78 13.8 4.08-13.8h2.79l3.99 13.83 3.72-13.83zM201.04 37.8V60h-2.73V37.8zM35.78 27.23q1.14.18 2.07.93.96.75 1.5 1.86.57 1.11.57 2.37 0 1.59-.81 2.88-.81 1.26-2.37 2.01-1.53.72-3.63.72h-7.8V17.09h7.5q2.13 0 3.63.72 1.5.69 2.25 1.89t.75 2.7q0 1.86-1.02 3.09-.99 1.2-2.64 1.74m-7.74-1.11h4.59q1.92 0 2.97-.9t1.05-2.49-1.05-2.49-3.03-.9h-4.53zm4.83 9.63q2.04 0 3.18-.96t1.14-2.67q0-1.74-1.2-2.73-1.2-1.02-3.21-1.02h-4.74v7.38z"/><path stroke="url(#a)" stroke-linecap="round" stroke-width="9" d="m279 50-140 50"/><path stroke="url(#b)" stroke-linecap="round" stroke-width="9" d="M10 146.845 149.695 96"/><path fill="#fff" d="m271.789 40-5.68-1.037 1.942 5.437zM139 87.415l5.68 1.037-1.942-5.437zm128.551-45.902-.168-.47L143.07 85.43l.168.471.168.471 124.313-44.388zM62.04 85.8V108h-2.73V85.8zM132.789 88l-5.68-1.037 1.942 5.437zM0 135.415l5.68 1.037-1.942-5.437zm128.551-45.902-.168-.47L4.07 133.43l.168.471.168.471L128.72 89.984z"/><path fill="#f9f9f9" d="m140 127.168 11.246-1.17-7.112-9.51zm6.922-5.333.675.774c7.911-7.226 10.163-14.382 9.461-20.547-.695-6.108-4.266-11.016-7.59-13.832l-.602.77-.602.77c3.02 2.559 6.219 6.996 6.837 12.425.612 5.373-1.28 11.947-8.854 18.866z"/><circle cx="140" cy="100" r="2" fill="#fff"/><defs><linearGradient id="a" x1="277.318" x2="137.318" y1="45.291" y2="95.291" gradientUnits="userSpaceOnUse"><stop stop-color="#df9046"/><stop offset="1" stop-color="#794e26"/></linearGradient><linearGradient id="b" x1="11.71" x2="151.405" y1="151.543" y2="100.698" gradientUnits="userSpaceOnUse"><stop stop-color="#df9046"/><stop offset="1" stop-color="#794e26"/></linearGradient></defs></svg>