<svg width="300" height="200" viewBox="0 0 300 200" fill="none" xmlns="http://www.w3.org/2000/svg">
<g clip-path="url(#clip0_371_646)">
<rect width="300" height="200" fill="black"/>
<rect x="1" y="1" width="298" height="78" fill="url(#paint0_linear_371_646)" stroke="#00D1F6" stroke-width="2"/>
<rect opacity="0.72" x="1" y="134" width="298" height="65" fill="url(#paint1_linear_371_646)" stroke="#4C33DB" stroke-width="2"/>
<circle cx="125" cy="164" r="27" fill="black" fill-opacity="0.61" stroke="#F1FF2B" stroke-width="2" stroke-dasharray="5 5"/>
<path d="M117 133L122.001 116.417L105.139 120.378L117 133ZM94 35.0833L92.5397 35.4263L112.453 120.201L113.913 119.858L115.373 119.515L95.4603 34.7403L94 35.0833Z" fill="white"/>
<circle cx="94.0417" cy="35.0417" r="27.0417" fill="url(#paint2_linear_371_646)"/>
<path d="M99.66 39.5553C98.82 41.0193 97.764 42.0393 96.492 42.6153C95.22 43.1673 93.96 43.4433 92.712 43.4433C91.056 43.4433 89.676 43.0473 88.572 42.2553C87.492 41.4633 86.736 40.3593 86.304 38.9433C85.896 37.5033 85.86 35.8353 86.196 33.9393L86.34 33.1473C86.628 31.5153 87.18 30.0873 87.996 28.8633C88.836 27.6153 89.88 26.6433 91.128 25.9473C92.4 25.2513 93.828 24.9033 95.412 24.9033C96.636 24.9033 97.668 25.1073 98.508 25.5153C99.348 25.9233 99.984 26.4633 100.416 27.1353C100.848 27.7833 101.064 28.4793 101.064 29.2233C101.064 30.4233 100.632 31.4553 99.768 32.3193C98.928 33.1833 97.752 33.8673 96.24 34.3713C94.752 34.8513 93.024 35.1633 91.056 35.3073L89.184 35.4513C88.872 37.7313 89.028 39.4473 89.652 40.5993C90.3 41.7273 91.356 42.2913 92.82 42.2913C93.396 42.2913 94.02 42.1833 94.692 41.9673C95.364 41.7513 96 41.3793 96.6 40.8513C97.2 40.3233 97.656 39.5913 97.968 38.6553L99.66 39.5553ZM89.616 32.6793L89.364 34.2993L91.02 34.1913C92.988 34.0713 94.5 33.7473 95.556 33.2193C96.612 32.6913 97.344 32.0553 97.752 31.3113C98.16 30.5673 98.364 29.8233 98.364 29.0793C98.364 28.1433 98.088 27.4113 97.536 26.8833C97.008 26.3313 96.264 26.0553 95.304 26.0553C94.032 26.0553 92.868 26.5833 91.812 27.6393C90.756 28.6713 90.024 30.3513 89.616 32.6793Z" fill="white"/>
<circle cx="220" cy="90" r="31" fill="url(#paint3_linear_371_646)"/>
<line x1="184.116" y1="99.9919" x2="144.992" y2="108.884" stroke="url(#paint4_linear_371_646)" stroke-width="5" stroke-linecap="round"/>
<line x1="190.696" y1="114.286" x2="151.286" y2="131.304" stroke="url(#paint5_linear_371_646)" stroke-width="5" stroke-linecap="round"/>
<line x1="183.598" y1="84.5942" x2="136.594" y2="86.4021" stroke="url(#paint6_linear_371_646)" stroke-width="5" stroke-linecap="round"/>
<path d="M23.504 43.32C21.7333 43.32 20.2827 42.8933 19.152 42.04C18.0427 41.1653 17.2853 39.9493 16.88 38.392C16.4747 36.8133 16.432 34.9893 16.752 32.92L17.104 30.776C17.5947 27.7253 18.6507 25.3253 20.272 23.576C21.9147 21.8053 24.016 20.92 26.576 20.92C28.1547 20.92 29.4347 21.2507 30.416 21.912C31.3973 22.552 32.0587 23.384 32.4 24.408C32.7413 25.432 32.7307 26.5093 32.368 27.64L29.488 28.312C30.064 26.264 30.096 24.696 29.584 23.608C29.072 22.4987 28.0587 21.944 26.544 21.944C25.0293 21.944 23.7387 22.5093 22.672 23.64C21.6053 24.7707 20.8587 26.616 20.432 29.176L19.536 34.52C19.088 37.2293 19.2053 39.2027 19.888 40.44C20.5707 41.6773 21.808 42.296 23.6 42.296C24.624 42.296 25.5947 41.9867 26.512 41.368C27.4293 40.7493 28.1227 39.6293 28.592 38.008L30.576 38.68C29.808 40.3653 28.7947 41.56 27.536 42.264C26.2987 42.968 24.9547 43.32 23.504 43.32ZM36.558 22.104L36.718 21.24H45.294C46.6807 21.24 47.8007 21.4853 48.654 21.976C49.5287 22.4453 50.1367 23.0853 50.478 23.896C50.8407 24.6853 50.9367 25.5707 50.766 26.552L50.638 27.448C50.446 28.5573 49.9767 29.496 49.23 30.264C48.4833 31.0107 47.4807 31.5333 46.222 31.832C47.6087 32.1307 48.622 32.7387 49.262 33.656C49.902 34.5733 50.1153 35.6827 49.902 36.984L49.742 37.848C49.5073 39.4053 48.7713 40.6533 47.534 41.592C46.318 42.5307 44.6647 43 42.574 43H32.878L33.038 42.168L34.83 41.976C35.1927 41.9333 35.4167 41.848 35.502 41.72C35.5873 41.5707 35.694 41.1333 35.822 40.408L38.734 23.832C38.862 23.0853 38.9047 22.648 38.862 22.52C38.8193 22.392 38.638 22.3067 38.318 22.264L36.558 22.104ZM45.262 22.264H41.774L40.174 31.416H43.63C45.8487 31.416 47.182 30.1787 47.63 27.704L47.854 26.392C48.11 25.048 48.014 24.024 47.566 23.32C47.118 22.616 46.35 22.264 45.262 22.264ZM44.27 32.44H39.982L38.318 41.976H42.574C44.878 41.976 46.2753 40.6533 46.766 38.008L46.99 36.696C47.246 35.3307 47.1393 34.2853 46.67 33.56C46.2007 32.8133 45.4007 32.44 44.27 32.44Z" fill="black"/>
<path d="M33.2 165.64L23.6 185H21.424L18.64 165.64C18.5547 165 18.4693 164.627 18.384 164.52C18.32 164.392 18.128 164.307 17.808 164.264L16.176 164.104L16.336 163.24H23.792L23.632 164.104L21.968 164.264C21.6267 164.307 21.424 164.392 21.36 164.52C21.3173 164.648 21.3387 165.021 21.424 165.64L23.792 182.152L31.952 165.64C32.272 165.021 32.4213 164.648 32.4 164.52C32.4 164.392 32.2293 164.307 31.888 164.264L30.256 164.104L30.416 163.24H36.336L36.176 164.104L34.512 164.264C34.2987 164.285 34.128 164.328 34 164.392C33.8933 164.435 33.7867 164.552 33.68 164.744C33.5733 164.915 33.4133 165.213 33.2 165.64ZM37.6518 164.104L37.8118 163.24H46.3878C47.7744 163.24 48.8944 163.485 49.7478 163.976C50.6224 164.445 51.2304 165.085 51.5718 165.896C51.9344 166.685 52.0304 167.571 51.8598 168.552L51.7318 169.448C51.5398 170.557 51.0704 171.496 50.3238 172.264C49.5771 173.011 48.5744 173.533 47.3158 173.832C48.7024 174.131 49.7158 174.739 50.3558 175.656C50.9958 176.573 51.2091 177.683 50.9958 178.984L50.8358 179.848C50.6011 181.405 49.8651 182.653 48.6278 183.592C47.4118 184.531 45.7584 185 43.6678 185H33.9718L34.1318 184.168L35.9238 183.976C36.2864 183.933 36.5104 183.848 36.5958 183.72C36.6811 183.571 36.7878 183.133 36.9158 182.408L39.8278 165.832C39.9558 165.085 39.9984 164.648 39.9558 164.52C39.9131 164.392 39.7318 164.307 39.4118 164.264L37.6518 164.104ZM46.3558 164.264H42.8678L41.2678 173.416H44.7238C46.9424 173.416 48.2758 172.179 48.7238 169.704L48.9478 168.392C49.2038 167.048 49.1078 166.024 48.6598 165.32C48.2118 164.616 47.4438 164.264 46.3558 164.264ZM45.3638 174.44H41.0758L39.4118 183.976H43.6678C45.9718 183.976 47.3691 182.653 47.8598 180.008L48.0838 178.696C48.3398 177.331 48.2331 176.285 47.7638 175.56C47.2944 174.813 46.4944 174.44 45.3638 174.44Z" fill="white"/>
</g>
<defs>
<linearGradient id="paint0_linear_371_646" x1="150" y1="0" x2="150" y2="80" gradientUnits="userSpaceOnUse">
<stop stop-color="#A3F1FF"/>
<stop offset="1" stop-color="#7CB9C4"/>
</linearGradient>
<linearGradient id="paint1_linear_371_646" x1="150" y1="133" x2="150" y2="200" gradientUnits="userSpaceOnUse">
<stop stop-color="#A6A3FF"/>
<stop offset="1" stop-color="#646299"/>
</linearGradient>
<linearGradient id="paint2_linear_371_646" x1="94.0417" y1="8" x2="94.0417" y2="62.0833" gradientUnits="userSpaceOnUse">
<stop stop-color="#13A7C0"/>
<stop offset="1" stop-color="#094E5A"/>
</linearGradient>
<linearGradient id="paint3_linear_371_646" x1="220" y1="121" x2="220" y2="59" gradientUnits="userSpaceOnUse">
<stop stop-color="#F98282"/>
<stop offset="1" stop-color="#A32020"/>
</linearGradient>
<linearGradient id="paint4_linear_371_646" x1="141.889" y1="106.512" x2="185.889" y2="96.5124" gradientUnits="userSpaceOnUse">
<stop/>
<stop offset="1" stop-color="#EE2B26"/>
</linearGradient>
<linearGradient id="paint5_linear_371_646" x1="147.802" y1="129.541" x2="191.802" y2="110.541" gradientUnits="userSpaceOnUse">
<stop/>
<stop offset="1" stop-color="#EE2B26"/>
</linearGradient>
<linearGradient id="paint6_linear_371_646" x1="133.981" y1="83.5004" x2="185.981" y2="81.5004" gradientUnits="userSpaceOnUse">
<stop/>
<stop offset="1" stop-color="#EE2B26"/>
</linearGradient>
<clipPath id="clip0_371_646">
<rect width="300" height="200" fill="white"/>
</clipPath>
</defs>
</svg>
