<svg xmlns="http://www.w3.org/2000/svg" xmlns:xlink="http://www.w3.org/1999/xlink" width="300" height="200" fill="none" viewBox="0 0 300 200"><path fill="#000" d="M0 0h300v200H0z"/><path fill="url(#a)" stroke="url(#b)" stroke-width="2" d="M5 37h85v120H5z"/><path fill="url(#c)" stroke="url(#d)" stroke-width="2" d="M207 37h88v120h-88z"/><path fill="url(#e)" stroke="#fff" d="M149.5 36.5h56v121h-56z"/><path fill="url(#f)" stroke="#fff" d="M91.5 36.5h58v121h-58z"/><defs><linearGradient id="b" x1="47.5" x2="47.5" y1="36" y2="158" gradientUnits="userSpaceOnUse"><stop stop-color="#fff"/><stop offset="1" stop-color="#999"/></linearGradient><linearGradient id="d" x1="251" x2="251" y1="36" y2="158" gradientUnits="userSpaceOnUse"><stop stop-color="#fff"/><stop offset="1" stop-color="#999"/></linearGradient><linearGradient id="i" x1="16.5" x2="16.5" y1="7" y2="40" gradientUnits="userSpaceOnUse"><stop stop-color="#ff5151"/><stop offset="1" stop-color="#993131"/></linearGradient><linearGradient id="j" x1="16" x2="16" y1="7" y2="39" gradientUnits="userSpaceOnUse"><stop stop-color="#58e6ff"/><stop offset="1" stop-color="#358a99"/></linearGradient><pattern id="a" width="1" height="1" patternTransform="matrix(69.904 0 0 66.4088 41.94 89.058)" patternUnits="userSpaceOnUse" preserveAspectRatio="none" viewBox="1.824 7.32 102.8 97.66"><use xlink:href="#g" transform="translate(0 -97.66)"/><use xlink:href="#g" transform="translate(51.4 -48.83)"/><path id="g" fill="#ff9494" d="M18.816 28.344q-.705 1.472-1.664 2.144a3.4 3.4 0 0 1-2.048.672q-1.44 0-2.176-.992-.705-1.024-.256-3.232l1.248-6.272q.511-2.432-.032-3.52-.544-1.088-1.792-1.088-.768 0-1.728.416-.928.416-1.984 1.472-1.056 1.024-2.144 2.944L4.448 31H1.824L5.536 9.912q.191-1.088.128-1.28-.064-.224-.544-.288l-1.76-.16.16-.864h5.088L6.656 18.424q1.408-1.92 2.944-2.752t3.072-.832q2.336 0 3.392 1.568 1.056 1.567.512 4.224l-1.312 6.4q-.32 1.632-.288 2.368.032.704.64.704.512 0 1.088-.544.576-.576.992-1.92z"/><use xlink:href="#g" transform="translate(51.4 48.83)"/></pattern><pattern id="c" width="1" height="1" patternTransform="matrix(68.2686 0 0 76.3002 244.214 92.965)" patternUnits="userSpaceOnUse" preserveAspectRatio="none" viewBox="1.504 14.84 70.38 78.66"><use xlink:href="#h" transform="translate(0 -78.66)"/><use xlink:href="#h" transform="translate(35.19 -39.33)"/><path id="h" fill="#94efff" d="M13.92 27.864q-1.12 1.952-2.816 2.72-1.695.735-3.36.736-2.208 0-3.68-1.056-1.44-1.056-2.016-2.944-.545-1.92-.096-4.448l.128-.704q.384-2.175 1.472-3.808 1.12-1.664 2.784-2.592 1.695-.928 3.808-.928 1.632 0 2.752.544t1.696 1.44q.576.864.576 1.856 0 1.6-1.152 2.752-1.12 1.152-3.136 1.824-1.985.64-4.608.832l-1.664.128q-.416 3.04.416 4.576.864 1.504 2.816 1.504.768 0 1.664-.288t1.696-.992 1.216-1.952zm-8.928-6.112-.224 1.44 1.472-.096q2.624-.16 4.032-.864 1.409-.705 1.952-1.696.544-.992.544-1.984 0-1.248-.736-1.952-.704-.735-1.984-.736-1.695 0-3.104 1.408-1.409 1.375-1.952 4.48"/><use xlink:href="#h" transform="translate(35.19 39.33)"/></pattern><pattern id="e" width="1" height="1" patternTransform="matrix(18.15 0 0 23.65 169.25 89.75)" patternUnits="userSpaceOnUse" preserveAspectRatio="none" viewBox="0 7 36.3 47.3"><circle cx="16.5" cy="23.5" r="16" stroke="#fff"/><circle cx="16.5" cy="23.5" r="16" fill="url(#i)" stroke="#fff" opacity=".49"/><path fill="#fff" d="M24.036 23.588h-6.804v7.02h-1.296v-7.02H9.132v-1.26h6.804v-7.02h1.296v7.02h6.804z"/></pattern><pattern id="f" width="1" height="1" patternTransform="matrix(17.952 0 0 24.123 112.34 89.605)" patternUnits="userSpaceOnUse" preserveAspectRatio="none" viewBox="0 7 35.2 47.3"><circle cx="16" cy="23" r="15.5" fill="url(#j)" stroke="#fff" opacity=".9"/><path fill="#000" d="M11.16 23.588v-1.26h9.504v1.26z"/></pattern></defs></svg>