<svg width="300" height="200" viewBox="0 0 300 200" fill="none" xmlns="http://www.w3.org/2000/svg">
<rect width="300" height="200" fill="black"/>
<path d="M81.1631 123.057C84.2229 122.991 87.0535 122.586 89.458 121.944C86.8003 121.168 83.6169 120.704 80.1729 120.691C78.5632 120.7 77.1495 120.932 76.166 121.275C75.6599 121.452 75.321 121.639 75.1289 121.798C75.0911 121.829 75.0637 121.856 75.043 121.878C75.0637 121.9 75.0909 121.928 75.1289 121.959C75.3211 122.117 75.6602 122.305 76.166 122.481C77.1689 122.831 78.6194 123.066 80.2686 123.066L81.1631 123.057ZM89.7041 89.7852C87.2477 89.1041 84.3279 88.6746 81.1631 88.6064L80.2686 88.5967C78.6195 88.5967 77.1689 88.8317 76.166 89.1816C75.6601 89.3582 75.3211 89.5456 75.1289 89.7041C75.0912 89.7352 75.0637 89.7626 75.043 89.7842C75.0637 89.8058 75.0907 89.8337 75.1289 89.8652C75.321 90.0238 75.6599 90.211 76.166 90.3877C77.1689 90.7377 78.6193 90.9726 80.2686 90.9727V90.9736C83.7772 90.9736 87.0179 90.5299 89.7041 89.7852ZM89.7031 100.482C87.2469 99.8016 84.3274 99.3719 81.1631 99.3037L80.2686 99.2949C78.6194 99.295 77.1689 99.5299 76.166 99.8799C75.6599 100.057 75.321 100.244 75.1289 100.402C75.0911 100.434 75.0637 100.461 75.043 100.482C75.0637 100.504 75.0909 100.532 75.1289 100.563C75.3211 100.722 75.6602 100.909 76.166 101.086C77.1689 101.436 78.6194 101.671 80.2686 101.671L81.1631 101.661C84.3275 101.593 87.2469 101.163 89.7031 100.482ZM89.7041 111.181C87.2477 110.5 84.3279 110.07 81.1631 110.002L80.2686 109.992C78.6194 109.992 77.1689 110.227 76.166 110.577C75.66 110.754 75.3211 110.941 75.1289 111.1C75.0912 111.131 75.0637 111.158 75.043 111.18C75.0637 111.201 75.0908 111.229 75.1289 111.261C75.321 111.419 75.66 111.607 76.166 111.783C77.1689 112.133 78.6193 112.368 80.2686 112.368V112.369C83.7772 112.369 87.0179 111.925 89.7041 111.181ZM89.7178 79.0908C87.0346 78.3454 83.7971 77.9013 80.291 77.8994V77.9199C78.6435 77.9199 77.1942 78.1535 76.1924 78.502C75.6869 78.6778 75.3489 78.8649 75.1572 79.0225C75.1227 79.0509 75.0981 79.0774 75.0781 79.0977C75.0981 79.1179 75.1227 79.1444 75.1572 79.1729C75.3489 79.3304 75.6869 79.5166 76.1924 79.6924C77.1942 80.0408 78.6434 80.2754 80.291 80.2754C83.7968 80.2754 87.0342 79.8326 89.7178 79.0908ZM79.5957 125.054C78.042 124.999 76.6145 124.757 75.5068 124.37C74.8789 124.151 74.2987 123.867 73.8564 123.502C73.4481 123.165 73.0529 122.666 73.0049 122.012L73 121.879C73 121.159 73.4208 120.615 73.8564 120.256C74.2988 119.891 74.8786 119.606 75.5068 119.387C76.717 118.964 78.3089 118.716 80.0303 118.694V118.69C80.0785 118.69 80.1267 118.691 80.1748 118.691C80.2059 118.691 80.2373 118.69 80.2686 118.69V118.693C84.9432 118.72 89.239 119.536 92.5273 120.898C94.0168 120.257 95.1626 119.522 95.9258 118.757C96.7003 117.98 97.0303 117.228 97.0303 116.529C97.0302 115.83 96.7002 115.079 95.9258 114.302C95.2037 113.577 94.1386 112.882 92.7646 112.266C89.4472 113.582 85.053 114.369 80.2686 114.369V114.368C78.4563 114.368 76.7726 114.114 75.5068 113.672C74.8787 113.453 74.2987 113.169 73.8564 112.804C73.448 112.467 73.0527 111.968 73.0049 111.313L73 111.181C73 110.461 73.4207 109.917 73.8564 109.558C74.2987 109.193 74.8786 108.908 75.5068 108.688C76.6145 108.302 78.042 108.059 79.5957 108.004L80.2686 107.992C85.0529 107.992 89.4473 108.779 92.7646 110.095C94.1384 109.478 95.2038 108.784 95.9258 108.06C96.7001 107.283 97.0302 106.531 97.0303 105.832C97.0303 105.133 96.7002 104.381 95.9258 103.604C95.2037 102.88 94.1388 102.184 92.7646 101.567C89.4472 102.884 85.0531 103.671 80.2686 103.671L79.5957 103.659C78.042 103.604 76.6145 103.361 75.5068 102.975C74.8788 102.755 74.2987 102.471 73.8564 102.106C73.4481 101.769 73.0528 101.27 73.0049 100.616L73 100.483C73 99.7632 73.4207 99.2199 73.8564 98.8604C74.2988 98.4953 74.8786 98.2105 75.5068 97.9912C76.6145 97.6047 78.0419 97.3614 79.5957 97.3066L80.2686 97.2949C85.0534 97.2949 89.4481 98.0811 92.7656 99.3975C94.1393 98.781 95.2039 98.0855 95.9258 97.3613C96.7003 96.5843 97.0303 95.8327 97.0303 95.1338C97.0302 94.4349 96.7002 93.6832 95.9258 92.9062C95.2037 92.1819 94.1386 91.4866 92.7646 90.8701C89.4472 92.1863 85.053 92.9736 80.2686 92.9736V92.9727C78.4562 92.9726 76.7726 92.7181 75.5068 92.2764C74.8787 92.0571 74.2987 91.7731 73.8564 91.4082C73.448 91.0711 73.0527 90.5723 73.0049 89.918L73 89.7852C73.0001 89.0651 73.4208 88.5217 73.8564 88.1621C74.2987 87.7972 74.8787 87.5122 75.5068 87.293C76.6145 86.9064 78.042 86.6631 79.5957 86.6084L80.2686 86.5967C85.0529 86.5967 89.4473 87.3831 92.7646 88.6992C94.1384 88.0827 95.2038 87.3883 95.9258 86.6641C96.7002 85.8871 97.0302 85.1354 97.0303 84.4365C97.0303 83.7376 96.7003 82.986 95.9258 82.209C95.2061 81.487 94.146 80.7928 92.7783 80.1777C89.4643 81.4895 85.0733 82.2754 80.291 82.2754C78.481 82.2754 76.7992 82.0217 75.5352 81.582C74.9079 81.3639 74.3286 81.0811 73.8867 80.7178C73.4519 80.3601 73.0304 79.8176 73.0303 79.0977C73.0304 78.3778 73.4519 77.8352 73.8867 77.4775C74.3286 77.1143 74.908 76.8314 75.5352 76.6133C76.794 76.1755 78.4671 75.922 80.2686 75.9199V75.8994C85.0608 75.8994 89.462 76.6878 92.7812 78.0078C94.1491 77.3954 95.2105 76.7062 95.9297 75.9873C96.7028 75.2144 97.0303 74.4669 97.0303 73.7744C97.0301 73.0801 96.7001 72.3232 95.9238 71.5361C95.1445 70.7461 93.9676 69.984 92.4365 69.3203C89.3776 67.9944 85.0836 67.1377 80.291 67.1377H79.291V49H20.5V79.0977H18.5V47H81.291V65.1494C85.903 65.2594 90.0963 66.1259 93.2324 67.4854C94.9111 68.213 96.3327 69.1018 97.3486 70.1318C98.3671 71.1646 99.0301 72.3982 99.0303 73.7744C99.0303 75.1529 98.3647 76.3798 97.3428 77.4014C96.7216 78.0222 95.9491 78.5875 95.0605 79.0957C95.9492 79.6061 96.7216 80.1736 97.3428 80.7969C98.3658 81.8233 99.0303 83.0542 99.0303 84.4365C99.0302 85.8188 98.3658 87.0498 97.3428 88.0762C96.7184 88.7026 95.9413 89.2728 95.0469 89.7852C95.9413 90.2975 96.7184 90.8677 97.3428 91.4941C98.3658 92.5205 99.0302 93.7515 99.0303 95.1338C99.0303 96.5161 98.3658 97.747 97.3428 98.7734C96.7184 99.3999 95.9413 99.97 95.0469 100.482C95.9415 100.995 96.7183 101.566 97.3428 102.192C98.3658 103.219 99.0303 104.45 99.0303 105.832C99.0302 107.214 98.3657 108.445 97.3428 109.472C96.7184 110.098 95.9413 110.668 95.0469 111.181C95.9413 111.693 96.7184 112.263 97.3428 112.89C98.3658 113.916 99.0302 115.147 99.0303 116.529C99.0303 117.912 98.3658 119.143 97.3428 120.169C96.6595 120.854 95.7927 121.471 94.79 122.02C97.2841 123.491 99.0301 125.478 99.0303 127.88C99.0303 130.774 96.4968 133.069 93.1719 134.582C89.9824 136.033 85.718 136.944 81.0303 137.058V152.689H19L18 152.69V114H20V150.69L79.0303 150.689V135.07H80.0303C84.8914 135.07 89.2439 134.172 92.3438 132.762C95.5335 131.31 97.0303 129.509 97.0303 127.88C97.03 126.277 95.5796 124.508 92.4932 123.069C89.2093 124.322 84.9235 125.066 80.2686 125.066L79.5957 125.054Z" fill="white"/>
<path d="M120 119.126C120 121.15 121.757 122.655 123.828 123.598C125.759 124.476 128.293 125.033 131.07 125.142V134.769H168.604V153H288V151H170.604V132.769H133.07V123.163H132.07C129.123 123.163 126.502 122.617 124.656 121.777C122.721 120.897 122 119.884 122 119.126C122 118.399 122.663 117.439 124.424 116.585C126.474 117.34 129.097 117.781 131.923 117.781C133.069 117.781 134.149 117.62 134.979 117.331C135.388 117.188 135.792 116.995 136.112 116.73C136.426 116.472 136.778 116.039 136.778 115.436C136.778 114.832 136.426 114.399 136.112 114.141C135.792 113.876 135.388 113.683 134.979 113.54C134.185 113.263 133.161 113.105 132.07 113.092V113.089C132.03 113.089 131.989 113.09 131.949 113.09C131.94 113.09 131.932 113.09 131.923 113.09V113.091C129.082 113.107 126.45 113.593 124.395 114.415C123.579 114.049 122.967 113.645 122.566 113.243C122.138 112.814 122 112.444 122 112.146C122 111.847 122.138 111.476 122.566 111.047C122.943 110.669 123.504 110.29 124.247 109.941C126.323 110.737 129.015 111.201 131.923 111.201C133.069 111.201 134.149 111.04 134.979 110.751C135.388 110.608 135.792 110.415 136.112 110.15C136.426 109.892 136.778 109.459 136.778 108.855C136.778 108.252 136.426 107.819 136.112 107.561C135.792 107.296 135.388 107.103 134.979 106.96C134.149 106.671 133.069 106.51 131.923 106.51C129.015 106.51 126.323 106.975 124.248 107.771C123.505 107.422 122.943 107.042 122.566 106.664C122.138 106.235 122 105.865 122 105.566C122 105.268 122.138 104.897 122.566 104.468C122.943 104.09 123.504 103.71 124.247 103.362C126.323 104.157 129.015 104.622 131.923 104.622C133.069 104.622 134.149 104.461 134.979 104.172C135.388 104.029 135.792 103.836 136.112 103.571C136.426 103.312 136.778 102.88 136.778 102.276C136.778 101.673 136.426 101.24 136.112 100.981C135.792 100.717 135.388 100.524 134.979 100.381C134.149 100.092 133.069 99.9307 131.923 99.9307C129.015 99.9307 126.323 100.396 124.248 101.191C123.505 100.843 122.943 100.463 122.566 100.085C122.138 99.6555 122 99.2854 122 98.9873C122 98.6891 122.138 98.3182 122.566 97.8887C122.943 97.511 123.504 97.1313 124.247 96.7832C126.323 97.5784 129.015 98.0429 131.923 98.043C133.069 98.043 134.149 97.8822 134.979 97.5928C135.388 97.4497 135.792 97.2564 136.112 96.9922C136.426 96.7334 136.778 96.3008 136.778 95.6973C136.778 95.0939 136.426 94.6611 136.112 94.4023C135.792 94.1382 135.388 93.9448 134.979 93.8018C134.149 93.5124 133.069 93.3516 131.923 93.3516C129.015 93.3516 126.323 93.8173 124.248 94.6123C123.505 94.264 122.943 93.8838 122.566 93.5059C122.138 93.0763 122 92.7063 122 92.4082C122 92.11 122.138 91.7392 122.566 91.3096C122.942 90.9332 123.501 90.5551 124.239 90.208C126.313 91.0003 129.003 91.4638 131.909 91.4639C133.054 91.4638 134.133 91.3045 134.961 91.0166C135.37 90.8743 135.773 90.682 136.093 90.4189C136.406 90.1615 136.76 89.7294 136.76 89.125C136.76 88.5206 136.406 88.0885 136.093 87.8311C135.773 87.568 135.37 87.3757 134.961 87.2334C134.137 86.9467 133.063 86.7875 131.924 86.7861V86.7725C129.011 86.7725 126.314 87.2395 124.237 88.0371C123.498 87.6912 122.939 87.3142 122.564 86.9395C122.137 86.512 122 86.1454 122 85.8516C122 85.5558 122.138 85.182 122.569 84.7451C123.003 84.3054 123.68 83.8607 124.593 83.4648C126.416 82.6747 129.003 82.1544 131.909 82.1543H132.909V71H170.297V48.5H194.5V46.5H168.297V69H130.909V80.1748C128.181 80.2796 125.694 80.8081 123.798 81.6299C122.737 82.0897 121.816 82.6611 121.146 83.3408C120.472 84.0234 120 84.8736 120 85.8516C120 86.8315 120.474 87.6783 121.15 88.3545C121.427 88.6306 121.746 88.8868 122.099 89.125C121.746 89.364 121.427 89.6205 121.15 89.8975C120.473 90.5766 120 91.4266 120 92.4082C120 93.3897 120.473 94.2388 121.15 94.918C121.429 95.1976 121.752 95.4562 122.108 95.6973C121.752 95.9381 121.429 96.197 121.15 96.4766C120.473 97.1557 120 98.0058 120 98.9873C120 99.9688 120.473 100.818 121.15 101.497C121.429 101.777 121.752 102.035 122.108 102.276C121.752 102.517 121.429 102.776 121.15 103.056C120.473 103.735 120 104.585 120 105.566C120 106.548 120.473 107.397 121.15 108.076C121.429 108.356 121.752 108.614 122.108 108.855C121.752 109.096 121.429 109.355 121.15 109.635C120.473 110.314 120 111.164 120 112.146C120 113.127 120.473 113.976 121.15 114.655C121.468 114.974 121.842 115.267 122.259 115.535C120.942 116.443 120 117.645 120 119.126ZM127.865 95.6973C128.946 95.5042 130.13 95.3844 131.381 95.3574L131.924 95.3516C132.906 95.3516 133.753 95.492 134.319 95.6895C134.326 95.6918 134.333 95.6949 134.34 95.6973C134.333 95.6997 134.326 95.7027 134.319 95.7051C133.753 95.9026 132.906 96.0429 131.924 96.043L131.381 96.0371C130.13 96.0101 128.946 95.8904 127.865 95.6973ZM127.865 102.276C128.946 102.083 130.13 101.964 131.381 101.937L131.924 101.931C132.906 101.931 133.753 102.071 134.319 102.269C134.326 102.271 134.333 102.274 134.34 102.276C134.333 102.279 134.326 102.282 134.319 102.284C133.753 102.482 132.906 102.622 131.924 102.622L131.381 102.616C130.13 102.589 128.946 102.469 127.865 102.276ZM127.865 108.855C128.946 108.662 130.13 108.543 131.381 108.516L131.924 108.51C132.906 108.51 133.753 108.65 134.319 108.848C134.326 108.85 134.333 108.853 134.34 108.855C134.333 108.858 134.326 108.861 134.319 108.863C133.753 109.061 132.906 109.201 131.924 109.201L131.381 109.195C130.13 109.168 128.946 109.049 127.865 108.855ZM128 115.457C129.208 115.228 130.542 115.097 131.952 115.09C132.923 115.093 133.759 115.232 134.319 115.428C134.326 115.43 134.333 115.433 134.34 115.436C134.333 115.438 134.326 115.441 134.319 115.443C133.753 115.641 132.906 115.781 131.924 115.781V115.78C130.525 115.78 129.201 115.663 128 115.457ZM127.854 89.1191C129.089 88.8979 130.459 88.7733 131.909 88.7725V88.7861C132.891 88.7862 133.738 88.9263 134.304 89.123C134.306 89.1237 134.308 89.1243 134.31 89.125C134.308 89.1257 134.306 89.1272 134.304 89.1279C133.738 89.3246 132.891 89.4638 131.909 89.4639C130.459 89.4638 129.09 89.3389 127.854 89.1191Z" fill="white"/>
<circle cx="19.3618" cy="96.3618" r="17.3618" stroke="white" stroke-width="2"/>
<path d="M6.87598 96.3618C6.87598 96.3618 9.9225 90.7309 13.2414 90.7309C16.5603 90.7309 19.6068 96.3618 19.6068 96.3618C19.6068 96.3618 22.5893 102.238 25.9723 102.238C29.3553 102.238 32.3377 96.3618 32.3377 96.3618" stroke="white" stroke-width="2"/>
<path d="M223.333 47.8651L182.524 47.8651L170 47.8651" stroke="white" stroke-width="2" stroke-linecap="round"/>
<path d="M248.018 62.0728L248.018 48.8933M248.018 35.7138L248.018 48.8933M248.018 48.8933L263.5 48.8933L285 48.8933" stroke="white" stroke-width="2" stroke-linecap="round"/>
<path d="M247.337 49.0001L225.082 61.8492L225.081 36.1508L247.337 49.0001Z" stroke="white" stroke-width="2"/>
<path d="M286.933 151V132.726V122.206L280 118.894L293 112.682L280 106.471L293 100.259L280 94.0478L293 87.8363L285.2 84.1094V67.9355V48" stroke="white" stroke-width="2"/>
<rect x="65.5" y="41.5" width="75" height="119" stroke="#87EDFF" stroke-dasharray="5 5"/>
<line x1="106" y1="82" x2="106" y2="123" stroke="white" stroke-width="2"/>
<line x1="114" y1="82" x2="114" y2="123" stroke="white" stroke-width="2"/>
</svg>
