<svg width="300" height="200" viewBox="0 0 300 200" fill="none" xmlns="http://www.w3.org/2000/svg">
<g clip-path="url(#clip0_606_428)">
<rect width="300" height="200" fill="black"/>
<rect x="1" y="1" width="298" height="101" fill="url(#paint0_linear_606_428)" stroke="#00D1F6" stroke-width="2"/>
<rect opacity="0.72" x="1" y="104" width="298" height="95" fill="url(#paint1_linear_606_428)" stroke="#4C33DB" stroke-width="2"/>
<circle cx="49" cy="134" r="21" fill="black" fill-opacity="0.61" stroke="#F1FF2B" stroke-width="2" stroke-dasharray="5 5"/>
<line x1="72.8195" y1="121.511" x2="105.82" y2="117.511" stroke="url(#paint2_linear_606_428)" stroke-width="3"/>
<line y1="-1.5" x2="33.2415" y2="-1.5" transform="matrix(0.992734 0.120331 0.120331 -0.992734 73 152)" stroke="url(#paint3_linear_606_428)" stroke-width="3"/>
<line x1="76" y1="138.5" x2="109" y2="138.5" stroke="url(#paint4_linear_606_428)" stroke-width="3"/>
<circle cx="185" cy="162" r="21" fill="black" fill-opacity="0.61" stroke="#F1FF2B" stroke-width="2" stroke-dasharray="5 5"/>
<line x1="208.851" y1="149.507" x2="238.851" y2="146.507" stroke="url(#paint5_linear_606_428)" stroke-width="3"/>
<line y1="-1.5" x2="30.1496" y2="-1.5" transform="matrix(0.995037 0.0995037 0.0995037 -0.995037 209 181)" stroke="url(#paint6_linear_606_428)" stroke-width="3"/>
<line x1="212" y1="166.5" x2="245" y2="166.5" stroke="url(#paint7_linear_606_428)" stroke-width="3"/>
<path d="M277.384 143.012C276.856 144.116 276.232 144.92 275.512 145.424C274.816 145.928 274.048 146.18 273.208 146.18C272.104 146.18 271.288 145.796 270.76 145.028C270.232 144.26 270.124 143.06 270.436 141.428L271.876 134.372C272.236 132.548 272.212 131.228 271.804 130.412C271.396 129.596 270.724 129.188 269.788 129.188C269.212 129.188 268.564 129.344 267.844 129.656C267.148 129.968 266.404 130.52 265.612 131.312C264.844 132.08 264.04 133.184 263.2 134.624L261.22 146H258.268L260.86 131.096C261.004 130.28 261.052 129.8 261.004 129.656C260.956 129.488 260.752 129.38 260.392 129.332L258.448 129.152L258.628 128.18H264.244L263.596 131.996C264.652 130.508 265.756 129.44 266.908 128.792C268.084 128.144 269.26 127.82 270.436 127.82C272.212 127.82 273.484 128.408 274.252 129.584C275.044 130.76 275.236 132.344 274.828 134.336L273.352 141.536C273.112 142.76 273.004 143.648 273.028 144.2C273.052 144.728 273.292 144.992 273.748 144.992C274.156 144.992 274.564 144.788 274.972 144.38C275.404 143.948 275.776 143.228 276.088 142.22L277.384 143.012ZM290.884 151.207C290.568 151.87 290.193 152.352 289.761 152.654C289.344 152.957 288.883 153.108 288.379 153.108C287.731 153.108 287.241 152.885 286.91 152.438C286.593 151.978 286.536 151.25 286.737 150.257L287.58 146.023C287.81 144.929 287.803 144.137 287.558 143.647C287.313 143.158 286.91 142.913 286.348 142.913C286.003 142.913 285.614 143.006 285.182 143.194C284.764 143.381 284.318 143.712 283.843 144.187C283.368 144.648 282.885 145.31 282.396 146.174L281.186 153H279.415L281.92 138.766C282.007 138.276 282.036 137.988 282.007 137.902C281.978 137.801 281.856 137.736 281.64 137.707L280.452 137.599L280.56 137.016H283.994L282.676 144.511C283.31 143.647 283.972 143.028 284.664 142.654C285.355 142.279 286.046 142.092 286.737 142.092C287.788 142.092 288.552 142.445 289.027 143.15C289.502 143.856 289.617 144.806 289.372 146.002L288.487 150.322C288.343 151.056 288.278 151.589 288.292 151.92C288.307 152.237 288.451 152.395 288.724 152.395C288.955 152.395 289.2 152.273 289.459 152.028C289.718 151.769 289.941 151.337 290.128 150.732L290.884 151.207Z" fill="white"/>
<path d="M279.384 76.012C278.856 77.116 278.232 77.92 277.512 78.424C276.816 78.928 276.048 79.18 275.208 79.18C274.104 79.18 273.288 78.796 272.76 78.028C272.232 77.26 272.124 76.06 272.436 74.428L273.876 67.372C274.236 65.548 274.212 64.228 273.804 63.412C273.396 62.596 272.724 62.188 271.788 62.188C271.212 62.188 270.564 62.344 269.844 62.656C269.148 62.968 268.404 63.52 267.612 64.312C266.844 65.08 266.04 66.184 265.2 67.624L263.22 79H260.268L262.86 64.096C263.004 63.28 263.052 62.8 263.004 62.656C262.956 62.488 262.752 62.38 262.392 62.332L260.448 62.152L260.628 61.18H266.244L265.596 64.996C266.652 63.508 267.756 62.44 268.908 61.792C270.084 61.144 271.26 60.82 272.436 60.82C274.212 60.82 275.484 61.408 276.252 62.584C277.044 63.76 277.236 65.344 276.828 67.336L275.352 74.536C275.112 75.76 275.004 76.648 275.028 77.2C275.052 77.728 275.292 77.992 275.748 77.992C276.156 77.992 276.564 77.788 276.972 77.38C277.404 76.948 277.776 76.228 278.088 75.22L279.384 76.012ZM289.58 83.8832C289.076 84.7616 288.442 85.3736 287.679 85.7192C286.916 86.0504 286.16 86.216 285.411 86.216C284.417 86.216 283.589 85.9784 282.927 85.5032C282.279 85.028 281.825 84.3656 281.566 83.516C281.321 82.652 281.3 81.6512 281.501 80.5136L281.588 80.0384C281.76 79.0592 282.092 78.2024 282.581 77.468C283.085 76.7192 283.712 76.136 284.46 75.7184C285.224 75.3008 286.08 75.092 287.031 75.092C287.765 75.092 288.384 75.2144 288.888 75.4592C289.392 75.704 289.774 76.028 290.033 76.4312C290.292 76.82 290.422 77.2376 290.422 77.684C290.422 78.404 290.163 79.0232 289.644 79.5416C289.14 80.06 288.435 80.4704 287.528 80.7728C286.635 81.0608 285.598 81.248 284.417 81.3344L283.294 81.4208C283.107 82.7888 283.2 83.8184 283.575 84.5096C283.964 85.1864 284.597 85.5248 285.476 85.5248C285.821 85.5248 286.196 85.46 286.599 85.3304C287.002 85.2008 287.384 84.9776 287.744 84.6608C288.104 84.344 288.377 83.9048 288.564 83.3432L289.58 83.8832ZM283.553 79.7576L283.402 80.7296L284.396 80.6648C285.576 80.5928 286.484 80.3984 287.117 80.0816C287.751 79.7648 288.19 79.3832 288.435 78.9368C288.68 78.4904 288.802 78.044 288.802 77.5976C288.802 77.036 288.636 76.5968 288.305 76.28C287.988 75.9488 287.542 75.7832 286.966 75.7832C286.203 75.7832 285.504 76.1 284.871 76.7336C284.237 77.3528 283.798 78.3608 283.553 79.7576Z" fill="black"/>
<path d="M127.908 70.152L128.088 69.18H133.812L132.12 79.008C131.664 81.528 131.616 83.328 131.976 84.408C132.36 85.488 133.104 86.028 134.208 86.028C135.264 86.028 136.32 85.584 137.376 84.696C138.432 83.784 139.308 82.392 140.004 80.52C140.724 78.648 141.084 76.272 141.084 73.392C141.084 72.84 141.06 72.276 141.012 71.7C140.988 71.1 140.952 70.5 140.904 69.9L144.216 68.82C144 72.492 143.508 75.528 142.74 77.928C141.996 80.328 141.096 82.224 140.04 83.616C138.984 84.984 137.88 85.956 136.728 86.532C135.6 87.084 134.532 87.36 133.524 87.36C131.652 87.36 130.332 86.628 129.564 85.164C128.82 83.7 128.676 81.66 129.132 79.044L130.356 72.096C130.5 71.28 130.548 70.8 130.5 70.656C130.452 70.488 130.236 70.38 129.852 70.332L127.908 70.152ZM154.767 91.8832C154.263 92.7616 153.629 93.3736 152.866 93.7192C152.103 94.0504 151.347 94.216 150.598 94.216C149.605 94.216 148.777 93.9784 148.114 93.5032C147.466 93.028 147.013 92.3656 146.753 91.516C146.509 90.652 146.487 89.6512 146.689 88.5136L146.775 88.0384C146.948 87.0592 147.279 86.2024 147.769 85.468C148.273 84.7192 148.899 84.136 149.648 83.7184C150.411 83.3008 151.268 83.092 152.218 83.092C152.953 83.092 153.572 83.2144 154.076 83.4592C154.58 83.704 154.961 84.028 155.221 84.4312C155.48 84.82 155.609 85.2376 155.609 85.684C155.609 86.404 155.35 87.0232 154.832 87.5416C154.328 88.06 153.622 88.4704 152.715 88.7728C151.822 89.0608 150.785 89.248 149.605 89.3344L148.481 89.4208C148.294 90.7888 148.388 91.8184 148.762 92.5096C149.151 93.1864 149.785 93.5248 150.663 93.5248C151.009 93.5248 151.383 93.46 151.786 93.3304C152.189 93.2008 152.571 92.9776 152.931 92.6608C153.291 92.344 153.565 91.9048 153.752 91.3432L154.767 91.8832ZM148.741 87.7576L148.589 88.7296L149.583 88.6648C150.764 88.5928 151.671 88.3984 152.305 88.0816C152.938 87.7648 153.377 87.3832 153.622 86.9368C153.867 86.4904 153.989 86.044 153.989 85.5976C153.989 85.036 153.824 84.5968 153.493 84.28C153.176 83.9488 152.729 83.7832 152.153 83.7832C151.39 83.7832 150.692 84.1 150.058 84.7336C149.425 85.3528 148.985 86.3608 148.741 87.7576Z" fill="black"/>
<path d="M127.908 121.152L128.088 120.18H133.812L132.12 130.008C131.664 132.528 131.616 134.328 131.976 135.408C132.36 136.488 133.104 137.028 134.208 137.028C135.264 137.028 136.32 136.584 137.376 135.696C138.432 134.784 139.308 133.392 140.004 131.52C140.724 129.648 141.084 127.272 141.084 124.392C141.084 123.84 141.06 123.276 141.012 122.7C140.988 122.1 140.952 121.5 140.904 120.9L144.216 119.82C144 123.492 143.508 126.528 142.74 128.928C141.996 131.328 141.096 133.224 140.04 134.616C138.984 135.984 137.88 136.956 136.728 137.532C135.6 138.084 134.532 138.36 133.524 138.36C131.652 138.36 130.332 137.628 129.564 136.164C128.82 134.7 128.676 132.66 129.132 130.044L130.356 123.096C130.5 122.28 130.548 121.8 130.5 121.656C130.452 121.488 130.236 121.38 129.852 121.332L127.908 121.152ZM158.072 143.207C157.755 143.87 157.381 144.352 156.949 144.654C156.531 144.957 156.07 145.108 155.566 145.108C154.918 145.108 154.429 144.885 154.097 144.438C153.781 143.978 153.723 143.25 153.925 142.257L154.767 138.023C154.997 136.929 154.99 136.137 154.745 135.647C154.501 135.158 154.097 134.913 153.536 134.913C153.19 134.913 152.801 135.006 152.369 135.194C151.952 135.381 151.505 135.712 151.03 136.187C150.555 136.648 150.073 137.31 149.583 138.174L148.373 145H146.602L149.108 130.766C149.194 130.276 149.223 129.988 149.194 129.902C149.165 129.801 149.043 129.736 148.827 129.707L147.639 129.599L147.747 129.016H151.181L149.864 136.511C150.497 135.647 151.16 135.028 151.851 134.654C152.542 134.279 153.233 134.092 153.925 134.092C154.976 134.092 155.739 134.445 156.214 135.15C156.689 135.856 156.805 136.806 156.56 138.002L155.674 142.322C155.53 143.056 155.465 143.589 155.48 143.92C155.494 144.237 155.638 144.395 155.912 144.395C156.142 144.395 156.387 144.273 156.646 144.028C156.905 143.769 157.129 143.337 157.316 142.732L158.072 143.207Z" fill="white"/>
<circle cx="85" cy="61" r="22" fill="url(#paint8_linear_606_428)"/>
<line x1="56" y1="62.5" x2="21" y2="62.5" stroke="url(#paint9_linear_606_428)" stroke-width="3"/>
<line x1="58.8719" y1="50.4945" x2="23.8719" y2="47.4945" stroke="url(#paint10_linear_606_428)" stroke-width="3"/>
<line y1="-1.5" x2="35.1283" y2="-1.5" transform="matrix(-0.996347 0.0854011 0.0854011 0.996347 58 77)" stroke="url(#paint11_linear_606_428)" stroke-width="3"/>
<circle cx="223" cy="26" r="22" fill="url(#paint12_linear_606_428)"/>
<line x1="194" y1="27.5" x2="159" y2="27.5" stroke="url(#paint13_linear_606_428)" stroke-width="3"/>
<line x1="196.872" y1="15.4945" x2="161.872" y2="12.4945" stroke="url(#paint14_linear_606_428)" stroke-width="3"/>
<line y1="-1.5" x2="35.1283" y2="-1.5" transform="matrix(-0.996347 0.0854011 0.0854011 0.996347 196 42)" stroke="url(#paint15_linear_606_428)" stroke-width="3"/>
<path d="M90.66 66.472C89.82 67.936 88.764 68.956 87.492 69.532C86.22 70.084 84.96 70.36 83.712 70.36C82.056 70.36 80.676 69.964 79.572 69.172C78.492 68.38 77.736 67.276 77.304 65.86C76.896 64.42 76.86 62.752 77.196 60.856L77.34 60.064C77.628 58.432 78.18 57.004 78.996 55.78C79.836 54.532 80.88 53.56 82.128 52.864C83.4 52.168 84.828 51.82 86.412 51.82C87.636 51.82 88.668 52.024 89.508 52.432C90.348 52.84 90.984 53.38 91.416 54.052C91.848 54.7 92.064 55.396 92.064 56.14C92.064 57.34 91.632 58.372 90.768 59.236C89.928 60.1 88.752 60.784 87.24 61.288C85.752 61.768 84.024 62.08 82.056 62.224L80.184 62.368C79.872 64.648 80.028 66.364 80.652 67.516C81.3 68.644 82.356 69.208 83.82 69.208C84.396 69.208 85.02 69.1 85.692 68.884C86.364 68.668 87 68.296 87.6 67.768C88.2 67.24 88.656 66.508 88.968 65.572L90.66 66.472ZM80.616 59.596L80.364 61.216L82.02 61.108C83.988 60.988 85.5 60.664 86.556 60.136C87.612 59.608 88.344 58.972 88.752 58.228C89.16 57.484 89.364 56.74 89.364 55.996C89.364 55.06 89.088 54.328 88.536 53.8C88.008 53.248 87.264 52.972 86.304 52.972C85.032 52.972 83.868 53.5 82.812 54.556C81.756 55.588 81.024 57.268 80.616 59.596Z" fill="white"/>
<path d="M228.66 31.472C227.82 32.936 226.764 33.956 225.492 34.532C224.22 35.084 222.96 35.36 221.712 35.36C220.056 35.36 218.676 34.964 217.572 34.172C216.492 33.38 215.736 32.276 215.304 30.86C214.896 29.42 214.86 27.752 215.196 25.856L215.34 25.064C215.628 23.432 216.18 22.004 216.996 20.78C217.836 19.532 218.88 18.56 220.128 17.864C221.4 17.168 222.828 16.82 224.412 16.82C225.636 16.82 226.668 17.024 227.508 17.432C228.348 17.84 228.984 18.38 229.416 19.052C229.848 19.7 230.064 20.396 230.064 21.14C230.064 22.34 229.632 23.372 228.768 24.236C227.928 25.1 226.752 25.784 225.24 26.288C223.752 26.768 222.024 27.08 220.056 27.224L218.184 27.368C217.872 29.648 218.028 31.364 218.652 32.516C219.3 33.644 220.356 34.208 221.82 34.208C222.396 34.208 223.02 34.1 223.692 33.884C224.364 33.668 225 33.296 225.6 32.768C226.2 32.24 226.656 31.508 226.968 30.572L228.66 31.472ZM218.616 24.596L218.364 26.216L220.02 26.108C221.988 25.988 223.5 25.664 224.556 25.136C225.612 24.608 226.344 23.972 226.752 23.228C227.16 22.484 227.364 21.74 227.364 20.996C227.364 20.06 227.088 19.328 226.536 18.8C226.008 18.248 225.264 17.972 224.304 17.972C223.032 17.972 221.868 18.5 220.812 19.556C219.756 20.588 219.024 22.268 218.616 24.596Z" fill="white"/>
<path d="M194.816 169.344C194.347 170.325 193.792 171.04 193.152 171.488C192.533 171.936 191.851 172.16 191.104 172.16C190.144 172.16 189.419 171.829 188.928 171.168C188.459 170.485 188.373 169.408 188.672 167.936L189.92 161.664C190.261 160.043 190.251 158.869 189.888 158.144C189.525 157.419 188.928 157.056 188.096 157.056C187.584 157.056 187.008 157.195 186.368 157.472C185.749 157.749 185.088 158.24 184.384 158.944C183.68 159.627 182.965 160.608 182.24 161.888L180.448 172H177.824L181.536 150.912C181.664 150.187 181.707 149.76 181.664 149.632C181.621 149.483 181.44 149.387 181.12 149.344L179.36 149.184L179.52 148.32H184.608L182.656 159.424C183.595 158.144 184.576 157.227 185.6 156.672C186.624 156.117 187.648 155.84 188.672 155.84C190.229 155.84 191.36 156.363 192.064 157.408C192.768 158.453 192.939 159.861 192.576 161.632L191.264 168.032C191.051 169.12 190.955 169.909 190.976 170.4C190.997 170.869 191.211 171.104 191.616 171.104C191.957 171.104 192.32 170.923 192.704 170.56C193.088 170.176 193.419 169.536 193.696 168.64L194.816 169.344Z" fill="white"/>
<path d="M58.816 142.344C58.3467 143.325 57.792 144.04 57.152 144.488C56.5333 144.936 55.8507 145.16 55.104 145.16C54.144 145.16 53.4187 144.829 52.928 144.168C52.4587 143.485 52.3733 142.408 52.672 140.936L53.92 134.664C54.2613 133.043 54.2507 131.869 53.888 131.144C53.5253 130.419 52.928 130.056 52.096 130.056C51.584 130.056 51.008 130.195 50.368 130.472C49.7493 130.749 49.088 131.24 48.384 131.944C47.68 132.627 46.9653 133.608 46.24 134.888L44.448 145H41.824L45.536 123.912C45.664 123.187 45.7067 122.76 45.664 122.632C45.6213 122.483 45.44 122.387 45.12 122.344L43.36 122.184L43.52 121.32H48.608L46.656 132.424C47.5947 131.144 48.576 130.227 49.6 129.672C50.624 129.117 51.648 128.84 52.672 128.84C54.2293 128.84 55.36 129.363 56.064 130.408C56.768 131.453 56.9387 132.861 56.576 134.632L55.264 141.032C55.0507 142.12 54.9547 142.909 54.976 143.4C54.9973 143.869 55.2107 144.104 55.616 144.104C55.9573 144.104 56.32 143.923 56.704 143.56C57.088 143.176 57.4187 142.536 57.696 141.64L58.816 142.344Z" fill="white"/>
<path d="M163 63L153 57.2265V68.7735L163 63ZM106 63V64H154V63V62H106V63Z" fill="black"/>
<path d="M119 162L129 167.774L129 156.227L119 162ZM163 162L163 161L128 161L128 162L128 163L163 163L163 162Z" fill="white"/>
</g>
<defs>
<linearGradient id="paint0_linear_606_428" x1="150" y1="0" x2="150" y2="103" gradientUnits="userSpaceOnUse">
<stop stop-color="#A3F1FF"/>
<stop offset="1" stop-color="#7CB9C4"/>
</linearGradient>
<linearGradient id="paint1_linear_606_428" x1="150" y1="103" x2="150" y2="200" gradientUnits="userSpaceOnUse">
<stop stop-color="#A6A3FF"/>
<stop offset="1" stop-color="#646299"/>
</linearGradient>
<linearGradient id="paint2_linear_606_428" x1="73.0602" y1="123.496" x2="106.06" y2="119.496" gradientUnits="userSpaceOnUse">
<stop stop-color="#F1FF2B"/>
<stop offset="1"/>
</linearGradient>
<linearGradient id="paint3_linear_606_428" x1="0" y1="0.5" x2="33.2415" y2="0.5" gradientUnits="userSpaceOnUse">
<stop stop-color="#F1FF2B"/>
<stop offset="1"/>
</linearGradient>
<linearGradient id="paint4_linear_606_428" x1="76" y1="140.5" x2="109" y2="140.5" gradientUnits="userSpaceOnUse">
<stop stop-color="#F1FF2B"/>
<stop offset="1"/>
</linearGradient>
<linearGradient id="paint5_linear_606_428" x1="209.05" y1="151.498" x2="239.05" y2="148.498" gradientUnits="userSpaceOnUse">
<stop stop-color="#F1FF2B"/>
<stop offset="1"/>
</linearGradient>
<linearGradient id="paint6_linear_606_428" x1="0" y1="0.5" x2="30.1496" y2="0.5" gradientUnits="userSpaceOnUse">
<stop stop-color="#F1FF2B"/>
<stop offset="1"/>
</linearGradient>
<linearGradient id="paint7_linear_606_428" x1="212" y1="168.5" x2="245" y2="168.5" gradientUnits="userSpaceOnUse">
<stop stop-color="#F1FF2B"/>
<stop offset="1"/>
</linearGradient>
<linearGradient id="paint8_linear_606_428" x1="85" y1="39" x2="85" y2="83" gradientUnits="userSpaceOnUse">
<stop stop-color="#13A7C0"/>
<stop offset="1" stop-color="#094E5A"/>
</linearGradient>
<linearGradient id="paint9_linear_606_428" x1="21" y1="60.5" x2="56" y2="60.5" gradientUnits="userSpaceOnUse">
<stop stop-color="#1B2F33"/>
<stop offset="1" stop-color="#518E99"/>
</linearGradient>
<linearGradient id="paint10_linear_606_428" x1="24.0427" y1="45.5018" x2="59.0427" y2="48.5018" gradientUnits="userSpaceOnUse">
<stop stop-color="#1B2F33"/>
<stop offset="1" stop-color="#518E99"/>
</linearGradient>
<linearGradient id="paint11_linear_606_428" x1="35.1283" y1="0.5" x2="0" y2="0.5" gradientUnits="userSpaceOnUse">
<stop stop-color="#1B2F33"/>
<stop offset="1" stop-color="#518E99"/>
</linearGradient>
<linearGradient id="paint12_linear_606_428" x1="223" y1="4" x2="223" y2="48" gradientUnits="userSpaceOnUse">
<stop stop-color="#13A7C0"/>
<stop offset="1" stop-color="#094E5A"/>
</linearGradient>
<linearGradient id="paint13_linear_606_428" x1="159" y1="25.5" x2="194" y2="25.5" gradientUnits="userSpaceOnUse">
<stop stop-color="#1B2F33"/>
<stop offset="1" stop-color="#518E99"/>
</linearGradient>
<linearGradient id="paint14_linear_606_428" x1="162.043" y1="10.5018" x2="197.043" y2="13.5018" gradientUnits="userSpaceOnUse">
<stop stop-color="#1B2F33"/>
<stop offset="1" stop-color="#518E99"/>
</linearGradient>
<linearGradient id="paint15_linear_606_428" x1="35.1283" y1="0.5" x2="0" y2="0.5" gradientUnits="userSpaceOnUse">
<stop stop-color="#1B2F33"/>
<stop offset="1" stop-color="#518E99"/>
</linearGradient>
<clipPath id="clip0_606_428">
<rect width="300" height="200" fill="white"/>
</clipPath>
</defs>
</svg>
