<svg width="300" height="200" viewBox="0 0 300 200" fill="none" xmlns="http://www.w3.org/2000/svg">
<rect width="300" height="200" fill="black"/>
<path d="M29 20L23.2265 30L34.7735 30L29 20ZM29 86L30 86L30 29L29 29L28 29L28 86L29 86Z" fill="white"/>
<path d="M19.904 36.552L19.984 36.12H23.84L23.76 36.552L22.864 36.632C22.7573 36.6427 22.6773 36.664 22.624 36.696C22.5707 36.728 22.528 36.7973 22.496 36.904C22.464 37 22.4267 37.1707 22.384 37.416L20.912 45.704C20.848 46.0773 20.8267 46.296 20.848 46.36C20.8693 46.424 20.9653 46.4667 21.136 46.488L22 46.584L21.92 47H18.064L18.144 46.584L19.04 46.488C19.1573 46.4773 19.2373 46.4613 19.28 46.44C19.3333 46.408 19.376 46.344 19.408 46.248C19.44 46.1413 19.4773 45.96 19.52 45.704L20.992 37.416C21.056 37.0427 21.0773 36.824 21.056 36.76C21.0347 36.696 20.9387 36.6533 20.768 36.632L19.904 36.552Z" fill="white"/>
<path d="M119.6 92.32L114.8 102H113.712L112.32 92.32C112.277 92 112.235 91.8133 112.192 91.76C112.16 91.696 112.064 91.6533 111.904 91.632L111.088 91.552L111.168 91.12H114.896L114.816 91.552L113.984 91.632C113.813 91.6533 113.712 91.696 113.68 91.76C113.659 91.824 113.669 92.0107 113.712 92.32L114.896 100.576L118.976 92.32C119.136 92.0107 119.211 91.824 119.2 91.76C119.2 91.696 119.115 91.6533 118.944 91.632L118.128 91.552L118.208 91.12H121.168L121.088 91.552L120.256 91.632C120.149 91.6427 120.064 91.664 120 91.696C119.947 91.7173 119.893 91.776 119.84 91.872C119.787 91.9573 119.707 92.1067 119.6 92.32Z" fill="white"/>
<path d="M139 86L129 80.2265V91.7735L139 86ZM29 86V87H130V86V85H29V86Z" fill="white"/>
<path d="M3.6 14.28L3.72 13.48C3.98667 11.7333 4.61333 10.18 5.6 8.82C6.58667 7.44667 7.92667 6.17333 9.62 5L10.04 5.56C8.70667 6.61333 7.67333 7.81333 6.94 9.16C6.22 10.5067 5.72 12 5.44 13.64L5.3 14.4C5.14 15.3867 5.07333 16.38 5.1 17.38C5.14 18.3667 5.30667 19.3067 5.6 20.2C5.89333 21.1067 6.34 21.9133 6.94 22.62L6.44 23.06C5.62667 22.2333 4.98667 21.3267 4.52 20.34C4.05333 19.3533 3.74667 18.34 3.6 17.3C3.45333 16.26 3.45333 15.2533 3.6 14.28ZM11.7588 19.48L11.6587 20H7.79875L7.89875 19.48L8.99875 19.36C9.14542 19.3467 9.25875 19.3267 9.33875 19.3C9.41875 19.26 9.49208 19.1733 9.55875 19.04C9.63875 18.9067 9.75208 18.6867 9.89875 18.38L15.8788 6.4H17.1388L18.9188 18.38C18.9854 18.8333 19.0454 19.1067 19.0988 19.2C19.1521 19.28 19.2721 19.3333 19.4588 19.36L20.5388 19.48L20.4588 20H15.6588L15.7588 19.48L16.8788 19.36C17.1054 19.3333 17.2321 19.28 17.2588 19.2C17.2988 19.1067 17.2854 18.8333 17.2188 18.38L16.8588 15.82H11.9788L10.6988 18.38C10.4721 18.8333 10.3588 19.1067 10.3588 19.2C10.3588 19.28 10.4654 19.3333 10.6788 19.36L11.7588 19.48ZM12.2988 15.18H16.7588L15.7588 8.22L12.2988 15.18ZM26.7573 13.8L26.6373 14.6C26.384 16.3333 25.7573 17.88 24.7573 19.24C23.7573 20.6 22.4173 21.8733 20.7373 23.06L20.3373 22.5C21.6573 21.4467 22.6773 20.2533 23.3973 18.92C24.1307 17.5733 24.6373 16.0733 24.9173 14.42L25.0573 13.68C25.2307 12.6933 25.2973 11.7 25.2573 10.7C25.2173 9.7 25.0507 8.75333 24.7573 7.86C24.4773 6.95333 24.0307 6.14667 23.4173 5.44L23.9173 5C24.7307 5.82667 25.3707 6.73333 25.8373 7.72C26.304 8.70667 26.6107 9.72 26.7573 10.76C26.904 11.8 26.904 12.8133 26.7573 13.8Z" fill="white"/>
<line x1="27" y1="27.5" x2="31" y2="27.5" stroke="white" stroke-width="3"/>
<path d="M181 96L186.774 86L175.226 86L181 96ZM182 28C182 27.4477 181.552 27 181 27C180.448 27 180 27.4477 180 28L181 28L182 28ZM181 87L182 87L182 28L181 28L180 28L180 87L181 87Z" fill="white"/>
<path d="M168.904 72.552L168.984 72.12H172.84L172.76 72.552L171.864 72.632C171.757 72.6427 171.677 72.664 171.624 72.696C171.571 72.728 171.528 72.7973 171.496 72.904C171.464 73 171.427 73.1707 171.384 73.416L169.912 81.704C169.848 82.0773 169.827 82.296 169.848 82.36C169.869 82.424 169.965 82.4667 170.136 82.488L171 82.584L170.92 83H167.064L167.144 82.584L168.04 82.488C168.157 82.4773 168.237 82.4613 168.28 82.44C168.333 82.408 168.376 82.344 168.408 82.248C168.44 82.1413 168.477 81.96 168.52 81.704L169.992 73.416C170.056 73.0427 170.077 72.824 170.056 72.76C170.035 72.696 169.939 72.6533 169.768 72.632L168.904 72.552Z" fill="white"/>
<path d="M260.6 18.32L255.8 28H254.712L253.32 18.32C253.277 18 253.235 17.8133 253.192 17.76C253.16 17.696 253.064 17.6533 252.904 17.632L252.088 17.552L252.168 17.12H255.896L255.816 17.552L254.984 17.632C254.813 17.6533 254.712 17.696 254.68 17.76C254.659 17.824 254.669 18.0107 254.712 18.32L255.896 26.576L259.976 18.32C260.136 18.0107 260.211 17.824 260.2 17.76C260.2 17.696 260.115 17.6533 259.944 17.632L259.128 17.552L259.208 17.12H262.168L262.088 17.552L261.256 17.632C261.149 17.6427 261.064 17.664 261 17.696C260.947 17.7173 260.893 17.776 260.84 17.872C260.787 17.9573 260.707 18.1067 260.6 18.32Z" fill="white"/>
<path d="M274 33L264 27.2265L264 38.7735L274 33ZM176 33L176 34L265 34L265 33L265 32L176 32L176 33Z" fill="white"/>
<path d="M155.6 14.28L155.72 13.48C155.987 11.7333 156.613 10.18 157.6 8.82C158.587 7.44667 159.927 6.17333 161.62 5L162.04 5.56C160.707 6.61333 159.673 7.81333 158.94 9.16C158.22 10.5067 157.72 12 157.44 13.64L157.3 14.4C157.14 15.3867 157.073 16.38 157.1 17.38C157.14 18.3667 157.307 19.3067 157.6 20.2C157.893 21.1067 158.34 21.9133 158.94 22.62L158.44 23.06C157.627 22.2333 156.987 21.3267 156.52 20.34C156.053 19.3533 155.747 18.34 155.6 17.3C155.453 16.26 155.453 15.2533 155.6 14.28ZM163.099 6.94L163.199 6.4H168.559C169.425 6.4 170.125 6.55333 170.659 6.86C171.205 7.15333 171.585 7.55333 171.799 8.06C172.025 8.55333 172.085 9.10667 171.979 9.72L171.899 10.28C171.779 10.9733 171.485 11.56 171.019 12.04C170.552 12.5067 169.925 12.8333 169.139 13.02C170.005 13.2067 170.639 13.5867 171.039 14.16C171.439 14.7333 171.572 15.4267 171.439 16.24L171.339 16.78C171.192 17.7533 170.732 18.5333 169.959 19.12C169.199 19.7067 168.165 20 166.859 20H160.799L160.899 19.48L162.019 19.36C162.245 19.3333 162.385 19.28 162.439 19.2C162.492 19.1067 162.559 18.8333 162.639 18.38L164.459 8.02C164.539 7.55333 164.565 7.28 164.539 7.2C164.512 7.12 164.399 7.06667 164.199 7.04L163.099 6.94ZM168.539 7.04H166.359L165.359 12.76H167.519C168.905 12.76 169.739 11.9867 170.019 10.44L170.159 9.62C170.319 8.78 170.259 8.14 169.979 7.7C169.699 7.26 169.219 7.04 168.539 7.04ZM167.919 13.4H165.239L164.199 19.36H166.859C168.299 19.36 169.172 18.5333 169.479 16.88L169.619 16.06C169.779 15.2067 169.712 14.5533 169.419 14.1C169.125 13.6333 168.625 13.4 167.919 13.4ZM178.035 13.8L177.915 14.6C177.661 16.3333 177.035 17.88 176.035 19.24C175.035 20.6 173.695 21.8733 172.015 23.06L171.615 22.5C172.935 21.4467 173.955 20.2533 174.675 18.92C175.408 17.5733 175.915 16.0733 176.195 14.42L176.335 13.68C176.508 12.6933 176.575 11.7 176.535 10.7C176.495 9.7 176.328 8.75333 176.035 7.86C175.755 6.95333 175.308 6.14667 174.695 5.44L175.195 5C176.008 5.82667 176.648 6.73333 177.115 7.72C177.581 8.70667 177.888 9.72 178.035 10.76C178.181 11.8 178.181 12.8133 178.035 13.8Z" fill="white"/>
<path d="M182 77C182.292 76.908 204.739 77.7401 218.943 67.1714C231.118 58.1122 240 39.7333 240 34" stroke="#F1FF2B" stroke-width="3" stroke-linecap="round"/>
<path d="M137 122L131.226 132L142.774 132L137 122ZM137 188L138 188L138 131L137 131L136 131L136 188L137 188Z" fill="white"/>
<path d="M144.904 133.552L144.984 133.12H148.84L148.76 133.552L147.864 133.632C147.757 133.643 147.677 133.664 147.624 133.696C147.571 133.728 147.528 133.797 147.496 133.904C147.464 134 147.427 134.171 147.384 134.416L145.912 142.704C145.848 143.077 145.827 143.296 145.848 143.36C145.869 143.424 145.965 143.467 146.136 143.488L147 143.584L146.92 144H143.064L143.144 143.584L144.04 143.488C144.157 143.477 144.237 143.461 144.28 143.44C144.333 143.408 144.376 143.344 144.408 143.248C144.44 143.141 144.477 142.96 144.52 142.704L145.992 134.416C146.056 134.043 146.077 133.824 146.056 133.76C146.035 133.696 145.939 133.653 145.768 133.632L144.904 133.552Z" fill="white"/>
<path d="M53.6 125.32L48.8 135H47.712L46.32 125.32C46.2773 125 46.2347 124.813 46.192 124.76C46.16 124.696 46.064 124.653 45.904 124.632L45.088 124.552L45.168 124.12H48.896L48.816 124.552L47.984 124.632C47.8133 124.653 47.712 124.696 47.68 124.76C47.6587 124.824 47.6693 125.011 47.712 125.32L48.896 133.576L52.976 125.32C53.136 125.011 53.2107 124.824 53.2 124.76C53.2 124.696 53.1147 124.653 52.944 124.632L52.128 124.552L52.208 124.12H55.168L55.088 124.552L54.256 124.632C54.1493 124.643 54.064 124.664 54 124.696C53.9467 124.717 53.8933 124.776 53.84 124.872C53.7867 124.957 53.7067 125.107 53.6 125.32Z" fill="white"/>
<path d="M27 140L37 145.774V134.226L27 140ZM137 141C137.552 141 138 140.552 138 140C138 139.448 137.552 139 137 139V140V141ZM36 140V141H137V140V139H36V140Z" fill="white"/>
<path d="M3.6 113.28L3.72 112.48C3.98667 110.733 4.61333 109.18 5.6 107.82C6.58667 106.447 7.92667 105.173 9.62 104L10.04 104.56C8.70667 105.613 7.67333 106.813 6.94 108.16C6.22 109.507 5.72 111 5.44 112.64L5.3 113.4C5.14 114.387 5.07333 115.38 5.1 116.38C5.14 117.367 5.30667 118.307 5.6 119.2C5.89333 120.107 6.34 120.913 6.94 121.62L6.44 122.06C5.62667 121.233 4.98667 120.327 4.52 119.34C4.05333 118.353 3.74667 117.34 3.6 116.3C3.45333 115.26 3.45333 114.253 3.6 113.28ZM14.0338 119.2C12.9271 119.2 12.0204 118.933 11.3138 118.4C10.6204 117.853 10.1471 117.093 9.89375 116.12C9.64042 115.133 9.61375 113.993 9.81375 112.7L10.0338 111.36C10.3404 109.453 11.0004 107.953 12.0138 106.86C13.0404 105.753 14.3538 105.2 15.9538 105.2C16.9404 105.2 17.7404 105.407 18.3538 105.82C18.9671 106.22 19.3804 106.74 19.5938 107.38C19.8071 108.02 19.8004 108.693 19.5738 109.4L17.7738 109.82C18.1338 108.54 18.1538 107.56 17.8338 106.88C17.5138 106.187 16.8804 105.84 15.9338 105.84C14.9871 105.84 14.1804 106.193 13.5138 106.9C12.8471 107.607 12.3804 108.76 12.1138 110.36L11.5538 113.7C11.2738 115.393 11.3471 116.627 11.7738 117.4C12.2004 118.173 12.9738 118.56 14.0938 118.56C14.7338 118.56 15.3404 118.367 15.9138 117.98C16.4871 117.593 16.9204 116.893 17.2138 115.88L18.4538 116.3C17.9738 117.353 17.3404 118.1 16.5538 118.54C15.7804 118.98 14.9404 119.2 14.0338 119.2ZM25.0581 112.8L24.9381 113.6C24.6848 115.333 24.0581 116.88 23.0581 118.24C22.0581 119.6 20.7181 120.873 19.0381 122.06L18.6381 121.5C19.9581 120.447 20.9781 119.253 21.6981 117.92C22.4315 116.573 22.9381 115.073 23.2181 113.42L23.3581 112.68C23.5315 111.693 23.5981 110.7 23.5581 109.7C23.5181 108.7 23.3515 107.753 23.0581 106.86C22.7781 105.953 22.3315 105.147 21.7181 104.44L22.2181 104C23.0315 104.827 23.6715 105.733 24.1381 106.72C24.6048 107.707 24.9115 108.72 25.0581 109.76C25.2048 110.8 25.2048 111.813 25.0581 112.8Z" fill="white"/>
<path d="M137 142C136.25 142.142 53 137.508 48 150.004C43 162.5 39.5 189 39.5 189" stroke="#F1FF2B" stroke-width="2" stroke-linecap="round"/>
<path d="M283 126L277.226 136L288.774 136L283 126ZM283 192L284 192L284 135L283 135L282 135L282 192L283 192Z" fill="white"/>
<path d="M290.904 134.552L290.984 134.12H294.84L294.76 134.552L293.864 134.632C293.757 134.643 293.677 134.664 293.624 134.696C293.571 134.728 293.528 134.797 293.496 134.904C293.464 135 293.427 135.171 293.384 135.416L291.912 143.704C291.848 144.077 291.827 144.296 291.848 144.36C291.869 144.424 291.965 144.467 292.136 144.488L293 144.584L292.92 145H289.064L289.144 144.584L290.04 144.488C290.157 144.477 290.237 144.461 290.28 144.44C290.333 144.408 290.376 144.344 290.408 144.248C290.44 144.141 290.477 143.96 290.52 143.704L291.992 135.416C292.056 135.043 292.077 134.824 292.056 134.76C292.035 134.696 291.939 134.653 291.768 134.632L290.904 134.552Z" fill="white"/>
<path d="M201.6 129.32L196.8 139H195.712L194.32 129.32C194.277 129 194.235 128.813 194.192 128.76C194.16 128.696 194.064 128.653 193.904 128.632L193.088 128.552L193.168 128.12H196.896L196.816 128.552L195.984 128.632C195.813 128.653 195.712 128.696 195.68 128.76C195.659 128.824 195.669 129.011 195.712 129.32L196.896 137.576L200.976 129.32C201.136 129.011 201.211 128.824 201.2 128.76C201.2 128.696 201.115 128.653 200.944 128.632L200.128 128.552L200.208 128.12H203.168L203.088 128.552L202.256 128.632C202.149 128.643 202.064 128.664 202 128.696C201.947 128.717 201.893 128.776 201.84 128.872C201.787 128.957 201.707 129.107 201.6 129.32Z" fill="white"/>
<path d="M173 144L183 149.774V138.226L173 144ZM283 145C283.552 145 284 144.552 284 144C284 143.448 283.552 143 283 143V144V145ZM182 144V145H283V144V143H182V144Z" fill="white"/>
<path d="M283 146C282.722 146.053 277 184 263 189C249 194 192.5 198 192.5 198" stroke="#B21013" stroke-width="2" stroke-linecap="round"/>
<path d="M155.6 113.28L155.72 112.48C155.987 110.733 156.613 109.18 157.6 107.82C158.587 106.447 159.927 105.173 161.62 104L162.04 104.56C160.707 105.613 159.673 106.813 158.94 108.16C158.22 109.507 157.72 111 157.44 112.64L157.3 113.4C157.14 114.387 157.073 115.38 157.1 116.38C157.14 117.367 157.307 118.307 157.6 119.2C157.893 120.107 158.34 120.913 158.94 121.62L158.44 122.06C157.627 121.233 156.987 120.327 156.52 119.34C156.053 118.353 155.747 117.34 155.6 116.3C155.453 115.26 155.453 114.253 155.6 113.28ZM163.099 105.94L163.199 105.4H168.439C169.612 105.4 170.559 105.68 171.279 106.24C171.999 106.787 172.492 107.533 172.759 108.48C173.025 109.427 173.052 110.493 172.839 111.68L172.599 112.98C172.385 114.193 172.012 115.253 171.479 116.16C170.945 117.053 170.265 117.753 169.439 118.26C168.612 118.753 167.652 119 166.559 119H160.799L160.899 118.48L162.019 118.36C162.245 118.333 162.385 118.28 162.439 118.2C162.492 118.107 162.559 117.833 162.639 117.38L164.459 107.02C164.539 106.553 164.565 106.28 164.539 106.2C164.512 106.12 164.399 106.067 164.199 106.04L163.099 105.94ZM168.459 106.04H166.359L164.199 118.36H166.539C167.605 118.36 168.472 117.987 169.139 117.24C169.819 116.493 170.285 115.393 170.539 113.94L171.119 110.64C171.372 109.173 171.279 108.04 170.839 107.24C170.412 106.44 169.619 106.04 168.459 106.04ZM178.699 112.8L178.579 113.6C178.325 115.333 177.699 116.88 176.699 118.24C175.699 119.6 174.359 120.873 172.679 122.06L172.279 121.5C173.599 120.447 174.619 119.253 175.339 117.92C176.072 116.573 176.579 115.073 176.859 113.42L176.999 112.68C177.172 111.693 177.239 110.7 177.199 109.7C177.159 108.7 176.992 107.753 176.699 106.86C176.419 105.953 175.972 105.147 175.359 104.44L175.859 104C176.672 104.827 177.312 105.733 177.779 106.72C178.245 107.707 178.552 108.72 178.699 109.76C178.845 110.8 178.845 111.813 178.699 112.8Z" fill="white"/>
<path d="M283 146C282.722 146.053 276 174.5 262 179.5C248 184.5 191.5 188.5 191.5 188.5" stroke="#EA4944" stroke-width="2" stroke-linecap="round"/>
<path d="M283 146C282.722 146.053 275.5 163 261.5 168C247.5 173 191 177 191 177" stroke="#FFAE2B" stroke-width="2" stroke-linecap="round"/>
<path d="M283 146C282.722 146.053 275 153 261 158C247 163 190.5 167 190.5 167" stroke="#F1FF2B" stroke-width="2" stroke-linecap="round"/>
<path d="M29 86C29.333 85.8607 88.5321 86 101.02 79.1896C113.508 72.3792 125 36.578 125 29" stroke="#87EDFF" stroke-width="2" stroke-linecap="round"/>
<path d="M29 86C29.333 85.8607 71.5321 86 84.0199 79.1896C96.5076 72.3792 108 36.578 108 29" stroke="#2DFE5A" stroke-width="2" stroke-linecap="round"/>
<path d="M29 86C29.333 85.8607 52.5455 87.6742 69.0199 78.6896C85.4943 69.7051 93 36.078 93 28.5" stroke="#F1FF2B" stroke-width="2" stroke-linecap="round"/>
<path d="M29 86C29.333 85.8607 52.5455 87.6742 69.0199 78.6896C85.4943 69.7051 93 36.078 93 28.5" stroke="#F1FF2B" stroke-width="2" stroke-linecap="round"/>
<path d="M29 86C29.333 85.8607 38.5455 87.1742 55.0199 78.1896C71.4943 69.2051 79 35.578 79 28" stroke="#FF2B2B" stroke-width="2" stroke-linecap="round"/>
<path d="M29 86C29.333 85.8607 38.5455 87.1742 55.0199 78.1896C71.4943 69.2051 79 35.578 79 28" stroke="#FF2B2B" stroke-width="2" stroke-linecap="round"/>
</svg>
