<svg width="300" height="200" viewBox="0 0 300 200" fill="none" xmlns="http://www.w3.org/2000/svg">
<g clip-path="url(#clip0_606_506)">
<rect width="300" height="200" fill="black"/>
<circle cx="151" cy="100" r="19" fill="url(#paint0_linear_606_506)"/>
<path d="M150.744 106.112H149.272L149.4 105.408C149.549 104.491 149.805 103.723 150.168 103.104C150.531 102.485 150.936 101.952 151.384 101.504C151.853 101.056 152.323 100.64 152.792 100.256C153.283 99.8507 153.731 99.4133 154.136 98.944C154.563 98.4533 154.904 97.8773 155.16 97.216C155.416 96.5547 155.544 95.7227 155.544 94.72C155.544 93.376 155.267 92.416 154.712 91.84C154.157 91.2427 153.432 90.944 152.536 90.944C151.235 90.944 150.232 91.4667 149.528 92.512C148.824 93.5573 148.397 95.072 148.248 97.056L145.72 96.544C145.741 95.3707 145.987 94.2827 146.456 93.28C146.947 92.2773 147.693 91.4667 148.696 90.848C149.72 90.2293 151.043 89.92 152.664 89.92C154.605 89.92 156.056 90.3893 157.016 91.328C157.997 92.2667 158.488 93.44 158.488 94.848C158.488 95.7867 158.307 96.5867 157.944 97.248C157.603 97.9093 157.144 98.4853 156.568 98.976C156.013 99.4667 155.416 99.9253 154.776 100.352C154.136 100.757 153.528 101.195 152.952 101.664C152.376 102.112 151.885 102.635 151.48 103.232C151.096 103.808 150.872 104.523 150.808 105.376L150.744 106.112ZM149.144 112.32C148.611 112.32 148.195 112.181 147.896 111.904C147.597 111.627 147.448 111.232 147.448 110.72C147.448 110.165 147.629 109.696 147.992 109.312C148.355 108.928 148.835 108.736 149.432 108.736C149.944 108.736 150.349 108.875 150.648 109.152C150.968 109.429 151.128 109.824 151.128 110.336C151.128 110.891 150.947 111.36 150.584 111.744C150.221 112.128 149.741 112.32 149.144 112.32Z" fill="white"/>
<circle cx="150.5" cy="100.5" r="51" stroke="white" stroke-dasharray="5 5"/>
<circle cx="99" cy="100" r="10" fill="url(#paint1_linear_606_506)"/>
<circle cx="151" cy="49" r="10" fill="url(#paint2_linear_606_506)"/>
<circle cx="151" cy="152" r="10" fill="url(#paint3_linear_606_506)"/>
<circle cx="22" cy="100" r="19" fill="url(#paint4_linear_606_506)"/>
<path d="M15.453 110.27C14.499 110.27 13.599 110.126 12.753 109.838C11.907 109.55 11.214 109.046 10.674 108.326C10.152 107.606 9.882 106.616 9.864 105.356L11.565 104.816C11.511 106.022 11.655 106.958 11.997 107.624C12.339 108.29 12.816 108.758 13.428 109.028C14.04 109.28 14.724 109.406 15.48 109.406C16.956 109.406 18.072 109.073 18.828 108.407C19.602 107.723 19.989 106.805 19.989 105.653C19.989 104.825 19.764 104.141 19.314 103.601C18.882 103.061 18.135 102.575 17.073 102.143L15.075 101.36C13.995 100.928 13.158 100.325 12.564 99.551C11.988 98.777 11.7 97.814 11.7 96.662C11.7 95.708 11.916 94.835 12.348 94.043C12.798 93.233 13.473 92.585 14.373 92.099C15.273 91.613 16.407 91.37 17.775 91.37C18.891 91.37 19.818 91.541 20.556 91.883C21.312 92.207 21.897 92.648 22.311 93.206C22.725 93.746 22.977 94.349 23.067 95.015C23.157 95.663 23.094 96.311 22.878 96.959L20.529 97.445C21.033 95.807 21.051 94.529 20.583 93.611C20.115 92.693 19.143 92.234 17.667 92.234C16.497 92.234 15.561 92.54 14.859 93.152C14.157 93.746 13.806 94.646 13.806 95.852C13.806 96.662 14.004 97.346 14.4 97.904C14.814 98.444 15.543 98.921 16.587 99.335L18.585 100.145C19.719 100.595 20.592 101.189 21.204 101.927C21.816 102.647 22.122 103.565 22.122 104.681C22.122 105.635 21.879 106.544 21.393 107.408C20.925 108.254 20.196 108.947 19.206 109.487C18.216 110.009 16.965 110.27 15.453 110.27ZM29.516 93.584C28.634 93.584 28.193 93.152 28.193 92.288C28.193 91.838 28.337 91.46 28.625 91.154C28.931 90.83 29.327 90.668 29.813 90.668C30.227 90.668 30.551 90.785 30.785 91.019C31.037 91.235 31.163 91.541 31.163 91.937C31.163 92.387 31.01 92.774 30.704 93.098C30.416 93.422 30.02 93.584 29.516 93.584ZM25.574 97.364L25.709 96.635H30.002L28.382 105.95C28.148 107.282 28.058 108.164 28.112 108.596C28.166 109.028 28.337 109.244 28.625 109.244C28.895 109.244 29.183 109.091 29.489 108.785C29.813 108.461 30.092 107.921 30.326 107.165L31.298 107.759C30.902 108.587 30.434 109.19 29.894 109.568C29.372 109.946 28.814 110.135 28.22 110.135C27.392 110.135 26.771 109.811 26.357 109.163C25.961 108.515 25.88 107.516 26.114 106.166L27.383 98.822C27.491 98.21 27.527 97.85 27.491 97.742C27.455 97.616 27.302 97.535 27.032 97.499L25.574 97.364Z" fill="white"/>
<circle cx="21.5" cy="100.5" r="51" stroke="white" stroke-dasharray="5 5"/>
<circle cx="74" cy="101" r="10" fill="url(#paint5_linear_606_506)"/>
<circle cx="22" cy="49" r="10" fill="url(#paint6_linear_606_506)"/>
<circle cx="22" cy="152" r="10" fill="url(#paint7_linear_606_506)"/>
<circle cx="278" cy="102" r="19" fill="url(#paint8_linear_606_506)"/>
<path d="M271.453 112.27C270.499 112.27 269.599 112.126 268.753 111.838C267.907 111.55 267.214 111.046 266.674 110.326C266.152 109.606 265.882 108.616 265.864 107.356L267.565 106.816C267.511 108.022 267.655 108.958 267.997 109.624C268.339 110.29 268.816 110.758 269.428 111.028C270.04 111.28 270.724 111.406 271.48 111.406C272.956 111.406 274.072 111.073 274.828 110.407C275.602 109.723 275.989 108.805 275.989 107.653C275.989 106.825 275.764 106.141 275.314 105.601C274.882 105.061 274.135 104.575 273.073 104.143L271.075 103.36C269.995 102.928 269.158 102.325 268.564 101.551C267.988 100.777 267.7 99.814 267.7 98.662C267.7 97.708 267.916 96.835 268.348 96.043C268.798 95.233 269.473 94.585 270.373 94.099C271.273 93.613 272.407 93.37 273.775 93.37C274.891 93.37 275.818 93.541 276.556 93.883C277.312 94.207 277.897 94.648 278.311 95.206C278.725 95.746 278.977 96.349 279.067 97.015C279.157 97.663 279.094 98.311 278.878 98.959L276.529 99.445C277.033 97.807 277.051 96.529 276.583 95.611C276.115 94.693 275.143 94.234 273.667 94.234C272.497 94.234 271.561 94.54 270.859 95.152C270.157 95.746 269.806 96.646 269.806 97.852C269.806 98.662 270.004 99.346 270.4 99.904C270.814 100.444 271.543 100.921 272.587 101.335L274.585 102.145C275.719 102.595 276.592 103.189 277.204 103.927C277.816 104.647 278.122 105.565 278.122 106.681C278.122 107.635 277.879 108.544 277.393 109.408C276.925 110.254 276.196 110.947 275.206 111.487C274.216 112.009 272.965 112.27 271.453 112.27ZM285.516 95.584C284.634 95.584 284.193 95.152 284.193 94.288C284.193 93.838 284.337 93.46 284.625 93.154C284.931 92.83 285.327 92.668 285.813 92.668C286.227 92.668 286.551 92.785 286.785 93.019C287.037 93.235 287.163 93.541 287.163 93.937C287.163 94.387 287.01 94.774 286.704 95.098C286.416 95.422 286.02 95.584 285.516 95.584ZM281.574 99.364L281.709 98.635H286.002L284.382 107.95C284.148 109.282 284.058 110.164 284.112 110.596C284.166 111.028 284.337 111.244 284.625 111.244C284.895 111.244 285.183 111.091 285.489 110.785C285.813 110.461 286.092 109.921 286.326 109.165L287.298 109.759C286.902 110.587 286.434 111.19 285.894 111.568C285.372 111.946 284.814 112.135 284.22 112.135C283.392 112.135 282.771 111.811 282.357 111.163C281.961 110.515 281.88 109.516 282.114 108.166L283.383 100.822C283.491 100.21 283.527 99.85 283.491 99.742C283.455 99.616 283.302 99.535 283.032 99.499L281.574 99.364Z" fill="white"/>
<circle cx="277.5" cy="102.5" r="51" stroke="white" stroke-dasharray="5 5"/>
<circle cx="226" cy="102" r="10" fill="url(#paint9_linear_606_506)"/>
<circle cx="198" cy="101" r="10" fill="url(#paint10_linear_606_506)"/>
<circle cx="211" cy="49" r="10" fill="url(#paint11_linear_606_506)"/>
<circle cx="278" cy="51" r="10" fill="url(#paint12_linear_606_506)"/>
<circle cx="278" cy="154" r="10" fill="url(#paint13_linear_606_506)"/>
<circle cx="149.5" cy="-23.5" r="51" stroke="white" stroke-dasharray="5 5"/>
<circle cx="150" cy="28" r="10" fill="url(#paint14_linear_606_506)"/>
<circle cx="150.5" cy="225.5" r="51" stroke="white" stroke-dasharray="5 5"/>
<circle cx="151" cy="174" r="10" fill="url(#paint15_linear_606_506)"/>
</g>
<defs>
<linearGradient id="paint0_linear_606_506" x1="151" y1="81" x2="151" y2="119" gradientUnits="userSpaceOnUse">
<stop stop-color="#FF42DC"/>
<stop offset="1" stop-color="#992884"/>
</linearGradient>
<linearGradient id="paint1_linear_606_506" x1="99" y1="90" x2="99" y2="110" gradientUnits="userSpaceOnUse">
<stop stop-color="#87EDFF"/>
<stop offset="1" stop-color="#518E99"/>
</linearGradient>
<linearGradient id="paint2_linear_606_506" x1="151" y1="39" x2="151" y2="59" gradientUnits="userSpaceOnUse">
<stop stop-color="#87EDFF"/>
<stop offset="1" stop-color="#518E99"/>
</linearGradient>
<linearGradient id="paint3_linear_606_506" x1="151" y1="142" x2="151" y2="162" gradientUnits="userSpaceOnUse">
<stop stop-color="#87EDFF"/>
<stop offset="1" stop-color="#518E99"/>
</linearGradient>
<linearGradient id="paint4_linear_606_506" x1="22" y1="81" x2="22" y2="119" gradientUnits="userSpaceOnUse">
<stop stop-color="#FF4242"/>
<stop offset="1" stop-color="#992828"/>
</linearGradient>
<linearGradient id="paint5_linear_606_506" x1="74" y1="91" x2="74" y2="111" gradientUnits="userSpaceOnUse">
<stop stop-color="#87EDFF"/>
<stop offset="1" stop-color="#518E99"/>
</linearGradient>
<linearGradient id="paint6_linear_606_506" x1="22" y1="39" x2="22" y2="59" gradientUnits="userSpaceOnUse">
<stop stop-color="#87EDFF"/>
<stop offset="1" stop-color="#518E99"/>
</linearGradient>
<linearGradient id="paint7_linear_606_506" x1="22" y1="142" x2="22" y2="162" gradientUnits="userSpaceOnUse">
<stop stop-color="#87EDFF"/>
<stop offset="1" stop-color="#518E99"/>
</linearGradient>
<linearGradient id="paint8_linear_606_506" x1="278" y1="83" x2="278" y2="121" gradientUnits="userSpaceOnUse">
<stop stop-color="#FF4242"/>
<stop offset="1" stop-color="#992828"/>
</linearGradient>
<linearGradient id="paint9_linear_606_506" x1="226" y1="92" x2="226" y2="112" gradientUnits="userSpaceOnUse">
<stop stop-color="#87EDFF"/>
<stop offset="1" stop-color="#518E99"/>
</linearGradient>
<linearGradient id="paint10_linear_606_506" x1="198" y1="91" x2="198" y2="111" gradientUnits="userSpaceOnUse">
<stop stop-color="#87EDFF"/>
<stop offset="1" stop-color="#518E99"/>
</linearGradient>
<linearGradient id="paint11_linear_606_506" x1="211" y1="39" x2="211" y2="59" gradientUnits="userSpaceOnUse">
<stop stop-color="#87EDFF"/>
<stop offset="1" stop-color="#518E99"/>
</linearGradient>
<linearGradient id="paint12_linear_606_506" x1="278" y1="41" x2="278" y2="61" gradientUnits="userSpaceOnUse">
<stop stop-color="#87EDFF"/>
<stop offset="1" stop-color="#518E99"/>
</linearGradient>
<linearGradient id="paint13_linear_606_506" x1="278" y1="144" x2="278" y2="164" gradientUnits="userSpaceOnUse">
<stop stop-color="#87EDFF"/>
<stop offset="1" stop-color="#518E99"/>
</linearGradient>
<linearGradient id="paint14_linear_606_506" x1="150" y1="18" x2="150" y2="38" gradientUnits="userSpaceOnUse">
<stop stop-color="#87EDFF"/>
<stop offset="1" stop-color="#518E99"/>
</linearGradient>
<linearGradient id="paint15_linear_606_506" x1="151" y1="164" x2="151" y2="184" gradientUnits="userSpaceOnUse">
<stop stop-color="#87EDFF"/>
<stop offset="1" stop-color="#518E99"/>
</linearGradient>
<clipPath id="clip0_606_506">
<rect width="300" height="200" fill="white"/>
</clipPath>
</defs>
</svg>
