<svg width="300" height="200" viewBox="0 0 300 200" fill="none" xmlns="http://www.w3.org/2000/svg">
<rect width="300" height="200" fill="black"/>
<path d="M11.472 69.064L11.292 70H4.344L4.524 69.064L6.504 68.848C6.768 68.824 6.972 68.788 7.116 68.74C7.26 68.668 7.392 68.512 7.512 68.272C7.656 68.032 7.86 67.636 8.124 67.084L18.888 45.52H21.156L24.36 67.084C24.48 67.9 24.588 68.392 24.684 68.56C24.78 68.704 24.996 68.8 25.332 68.848L27.276 69.064L27.132 70H18.492L18.672 69.064L20.688 68.848C21.096 68.8 21.324 68.704 21.372 68.56C21.444 68.392 21.42 67.9 21.3 67.084L20.652 62.476H11.868L9.564 67.084C9.156 67.9 8.952 68.392 8.952 68.56C8.952 68.704 9.144 68.8 9.528 68.848L11.472 69.064ZM12.444 61.324H20.472L18.672 48.796L12.444 61.324Z" fill="#F1FF2B"/>
<path d="M276.692 113.36C274.7 113.36 273.068 112.88 271.796 111.92C270.548 110.936 269.696 109.568 269.24 107.816C268.784 106.04 268.736 103.988 269.096 101.66L269.492 99.248C270.044 95.816 271.232 93.116 273.056 91.148C274.904 89.156 277.268 88.16 280.148 88.16C281.924 88.16 283.364 88.532 284.468 89.276C285.572 89.996 286.316 90.932 286.7 92.084C287.084 93.236 287.072 94.448 286.664 95.72L283.424 96.476C284.072 94.172 284.108 92.408 283.532 91.184C282.956 89.936 281.816 89.312 280.112 89.312C278.408 89.312 276.956 89.948 275.756 91.22C274.556 92.492 273.716 94.568 273.236 97.448L272.228 103.46C271.724 106.508 271.856 108.728 272.624 110.12C273.392 111.512 274.784 112.208 276.8 112.208C277.952 112.208 279.044 111.86 280.076 111.164C281.108 110.468 281.888 109.208 282.416 107.384L284.648 108.14C283.784 110.036 282.644 111.38 281.228 112.172C279.836 112.964 278.324 113.36 276.692 113.36Z" fill="#F1FF2B"/>
<line x1="34.5" y1="58.5" x2="91.5" y2="58.5" stroke="white" stroke-width="3" stroke-linecap="round"/>
<line x1="124.752" y1="77.4041" x2="124.752" y2="41.3038" stroke="white" stroke-width="3" stroke-linecap="round"/>
<path d="M123.56 59.5004L93.4704 76.8725L93.4697 42.127L123.56 59.5004Z" stroke="white" stroke-width="3"/>
<line x1="124.752" y1="159.404" x2="124.752" y2="123.304" stroke="white" stroke-width="3" stroke-linecap="round"/>
<path d="M123.56 141.5L93.4704 158.872L93.4697 124.127L123.56 141.5Z" stroke="white" stroke-width="3"/>
<path d="M10.284 129.492L10.464 128.52H20.112C21.672 128.52 22.932 128.796 23.892 129.348C24.876 129.876 25.56 130.596 25.944 131.508C26.352 132.396 26.46 133.392 26.268 134.496L26.124 135.504C25.908 136.752 25.38 137.808 24.54 138.672C23.7 139.512 22.572 140.1 21.156 140.436C22.716 140.772 23.856 141.456 24.576 142.488C25.296 143.52 25.536 144.768 25.296 146.232L25.116 147.204C24.852 148.956 24.024 150.36 22.632 151.416C21.264 152.472 19.404 153 17.052 153H6.144L6.324 152.064L8.34 151.848C8.748 151.8 9 151.704 9.096 151.56C9.192 151.392 9.312 150.9 9.456 150.084L12.732 131.436C12.876 130.596 12.924 130.104 12.876 129.96C12.828 129.816 12.624 129.72 12.264 129.672L10.284 129.492ZM20.076 129.672H16.152L14.352 139.968H18.24C20.736 139.968 22.236 138.576 22.74 135.792L22.992 134.316C23.28 132.804 23.172 131.652 22.668 130.86C22.164 130.068 21.3 129.672 20.076 129.672ZM18.96 141.12H14.136L12.264 151.848H17.052C19.644 151.848 21.216 150.36 21.768 147.384L22.02 145.908C22.308 144.372 22.188 143.196 21.66 142.38C21.132 141.54 20.232 141.12 18.96 141.12Z" fill="#F1FF2B"/>
<line x1="34.5" y1="141.5" x2="91.5" y2="141.5" stroke="white" stroke-width="3" stroke-linecap="round"/>
<path d="M126 60H186.558V101M126 142H186.558V101M186.558 101H262" stroke="white" stroke-width="3"/>
<path d="M230.2 101V120.472L238 124.958L225 132.436L238 139.914L225 147.392L238 154.87L225 162.348L231.933 166.336V179" stroke="white" stroke-width="3"/>
<line x1="210" y1="177.5" x2="252" y2="177.5" stroke="white" stroke-width="3"/>
<line x1="219" y1="184.5" x2="243" y2="184.5" stroke="white" stroke-width="3"/>
<line x1="224" y1="192.5" x2="240" y2="192.5" stroke="white" stroke-width="3"/>
</svg>
