<svg width="300" height="200" viewBox="0 0 300 200" fill="none" xmlns="http://www.w3.org/2000/svg">
<g clip-path="url(#clip0_352_512)">
<rect width="300" height="200" fill="black"/>
<rect x="1" y="1" width="298" height="106" fill="url(#paint0_linear_352_512)" stroke="#00D1F6" stroke-width="2"/>
<rect opacity="0.72" x="1" y="101" width="298" height="98" fill="url(#paint1_linear_352_512)" stroke="#4C33DB" stroke-width="2"/>
<circle cx="56" cy="144" r="21" fill="black" fill-opacity="0.61" stroke="#F1FF2B" stroke-width="2" stroke-dasharray="5 5"/>
<line x1="79.8195" y1="131.511" x2="112.82" y2="127.511" stroke="url(#paint2_linear_352_512)" stroke-width="3"/>
<line y1="-1.5" x2="33.2415" y2="-1.5" transform="matrix(0.992734 0.120331 0.120331 -0.992734 80 162)" stroke="url(#paint3_linear_352_512)" stroke-width="3"/>
<line x1="83" y1="148.5" x2="116" y2="148.5" stroke="url(#paint4_linear_352_512)" stroke-width="3"/>
<circle cx="172" cy="133" r="21" fill="black" fill-opacity="0.61" stroke="#F1FF2B" stroke-width="2" stroke-dasharray="5 5"/>
<line x1="195.851" y1="120.507" x2="225.851" y2="117.507" stroke="url(#paint5_linear_352_512)" stroke-width="3"/>
<line y1="-1.5" x2="30.1496" y2="-1.5" transform="matrix(0.995037 0.0995037 0.0995037 -0.995037 196 152)" stroke="url(#paint6_linear_352_512)" stroke-width="3"/>
<line x1="199" y1="137.5" x2="232" y2="137.5" stroke="url(#paint7_linear_352_512)" stroke-width="3"/>
<path d="M266.384 167.012C265.856 168.116 265.232 168.92 264.512 169.424C263.816 169.928 263.048 170.18 262.208 170.18C261.104 170.18 260.288 169.796 259.76 169.028C259.232 168.26 259.124 167.06 259.436 165.428L260.876 158.372C261.236 156.548 261.212 155.228 260.804 154.412C260.396 153.596 259.724 153.188 258.788 153.188C258.212 153.188 257.564 153.344 256.844 153.656C256.148 153.968 255.404 154.52 254.612 155.312C253.844 156.08 253.04 157.184 252.2 158.624L250.22 170H247.268L249.86 155.096C250.004 154.28 250.052 153.8 250.004 153.656C249.956 153.488 249.752 153.38 249.392 153.332L247.448 153.152L247.628 152.18H253.244L252.596 155.996C253.652 154.508 254.756 153.44 255.908 152.792C257.084 152.144 258.26 151.82 259.436 151.82C261.212 151.82 262.484 152.408 263.252 153.584C264.044 154.76 264.236 156.344 263.828 158.336L262.352 165.536C262.112 166.76 262.004 167.648 262.028 168.2C262.052 168.728 262.292 168.992 262.748 168.992C263.156 168.992 263.564 168.788 263.972 168.38C264.404 167.948 264.776 167.228 265.088 166.22L266.384 167.012ZM279.884 175.207C279.568 175.87 279.193 176.352 278.761 176.654C278.344 176.957 277.883 177.108 277.379 177.108C276.731 177.108 276.241 176.885 275.91 176.438C275.593 175.978 275.536 175.25 275.737 174.257L276.58 170.023C276.81 168.929 276.803 168.137 276.558 167.647C276.313 167.158 275.91 166.913 275.348 166.913C275.003 166.913 274.614 167.006 274.182 167.194C273.764 167.381 273.318 167.712 272.843 168.187C272.368 168.648 271.885 169.31 271.396 170.174L270.186 177H268.415L270.92 162.766C271.007 162.276 271.036 161.988 271.007 161.902C270.978 161.801 270.856 161.736 270.64 161.707L269.452 161.599L269.56 161.016H272.994L271.676 168.511C272.31 167.647 272.972 167.028 273.664 166.654C274.355 166.279 275.046 166.092 275.737 166.092C276.788 166.092 277.552 166.445 278.027 167.15C278.502 167.856 278.617 168.806 278.372 170.002L277.487 174.322C277.343 175.056 277.278 175.589 277.292 175.92C277.307 176.237 277.451 176.395 277.724 176.395C277.955 176.395 278.2 176.273 278.459 176.028C278.718 175.769 278.941 175.337 279.128 174.732L279.884 175.207Z" fill="white"/>
<path d="M271.384 51.012C270.856 52.116 270.232 52.92 269.512 53.424C268.816 53.928 268.048 54.18 267.208 54.18C266.104 54.18 265.288 53.796 264.76 53.028C264.232 52.26 264.124 51.06 264.436 49.428L265.876 42.372C266.236 40.548 266.212 39.228 265.804 38.412C265.396 37.596 264.724 37.188 263.788 37.188C263.212 37.188 262.564 37.344 261.844 37.656C261.148 37.968 260.404 38.52 259.612 39.312C258.844 40.08 258.04 41.184 257.2 42.624L255.22 54H252.268L254.86 39.096C255.004 38.28 255.052 37.8 255.004 37.656C254.956 37.488 254.752 37.38 254.392 37.332L252.448 37.152L252.628 36.18H258.244L257.596 39.996C258.652 38.508 259.756 37.44 260.908 36.792C262.084 36.144 263.26 35.82 264.436 35.82C266.212 35.82 267.484 36.408 268.252 37.584C269.044 38.76 269.236 40.344 268.828 42.336L267.352 49.536C267.112 50.76 267.004 51.648 267.028 52.2C267.052 52.728 267.292 52.992 267.748 52.992C268.156 52.992 268.564 52.788 268.972 52.38C269.404 51.948 269.776 51.228 270.088 50.22L271.384 51.012ZM281.58 58.8832C281.076 59.7616 280.442 60.3736 279.679 60.7192C278.916 61.0504 278.16 61.216 277.411 61.216C276.417 61.216 275.589 60.9784 274.927 60.5032C274.279 60.028 273.825 59.3656 273.566 58.516C273.321 57.652 273.3 56.6512 273.501 55.5136L273.588 55.0384C273.76 54.0592 274.092 53.2024 274.581 52.468C275.085 51.7192 275.712 51.136 276.46 50.7184C277.224 50.3008 278.08 50.092 279.031 50.092C279.765 50.092 280.384 50.2144 280.888 50.4592C281.392 50.704 281.774 51.028 282.033 51.4312C282.292 51.82 282.422 52.2376 282.422 52.684C282.422 53.404 282.163 54.0232 281.644 54.5416C281.14 55.06 280.435 55.4704 279.528 55.7728C278.635 56.0608 277.598 56.248 276.417 56.3344L275.294 56.4208C275.107 57.7888 275.2 58.8184 275.575 59.5096C275.964 60.1864 276.597 60.5248 277.476 60.5248C277.821 60.5248 278.196 60.46 278.599 60.3304C279.002 60.2008 279.384 59.9776 279.744 59.6608C280.104 59.344 280.377 58.9048 280.564 58.3432L281.58 58.8832ZM275.553 54.7576L275.402 55.7296L276.396 55.6648C277.576 55.5928 278.484 55.3984 279.117 55.0816C279.751 54.7648 280.19 54.3832 280.435 53.9368C280.68 53.4904 280.802 53.044 280.802 52.5976C280.802 52.036 280.636 51.5968 280.305 51.28C279.988 50.9488 279.542 50.7832 278.966 50.7832C278.203 50.7832 277.504 51.1 276.871 51.7336C276.237 52.3528 275.798 53.3608 275.553 54.7576Z" fill="black"/>
<circle cx="106" cy="38" r="22" fill="url(#paint8_linear_352_512)"/>
<line x1="77" y1="39.5" x2="42" y2="39.5" stroke="url(#paint9_linear_352_512)" stroke-width="3"/>
<line x1="79.8719" y1="27.4945" x2="44.8719" y2="24.4945" stroke="url(#paint10_linear_352_512)" stroke-width="3"/>
<line y1="-1.5" x2="35.1283" y2="-1.5" transform="matrix(-0.996347 0.0854011 0.0854011 0.996347 79 54)" stroke="url(#paint11_linear_352_512)" stroke-width="3"/>
<circle cx="223" cy="26" r="22" fill="url(#paint12_linear_352_512)"/>
<line x1="194" y1="27.5" x2="159" y2="27.5" stroke="url(#paint13_linear_352_512)" stroke-width="3"/>
<line x1="196.872" y1="15.4945" x2="161.872" y2="12.4945" stroke="url(#paint14_linear_352_512)" stroke-width="3"/>
<line y1="-1.5" x2="35.1283" y2="-1.5" transform="matrix(-0.996347 0.0854011 0.0854011 0.996347 196 42)" stroke="url(#paint15_linear_352_512)" stroke-width="3"/>
<path d="M111.66 43.472C110.82 44.936 109.764 45.956 108.492 46.532C107.22 47.084 105.96 47.36 104.712 47.36C103.056 47.36 101.676 46.964 100.572 46.172C99.492 45.38 98.736 44.276 98.304 42.86C97.896 41.42 97.86 39.752 98.196 37.856L98.34 37.064C98.628 35.432 99.18 34.004 99.996 32.78C100.836 31.532 101.88 30.56 103.128 29.864C104.4 29.168 105.828 28.82 107.412 28.82C108.636 28.82 109.668 29.024 110.508 29.432C111.348 29.84 111.984 30.38 112.416 31.052C112.848 31.7 113.064 32.396 113.064 33.14C113.064 34.34 112.632 35.372 111.768 36.236C110.928 37.1 109.752 37.784 108.24 38.288C106.752 38.768 105.024 39.08 103.056 39.224L101.184 39.368C100.872 41.648 101.028 43.364 101.652 44.516C102.3 45.644 103.356 46.208 104.82 46.208C105.396 46.208 106.02 46.1 106.692 45.884C107.364 45.668 108 45.296 108.6 44.768C109.2 44.24 109.656 43.508 109.968 42.572L111.66 43.472ZM101.616 36.596L101.364 38.216L103.02 38.108C104.988 37.988 106.5 37.664 107.556 37.136C108.612 36.608 109.344 35.972 109.752 35.228C110.16 34.484 110.364 33.74 110.364 32.996C110.364 32.06 110.088 31.328 109.536 30.8C109.008 30.248 108.264 29.972 107.304 29.972C106.032 29.972 104.868 30.5 103.812 31.556C102.756 32.588 102.024 34.268 101.616 36.596Z" fill="white"/>
<path d="M228.66 31.472C227.82 32.936 226.764 33.956 225.492 34.532C224.22 35.084 222.96 35.36 221.712 35.36C220.056 35.36 218.676 34.964 217.572 34.172C216.492 33.38 215.736 32.276 215.304 30.86C214.896 29.42 214.86 27.752 215.196 25.856L215.34 25.064C215.628 23.432 216.18 22.004 216.996 20.78C217.836 19.532 218.88 18.56 220.128 17.864C221.4 17.168 222.828 16.82 224.412 16.82C225.636 16.82 226.668 17.024 227.508 17.432C228.348 17.84 228.984 18.38 229.416 19.052C229.848 19.7 230.064 20.396 230.064 21.14C230.064 22.34 229.632 23.372 228.768 24.236C227.928 25.1 226.752 25.784 225.24 26.288C223.752 26.768 222.024 27.08 220.056 27.224L218.184 27.368C217.872 29.648 218.028 31.364 218.652 32.516C219.3 33.644 220.356 34.208 221.82 34.208C222.396 34.208 223.02 34.1 223.692 33.884C224.364 33.668 225 33.296 225.6 32.768C226.2 32.24 226.656 31.508 226.968 30.572L228.66 31.472ZM218.616 24.596L218.364 26.216L220.02 26.108C221.988 25.988 223.5 25.664 224.556 25.136C225.612 24.608 226.344 23.972 226.752 23.228C227.16 22.484 227.364 21.74 227.364 20.996C227.364 20.06 227.088 19.328 226.536 18.8C226.008 18.248 225.264 17.972 224.304 17.972C223.032 17.972 221.868 18.5 220.812 19.556C219.756 20.588 219.024 22.268 218.616 24.596Z" fill="white"/>
<path d="M181.816 140.344C181.347 141.325 180.792 142.04 180.152 142.488C179.533 142.936 178.851 143.16 178.104 143.16C177.144 143.16 176.419 142.829 175.928 142.168C175.459 141.485 175.373 140.408 175.672 138.936L176.92 132.664C177.261 131.043 177.251 129.869 176.888 129.144C176.525 128.419 175.928 128.056 175.096 128.056C174.584 128.056 174.008 128.195 173.368 128.472C172.749 128.749 172.088 129.24 171.384 129.944C170.68 130.627 169.965 131.608 169.24 132.888L167.448 143H164.824L168.536 121.912C168.664 121.187 168.707 120.76 168.664 120.632C168.621 120.483 168.44 120.387 168.12 120.344L166.36 120.184L166.52 119.32H171.608L169.656 130.424C170.595 129.144 171.576 128.227 172.6 127.672C173.624 127.117 174.648 126.84 175.672 126.84C177.229 126.84 178.36 127.363 179.064 128.408C179.768 129.453 179.939 130.861 179.576 132.632L178.264 139.032C178.051 140.12 177.955 140.909 177.976 141.4C177.997 141.869 178.211 142.104 178.616 142.104C178.957 142.104 179.32 141.923 179.704 141.56C180.088 141.176 180.419 140.536 180.696 139.64L181.816 140.344Z" fill="white"/>
<path d="M65.816 152.344C65.3467 153.325 64.792 154.04 64.152 154.488C63.5333 154.936 62.8507 155.16 62.104 155.16C61.144 155.16 60.4187 154.829 59.928 154.168C59.4587 153.485 59.3733 152.408 59.672 150.936L60.92 144.664C61.2613 143.043 61.2507 141.869 60.888 141.144C60.5253 140.419 59.928 140.056 59.096 140.056C58.584 140.056 58.008 140.195 57.368 140.472C56.7493 140.749 56.088 141.24 55.384 141.944C54.68 142.627 53.9653 143.608 53.24 144.888L51.448 155H48.824L52.536 133.912C52.664 133.187 52.7067 132.76 52.664 132.632C52.6213 132.483 52.44 132.387 52.12 132.344L50.36 132.184L50.52 131.32H55.608L53.656 142.424C54.5947 141.144 55.576 140.227 56.6 139.672C57.624 139.117 58.648 138.84 59.672 138.84C61.2293 138.84 62.36 139.363 63.064 140.408C63.768 141.453 63.9387 142.861 63.576 144.632L62.264 151.032C62.0507 152.12 61.9547 152.909 61.976 153.4C61.9973 153.869 62.2107 154.104 62.616 154.104C62.9573 154.104 63.32 153.923 63.704 153.56C64.088 153.176 64.4187 152.536 64.696 151.64L65.816 152.344Z" fill="white"/>
</g>
<defs>
<linearGradient id="paint0_linear_352_512" x1="150" y1="0" x2="150" y2="108" gradientUnits="userSpaceOnUse">
<stop stop-color="#A3F1FF"/>
<stop offset="1" stop-color="#7CB9C4"/>
</linearGradient>
<linearGradient id="paint1_linear_352_512" x1="150" y1="100" x2="150" y2="200" gradientUnits="userSpaceOnUse">
<stop stop-color="#A6A3FF"/>
<stop offset="1" stop-color="#646299"/>
</linearGradient>
<linearGradient id="paint2_linear_352_512" x1="80.0602" y1="133.496" x2="113.06" y2="129.496" gradientUnits="userSpaceOnUse">
<stop stop-color="#F1FF2B"/>
<stop offset="1"/>
</linearGradient>
<linearGradient id="paint3_linear_352_512" x1="0" y1="0.5" x2="33.2415" y2="0.5" gradientUnits="userSpaceOnUse">
<stop stop-color="#F1FF2B"/>
<stop offset="1"/>
</linearGradient>
<linearGradient id="paint4_linear_352_512" x1="83" y1="150.5" x2="116" y2="150.5" gradientUnits="userSpaceOnUse">
<stop stop-color="#F1FF2B"/>
<stop offset="1"/>
</linearGradient>
<linearGradient id="paint5_linear_352_512" x1="196.05" y1="122.498" x2="226.05" y2="119.498" gradientUnits="userSpaceOnUse">
<stop stop-color="#F1FF2B"/>
<stop offset="1"/>
</linearGradient>
<linearGradient id="paint6_linear_352_512" x1="0" y1="0.5" x2="30.1496" y2="0.5" gradientUnits="userSpaceOnUse">
<stop stop-color="#F1FF2B"/>
<stop offset="1"/>
</linearGradient>
<linearGradient id="paint7_linear_352_512" x1="199" y1="139.5" x2="232" y2="139.5" gradientUnits="userSpaceOnUse">
<stop stop-color="#F1FF2B"/>
<stop offset="1"/>
</linearGradient>
<linearGradient id="paint8_linear_352_512" x1="106" y1="16" x2="106" y2="60" gradientUnits="userSpaceOnUse">
<stop stop-color="#13A7C0"/>
<stop offset="1" stop-color="#094E5A"/>
</linearGradient>
<linearGradient id="paint9_linear_352_512" x1="42" y1="37.5" x2="77" y2="37.5" gradientUnits="userSpaceOnUse">
<stop stop-color="#1B2F33"/>
<stop offset="1" stop-color="#518E99"/>
</linearGradient>
<linearGradient id="paint10_linear_352_512" x1="45.0427" y1="22.5018" x2="80.0427" y2="25.5018" gradientUnits="userSpaceOnUse">
<stop stop-color="#1B2F33"/>
<stop offset="1" stop-color="#518E99"/>
</linearGradient>
<linearGradient id="paint11_linear_352_512" x1="35.1283" y1="0.5" x2="0" y2="0.5" gradientUnits="userSpaceOnUse">
<stop stop-color="#1B2F33"/>
<stop offset="1" stop-color="#518E99"/>
</linearGradient>
<linearGradient id="paint12_linear_352_512" x1="223" y1="4" x2="223" y2="48" gradientUnits="userSpaceOnUse">
<stop stop-color="#13A7C0"/>
<stop offset="1" stop-color="#094E5A"/>
</linearGradient>
<linearGradient id="paint13_linear_352_512" x1="159" y1="25.5" x2="194" y2="25.5" gradientUnits="userSpaceOnUse">
<stop stop-color="#1B2F33"/>
<stop offset="1" stop-color="#518E99"/>
</linearGradient>
<linearGradient id="paint14_linear_352_512" x1="162.043" y1="10.5018" x2="197.043" y2="13.5018" gradientUnits="userSpaceOnUse">
<stop stop-color="#1B2F33"/>
<stop offset="1" stop-color="#518E99"/>
</linearGradient>
<linearGradient id="paint15_linear_352_512" x1="35.1283" y1="0.5" x2="0" y2="0.5" gradientUnits="userSpaceOnUse">
<stop stop-color="#1B2F33"/>
<stop offset="1" stop-color="#518E99"/>
</linearGradient>
<clipPath id="clip0_352_512">
<rect width="300" height="200" fill="white"/>
</clipPath>
</defs>
</svg>
