<svg width="300" height="200" viewBox="0 0 300 200" fill="none" xmlns="http://www.w3.org/2000/svg">
<g clip-path="url(#clip0_354_682)">
<rect width="300" height="200" fill="black"/>
<path d="M41 30L35.2265 40L46.7735 40L41 30ZM41 157L42 157L42 39L41 39L40 39L40 157L41 157Z" fill="white"/>
<path d="M16.856 7.328L16.976 6.68H22.76L22.64 7.328L21.296 7.448C21.136 7.464 21.016 7.496 20.936 7.544C20.856 7.592 20.792 7.696 20.744 7.856C20.696 8 20.64 8.256 20.576 8.624L18.368 21.056C18.272 21.616 18.24 21.944 18.272 22.04C18.304 22.136 18.448 22.2 18.704 22.232L20 22.376L19.88 23H14.096L14.216 22.376L15.56 22.232C15.736 22.216 15.856 22.192 15.92 22.16C16 22.112 16.064 22.016 16.112 21.872C16.16 21.712 16.216 21.44 16.28 21.056L18.488 8.624C18.584 8.064 18.616 7.736 18.584 7.64C18.552 7.544 18.408 7.48 18.152 7.448L16.856 7.328ZM29.4434 16.136L29.5874 15.176C29.9074 13.08 30.6594 11.216 31.8434 9.584C33.0274 7.936 34.6354 6.408 36.6674 5L37.1714 5.672C35.5714 6.936 34.3314 8.376 33.4514 9.992C32.5874 11.608 31.9874 13.4 31.6514 15.368L31.4834 16.28C31.2914 17.464 31.2114 18.656 31.2434 19.856C31.2914 21.04 31.4914 22.168 31.8434 23.24C32.1954 24.328 32.7314 25.296 33.4514 26.144L32.8514 26.672C31.8754 25.68 31.1074 24.592 30.5474 23.408C29.9874 22.224 29.6194 21.008 29.4434 19.76C29.2674 18.512 29.2674 17.304 29.4434 16.136ZM57.0419 21.008C56.6899 21.744 56.2739 22.28 55.7939 22.616C55.3299 22.952 54.8179 23.12 54.2579 23.12C53.5219 23.12 52.9779 22.864 52.6259 22.352C52.2739 21.84 52.2019 21.04 52.4099 19.952L53.3699 15.248C53.6099 14.032 53.5939 13.152 53.3219 12.608C53.0659 12.064 52.6579 11.792 52.0979 11.792C51.5379 11.792 50.8899 12.04 50.1539 12.536C49.4339 13.016 48.6739 13.952 47.8739 15.344L46.5299 23H44.5619L45.9299 15.248C46.1539 14.032 46.1379 13.152 45.8819 12.608C45.6259 12.064 45.2179 11.792 44.6579 11.792C44.0979 11.792 43.4499 12.04 42.7139 12.536C41.9779 13.032 41.2099 13.992 40.4099 15.416L39.0659 23H37.0979L38.8259 13.064C38.9219 12.52 38.9539 12.2 38.9219 12.104C38.8899 11.992 38.7539 11.92 38.5139 11.888L37.2179 11.768L37.3379 11.12H41.0819L40.6739 13.64C41.3779 12.664 42.0979 11.96 42.8339 11.528C43.5699 11.096 44.3219 10.88 45.0899 10.88C45.9859 10.88 46.6819 11.144 47.1779 11.672C47.6899 12.184 47.9699 12.888 48.0179 13.784C48.7219 12.744 49.4499 12 50.2019 11.552C50.9699 11.104 51.7459 10.88 52.5299 10.88C53.6659 10.88 54.4819 11.272 54.9779 12.056C55.4899 12.84 55.6099 13.896 55.3379 15.224L54.3539 20.024C54.1939 20.84 54.1219 21.432 54.1379 21.8C54.1539 22.152 54.3139 22.328 54.6179 22.328C54.8899 22.328 55.1619 22.192 55.4339 21.92C55.7219 21.632 55.9699 21.152 56.1779 20.48L57.0419 21.008ZM61.3121 22.376L61.1921 23H56.5601L56.6801 22.376L58.0001 22.232C58.1761 22.216 58.3121 22.192 58.4081 22.16C58.5041 22.112 58.5921 22.008 58.6721 21.848C58.7681 21.688 58.9041 21.424 59.0801 21.056L66.2561 6.68H67.7681L69.9041 21.056C69.9841 21.6 70.0561 21.928 70.1201 22.04C70.1841 22.136 70.3281 22.2 70.5521 22.232L71.8481 22.376L71.7521 23H65.9921L66.1121 22.376L67.4561 22.232C67.7281 22.2 67.8801 22.136 67.9121 22.04C67.9601 21.928 67.9441 21.6 67.8641 21.056L67.4321 17.984H61.5761L60.0401 21.056C59.7681 21.6 59.6321 21.928 59.6321 22.04C59.6321 22.136 59.7601 22.2 60.0161 22.232L61.3121 22.376ZM61.9601 17.216H67.3121L66.1121 8.864L61.9601 17.216ZM79.3104 15.56L79.1664 16.52C78.8624 18.6 78.1104 20.456 76.9104 22.088C75.7104 23.72 74.1024 25.248 72.0864 26.672L71.6064 26C73.1904 24.736 74.4144 23.304 75.2784 21.704C76.1584 20.088 76.7664 18.288 77.1024 16.304L77.2704 15.416C77.4784 14.232 77.5584 13.04 77.5104 11.84C77.4624 10.64 77.2624 9.504 76.9104 8.432C76.5744 7.344 76.0384 6.376 75.3024 5.528L75.9024 5C76.8784 5.992 77.6464 7.08 78.2064 8.264C78.7664 9.448 79.1344 10.664 79.3104 11.912C79.4864 13.16 79.4864 14.376 79.3104 15.56Z" fill="white"/>
<path d="M290.2 158.64L280.6 178H278.424L275.64 158.64C275.555 158 275.469 157.627 275.384 157.52C275.32 157.392 275.128 157.307 274.808 157.264L273.176 157.104L273.336 156.24H280.792L280.632 157.104L278.968 157.264C278.627 157.307 278.424 157.392 278.36 157.52C278.317 157.648 278.339 158.021 278.424 158.64L280.792 175.152L288.952 158.64C289.272 158.021 289.421 157.648 289.4 157.52C289.4 157.392 289.229 157.307 288.888 157.264L287.256 157.104L287.416 156.24H293.336L293.176 157.104L291.512 157.264C291.299 157.285 291.128 157.328 291 157.392C290.893 157.435 290.787 157.552 290.68 157.744C290.573 157.915 290.413 158.213 290.2 158.64Z" fill="white"/>
<path d="M265 157L255 151.226V162.774L265 157ZM41 157V158H256V157V156H41V157Z" fill="white"/>
<line x1="77.5" y1="153" x2="77.5" y2="161" stroke="white" stroke-width="3"/>
<line x1="140.5" y1="153" x2="140.5" y2="161" stroke="white" stroke-width="3"/>
<line x1="201.5" y1="153" x2="201.5" y2="161" stroke="white" stroke-width="3"/>
<line x1="37" y1="119.5" x2="45" y2="119.5" stroke="white" stroke-width="3"/>
<line x1="37" y1="82.5" x2="45" y2="82.5" stroke="white" stroke-width="3"/>
<line x1="37" y1="45.5" x2="45" y2="45.5" stroke="white" stroke-width="3"/>
<path d="M68.534 174.484L68.248 176.174C67.7973 178.791 66.9827 180.793 65.804 182.18C64.6253 183.567 63.0913 184.26 61.202 184.26C59.8673 184.26 58.7753 183.913 57.926 183.22C57.094 182.509 56.5307 181.521 56.236 180.256C55.9587 178.991 55.9673 177.509 56.262 175.81L56.548 174.12C56.9987 171.537 57.8133 169.553 58.992 168.166C60.1707 166.762 61.7047 166.06 63.594 166.06C64.9287 166.06 66.012 166.415 66.844 167.126C67.676 167.819 68.2393 168.799 68.534 170.064C68.8287 171.329 68.8287 172.803 68.534 174.484ZM66.298 173.106C66.662 170.974 66.5927 169.405 66.09 168.4C65.6047 167.395 64.7727 166.892 63.594 166.892C62.45 166.892 61.5313 167.369 60.838 168.322C60.1447 169.258 59.6073 170.792 59.226 172.924L58.498 177.214C58.134 179.329 58.1947 180.897 58.68 181.92C59.1827 182.925 60.0147 183.428 61.176 183.428C62.3373 183.428 63.2647 182.96 63.958 182.024C64.6513 181.071 65.1887 179.528 65.57 177.396L66.298 173.106ZM69.6118 182.96C69.6118 182.509 69.7591 182.128 70.0538 181.816C70.3484 181.504 70.7384 181.348 71.2238 181.348C71.6571 181.348 71.9951 181.461 72.2378 181.686C72.4804 181.911 72.6018 182.232 72.6018 182.648C72.6018 183.099 72.4544 183.48 72.1598 183.792C71.8824 184.104 71.4924 184.26 70.9898 184.26C70.5738 184.26 70.2358 184.147 69.9758 183.922C69.7331 183.697 69.6118 183.376 69.6118 182.96ZM87.0566 178.644L86.1206 184H75.6686L75.9286 182.622C76.1539 181.374 76.5526 180.343 77.1246 179.528C77.6966 178.713 78.3639 178.02 79.1266 177.448C79.9066 176.876 80.7039 176.347 81.5186 175.862C82.2986 175.394 83.0352 174.909 83.7286 174.406C84.4392 173.903 85.0112 173.288 85.4446 172.56C85.8952 171.832 86.1206 170.913 86.1206 169.804C86.1206 168.764 85.9126 168.019 85.4966 167.568C85.0979 167.117 84.4739 166.892 83.6246 166.892C82.4806 166.892 81.6139 167.325 81.0246 168.192C80.4352 169.041 80.0799 170.263 79.9586 171.858L77.7746 171.442C77.7746 170.471 77.9912 169.579 78.4246 168.764C78.8752 167.949 79.5339 167.299 80.4006 166.814C81.2846 166.311 82.3592 166.06 83.6246 166.06C84.7859 166.06 85.7219 166.251 86.4326 166.632C87.1606 167.013 87.6979 167.525 88.0446 168.166C88.3912 168.807 88.5646 169.527 88.5646 170.324C88.5646 171.312 88.3652 172.135 87.9666 172.794C87.5679 173.453 87.0306 174.016 86.3546 174.484C85.6959 174.935 84.9679 175.351 84.1706 175.732C83.3732 176.096 82.5759 176.477 81.7786 176.876C80.7039 177.413 79.7246 178.081 78.8406 178.878C77.9739 179.675 77.3672 180.733 77.0206 182.05H83.6246C84.0406 182.05 84.3352 182.041 84.5086 182.024C84.6819 181.989 84.8119 181.92 84.8986 181.816C84.9852 181.712 85.0719 181.565 85.1586 181.374L86.3806 178.644H87.0566Z" fill="white"/>
<path d="M14.83 124.644L13.894 130H3.442L3.702 128.622C3.92733 127.374 4.326 126.343 4.898 125.528C5.47 124.713 6.13733 124.02 6.9 123.448C7.68 122.876 8.47733 122.347 9.292 121.862C10.072 121.394 10.8087 120.909 11.502 120.406C12.2127 119.903 12.7847 119.288 13.218 118.56C13.6687 117.832 13.894 116.913 13.894 115.804C13.894 114.764 13.686 114.019 13.27 113.568C12.8713 113.117 12.2473 112.892 11.398 112.892C10.254 112.892 9.38733 113.325 8.798 114.192C8.20867 115.041 7.85333 116.263 7.732 117.858L5.548 117.442C5.548 116.471 5.76467 115.579 6.198 114.764C6.64867 113.949 7.30733 113.299 8.174 112.814C9.058 112.311 10.1327 112.06 11.398 112.06C12.5593 112.06 13.4953 112.251 14.206 112.632C14.934 113.013 15.4713 113.525 15.818 114.166C16.1647 114.807 16.338 115.527 16.338 116.324C16.338 117.312 16.1387 118.135 15.74 118.794C15.3413 119.453 14.804 120.016 14.128 120.484C13.4693 120.935 12.7413 121.351 11.944 121.732C11.1467 122.096 10.3493 122.477 9.552 122.876C8.47733 123.413 7.498 124.081 6.614 124.878C5.74733 125.675 5.14067 126.733 4.794 128.05H11.398C11.814 128.05 12.1087 128.041 12.282 128.024C12.4553 127.989 12.5853 127.92 12.672 127.816C12.7587 127.712 12.8453 127.565 12.932 127.374L14.154 124.644H14.83ZM31.5496 120.484L31.2636 122.174C30.813 124.791 29.9983 126.793 28.8196 128.18C27.641 129.567 26.107 130.26 24.2176 130.26C22.883 130.26 21.791 129.913 20.9416 129.22C20.1096 128.509 19.5463 127.521 19.2516 126.256C18.9743 124.991 18.983 123.509 19.2776 121.81L19.5636 120.12C20.0143 117.537 20.829 115.553 22.0076 114.166C23.1863 112.762 24.7203 112.06 26.6096 112.06C27.9443 112.06 29.0276 112.415 29.8596 113.126C30.6916 113.819 31.255 114.799 31.5496 116.064C31.8443 117.329 31.8443 118.803 31.5496 120.484ZM29.3136 119.106C29.6776 116.974 29.6083 115.405 29.1056 114.4C28.6203 113.395 27.7883 112.892 26.6096 112.892C25.4656 112.892 24.547 113.369 23.8536 114.322C23.1603 115.258 22.623 116.792 22.2416 118.924L21.5136 123.214C21.1496 125.329 21.2103 126.897 21.6956 127.92C22.1983 128.925 23.0303 129.428 24.1916 129.428C25.353 129.428 26.2803 128.96 26.9736 128.024C27.667 127.071 28.2043 125.528 28.5856 123.396L29.3136 119.106Z" fill="white"/>
<path d="M10.072 88.894L10.514 86.424H3L3.13 85.592C4.534 84.3267 5.73 83.096 6.718 81.9C7.72333 80.704 8.59867 79.4213 9.344 78.052C10.1067 76.6653 10.8173 75.088 11.476 73.32H14.232C13.1747 75.7467 11.7967 77.9393 10.098 79.898C8.41667 81.8393 6.49267 83.7373 4.326 85.592H10.644L11.372 81.51L13.686 81.146L12.906 85.592H14.908L14.752 86.424H12.776L12.334 88.894C12.23 89.4833 12.1953 89.8387 12.23 89.96C12.2647 90.064 12.412 90.1333 12.672 90.168L14.076 90.324L13.946 91H7.16L7.29 90.324L9.266 90.168C9.56067 90.1507 9.74267 90.09 9.812 89.986C9.88133 89.8647 9.968 89.5007 10.072 88.894ZM30.407 81.484L30.121 83.174C29.6704 85.7913 28.8557 87.7933 27.677 89.18C26.4984 90.5667 24.9644 91.26 23.075 91.26C21.7404 91.26 20.6484 90.9133 19.799 90.22C18.967 89.5093 18.4037 88.5213 18.109 87.256C17.8317 85.9907 17.8404 84.5087 18.135 82.81L18.421 81.12C18.8717 78.5373 19.6864 76.5527 20.865 75.166C22.0437 73.762 23.5777 73.06 25.467 73.06C26.8017 73.06 27.885 73.4153 28.717 74.126C29.549 74.8193 30.1124 75.7987 30.407 77.064C30.7017 78.3293 30.7017 79.8027 30.407 81.484ZM28.171 80.106C28.535 77.974 28.4657 76.4053 27.963 75.4C27.4777 74.3947 26.6457 73.892 25.467 73.892C24.323 73.892 23.4044 74.3687 22.711 75.322C22.0177 76.258 21.4804 77.792 21.099 79.924L20.371 84.214C20.007 86.3287 20.0677 87.8973 20.553 88.92C21.0557 89.9253 21.8877 90.428 23.049 90.428C24.2104 90.428 25.1377 89.96 25.831 89.024C26.5244 88.0707 27.0617 86.528 27.443 84.396L28.171 80.106Z" fill="white"/>
<path d="M15.376 51.19C15.376 52.0567 15.1507 52.88 14.7 53.66C14.2667 54.44 13.608 55.0727 12.724 55.558C11.84 56.026 10.748 56.26 9.448 56.26C8.26933 56.26 7.27267 56.0693 6.458 55.688C5.64333 55.3067 5.028 54.8127 4.612 54.206C4.196 53.582 3.988 52.906 3.988 52.178C3.988 51.2073 4.36067 50.28 5.106 49.396C5.85133 48.4947 7.01267 47.7667 8.59 47.212C7.77533 46.7093 7.12533 46.12 6.64 45.444C6.15467 44.7507 5.912 43.9273 5.912 42.974C5.912 42.0553 6.12867 41.232 6.562 40.504C6.99533 39.7587 7.628 39.1693 8.46 38.736C9.292 38.2853 10.2973 38.06 11.476 38.06C13.0187 38.06 14.2407 38.424 15.142 39.152C16.0433 39.88 16.494 40.8247 16.494 41.986C16.494 42.8353 16.1733 43.6847 15.532 44.534C14.8907 45.366 13.79 46.0247 12.23 46.51C14.3273 47.6713 15.376 49.2313 15.376 51.19ZM10.488 45.522L11.502 46.094C12.2473 45.8167 12.828 45.4527 13.244 45.002C13.66 44.5513 13.946 44.066 14.102 43.546C14.2753 43.0087 14.362 42.4887 14.362 41.986C14.362 40.9633 14.076 40.192 13.504 39.672C12.9493 39.152 12.2387 38.892 11.372 38.892C10.8 38.892 10.254 39.0047 9.734 39.23C9.214 39.4553 8.78933 39.8107 8.46 40.296C8.148 40.764 7.992 41.3707 7.992 42.116C7.992 42.9653 8.20867 43.6327 8.642 44.118C9.09267 44.6033 9.708 45.0713 10.488 45.522ZM6.12 52.126C6.12 53.1487 6.41467 53.9547 7.004 54.544C7.59333 55.1333 8.434 55.428 9.526 55.428C10.6873 55.428 11.606 55.116 12.282 54.492C12.9753 53.8507 13.322 53.0013 13.322 51.944C13.322 51.2333 13.1313 50.6007 12.75 50.046C12.386 49.4913 11.7273 48.954 10.774 48.434L9.318 47.654C8.278 48.0353 7.48067 48.6247 6.926 49.422C6.38867 50.202 6.12 51.1033 6.12 52.126ZM31.6766 46.484L31.3906 48.174C30.9399 50.7913 30.1252 52.7933 28.9466 54.18C27.7679 55.5667 26.2339 56.26 24.3446 56.26C23.0099 56.26 21.9179 55.9133 21.0686 55.22C20.2366 54.5093 19.6732 53.5213 19.3786 52.256C19.1012 50.9907 19.1099 49.5087 19.4046 47.81L19.6906 46.12C20.1412 43.5373 20.9559 41.5527 22.1346 40.166C23.3132 38.762 24.8472 38.06 26.7366 38.06C28.0712 38.06 29.1546 38.4153 29.9866 39.126C30.8186 39.8193 31.3819 40.7987 31.6766 42.064C31.9712 43.3293 31.9712 44.8027 31.6766 46.484ZM29.4406 45.106C29.8046 42.974 29.7352 41.4053 29.2326 40.4C28.7472 39.3947 27.9152 38.892 26.7366 38.892C25.5926 38.892 24.6739 39.3687 23.9806 40.322C23.2872 41.258 22.7499 42.792 22.3686 44.924L21.6406 49.214C21.2766 51.3287 21.3372 52.8973 21.8226 53.92C22.3252 54.9253 23.1572 55.428 24.3186 55.428C25.4799 55.428 26.4072 54.96 27.1006 54.024C27.7939 53.0707 28.3312 51.528 28.7126 49.396L29.4406 45.106Z" fill="white"/>
<path d="M135.534 174.484L135.248 176.174C134.797 178.791 133.983 180.793 132.804 182.18C131.625 183.567 130.091 184.26 128.202 184.26C126.867 184.26 125.775 183.913 124.926 183.22C124.094 182.509 123.531 181.521 123.236 180.256C122.959 178.991 122.967 177.509 123.262 175.81L123.548 174.12C123.999 171.537 124.813 169.553 125.992 168.166C127.171 166.762 128.705 166.06 130.594 166.06C131.929 166.06 133.012 166.415 133.844 167.126C134.676 167.819 135.239 168.799 135.534 170.064C135.829 171.329 135.829 172.803 135.534 174.484ZM133.298 173.106C133.662 170.974 133.593 169.405 133.09 168.4C132.605 167.395 131.773 166.892 130.594 166.892C129.45 166.892 128.531 167.369 127.838 168.322C127.145 169.258 126.607 170.792 126.226 172.924L125.498 177.214C125.134 179.329 125.195 180.897 125.68 181.92C126.183 182.925 127.015 183.428 128.176 183.428C129.337 183.428 130.265 182.96 130.958 182.024C131.651 181.071 132.189 179.528 132.57 177.396L133.298 173.106ZM136.612 182.96C136.612 182.509 136.759 182.128 137.054 181.816C137.348 181.504 137.738 181.348 138.224 181.348C138.657 181.348 138.995 181.461 139.238 181.686C139.48 181.911 139.602 182.232 139.602 182.648C139.602 183.099 139.454 183.48 139.16 183.792C138.882 184.104 138.492 184.26 137.99 184.26C137.574 184.26 137.236 184.147 136.976 183.922C136.733 183.697 136.612 183.376 136.612 182.96ZM149.248 181.894L149.69 179.424H142.176L142.306 178.592C143.71 177.327 144.906 176.096 145.894 174.9C146.899 173.704 147.774 172.421 148.52 171.052C149.282 169.665 149.993 168.088 150.652 166.32H153.408C152.35 168.747 150.972 170.939 149.274 172.898C147.592 174.839 145.668 176.737 143.502 178.592H149.82L150.548 174.51L152.862 174.146L152.082 178.592H154.084L153.928 179.424H151.952L151.51 181.894C151.406 182.483 151.371 182.839 151.406 182.96C151.44 183.064 151.588 183.133 151.848 183.168L153.252 183.324L153.122 184H146.336L146.466 183.324L148.442 183.168C148.736 183.151 148.918 183.09 148.988 182.986C149.057 182.865 149.144 182.501 149.248 181.894Z" fill="white"/>
<path d="M196.534 174.484L196.248 176.174C195.797 178.791 194.983 180.793 193.804 182.18C192.625 183.567 191.091 184.26 189.202 184.26C187.867 184.26 186.775 183.913 185.926 183.22C185.094 182.509 184.531 181.521 184.236 180.256C183.959 178.991 183.967 177.509 184.262 175.81L184.548 174.12C184.999 171.537 185.813 169.553 186.992 168.166C188.171 166.762 189.705 166.06 191.594 166.06C192.929 166.06 194.012 166.415 194.844 167.126C195.676 167.819 196.239 168.799 196.534 170.064C196.829 171.329 196.829 172.803 196.534 174.484ZM194.298 173.106C194.662 170.974 194.593 169.405 194.09 168.4C193.605 167.395 192.773 166.892 191.594 166.892C190.45 166.892 189.531 167.369 188.838 168.322C188.145 169.258 187.607 170.792 187.226 172.924L186.498 177.214C186.134 179.329 186.195 180.897 186.68 181.92C187.183 182.925 188.015 183.428 189.176 183.428C190.337 183.428 191.265 182.96 191.958 182.024C192.651 181.071 193.189 179.528 193.57 177.396L194.298 173.106ZM197.612 182.96C197.612 182.509 197.759 182.128 198.054 181.816C198.348 181.504 198.738 181.348 199.224 181.348C199.657 181.348 199.995 181.461 200.238 181.686C200.48 181.911 200.602 182.232 200.602 182.648C200.602 183.099 200.454 183.48 200.16 183.792C199.882 184.104 199.492 184.26 198.99 184.26C198.574 184.26 198.236 184.147 197.976 183.922C197.733 183.697 197.612 183.376 197.612 182.96ZM214.985 179.424C214.847 180.412 214.491 181.27 213.919 181.998C213.347 182.726 212.628 183.289 211.761 183.688C210.912 184.069 209.976 184.26 208.953 184.26C207.567 184.26 206.466 183.913 205.651 183.22C204.854 182.509 204.325 181.521 204.065 180.256C203.823 178.973 203.84 177.483 204.117 175.784L204.403 174.146C204.871 171.303 205.721 169.249 206.951 167.984C208.182 166.701 209.716 166.06 211.553 166.06C212.732 166.06 213.694 166.303 214.439 166.788C215.185 167.256 215.696 167.871 215.973 168.634C216.268 169.397 216.303 170.22 216.077 171.104L213.789 171.494C214.188 170.021 214.188 168.885 213.789 168.088C213.408 167.291 212.637 166.892 211.475 166.892C210.869 166.892 210.279 167.057 209.707 167.386C209.135 167.715 208.624 168.296 208.173 169.128C207.74 169.943 207.393 171.113 207.133 172.638L206.665 175.342C207.272 174.753 207.922 174.319 208.615 174.042C209.309 173.747 210.028 173.6 210.773 173.6C211.744 173.6 212.576 173.825 213.269 174.276C213.98 174.727 214.491 175.359 214.803 176.174C215.133 176.971 215.219 177.907 215.063 178.982L214.985 179.424ZM206.301 177.344C205.937 179.476 205.981 181.027 206.431 181.998C206.899 182.951 207.714 183.428 208.875 183.428C209.794 183.428 210.583 183.125 211.241 182.518C211.917 181.894 212.368 180.845 212.593 179.372L212.645 179.034C212.853 177.682 212.775 176.599 212.411 175.784C212.047 174.969 211.337 174.562 210.279 174.562C209.673 174.562 209.023 174.727 208.329 175.056C207.653 175.385 207.012 175.966 206.405 176.798L206.301 177.344Z" fill="white"/>
<path d="M43 155C43.3215 154.683 73.6459 154.603 78.8708 137.148C84.0957 119.692 85 34 85 34" stroke="#F1FF2B" stroke-width="4" stroke-linecap="round"/>
</g>
<defs>
<clipPath id="clip0_354_682">
<rect width="300" height="200" fill="white"/>
</clipPath>
</defs>
</svg>
