<svg width="300" height="200" viewBox="0 0 300 200" fill="none" xmlns="http://www.w3.org/2000/svg">
<rect width="300" height="200" fill="black"/>
<path d="M190 99.5C190 139.116 109 146 109 146C109 146 121.773 119.291 121.773 95.1288C121.773 70.9667 109 53 109 53C109 53 190 59.8838 190 99.5Z" stroke="white" stroke-width="3"/>
<path d="M98 146C98 146 111 119.291 111 95.1288C111 70.9667 98 53 98 53" stroke="white" stroke-width="3"/>
<path d="M198.5 93.5C202.286 93.5 205.5 96.7759 205.5 101C205.5 105.224 202.286 108.5 198.5 108.5C194.714 108.5 191.5 105.224 191.5 101C191.5 96.7759 194.714 93.5 198.5 93.5Z" stroke="white" stroke-width="3"/>
<line x1="65" y1="71.5" x2="109" y2="71.5" stroke="white" stroke-width="3"/>
<path d="M36.472 77.064L36.292 78H29.344L29.524 77.064L31.504 76.848C31.768 76.824 31.972 76.788 32.116 76.74C32.26 76.668 32.392 76.512 32.512 76.272C32.656 76.032 32.86 75.636 33.124 75.084L43.888 53.52H46.156L49.36 75.084C49.48 75.9 49.588 76.392 49.684 76.56C49.78 76.704 49.996 76.8 50.332 76.848L52.276 77.064L52.132 78H43.492L43.672 77.064L45.688 76.848C46.096 76.8 46.324 76.704 46.372 76.56C46.444 76.392 46.42 75.9 46.3 75.084L45.652 70.476H36.868L34.564 75.084C34.156 75.9 33.952 76.392 33.952 76.56C33.952 76.704 34.144 76.8 34.528 76.848L36.472 77.064ZM37.444 69.324H45.472L43.672 56.796L37.444 69.324Z" fill="#F1FF2B"/>
<path d="M35.284 120.492L35.464 119.52H45.112C46.672 119.52 47.932 119.796 48.892 120.348C49.876 120.876 50.56 121.596 50.944 122.508C51.352 123.396 51.46 124.392 51.268 125.496L51.124 126.504C50.908 127.752 50.38 128.808 49.54 129.672C48.7 130.512 47.572 131.1 46.156 131.436C47.716 131.772 48.856 132.456 49.576 133.488C50.296 134.52 50.536 135.768 50.296 137.232L50.116 138.204C49.852 139.956 49.024 141.36 47.632 142.416C46.264 143.472 44.404 144 42.052 144H31.144L31.324 143.064L33.34 142.848C33.748 142.8 34 142.704 34.096 142.56C34.192 142.392 34.312 141.9 34.456 141.084L37.732 122.436C37.876 121.596 37.924 121.104 37.876 120.96C37.828 120.816 37.624 120.72 37.264 120.672L35.284 120.492ZM45.076 120.672H41.152L39.352 130.968H43.24C45.736 130.968 47.236 129.576 47.74 126.792L47.992 125.316C48.28 123.804 48.172 122.652 47.668 121.86C47.164 121.068 46.3 120.672 45.076 120.672ZM43.96 132.12H39.136L37.264 142.848H42.052C44.644 142.848 46.216 141.36 46.768 138.384L47.02 136.908C47.308 135.372 47.188 134.196 46.66 133.38C46.132 132.54 45.232 132.12 43.96 132.12Z" fill="#F1FF2B"/>
<path d="M263.536 112.064L263.356 113H254.68L254.86 112.064L256.876 111.848C257.14 111.824 257.332 111.788 257.452 111.74C257.572 111.668 257.68 111.5 257.776 111.236L259.288 102.488L255.508 91.22C255.268 90.5 255.076 90.08 254.932 89.96C254.812 89.816 254.584 89.72 254.248 89.672L252.412 89.492L252.592 88.52H261.196L261.016 89.492L259.144 89.672C258.76 89.72 258.544 89.816 258.496 89.96C258.472 90.104 258.58 90.524 258.82 91.22L261.988 101.048L268.72 91.22C269.2 90.524 269.44 90.104 269.44 89.96C269.44 89.792 269.272 89.696 268.936 89.672L267.1 89.492L267.28 88.52H274.048L273.868 89.492L271.996 89.672C271.732 89.696 271.528 89.744 271.384 89.816C271.24 89.864 271.084 89.996 270.916 90.212C270.772 90.404 270.532 90.74 270.196 91.22L262.42 102.524L261.088 110.156L261.124 110.084C260.98 110.924 260.932 111.416 260.98 111.56C261.028 111.704 261.232 111.8 261.592 111.848L263.536 112.064Z" fill="#F1FF2B"/>
<line x1="65" y1="129.5" x2="105" y2="129.5" stroke="white" stroke-width="3"/>
<line x1="204" y1="99.5" x2="240" y2="99.5" stroke="white" stroke-width="3"/>
</svg>
