<svg width="300" height="200" viewBox="0 0 300 200" fill="none" xmlns="http://www.w3.org/2000/svg">
<g clip-path="url(#clip0_606_547)">
<rect width="300" height="200" fill="black"/>
<rect x="46" y="-9" width="216" height="86" fill="url(#paint0_linear_606_547)" stroke="#00D1F6" stroke-width="2"/>
<rect opacity="0.72" x="46" y="156" width="216" height="53" fill="url(#paint1_linear_606_547)" stroke="#4C33DB" stroke-width="2"/>
<path d="M27.384 46.784L26.456 52H11.128L11.288 51.168L13.08 50.976C13.3147 50.9547 13.4853 50.9227 13.592 50.88C13.6987 50.816 13.784 50.688 13.848 50.496C13.912 50.2827 13.9867 49.92 14.072 49.408L16.984 32.832C17.112 32.0853 17.1547 31.648 17.112 31.52C17.0693 31.392 16.888 31.3067 16.568 31.264L14.808 31.104L14.968 30.24H29.912L28.984 35.456H28.152L27.832 32.096C27.8107 31.84 27.768 31.6587 27.704 31.552C27.6613 31.424 27.5333 31.3493 27.32 31.328C27.128 31.2853 26.776 31.264 26.264 31.264H20.056L18.424 40.512H22.712C23.224 40.512 23.5867 40.5013 23.8 40.48C24.0133 40.4373 24.1733 40.3627 24.28 40.256C24.3867 40.128 24.4933 39.936 24.6 39.68L25.624 37.28H26.424L25.112 44.768H24.312L24.12 42.368C24.0987 41.984 24.0133 41.7493 23.864 41.664C23.7147 41.5787 23.2667 41.536 22.52 41.536H18.232L16.568 50.976H23.16C23.672 50.976 24.0347 50.9653 24.248 50.944C24.4613 50.9013 24.6213 50.8267 24.728 50.72C24.8347 50.592 24.9413 50.4 25.048 50.144L26.552 46.784H27.384ZM35.2649 58.192C34.2025 58.192 33.3321 57.936 32.6537 57.424C31.9881 56.8992 31.5337 56.1696 31.2905 55.2352C31.0473 54.288 31.0217 53.1936 31.2137 51.952L31.4249 50.6656C31.7193 48.8352 32.3529 47.3952 33.3257 46.3456C34.3113 45.2832 35.5721 44.752 37.1081 44.752C38.0553 44.752 38.8233 44.9504 39.4121 45.3472C40.0009 45.7312 40.3977 46.2304 40.6025 46.8448C40.8073 47.4592 40.8009 48.1056 40.5833 48.784L38.8553 49.1872C39.2009 47.9584 39.2201 47.0176 38.9129 46.3648C38.6057 45.6992 37.9977 45.3664 37.0889 45.3664C36.1801 45.3664 35.4057 45.7056 34.7657 46.384C34.1257 47.0624 33.6777 48.1696 33.4217 49.7056L32.8841 52.912C32.6153 54.5376 32.6857 55.7216 33.0953 56.464C33.5049 57.2064 34.2473 57.5776 35.3225 57.5776C35.9369 57.5776 36.5193 57.392 37.0697 57.0208C37.6201 56.6496 38.0361 55.9776 38.3177 55.0048L39.5081 55.408C39.0473 56.4192 38.4393 57.136 37.6841 57.5584C36.9417 57.9808 36.1353 58.192 35.2649 58.192Z" fill="white"/>
<path d="M26.384 146.784L25.456 152H10.128L10.288 151.168L12.08 150.976C12.3147 150.955 12.4853 150.923 12.592 150.88C12.6987 150.816 12.784 150.688 12.848 150.496C12.912 150.283 12.9867 149.92 13.072 149.408L15.984 132.832C16.112 132.085 16.1547 131.648 16.112 131.52C16.0693 131.392 15.888 131.307 15.568 131.264L13.808 131.104L13.968 130.24H28.912L27.984 135.456H27.152L26.832 132.096C26.8107 131.84 26.768 131.659 26.704 131.552C26.6613 131.424 26.5333 131.349 26.32 131.328C26.128 131.285 25.776 131.264 25.264 131.264H19.056L17.424 140.512H21.712C22.224 140.512 22.5867 140.501 22.8 140.48C23.0133 140.437 23.1733 140.363 23.28 140.256C23.3867 140.128 23.4933 139.936 23.6 139.68L24.624 137.28H25.424L24.112 144.768H23.312L23.12 142.368C23.0987 141.984 23.0133 141.749 22.864 141.664C22.7147 141.579 22.2667 141.536 21.52 141.536H17.232L15.568 150.976H22.16C22.672 150.976 23.0347 150.965 23.248 150.944C23.4613 150.901 23.6213 150.827 23.728 150.72C23.8347 150.592 23.9413 150.4 24.048 150.144L25.552 146.784H26.384ZM40.0825 146.384L34.3225 158H33.0169L31.3465 146.384C31.2953 146 31.2441 145.776 31.1929 145.712C31.1545 145.635 31.0393 145.584 30.8473 145.558L29.8681 145.462L29.9641 144.944H34.4377L34.3417 145.462L33.3433 145.558C33.1385 145.584 33.0169 145.635 32.9785 145.712C32.9529 145.789 32.9657 146.013 33.0169 146.384L34.4377 156.291L39.3337 146.384C39.5257 146.013 39.6153 145.789 39.6025 145.712C39.6025 145.635 39.5001 145.584 39.2953 145.558L38.3161 145.462L38.4121 144.944H41.9641L41.8681 145.462L40.8697 145.558C40.7417 145.571 40.6393 145.597 40.5625 145.635C40.4985 145.661 40.4345 145.731 40.3705 145.846C40.3065 145.949 40.2105 146.128 40.0825 146.384Z" fill="white"/>
<path d="M137.744 123.112H136.272L136.4 122.408C136.549 121.491 136.805 120.723 137.168 120.104C137.531 119.485 137.936 118.952 138.384 118.504C138.853 118.056 139.323 117.64 139.792 117.256C140.283 116.851 140.731 116.413 141.136 115.944C141.563 115.453 141.904 114.877 142.16 114.216C142.416 113.555 142.544 112.723 142.544 111.72C142.544 110.376 142.267 109.416 141.712 108.84C141.157 108.243 140.432 107.944 139.536 107.944C138.235 107.944 137.232 108.467 136.528 109.512C135.824 110.557 135.397 112.072 135.248 114.056L132.72 113.544C132.741 112.371 132.987 111.283 133.456 110.28C133.947 109.277 134.693 108.467 135.696 107.848C136.72 107.229 138.043 106.92 139.664 106.92C141.605 106.92 143.056 107.389 144.016 108.328C144.997 109.267 145.488 110.44 145.488 111.848C145.488 112.787 145.307 113.587 144.944 114.248C144.603 114.909 144.144 115.485 143.568 115.976C143.013 116.467 142.416 116.925 141.776 117.352C141.136 117.757 140.528 118.195 139.952 118.664C139.376 119.112 138.885 119.635 138.48 120.232C138.096 120.808 137.872 121.523 137.808 122.376L137.744 123.112ZM136.144 129.32C135.611 129.32 135.195 129.181 134.896 128.904C134.597 128.627 134.448 128.232 134.448 127.72C134.448 127.165 134.629 126.696 134.992 126.312C135.355 125.928 135.835 125.736 136.432 125.736C136.944 125.736 137.349 125.875 137.648 126.152C137.968 126.429 138.128 126.824 138.128 127.336C138.128 127.891 137.947 128.36 137.584 128.744C137.221 129.128 136.741 129.32 136.144 129.32Z" fill="#F1FF2B"/>
<path d="M119 78L113.226 88L124.774 88L119 78ZM119 155L124.774 145L113.227 145L119 155ZM119 87L118 87L118 146L119 146L120 146L120 87L119 87Z" fill="#F1FF2B"/>
</g>
<defs>
<linearGradient id="paint0_linear_606_547" x1="154" y1="-10" x2="154" y2="78" gradientUnits="userSpaceOnUse">
<stop stop-color="#A3F1FF"/>
<stop offset="1" stop-color="#7CB9C4"/>
</linearGradient>
<linearGradient id="paint1_linear_606_547" x1="154" y1="155" x2="154" y2="210" gradientUnits="userSpaceOnUse">
<stop stop-color="#A6A3FF"/>
<stop offset="1" stop-color="#646299"/>
</linearGradient>
<clipPath id="clip0_606_547">
<rect width="300" height="200" fill="white"/>
</clipPath>
</defs>
</svg>
