<svg width="300" height="200" viewBox="0 0 300 200" fill="none" xmlns="http://www.w3.org/2000/svg">
<rect width="300" height="200" fill="black"/>
<path d="M37.472 112.064L37.292 113H30.344L30.524 112.064L32.504 111.848C32.768 111.824 32.972 111.788 33.116 111.74C33.26 111.668 33.392 111.512 33.512 111.272C33.656 111.032 33.86 110.636 34.124 110.084L44.888 88.52H47.156L50.36 110.084C50.48 110.9 50.588 111.392 50.684 111.56C50.78 111.704 50.996 111.8 51.332 111.848L53.276 112.064L53.132 113H44.492L44.672 112.064L46.688 111.848C47.096 111.8 47.324 111.704 47.372 111.56C47.444 111.392 47.42 110.9 47.3 110.084L46.652 105.476H37.868L35.564 110.084C35.156 110.9 34.952 111.392 34.952 111.56C34.952 111.704 35.144 111.8 35.528 111.848L37.472 112.064ZM38.444 104.324H46.472L44.672 91.796L38.444 104.324Z" fill="#F1FF2B"/>
<path d="M260.536 112.064L260.356 113H251.68L251.86 112.064L253.876 111.848C254.14 111.824 254.332 111.788 254.452 111.74C254.572 111.668 254.68 111.5 254.776 111.236L256.288 102.488L252.508 91.22C252.268 90.5 252.076 90.08 251.932 89.96C251.812 89.816 251.584 89.72 251.248 89.672L249.412 89.492L249.592 88.52H258.196L258.016 89.492L256.144 89.672C255.76 89.72 255.544 89.816 255.496 89.96C255.472 90.104 255.58 90.524 255.82 91.22L258.988 101.048L265.72 91.22C266.2 90.524 266.44 90.104 266.44 89.96C266.44 89.792 266.272 89.696 265.936 89.672L264.1 89.492L264.28 88.52H271.048L270.868 89.492L268.996 89.672C268.732 89.696 268.528 89.744 268.384 89.816C268.24 89.864 268.084 89.996 267.916 90.212C267.772 90.404 267.532 90.74 267.196 91.22L259.42 102.524L258.088 110.156L258.124 110.084C257.98 110.924 257.932 111.416 257.98 111.56C258.028 111.704 258.232 111.8 258.592 111.848L260.536 112.064Z" fill="#F1FF2B"/>
<line x1="67.5" y1="101.5" x2="102.5" y2="101.5" stroke="white" stroke-width="3" stroke-linecap="round"/>
<line x1="197.5" y1="100.5" x2="233.5" y2="100.5" stroke="white" stroke-width="3" stroke-linecap="round"/>
<circle cx="191.5" cy="100.5" r="5" stroke="white" stroke-width="3"/>
<path d="M185.864 99.8633L104.863 146.629L104.863 53.0972L185.864 99.8633Z" stroke="white" stroke-width="3"/>
</svg>
