<svg width="300" height="200" viewBox="0 0 300 200" fill="none" xmlns="http://www.w3.org/2000/svg">
<rect width="300" height="200" fill="black"/>
<rect x="46" y="17" width="216" height="106" fill="url(#paint0_linear_351_426)" stroke="#00D1F6" stroke-width="2"/>
<rect opacity="0.72" x="46" y="85" width="216" height="102" fill="url(#paint1_linear_351_426)" stroke="#4C33DB" stroke-width="2"/>
<path d="M27.384 128.784L26.456 134H11.128L11.288 133.168L13.08 132.976C13.3147 132.955 13.4853 132.923 13.592 132.88C13.6987 132.816 13.784 132.688 13.848 132.496C13.912 132.283 13.9867 131.92 14.072 131.408L16.984 114.832C17.112 114.085 17.1547 113.648 17.112 113.52C17.0693 113.392 16.888 113.307 16.568 113.264L14.808 113.104L14.968 112.24H29.912L28.984 117.456H28.152L27.832 114.096C27.8107 113.84 27.768 113.659 27.704 113.552C27.6613 113.424 27.5333 113.349 27.32 113.328C27.128 113.285 26.776 113.264 26.264 113.264H20.056L18.424 122.512H22.712C23.224 122.512 23.5867 122.501 23.8 122.48C24.0133 122.437 24.1733 122.363 24.28 122.256C24.3867 122.128 24.4933 121.936 24.6 121.68L25.624 119.28H26.424L25.112 126.768H24.312L24.12 124.368C24.0987 123.984 24.0133 123.749 23.864 123.664C23.7147 123.579 23.2667 123.536 22.52 123.536H18.232L16.568 132.976H23.16C23.672 132.976 24.0347 132.965 24.248 132.944C24.4613 132.901 24.6213 132.827 24.728 132.72C24.8347 132.592 24.9413 132.4 25.048 132.144L26.552 128.784H27.384ZM35.2649 140.192C34.2025 140.192 33.3321 139.936 32.6537 139.424C31.9881 138.899 31.5337 138.17 31.2905 137.235C31.0473 136.288 31.0217 135.194 31.2137 133.952L31.4249 132.666C31.7193 130.835 32.3529 129.395 33.3257 128.346C34.3113 127.283 35.5721 126.752 37.1081 126.752C38.0553 126.752 38.8233 126.95 39.4121 127.347C40.0009 127.731 40.3977 128.23 40.6025 128.845C40.8073 129.459 40.8009 130.106 40.5833 130.784L38.8553 131.187C39.2009 129.958 39.2201 129.018 38.9129 128.365C38.6057 127.699 37.9977 127.366 37.0889 127.366C36.1801 127.366 35.4057 127.706 34.7657 128.384C34.1257 129.062 33.6777 130.17 33.4217 131.706L32.8841 134.912C32.6153 136.538 32.6857 137.722 33.0953 138.464C33.5049 139.206 34.2473 139.578 35.3225 139.578C35.9369 139.578 36.5193 139.392 37.0697 139.021C37.6201 138.65 38.0361 137.978 38.3177 137.005L39.5081 137.408C39.0473 138.419 38.4393 139.136 37.6841 139.558C36.9417 139.981 36.1353 140.192 35.2649 140.192Z" fill="white"/>
<path d="M27.384 84.784L26.456 90H11.128L11.288 89.168L13.08 88.976C13.3147 88.9547 13.4853 88.9227 13.592 88.88C13.6987 88.816 13.784 88.688 13.848 88.496C13.912 88.2827 13.9867 87.92 14.072 87.408L16.984 70.832C17.112 70.0853 17.1547 69.648 17.112 69.52C17.0693 69.392 16.888 69.3067 16.568 69.264L14.808 69.104L14.968 68.24H29.912L28.984 73.456H28.152L27.832 70.096C27.8107 69.84 27.768 69.6587 27.704 69.552C27.6613 69.424 27.5333 69.3493 27.32 69.328C27.128 69.2853 26.776 69.264 26.264 69.264H20.056L18.424 78.512H22.712C23.224 78.512 23.5867 78.5013 23.8 78.48C24.0133 78.4373 24.1733 78.3627 24.28 78.256C24.3867 78.128 24.4933 77.936 24.6 77.68L25.624 75.28H26.424L25.112 82.768H24.312L24.12 80.368C24.0987 79.984 24.0133 79.7493 23.864 79.664C23.7147 79.5787 23.2667 79.536 22.52 79.536H18.232L16.568 88.976H23.16C23.672 88.976 24.0347 88.9653 24.248 88.944C24.4613 88.9013 24.6213 88.8267 24.728 88.72C24.8347 88.592 24.9413 88.4 25.048 88.144L26.552 84.784H27.384ZM41.0825 84.384L35.3225 96H34.0169L32.3465 84.384C32.2953 84 32.2441 83.776 32.1929 83.712C32.1545 83.6352 32.0393 83.584 31.8473 83.5584L30.8681 83.4624L30.9641 82.944H35.4377L35.3417 83.4624L34.3433 83.5584C34.1385 83.584 34.0169 83.6352 33.9785 83.712C33.9529 83.7888 33.9657 84.0128 34.0169 84.384L35.4377 94.2912L40.3337 84.384C40.5257 84.0128 40.6153 83.7888 40.6025 83.712C40.6025 83.6352 40.5001 83.584 40.2953 83.5584L39.3161 83.4624L39.4121 82.944H42.9641L42.8681 83.4624L41.8697 83.5584C41.7417 83.5712 41.6393 83.5968 41.5625 83.6352C41.4985 83.6608 41.4345 83.7312 41.3705 83.8464C41.3065 83.9488 41.2105 84.128 41.0825 84.384Z" fill="white"/>
<defs>
<linearGradient id="paint0_linear_351_426" x1="154" y1="16" x2="154" y2="124" gradientUnits="userSpaceOnUse">
<stop stop-color="#A3F1FF"/>
<stop offset="1" stop-color="#7CB9C4"/>
</linearGradient>
<linearGradient id="paint1_linear_351_426" x1="154" y1="84" x2="154" y2="188" gradientUnits="userSpaceOnUse">
<stop stop-color="#A6A3FF"/>
<stop offset="1" stop-color="#646299"/>
</linearGradient>
</defs>
</svg>
