<svg width="300" height="200" viewBox="0 0 300 200" fill="none" xmlns="http://www.w3.org/2000/svg">
<g clip-path="url(#clip0_351_443)">
<rect width="300" height="200" fill="black"/>
<rect x="46" y="-9" width="216" height="54" fill="url(#paint0_linear_351_443)" stroke="#00D1F6" stroke-width="2"/>
<rect opacity="0.72" x="46" y="156" width="216" height="53" fill="url(#paint1_linear_351_443)" stroke="#4C33DB" stroke-width="2"/>
<path d="M27.384 46.784L26.456 52H11.128L11.288 51.168L13.08 50.976C13.3147 50.9547 13.4853 50.9227 13.592 50.88C13.6987 50.816 13.784 50.688 13.848 50.496C13.912 50.2827 13.9867 49.92 14.072 49.408L16.984 32.832C17.112 32.0853 17.1547 31.648 17.112 31.52C17.0693 31.392 16.888 31.3067 16.568 31.264L14.808 31.104L14.968 30.24H29.912L28.984 35.456H28.152L27.832 32.096C27.8107 31.84 27.768 31.6587 27.704 31.552C27.6613 31.424 27.5333 31.3493 27.32 31.328C27.128 31.2853 26.776 31.264 26.264 31.264H20.056L18.424 40.512H22.712C23.224 40.512 23.5867 40.5013 23.8 40.48C24.0133 40.4373 24.1733 40.3627 24.28 40.256C24.3867 40.128 24.4933 39.936 24.6 39.68L25.624 37.28H26.424L25.112 44.768H24.312L24.12 42.368C24.0987 41.984 24.0133 41.7493 23.864 41.664C23.7147 41.5787 23.2667 41.536 22.52 41.536H18.232L16.568 50.976H23.16C23.672 50.976 24.0347 50.9653 24.248 50.944C24.4613 50.9013 24.6213 50.8267 24.728 50.72C24.8347 50.592 24.9413 50.4 25.048 50.144L26.552 46.784H27.384ZM35.2649 58.192C34.2025 58.192 33.3321 57.936 32.6537 57.424C31.9881 56.8992 31.5337 56.1696 31.2905 55.2352C31.0473 54.288 31.0217 53.1936 31.2137 51.952L31.4249 50.6656C31.7193 48.8352 32.3529 47.3952 33.3257 46.3456C34.3113 45.2832 35.5721 44.752 37.1081 44.752C38.0553 44.752 38.8233 44.9504 39.4121 45.3472C40.0009 45.7312 40.3977 46.2304 40.6025 46.8448C40.8073 47.4592 40.8009 48.1056 40.5833 48.784L38.8553 49.1872C39.2009 47.9584 39.2201 47.0176 38.9129 46.3648C38.6057 45.6992 37.9977 45.3664 37.0889 45.3664C36.1801 45.3664 35.4057 45.7056 34.7657 46.384C34.1257 47.0624 33.6777 48.1696 33.4217 49.7056L32.8841 52.912C32.6153 54.5376 32.6857 55.7216 33.0953 56.464C33.5049 57.2064 34.2473 57.5776 35.3225 57.5776C35.9369 57.5776 36.5193 57.392 37.0697 57.0208C37.6201 56.6496 38.0361 55.9776 38.3177 55.0048L39.5081 55.408C39.0473 56.4192 38.4393 57.136 37.6841 57.5584C36.9417 57.9808 36.1353 58.192 35.2649 58.192Z" fill="white"/>
<path d="M26.384 146.784L25.456 152H10.128L10.288 151.168L12.08 150.976C12.3147 150.955 12.4853 150.923 12.592 150.88C12.6987 150.816 12.784 150.688 12.848 150.496C12.912 150.283 12.9867 149.92 13.072 149.408L15.984 132.832C16.112 132.085 16.1547 131.648 16.112 131.52C16.0693 131.392 15.888 131.307 15.568 131.264L13.808 131.104L13.968 130.24H28.912L27.984 135.456H27.152L26.832 132.096C26.8107 131.84 26.768 131.659 26.704 131.552C26.6613 131.424 26.5333 131.349 26.32 131.328C26.128 131.285 25.776 131.264 25.264 131.264H19.056L17.424 140.512H21.712C22.224 140.512 22.5867 140.501 22.8 140.48C23.0133 140.437 23.1733 140.363 23.28 140.256C23.3867 140.128 23.4933 139.936 23.6 139.68L24.624 137.28H25.424L24.112 144.768H23.312L23.12 142.368C23.0987 141.984 23.0133 141.749 22.864 141.664C22.7147 141.579 22.2667 141.536 21.52 141.536H17.232L15.568 150.976H22.16C22.672 150.976 23.0347 150.965 23.248 150.944C23.4613 150.901 23.6213 150.827 23.728 150.72C23.8347 150.592 23.9413 150.4 24.048 150.144L25.552 146.784H26.384ZM40.0825 146.384L34.3225 158H33.0169L31.3465 146.384C31.2953 146 31.2441 145.776 31.1929 145.712C31.1545 145.635 31.0393 145.584 30.8473 145.558L29.8681 145.462L29.9641 144.944H34.4377L34.3417 145.462L33.3433 145.558C33.1385 145.584 33.0169 145.635 32.9785 145.712C32.9529 145.789 32.9657 146.013 33.0169 146.384L34.4377 156.291L39.3337 146.384C39.5257 146.013 39.6153 145.789 39.6025 145.712C39.6025 145.635 39.5001 145.584 39.2953 145.558L38.3161 145.462L38.4121 144.944H41.9641L41.8681 145.462L40.8697 145.558C40.7417 145.571 40.6393 145.597 40.5625 145.635C40.4985 145.661 40.4345 145.731 40.3705 145.846C40.3065 145.949 40.2105 146.128 40.0825 146.384Z" fill="white"/>
<path d="M139.744 99.112H138.272L138.4 98.408C138.549 97.4907 138.805 96.7227 139.168 96.104C139.531 95.4853 139.936 94.952 140.384 94.504C140.853 94.056 141.323 93.64 141.792 93.256C142.283 92.8507 142.731 92.4133 143.136 91.944C143.563 91.4533 143.904 90.8773 144.16 90.216C144.416 89.5547 144.544 88.7227 144.544 87.72C144.544 86.376 144.267 85.416 143.712 84.84C143.157 84.2427 142.432 83.944 141.536 83.944C140.235 83.944 139.232 84.4667 138.528 85.512C137.824 86.5573 137.397 88.072 137.248 90.056L134.72 89.544C134.741 88.3707 134.987 87.2827 135.456 86.28C135.947 85.2773 136.693 84.4667 137.696 83.848C138.72 83.2293 140.043 82.92 141.664 82.92C143.605 82.92 145.056 83.3893 146.016 84.328C146.997 85.2667 147.488 86.44 147.488 87.848C147.488 88.7867 147.307 89.5867 146.944 90.248C146.603 90.9093 146.144 91.4853 145.568 91.976C145.013 92.4667 144.416 92.9253 143.776 93.352C143.136 93.7573 142.528 94.1947 141.952 94.664C141.376 95.112 140.885 95.6347 140.48 96.232C140.096 96.808 139.872 97.5227 139.808 98.376L139.744 99.112ZM138.144 105.32C137.611 105.32 137.195 105.181 136.896 104.904C136.597 104.627 136.448 104.232 136.448 103.72C136.448 103.165 136.629 102.696 136.992 102.312C137.355 101.928 137.835 101.736 138.432 101.736C138.944 101.736 139.349 101.875 139.648 102.152C139.968 102.429 140.128 102.824 140.128 103.336C140.128 103.891 139.947 104.36 139.584 104.744C139.221 105.128 138.741 105.32 138.144 105.32Z" fill="#F1FF2B"/>
<path d="M119 46L113.226 56L124.774 56L119 46ZM119 155L124.774 145L113.227 145L119 155ZM119 55L118 55L118 146L119 146L120 146L120 55L119 55Z" fill="#F1FF2B"/>
</g>
<defs>
<linearGradient id="paint0_linear_351_443" x1="154" y1="-10" x2="154" y2="46" gradientUnits="userSpaceOnUse">
<stop stop-color="#A3F1FF"/>
<stop offset="1" stop-color="#7CB9C4"/>
</linearGradient>
<linearGradient id="paint1_linear_351_443" x1="154" y1="155" x2="154" y2="210" gradientUnits="userSpaceOnUse">
<stop stop-color="#A6A3FF"/>
<stop offset="1" stop-color="#646299"/>
</linearGradient>
<clipPath id="clip0_351_443">
<rect width="300" height="200" fill="white"/>
</clipPath>
</defs>
</svg>
