<svg width="300" height="200" viewBox="0 0 300 200" fill="none" xmlns="http://www.w3.org/2000/svg">
<g clip-path="url(#clip0_351_452)">
<rect width="300" height="200" fill="black"/>
<rect x="46" y="-8" width="216" height="79" fill="url(#paint0_linear_351_452)" stroke="#00D1F6" stroke-width="2"/>
<rect opacity="0.72" x="46" y="149" width="216" height="53" fill="url(#paint1_linear_351_452)" stroke="#4C33DB" stroke-width="2"/>
<path d="M145.384 110.784L144.456 116H129.128L129.288 115.168L131.08 114.976C131.315 114.955 131.485 114.923 131.592 114.88C131.699 114.816 131.784 114.688 131.848 114.496C131.912 114.283 131.987 113.92 132.072 113.408L134.984 96.832C135.112 96.0853 135.155 95.648 135.112 95.52C135.069 95.392 134.888 95.3067 134.568 95.264L132.808 95.104L132.968 94.24H147.912L146.984 99.456H146.152L145.832 96.096C145.811 95.84 145.768 95.6587 145.704 95.552C145.661 95.424 145.533 95.3493 145.32 95.328C145.128 95.2853 144.776 95.264 144.264 95.264H138.056L136.424 104.512H140.712C141.224 104.512 141.587 104.501 141.8 104.48C142.013 104.437 142.173 104.363 142.28 104.256C142.387 104.128 142.493 103.936 142.6 103.68L143.624 101.28H144.424L143.112 108.768H142.312L142.12 106.368C142.099 105.984 142.013 105.749 141.864 105.664C141.715 105.579 141.267 105.536 140.52 105.536H136.232L134.568 114.976H141.16C141.672 114.976 142.035 114.965 142.248 114.944C142.461 114.901 142.621 114.827 142.728 114.72C142.835 114.592 142.941 114.4 143.048 114.144L144.552 110.784H145.384ZM155.78 121.827C155.639 122.608 155.377 123.338 154.993 124.016C154.622 124.694 154.103 125.238 153.438 125.648C152.772 126.07 151.934 126.282 150.923 126.282C149.924 126.282 149.182 126.013 148.695 125.475C148.209 124.938 147.998 124.24 148.062 123.382L149.156 123.152C149.067 124.074 149.182 124.726 149.502 125.11C149.835 125.507 150.308 125.706 150.923 125.706C151.716 125.706 152.395 125.43 152.958 124.88C153.534 124.342 153.943 123.389 154.187 122.019L154.455 120.56C154.02 121.162 153.559 121.584 153.073 121.827C152.587 122.07 152.094 122.192 151.595 122.192C150.839 122.192 150.219 121.962 149.732 121.501C149.259 121.027 148.939 120.4 148.772 119.619C148.606 118.838 148.612 117.968 148.791 117.008L148.868 116.586C149.035 115.69 149.335 114.922 149.771 114.282C150.206 113.642 150.731 113.155 151.345 112.822C151.959 112.477 152.612 112.304 153.303 112.304C153.854 112.304 154.334 112.413 154.743 112.63C155.153 112.835 155.492 113.13 155.761 113.514C155.927 113.373 156.094 113.219 156.26 113.053C156.427 112.874 156.593 112.688 156.759 112.496H157.431L155.78 121.827ZM150.423 117.507C150.206 118.787 150.231 119.779 150.5 120.483C150.782 121.187 151.23 121.539 151.844 121.539C152.1 121.539 152.382 121.475 152.689 121.347C152.996 121.206 153.323 120.95 153.668 120.579C154.027 120.195 154.385 119.645 154.743 118.928L155.531 114.435C155.3 113.91 155.006 113.533 154.647 113.302C154.302 113.072 153.892 112.957 153.419 112.957C152.638 112.957 152.017 113.264 151.556 113.878C151.095 114.493 150.775 115.338 150.596 116.413L150.423 117.507Z" fill="#F1FF2B"/>
<path d="M119 72L113.226 82L124.774 82L119 72ZM119 148L124.774 138L113.227 138L119 148ZM119 81L118 81L118 139L119 139L120 139L120 81L119 81Z" fill="#F1FF2B"/>
<path d="M153.2 171.64L143.6 191H141.424L138.64 171.64C138.555 171 138.469 170.627 138.384 170.52C138.32 170.392 138.128 170.307 137.808 170.264L136.176 170.104L136.336 169.24H143.792L143.632 170.104L141.968 170.264C141.627 170.307 141.424 170.392 141.36 170.52C141.317 170.648 141.339 171.021 141.424 171.64L143.792 188.152L151.952 171.64C152.272 171.021 152.421 170.648 152.4 170.52C152.4 170.392 152.229 170.307 151.888 170.264L150.256 170.104L150.416 169.24H156.336L156.176 170.104L154.512 170.264C154.299 170.285 154.128 170.328 154 170.392C153.893 170.435 153.787 170.552 153.68 170.744C153.573 170.915 153.413 171.213 153.2 171.64ZM157.652 170.104L157.812 169.24H166.388C167.774 169.24 168.894 169.485 169.748 169.976C170.622 170.445 171.23 171.085 171.572 171.896C171.934 172.685 172.03 173.571 171.86 174.552L171.732 175.448C171.54 176.557 171.07 177.496 170.324 178.264C169.577 179.011 168.574 179.533 167.316 179.832C168.702 180.131 169.716 180.739 170.356 181.656C170.996 182.573 171.209 183.683 170.996 184.984L170.836 185.848C170.601 187.405 169.865 188.653 168.628 189.592C167.412 190.531 165.758 191 163.668 191H153.972L154.132 190.168L155.924 189.976C156.286 189.933 156.51 189.848 156.596 189.72C156.681 189.571 156.788 189.133 156.916 188.408L159.828 171.832C159.956 171.085 159.998 170.648 159.956 170.52C159.913 170.392 159.732 170.307 159.412 170.264L157.652 170.104ZM166.356 170.264H162.868L161.268 179.416H164.724C166.942 179.416 168.276 178.179 168.724 175.704L168.948 174.392C169.204 173.048 169.108 172.024 168.66 171.32C168.212 170.616 167.444 170.264 166.356 170.264ZM165.364 180.44H161.076L159.412 189.976H163.668C165.972 189.976 167.369 188.653 167.86 186.008L168.084 184.696C168.34 183.331 168.233 182.285 167.764 181.56C167.294 180.813 166.494 180.44 165.364 180.44Z" fill="white"/>
<path d="M136.504 44.32C134.733 44.32 133.283 43.8933 132.152 43.04C131.043 42.1653 130.285 40.9493 129.88 39.392C129.475 37.8133 129.432 35.9893 129.752 33.92L130.104 31.776C130.595 28.7253 131.651 26.3253 133.272 24.576C134.915 22.8053 137.016 21.92 139.576 21.92C141.155 21.92 142.435 22.2507 143.416 22.912C144.397 23.552 145.059 24.384 145.4 25.408C145.741 26.432 145.731 27.5093 145.368 28.64L142.488 29.312C143.064 27.264 143.096 25.696 142.584 24.608C142.072 23.4987 141.059 22.944 139.544 22.944C138.029 22.944 136.739 23.5093 135.672 24.64C134.605 25.7707 133.859 27.616 133.432 30.176L132.536 35.52C132.088 38.2293 132.205 40.2027 132.888 41.44C133.571 42.6773 134.808 43.296 136.6 43.296C137.624 43.296 138.595 42.9867 139.512 42.368C140.429 41.7493 141.123 40.6293 141.592 39.008L143.576 39.68C142.808 41.3653 141.795 42.56 140.536 43.264C139.299 43.968 137.955 44.32 136.504 44.32ZM149.558 23.104L149.718 22.24H158.294C159.681 22.24 160.801 22.4853 161.654 22.976C162.529 23.4453 163.137 24.0853 163.478 24.896C163.841 25.6853 163.937 26.5707 163.766 27.552L163.638 28.448C163.446 29.5573 162.977 30.496 162.23 31.264C161.483 32.0107 160.481 32.5333 159.222 32.832C160.609 33.1307 161.622 33.7387 162.262 34.656C162.902 35.5733 163.115 36.6827 162.902 37.984L162.742 38.848C162.507 40.4053 161.771 41.6533 160.534 42.592C159.318 43.5307 157.665 44 155.574 44H145.878L146.038 43.168L147.83 42.976C148.193 42.9333 148.417 42.848 148.502 42.72C148.587 42.5707 148.694 42.1333 148.822 41.408L151.734 24.832C151.862 24.0853 151.905 23.648 151.862 23.52C151.819 23.392 151.638 23.3067 151.318 23.264L149.558 23.104ZM158.262 23.264H154.774L153.174 32.416H156.63C158.849 32.416 160.182 31.1787 160.63 28.704L160.854 27.392C161.11 26.048 161.014 25.024 160.566 24.32C160.118 23.616 159.35 23.264 158.262 23.264ZM157.27 33.44H152.982L151.318 42.976H155.574C157.878 42.976 159.275 41.6533 159.766 39.008L159.99 37.696C160.246 36.3307 160.139 35.2853 159.67 34.56C159.201 33.8133 158.401 33.44 157.27 33.44Z" fill="black"/>
</g>
<defs>
<linearGradient id="paint0_linear_351_452" x1="154" y1="-9" x2="154" y2="72" gradientUnits="userSpaceOnUse">
<stop stop-color="#A3F1FF"/>
<stop offset="1" stop-color="#7CB9C4"/>
</linearGradient>
<linearGradient id="paint1_linear_351_452" x1="154" y1="148" x2="154" y2="203" gradientUnits="userSpaceOnUse">
<stop stop-color="#A6A3FF"/>
<stop offset="1" stop-color="#646299"/>
</linearGradient>
<clipPath id="clip0_351_452">
<rect width="300" height="200" fill="white"/>
</clipPath>
</defs>
</svg>
