<svg width="300" height="200" viewBox="0 0 300 200" fill="none" xmlns="http://www.w3.org/2000/svg">
<g clip-path="url(#clip0_365_472)">
<rect width="300" height="200" fill="black"/>
<path d="M40.1631 121.057C43.2229 120.991 46.0535 120.586 48.458 119.944C45.8018 119.169 42.6205 118.704 39.1787 118.691C37.5666 118.7 36.1507 118.932 35.166 119.275C34.6599 119.452 34.321 119.639 34.1289 119.798C34.0911 119.829 34.0637 119.856 34.043 119.878C34.0637 119.9 34.0909 119.928 34.1289 119.959C34.3211 120.117 34.6602 120.305 35.166 120.481C36.1689 120.831 37.6194 121.066 39.2686 121.066L40.1631 121.057ZM48.7041 87.7852C46.2477 87.1041 43.3279 86.6746 40.1631 86.6064L39.2686 86.5967C37.6195 86.5967 36.1689 86.8317 35.166 87.1816C34.6601 87.3582 34.3211 87.5456 34.1289 87.7041C34.0912 87.7352 34.0637 87.7626 34.043 87.7842C34.0637 87.8058 34.0907 87.8337 34.1289 87.8652C34.321 88.0238 34.6599 88.211 35.166 88.3877C36.1689 88.7377 37.6193 88.9726 39.2686 88.9727V88.9736C42.7772 88.9736 46.0179 88.5299 48.7041 87.7852ZM48.7031 98.4824C46.2469 97.8016 43.3274 97.3719 40.1631 97.3037L39.2686 97.2949C37.6194 97.295 36.1689 97.5299 35.166 97.8799C34.6599 98.0566 34.321 98.2438 34.1289 98.4023C34.0911 98.4336 34.0637 98.4609 34.043 98.4824C34.0637 98.504 34.0909 98.5321 34.1289 98.5635C34.3211 98.722 34.6602 98.9094 35.166 99.0859C36.1689 99.4359 37.6194 99.6709 39.2686 99.6709L40.1631 99.6611C43.3275 99.593 46.2469 99.1633 48.7031 98.4824ZM48.7041 109.181C46.2477 108.5 43.3279 108.07 40.1631 108.002L39.2686 107.992C37.6194 107.992 36.1689 108.227 35.166 108.577C34.66 108.754 34.3211 108.941 34.1289 109.1C34.0912 109.131 34.0637 109.158 34.043 109.18C34.0637 109.201 34.0908 109.229 34.1289 109.261C34.321 109.419 34.66 109.607 35.166 109.783C36.1689 110.133 37.6193 110.368 39.2686 110.368V110.369C42.7772 110.369 46.0179 109.925 48.7041 109.181ZM48.7178 77.0908C46.0346 76.3454 42.7971 75.9013 39.291 75.8994V75.9199C37.6435 75.9199 36.1942 76.1535 35.1924 76.502C34.6869 76.6778 34.3489 76.8649 34.1572 77.0225C34.1227 77.0509 34.0981 77.0774 34.0781 77.0977C34.0981 77.1179 34.1227 77.1444 34.1572 77.1729C34.3489 77.3304 34.6869 77.5166 35.1924 77.6924C36.1942 78.0408 37.6434 78.2754 39.291 78.2754C42.7968 78.2754 46.0342 77.8326 48.7178 77.0908ZM38.5957 123.054C37.042 122.999 35.6145 122.757 34.5068 122.37C33.8789 122.151 33.2987 121.867 32.8564 121.502C32.4481 121.165 32.0529 120.666 32.0049 120.012L32 119.879C32 119.159 32.4208 118.615 32.8564 118.256C33.2988 117.891 33.8786 117.606 34.5068 117.387C35.717 116.964 37.3089 116.716 39.0303 116.694V116.69C39.0785 116.69 39.1267 116.691 39.1748 116.691C39.2059 116.691 39.2373 116.69 39.2686 116.69V116.693C43.9432 116.72 48.239 117.536 51.5273 118.898C53.0168 118.257 54.1626 117.522 54.9258 116.757C55.7003 115.98 56.0303 115.228 56.0303 114.529C56.0302 113.83 55.7002 113.079 54.9258 112.302C54.2037 111.577 53.1386 110.882 51.7646 110.266C48.4472 111.582 44.053 112.369 39.2686 112.369V112.368C37.4563 112.368 35.7726 112.114 34.5068 111.672C33.8787 111.453 33.2987 111.169 32.8564 110.804C32.448 110.467 32.0527 109.968 32.0049 109.313L32 109.181C32 108.461 32.4207 107.917 32.8564 107.558C33.2987 107.193 33.8786 106.908 34.5068 106.688C35.6145 106.302 37.042 106.059 38.5957 106.004L39.2686 105.992C44.0529 105.992 48.4473 106.779 51.7646 108.095C53.1384 107.478 54.2038 106.784 54.9258 106.06C55.7001 105.283 56.0302 104.531 56.0303 103.832C56.0303 103.133 55.7002 102.381 54.9258 101.604C54.2037 100.88 53.1388 100.184 51.7646 99.5674C48.4472 100.884 44.0531 101.671 39.2686 101.671L38.5957 101.659C37.042 101.604 35.6145 101.361 34.5068 100.975C33.8788 100.755 33.2987 100.471 32.8564 100.106C32.4481 99.7694 32.0528 99.2704 32.0049 98.6162L32 98.4834C32 97.7632 32.4207 97.2199 32.8564 96.8604C33.2988 96.4953 33.8786 96.2105 34.5068 95.9912C35.6145 95.6047 37.0419 95.3614 38.5957 95.3066L39.2686 95.2949C44.0534 95.2949 48.4481 96.0811 51.7656 97.3975C53.1393 96.781 54.2039 96.0855 54.9258 95.3613C55.7003 94.5843 56.0303 93.8327 56.0303 93.1338C56.0302 92.4349 55.7002 91.6832 54.9258 90.9062C54.2037 90.1819 53.1386 89.4866 51.7646 88.8701C48.4472 90.1863 44.053 90.9736 39.2686 90.9736V90.9727C37.4562 90.9726 35.7726 90.7181 34.5068 90.2764C33.8787 90.0571 33.2987 89.7731 32.8564 89.4082C32.448 89.0711 32.0527 88.5723 32.0049 87.918L32 87.7852C32.0001 87.0651 32.4208 86.5217 32.8564 86.1621C33.2987 85.7972 33.8787 85.5122 34.5068 85.293C35.6145 84.9064 37.042 84.6631 38.5957 84.6084L39.2686 84.5967C44.0529 84.5967 48.4473 85.3831 51.7646 86.6992C53.1384 86.0827 54.2038 85.3883 54.9258 84.6641C55.7002 83.8871 56.0302 83.1354 56.0303 82.4365C56.0303 81.7376 55.7003 80.986 54.9258 80.209C54.2061 79.487 53.146 78.7928 51.7783 78.1777C48.4643 79.4895 44.0733 80.2754 39.291 80.2754C37.481 80.2754 35.7992 80.0217 34.5352 79.582C33.9079 79.3639 33.3286 79.0811 32.8867 78.7178C32.4519 78.3601 32.0304 77.8176 32.0303 77.0977C32.0304 76.3778 32.4519 75.8352 32.8867 75.4775C33.3286 75.1143 33.908 74.8314 34.5352 74.6133C35.794 74.1755 37.4671 73.922 39.2686 73.9199V73.8994C44.0608 73.8994 48.462 74.6878 51.7812 76.0078C53.1491 75.3954 54.2105 74.7062 54.9297 73.9873C55.7028 73.2144 56.0303 72.4669 56.0303 71.7744C56.0301 71.0801 55.7001 70.3232 54.9238 69.5361C54.1445 68.7461 52.9676 67.984 51.4365 67.3203C48.3776 65.9944 44.0836 65.1377 39.291 65.1377H38.291V47H-21.5V45H40.291V63.1494C44.903 63.2594 49.0963 64.1259 52.2324 65.4854C53.9111 66.213 55.3327 67.1018 56.3486 68.1318C57.3671 69.1646 58.0301 70.3982 58.0303 71.7744C58.0303 73.1529 57.3647 74.3798 56.3428 75.4014C55.7216 76.0222 54.9491 76.5875 54.0605 77.0957C54.9492 77.6061 55.7216 78.1736 56.3428 78.7969C57.3658 79.8233 58.0303 81.0542 58.0303 82.4365C58.0302 83.8188 57.3658 85.0498 56.3428 86.0762C55.7184 86.7026 54.9413 87.2728 54.0469 87.7852C54.9413 88.2975 55.7184 88.8677 56.3428 89.4941C57.3658 90.5205 58.0302 91.7515 58.0303 93.1338C58.0303 94.5161 57.3658 95.747 56.3428 96.7734C55.7184 97.3999 54.9413 97.97 54.0469 98.4824C54.9415 98.9949 55.7183 99.5659 56.3428 100.192C57.3658 101.219 58.0303 102.45 58.0303 103.832C58.0302 105.214 57.3657 106.445 56.3428 107.472C55.7184 108.098 54.9413 108.668 54.0469 109.181C54.9413 109.693 55.7184 110.263 56.3428 110.89C57.3658 111.916 58.0302 113.147 58.0303 114.529C58.0303 115.912 57.3658 117.143 56.3428 118.169C55.6595 118.854 54.7927 119.471 53.79 120.02C56.2841 121.491 58.0303 123.479 58.0303 125.881C58.0299 128.775 55.4966 131.069 52.1719 132.582C48.9824 134.033 44.718 134.945 40.0303 135.059V150.69H-22V148.69H38.0303V133.071H39.0303C43.8914 133.071 48.2439 132.172 51.3438 130.762C54.5331 129.31 56.0299 127.51 56.0303 125.881C56.0303 124.278 54.5793 122.51 51.4922 121.07C48.2085 122.322 43.923 123.066 39.2686 123.066L38.5957 123.054Z" fill="white"/>
<path d="M79 117.126C79 119.15 80.7573 120.655 82.8281 121.598C84.7594 122.476 87.2932 123.033 90.0703 123.142V132.769H128.604V130.769H92.0703V121.163H91.0703C88.1227 121.163 85.502 120.617 83.6562 119.777C81.7208 118.897 81 117.884 81 117.126C81.0003 116.399 81.6632 115.439 83.4238 114.585C85.4744 115.34 88.0965 115.781 90.9229 115.781C92.0689 115.781 93.1494 115.62 93.9785 115.331C94.3883 115.188 94.7922 114.995 95.1123 114.73C95.4257 114.472 95.7781 114.039 95.7783 113.436C95.7783 112.832 95.4258 112.399 95.1123 112.141C94.7921 111.876 94.3884 111.683 93.9785 111.54C93.185 111.263 92.1615 111.105 91.0703 111.092V111.089C91.03 111.089 90.9895 111.09 90.9492 111.09C90.9405 111.09 90.9316 111.09 90.9229 111.09V111.091C88.0815 111.107 85.4504 111.593 83.3945 112.415C82.5786 112.049 81.9674 111.645 81.5664 111.243C81.1384 110.814 81.0001 110.444 81 110.146C81.0001 109.847 81.1383 109.476 81.5664 109.047C81.943 108.669 82.5044 108.29 83.2471 107.941C85.3226 108.737 88.015 109.201 90.9229 109.201C92.069 109.201 93.1494 109.04 93.9785 108.751C94.3884 108.608 94.7921 108.415 95.1123 108.15C95.4258 107.892 95.7783 107.459 95.7783 106.855C95.7781 106.252 95.4257 105.819 95.1123 105.561C94.7922 105.296 94.3883 105.103 93.9785 104.96C93.1494 104.671 92.0689 104.51 90.9229 104.51C88.0155 104.51 85.3234 104.975 83.248 105.771C82.5048 105.422 81.9431 105.042 81.5664 104.664C81.1384 104.235 81.0001 103.865 81 103.566C81.0001 103.268 81.1383 102.897 81.5664 102.468C81.943 102.09 82.5044 101.71 83.2471 101.362C85.3226 102.157 88.015 102.622 90.9229 102.622C92.069 102.622 93.1494 102.461 93.9785 102.172C94.3884 102.029 94.7921 101.836 95.1123 101.571C95.4258 101.312 95.7783 100.88 95.7783 100.276C95.7781 99.673 95.4257 99.2402 95.1123 98.9814C94.7922 98.7173 94.3883 98.5239 93.9785 98.3809C93.1494 98.0915 92.0689 97.9307 90.9229 97.9307C88.0155 97.9307 85.3234 98.3964 83.248 99.1914C82.5048 98.8431 81.9431 98.4629 81.5664 98.085C81.1384 97.6555 81.0001 97.2854 81 96.9873C81.0001 96.6891 81.1383 96.3182 81.5664 95.8887C81.943 95.511 82.5044 95.1313 83.2471 94.7832C85.3226 95.5784 88.015 96.0429 90.9229 96.043C92.069 96.043 93.1494 95.8822 93.9785 95.5928C94.3884 95.4497 94.7921 95.2564 95.1123 94.9922C95.4258 94.7334 95.7783 94.3008 95.7783 93.6973C95.7781 93.0939 95.4257 92.6611 95.1123 92.4023C94.7922 92.1382 94.3883 91.9448 93.9785 91.8018C93.1494 91.5124 92.0689 91.3516 90.9229 91.3516C88.0155 91.3516 85.3234 91.8173 83.248 92.6123C82.5048 92.264 81.9431 91.8838 81.5664 91.5059C81.1384 91.0763 81.0001 90.7063 81 90.4082C81.0001 90.11 81.1383 89.7392 81.5664 89.3096C81.9416 88.9332 82.5005 88.5551 83.2393 88.208C85.3126 89.0003 88.0032 89.4638 90.9092 89.4639C92.0536 89.4638 93.1331 89.3045 93.9609 89.0166C94.3701 88.8743 94.7729 88.682 95.0928 88.4189C95.4058 88.1615 95.7598 87.7294 95.7598 87.125C95.7598 86.5206 95.4058 86.0885 95.0928 85.8311C94.7729 85.568 94.3701 85.3757 93.9609 85.2334C93.1366 84.9467 92.0628 84.7875 90.9238 84.7861V84.7725C88.0112 84.7725 85.3143 85.2395 83.2373 86.0371C82.4981 85.6912 81.9394 85.3142 81.5645 84.9395C81.1368 84.512 81 84.1454 81 83.8516C81 83.5558 81.1384 83.182 81.5693 82.7451C82.003 82.3054 82.6795 81.8607 83.5928 81.4648C85.4157 80.6747 88.0026 80.1544 90.9092 80.1543H91.9092V69H128.297V67H89.9092V78.1748C87.181 78.2796 84.6938 78.8081 82.7979 79.6299C81.7371 80.0897 80.8159 80.6611 80.1455 81.3408C79.4723 82.0234 79 82.8736 79 83.8516C79 84.8315 79.474 85.6783 80.1504 86.3545C80.4267 86.6306 80.7457 86.8868 81.0986 87.125C80.7459 87.364 80.4265 87.6205 80.1504 87.8975C79.4734 88.5766 79.0001 89.4266 79 90.4082C79.0001 91.3897 79.4735 92.2388 80.1504 92.918C80.4291 93.1976 80.7518 93.4562 81.1084 93.6973C80.7517 93.9381 80.4291 94.197 80.1504 94.4766C79.4734 95.1557 79.0001 96.0058 79 96.9873C79.0001 97.9688 79.4735 98.8179 80.1504 99.4971C80.4291 99.7766 80.7518 100.035 81.1084 100.276C80.7517 100.517 80.4291 100.776 80.1504 101.056C79.4734 101.735 79.0001 102.585 79 103.566C79.0001 104.548 79.4735 105.397 80.1504 106.076C80.4291 106.356 80.7518 106.614 81.1084 106.855C80.7517 107.096 80.4291 107.355 80.1504 107.635C79.4734 108.314 79.0002 109.164 79 110.146C79.0001 111.127 79.4735 111.976 80.1504 112.655C80.4679 112.974 80.8416 113.267 81.2588 113.535C79.9424 114.443 79.0002 115.645 79 117.126ZM86.8652 93.6973C87.9463 93.5042 89.1304 93.3844 90.3809 93.3574L90.9238 93.3516C91.9062 93.3516 92.7533 93.492 93.3193 93.6895C93.3261 93.6918 93.3332 93.6949 93.3398 93.6973C93.3331 93.6997 93.3262 93.7027 93.3193 93.7051C92.7533 93.9026 91.9064 94.0429 90.9238 94.043L90.3809 94.0371C89.1304 94.0101 87.9464 93.8904 86.8652 93.6973ZM86.8652 100.276C87.9463 100.083 89.1304 99.9635 90.3809 99.9365L90.9238 99.9307C91.9062 99.9307 92.7533 100.071 93.3193 100.269C93.3261 100.271 93.3332 100.274 93.3398 100.276C93.3331 100.279 93.3262 100.282 93.3193 100.284C92.7533 100.482 91.9064 100.622 90.9238 100.622L90.3809 100.616C89.1304 100.589 87.9464 100.469 86.8652 100.276ZM86.8652 106.855C87.9463 106.662 89.1304 106.543 90.3809 106.516L90.9238 106.51C91.9062 106.51 92.7533 106.65 93.3193 106.848C93.3261 106.85 93.3332 106.853 93.3398 106.855C93.3331 106.858 93.3262 106.861 93.3193 106.863C92.7533 107.061 91.9064 107.201 90.9238 107.201L90.3809 107.195C89.1304 107.168 87.9464 107.049 86.8652 106.855ZM87 113.457C88.2076 113.228 89.5416 113.097 90.9521 113.09C91.9227 113.093 92.7587 113.232 93.3193 113.428C93.3262 113.43 93.3331 113.433 93.3398 113.436C93.3332 113.438 93.3261 113.441 93.3193 113.443C92.7533 113.641 91.9062 113.781 90.9238 113.781V113.78C89.5252 113.78 88.201 113.663 87 113.457ZM86.8545 87.1191C88.0895 86.8979 89.4594 86.7733 90.9092 86.7725V86.7861C91.8911 86.7862 92.7381 86.9263 93.3037 87.123C93.3056 87.1237 93.3077 87.1243 93.3096 87.125C93.3077 87.1257 93.3056 87.1272 93.3037 87.1279C92.7381 87.3246 91.891 87.4638 90.9092 87.4639C89.4594 87.4638 88.0896 87.3389 86.8545 87.1191Z" fill="white"/>
<path d="M161.333 67.8651L120.524 67.8651L108 67.8651" stroke="white" stroke-width="2" stroke-linecap="round"/>
<path d="M186.018 82.0728L186.018 68.8933M186.018 55.7138L186.018 68.8933M186.018 68.8933L201.5 68.8933L223 68.8933L223 132.5M95 100.5L120.5 100.5L120.5 117.5C120.5 117.5 130.5 122.5 130.5 132.5C130.5 142.5 120.5 147.5 120.5 147.5L120.5 186" stroke="white" stroke-width="2" stroke-linecap="round"/>
<path d="M185.337 69.0001L163.082 81.8492L163.081 56.1508L185.337 69.0001Z" stroke="white" stroke-width="2"/>
<path d="M162.333 131.865L121.524 131.865L109 131.865" stroke="white" stroke-width="2" stroke-linecap="round"/>
<path d="M187.018 146.073L187.018 132.893M187.018 119.714L187.018 132.893M187.018 132.893L202.5 132.893L224 132.893" stroke="white" stroke-width="2" stroke-linecap="round"/>
<path d="M186.337 133L164.082 145.849L164.081 120.151L186.337 133Z" stroke="white" stroke-width="2"/>
<path d="M264.933 176V169.38V159.578L258 156.492L271 150.704L258 144.917L271 139.129L258 133.342L271 127.554L263.2 124.082V109.012V102" stroke="white" stroke-width="2"/>
<rect x="24.5" y="39.5" width="75" height="119" stroke="#87EDFF" stroke-dasharray="5 5"/>
<line x1="65" y1="80" x2="65" y2="121" stroke="white" stroke-width="2"/>
<line x1="73" y1="80" x2="73" y2="121" stroke="white" stroke-width="2"/>
<line x1="109" y1="186.5" x2="133" y2="186.5" stroke="white" stroke-width="3"/>
<line x1="113" y1="191.5" x2="129" y2="191.5" stroke="white" stroke-width="3"/>
<path d="M223.5 101.5H290.5M120.5 176H290.5" stroke="white" stroke-width="3"/>
<circle cx="291.5" cy="175.5" r="3.5" fill="#9F9F9F"/>
<circle cx="291.5" cy="101.5" r="3.5" fill="#9F9F9F"/>
</g>
<defs>
<clipPath id="clip0_365_472">
<rect width="300" height="200" fill="white"/>
</clipPath>
</defs>
</svg>
