<svg width="300" height="200" viewBox="0 0 300 200" fill="none" xmlns="http://www.w3.org/2000/svg">
<g clip-path="url(#clip0_606_468)">
<rect width="300" height="200" fill="black"/>
<rect x="46" y="-9" width="216" height="54" fill="url(#paint0_linear_606_468)" stroke="#00D1F6" stroke-width="2"/>
<rect opacity="0.72" x="46" y="156" width="216" height="53" fill="url(#paint1_linear_606_468)" stroke="#4C33DB" stroke-width="2"/>
<path d="M140.504 34.32C138.733 34.32 137.283 33.8933 136.152 33.04C135.043 32.1653 134.285 30.9493 133.88 29.392C133.475 27.8133 133.432 25.9893 133.752 23.92L134.104 21.776C134.595 18.7253 135.651 16.3253 137.272 14.576C138.915 12.8053 141.016 11.92 143.576 11.92C145.155 11.92 146.435 12.2507 147.416 12.912C148.397 13.552 149.059 14.384 149.4 15.408C149.741 16.432 149.731 17.5093 149.368 18.64L146.488 19.312C147.064 17.264 147.096 15.696 146.584 14.608C146.072 13.4987 145.059 12.944 143.544 12.944C142.029 12.944 140.739 13.5093 139.672 14.64C138.605 15.7707 137.859 17.616 137.432 20.176L136.536 25.52C136.088 28.2293 136.205 30.2027 136.888 31.44C137.571 32.6773 138.808 33.296 140.6 33.296C141.624 33.296 142.595 32.9867 143.512 32.368C144.429 31.7493 145.123 30.6293 145.592 29.008L147.576 29.68C146.808 31.3653 145.795 32.56 144.536 33.264C143.299 33.968 141.955 34.32 140.504 34.32ZM153.558 13.104L153.718 12.24H162.294C163.681 12.24 164.801 12.4853 165.654 12.976C166.529 13.4453 167.137 14.0853 167.478 14.896C167.841 15.6853 167.937 16.5707 167.766 17.552L167.638 18.448C167.446 19.5573 166.977 20.496 166.23 21.264C165.483 22.0107 164.481 22.5333 163.222 22.832C164.609 23.1307 165.622 23.7387 166.262 24.656C166.902 25.5733 167.115 26.6827 166.902 27.984L166.742 28.848C166.507 30.4053 165.771 31.6533 164.534 32.592C163.318 33.5307 161.665 34 159.574 34H149.878L150.038 33.168L151.83 32.976C152.193 32.9333 152.417 32.848 152.502 32.72C152.587 32.5707 152.694 32.1333 152.822 31.408L155.734 14.832C155.862 14.0853 155.905 13.648 155.862 13.52C155.819 13.392 155.638 13.3067 155.318 13.264L153.558 13.104ZM162.262 13.264H158.774L157.174 22.416H160.63C162.849 22.416 164.182 21.1787 164.63 18.704L164.854 17.392C165.11 16.048 165.014 15.024 164.566 14.32C164.118 13.616 163.35 13.264 162.262 13.264ZM161.27 23.44H156.982L155.318 32.976H159.574C161.878 32.976 163.275 31.6533 163.766 29.008L163.99 27.696C164.246 26.3307 164.139 25.2853 163.67 24.56C163.201 23.8133 162.401 23.44 161.27 23.44Z" fill="black"/>
<path d="M153.2 171.64L143.6 191H141.424L138.64 171.64C138.555 171 138.469 170.627 138.384 170.52C138.32 170.392 138.128 170.307 137.808 170.264L136.176 170.104L136.336 169.24H143.792L143.632 170.104L141.968 170.264C141.627 170.307 141.424 170.392 141.36 170.52C141.317 170.648 141.339 171.021 141.424 171.64L143.792 188.152L151.952 171.64C152.272 171.021 152.421 170.648 152.4 170.52C152.4 170.392 152.229 170.307 151.888 170.264L150.256 170.104L150.416 169.24H156.336L156.176 170.104L154.512 170.264C154.299 170.285 154.128 170.328 154 170.392C153.893 170.435 153.787 170.552 153.68 170.744C153.573 170.915 153.413 171.213 153.2 171.64ZM157.652 170.104L157.812 169.24H166.388C167.774 169.24 168.894 169.485 169.748 169.976C170.622 170.445 171.23 171.085 171.572 171.896C171.934 172.685 172.03 173.571 171.86 174.552L171.732 175.448C171.54 176.557 171.07 177.496 170.324 178.264C169.577 179.011 168.574 179.533 167.316 179.832C168.702 180.131 169.716 180.739 170.356 181.656C170.996 182.573 171.209 183.683 170.996 184.984L170.836 185.848C170.601 187.405 169.865 188.653 168.628 189.592C167.412 190.531 165.758 191 163.668 191H153.972L154.132 190.168L155.924 189.976C156.286 189.933 156.51 189.848 156.596 189.72C156.681 189.571 156.788 189.133 156.916 188.408L159.828 171.832C159.956 171.085 159.998 170.648 159.956 170.52C159.913 170.392 159.732 170.307 159.412 170.264L157.652 170.104ZM166.356 170.264H162.868L161.268 179.416H164.724C166.942 179.416 168.276 178.179 168.724 175.704L168.948 174.392C169.204 173.048 169.108 172.024 168.66 171.32C168.212 170.616 167.444 170.264 166.356 170.264ZM165.364 180.44H161.076L159.412 189.976H163.668C165.972 189.976 167.369 188.653 167.86 186.008L168.084 184.696C168.34 183.331 168.233 182.285 167.764 181.56C167.294 180.813 166.494 180.44 165.364 180.44Z" fill="white"/>
<line x1="-1.31134e-07" y1="129.5" x2="300" y2="129.5" stroke="white" stroke-width="3" stroke-dasharray="15 15"/>
</g>
<defs>
<linearGradient id="paint0_linear_606_468" x1="154" y1="-10" x2="154" y2="46" gradientUnits="userSpaceOnUse">
<stop stop-color="#A3F1FF"/>
<stop offset="1" stop-color="#7CB9C4"/>
</linearGradient>
<linearGradient id="paint1_linear_606_468" x1="154" y1="155" x2="154" y2="210" gradientUnits="userSpaceOnUse">
<stop stop-color="#A6A3FF"/>
<stop offset="1" stop-color="#646299"/>
</linearGradient>
<clipPath id="clip0_606_468">
<rect width="300" height="200" fill="white"/>
</clipPath>
</defs>
</svg>
