<svg width="300" height="200" viewBox="0 0 300 200" fill="none" xmlns="http://www.w3.org/2000/svg">
<rect width="300" height="200" fill="black"/>
<path d="M210 100C210 143.45 106 151 106 151C106 151 119.877 121.706 119.877 95.2058C119.877 68.7054 106 49 106 49C106 49 210 56.5499 210 100Z" stroke="white" stroke-width="3"/>
<path d="M95 151C95 151 109 121.706 109 95.2058C109 68.7054 95 49 95 49" stroke="white" stroke-width="3"/>
<line x1="59" y1="69.5" x2="106" y2="69.5" stroke="white" stroke-width="3"/>
<path d="M29.472 79.064L29.292 80H22.344L22.524 79.064L24.504 78.848C24.768 78.824 24.972 78.788 25.116 78.74C25.26 78.668 25.392 78.512 25.512 78.272C25.656 78.032 25.86 77.636 26.124 77.084L36.888 55.52H39.156L42.36 77.084C42.48 77.9 42.588 78.392 42.684 78.56C42.78 78.704 42.996 78.8 43.332 78.848L45.276 79.064L45.132 80H36.492L36.672 79.064L38.688 78.848C39.096 78.8 39.324 78.704 39.372 78.56C39.444 78.392 39.42 77.9 39.3 77.084L38.652 72.476H29.868L27.564 77.084C27.156 77.9 26.952 78.392 26.952 78.56C26.952 78.704 27.144 78.8 27.528 78.848L29.472 79.064ZM30.444 71.324H38.472L36.672 58.796L30.444 71.324Z" fill="#F1FF2B"/>
<path d="M28.284 123.492L28.464 122.52H38.112C39.672 122.52 40.932 122.796 41.892 123.348C42.876 123.876 43.56 124.596 43.944 125.508C44.352 126.396 44.46 127.392 44.268 128.496L44.124 129.504C43.908 130.752 43.38 131.808 42.54 132.672C41.7 133.512 40.572 134.1 39.156 134.436C40.716 134.772 41.856 135.456 42.576 136.488C43.296 137.52 43.536 138.768 43.296 140.232L43.116 141.204C42.852 142.956 42.024 144.36 40.632 145.416C39.264 146.472 37.404 147 35.052 147H24.144L24.324 146.064L26.34 145.848C26.748 145.8 27 145.704 27.096 145.56C27.192 145.392 27.312 144.9 27.456 144.084L30.732 125.436C30.876 124.596 30.924 124.104 30.876 123.96C30.828 123.816 30.624 123.72 30.264 123.672L28.284 123.492ZM38.076 123.672H34.152L32.352 133.968H36.24C38.736 133.968 40.236 132.576 40.74 129.792L40.992 128.316C41.28 126.804 41.172 125.652 40.668 124.86C40.164 124.068 39.3 123.672 38.076 123.672ZM36.96 135.12H32.136L30.264 145.848H35.052C37.644 145.848 39.216 144.36 39.768 141.384L40.02 139.908C40.308 138.372 40.188 137.196 39.66 136.38C39.132 135.54 38.232 135.12 36.96 135.12Z" fill="#F1FF2B"/>
<path d="M266.536 114.064L266.356 115H257.68L257.86 114.064L259.876 113.848C260.14 113.824 260.332 113.788 260.452 113.74C260.572 113.668 260.68 113.5 260.776 113.236L262.288 104.488L258.508 93.22C258.268 92.5 258.076 92.08 257.932 91.96C257.812 91.816 257.584 91.72 257.248 91.672L255.412 91.492L255.592 90.52H264.196L264.016 91.492L262.144 91.672C261.76 91.72 261.544 91.816 261.496 91.96C261.472 92.104 261.58 92.524 261.82 93.22L264.988 103.048L271.72 93.22C272.2 92.524 272.44 92.104 272.44 91.96C272.44 91.792 272.272 91.696 271.936 91.672L270.1 91.492L270.28 90.52H277.048L276.868 91.492L274.996 91.672C274.732 91.696 274.528 91.744 274.384 91.816C274.24 91.864 274.084 91.996 273.916 92.212C273.772 92.404 273.532 92.74 273.196 93.22L265.42 104.524L264.088 112.156L264.124 112.084C263.98 112.924 263.932 113.416 263.98 113.56C264.028 113.704 264.232 113.8 264.592 113.848L266.536 114.064Z" fill="#F1FF2B"/>
<line x1="59" y1="132.5" x2="102" y2="132.5" stroke="white" stroke-width="3"/>
<line x1="209" y1="100.5" x2="248" y2="100.5" stroke="white" stroke-width="3"/>
</svg>
