<svg width="300" height="200" viewBox="0 0 300 200" fill="none" xmlns="http://www.w3.org/2000/svg">
<rect width="300" height="200" fill="black"/>
<path d="M50.472 83.064L50.292 84H43.344L43.524 83.064L45.504 82.848C45.768 82.824 45.972 82.788 46.116 82.74C46.26 82.668 46.392 82.512 46.512 82.272C46.656 82.032 46.86 81.636 47.124 81.084L57.888 59.52H60.156L63.36 81.084C63.48 81.9 63.588 82.392 63.684 82.56C63.78 82.704 63.996 82.8 64.332 82.848L66.276 83.064L66.132 84H57.492L57.672 83.064L59.688 82.848C60.096 82.8 60.324 82.704 60.372 82.56C60.444 82.392 60.42 81.9 60.3 81.084L59.652 76.476H50.868L48.564 81.084C48.156 81.9 47.952 82.392 47.952 82.56C47.952 82.704 48.144 82.8 48.528 82.848L50.472 83.064ZM51.444 75.324H59.472L57.672 62.796L51.444 75.324Z" fill="#F1FF2B"/>
<path d="M49.284 111.492L49.464 110.52H59.112C60.672 110.52 61.932 110.796 62.892 111.348C63.876 111.876 64.56 112.596 64.944 113.508C65.352 114.396 65.46 115.392 65.268 116.496L65.124 117.504C64.908 118.752 64.38 119.808 63.54 120.672C62.7 121.512 61.572 122.1 60.156 122.436C61.716 122.772 62.856 123.456 63.576 124.488C64.296 125.52 64.536 126.768 64.296 128.232L64.116 129.204C63.852 130.956 63.024 132.36 61.632 133.416C60.264 134.472 58.404 135 56.052 135H45.144L45.324 134.064L47.34 133.848C47.748 133.8 48 133.704 48.096 133.56C48.192 133.392 48.312 132.9 48.456 132.084L51.732 113.436C51.876 112.596 51.924 112.104 51.876 111.96C51.828 111.816 51.624 111.72 51.264 111.672L49.284 111.492ZM59.076 111.672H55.152L53.352 121.968H57.24C59.736 121.968 61.236 120.576 61.74 117.792L61.992 116.316C62.28 114.804 62.172 113.652 61.668 112.86C61.164 112.068 60.3 111.672 59.076 111.672ZM57.96 123.12H53.136L51.264 133.848H56.052C58.644 133.848 60.216 132.36 60.768 129.384L61.02 127.908C61.308 126.372 61.188 125.196 60.66 124.38C60.132 123.54 59.232 123.12 57.96 123.12Z" fill="#F1FF2B"/>
<path d="M246.536 112.064L246.356 113H237.68L237.86 112.064L239.876 111.848C240.14 111.824 240.332 111.788 240.452 111.74C240.572 111.668 240.68 111.5 240.776 111.236L242.288 102.488L238.508 91.22C238.268 90.5 238.076 90.08 237.932 89.96C237.812 89.816 237.584 89.72 237.248 89.672L235.412 89.492L235.592 88.52H244.196L244.016 89.492L242.144 89.672C241.76 89.72 241.544 89.816 241.496 89.96C241.472 90.104 241.58 90.524 241.82 91.22L244.988 101.048L251.72 91.22C252.2 90.524 252.44 90.104 252.44 89.96C252.44 89.792 252.272 89.696 251.936 89.672L250.1 89.492L250.28 88.52H257.048L256.868 89.492L254.996 89.672C254.732 89.696 254.528 89.744 254.384 89.816C254.24 89.864 254.084 89.996 253.916 90.212C253.772 90.404 253.532 90.74 253.196 91.22L245.42 102.524L244.088 110.156L244.124 110.084C243.98 110.924 243.932 111.416 243.98 111.56C244.028 111.704 244.232 111.8 244.592 111.848L246.536 112.064Z" fill="#F1FF2B"/>
<line x1="78.5" y1="119.5" x2="106.5" y2="119.5" stroke="white" stroke-width="3" stroke-linecap="round"/>
<line x1="78.5" y1="77.5" x2="106.5" y2="77.5" stroke="white" stroke-width="3" stroke-linecap="round"/>
<line x1="199.668" y1="99.5" x2="221.668" y2="99.5" stroke="white" stroke-width="3" stroke-linecap="round"/>
<path d="M101.209 57.5625C103.979 57.7867 107.941 58.1487 112.696 58.6983C122.211 59.7981 134.881 61.6475 147.536 64.6457C160.214 67.6492 172.77 71.7811 182.123 77.4011C191.506 83.0395 197.311 89.9461 197.311 98.4244C197.311 106.903 191.505 113.809 182.122 119.447C172.77 125.067 160.214 129.199 147.536 132.202C134.881 135.201 122.211 137.051 112.696 138.151C107.941 138.7 103.98 139.061 101.209 139.286C100.621 139.333 100.086 139.374 99.6092 139.41C99.8633 138.939 100.149 138.407 100.455 137.818C101.773 135.29 103.529 131.717 105.286 127.537C108.783 119.217 112.353 108.326 112.353 98.4246C112.353 88.5232 108.782 77.6314 105.285 69.3111C103.528 65.1309 101.773 61.5578 100.455 59.0293C100.149 58.4408 99.8643 57.9094 99.6103 57.4388C100.087 57.4745 100.621 57.515 101.209 57.5625Z" stroke="white" stroke-width="3"/>
</svg>
