<svg width="300" height="200" viewBox="0 0 300 200" fill="none" xmlns="http://www.w3.org/2000/svg">
<rect width="300" height="200" fill="black"/>
<path d="M38.472 90.064L38.292 91H31.344L31.524 90.064L33.504 89.848C33.768 89.824 33.972 89.788 34.116 89.74C34.26 89.668 34.392 89.512 34.512 89.272C34.656 89.032 34.86 88.636 35.124 88.084L45.888 66.52H48.156L51.36 88.084C51.48 88.9 51.588 89.392 51.684 89.56C51.78 89.704 51.996 89.8 52.332 89.848L54.276 90.064L54.132 91H45.492L45.672 90.064L47.688 89.848C48.096 89.8 48.324 89.704 48.372 89.56C48.444 89.392 48.42 88.9 48.3 88.084L47.652 83.476H38.868L36.564 88.084C36.156 88.9 35.952 89.392 35.952 89.56C35.952 89.704 36.144 89.8 36.528 89.848L38.472 90.064ZM39.444 82.324H47.472L45.672 69.796L39.444 82.324Z" fill="#F1FF2B"/>
<path d="M37.284 107.492L37.464 106.52H47.112C48.672 106.52 49.932 106.796 50.892 107.348C51.876 107.876 52.56 108.596 52.944 109.508C53.352 110.396 53.46 111.392 53.268 112.496L53.124 113.504C52.908 114.752 52.38 115.808 51.54 116.672C50.7 117.512 49.572 118.1 48.156 118.436C49.716 118.772 50.856 119.456 51.576 120.488C52.296 121.52 52.536 122.768 52.296 124.232L52.116 125.204C51.852 126.956 51.024 128.36 49.632 129.416C48.264 130.472 46.404 131 44.052 131H33.144L33.324 130.064L35.34 129.848C35.748 129.8 36 129.704 36.096 129.56C36.192 129.392 36.312 128.9 36.456 128.084L39.732 109.436C39.876 108.596 39.924 108.104 39.876 107.96C39.828 107.816 39.624 107.72 39.264 107.672L37.284 107.492ZM47.076 107.672H43.152L41.352 117.968H45.24C47.736 117.968 49.236 116.576 49.74 113.792L49.992 112.316C50.28 110.804 50.172 109.652 49.668 108.86C49.164 108.068 48.3 107.672 47.076 107.672ZM45.96 119.12H41.136L39.264 129.848H44.052C46.644 129.848 48.216 128.36 48.768 125.384L49.02 123.908C49.308 122.372 49.188 121.196 48.66 120.38C48.132 119.54 47.232 119.12 45.96 119.12Z" fill="#F1FF2B"/>
<path d="M260.536 112.064L260.356 113H251.68L251.86 112.064L253.876 111.848C254.14 111.824 254.332 111.788 254.452 111.74C254.572 111.668 254.68 111.5 254.776 111.236L256.288 102.488L252.508 91.22C252.268 90.5 252.076 90.08 251.932 89.96C251.812 89.816 251.584 89.72 251.248 89.672L249.412 89.492L249.592 88.52H258.196L258.016 89.492L256.144 89.672C255.76 89.72 255.544 89.816 255.496 89.96C255.472 90.104 255.58 90.524 255.82 91.22L258.988 101.048L265.72 91.22C266.2 90.524 266.44 90.104 266.44 89.96C266.44 89.792 266.272 89.696 265.936 89.672L264.1 89.492L264.28 88.52H271.048L270.868 89.492L268.996 89.672C268.732 89.696 268.528 89.744 268.384 89.816C268.24 89.864 268.084 89.996 267.916 90.212C267.772 90.404 267.532 90.74 267.196 91.22L259.42 102.524L258.088 110.156L258.124 110.084C257.98 110.924 257.932 111.416 257.98 111.56C258.028 111.704 258.232 111.8 258.592 111.848L260.536 112.064Z" fill="#F1FF2B"/>
<line x1="65.5" y1="120.5" x2="100.5" y2="120.5" stroke="white" stroke-width="3" stroke-linecap="round"/>
<line x1="65.5" y1="82.5" x2="100.5" y2="82.5" stroke="white" stroke-width="3" stroke-linecap="round"/>
<line x1="199.5" y1="100.5" x2="235.5" y2="100.5" stroke="white" stroke-width="3" stroke-linecap="round"/>
<path d="M103.245 72.8997C104.885 72.8997 107.242 72.8995 110.115 72.8995C115.86 72.8995 123.667 72.8994 131.912 72.8994C148.28 72.8994 166.375 72.8999 173.495 72.8999C182.588 74.7998 188.428 78.5318 192.021 83.3192C195.646 88.1496 197.122 94.2378 197.122 101.058C197.122 107.827 195.381 113.911 191.474 118.756C187.589 123.573 181.441 127.315 172.332 129.217C161.882 129.217 144.036 129.217 128.769 129.217C121.097 129.217 114.076 129.218 108.974 129.218C106.422 129.218 104.35 129.217 102.916 129.217C102.65 129.217 102.406 129.217 102.185 129.217C102.185 128.856 102.185 128.434 102.185 127.959C102.185 126.221 102.186 123.764 102.186 120.89L102.186 81.2267C102.186 78.3531 102.186 75.896 102.186 74.1577C102.186 73.6828 102.184 73.2615 102.184 72.8999C102.494 72.8999 102.849 72.8997 103.245 72.8997Z" stroke="white" stroke-width="3"/>
</svg>
