<svg xmlns="http://www.w3.org/2000/svg" width="300" height="200" fill="none" viewBox="0 0 300 200"><path fill="#000" d="M0 0h300v200H0z"/><path stroke="#fff" stroke-width="2" d="M21 11v161h163V11"/><path fill="url(#a)" d="M22 43h161v128H22z"/><path fill="#fff" d="m191.5 46-2.887 5h5.774zm0 110 2.887-5h-5.774zm0-105.5h-.5v101h1v-101zm15.527 37.666q1.426 0 2.576.621 1.15.598 1.794 1.817.667 1.22.667 2.967V101h-2.07v-7.13q0-1.886-.943-2.875-.943-1.012-2.576-1.012-1.656 0-2.645 1.035-.966 1.035-.966 3.013V101h-2.093V83.98h2.093v6.21a4.14 4.14 0 0 1 1.702-1.495q1.104-.53 2.461-.529"/><path stroke="#63e8ff" stroke-linecap="round" stroke-width="2" d="M184.229 162.005c1.229 0 3.702-.307 17.267-.388 6.095-.036 12.548 2.076 16.436 3.246 4.18 1.006 6.194 1.624 7.12 2.241.466.31.925.617 1.398 1.396m-41.293 1.856c.144 0 4.157.306 7.333.617 4.969.487 8.581 2.315 11.37 2.784 3.15.529 4.486 2.473 7.189 3.86 4.261 2.942 7.95 5.099 11.14 7.424.545.468 1.004.775 1.478 1.554"/><path stroke="#63e8ff" stroke-linecap="round" stroke-width="2" d="M186.549 163.86c.306-.306 6.282-.31 15.557.075 6.315.262 9.33 1.93 11.731 2.322.545.076 1.005.23 1.548.308.543.079 1.155.079.394.079"/><path stroke="#63e8ff" stroke-linecap="round" stroke-width="2" d="M187.941 164.788c.306 0 .923-.153 3.916-.385 2.533-.079 7.126-.079 11.942.228 4.816.306 9.716.918 14.3 1.549m-28.766 0c-.613 0-1.388-.153-1.701-.461 7.519-.007 20.25 1.232 22.101 1.925.933.388 1.852.847 2.798.856"/><path stroke="#63e8ff" stroke-linecap="round" stroke-width="9" d="M189.797 165.716c2.454.464 7.414 1.077 9.349 1.854 2.161.868 4.097 1.236 5.955 1.856.925.308 1.858.925 2.937 1.698.619.313 1.385.466 2.637 1.552m-12.063-6.496c1.842-.77 6.477-1.392 8.809-.545 1.865.678 3.709 1.622 6.723 2.167 2.247 1.315 3.95 1.932 4.876 2.626.466.387.926.847 1.399 1.784"/><path stroke="#63e8ff" stroke-linecap="round" stroke-width="9" d="M208.819 171.748c1.077.153 3.545 1.076 5.561 2.468 1.705 2.167 2.786 3.406 3.865 4.176.619.464 1.385 1.076 2.638 2.171m-.928-11.599c.153 0 .306 0 .768.153.461.153 1.227.46 1.927.694.701.234 1.314.387 2.872 1.473m-38.509-5.104c-.153-.153-.306-.306.151-.385s1.528-.079 3.097.385"/><path stroke="#2b8e8e" stroke-linecap="round" stroke-width="3" d="M183.765 165.716c.153 0 .306 0 1.151-.076.844-.077 2.375-.23 3.7-.232 1.324-.003 2.396.151 3.5.308"/><path fill="#2b8e8e" d="M187.941 167a1.5 1.5 0 0 0-1.5 1.5 1.5 1.5 0 0 0 1.5 1.5c.221-.002.615.036.965.066l.05.005c1.904.173 4.083-1.023 6.056-.726 4.556.699 9.1 1.467 13.648 2.222l1.087.181-1.087-.181c-4.548-.755-9.092-1.523-13.648-2.222-1.966-.295-3.726-2.073-5.785-2.262l-.052-.005c-.383-.031-.721-.074-1.234-.078"/><path stroke="#2b8e8e" stroke-linecap="round" stroke-width="3" d="M199.076 162.469c.153 0 .306 0 2.222.382 1.917.383 5.591 1.149 9.377 1.937"/><path fill="#2b8e8e" d="M202.324 166.072a1.5 1.5 0 0 0-1.5 1.5 1.5 1.5 0 0 0 1.5 1.5c.01-.002.24.02.409.045 1.909.293 3.96.764 5.951 1.224l-.038-.009c.957.241 2.39-.844 3.41-.521-.995-.315-1.557-2.103-2.65-2.381l-.038-.01h-.001c-2.048-.471-4.034-.937-6.221-1.274-.24-.031-.422-.066-.822-.074"/><path stroke="#2b8e8e" stroke-linecap="round" stroke-width="3" d="M211.139 174.996c.153.153.307.306.845.691s1.457.998 2.403 1.629m5.568-8.816c.153.153.306.306 1.457 1.151 1.15.844 3.294 2.375 5.502 3.953"/><defs><linearGradient id="a" x1="102.5" x2="102.5" y1="43" y2="171" gradientUnits="userSpaceOnUse"><stop stop-color="#63e8ff"/><stop offset="1" stop-color="#306571"/></linearGradient></defs></svg>