<svg xmlns="http://www.w3.org/2000/svg" width="300" height="200" fill="none" viewBox="0 0 300 200"><path fill="#000" d="M0 0h300v200H0z"/><path stroke="#fff" stroke-width="4" d="M62 19v83h98V19"/><path fill="url(#a)" d="M64 30h94v70H64z"/><path fill="#fff" d="m51 30-5.773 10h11.547zm0 70 5.773-10H45.227zm0-61h-1v52h2V39z"/><path fill="#f9ff3f" d="M14 30 8.227 40h11.546zm0 151 5.773-10H8.226zm0-142h-1v133h2V39z"/><path fill="#fff" d="M36.153 61.182 35.024 68H33.76l2.415-14.545h1.264l-.88 5.348h.113q.511-.853 1.406-1.35.896-.504 2.138-.504 1.101 0 1.86.454.768.454 1.087 1.343.327.887.114 2.187L42.091 68H40.82l1.164-6.989q.22-1.35-.397-2.123-.612-.782-1.875-.782-.867 0-1.62.37a3.5 3.5 0 0 0-1.264 1.065q-.51.69-.675 1.64"/><path fill="#f9ff3f" d="m20.023 111 2.415-14.546h1.328l-1.108 6.67h8.252l1.109-6.67h1.328L30.932 111h-1.328l1.108-6.683h-8.253L21.35 111zm195 63 2.415-14.545h4.694q1.548 0 2.493.554.951.554 1.314 1.541.37.98.163 2.258a5.3 5.3 0 0 1-.909 2.237 4.7 4.7 0 0 1-1.818 1.527q-1.13.547-2.663.547h-3.992l.206-1.214h3.956q1.144 0 1.96-.377a3.2 3.2 0 0 0 1.307-1.072q.49-.696.646-1.648.157-.958-.106-1.669a2.03 2.03 0 0 0-.952-1.101q-.689-.39-1.839-.39h-3.331L216.351 174zm7.5-6.562 2.493 6.562h-1.527l-2.451-6.562z"/><path fill="url(#b)" d="M162 92.5v3c2.852.076 5.596.222 8.372.442 50.603 2.483 95.565 38.865 108.924 85.682.722 2.499 1.377 5.162 1.842 7.654l11.724-2.556a95 95 0 0 0-2.564-8.616c-17.412-50.676-68.042-85.93-119.746-85.61-2.845-.073-5.648-.07-8.552.004"/><path fill="url(#c)" d="M300 200h300v17H300z" transform="rotate(-180 300 200)"/><path fill="#f9ff3f" d="m158 183 10 5.774v-11.548zm125 0-10-5.774v11.548zm-116 0v1h107v-2H167z"/><path fill="url(#d)" d="M158 92h4v4h-4z"/><defs><linearGradient id="a" x1="111" x2="111" y1="30" y2="100" gradientUnits="userSpaceOnUse"><stop stop-color="#69f0ff"/><stop offset="1" stop-color="#3f9099"/></linearGradient><linearGradient id="b" x1="224.5" x2="224.5" y1="94" y2="188" gradientUnits="userSpaceOnUse"><stop stop-color="#69f0ff"/><stop offset="1" stop-color="#3f9099"/></linearGradient><linearGradient id="c" x1="444.47" x2="444.47" y1="217" y2="200" gradientUnits="userSpaceOnUse"><stop stop-color="#935b00"/><stop offset="1"/></linearGradient><linearGradient id="d" x1="162" x2="158" y1="94" y2="94" gradientUnits="userSpaceOnUse"><stop stop-color="#69f0ff"/><stop offset="1" stop-color="#439aa3"/></linearGradient></defs></svg>