<svg xmlns="http://www.w3.org/2000/svg" width="300" height="200" fill="none" viewBox="0 0 300 200"><path fill="#000" d="M0 0h300v200H0z"/><path stroke="#fff" stroke-width="10" d="M27 38v146h220V38"/><path fill="url(#a)" d="M32 64h210v115H32z"/><circle cx="137.5" cy="120.5" r="29.5" fill="url(#b)"/><path fill="#fff" d="M282.088 92.182q-1.338 0-2.293-.35-.954-.341-1.551-.937a3.7 3.7 0 0 1-.86-1.338l1.38-.81q.188.495.571.972.384.478 1.083.784.699.315 1.832.315 1.73 0 2.974-.878 1.245-.87 1.552-2.693l.46-2.949h-.137a6.2 6.2 0 0 1-.937 1.194 4.9 4.9 0 0 1-1.457.98q-.861.392-2.037.392-1.569 0-2.659-.776-1.092-.776-1.543-2.216-.452-1.449-.111-3.451.324-1.987 1.244-3.495.93-1.508 2.285-2.352a5.56 5.56 0 0 1 2.982-.844q1.203 0 1.927.426.724.418 1.099 1.04.383.622.554 1.21h.153l.41-2.497h1.482l-2.215 13.432q-.281 1.662-1.16 2.736a5.24 5.24 0 0 1-2.181 1.585q-1.296.52-2.847.52m.921-6.708q1.26 0 2.267-.605 1.014-.613 1.696-1.747.69-1.141.946-2.727.255-1.535-.026-2.719-.273-1.193-1.065-1.875-.785-.69-2.063-.69-1.32 0-2.335.707-1.005.707-1.662 1.91a8.5 8.5 0 0 0-.895 2.667q-.238 1.5.017 2.65.264 1.142 1.04 1.79.775.64 2.08.64M267 118l5.774-10h-11.548zm1-70a1 1 0 0 0-2 0zm-1 61h1V48h-2v61z"/><defs><linearGradient id="a" x1="137" x2="137" y1="64" y2="179" gradientUnits="userSpaceOnUse"><stop stop-color="#4bffff"/><stop offset="1" stop-color="#2d9999"/></linearGradient><linearGradient id="b" x1="137.5" x2="137.5" y1="91" y2="150" gradientUnits="userSpaceOnUse"><stop stop-color="#ff595c"/><stop offset="1" stop-color="#b41b1d"/></linearGradient></defs></svg>