<svg xmlns="http://www.w3.org/2000/svg" width="300" height="200" fill="none" viewBox="0 0 300 200"><g clip-path="url(#a)"><path fill="#000" d="M0 0h300v200H0z"/><path stroke="url(#b)" stroke-width="10" d="M23 39v146h124V39"/><path fill="url(#c)" d="M28 65h115v115H28z"/><circle cx="85" cy="67" r="33" fill="url(#d)"/><path fill="#fff" d="M100.184 75.012q-.792 1.656-1.872 2.412a3.84 3.84 0 0 1-2.304.756q-1.656 0-2.448-1.152t-.324-3.6l1.44-7.056q.54-2.736-.072-3.96-.576-1.224-1.836-1.224t-2.916 1.116q-1.62 1.08-3.42 4.212L84.416 78h-2.952l2.052-11.628q.504-2.736-.072-3.96t-1.836-1.224-2.916 1.116-3.456 4.32L73.22 78h-2.952l2.592-14.904q.216-1.224.144-1.44-.072-.252-.612-.324l-1.944-.18.18-.972h5.616l-.612 3.78q1.584-2.196 3.24-3.168t3.384-.972q2.016 0 3.132 1.188 1.152 1.152 1.26 3.168 1.584-2.34 3.276-3.348 1.728-1.008 3.492-1.008 2.556 0 3.672 1.764 1.152 1.764.54 4.752l-1.476 7.2q-.36 1.836-.324 2.664.036.792.72.792.612 0 1.224-.612.648-.648 1.116-2.16z"/><path stroke="url(#e)" stroke-width="10" d="M167 39v146h124V39"/><path fill="url(#f)" d="M172 65h115v115H172z"/><circle cx="234" cy="154" r="26" fill="url(#g)"/><path fill="#fff" d="m82.912 4.896 4.704-2.656h2.272l-3.36 19.168q-.192 1.088-.128 1.312.064.192.544.256l1.728.192-.16.832H80.16l.16-.832 2.432-.192q.512-.032.64-.224.16-.224.352-1.344L86.816 3.84 83.36 5.792zM238.56 17.408 237.408 24h-12.864l.32-1.696q.416-2.304 1.472-3.808a11.3 11.3 0 0 1 2.464-2.56 37 37 0 0 1 2.944-1.952 37 37 0 0 0 2.72-1.792 7.4 7.4 0 0 0 2.112-2.272q.832-1.344.832-3.392 0-1.92-.768-2.752-.737-.832-2.304-.832-2.112 0-3.2 1.6-1.088 1.568-1.312 4.512l-2.688-.512q0-1.792.8-3.296.832-1.505 2.432-2.4 1.632-.928 3.968-.928 2.143 0 3.456.704 1.344.705 1.984 1.888.64 1.185.64 2.656 0 1.824-.736 3.04a6.8 6.8 0 0 1-1.984 2.08 20 20 0 0 1-2.688 1.536 92 92 0 0 0-2.944 1.408 16.2 16.2 0 0 0-3.616 2.464q-1.6 1.472-2.24 3.904h8.128q.768 0 1.088-.032.32-.064.48-.256t.32-.544l1.504-3.36zm9.048 142.936q-.704 1.472-1.664 2.144a3.4 3.4 0 0 1-2.048.672q-1.472 0-2.176-1.024-.703-1.024-.288-3.2l1.28-6.272q.48-2.432-.064-3.52-.512-1.088-1.632-1.088t-2.592.992q-1.44.96-3.04 3.744L233.592 163h-2.624l1.824-10.336q.448-2.432-.064-3.52t-1.632-1.088-2.592.992-3.072 3.84L223.64 163h-2.624l2.304-13.248q.192-1.088.128-1.28-.064-.223-.544-.288l-1.728-.16.16-.864h4.992l-.544 3.36q1.409-1.952 2.88-2.816 1.472-.864 3.008-.864 1.792 0 2.784 1.056 1.024 1.024 1.12 2.816 1.408-2.08 2.912-2.976 1.536-.896 3.104-.896 2.273 0 3.264 1.568 1.024 1.567.48 4.224l-1.312 6.4q-.32 1.632-.288 2.368.032.704.64.704.544 0 1.088-.544.576-.576.992-1.92z"/><path stroke="#fff" stroke-dasharray="5 5" d="M0 64.517h300"/></g><defs><linearGradient id="b" x1="85" x2="85" y1="39" y2="185" gradientUnits="userSpaceOnUse"><stop stop-color="#fff"/><stop offset="1" stop-color="#999"/></linearGradient><linearGradient id="c" x1="85.5" x2="85.5" y1="65" y2="180" gradientUnits="userSpaceOnUse"><stop stop-color="#4bffff"/><stop offset="1" stop-color="#2d9999"/></linearGradient><linearGradient id="d" x1="85" x2="85" y1="34" y2="100" gradientUnits="userSpaceOnUse"><stop stop-color="#ff4242"/><stop offset="1" stop-color="#980404"/></linearGradient><linearGradient id="e" x1="229" x2="229" y1="39" y2="185" gradientUnits="userSpaceOnUse"><stop stop-color="#fff"/><stop offset="1" stop-color="#999"/></linearGradient><linearGradient id="f" x1="229.5" x2="229.5" y1="65" y2="180" gradientUnits="userSpaceOnUse"><stop stop-color="#4bffff"/><stop offset="1" stop-color="#2d9999"/></linearGradient><linearGradient id="g" x1="234" x2="234" y1="128" y2="180" gradientUnits="userSpaceOnUse"><stop stop-color="#4f42ff"/><stop offset="1" stop-color="#020463"/></linearGradient><clipPath id="a"><path fill="#fff" d="M0 0h300v200H0z"/></clipPath></defs></svg>