<svg xmlns="http://www.w3.org/2000/svg" width="300" height="200" fill="none" viewBox="0 0 300 200"><path fill="#000" d="M0 0h300v200H0z"/><circle cx="214.5" cy="102.5" r="79.5" fill="url(#a)"/><circle cx="103" cy="107" r="52" fill="url(#b)"/><path stroke="#000" d="M139 67c14.471 31.506 13.662 48.183 3.399 77"/><path fill="#f9ff3f" d="m150 112-10.743-4.234 1.705 11.42zM16 132l.148.989 125.098-18.671-.147-.989-.148-.989-125.099 18.671z"/><path fill="#000" d="m83 61-1.307 11.473 10.589-4.604zm20 46 .917-.399-16.411-37.746-.918.399-.916.398 16.411 37.747zm82-75-1.593 11.437 10.701-4.339zm30 74 .927-.376-26.619-65.659-.927.376-.926.375 26.618 65.66z"/><path fill="#f9ff3f" d="m19.818 158 2.318-13.964h4.719q1.635 0 2.59.553.961.552 1.303 1.52.348.969.143 2.209a5.26 5.26 0 0 1-.873 2.182q-.66.954-1.8 1.5-1.131.546-2.754.545h-3.818l.272-1.527h3.764q1.118 0 1.854-.327t1.146-.934.545-1.439q.137-.845-.075-1.466-.204-.627-.838-.968-.628-.348-1.76-.348h-2.972L21.509 158zm7.61-6.273 2.4 6.273h-1.964l-2.346-6.273z"/><path fill="#000" d="m70.912 100 2.182-13.09h1.474l-.34 2.01h.11q.546-.989 1.628-1.593a4.7 4.7 0 0 1 2.327-.614q.188 0 .417.009.231 0 .384.017l-.264 1.542a13 13 0 0 0-.358-.05 4 4 0 0 0-.554-.035 4.2 4.2 0 0 0-1.892.435 4.1 4.1 0 0 0-1.45 1.184 3.9 3.9 0 0 0-.75 1.73L72.43 100zm9.771 3 1.5-9.034h-.085l-2.906 1.73.247-1.415 2.915-1.747h1.431L82.048 103zm135.229-32 2.182-13.09h1.474l-.341 2.01h.111q.546-.989 1.628-1.593a4.7 4.7 0 0 1 2.327-.614q.188 0 .417.009.23 0 .384.017l-.264 1.542a14 14 0 0 0-.358-.05 4 4 0 0 0-.554-.035q-1.023 0-1.892.435a4.1 4.1 0 0 0-1.449 1.184 3.9 3.9 0 0 0-.75 1.73L217.429 71zm7.351 3 .153-1.023 4.534-3.673q.81-.648 1.321-1.133.52-.487.793-.904.273-.426.341-.895.136-.818-.409-1.33-.537-.51-1.5-.51-.981 0-1.722.553-.732.555-.869 1.415h-1.381q.222-1.337 1.355-2.216 1.142-.886 2.745-.886 1.065 0 1.798.4.741.4 1.074 1.091.332.682.196 1.534-.102.63-.435 1.194-.323.554-.989 1.201-.665.64-1.772 1.526l-3.009 2.429v.06h5.566L230.865 74z"/><defs><linearGradient id="a" x1="153" x2="256" y1="103" y2="178" gradientUnits="userSpaceOnUse"><stop stop-color="#63e8ff"/><stop offset="1" stop-color="#3c8b99"/></linearGradient><linearGradient id="b" x1="155" x2="51" y1="107" y2="107" gradientUnits="userSpaceOnUse"><stop stop-color="#63e8ff"/><stop offset="1" stop-color="#3c8b99"/></linearGradient></defs></svg>