<svg xmlns="http://www.w3.org/2000/svg" width="300" height="200" fill="none" viewBox="0 0 300 200"><g clip-path="url(#a)"><path fill="#000" d="M0 0h300v200H0z"/><path fill="url(#b)" d="M0 0h300v200H0z"/><path fill="#000" d="m213 144 5.774-10h-11.548zm0-81h-1v72h2V63zM238.227 90.91 231.264 104h-1.619l-2.6-13.09h1.577l2.046 11.087h.11l5.736-11.088z"/><circle cx="150.5" cy="100.5" r="55.5" fill="url(#c)"/><path fill="#f9ff3f" d="m123.912 123 2.182-13.091h1.474l-.341 2.011h.111q.546-.989 1.628-1.593a4.7 4.7 0 0 1 2.327-.614q.188 0 .417.009.23 0 .384.017l-.264 1.542-.358-.051a4 4 0 0 0-.554-.034q-1.023 0-1.892.435a4.1 4.1 0 0 0-1.449 1.184 3.9 3.9 0 0 0-.75 1.73L125.429 123zM95 100l10 5.774V94.227zm55 0v-1h-46v2h46z"/></g><defs><linearGradient id="b" x1="150" x2="150" y1="0" y2="200" gradientUnits="userSpaceOnUse"><stop stop-color="#69f0ff"/><stop offset="1" stop-color="#3f9099"/></linearGradient><linearGradient id="c" x1="150.5" x2="150.5" y1="45" y2="156" gradientUnits="userSpaceOnUse"><stop stop-color="#ff0a0a"/><stop offset="1" stop-color="#990606"/></linearGradient><clipPath id="a"><path fill="#fff" d="M0 0h300v200H0z"/></clipPath></defs></svg>