<svg xmlns="http://www.w3.org/2000/svg" width="300" height="200" fill="none" viewBox="0 0 300 200"><g clip-path="url(#a)"><path fill="#000" d="M0 0h300v200H0z"/><path fill="#000" d="m177.636 67 3.864-23.273h7.511q2.477 0 3.989.887 1.523.886 2.102 2.466.59 1.568.262 3.613-.341 2.023-1.455 3.58-1.102 1.557-2.909 2.443-1.807.875-4.261.875h-6.387l.33-1.943h6.329q1.83 0 3.137-.603 1.306-.602 2.091-1.715.783-1.114 1.034-2.637.25-1.535-.171-2.67-.409-1.137-1.522-1.762-1.102-.625-2.944-.625h-5.329L179.761 67zm12-10.5 3.989 10.5h-2.443l-3.921-10.5zm-34.591 87.591L153.239 155h-2.023l3.864-23.273h2.022l-1.409 8.557h.182a5.9 5.9 0 0 1 2.25-2.159q1.433-.807 3.42-.807 1.762 0 2.978.727 1.227.728 1.738 2.148.523 1.42.182 3.5L164.545 155h-2.034l1.864-11.182q.352-2.159-.636-3.398-.978-1.25-3-1.25a5.8 5.8 0 0 0-2.591.591 5.6 5.6 0 0 0-2.023 1.705q-.817 1.103-1.08 2.625"/><path fill="url(#b)" d="M224.263 28.5H208L220.91 13H236v169.5L224.263 200z"/><path stroke="#000" d="M224.263 28.5H208L220.91 13H236m-11.737 15.5L236 13m-11.737 15.5V200L236 182.5V13"/><path fill="url(#c)" d="M67 29h16v170H67z"/><path fill="url(#d)" d="M83.264 28.5H67L79.91 13H95v169.5L83.263 200z"/><path stroke="#000" d="M83.264 28.5H67L79.91 13H95M83.263 28.5 95 13M83.263 28.5V200L95 182.5V13"/><path fill="url(#e)" stroke="url(#f)" stroke-width="3" d="M85 200V78c44.731 57.278 71.543 58.718 122.78 0 .166 40.667.398 122 0 122z"/><path fill="url(#g)" d="M93.656 59.965 83 76.389c46.497 56.95 74.098 61.96 127.359 0L220 56c-55.004 48.357-80.112 54.822-126.344 3.965"/><path fill="url(#h)" d="M208 29h16v170h-16z"/><path fill="#fff" d="m9.023 70 2.415-14.545h8.416l-.2 1.193h-7.087l-.91 5.476h6.428l-.199 1.193H11.46L10.35 70zm15.135-14.545L21.743 70h-1.264l2.415-14.545zm3.948 14.794q-.987 0-1.74-.384a2.52 2.52 0 0 1-1.122-1.122q-.361-.739-.198-1.79.141-.81.54-1.364.404-.553 1.022-.909.618-.361 1.42-.568a13 13 0 0 1 1.748-.312q.922-.114 1.576-.2.654-.084 1.016-.269a.78.78 0 0 0 .433-.597l.043-.255q.185-1.115-.341-1.755-.526-.645-1.762-.646-1.178 0-2.045.526-.86.518-1.278 1.214l-1.122-.433q.51-.895 1.257-1.428a5 5 0 0 1 1.598-.774 6.2 6.2 0 0 1 1.683-.241q.624 0 1.271.163t1.158.568q.518.398.76 1.115.249.71.07 1.804L32.859 70h-1.264l.29-1.726h-.077a4.1 4.1 0 0 1-.824.938q-.519.454-1.243.745a4.4 4.4 0 0 1-1.633.292m.32-1.158q1.009 0 1.825-.447.825-.448 1.35-1.187a3.9 3.9 0 0 0 .682-1.64l.262-1.577q-.156.135-.51.242a8 8 0 0 1-.79.191q-.433.078-.873.135l-.767.1a8 8 0 0 0-1.648.355q-.696.24-1.115.667-.419.42-.525 1.08-.164.995.433 1.541.603.54 1.676.54m13.91-10-.178 1.1h-5.213l.185-1.1zm-3.154-2.614h1.272L38.68 67.152q-.113.681.057 1.072.17.384.526.547.355.157.78.157.25 0 .427-.029.184-.035.327-.07l.092 1.143q-.205.071-.49.127-.285.064-.682.064-.696 0-1.285-.305a2.03 2.03 0 0 1-.895-.91q-.306-.603-.164-1.498zM8.078 98.091l2.514-15h1.229l-.34 2.08h.148q.3-.489.774-1.008a4 4 0 0 1 1.2-.866q.725-.355 1.734-.355 1.35 0 2.237.703.894.703 1.25 1.974.362 1.272.078 2.955-.277 1.69-1.058 2.962-.782 1.271-1.91 1.981a4.5 4.5 0 0 1-2.458.71q-.987 0-1.598-.355a2.6 2.6 0 0 1-.924-.873 4.2 4.2 0 0 1-.461-1.023h-.114L9.357 98.09zm2.855-9.538q-.213 1.32 0 2.343.213 1.016.86 1.598.646.576 1.704.576a3.3 3.3 0 0 0 1.94-.597q.85-.605 1.42-1.626.568-1.023.78-2.294.2-1.257-.013-2.266-.213-1.008-.853-1.598-.639-.597-1.74-.597-1.066 0-1.917.576-.846.567-1.407 1.576-.561 1.002-.774 2.309m13.518-9.099L22.036 94h-1.264l2.414-14.546zm3.948 14.795q-.987 0-1.74-.384a2.52 2.52 0 0 1-1.122-1.122q-.361-.739-.199-1.79.142-.81.54-1.364.405-.553 1.023-.909.618-.361 1.42-.568a13 13 0 0 1 1.747-.312q.924-.113 1.577-.2.653-.084 1.016-.269a.78.78 0 0 0 .433-.597l.043-.255q.185-1.115-.341-1.755-.525-.645-1.762-.646-1.178 0-2.045.526-.86.518-1.278 1.214l-1.123-.433q.511-.895 1.258-1.428a5 5 0 0 1 1.598-.774 6.2 6.2 0 0 1 1.683-.241q.624 0 1.271.163t1.158.568q.518.398.76 1.115.249.71.07 1.804L33.152 94h-1.264l.29-1.726H32.1a4.1 4.1 0 0 1-.824.938q-.519.454-1.243.745a4.4 4.4 0 0 1-1.634.292m.32-1.158q1.008 0 1.825-.447.825-.448 1.35-1.187a3.9 3.9 0 0 0 .682-1.64l.262-1.577q-.156.135-.51.242a8 8 0 0 1-.79.191q-.433.078-.873.135l-.767.1a8 8 0 0 0-1.648.355q-.696.24-1.115.667-.42.42-.525 1.08-.165.995.433 1.541.603.54 1.676.54m13.91-10-.178 1.1h-5.213l.185-1.1zm-3.154-2.614h1.272L38.97 91.152q-.113.681.057 1.072.17.384.526.547.355.157.78.157.25 0 .427-.029.184-.035.327-.07l.092 1.143q-.205.071-.49.127-.285.064-.682.064-.696 0-1.285-.305a2.03 2.03 0 0 1-.895-.91q-.306-.603-.164-1.498zm8.472 13.75q-1.527 0-2.522-.71-.993-.717-1.392-1.981-.397-1.271-.12-2.927.276-1.647 1.093-2.926.817-1.286 2.017-2.01 1.2-.73 2.607-.731a4.2 4.2 0 0 1 1.662.327q.774.319 1.314.987.546.66.76 1.669.213 1-.014 2.372l-.1.625H44.73l.178-1.115h7.237q.178-1.05-.1-1.89a2.6 2.6 0 0 0-.944-1.328q-.66-.497-1.64-.497-1.002 0-1.897.561a5.15 5.15 0 0 0-1.506 1.463 4.8 4.8 0 0 0-.788 1.911l-.142.838q-.227 1.385.057 2.323.285.93 1.03 1.406t1.91.476q.781 0 1.414-.242a3.7 3.7 0 0 0 1.1-.646 3.6 3.6 0 0 0 .753-.902l1.13.39q-.363.69-1.023 1.272-.654.582-1.555.937-.895.348-1.996.348m15.989-8.743-1.215.313a2.5 2.5 0 0 0-.34-.88 1.65 1.65 0 0 0-.704-.626q-.454-.234-1.193-.234-1.109 0-1.91.54-.803.533-.938 1.363-.114.696.291 1.13.412.433 1.378.681l1.591.405q1.32.34 1.882 1.066.57.723.39 1.832a3.2 3.2 0 0 1-.788 1.633q-.624.711-1.605 1.115-.972.405-2.173.405-1.612 0-2.536-.724-.915-.725-.98-2.088l1.272-.284q.057.966.66 1.463.61.497 1.719.497 1.264 0 2.123-.575.86-.576.988-1.42.12-.668-.249-1.109-.361-.44-1.236-.653l-1.697-.426q-1.37-.349-1.94-1.087-.56-.745-.376-1.84.15-.901.753-1.583.604-.682 1.527-1.066a5.1 5.1 0 0 1 2.017-.39q1.506 0 2.294.682.788.675.995 1.86M144.044 75h-1.392l7.706-14.545h1.42L154.655 75h-1.392l-2.422-12.82h-.092zm1.932-5.575h7.216l-.199 1.193h-7.216z"/><path fill="#fff" d="M144.044 75h-1.392l7.706-14.545h1.42L154.655 75h-1.392l-2.422-12.82h-.092zm1.932-5.575h7.216l-.199 1.193h-7.216zM114.76 51l1.818-10.91h1.229l-.284 1.677h.092q.454-.824 1.357-1.328a3.9 3.9 0 0 1 1.939-.511q.156 0 .348.007.191 0 .319.014l-.22 1.285a11 11 0 0 0-.298-.042 3.4 3.4 0 0 0-.462-.029 3.48 3.48 0 0 0-2.784 1.35q-.483.632-.625 1.442L116.024 51z"/><path fill="#000" d="m148.023 153 2.415-14.545h4.907q1.42 0 2.287.497.866.496 1.193 1.356.334.86.142 1.953-.148.91-.561 1.556a3.6 3.6 0 0 1-1.001 1.044 4 4 0 0 1-1.257.575l-.022.114q.696.05 1.286.497.589.44.881 1.236.298.795.12 1.903a4.5 4.5 0 0 1-.824 1.967q-.632.86-1.732 1.357-1.095.49-2.657.49zm1.527-1.193h3.849q1.683 0 2.614-.746t1.129-1.875q.135-.831-.156-1.506a2.3 2.3 0 0 0-.952-1.079q-.66-.398-1.641-.398h-3.906zm1.136-6.783h3.7q.86 0 1.563-.355a3.23 3.23 0 0 0 1.754-2.408q.199-1.157-.433-1.882-.626-.73-2.124-.731h-3.579z"/><circle cx="147.5" cy="84.5" r="2.5" fill="#fff"/><circle cx="142.5" cy="131.5" r="2.5" fill="#000"/><path fill="#fff" d="m110 85 10.33-5.16-9.634-6.366zm37-56-.834-.551-32.039 48.49.834.552.835.551 32.038-48.49z"/></g><defs><linearGradient id="b" x1="222" x2="222" y1="13" y2="200" gradientUnits="userSpaceOnUse"><stop stop-color="#d9d9d9"/><stop offset="1" stop-color="#737373"/></linearGradient><linearGradient id="c" x1="75" x2="75" y1="199" y2="29" gradientUnits="userSpaceOnUse"><stop stop-color="#4b4b4b"/><stop offset="1" stop-color="#a39f9f"/></linearGradient><linearGradient id="d" x1="81" x2="81" y1="13" y2="200" gradientUnits="userSpaceOnUse"><stop stop-color="#d9d9d9"/><stop offset="1" stop-color="#737373"/></linearGradient><linearGradient id="e" x1="146.5" x2="146.5" y1="78" y2="200" gradientUnits="userSpaceOnUse"><stop stop-color="#69f0ff"/><stop offset="1" stop-color="#3f9099"/></linearGradient><linearGradient id="f" x1="146.5" x2="146.5" y1="78" y2="200" gradientUnits="userSpaceOnUse"><stop stop-color="#69f0ff"/><stop offset="1" stop-color="#3f9099"/></linearGradient><linearGradient id="g" x1="151.5" x2="151.5" y1="56" y2="121" gradientUnits="userSpaceOnUse"><stop offset=".017" stop-color="#69f0ff"/><stop offset="1" stop-color="#3f9099"/></linearGradient><linearGradient id="h" x1="216" x2="216" y1="199" y2="29" gradientUnits="userSpaceOnUse"><stop stop-color="#4b4b4b"/><stop offset="1" stop-color="#a39f9f"/></linearGradient><clipPath id="a"><path fill="#fff" d="M0 0h300v200H0z"/></clipPath></defs></svg>