<svg xmlns="http://www.w3.org/2000/svg" width="300" height="200" fill="none" viewBox="0 0 300 200"><path fill="#000" d="M0 0h300v200H0z"/><path stroke="#fff" stroke-width="2" d="M68 15v161h163V15"/><path fill="url(#a)" d="M69 47h161v128H69z"/><path fill="#fff" d="M175.027 98.166q1.426 0 2.576.621 1.15.598 1.794 1.817.667 1.22.667 2.967V111h-2.07v-7.13q0-1.886-.943-2.875-.943-1.012-2.576-1.012-1.656 0-2.645 1.035-.966 1.035-.966 3.013V111h-2.093V93.98h2.093v6.21a4.14 4.14 0 0 1 1.702-1.495q1.104-.53 2.461-.529M124.989 72.652q0-1.932.782-3.381.781-1.472 2.139-2.277 1.38-.805 3.059-.805 1.656 0 2.875.713 1.219.712 1.817 1.794v-2.3h2.116V79h-2.116v-2.346q-.621 1.105-1.863 1.84-1.219.713-2.852.713-1.679 0-3.036-.828-1.358-.828-2.139-2.323-.782-1.495-.782-3.404m10.672.023q0-1.426-.575-2.484t-1.564-1.61a4.1 4.1 0 0 0-2.139-.575q-1.173 0-2.139.552t-1.541 1.61-.575 2.484q0 1.45.575 2.53.575 1.058 1.541 1.633a4.24 4.24 0 0 0 2.139.552q1.173 0 2.139-.552a4.1 4.1 0 0 0 1.564-1.633q.575-1.08.575-2.507M127.864 135.742q.644-1.127 1.886-1.84t2.829-.713q1.702 0 3.059.805 1.357.806 2.139 2.277.782 1.449.782 3.381 0 1.909-.782 3.404t-2.162 2.323q-1.358.828-3.036.828-1.633 0-2.875-.713-1.22-.713-1.84-1.817V146h-2.093v-17.02h2.093zm8.556 3.91q0-1.426-.575-2.484t-1.564-1.61a4.24 4.24 0 0 0-2.139-.552q-1.15 0-2.139.575-.966.552-1.564 1.633-.575 1.058-.575 2.461 0 1.426.575 2.507.598 1.058 1.564 1.633a4.3 4.3 0 0 0 2.139.552q1.173 0 2.139-.552a4.1 4.1 0 0 0 1.564-1.633q.575-1.081.575-2.53M149.5 68.333a2.667 2.667 0 1 0 0 5.334 2.667 2.667 0 0 0 0-5.334m0 71a2.667 2.667 0 1 0 0 5.334 2.667 2.667 0 0 0 0-5.334m0-68.333h-.5v71h1V71z"/><defs><linearGradient id="a" x1="149.5" x2="149.5" y1="47" y2="175" gradientUnits="userSpaceOnUse"><stop stop-color="#63e8ff"/><stop offset="1" stop-color="#306571"/></linearGradient></defs></svg>