<svg xmlns="http://www.w3.org/2000/svg" width="300" height="200" fill="none" viewBox="0 0 300 200"><path fill="#000" d="M0 0h300v200H0z"/><path stroke="#fff" stroke-dasharray="5 5" stroke-width="2" d="m40.635 93.228 118 97m73.164-95.627-73 97M263.817 42.576l-105 149M99.926 45.623l59 145"/><path fill="url(#a)" d="M98.5 41.5c-25.41-.745-38.824 13.894-62 53.5 79.227-48.95 122.303-51.998 196 0 10.533-47.8 18.31-54.844 33.5-53.5-67.544-28.244-104.388-30.516-167.5 0" opacity=".87"/><path fill="#fff" d="m73.912 165 2.182-13.091h1.474l-.34 2.011h.11q.546-.988 1.628-1.593a4.7 4.7 0 0 1 2.327-.614q.188 0 .417.009.231 0 .384.017l-.264 1.542a16 16 0 0 0-.358-.051 4 4 0 0 0-.554-.034q-1.023 0-1.892.435a4.1 4.1 0 0 0-1.45 1.184 3.9 3.9 0 0 0-.75 1.73L75.43 165zm9.771 3 1.5-9.034h-.085l-2.906 1.73.247-1.415 2.915-1.747h1.431L85.048 168zm21.229-55 2.182-13.09h1.474l-.341 2.01h.111q.546-.989 1.628-1.593a4.67 4.67 0 0 1 2.327-.614q.188 0 .417.009.23 0 .384.017l-.264 1.542-.358-.051a4 4 0 0 0-.554-.034q-1.023 0-1.892.435a4.1 4.1 0 0 0-1.449 1.184 3.9 3.9 0 0 0-.75 1.73L106.429 113zm7.351 3 .153-1.023 4.534-3.673q.81-.648 1.321-1.134.52-.485.793-.903a2.25 2.25 0 0 0 .341-.895q.136-.818-.409-1.329-.537-.512-1.5-.512-.981 0-1.722.554-.732.555-.869 1.415h-1.381q.222-1.338 1.355-2.216 1.142-.886 2.745-.886 1.065 0 1.798.4.741.4 1.074 1.091.332.682.196 1.534a3.4 3.4 0 0 1-.435 1.193q-.323.555-.989 1.202-.665.64-1.772 1.526l-3.009 2.429v.059h5.566l-.188 1.168z"/><defs><linearGradient id="a" x1="36.5" x2="266" y1="57.228" y2="57.228" gradientUnits="userSpaceOnUse"><stop stop-color="#63e8ff"/><stop offset="1" stop-color="#3c8b99"/></linearGradient></defs></svg>