<svg xmlns="http://www.w3.org/2000/svg" width="300" height="200" fill="none" viewBox="0 0 300 200"><path fill="#000" d="M0 0h300v200H0z"/><circle cx="144" cy="97" r="92" fill="url(#a)"/><path stroke="#fff" stroke-dasharray="5 5" stroke-width="2" d="M53 97.5c24.97 32.325 135.69 39.336 183 3.5"/><path stroke="#000" d="m144.771 97.556 91-47"/><path fill="#000" d="m177.636 67 3.864-23.273h7.511q2.477 0 3.989.887 1.523.886 2.102 2.466.59 1.568.262 3.613-.341 2.023-1.455 3.58-1.102 1.557-2.909 2.443-1.807.875-4.261.875h-6.387l.33-1.943h6.329q1.83 0 3.137-.603 1.306-.602 2.091-1.715.783-1.114 1.034-2.637.25-1.535-.171-2.67-.409-1.137-1.522-1.762-1.102-.625-2.944-.625h-5.329L179.761 67zm12-10.5 3.989 10.5h-2.443l-3.921-10.5z"/><path stroke="#fff" stroke-dasharray="5 5" stroke-width="2" d="M53 101.961c24.97-32.324 135.69-39.336 183-3.5" opacity=".69"/><defs><linearGradient id="a" x1="144" x2="144" y1="189" y2="5" gradientUnits="userSpaceOnUse"><stop stop-color="#11b4be"/><stop offset="1" stop-color="#bdfbff"/></linearGradient></defs></svg>