<svg xmlns="http://www.w3.org/2000/svg" width="300" height="200" fill="none" viewBox="0 0 300 200"><path fill="#000" d="M0 0h300v200H0z"/><path stroke="#fff" stroke-width="3" d="M21 11v161h163V11"/><path fill="url(#a)" d="M22 43h161v128H22z"/><path fill="#fff" d="m194 43-5.774 10h11.548zm0 115 5.773-10h-11.547zm0-106h-1v97h2V52zm23.816 51.344q-.704 1.472-1.664 2.144a3.4 3.4 0 0 1-2.048.672q-1.44 0-2.176-.992-.704-1.024-.256-3.232l1.248-6.272q.512-2.432-.032-3.52t-1.792-1.088q-.768 0-1.728.416-.928.416-1.984 1.472-1.056 1.024-2.144 2.944L203.448 106h-2.624l3.712-21.088q.192-1.088.128-1.28-.064-.224-.544-.288l-1.76-.16.16-.864h5.088l-1.952 11.104q1.408-1.92 2.944-2.752t3.072-.832q2.336 0 3.392 1.568t.512 4.224l-1.312 6.4q-.32 1.632-.288 2.368.032.704.64.704.512 0 1.088-.544.576-.576.992-1.92zm27.392 51.816q-1.184 0-1.888-.704-.672-.737-.736-2.208-1.088 1.697-2.336 2.4-1.248.672-2.56.672-1.888 0-3.072-1.152-1.184-1.184-1.6-3.136t.032-4.352l.128-.704q.416-2.24 1.472-3.84 1.088-1.6 2.624-2.432a6.56 6.56 0 0 1 3.264-.864q1.344 0 2.336.544a4.25 4.25 0 0 1 1.664 1.472q.448-.352.864-.8l.832-.896h1.12L245.4 150.2q-.416 2.368-.32 3.136t.608.768q.48 0 1.024-.544.576-.576 1.024-1.92l1.12.704q-.703 1.472-1.632 2.144t-2.016.672m-9.44-7.648q-.544 3.2.128 4.96.703 1.76 2.208 1.76.608 0 1.376-.32.768-.352 1.6-1.28.864-.96 1.76-2.752l1.312-7.552q-.576-1.248-1.44-1.824-.832-.576-1.984-.576-1.952 0-3.104 1.536-1.12 1.536-1.568 4.224zM103.864 30.168l-.16.832h-6.176l.16-.832 1.76-.192q.352-.032.544-.096.192-.096.352-.416.192-.32.544-1.056l9.568-19.168h2.016l2.848 19.168q.16 1.088.288 1.312.127.192.576.256l1.728.192-.128.832h-7.68l.16-.832 1.792-.192q.544-.064.608-.256.096-.225-.064-1.312l-.576-4.096h-7.808l-2.048 4.096q-.544 1.088-.544 1.312 0 .192.512.256zm.864-6.88h7.136l-1.6-11.136z"/><path stroke="#63e8ff" stroke-linecap="round" stroke-width="2" d="M184.229 162.005c1.229 0 3.702-.307 17.267-.388 6.095-.036 12.548 2.076 16.436 3.246 4.18 1.006 6.194 1.624 7.12 2.241.466.31.925.617 1.398 1.396m-41.293 1.856c.144 0 4.157.306 7.333.617 4.969.487 8.581 2.315 11.37 2.784 3.15.529 4.486 2.473 7.189 3.86 4.261 2.942 7.95 5.099 11.14 7.424.545.468 1.004.775 1.478 1.554"/><path stroke="#63e8ff" stroke-linecap="round" stroke-width="2" d="M186.549 163.86c.306-.306 6.282-.31 15.557.075 6.315.262 9.33 1.93 11.731 2.322.546.076 1.005.23 1.548.308.543.079 1.155.079.394.079"/><path stroke="#63e8ff" stroke-linecap="round" stroke-width="2" d="M187.941 164.788c.306 0 .923-.153 3.916-.385 2.533-.079 7.126-.079 11.942.228 4.816.306 9.716.918 14.3 1.549m-28.766 0c-.613 0-1.388-.153-1.701-.461 7.519-.007 20.25 1.232 22.101 1.925.933.388 1.852.847 2.798.856"/><path stroke="#63e8ff" stroke-linecap="round" stroke-width="9" d="M189.797 165.716c2.454.464 7.414 1.077 9.349 1.854 2.161.868 4.097 1.236 5.955 1.856.925.308 1.858.925 2.937 1.698.619.313 1.385.466 2.637 1.552m-12.063-6.496c1.842-.77 6.477-1.392 8.809-.545 1.865.678 3.709 1.622 6.723 2.167 2.248 1.315 3.95 1.932 4.876 2.626.466.387.926.847 1.399 1.784"/><path stroke="#63e8ff" stroke-linecap="round" stroke-width="9" d="M208.819 171.748c1.077.153 3.545 1.076 5.561 2.468 1.705 2.167 2.786 3.406 3.865 4.176.619.464 1.385 1.076 2.638 2.171m-.928-11.599c.153 0 .306 0 .768.153.461.153 1.227.46 1.928.694s1.313.387 2.872 1.473m-38.51-5.104c-.153-.153-.307-.306.151-.385s1.528-.079 3.097.385"/><path stroke="#2b8e8e" stroke-linecap="round" stroke-width="3" d="M183.765 165.716c.153 0 .306 0 1.151-.076.844-.077 2.375-.23 3.7-.232 1.324-.003 2.396.151 3.5.308"/><path fill="#2b8e8e" d="M187.941 167a1.5 1.5 0 0 0-1.5 1.5 1.5 1.5 0 0 0 1.5 1.5c.221-.002.615.036.965.066l.05.005c1.904.173 4.083-1.023 6.056-.726 4.556.699 9.1 1.467 13.648 2.222l1.087.181-1.087-.181c-4.548-.755-9.092-1.523-13.648-2.222-1.966-.295-3.726-2.073-5.785-2.262l-.052-.005c-.383-.031-.721-.074-1.234-.078"/><path stroke="#2b8e8e" stroke-linecap="round" stroke-width="3" d="M199.076 162.469c.153 0 .306 0 2.222.382 1.917.383 5.591 1.149 9.377 1.937"/><path fill="#2b8e8e" d="M202.324 166.072a1.5 1.5 0 0 0-1.5 1.5 1.5 1.5 0 0 0 1.5 1.5c.01-.002.24.02.409.045 1.909.293 3.96.764 5.951 1.224l-.038-.009c.957.241 2.39-.844 3.41-.521-.995-.315-1.557-2.103-2.65-2.381l-.038-.01h-.001c-2.048-.471-4.034-.937-6.221-1.274-.24-.031-.422-.066-.822-.074"/><path stroke="#2b8e8e" stroke-linecap="round" stroke-width="3" d="M211.139 174.996c.153.153.307.306.845.691s1.457.998 2.403 1.629m5.568-8.816c.153.153.306.306 1.457 1.151 1.15.844 3.294 2.375 5.502 3.953"/><defs><linearGradient id="a" x1="102.5" x2="102.5" y1="43" y2="171" gradientUnits="userSpaceOnUse"><stop stop-color="#63e8ff"/><stop offset="1" stop-color="#306571"/></linearGradient></defs></svg>