<svg xmlns="http://www.w3.org/2000/svg" width="300" height="200" fill="none" viewBox="0 0 300 200"><g clip-path="url(#a)"><path fill="#000" d="M0 0h300v200H0z"/><path stroke="#000" d="m144.771 97.556 91-47"/><path fill="#000" d="m177.636 67 3.864-23.273h7.511q2.477 0 3.989.887 1.523.886 2.102 2.466.59 1.568.262 3.613-.341 2.023-1.455 3.58-1.102 1.557-2.909 2.443-1.807.875-4.261.875h-6.387l.33-1.943h6.329q1.83 0 3.137-.603 1.306-.602 2.091-1.715.783-1.114 1.034-2.637.25-1.535-.171-2.67-.409-1.137-1.522-1.762-1.102-.625-2.944-.625h-5.329L179.761 67zm12-10.5 3.989 10.5h-2.443l-3.921-10.5z"/><path fill="url(#b)" d="M197 30h49v170h-49z"/><path fill="url(#c)" d="M0 83h197v117H0z"/><path fill="#000" d="m186 87-5.774 10h11.548zm0 113 5.773-10h-11.547zm0-104h-1v95h2V96z"/><path fill="#fff" d="m229 8-11.493-1.118 4.778 10.512zm-33 15 11.493 1.118-4.778-10.512zm24.807-11.276-.414-.91-16.614 7.551.414.91.414.911 16.614-7.551z"/><path fill="#000" d="M155.045 144.091 153.239 155h-2.023l3.864-23.273h2.022l-1.409 8.557h.182a5.9 5.9 0 0 1 2.25-2.159q1.433-.807 3.42-.807 1.762 0 2.978.727 1.227.728 1.738 2.148.523 1.42.182 3.5L164.545 155h-2.034l1.864-11.182q.352-2.159-.636-3.398-.978-1.25-3-1.25a5.8 5.8 0 0 0-2.591.591 5.6 5.6 0 0 0-2.023 1.705q-.817 1.103-1.08 2.625"/><path fill="#fff" d="m170.091 28-2.364-17.454h2.125l1.739 14.397h.148l6.522-14.397h2.148l1.693 14.363h.159l6.523-14.363h2.159L182.761 28h-2.091l-1.772-14.284h-.216L172.182 28z"/><path fill="url(#d)" d="M244.5 30H196l38.5-15.5h45V184l-35 17.5z"/><path stroke="#000" d="M244.5 30H196l38.5-15.5h45m-35 15.5 35-15.5m-35 15.5v171.5l35-17.5V14.5"/><path fill="url(#e)" d="M0 67h197v16H0z"/></g><defs><linearGradient id="b" x1="221.5" x2="221.5" y1="200" y2="30" gradientUnits="userSpaceOnUse"><stop stop-color="#4b4b4b"/><stop offset="1" stop-color="#a39f9f"/></linearGradient><linearGradient id="c" x1="98.5" x2="98.5" y1="83" y2="200" gradientUnits="userSpaceOnUse"><stop stop-color="#69f0ff"/><stop offset="1" stop-color="#3f9099"/></linearGradient><linearGradient id="d" x1="237.75" x2="237.75" y1="14.5" y2="201.5" gradientUnits="userSpaceOnUse"><stop stop-color="#d9d9d9"/><stop offset="1" stop-color="#737373"/></linearGradient><linearGradient id="e" x1="0" x2="197" y1="75" y2="75" gradientUnits="userSpaceOnUse"><stop stop-color="#48d9fa"/><stop offset="1" stop-color="#2b8194"/></linearGradient><clipPath id="a"><path fill="#fff" d="M0 0h300v200H0z"/></clipPath></defs></svg>