<svg xmlns="http://www.w3.org/2000/svg" width="300" height="200" fill="none" viewBox="0 0 300 200"><path fill="#000" d="M0 0h300v200H0z"/><path fill="url(#a)" d="M81.5 77.5H30V176h90.5l37.5-38h113.5v-22.5h-47v-45H206v45h-48l-37.5-38h-19V18h-20z"/><path stroke="#fff" stroke-width="4" d="M28 76h93.5l37.5 37.5h116m-247 63h93.5L159 139h116M82 11v65m21-65v65m103-65v103m20-103v103"/><path fill="url(#b)" d="M84 74h17v4H84z"/><path fill="url(#c)" d="M208 111h16v5h-16z"/><path fill="#fff" d="M188 18.5a.5.5 0 0 0 0-1zm-87-.5v.5h.989v-1H101zm2.966 0v.5h1.977v-1h-1.977zm3.954 0v.5h1.978v-1h-1.978zm3.955 0v.5h1.977v-1h-1.977zm3.955 0v.5h1.977v-1h-1.977zm3.954 0v.5h1.977v-1h-1.977zm3.955 0v.5h1.977v-1h-1.977zm3.954 0v.5h1.977v-1h-1.977zm3.955 0v.5h1.977v-1h-1.977zm3.954 0v.5h1.978v-1h-1.978zm3.955 0v.5h1.977v-1h-1.977zm3.954 0v.5h1.978v-1h-1.978zm3.955 0v.5h1.977v-1h-1.977zm3.954 0v.5h1.978v-1h-1.978zm3.955 0v.5h1.977v-1h-1.977zm3.955 0v.5h1.977v-1h-1.977zm3.954 0v.5h1.977v-1h-1.977zm3.955 0v.5h1.977v-1h-1.977zm3.954 0v.5h1.977v-1h-1.977zm3.955 0v.5h1.977v-1h-1.977zm3.954 0v.5h1.978v-1h-1.978zm3.955 0v.5h1.977v-1h-1.977zm3.954 0v.5H188v-1h-.989zm.989.5a.5.5 0 0 0 0-1zm-87-.5v.5h.989v-1H101zm2.966 0v.5h1.977v-1h-1.977zm3.954 0v.5h1.978v-1h-1.978zm3.955 0v.5h1.977v-1h-1.977zm3.955 0v.5h1.977v-1h-1.977zm3.954 0v.5h1.977v-1h-1.977zm3.955 0v.5h1.977v-1h-1.977zm3.954 0v.5h1.977v-1h-1.977zm3.955 0v.5h1.977v-1h-1.977zm3.954 0v.5h1.978v-1h-1.978zm3.955 0v.5h1.977v-1h-1.977zm3.954 0v.5h1.978v-1h-1.978zm3.955 0v.5h1.977v-1h-1.977zm3.954 0v.5h1.978v-1h-1.978zm3.955 0v.5h1.977v-1h-1.977zm3.955 0v.5h1.977v-1h-1.977zm3.954 0v.5h1.977v-1h-1.977zm3.955 0v.5h1.977v-1h-1.977zm3.954 0v.5h1.977v-1h-1.977zm3.955 0v.5h1.977v-1h-1.977zm3.954 0v.5h1.978v-1h-1.978zm3.955 0v.5h1.977v-1h-1.977zm3.954 0v.5H188v-1h-.989zM204 71.5a.5.5 0 0 0 0-1zm-87-.5v.5h.989v-1H117zm2.966 0v.5h1.977v-1h-1.977zm3.954 0v.5h1.978v-1h-1.978zm3.955 0v.5h1.977v-1h-1.977zm3.955 0v.5h1.977v-1h-1.977zm3.954 0v.5h1.977v-1h-1.977zm3.955 0v.5h1.977v-1h-1.977zm3.954 0v.5h1.977v-1h-1.977zm3.955 0v.5h1.977v-1h-1.977zm3.954 0v.5h1.978v-1h-1.978zm3.955 0v.5h1.977v-1h-1.977zm3.954 0v.5h1.978v-1h-1.978zm3.955 0v.5h1.977v-1h-1.977zm3.954 0v.5h1.978v-1h-1.978zm3.955 0v.5h1.977v-1h-1.977zm3.955 0v.5h1.977v-1h-1.977zm3.954 0v.5h1.977v-1h-1.977zm3.955 0v.5h1.977v-1h-1.977zm3.954 0v.5h1.977v-1h-1.977zm3.955 0v.5h1.977v-1h-1.977zm3.954 0v.5h1.978v-1h-1.978zm3.955 0v.5h1.977v-1h-1.977zm3.954 0v.5H204v-1h-.989zm.989.5a.5.5 0 0 0 0-1zm-87-.5v.5h.989v-1H117zm2.966 0v.5h1.977v-1h-1.977zm3.954 0v.5h1.978v-1h-1.978zm3.955 0v.5h1.977v-1h-1.977zm3.955 0v.5h1.977v-1h-1.977zm3.954 0v.5h1.977v-1h-1.977zm3.955 0v.5h1.977v-1h-1.977zm3.954 0v.5h1.977v-1h-1.977zm3.955 0v.5h1.977v-1h-1.977zm3.954 0v.5h1.978v-1h-1.978zm3.955 0v.5h1.977v-1h-1.977zm3.954 0v.5h1.978v-1h-1.978zm3.955 0v.5h1.977v-1h-1.977zm3.954 0v.5h1.978v-1h-1.978zm3.955 0v.5h1.977v-1h-1.977zm3.955 0v.5h1.977v-1h-1.977zm3.954 0v.5h1.977v-1h-1.977zm3.955 0v.5h1.977v-1h-1.977zm3.954 0v.5h1.977v-1h-1.977zm3.955 0v.5h1.977v-1h-1.977zm3.954 0v.5h1.978v-1h-1.978zm3.955 0v.5h1.977v-1h-1.977zm3.954 0v.5H204v-1h-.989zM157 21l-5.774 10h11.548zm0 47 5.774-10h-11.548zm0-38h-1v29h2V30zm13.153 15.182L169.024 52h-1.264l2.415-14.545h1.264l-.881 5.348h.114a3.7 3.7 0 0 1 1.406-1.35q.895-.504 2.138-.504 1.1 0 1.861.454.766.454 1.086 1.343.327.887.114 2.187L176.091 52h-1.271l1.164-6.989q.22-1.35-.397-2.123-.612-.782-1.875-.782-.867 0-1.62.37a3.5 3.5 0 0 0-1.264 1.065q-.511.69-.675 1.64M10.044 130H8.652l7.706-14.545h1.42L20.655 130h-1.392l-2.422-12.82h-.092zm1.932-5.575h7.216l-.2 1.193h-7.215zm11.903 8.075 1.25-7.528h-.07l-2.423 1.441.206-1.179 2.43-1.456h1.193l-1.45 8.722zm144.165-.5h-1.392l7.706-14.545h1.42L178.655 132h-1.392l-2.422-12.82h-.092zm1.932-5.575h7.216l-.199 1.193h-7.216zm9.886 8.075.128-.852 3.778-3.061q.675-.54 1.101-.945.433-.405.661-.753.227-.355.284-.746.114-.681-.341-1.107-.447-.427-1.25-.427-.817 0-1.435.462-.61.462-.724 1.179h-1.151q.185-1.115 1.13-1.847.95-.738 2.287-.738.887 0 1.498.334.618.333.895.909.277.568.163 1.278-.084.525-.362.994-.27.462-.824 1.002-.553.533-1.477 1.271l-2.507 2.024v.05h4.638l-.157.973z"/><ellipse cx="47" cy="126.5" fill="url(#d)" opacity=".71" rx="11" ry="47.5"/><ellipse cx="197.5" cy="125.5" fill="url(#e)" opacity=".71" rx="4.5" ry="10.5"/><path fill="#000" d="m124 125-10.129-5.545.263 11.544zm-44 1 .023 1 35.002-.796-.023-1-.022-.999-35.003.795z"/><defs><linearGradient id="a" x1="150.75" x2="150.75" y1="18" y2="176" gradientUnits="userSpaceOnUse"><stop stop-color="#57ebf0"/><stop offset="1" stop-color="#32878a"/></linearGradient><linearGradient id="b" x1="92.5" x2="92.5" y1="74" y2="78" gradientUnits="userSpaceOnUse"><stop stop-color="#4ac8cc"/><stop offset="1" stop-color="#48c5c9"/></linearGradient><linearGradient id="c" x1="216" x2="216" y1="111" y2="116" gradientUnits="userSpaceOnUse"><stop stop-color="#41b0b4"/><stop offset="1" stop-color="#40adb1"/></linearGradient><linearGradient id="d" x1="47" x2="47" y1="79" y2="174" gradientUnits="userSpaceOnUse"><stop stop-color="#eee"/><stop offset="1" stop-color="#888"/></linearGradient><linearGradient id="e" x1="197.5" x2="197.5" y1="115" y2="136" gradientUnits="userSpaceOnUse"><stop stop-color="#eee"/><stop offset="1" stop-color="#888"/></linearGradient></defs></svg>