<svg xmlns="http://www.w3.org/2000/svg" width="300" height="200" fill="none" viewBox="0 0 300 200"><g clip-path="url(#a)"><path fill="#000" d="M0 0h300v200H0z"/><path stroke="#fff" stroke-width="2" d="m18.5 92 226-71M62.431 174.177l188-129.999"/><path fill="url(#b)" d="M43 84.118 230 26.5l8.5 25L74.362 166.387z"/><path fill="#fff" d="M224 43.333a2.667 2.667 0 1 0 0 5.334 2.667 2.667 0 0 0 0-5.334m0 143a2.667 2.667 0 1 0 0 5.334 2.667 2.667 0 0 0 0-5.334M224 46h-.5v143h1V46zm28.027 50.166q1.426 0 2.576.621 1.15.598 1.794 1.817.667 1.22.667 2.967V109h-2.07v-7.13q0-1.886-.943-2.875-.943-1.012-2.576-1.012-1.656 0-2.645 1.035-.966 1.035-.966 3.013V109h-2.093V91.98h2.093v6.21a4.14 4.14 0 0 1 1.702-1.495q1.104-.53 2.461-.529m7.389 15.827a66 66 0 0 0 2.746-2.305 11.2 11.2 0 0 0 1.67-1.891q.69-.994.69-1.945 0-.898-.442-1.408-.428-.525-1.394-.524-.938 0-1.462.593-.512.58-.552 1.559h-1.215q.056-1.545.939-2.387t2.277-.842q1.42 0 2.249.787.842.786.842 2.166 0 1.146-.69 2.236a9.8 9.8 0 0 1-1.546 1.904 40 40 0 0 1-2.222 1.905h4.748v1.049h-6.638zM104 108.333a2.667 2.667 0 1 0 0 5.334 2.667 2.667 0 0 0 0-5.334m0 78a2.667 2.667 0 1 0 0 5.334 2.667 2.667 0 0 0 0-5.334M104 111h-.5v78h1v-78zm16.027 40.166q1.426 0 2.576.621 1.15.598 1.794 1.817.667 1.22.667 2.967V164h-2.07v-7.13q0-1.886-.943-2.875-.943-1.012-2.576-1.012-1.656 0-2.645 1.035-.966 1.035-.966 3.013V164h-2.093v-17.02h2.093v6.21a4.14 4.14 0 0 1 1.702-1.495q1.104-.53 2.461-.529m7.209 8.002v-1.145h2.595V168h-1.27v-8.832zM21.489 109.661q0 2.001-1.38 3.335-1.357 1.311-4.163 1.311h-3.082V121h-2.093v-16.031h5.175q2.715 0 4.117 1.311 1.425 1.311 1.426 3.381m-5.543 2.921q1.748 0 2.576-.759.828-.76.828-2.162 0-2.967-3.404-2.967h-3.082v5.888zm6.898 3.586v-1.145h2.594V125h-1.27v-8.832zm5.619 37.9 3.91-10.672h2.231L29.659 156h-2.438l-4.945-12.604h2.254zm6.954-2.9v-1.145h2.594V160h-1.27v-8.832zM221.489 6.661q0 2.001-1.38 3.335-1.357 1.311-4.163 1.311h-3.082V18h-2.093V1.969h5.175q2.714 0 4.117 1.311 1.426 1.311 1.426 3.381m-5.543 2.921q1.748 0 2.576-.759.828-.76.828-2.162 0-2.967-3.404-2.967h-3.082v5.888zm7.077 11.41a65 65 0 0 0 2.746-2.304 11.2 11.2 0 0 0 1.67-1.89q.69-.995.69-1.946 0-.897-.441-1.408-.429-.524-1.394-.524-.939 0-1.463.593-.51.579-.552 1.56h-1.214q.054-1.546.938-2.388t2.277-.842q1.422 0 2.249.787.843.786.842 2.166 0 1.147-.69 2.236a10 10 0 0 1-1.545 1.904 41 41 0 0 1-2.222 1.905h4.747v1.049h-6.638zm48.44 21.076 3.91-10.672h2.231L272.659 44h-2.438l-4.945-12.604h2.254zm7.133 4.925a66 66 0 0 0 2.747-2.305 11.2 11.2 0 0 0 1.669-1.89q.69-.995.69-1.946 0-.898-.441-1.408-.428-.525-1.394-.524-.938 0-1.463.593-.51.579-.552 1.56h-1.214q.055-1.546.938-2.388.884-.842 2.277-.842 1.422 0 2.25.787.841.786.841 2.166 0 1.147-.69 2.236a9.8 9.8 0 0 1-1.545 1.904q-.87.815-2.222 1.905h4.747v1.049h-6.638zM81.958 118.287a1 1 0 0 0-.67-1.245l-8.621-2.586a1 1 0 0 0-.575 1.916l7.663 2.298-2.299 7.663a1 1 0 1 0 1.916.575zM42 139l.474.88 39-21L81 118l-.474-.88-39 21z"/><path fill="#fff" d="M261.958 25.287a1 1 0 0 0-.671-1.245l-8.62-2.586a1 1 0 1 0-.575 1.916l7.663 2.299-2.299 7.662a1 1 0 0 0 1.916.575zM222 46l.474.88 39-21L261 25l-.474-.88-39 21z"/><path stroke="#fff" stroke-dasharray="5 5" d="M3 192.5h293"/></g><defs><linearGradient id="b" x1="134.225" x2="165.587" y1="49.342" y2="131.611" gradientUnits="userSpaceOnUse"><stop stop-color="#69f0ff"/><stop offset="1" stop-color="#3f9099"/></linearGradient><clipPath id="a"><path fill="#fff" d="M0 0h300v200H0z"/></clipPath></defs></svg>