<svg xmlns="http://www.w3.org/2000/svg" width="300" height="200" fill="none" viewBox="0 0 300 200"><g clip-path="url(#a)"><path fill="#000" d="M0 0h300v200H0z"/><path fill="url(#b)" d="M0 0h300v200H0z"/><path fill="#000" d="m213 144 5.774-10h-11.548zm0-81h-1v72h2V63zm25.227 27.91L231.264 104h-1.619l-2.6-13.09h1.577l2.046 11.087h.11l5.736-11.088zm-92.923-68.123.06-.239q.306-1.79 1.201-3.204.896-1.415 2.259-2.225 1.372-.81 3.094-.81.324.035.579.205.264.171.571.392.307.213.776.41 1.023.39 1.653 1.193.639.792.861 1.909.222 1.107.008 2.454l-.034.205a8 8 0 0 1-1.176 3.076 7 7 0 0 1-2.275 2.25q-1.373.844-3.077.844t-2.821-.844q-1.108-.844-1.551-2.3-.435-1.467-.128-3.316m1.807-.205-.051.222q-.239 1.407-.009 2.548.238 1.133.963 1.799.733.664 1.977.664 1.254 0 2.208-.673.954-.681 1.577-1.824.621-1.151.852-2.557l.051-.221q.213-1.339-.026-2.42-.23-1.092-.954-1.73-.725-.65-1.994-.649-1.262 0-2.216.648-.946.648-1.551 1.747a7.6 7.6 0 0 0-.827 2.446m11.369-6.272-.23 1.431h-6.571l.239-1.431z"/><circle cx="150.5" cy="100.5" r="55.5" fill="url(#c)"/><path fill="#f9ff3f" d="m123.912 123 2.182-13.091h1.474l-.341 2.011h.111q.546-.989 1.628-1.593a4.7 4.7 0 0 1 2.327-.614q.188 0 .417.009.23 0 .384.017l-.264 1.542-.358-.051a4 4 0 0 0-.554-.034q-1.023 0-1.892.435a4.1 4.1 0 0 0-1.449 1.184 3.9 3.9 0 0 0-.75 1.73L125.429 123zm26.011-37.125 1.884-11.412q.366-2.224 1.253-3.716.894-1.5 2.173-2.258a5.47 5.47 0 0 1 2.829-.759q1.27 0 2.165.494.895.495 1.407 1.424.52.92.656 2.233.137 1.312-.111 2.957l-.034.23q-.316 1.824-1.159 3.222-.844 1.389-2.131 2.173-1.278.784-2.906.784-1.33 0-2.182-.528t-1.304-1.517q-.443-.997-.562-2.387l1.193-1.21a6.3 6.3 0 0 0 .017 1.534q.102.75.443 1.372.35.614.963.989.623.367 1.56.367 1.252 0 2.173-.64.929-.64 1.509-1.73.58-1.091.818-2.437l.025-.188q.264-1.722.086-3-.18-1.278-.87-1.994-.681-.716-1.952-.716-1.294 0-2.241.724-.946.724-1.534 1.927a9.4 9.4 0 0 0-.81 2.633l-1.798 11.429zM95 100l10 5.774V94.227zm55 0v-1h-46v2h46z"/></g><defs><linearGradient id="b" x1="150" x2="150" y1="0" y2="200" gradientUnits="userSpaceOnUse"><stop stop-color="#69f0ff"/><stop offset="1" stop-color="#3f9099"/></linearGradient><linearGradient id="c" x1="150.5" x2="150.5" y1="45" y2="156" gradientUnits="userSpaceOnUse"><stop stop-color="#ff0a0a"/><stop offset="1" stop-color="#990606"/></linearGradient><clipPath id="a"><path fill="#fff" d="M0 0h300v200H0z"/></clipPath></defs></svg>