<svg xmlns="http://www.w3.org/2000/svg" width="300" height="200" fill="none" viewBox="0 0 300 200"><path fill="#000" d="M0 0h300v200H0z"/><path stroke="#fff" stroke-width="10" d="M57 61v124h187V61"/><path fill="url(#a)" d="M62 82h178v98H62z"/><path fill="url(#b)" d="M102 0h97v17h-97z"/><rect width="28" height="36" x="137" y="27" fill="url(#c)" rx="4"/><path stroke="#000" stroke-width="3" d="M151.5 34v25"/><path stroke="#000" stroke-width="2" d="M144 38h13m-12.641 16H158m-14-8h13.641"/><path stroke="#fff" stroke-width="2" d="M153 17c-5.41 3.905-5.256 6.095 0 10m0 36c-5.41 3.905-5.256 6.095 0 10m-2-1v40"/><circle cx="151" cy="131" r="25" fill="url(#d)"/><defs><linearGradient id="a" x1="151" x2="151" y1="82" y2="180" gradientUnits="userSpaceOnUse"><stop stop-color="#4bffff"/><stop offset="1" stop-color="#2d9999"/></linearGradient><linearGradient id="b" x1="148.712" x2="148.712" y1="17" y2="0" gradientUnits="userSpaceOnUse"><stop stop-color="#935b00"/><stop offset="1"/></linearGradient><linearGradient id="c" x1="151" x2="151" y1="27" y2="63" gradientUnits="userSpaceOnUse"><stop stop-color="#f8f8f8"/><stop offset="1" stop-color="#b8b8b8"/></linearGradient><linearGradient id="d" x1="151" x2="151" y1="106" y2="156" gradientUnits="userSpaceOnUse"><stop stop-color="#ff595c"/><stop offset="1" stop-color="#b41b1d"/></linearGradient></defs></svg>