<svg xmlns="http://www.w3.org/2000/svg" width="300" height="200" fill="none" viewBox="0 0 300 200"><path fill="#000" d="M0 0h300v200H0z"/><path stroke="#fff" stroke-width="10" d="M57 15v170h187V15"/><path fill="url(#a)" d="M62 180V50s37.648 51.775 88.219 51.775S239 50 239 50v130z"/><path stroke="#fff" stroke-dasharray="5 5" d="M150.5 22v158"/><path fill="#000" d="M102.5 114.727a19.7 19.7 0 0 1 1.442-4.829 21 21 0 0 1 2.564-4.262h1.15a16 16 0 0 0-1.264 1.897 22 22 0 0 0-1.115 2.258q-.504 1.2-.888 2.458a20 20 0 0 0-.582 2.478 19 19 0 0 0-.249 3.31q.021 1.669.299 3.168.284 1.499.788 2.613h-1.151a15.1 15.1 0 0 1-1.15-4.268q-.27-2.273.156-4.823m9.625 7.472q-1.533 0-2.471-.881-.938-.888-1.229-2.557-.29-1.676.092-4.034.384-2.343 1.236-4.013.852-1.676 2.081-2.563a4.6 4.6 0 0 1 2.763-.895q1.52 0 2.464.895.945.887 1.25 2.563.314 1.67-.078 4.013-.398 2.352-1.25 4.027-.852 1.67-2.095 2.557a4.62 4.62 0 0 1-2.763.888m.178-1.193q1.676 0 2.905-1.634 1.236-1.633 1.733-4.645.326-1.967.135-3.38-.185-1.414-.86-2.167-.674-.752-1.79-.752-1.668 0-2.897 1.647-1.229 1.641-1.726 4.652-.327 1.968-.142 3.374t.852 2.159q.668.746 1.79.746m9.739-.995-.27.76q-.255.768-.625 1.684-.369.923-.732 1.754a31 31 0 0 1-.61 1.342h-.973q.164-.482.426-1.229.27-.746.575-1.647.305-.903.59-1.868l.241-.796zm6.861 2.188q-1.534 0-2.472-.881-.937-.888-1.229-2.557-.291-1.676.093-4.034.382-2.343 1.236-4.013.851-1.676 2.081-2.563a4.6 4.6 0 0 1 2.762-.895q1.52 0 2.465.895.945.887 1.25 2.563.312 1.67-.078 4.013-.398 2.352-1.25 4.027-.853 1.67-2.096 2.557a4.6 4.6 0 0 1-2.762.888m.177-1.193q1.677 0 2.905-1.634 1.236-1.633 1.733-4.645.327-1.967.135-3.38-.185-1.414-.859-2.167-.675-.752-1.79-.752-1.67 0-2.898 1.647-1.228 1.641-1.726 4.652-.327 1.968-.142 3.374.184 1.406.852 2.159.668.746 1.79.746m11.939-6.279a19.5 19.5 0 0 1-1.449 4.83 20.8 20.8 0 0 1-2.557 4.261h-1.15q.66-.838 1.264-1.896t1.108-2.259q.512-1.2.888-2.457.384-1.257.589-2.479.27-1.64.249-3.309a18.3 18.3 0 0 0-.305-3.168q-.278-1.498-.782-2.614h1.151a15 15 0 0 1 1.143 4.269q.277 2.272-.149 4.822m50.289-9.863a19.7 19.7 0 0 1 1.442-4.83 21 21 0 0 1 2.564-4.261h1.15a16 16 0 0 0-1.264 1.896 22 22 0 0 0-1.115 2.259q-.504 1.2-.888 2.457a18.9 18.9 0 0 0-.831 5.788 19 19 0 0 0 .299 3.168q.284 1.498.788 2.614h-1.15a15.2 15.2 0 0 1-1.151-4.269q-.27-2.273.156-4.822m7.971-4.773 2.045 4.652 3.594-4.652h1.477l-4.432 5.476 2.6 5.433h-1.456l-2.06-4.496-3.558 4.496h-1.491l4.389-5.462-2.557-5.447zm10.357 8.92-.27.76a30 30 0 0 1-.625 1.684q-.369.923-.732 1.754a30 30 0 0 1-.611 1.342h-.973q.163-.482.427-1.229.269-.746.575-1.647.305-.903.589-1.868l.242-.796zm3.247 6.08q-.377 0-.696-.071a2.4 2.4 0 0 1-.49-.156l.533-1.115q.596.206 1.094.127.504-.07.958-.483.455-.412.895-1.228l.597-1.108-2.159-10.966h1.314l1.704 9.261h.092l4.78-9.261h1.428l-6.712 12.621q-.433.817-.959 1.342-.517.525-1.122.781a3.1 3.1 0 0 1-1.257.256m14.796-10.227a19.5 19.5 0 0 1-1.449 4.829 20.8 20.8 0 0 1-2.557 4.262h-1.15q.66-.838 1.264-1.897.603-1.058 1.108-2.258.512-1.2.888-2.458a20 20 0 0 0 .589-2.478q.27-1.64.249-3.31a18 18 0 0 0-.306-3.168q-.276-1.498-.781-2.613h1.151q.873 1.995 1.143 4.268.277 2.273-.149 4.823"/><circle cx="151" cy="102" r="2" fill="#fff"/><circle cx="203" cy="84" r="2" fill="#fff"/><defs><linearGradient id="a" x1="150.5" x2="150.5" y1="50" y2="180" gradientUnits="userSpaceOnUse"><stop stop-color="#69f0ff"/><stop offset="1" stop-color="#3f9099"/></linearGradient></defs></svg>