<svg xmlns="http://www.w3.org/2000/svg" width="300" height="200" fill="none" viewBox="0 0 300 200"><path fill="#000" d="M0 0h300v200H0z"/><path fill="url(#a)" d="M254 55H47c48.916 42.683 47.416 65.159 0 103h207c-55.447-37.79-53.625-60.41 0-103"/><path fill="#000" d="m109.227 115 2.898-17.454h5.889q1.705 0 2.745.596 1.04.597 1.431 1.628.4 1.031.171 2.344-.18 1.09-.673 1.866-.495.767-1.202 1.253a4.9 4.9 0 0 1-1.509.69l-.025.137a2.83 2.83 0 0 1 1.542.596q.708.53 1.057 1.483.358.955.145 2.284a5.4 5.4 0 0 1-.989 2.361q-.757 1.032-2.079 1.628-1.313.588-3.188.588zm1.833-1.432h4.619q2.02 0 3.136-.895 1.117-.894 1.355-2.25.162-.996-.187-1.807a2.75 2.75 0 0 0-1.142-1.295q-.793-.477-1.969-.477h-4.687zm1.363-8.139h4.441q1.03 0 1.875-.426a3.9 3.9 0 0 0 1.397-1.176q.554-.75.708-1.713.239-1.39-.52-2.259-.75-.878-2.548-.878h-4.296zm-75.377 33.662L35.238 150h-2.023l3.864-23.273h2.022l-1.409 8.557h.182a5.9 5.9 0 0 1 2.25-2.159q1.432-.807 3.42-.807 1.762 0 2.978.727 1.227.728 1.738 2.148.524 1.42.182 3.5L46.545 150h-2.034l1.864-11.182q.352-2.159-.636-3.398-.978-1.25-3-1.25-1.387 0-2.591.591a5.6 5.6 0 0 0-2.023 1.705q-.818 1.103-1.08 2.625"/><path fill="#fff" d="M53.044 115h-1.392l7.706-14.545h1.42L63.655 115h-1.392l-2.422-12.82h-.092zm1.932-5.575h7.216l-.2 1.193h-7.215zM23.76 88l1.818-10.91h1.229l-.284 1.677h.092q.454-.825 1.357-1.328a3.9 3.9 0 0 1 1.938-.511q.156 0 .349.007.19 0 .32.014l-.221 1.285q-.085-.014-.298-.042a3.4 3.4 0 0 0-.462-.029 3.48 3.48 0 0 0-2.784 1.35q-.483.632-.625 1.441L25.024 88z"/><path fill="#000" d="m30.023 148 2.415-14.545h4.907q1.421 0 2.287.497.867.496 1.193 1.356.334.86.142 1.953-.15.91-.56 1.556a3.6 3.6 0 0 1-1.002 1.044 4 4 0 0 1-1.257.575l-.022.114q.696.05 1.286.497.59.44.88 1.236.3.795.121 1.903a4.5 4.5 0 0 1-.823 1.967q-.633.86-1.734 1.357-1.093.49-2.656.49zm1.527-1.193h3.85q1.681 0 2.613-.746.93-.746 1.129-1.875.135-.831-.156-1.506a2.3 2.3 0 0 0-.952-1.079q-.66-.398-1.64-.398h-3.907zm1.136-6.783h3.7q.86 0 1.563-.355a3.22 3.22 0 0 0 1.754-2.408q.199-1.157-.433-1.882-.626-.73-2.124-.731h-3.58z"/><path fill="#fff" d="M73 107.5a2.5 2.5 0 1 1-5 0 2.5 2.5 0 0 1 5 0"/><circle cx="98.5" cy="107.5" r="2.5" fill="#000"/><circle cx="24.5" cy="126.5" r="2.5" fill="#000"/><path fill="url(#b)" d="M0 28h300v31H0z"/><path fill="url(#c)" d="M0 155h300v31H0z"/><path fill="#fff" d="m50 61-7.13 9.083 11.431 1.633zm-7 49 .99.141 5.727-40.09-.99-.142-.99-.14-5.727 40.09z"/><defs><linearGradient id="a" x1="150.5" x2="150.5" y1="55" y2="158" gradientUnits="userSpaceOnUse"><stop stop-color="#69f0ff"/><stop offset="1" stop-color="#3f9099"/></linearGradient><linearGradient id="b" x1="0" x2="300" y1="43.5" y2="43.5" gradientUnits="userSpaceOnUse"><stop stop-color="#d9d9d9"/><stop offset="1" stop-color="#737373"/></linearGradient><linearGradient id="c" x1="0" x2="300" y1="170.5" y2="170.5" gradientUnits="userSpaceOnUse"><stop stop-color="#d9d9d9"/><stop offset="1" stop-color="#737373"/></linearGradient></defs></svg>