<svg xmlns="http://www.w3.org/2000/svg" width="300" height="200" fill="none" viewBox="0 0 300 200"><path fill="#000" d="M0 0h300v200H0z"/><path stroke="url(#a)" stroke-width="10" d="M40 39v105h220V39"/><path fill="url(#b)" d="M45 65h210v75H45z"/><path stroke="#fff" stroke-width="2" d="M40 39.5V6h110v73"/><circle cx="150" cy="100" r="26" fill="url(#c)"/><path fill="#fff" d="m56.944 119.864 2.464-10.624h7.904q.8 0 1.12-.032.32-.031.448-.192.127-.192.288-.608l.672-1.792h.832l-.864 5.088H59.92l-1.536 6.688a7.7 7.7 0 0 1 2.048-.832 8.5 8.5 0 0 1 2.176-.288q2.816 0 4.416 1.568 1.632 1.536 1.632 4.384 0 1.408-.48 2.848a7.5 7.5 0 0 1-1.44 2.624q-.992 1.183-2.56 1.92-1.568.704-3.744.704-2.208 0-3.68-1.152-1.472-1.184-1.792-3.872l1.824-.576q0 1.76.48 2.784.48.992 1.28 1.408.8.384 1.76.384 1.665 0 2.848-1.024 1.184-1.056 1.824-2.784.672-1.76.672-3.904 0-2.08-.768-3.136-.768-1.088-2.56-1.088-1.087 0-2.304.416-1.184.384-2.496 1.376zM89.018 131l-3.584-8.32-2.592 2.304L81.786 131h-2.592l3.712-21.088q.192-1.088.128-1.28-.064-.224-.544-.288l-1.728-.16.128-.864h5.088l-2.816 15.968 3.84-3.584a92 92 0 0 1 2.592-2.304 18 18 0 0 1 2.048-1.536 11.3 11.3 0 0 1 2.176-1.024l.512 2.72q-2.112.416-3.808 1.28a14.5 14.5 0 0 0-3.104 2.048l3.456 7.712q.416.96.608 1.152.192.16.672.224l1.632.192-.16.832zm18.959-.288a11.5 11.5 0 0 1-1.312 3.648 7.2 7.2 0 0 1-2.592 2.72q-1.663 1.056-4.192 1.056-2.496 0-3.712-1.344-1.215-1.344-1.056-3.488l1.824-.384q-.224 2.304.576 3.264.832.992 2.368.992 1.985 0 3.392-1.376 1.44-1.344 2.048-4.768l.448-2.432q-1.087 1.504-2.304 2.112-1.215.608-2.464.608-1.887 0-3.104-1.152-1.184-1.184-1.6-3.136-.415-1.952.032-4.352l.128-.704q.417-2.24 1.504-3.84 1.089-1.6 2.624-2.432a6.56 6.56 0 0 1 3.264-.864q1.377 0 2.4.544a4.5 4.5 0 0 1 1.696 1.472q.417-.352.832-.768.417-.448.832-.928h1.12zm-8.928-7.2q-.543 3.2.128 4.96.704 1.76 2.24 1.76.64 0 1.408-.32.768-.352 1.632-1.28.897-.96 1.792-2.752l1.312-7.488q-.576-1.312-1.472-1.888-.864-.576-2.048-.576-1.952 0-3.104 1.536t-1.6 4.224zM140.1 98.88l-.72 4.12h-8.04l.2-1.06q.26-1.44.92-2.38t1.54-1.6q.9-.66 1.84-1.22.9-.54 1.7-1.12.82-.58 1.32-1.42.52-.84.52-2.12 0-1.2-.48-1.72-.46-.52-1.44-.52-1.32 0-2 1-.68.98-.82 2.82l-1.68-.32q0-1.12.5-2.06a3.83 3.83 0 0 1 1.52-1.5q1.02-.58 2.48-.58 1.34 0 2.16.44.84.44 1.24 1.18t.4 1.66q0 1.14-.46 1.9a4.3 4.3 0 0 1-1.24 1.3q-.76.52-1.68.96-.92.42-1.84.88-1.24.62-2.26 1.54-1 .92-1.4 2.44h5.08q.48 0 .68-.02a.5.5 0 0 0 .3-.16q.1-.12.2-.34l.94-2.1zm13.353 4.12-2.24-5.2-1.62 1.44-.66 3.76h-1.62l2.32-13.18q.12-.68.08-.8-.04-.14-.34-.18l-1.08-.1.08-.54h3.18l-1.76 9.98 2.399-2.24a60 60 0 0 1 1.621-1.44q.68-.58 1.28-.96a7 7 0 0 1 1.36-.64l.32 1.7q-1.32.26-2.38.8a9 9 0 0 0-1.94 1.28l2.16 4.82q.26.6.38.72.12.1.42.14l1.02.12-.1.52zm11.849-.18a7.2 7.2 0 0 1-.82 2.28 4.5 4.5 0 0 1-1.62 1.7q-1.04.66-2.62.66-1.56 0-2.32-.84t-.66-2.18l1.14-.24q-.14 1.44.36 2.04.52.62 1.48.62 1.24 0 2.12-.86.9-.84 1.28-2.98l.28-1.52q-.68.94-1.44 1.32t-1.54.38q-1.18 0-1.94-.72-.74-.74-1-1.96t.02-2.72l.08-.44q.26-1.4.94-2.4t1.64-1.52q.96-.54 2.04-.54.861 0 1.5.34.64.32 1.06.92.26-.22.52-.48.26-.28.52-.58h.7zm-5.58-4.5q-.34 2 .08 3.1.44 1.1 1.4 1.1.4 0 .88-.2.48-.22 1.02-.8.56-.6 1.12-1.72l.82-4.68q-.36-.82-.92-1.18-.54-.36-1.28-.36-1.22 0-1.94.96t-1 2.64z"/><path fill="url(#d)" d="M80 148h140v43H80z"/><circle cx="148" cy="170" r="21" fill="url(#e)"/><path fill="#000" d="m135 158 2.989 11.154 8.165-8.165zm18 18 .707-.707-11.636-11.636-.707.707-.707.707 11.636 11.636z"/><defs><linearGradient id="a" x1="150" x2="150" y1="39" y2="144" gradientUnits="userSpaceOnUse"><stop stop-color="#fff"/><stop offset="1" stop-color="#999"/></linearGradient><linearGradient id="b" x1="150" x2="150" y1="65" y2="140" gradientUnits="userSpaceOnUse"><stop stop-color="#4bffff"/><stop offset="1" stop-color="#2d9999"/></linearGradient><linearGradient id="c" x1="150" x2="150" y1="74" y2="126" gradientUnits="userSpaceOnUse"><stop stop-color="#42b7ff"/><stop offset="1" stop-color="#023d95"/></linearGradient><linearGradient id="d" x1="150" x2="150" y1="148" y2="191" gradientUnits="userSpaceOnUse"><stop stop-color="#ffaf3f"/><stop offset="1" stop-color="#9b661c"/></linearGradient><linearGradient id="e" x1="148" x2="148" y1="149" y2="191" gradientUnits="userSpaceOnUse"><stop stop-color="#cafbff"/><stop offset="1" stop-color="#faa"/></linearGradient></defs></svg>