<svg xmlns="http://www.w3.org/2000/svg" width="300" height="200" fill="none" viewBox="0 0 300 200"><path fill="#000" d="M0 0h300v200H0z"/><path fill="url(#a)" d="M0 151h300v49H0z"/><path fill="url(#b)" d="M97 23h96v168H97z"/><ellipse cx="145" cy="23.5" fill="url(#c)" rx="48" ry="8.5"/><path fill="url(#d)" d="M189 59c-33.604 56.304-53.024 59.326-89 0v132h89z"/><path fill="#000" d="M142 58a1 1 0 0 0 0 2zm47 1-10-5.773v11.547zm-47 0v1h38v-2h-38zm19.912-6 2.182-13.09h1.474l-.341 2.01h.111q.546-.988 1.628-1.593a4.7 4.7 0 0 1 2.327-.614q.188 0 .417.009.23 0 .384.017l-.264 1.542a14 14 0 0 0-.358-.05 4 4 0 0 0-.554-.035q-1.023 0-1.892.435a4.1 4.1 0 0 0-1.449 1.184 3.9 3.9 0 0 0-.75 1.73L163.429 53z"/><path stroke="#000" d="M100.5 62v79"/><path stroke="#000" stroke-dasharray="5 5" d="m100.415 60.721 45 67"/><path stroke="#000" d="M100 94.1c10.293 2.024 14.387.9 18-6.1"/><path fill="#000" d="m116.764 113.804-.23 1.432h-8.591l.23-1.432zm.955-.23-.299 1.781q-.443 2.676-1.363 4.423-.912 1.747-2.216 2.608-1.304.853-2.923.853-1.62 0-2.659-.861-1.04-.86-1.39-2.608-.349-1.747.094-4.415l.298-1.781q.453-2.66 1.364-4.381.912-1.73 2.216-2.565 1.304-.844 2.923-.844 1.628 0 2.668.844 1.04.836 1.38 2.565.35 1.722-.093 4.381m-1.892 2.037.392-2.284q.332-2.02.119-3.392-.204-1.373-.912-2.063-.707-.699-1.832-.699-1.713 0-2.992 1.577-1.27 1.568-1.772 4.577l-.384 2.284q-.511 3.025.239 4.636.75 1.602 2.437 1.602 1.143 0 2.088-.724.947-.724 1.611-2.122.673-1.398 1.006-3.392m98.096 70.264 1.884-11.412q.366-2.225 1.253-3.716.895-1.5 2.173-2.258a5.47 5.47 0 0 1 2.829-.759q1.27 0 2.165.494.895.495 1.407 1.424.52.92.656 2.233.137 1.312-.111 2.957l-.034.23q-.315 1.824-1.159 3.222-.844 1.389-2.131 2.173-1.278.784-2.906.784-1.33 0-2.182-.528-.852-.529-1.304-1.517-.443-.998-.562-2.387l1.193-1.21a6.3 6.3 0 0 0 .017 1.534q.102.75.443 1.372.35.614.963.989.623.366 1.56.366 1.252 0 2.173-.639.928-.64 1.509-1.73.58-1.091.818-2.437l.025-.188q.264-1.722.086-3-.18-1.278-.87-1.994-.681-.716-1.952-.716-1.294 0-2.241.724-.946.725-1.534 1.926a9.4 9.4 0 0 0-.81 2.634l-1.798 11.429z"/><defs><linearGradient id="a" x1="102.5" x2="195.5" y1="176" y2="176" gradientUnits="userSpaceOnUse"><stop stop-color="#4facb6"/><stop offset="1" stop-color="#6ff0fe"/></linearGradient><linearGradient id="b" x1="193" x2="97" y1="107" y2="107" gradientUnits="userSpaceOnUse"><stop stop-color="#d9d9d9"/><stop offset="1" stop-color="#737373"/></linearGradient><linearGradient id="c" x1="97" x2="193" y1="23.5" y2="23.5" gradientUnits="userSpaceOnUse"><stop stop-color="#d9d9d9"/><stop offset="1" stop-color="#737373"/></linearGradient><linearGradient id="d" x1="187.25" x2="101.75" y1="125" y2="125" gradientUnits="userSpaceOnUse"><stop stop-color="#70f1ff"/><stop offset="1" stop-color="#4fabb5"/></linearGradient></defs></svg>