<svg xmlns="http://www.w3.org/2000/svg" width="300" height="200" fill="none" viewBox="0 0 300 200"><path fill="#000" d="M0 0h300v200H0z"/><path stroke="#fff" stroke-width="2" d="m28.926 45.415 247.461 39.194M28.844 156.206l247.46-39.194"/><path fill="url(#a)" d="m46 49 223 34.83v33.849L46 153z"/><path fill="#fff" d="M20.247 76.435h-6.992L11.967 80H9.759l5.796-15.939h2.415L23.743 80h-2.208zm-.598-1.702-2.898-8.096-2.898 8.096zm5.373.435v-1.145h2.595V84h-1.27v-8.832zm-9.559 62.9 3.91-10.672h2.231L16.659 140h-2.438l-4.945-12.604h2.254zm6.954-2.9v-1.145h2.594V144h-1.27v-8.832zm236.83-72.733h-6.992L250.967 66h-2.208l5.796-15.939h2.415L262.743 66h-2.208zm-.598-1.702-2.898-8.096-2.898 8.096zm5.553 8.26a65 65 0 0 0 2.746-2.305 11.3 11.3 0 0 0 1.67-1.89q.69-.995.69-1.946 0-.898-.442-1.408-.428-.525-1.394-.524-.938 0-1.462.593-.511.579-.552 1.56h-1.215q.055-1.547.939-2.388.882-.842 2.277-.842 1.42 0 2.249.787.842.786.842 2.166 0 1.146-.69 2.236a9.8 9.8 0 0 1-1.546 1.904 40 40 0 0 1-2.222 1.905h4.748v1.049h-6.638zm-9.739 86.075 3.91-10.672h2.231L255.659 157h-2.438l-4.945-12.604h2.254zm7.133 4.925a66 66 0 0 0 2.747-2.305 11.2 11.2 0 0 0 1.669-1.891q.69-.994.69-1.945 0-.898-.441-1.408-.428-.524-1.394-.524-.938 0-1.463.593-.51.58-.552 1.559h-1.214q.055-1.545.938-2.387.884-.842 2.277-.842 1.422 0 2.25.787.841.786.841 2.166 0 1.146-.69 2.236a9.8 9.8 0 0 1-1.545 1.904q-.87.814-2.222 1.905h4.747v1.049h-6.638zM70.707 100.707a1 1 0 0 0 0-1.414l-6.364-6.364a1 1 0 0 0-1.414 1.414L68.586 100l-5.657 5.657a1 1 0 1 0 1.414 1.414zM32 100v1h38v-2H32z"/><defs><linearGradient id="a" x1="225.5" x2="53.5" y1="101" y2="101" gradientUnits="userSpaceOnUse"><stop stop-color="#4bffff"/><stop offset=".427" stop-color="#2b8e8e"/><stop offset="1" stop-color="#2b7474"/></linearGradient></defs></svg>