<svg xmlns="http://www.w3.org/2000/svg" width="300" height="200" fill="none" viewBox="0 0 300 200"><path fill="#000" d="M0 0h300v200H0z"/><path stroke="#fff" stroke-width="10" d="M27 38v146h220V38"/><path fill="url(#a)" d="M32 64h210v115H32z"/><circle cx="137.5" cy="120.5" r="29.5" fill="url(#b)"/><path fill="#fff" d="M281.534 87.298q-1.185 0-2.088-.46a3.03 3.03 0 0 1-1.347-1.346q-.434-.887-.238-2.148.17-.971.648-1.637a3.9 3.9 0 0 1 1.227-1.09 6.6 6.6 0 0 1 1.704-.682q.963-.248 2.097-.375 1.108-.136 1.892-.239t1.219-.324a.94.94 0 0 0 .52-.716l.051-.307q.22-1.337-.409-2.105-.631-.775-2.114-.775-1.414 0-2.455.63-1.03.623-1.534 1.458l-1.346-.52q.614-1.074 1.508-1.713a5.9 5.9 0 0 1 1.918-.93 7.4 7.4 0 0 1 2.02-.289q.75 0 1.525.196.776.195 1.39.682.621.477.912 1.338.298.852.085 2.165L287.236 87h-1.517l.349-2.071h-.094a5 5 0 0 1-.988 1.125 5.2 5.2 0 0 1-1.492.895q-.869.35-1.96.35m.384-1.389q1.21 0 2.19-.537a4.7 4.7 0 0 0 1.619-1.423 4.7 4.7 0 0 0 .818-1.969l.316-1.892q-.188.162-.614.29a9 9 0 0 1-.946.23 21 21 0 0 1-1.048.162l-.921.12a9.7 9.7 0 0 0-1.977.425q-.836.29-1.338.802-.502.502-.631 1.295-.195 1.193.52 1.85.725.647 2.012.647M267 48l5.774 10h-11.548zm1 70a1 1 0 0 1-2 0zm-1-61h1v61h-2V57z"/><defs><linearGradient id="a" x1="137" x2="137" y1="64" y2="179" gradientUnits="userSpaceOnUse"><stop stop-color="#4bffff"/><stop offset="1" stop-color="#2d9999"/></linearGradient><linearGradient id="b" x1="137.5" x2="137.5" y1="91" y2="150" gradientUnits="userSpaceOnUse"><stop stop-color="#ff595c"/><stop offset="1" stop-color="#b41b1d"/></linearGradient></defs></svg>