<svg xmlns="http://www.w3.org/2000/svg" width="300" height="200" fill="none" viewBox="0 0 300 200"><path fill="#000" d="M0 0h300v200H0z"/><ellipse cx="70.5" cy="101.5" fill="url(#a)" rx="31.5" ry="48.5"/><path fill="url(#b)" d="M73 53h119v97H73z"/><path fill="url(#c)" stroke="#000" d="M191.5 53.5c8.473 0 16.211 5.288 21.854 13.978 5.641 8.684 9.146 20.712 9.146 34.022 0 13.311-3.505 25.338-9.146 34.022-5.643 8.69-13.381 13.978-21.854 13.978s-16.211-5.288-21.854-13.978c-5.641-8.684-9.146-20.711-9.146-34.022s3.505-25.338 9.146-34.022c5.643-8.69 13.381-13.978 21.854-13.978Z"/><path fill="url(#d)" stroke="#000" d="M192 72.5c5.019 0 9.632 3.16 13.015 8.411 3.379 5.246 5.485 12.524 5.485 20.589s-2.106 15.343-5.485 20.589c-3.383 5.251-7.996 8.411-13.015 8.411s-9.632-3.16-13.015-8.411c-3.379-5.246-5.485-12.524-5.485-20.589s2.106-15.343 5.485-20.589C182.368 75.66 186.981 72.5 192 72.5Z" opacity=".91"/><path fill="url(#e)" d="M190 72h52v59h-52z" opacity=".95"/><path fill="url(#f)" stroke="#00d8df" d="M242 72.5c5.019 0 9.632 3.16 13.015 8.411 3.379 5.246 5.485 12.524 5.485 20.589s-2.106 15.343-5.485 20.589c-3.383 5.251-7.996 8.411-13.015 8.411s-9.632-3.16-13.015-8.411c-3.379-5.246-5.485-12.524-5.485-20.589s2.106-15.343 5.485-20.589C232.368 75.66 236.981 72.5 242 72.5Z" opacity=".99"/><path fill="#000" d="m246.912 114 2.182-13.091h1.474l-.341 2.011h.111q.546-.989 1.628-1.593a4.7 4.7 0 0 1 2.327-.614q.188 0 .417.009.23 0 .384.017l-.264 1.542-.358-.051a4 4 0 0 0-.554-.034q-1.023 0-1.892.435a4.1 4.1 0 0 0-1.449 1.184 3.9 3.9 0 0 0-.75 1.73L248.429 114zM242 73l-5.774 10h11.548zm-1 29a1 1 0 0 0 2 0zm1-20h-1v20h2V82z"/><path stroke="#00d8df" d="M190 72.5h52m-52 58h52"/><path fill="#fff" d="m124.227 30 2.898-17.454h1.594l-2.659 16.022h8.318L134.139 30z"/><path fill="#f9ff3f" d="m69 163 10 5.774v-11.548zm125 0-10-5.774v11.548zm-116 0v1h107v-2H78zm42.582 24 9.324-17.455h1.551L134.986 187zm2.438-1.432h10.023l-2.668-13.764h-.102zM137.977 187l2.898-17.455h5.634q1.857 0 2.991.708 1.134.707 1.56 1.926.434 1.218.179 2.753a6.7 6.7 0 0 1-1.091 2.744 6 6 0 0 1-2.208 1.935q-1.363.716-3.204.716h-4.432l.239-1.432h4.389q1.372 0 2.361-.511a4.23 4.23 0 0 0 1.593-1.415 5.2 5.2 0 0 0 .784-2.037q.188-1.15-.119-2.046a2.53 2.53 0 0 0-1.125-1.397q-.817-.512-2.199-.512h-3.997L139.571 187z"/><path fill="#fff" d="m70 37 10 5.773V31.226zm121 0-10-5.773v11.546zM79 37v1h103v-2H79z"/><defs><linearGradient id="a" x1="70.5" x2="70.5" y1="53" y2="150" gradientUnits="userSpaceOnUse"><stop stop-color="#dddbdb"/><stop offset="1" stop-color="#777676"/></linearGradient><linearGradient id="b" x1="132.5" x2="132.5" y1="53" y2="150" gradientUnits="userSpaceOnUse"><stop stop-color="#d9d9d9"/><stop offset="1" stop-color="#737373"/></linearGradient><linearGradient id="d" x1="192" x2="192" y1="72" y2="157.818" gradientUnits="userSpaceOnUse"><stop stop-color="#69f0ff"/><stop offset="1" stop-color="#3f9099"/></linearGradient><linearGradient id="e" x1="216" x2="216" y1="72" y2="131" gradientUnits="userSpaceOnUse"><stop stop-color="#68ecfb"/><stop offset="1" stop-color="#4eb2bd"/></linearGradient><linearGradient id="f" x1="242" x2="242" y1="72" y2="157.818" gradientUnits="userSpaceOnUse"><stop stop-color="#69f0ff"/><stop offset="1" stop-color="#3f9099"/></linearGradient><radialGradient id="c" cx="0" cy="0" r="1" gradientTransform="matrix(0 48.5 -31.5 0 191.5 101.5)" gradientUnits="userSpaceOnUse"><stop stop-color="#dddbdb"/><stop offset="1" stop-color="#777676"/></radialGradient></defs></svg>