<svg xmlns="http://www.w3.org/2000/svg" width="300" height="200" fill="none" viewBox="0 0 300 200"><path fill="#000" d="M0 0h300v200H0z"/><path stroke="#fff" stroke-width="2" d="M21 11v161h163V11"/><path fill="url(#a)" d="m22 43 161 52v76H22z"/><path fill="#fff" d="M105.704 107.98 102.691 125h-2.093l3.013-17.02zm42.285-3.328q0-1.932.782-3.381.781-1.472 2.139-2.277 1.38-.805 3.059-.805 1.656 0 2.875.713 1.219.712 1.817 1.794v-2.3h2.116V111h-2.116v-2.346q-.621 1.104-1.863 1.84-1.219.713-2.852.713-1.679 0-3.036-.828t-2.139-2.323-.782-3.404m10.672.023q0-1.426-.575-2.484t-1.564-1.61a4.1 4.1 0 0 0-2.139-.575q-1.173 0-2.139.552t-1.541 1.61-.575 2.484q0 1.449.575 2.53.575 1.058 1.541 1.633a4.24 4.24 0 0 0 2.139.552q1.173 0 2.139-.552a4.1 4.1 0 0 0 1.564-1.633q.575-1.081.575-2.507m-109.797-3.933q.645-1.127 1.886-1.84 1.242-.713 2.829-.713 1.702 0 3.059.805t2.139 2.277q.782 1.449.782 3.381 0 1.909-.782 3.404t-2.162 2.323q-1.358.828-3.036.828-1.633 0-2.875-.713-1.22-.713-1.84-1.817V111h-2.093V93.98h2.093zm8.556 3.91q0-1.426-.575-2.484t-1.564-1.61a4.24 4.24 0 0 0-2.139-.552q-1.15 0-2.139.575-.966.552-1.564 1.633-.575 1.058-.575 2.461 0 1.426.575 2.507.598 1.058 1.564 1.633.99.552 2.139.552 1.173 0 2.139-.552a4.1 4.1 0 0 0 1.564-1.633q.575-1.081.575-2.53m179.638 23.046q.345-1.932 1.38-3.381 1.035-1.472 2.53-2.254a6.8 6.8 0 0 1 3.243-.805q1.794 0 2.944.828t1.495 2.116l.483-2.76h1.61L248.535 134h-1.61l.483-2.783q-.782 1.289-2.254 2.139-1.449.828-3.243.828-1.495 0-2.622-.621a4.36 4.36 0 0 1-1.748-1.748q-.621-1.15-.621-2.691 0-.667.138-1.426m10.971.023q.115-.644.115-1.15 0-1.794-1.081-2.852t-2.806-1.058a5.44 5.44 0 0 0-2.507.598q-1.15.598-1.955 1.748-.805 1.126-1.081 2.691a7 7 0 0 0-.115 1.173q0 1.817 1.058 2.875 1.081 1.035 2.806 1.035 1.288 0 2.461-.621a5.5 5.5 0 0 0 2.001-1.771q.828-1.15 1.104-2.668M64.333 102.5a2.667 2.667 0 1 0 5.334 0 2.667 2.667 0 0 0-5.334 0m71 0a2.667 2.667 0 1 0 5.334 0 2.667 2.667 0 0 0-5.334 0M67 102.5v.5h71v-1H67zM295 151l-5-2.887v5.774zm-102 0v.5h97.5v-1H193z"/><defs><linearGradient id="a" x1="102.5" x2="102.5" y1="43" y2="171" gradientUnits="userSpaceOnUse"><stop stop-color="#63e8ff"/><stop offset="1" stop-color="#306571"/></linearGradient></defs></svg>