<svg xmlns="http://www.w3.org/2000/svg" width="300" height="200" fill="none" viewBox="0 0 300 200"><g clip-path="url(#a)"><path fill="#000" d="M0 0h300v200H0z"/><path fill="url(#b)" d="M225.922 53.869C167.108 89.24 133.636 90.2 78.144 54.07 76.806 53.2 75 54.138 75 55.735V159.36c0 1.578 1.768 2.52 3.108 1.687 57.198-35.566 90.612-34.51 147.81.072 1.339.809 3.082-.135 3.082-1.701V55.57c0-1.563-1.739-2.507-3.078-1.702"/><path fill="#fff" d="m152.912 44 2.182-13.09h1.474l-.341 2.01h.111q.546-.989 1.628-1.593a4.7 4.7 0 0 1 2.327-.614q.188 0 .417.009.23 0 .384.017l-.264 1.542a14 14 0 0 0-.358-.05 4 4 0 0 0-.554-.035q-1.023 0-1.892.435a4.1 4.1 0 0 0-1.449 1.184 3.9 3.9 0 0 0-.75 1.73L154.429 44zm9.771 3 1.5-9.034h-.085l-2.906 1.73.247-1.415 2.915-1.747h1.432L164.047 47z"/><path fill="#000" d="m170.912 101 2.182-13.09h1.474l-.341 2.01h.111q.546-.989 1.628-1.593a4.7 4.7 0 0 1 2.327-.614q.188 0 .417.009.23 0 .384.017l-.264 1.542a14 14 0 0 0-.358-.05 4 4 0 0 0-.554-.035q-1.023 0-1.892.435a4.1 4.1 0 0 0-1.449 1.184 3.9 3.9 0 0 0-.75 1.73L172.429 101zm7.351 3 .153-1.023 4.534-3.673q.81-.648 1.321-1.133.52-.486.793-.904.273-.426.341-.895.136-.818-.409-1.33-.537-.51-1.5-.51-.981 0-1.722.553-.732.555-.869 1.415h-1.381q.222-1.337 1.355-2.216 1.142-.886 2.745-.886 1.065 0 1.798.4.741.4 1.074 1.091.332.682.196 1.534-.102.63-.435 1.194-.323.554-.989 1.201a27 27 0 0 1-1.772 1.526l-3.009 2.429v.059h5.566l-.188 1.168z"/><path fill="url(#c)" d="M41.294 113.708c10.272-18.78 28.83-52.358 34.843-62.039.791-1.274 1.863-.878 1.863.622V160.22c0 1.775-2.14 2.671-3.404 1.425l-33.28-32.803a2 2 0 0 0-1.403-.575H5a2 2 0 0 1-2-2v-9.534a2 2 0 0 1 2-2h34.547c.731 0 1.396-.383 1.747-1.025"/><path fill="url(#d)" d="M261.706 113.708c-10.272-18.78-28.831-52.358-34.843-62.039-.791-1.274-1.863-.878-1.863.622V160.22c0 1.775 2.14 2.671 3.404 1.425l33.279-32.803a2 2 0 0 1 1.404-.575H298a2 2 0 0 0 2-2v-9.534a2 2 0 0 0-2-2h-34.547a1.97 1.97 0 0 1-1.747-1.025"/><path stroke="#000" stroke-dasharray="5 5" d="M154.5 81.5c.774 0 1.537.2 2.282.59l.232-.442c1.337.7 2.587 1.947 3.704 3.636l-.416.276c.843 1.276 1.615 2.82 2.292 4.59l.466-.18a39 39 0 0 1 1.518 5.018l-.486.115c.377 1.608.687 3.319.919 5.111l.494-.064c.217 1.679.365 3.427.439 5.227l-.497.02a64 64 0 0 1 0 5.206l.497.019a60 60 0 0 1-.439 5.227l-.494-.063a51 51 0 0 1-.919 5.111l.486.114a39 39 0 0 1-1.518 5.017l-.466-.177c-.677 1.769-1.449 3.313-2.292 4.588l.416.276c-1.117 1.689-2.367 2.935-3.704 3.636l-.232-.441c-.745.39-1.508.59-2.282.59s-1.537-.2-2.282-.59l-.233.441c-1.337-.701-2.587-1.947-3.704-3.636l.417-.276c-.843-1.275-1.615-2.819-2.292-4.588l-.467.177a39 39 0 0 1-1.518-5.017l.487-.114a51 51 0 0 1-.919-5.111l-.495.063a60 60 0 0 1-.439-5.227l.498-.019a64 64 0 0 1 0-5.206l-.498-.02c.074-1.8.222-3.548.439-5.227l.495.064c.232-1.792.542-3.503.919-5.111l-.487-.115a39 39 0 0 1 1.518-5.017l.467.178c.677-1.769 1.449-3.313 2.292-4.588l-.417-.277c1.117-1.689 2.367-2.935 3.704-3.636l.233.442c.745-.39 1.508-.59 2.282-.59Z"/><path stroke="#fff" stroke-dasharray="5 5" d="M38.5 9c76.488 92.124 154.248 92.961 223 0"/><path fill="#000" d="m155 81-5.774 10h11.548zm0 26h1V90h-2v17z"/><path fill="#fff" d="m138 75 7.119-9.091-11.433-1.62zm17-120-.99-.14-15.738 111.089.99.14.991.14L155.99-44.86z"/></g><defs><linearGradient id="b" x1="152.524" x2="152.524" y1="76.5" y2="142.5" gradientUnits="userSpaceOnUse"><stop stop-color="#69f0ff"/><stop offset=".5" stop-color="#69f0ff" stop-opacity=".62"/><stop offset="1" stop-color="#1ba8b8"/></linearGradient><linearGradient id="c" x1="40.5" x2="40.5" y1="49" y2="165" gradientUnits="userSpaceOnUse"><stop stop-color="#d9d9d9"/><stop offset="1" stop-color="#737373"/></linearGradient><linearGradient id="d" x1="262.5" x2="262.5" y1="49" y2="165" gradientUnits="userSpaceOnUse"><stop stop-color="#d9d9d9"/><stop offset="1" stop-color="#737373"/></linearGradient><clipPath id="a"><path fill="#fff" d="M0 0h300v200H0z"/></clipPath></defs></svg>