<svg xmlns="http://www.w3.org/2000/svg" width="300" height="200" fill="none" viewBox="0 0 300 200"><path fill="#000" d="M0 0h300v200H0z"/><path fill="url(#a)" d="M0 176h300v24H0z"/><path fill="url(#b)" d="M0 65h300v111H0z"/><path fill="url(#c)" d="M57 57h174v16H57z"/><path fill="#fff" d="m190 38-10-5.773v11.547zm-81 0v1h72v-2h-72zm47.227-19.09L149.264 32h-1.619l-2.6-13.09h1.577l2.046 11.087h.11l5.736-11.088z"/><path fill="#000" d="m137 75-5.774 10h11.548zm0 101 5.773-10h-11.547zm0-92h-1v83h2V84zm14.168 49.909q-.452 0-.836-.085a3 3 0 0 1-.588-.188l.64-1.338q.715.247 1.312.154.605-.085 1.151-.58.545-.494 1.073-1.474l.716-1.33-2.591-13.159h1.577l2.046 11.114h.11l5.736-11.114h1.713l-8.054 15.145q-.52.98-1.15 1.611-.622.63-1.347.937a3.8 3.8 0 0 1-1.508.307"/><path fill="#b41b1d" d="m272 65-10-5.773v11.547zm-41 0v1h32v-2h-32zm22.227 31 2.898-17.454h10.099l-.238 1.431h-8.506l-1.091 6.571h7.713l-.238 1.432h-7.713l-1.33 8.02z"/><defs><linearGradient id="a" x1="150" x2="150" y1="176" y2="200" gradientUnits="userSpaceOnUse"><stop stop-color="#935b00"/><stop offset="1" stop-color="#2d1c00"/></linearGradient><linearGradient id="b" x1="150" x2="150" y1="65" y2="176" gradientUnits="userSpaceOnUse"><stop stop-color="#69f0ff"/><stop offset="1" stop-color="#3f9099"/></linearGradient><linearGradient id="c" x1="144" x2="144" y1="57" y2="73" gradientUnits="userSpaceOnUse"><stop stop-color="#d9d9d9"/><stop offset="1" stop-color="#737373"/></linearGradient></defs></svg>