<svg xmlns="http://www.w3.org/2000/svg" width="300" height="200" fill="none" viewBox="0 0 300 200"><path fill="#000" d="M0 0h300v200H0z"/><path stroke="#fff" stroke-width="2" d="M21 11v161h163V11"/><path fill="url(#a)" d="M22 43h161v128H22z"/><path fill="#fff" d="M128.027 94.166q1.426 0 2.576.621 1.15.598 1.794 1.817.667 1.22.667 2.967V107h-2.07v-7.13q0-1.886-.943-2.875-.943-1.012-2.576-1.012-1.656 0-2.645 1.035-.966 1.035-.966 3.013V107h-2.093V89.98h2.093v6.21a4.14 4.14 0 0 1 1.702-1.495q1.104-.53 2.461-.529M77.989 68.652q0-1.932.782-3.381.782-1.472 2.139-2.277 1.38-.805 3.059-.805 1.656 0 2.875.713t1.817 1.794v-2.3h2.116V75h-2.116v-2.346q-.621 1.105-1.863 1.84-1.219.713-2.852.713-1.68 0-3.036-.828t-2.139-2.323q-.782-1.495-.782-3.404m10.672.023q0-1.426-.575-2.484t-1.564-1.61a4.1 4.1 0 0 0-2.139-.575q-1.173 0-2.139.552t-1.541 1.61-.575 2.484q0 1.45.575 2.53.575 1.058 1.541 1.633a4.24 4.24 0 0 0 2.139.552q1.173 0 2.139-.552a4.1 4.1 0 0 0 1.564-1.633q.575-1.08.575-2.507m-7.797 63.067q.645-1.127 1.886-1.84 1.242-.713 2.829-.713 1.702 0 3.059.805 1.358.806 2.139 2.277.782 1.449.782 3.381 0 1.909-.782 3.404t-2.162 2.323q-1.358.828-3.036.828-1.633 0-2.875-.713-1.22-.713-1.84-1.817V142h-2.093v-17.02h2.093zm8.556 3.91q0-1.426-.575-2.484t-1.564-1.61a4.24 4.24 0 0 0-2.139-.552q-1.15 0-2.139.575-.966.552-1.564 1.633-.575 1.058-.575 2.461 0 1.426.575 2.507.598 1.058 1.564 1.633.99.552 2.139.552 1.173 0 2.139-.552a4.1 4.1 0 0 0 1.564-1.633q.575-1.081.575-2.53m139.638-34.954q.345-1.932 1.38-3.381 1.035-1.472 2.53-2.254a6.8 6.8 0 0 1 3.243-.805q1.794 0 2.944.828t1.495 2.116l.483-2.76h1.61L240.535 107h-1.61l.483-2.783q-.782 1.288-2.254 2.139-1.449.828-3.243.828-1.495 0-2.622-.621a4.36 4.36 0 0 1-1.748-1.748q-.621-1.15-.621-2.691 0-.667.138-1.426m10.971.023q.115-.644.115-1.15 0-1.794-1.081-2.852t-2.806-1.058q-1.334 0-2.507.598-1.15.598-1.955 1.748-.805 1.126-1.081 2.691a7 7 0 0 0-.115 1.173q0 1.817 1.058 2.875 1.081 1.035 2.806 1.035 1.288 0 2.461-.621a5.5 5.5 0 0 0 2.001-1.771q.828-1.15 1.104-2.668M102.5 64.333a2.667 2.667 0 1 0 0 5.333 2.667 2.667 0 0 0 0-5.333m0 71a2.667 2.667 0 1 0 0 5.333 2.667 2.667 0 0 0 0-5.333m0-68.333h-.5v71h1V67zm115 97 2.887-5h-5.774zm0-4.5h.5V62h-1v97.5z"/><defs><linearGradient id="a" x1="102.5" x2="102.5" y1="43" y2="171" gradientUnits="userSpaceOnUse"><stop stop-color="#63e8ff"/><stop offset="1" stop-color="#306571"/></linearGradient></defs></svg>